%FSLAX46Y46*%
G04 Gerber Fmt 4.6, Leading zero omitted, Abs format (unit mm)*
G04 Created by KiCad (PCBNEW (2014-08-31 BZR 5107)-product) date tis  2 sep 2014 11:45:10*
%MOMM*%
G01*
G04 APERTURE LIST*
%ADD10C,0.150000*%
%ADD11C,0.250000*%
%ADD12C,0.381000*%
%ADD13C,0.066040*%
%ADD14C,0.152400*%
%ADD15C,0.127000*%
%ADD16C,0.119380*%
%ADD17C,0.099060*%
%ADD18C,0.175000*%
%ADD19C,0.114300*%
%ADD20C,0.109220*%
%ADD21C,0.304800*%
%ADD22C,0.149860*%
%ADD23C,0.076200*%
%ADD24R,1.699260X1.198880*%
%ADD25O,1.699260X1.198880*%
%ADD26O,1.524000X3.048000*%
%ADD27C,4.064000*%
%ADD28R,1.524000X2.032000*%
%ADD29R,1.143000X0.635000*%
%ADD30R,0.635000X1.143000*%
%ADD31R,0.889000X1.397000*%
%ADD32R,1.849120X5.499100*%
%ADD33R,2.032000X1.524000*%
%ADD34R,2.997200X7.498080*%
%ADD35C,1.300480*%
%ADD36R,5.000000X4.000000*%
%ADD37R,10.800080X8.150860*%
%ADD38R,0.899160X3.200400*%
%ADD39R,0.300000X1.300480*%
%ADD40R,1.300480X0.300000*%
%ADD41R,0.299720X1.501140*%
%ADD42R,7.000240X3.599180*%
%ADD43R,1.500000X0.500000*%
%ADD44R,2.200000X2.400000*%
%ADD45R,2.200000X2.000000*%
%ADD46C,0.900000*%
%ADD47R,0.701040X1.000760*%
%ADD48R,1.399540X0.599440*%
%ADD49C,0.254000*%
G04 APERTURE END LIST*
D10*
X110652381Y-131776191D02*
X109652381Y-131776191D01*
X110366667Y-131509524D01*
X109652381Y-131242857D01*
X110652381Y-131242857D01*
X110652381Y-130861905D02*
X109985714Y-130861905D01*
X110176190Y-130861905D02*
X110080952Y-130823810D01*
X110033333Y-130785714D01*
X109985714Y-130709524D01*
X109985714Y-130633333D01*
X110652381Y-130366667D02*
X109652381Y-130366667D01*
X110271429Y-130290476D02*
X110652381Y-130061905D01*
X109985714Y-130061905D02*
X110366667Y-130366667D01*
X110652381Y-129109524D02*
X109652381Y-129109524D01*
X109985714Y-128728572D02*
X110652381Y-128728572D01*
X110080952Y-128728572D02*
X110033333Y-128690477D01*
X109985714Y-128614286D01*
X109985714Y-128500000D01*
X110033333Y-128423810D01*
X110128571Y-128385715D01*
X110652381Y-128385715D01*
X110652381Y-127661905D02*
X109652381Y-127661905D01*
X110604762Y-127661905D02*
X110652381Y-127738095D01*
X110652381Y-127890476D01*
X110604762Y-127966667D01*
X110557143Y-128004762D01*
X110461905Y-128042857D01*
X110176190Y-128042857D01*
X110080952Y-128004762D01*
X110033333Y-127966667D01*
X109985714Y-127890476D01*
X109985714Y-127738095D01*
X110033333Y-127661905D01*
X109985714Y-126938095D02*
X110652381Y-126938095D01*
X109985714Y-127280952D02*
X110509524Y-127280952D01*
X110604762Y-127242857D01*
X110652381Y-127166666D01*
X110652381Y-127052380D01*
X110604762Y-126976190D01*
X110557143Y-126938095D01*
X110604762Y-126595237D02*
X110652381Y-126519047D01*
X110652381Y-126366666D01*
X110604762Y-126290475D01*
X110509524Y-126252380D01*
X110461905Y-126252380D01*
X110366667Y-126290475D01*
X110319048Y-126366666D01*
X110319048Y-126480951D01*
X110271429Y-126557142D01*
X110176190Y-126595237D01*
X110128571Y-126595237D01*
X110033333Y-126557142D01*
X109985714Y-126480951D01*
X109985714Y-126366666D01*
X110033333Y-126290475D01*
X109985714Y-126023809D02*
X109985714Y-125719047D01*
X109652381Y-125909523D02*
X110509524Y-125909523D01*
X110604762Y-125871428D01*
X110652381Y-125795237D01*
X110652381Y-125719047D01*
X110652381Y-125452380D02*
X109985714Y-125452380D01*
X110176190Y-125452380D02*
X110080952Y-125414285D01*
X110033333Y-125376189D01*
X109985714Y-125299999D01*
X109985714Y-125223808D01*
X110652381Y-124957142D02*
X109985714Y-124957142D01*
X109652381Y-124957142D02*
X109700000Y-124995237D01*
X109747619Y-124957142D01*
X109700000Y-124919047D01*
X109652381Y-124957142D01*
X109747619Y-124957142D01*
X110604762Y-124271428D02*
X110652381Y-124347618D01*
X110652381Y-124499999D01*
X110604762Y-124576190D01*
X110509524Y-124614285D01*
X110128571Y-124614285D01*
X110033333Y-124576190D01*
X109985714Y-124499999D01*
X109985714Y-124347618D01*
X110033333Y-124271428D01*
X110128571Y-124233333D01*
X110223810Y-124233333D01*
X110319048Y-124614285D01*
X110604762Y-123928571D02*
X110652381Y-123852381D01*
X110652381Y-123700000D01*
X110604762Y-123623809D01*
X110509524Y-123585714D01*
X110461905Y-123585714D01*
X110366667Y-123623809D01*
X110319048Y-123700000D01*
X110319048Y-123814285D01*
X110271429Y-123890476D01*
X110176190Y-123928571D01*
X110128571Y-123928571D01*
X110033333Y-123890476D01*
X109985714Y-123814285D01*
X109985714Y-123700000D01*
X110033333Y-123623809D01*
X84328571Y-113114285D02*
X84328571Y-112828571D01*
X84042857Y-112800000D01*
X84071429Y-112828571D01*
X84100000Y-112885714D01*
X84100000Y-113028571D01*
X84071429Y-113085714D01*
X84042857Y-113114285D01*
X83985714Y-113142857D01*
X83842857Y-113142857D01*
X83785714Y-113114285D01*
X83757143Y-113085714D01*
X83728571Y-113028571D01*
X83728571Y-112885714D01*
X83757143Y-112828571D01*
X83785714Y-112800000D01*
X84128571Y-113342857D02*
X83728571Y-113485714D01*
X84128571Y-113628572D01*
X83785714Y-114700000D02*
X83757143Y-114671429D01*
X83728571Y-114585715D01*
X83728571Y-114528572D01*
X83757143Y-114442857D01*
X83814286Y-114385715D01*
X83871429Y-114357143D01*
X83985714Y-114328572D01*
X84071429Y-114328572D01*
X84185714Y-114357143D01*
X84242857Y-114385715D01*
X84300000Y-114442857D01*
X84328571Y-114528572D01*
X84328571Y-114585715D01*
X84300000Y-114671429D01*
X84271429Y-114700000D01*
X83900000Y-114928572D02*
X83900000Y-115214286D01*
X83728571Y-114871429D02*
X84328571Y-115071429D01*
X83728571Y-115271429D01*
X83728571Y-115471429D02*
X84328571Y-115471429D01*
X83728571Y-115814286D01*
X84328571Y-115814286D01*
X83728571Y-116100000D02*
X84328571Y-116100000D01*
X84042857Y-116100000D02*
X84042857Y-116442857D01*
X83728571Y-116442857D02*
X84328571Y-116442857D01*
X83785714Y-117571429D02*
X83757143Y-117542858D01*
X83728571Y-117457144D01*
X83728571Y-117400001D01*
X83757143Y-117314286D01*
X83814286Y-117257144D01*
X83871429Y-117228572D01*
X83985714Y-117200001D01*
X84071429Y-117200001D01*
X84185714Y-117228572D01*
X84242857Y-117257144D01*
X84300000Y-117314286D01*
X84328571Y-117400001D01*
X84328571Y-117457144D01*
X84300000Y-117542858D01*
X84271429Y-117571429D01*
X83900000Y-117800001D02*
X83900000Y-118085715D01*
X83728571Y-117742858D02*
X84328571Y-117942858D01*
X83728571Y-118142858D01*
X83728571Y-118342858D02*
X84328571Y-118342858D01*
X83728571Y-118685715D01*
X84328571Y-118685715D01*
X83728571Y-119257143D02*
X83728571Y-118971429D01*
X84328571Y-118971429D01*
X84300000Y-120042858D02*
X84328571Y-119985715D01*
X84328571Y-119900001D01*
X84300000Y-119814286D01*
X84242857Y-119757144D01*
X84185714Y-119728572D01*
X84071429Y-119700001D01*
X83985714Y-119700001D01*
X83871429Y-119728572D01*
X83814286Y-119757144D01*
X83757143Y-119814286D01*
X83728571Y-119900001D01*
X83728571Y-119957144D01*
X83757143Y-120042858D01*
X83785714Y-120071429D01*
X83985714Y-120071429D01*
X83985714Y-119957144D01*
X83728571Y-120328572D02*
X84328571Y-120328572D01*
X83728571Y-120671429D01*
X84328571Y-120671429D01*
X83728571Y-120957143D02*
X84328571Y-120957143D01*
X84328571Y-121100000D01*
X84300000Y-121185715D01*
X84242857Y-121242857D01*
X84185714Y-121271429D01*
X84071429Y-121300000D01*
X83985714Y-121300000D01*
X83871429Y-121271429D01*
X83814286Y-121242857D01*
X83757143Y-121185715D01*
X83728571Y-121100000D01*
X83728571Y-120957143D01*
D11*
X114688096Y-137926000D02*
X114592858Y-137878381D01*
X114450001Y-137878381D01*
X114307143Y-137926000D01*
X114211905Y-138021238D01*
X114164286Y-138116476D01*
X114116667Y-138306952D01*
X114116667Y-138449810D01*
X114164286Y-138640286D01*
X114211905Y-138735524D01*
X114307143Y-138830762D01*
X114450001Y-138878381D01*
X114545239Y-138878381D01*
X114688096Y-138830762D01*
X114735715Y-138783143D01*
X114735715Y-138449810D01*
X114545239Y-138449810D01*
X115164286Y-138878381D02*
X115164286Y-137878381D01*
X115735715Y-138878381D01*
X115735715Y-137878381D01*
X116211905Y-138878381D02*
X116211905Y-137878381D01*
X116450000Y-137878381D01*
X116592858Y-137926000D01*
X116688096Y-138021238D01*
X116735715Y-138116476D01*
X116783334Y-138306952D01*
X116783334Y-138449810D01*
X116735715Y-138640286D01*
X116688096Y-138735524D01*
X116592858Y-138830762D01*
X116450000Y-138878381D01*
X116211905Y-138878381D01*
D10*
X111628571Y-131490476D02*
X111676190Y-131376190D01*
X111723810Y-131338095D01*
X111819048Y-131300000D01*
X111961905Y-131300000D01*
X112057143Y-131338095D01*
X112104762Y-131376190D01*
X112152381Y-131452381D01*
X112152381Y-131757143D01*
X111152381Y-131757143D01*
X111152381Y-131490476D01*
X111200000Y-131414286D01*
X111247619Y-131376190D01*
X111342857Y-131338095D01*
X111438095Y-131338095D01*
X111533333Y-131376190D01*
X111580952Y-131414286D01*
X111628571Y-131490476D01*
X111628571Y-131757143D01*
X112104762Y-130652381D02*
X112152381Y-130728571D01*
X112152381Y-130880952D01*
X112104762Y-130957143D01*
X112009524Y-130995238D01*
X111628571Y-130995238D01*
X111533333Y-130957143D01*
X111485714Y-130880952D01*
X111485714Y-130728571D01*
X111533333Y-130652381D01*
X111628571Y-130614286D01*
X111723810Y-130614286D01*
X111819048Y-130995238D01*
X111485714Y-130271429D02*
X112152381Y-130271429D01*
X111580952Y-130271429D02*
X111533333Y-130233334D01*
X111485714Y-130157143D01*
X111485714Y-130042857D01*
X111533333Y-129966667D01*
X111628571Y-129928572D01*
X112152381Y-129928572D01*
X111485714Y-129547619D02*
X112342857Y-129547619D01*
X112438095Y-129585714D01*
X112485714Y-129661905D01*
X112485714Y-129700000D01*
X111152381Y-129547619D02*
X111200000Y-129585714D01*
X111247619Y-129547619D01*
X111200000Y-129509524D01*
X111152381Y-129547619D01*
X111247619Y-129547619D01*
X112152381Y-128823810D02*
X111628571Y-128823810D01*
X111533333Y-128861905D01*
X111485714Y-128938095D01*
X111485714Y-129090476D01*
X111533333Y-129166667D01*
X112104762Y-128823810D02*
X112152381Y-128900000D01*
X112152381Y-129090476D01*
X112104762Y-129166667D01*
X112009524Y-129204762D01*
X111914286Y-129204762D01*
X111819048Y-129166667D01*
X111771429Y-129090476D01*
X111771429Y-128900000D01*
X111723810Y-128823810D01*
X112152381Y-128442857D02*
X111485714Y-128442857D01*
X111580952Y-128442857D02*
X111533333Y-128404762D01*
X111485714Y-128328571D01*
X111485714Y-128214285D01*
X111533333Y-128138095D01*
X111628571Y-128100000D01*
X112152381Y-128100000D01*
X111628571Y-128100000D02*
X111533333Y-128061904D01*
X111485714Y-127985714D01*
X111485714Y-127871428D01*
X111533333Y-127795238D01*
X111628571Y-127757143D01*
X112152381Y-127757143D01*
X112152381Y-127376190D02*
X111485714Y-127376190D01*
X111152381Y-127376190D02*
X111200000Y-127414285D01*
X111247619Y-127376190D01*
X111200000Y-127338095D01*
X111152381Y-127376190D01*
X111247619Y-127376190D01*
X111485714Y-126995238D02*
X112152381Y-126995238D01*
X111580952Y-126995238D02*
X111533333Y-126957143D01*
X111485714Y-126880952D01*
X111485714Y-126766666D01*
X111533333Y-126690476D01*
X111628571Y-126652381D01*
X112152381Y-126652381D01*
X111152381Y-125776190D02*
X112152381Y-125509523D01*
X111152381Y-125242856D01*
X112104762Y-124671428D02*
X112152381Y-124747618D01*
X112152381Y-124899999D01*
X112104762Y-124976190D01*
X112009524Y-125014285D01*
X111628571Y-125014285D01*
X111533333Y-124976190D01*
X111485714Y-124899999D01*
X111485714Y-124747618D01*
X111533333Y-124671428D01*
X111628571Y-124633333D01*
X111723810Y-124633333D01*
X111819048Y-125014285D01*
X112152381Y-123947619D02*
X111152381Y-123947619D01*
X112104762Y-123947619D02*
X112152381Y-124023809D01*
X112152381Y-124176190D01*
X112104762Y-124252381D01*
X112057143Y-124290476D01*
X111961905Y-124328571D01*
X111676190Y-124328571D01*
X111580952Y-124290476D01*
X111533333Y-124252381D01*
X111485714Y-124176190D01*
X111485714Y-124023809D01*
X111533333Y-123947619D01*
X112152381Y-123223809D02*
X111152381Y-123223809D01*
X112104762Y-123223809D02*
X112152381Y-123299999D01*
X112152381Y-123452380D01*
X112104762Y-123528571D01*
X112057143Y-123566666D01*
X111961905Y-123604761D01*
X111676190Y-123604761D01*
X111580952Y-123566666D01*
X111533333Y-123528571D01*
X111485714Y-123452380D01*
X111485714Y-123299999D01*
X111533333Y-123223809D01*
X112104762Y-122538094D02*
X112152381Y-122614284D01*
X112152381Y-122766665D01*
X112104762Y-122842856D01*
X112009524Y-122880951D01*
X111628571Y-122880951D01*
X111533333Y-122842856D01*
X111485714Y-122766665D01*
X111485714Y-122614284D01*
X111533333Y-122538094D01*
X111628571Y-122499999D01*
X111723810Y-122499999D01*
X111819048Y-122880951D01*
X112152381Y-122157142D02*
X111485714Y-122157142D01*
X111676190Y-122157142D02*
X111580952Y-122119047D01*
X111533333Y-122080951D01*
X111485714Y-122004761D01*
X111485714Y-121928570D01*
X108028571Y-132823809D02*
X108076190Y-132709523D01*
X108123810Y-132671428D01*
X108219048Y-132633333D01*
X108361905Y-132633333D01*
X108457143Y-132671428D01*
X108504762Y-132709523D01*
X108552381Y-132785714D01*
X108552381Y-133090476D01*
X107552381Y-133090476D01*
X107552381Y-132823809D01*
X107600000Y-132747619D01*
X107647619Y-132709523D01*
X107742857Y-132671428D01*
X107838095Y-132671428D01*
X107933333Y-132709523D01*
X107980952Y-132747619D01*
X108028571Y-132823809D01*
X108028571Y-133090476D01*
X108552381Y-131909523D02*
X108552381Y-132290476D01*
X107552381Y-132290476D01*
X108552381Y-131642857D02*
X107552381Y-131642857D01*
X107552381Y-131452381D01*
X107600000Y-131338095D01*
X107695238Y-131261904D01*
X107790476Y-131223809D01*
X107980952Y-131185714D01*
X108123810Y-131185714D01*
X108314286Y-131223809D01*
X108409524Y-131261904D01*
X108504762Y-131338095D01*
X108552381Y-131452381D01*
X108552381Y-131642857D01*
X108457143Y-130385714D02*
X108504762Y-130423809D01*
X108552381Y-130538095D01*
X108552381Y-130614285D01*
X108504762Y-130728571D01*
X108409524Y-130804762D01*
X108314286Y-130842857D01*
X108123810Y-130880952D01*
X107980952Y-130880952D01*
X107790476Y-130842857D01*
X107695238Y-130804762D01*
X107600000Y-130728571D01*
X107552381Y-130614285D01*
X107552381Y-130538095D01*
X107600000Y-130423809D01*
X107647619Y-130385714D01*
X107885714Y-129090476D02*
X108552381Y-129090476D01*
X107504762Y-129280952D02*
X108219048Y-129471428D01*
X108219048Y-128976190D01*
X108457143Y-128671428D02*
X108504762Y-128633333D01*
X108552381Y-128671428D01*
X108504762Y-128709523D01*
X108457143Y-128671428D01*
X108552381Y-128671428D01*
X107552381Y-127947619D02*
X107552381Y-128100000D01*
X107600000Y-128176190D01*
X107647619Y-128214285D01*
X107790476Y-128290476D01*
X107980952Y-128328571D01*
X108361905Y-128328571D01*
X108457143Y-128290476D01*
X108504762Y-128252381D01*
X108552381Y-128176190D01*
X108552381Y-128023809D01*
X108504762Y-127947619D01*
X108457143Y-127909523D01*
X108361905Y-127871428D01*
X108123810Y-127871428D01*
X108028571Y-127909523D01*
X107980952Y-127947619D01*
X107933333Y-128023809D01*
X107933333Y-128176190D01*
X107980952Y-128252381D01*
X108028571Y-128290476D01*
X108123810Y-128328571D01*
D12*
X82250860Y-116626940D02*
X82751240Y-116626940D01*
X82250860Y-116825060D02*
X82250860Y-116626940D01*
X82751240Y-116825060D02*
X82250860Y-116825060D01*
X83249080Y-121727260D02*
X83249080Y-111724740D01*
X82751240Y-112225120D02*
X82751240Y-121226880D01*
X78750740Y-121727260D02*
X78750740Y-111724740D01*
X82250860Y-118628460D02*
X82751240Y-118628460D01*
X82250860Y-118826580D02*
X82250860Y-118628460D01*
X82751240Y-118826580D02*
X82250860Y-118826580D01*
X82751240Y-114826080D02*
X82250860Y-114826080D01*
X82250860Y-114826080D02*
X82250860Y-114627960D01*
X82250860Y-114627960D02*
X82751240Y-114627960D01*
X79949620Y-111724740D02*
X79949620Y-112225120D01*
X81250100Y-112225120D02*
X81250100Y-111724740D01*
X81250100Y-121226880D02*
X81250100Y-121727260D01*
X79949620Y-121226880D02*
X79949620Y-121727260D01*
X78750740Y-119227900D02*
X79251120Y-119227900D01*
X79251120Y-119227900D02*
X79251120Y-121226880D01*
X79251120Y-121226880D02*
X82751240Y-121226880D01*
X82751240Y-112225120D02*
X79251120Y-112225120D01*
X79251120Y-112225120D02*
X79251120Y-114224100D01*
X79251120Y-114224100D02*
X78750740Y-114224100D01*
X78750740Y-121727260D02*
X83249080Y-121727260D01*
X78750740Y-111724740D02*
X83249080Y-111724740D01*
X78750740Y-120028000D02*
X78550080Y-120028000D01*
X78550080Y-120028000D02*
X78550080Y-120327720D01*
X78550080Y-120327720D02*
X78750740Y-120327720D01*
D13*
X110998000Y-136652000D02*
X111506000Y-136652000D01*
X111506000Y-136652000D02*
X111506000Y-136144000D01*
X110998000Y-136144000D02*
X111506000Y-136144000D01*
X110998000Y-136652000D02*
X110998000Y-136144000D01*
X108458000Y-136652000D02*
X108966000Y-136652000D01*
X108966000Y-136652000D02*
X108966000Y-136144000D01*
X108458000Y-136144000D02*
X108966000Y-136144000D01*
X108458000Y-136652000D02*
X108458000Y-136144000D01*
X113538000Y-136652000D02*
X114046000Y-136652000D01*
X114046000Y-136652000D02*
X114046000Y-136144000D01*
X113538000Y-136144000D02*
X114046000Y-136144000D01*
X113538000Y-136652000D02*
X113538000Y-136144000D01*
D14*
X108077000Y-135128000D02*
X109347000Y-135128000D01*
X109347000Y-135128000D02*
X109982000Y-135763000D01*
X109982000Y-135763000D02*
X109982000Y-137033000D01*
X109982000Y-137033000D02*
X109347000Y-137668000D01*
X109982000Y-135763000D02*
X110617000Y-135128000D01*
X110617000Y-135128000D02*
X111887000Y-135128000D01*
X111887000Y-135128000D02*
X112522000Y-135763000D01*
X112522000Y-135763000D02*
X112522000Y-137033000D01*
X112522000Y-137033000D02*
X111887000Y-137668000D01*
X111887000Y-137668000D02*
X110617000Y-137668000D01*
X110617000Y-137668000D02*
X109982000Y-137033000D01*
X107442000Y-135763000D02*
X107442000Y-137033000D01*
X108077000Y-135128000D02*
X107442000Y-135763000D01*
X107442000Y-137033000D02*
X108077000Y-137668000D01*
X109347000Y-137668000D02*
X108077000Y-137668000D01*
X112522000Y-135763000D02*
X113157000Y-135128000D01*
X113157000Y-135128000D02*
X114427000Y-135128000D01*
X114427000Y-135128000D02*
X115062000Y-135763000D01*
X115062000Y-135763000D02*
X115062000Y-137033000D01*
X115062000Y-137033000D02*
X114427000Y-137668000D01*
X114427000Y-137668000D02*
X113157000Y-137668000D01*
X113157000Y-137668000D02*
X112522000Y-137033000D01*
D12*
X94286000Y-83000000D02*
G75*
G03X94286000Y-83000000I-2286000J0D01*
G74*
G01*
X105786000Y-83000000D02*
G75*
G03X105786000Y-83000000I-2286000J0D01*
G74*
G01*
D15*
X94869000Y-103759000D02*
X94869000Y-106045000D01*
X94869000Y-106045000D02*
X96520000Y-106045000D01*
X98298000Y-103759000D02*
X99949000Y-103759000D01*
X99949000Y-103759000D02*
X99949000Y-106045000D01*
X99949000Y-106045000D02*
X98298000Y-106045000D01*
X96520000Y-103759000D02*
X94869000Y-103759000D01*
D16*
X107680760Y-126611380D02*
X107680760Y-127309880D01*
X107680760Y-125610620D02*
X107680760Y-124912120D01*
X108981240Y-126611380D02*
X108981240Y-127309880D01*
X108981240Y-124912120D02*
X108981240Y-125610620D01*
X108966000Y-127309880D02*
X107696000Y-127309880D01*
X107696000Y-124912120D02*
X108966000Y-124912120D01*
X110124240Y-132976620D02*
X110124240Y-132278120D01*
X110124240Y-133977380D02*
X110124240Y-134675880D01*
X108823760Y-132976620D02*
X108823760Y-132278120D01*
X108823760Y-134675880D02*
X108823760Y-133977380D01*
X108839000Y-132278120D02*
X110109000Y-132278120D01*
X110109000Y-134675880D02*
X108839000Y-134675880D01*
X99202240Y-122181620D02*
X99202240Y-121483120D01*
X99202240Y-123182380D02*
X99202240Y-123880880D01*
X97901760Y-122181620D02*
X97901760Y-121483120D01*
X97901760Y-123880880D02*
X97901760Y-123182380D01*
X97917000Y-121483120D02*
X99187000Y-121483120D01*
X99187000Y-123880880D02*
X97917000Y-123880880D01*
X93741240Y-126753620D02*
X93741240Y-126055120D01*
X93741240Y-127754380D02*
X93741240Y-128452880D01*
X92440760Y-126753620D02*
X92440760Y-126055120D01*
X92440760Y-128452880D02*
X92440760Y-127754380D01*
X92456000Y-126055120D02*
X93726000Y-126055120D01*
X93726000Y-128452880D02*
X92456000Y-128452880D01*
X95496380Y-122824240D02*
X96194880Y-122824240D01*
X94495620Y-122824240D02*
X93797120Y-122824240D01*
X95496380Y-121523760D02*
X96194880Y-121523760D01*
X93797120Y-121523760D02*
X94495620Y-121523760D01*
X96194880Y-121539000D02*
X96194880Y-122809000D01*
X93797120Y-122809000D02*
X93797120Y-121539000D01*
X92313760Y-123436380D02*
X92313760Y-124134880D01*
X92313760Y-122435620D02*
X92313760Y-121737120D01*
X93614240Y-123436380D02*
X93614240Y-124134880D01*
X93614240Y-121737120D02*
X93614240Y-122435620D01*
X93599000Y-124134880D02*
X92329000Y-124134880D01*
X92329000Y-121737120D02*
X93599000Y-121737120D01*
X102989380Y-123332240D02*
X103687880Y-123332240D01*
X101988620Y-123332240D02*
X101290120Y-123332240D01*
X102989380Y-122031760D02*
X103687880Y-122031760D01*
X101290120Y-122031760D02*
X101988620Y-122031760D01*
X103687880Y-122047000D02*
X103687880Y-123317000D01*
X101290120Y-123317000D02*
X101290120Y-122047000D01*
D17*
X111379000Y-121158000D02*
G75*
G03X111379000Y-121158000I-127000J0D01*
G74*
G01*
X110109000Y-121158000D02*
X111125000Y-121158000D01*
X111125000Y-121158000D02*
X111125000Y-122682000D01*
X111125000Y-122682000D02*
X110109000Y-122682000D01*
X109093000Y-122682000D02*
X108077000Y-122682000D01*
X108077000Y-122682000D02*
X108077000Y-121158000D01*
X108077000Y-121158000D02*
X109093000Y-121158000D01*
D16*
X93718380Y-110759240D02*
X94416880Y-110759240D01*
X92717620Y-110759240D02*
X92019120Y-110759240D01*
X93718380Y-109458760D02*
X94416880Y-109458760D01*
X92019120Y-109458760D02*
X92717620Y-109458760D01*
X94416880Y-109474000D02*
X94416880Y-110744000D01*
X92019120Y-110744000D02*
X92019120Y-109474000D01*
X95107760Y-109720380D02*
X95107760Y-110418880D01*
X95107760Y-108719620D02*
X95107760Y-108021120D01*
X96408240Y-109720380D02*
X96408240Y-110418880D01*
X96408240Y-108021120D02*
X96408240Y-108719620D01*
X96393000Y-110418880D02*
X95123000Y-110418880D01*
X95123000Y-108021120D02*
X96393000Y-108021120D01*
D17*
X100965000Y-106426000D02*
G75*
G03X100965000Y-106426000I-127000J0D01*
G74*
G01*
X99695000Y-106426000D02*
X100711000Y-106426000D01*
X100711000Y-106426000D02*
X100711000Y-107950000D01*
X100711000Y-107950000D02*
X99695000Y-107950000D01*
X98679000Y-107950000D02*
X97663000Y-107950000D01*
X97663000Y-107950000D02*
X97663000Y-106426000D01*
X97663000Y-106426000D02*
X98679000Y-106426000D01*
X103505000Y-104648000D02*
G75*
G03X103505000Y-104648000I-127000J0D01*
G74*
G01*
X102235000Y-104648000D02*
X103251000Y-104648000D01*
X103251000Y-104648000D02*
X103251000Y-106172000D01*
X103251000Y-106172000D02*
X102235000Y-106172000D01*
X101219000Y-106172000D02*
X100203000Y-106172000D01*
X100203000Y-106172000D02*
X100203000Y-104648000D01*
X100203000Y-104648000D02*
X101219000Y-104648000D01*
X105918000Y-106807000D02*
G75*
G03X105918000Y-106807000I-127000J0D01*
G74*
G01*
X104648000Y-106807000D02*
X105664000Y-106807000D01*
X105664000Y-106807000D02*
X105664000Y-108331000D01*
X105664000Y-108331000D02*
X104648000Y-108331000D01*
X103632000Y-108331000D02*
X102616000Y-108331000D01*
X102616000Y-108331000D02*
X102616000Y-106807000D01*
X102616000Y-106807000D02*
X103632000Y-106807000D01*
D16*
X108704380Y-109362240D02*
X109402880Y-109362240D01*
X107703620Y-109362240D02*
X107005120Y-109362240D01*
X108704380Y-108061760D02*
X109402880Y-108061760D01*
X107005120Y-108061760D02*
X107703620Y-108061760D01*
X109402880Y-108077000D02*
X109402880Y-109347000D01*
X107005120Y-109347000D02*
X107005120Y-108077000D01*
X95877380Y-137810240D02*
X96575880Y-137810240D01*
X94876620Y-137810240D02*
X94178120Y-137810240D01*
X95877380Y-136509760D02*
X96575880Y-136509760D01*
X94178120Y-136509760D02*
X94876620Y-136509760D01*
X96575880Y-136525000D02*
X96575880Y-137795000D01*
X94178120Y-137795000D02*
X94178120Y-136525000D01*
X111498380Y-109362240D02*
X112196880Y-109362240D01*
X110497620Y-109362240D02*
X109799120Y-109362240D01*
X111498380Y-108061760D02*
X112196880Y-108061760D01*
X109799120Y-108061760D02*
X110497620Y-108061760D01*
X112196880Y-108077000D02*
X112196880Y-109347000D01*
X109799120Y-109347000D02*
X109799120Y-108077000D01*
D15*
X92964000Y-103378000D02*
X92964000Y-108458000D01*
X88646000Y-103378000D02*
X88646000Y-108458000D01*
X88011000Y-103378000D02*
X93599000Y-103378000D01*
X93599000Y-103378000D02*
X93599000Y-108458000D01*
X93599000Y-108458000D02*
X88011000Y-108458000D01*
X88011000Y-108458000D02*
X88011000Y-103378000D01*
X109855000Y-118237000D02*
X112141000Y-118237000D01*
X112141000Y-118237000D02*
X112141000Y-116586000D01*
X109855000Y-114808000D02*
X109855000Y-113157000D01*
X109855000Y-113157000D02*
X112141000Y-113157000D01*
X112141000Y-113157000D02*
X112141000Y-114808000D01*
X109855000Y-116586000D02*
X109855000Y-118237000D01*
D12*
X91899740Y-115062000D02*
G75*
G03X91899740Y-115062000I-2999740J0D01*
G74*
G01*
X86598760Y-111861600D02*
X86598760Y-118262400D01*
X91201240Y-118262400D02*
X91201240Y-111861600D01*
X92900500Y-115062000D02*
G75*
G03X92900500Y-115062000I-4000500J0D01*
G74*
G01*
X93899580Y-138701140D02*
X93899580Y-137598780D01*
X93899580Y-134400920D02*
X93899580Y-136801220D01*
X80300420Y-138701140D02*
X80300420Y-137598780D01*
X80300420Y-134400920D02*
X80300420Y-136801220D01*
X83099500Y-138701140D02*
X80300420Y-138701140D01*
X80300420Y-134400920D02*
X93899580Y-134400920D01*
X93899580Y-138701140D02*
X91100500Y-138701140D01*
X112798860Y-134053580D02*
X113901220Y-134053580D01*
X117099080Y-134053580D02*
X114698780Y-134053580D01*
X112798860Y-120454420D02*
X113901220Y-120454420D01*
X117099080Y-120454420D02*
X114698780Y-120454420D01*
X112798860Y-123253500D02*
X112798860Y-120454420D01*
X117099080Y-120454420D02*
X117099080Y-134053580D01*
X112798860Y-134053580D02*
X112798860Y-131254500D01*
X112798860Y-119829580D02*
X113901220Y-119829580D01*
X117099080Y-119829580D02*
X114698780Y-119829580D01*
X112798860Y-106230420D02*
X113901220Y-106230420D01*
X117099080Y-106230420D02*
X114698780Y-106230420D01*
X112798860Y-109029500D02*
X112798860Y-106230420D01*
X117099080Y-106230420D02*
X117099080Y-119829580D01*
X112798860Y-119829580D02*
X112798860Y-117030500D01*
D10*
X82290000Y-85104000D02*
X82290000Y-80504000D01*
X82290000Y-80504000D02*
X87890000Y-80504000D01*
X87890000Y-80504000D02*
X87890000Y-85104000D01*
X87890000Y-85104000D02*
X82290000Y-85104000D01*
X94990000Y-85104000D02*
X94990000Y-80504000D01*
X94990000Y-80504000D02*
X100590000Y-80504000D01*
X100590000Y-80504000D02*
X100590000Y-85104000D01*
X100590000Y-85104000D02*
X94990000Y-85104000D01*
X106674000Y-85104000D02*
X106674000Y-80504000D01*
X106674000Y-80504000D02*
X112274000Y-80504000D01*
X112274000Y-80504000D02*
X112274000Y-85104000D01*
X112274000Y-85104000D02*
X106674000Y-85104000D01*
D12*
X105544620Y-92649040D02*
X115943380Y-92649040D01*
X115943380Y-92649040D02*
X115943380Y-100446840D01*
X115943380Y-100446840D02*
X113543080Y-101747320D01*
X113543080Y-101747320D02*
X107944920Y-101747320D01*
X107944920Y-101747320D02*
X105544620Y-100446840D01*
X105544620Y-100446840D02*
X105544620Y-92649040D01*
X92717620Y-92649040D02*
X103116380Y-92649040D01*
X103116380Y-92649040D02*
X103116380Y-100446840D01*
X103116380Y-100446840D02*
X100716080Y-101747320D01*
X100716080Y-101747320D02*
X95117920Y-101747320D01*
X95117920Y-101747320D02*
X92717620Y-100446840D01*
X92717620Y-100446840D02*
X92717620Y-92649040D01*
X79509620Y-92649040D02*
X89908380Y-92649040D01*
X89908380Y-92649040D02*
X89908380Y-100446840D01*
X89908380Y-100446840D02*
X87508080Y-101747320D01*
X87508080Y-101747320D02*
X81909920Y-101747320D01*
X81909920Y-101747320D02*
X79509620Y-100446840D01*
X79509620Y-100446840D02*
X79509620Y-92649040D01*
D15*
X86621620Y-119697500D02*
X85915500Y-119697500D01*
X85915500Y-119697500D02*
X85915500Y-121094500D01*
X85915500Y-121094500D02*
X86621620Y-121094500D01*
X88328500Y-119697500D02*
X87622380Y-119697500D01*
X88328500Y-119697500D02*
X88328500Y-121094500D01*
X88328500Y-121094500D02*
X87622380Y-121094500D01*
X89161620Y-119697500D02*
X88455500Y-119697500D01*
X88455500Y-119697500D02*
X88455500Y-121094500D01*
X88455500Y-121094500D02*
X89161620Y-121094500D01*
X90868500Y-119697500D02*
X90162380Y-119697500D01*
X90868500Y-119697500D02*
X90868500Y-121094500D01*
X90868500Y-121094500D02*
X90162380Y-121094500D01*
X94495620Y-122999500D02*
X93789500Y-122999500D01*
X93789500Y-122999500D02*
X93789500Y-124396500D01*
X93789500Y-124396500D02*
X94495620Y-124396500D01*
X96202500Y-122999500D02*
X95496380Y-122999500D01*
X96202500Y-122999500D02*
X96202500Y-124396500D01*
X96202500Y-124396500D02*
X95496380Y-124396500D01*
X97726500Y-122181620D02*
X97726500Y-121475500D01*
X97726500Y-121475500D02*
X96329500Y-121475500D01*
X96329500Y-121475500D02*
X96329500Y-122181620D01*
X97726500Y-123888500D02*
X97726500Y-123182380D01*
X97726500Y-123888500D02*
X96329500Y-123888500D01*
X96329500Y-123888500D02*
X96329500Y-123182380D01*
X95892620Y-106362500D02*
X95186500Y-106362500D01*
X95186500Y-106362500D02*
X95186500Y-107759500D01*
X95186500Y-107759500D02*
X95892620Y-107759500D01*
X97599500Y-106362500D02*
X96893380Y-106362500D01*
X97599500Y-106362500D02*
X97599500Y-107759500D01*
X97599500Y-107759500D02*
X96893380Y-107759500D01*
X114109500Y-84320380D02*
X114109500Y-85026500D01*
X114109500Y-85026500D02*
X115506500Y-85026500D01*
X115506500Y-85026500D02*
X115506500Y-84320380D01*
X114109500Y-82613500D02*
X114109500Y-83319620D01*
X114109500Y-82613500D02*
X115506500Y-82613500D01*
X115506500Y-82613500D02*
X115506500Y-83319620D01*
X105092500Y-89415620D02*
X105092500Y-88709500D01*
X105092500Y-88709500D02*
X103695500Y-88709500D01*
X103695500Y-88709500D02*
X103695500Y-89415620D01*
X105092500Y-91122500D02*
X105092500Y-90416380D01*
X105092500Y-91122500D02*
X103695500Y-91122500D01*
X103695500Y-91122500D02*
X103695500Y-90416380D01*
X92138500Y-88272620D02*
X92138500Y-87566500D01*
X92138500Y-87566500D02*
X90741500Y-87566500D01*
X90741500Y-87566500D02*
X90741500Y-88272620D01*
X92138500Y-89979500D02*
X92138500Y-89273380D01*
X92138500Y-89979500D02*
X90741500Y-89979500D01*
X90741500Y-89979500D02*
X90741500Y-89273380D01*
X108013500Y-106179620D02*
X108013500Y-105473500D01*
X108013500Y-105473500D02*
X106616500Y-105473500D01*
X106616500Y-105473500D02*
X106616500Y-106179620D01*
X108013500Y-107886500D02*
X108013500Y-107180380D01*
X108013500Y-107886500D02*
X106616500Y-107886500D01*
X106616500Y-107886500D02*
X106616500Y-107180380D01*
X109537500Y-106179620D02*
X109537500Y-105473500D01*
X109537500Y-105473500D02*
X108140500Y-105473500D01*
X108140500Y-105473500D02*
X108140500Y-106179620D01*
X109537500Y-107886500D02*
X109537500Y-107180380D01*
X109537500Y-107886500D02*
X108140500Y-107886500D01*
X108140500Y-107886500D02*
X108140500Y-107180380D01*
X111061500Y-106179620D02*
X111061500Y-105473500D01*
X111061500Y-105473500D02*
X109664500Y-105473500D01*
X109664500Y-105473500D02*
X109664500Y-106179620D01*
X111061500Y-107886500D02*
X111061500Y-107180380D01*
X111061500Y-107886500D02*
X109664500Y-107886500D01*
X109664500Y-107886500D02*
X109664500Y-107180380D01*
X112585500Y-106179620D02*
X112585500Y-105473500D01*
X112585500Y-105473500D02*
X111188500Y-105473500D01*
X111188500Y-105473500D02*
X111188500Y-106179620D01*
X112585500Y-107886500D02*
X112585500Y-107180380D01*
X112585500Y-107886500D02*
X111188500Y-107886500D01*
X111188500Y-107886500D02*
X111188500Y-107180380D01*
X105333800Y-136067800D02*
X96342200Y-136067800D01*
X105841800Y-135559800D02*
X105841800Y-126568200D01*
X96342200Y-126060200D02*
X105333800Y-126060200D01*
X95834200Y-135559800D02*
X95834200Y-126568200D01*
X97231200Y-135051800D02*
G75*
G03X97231200Y-135051800I-381000J0D01*
G74*
G01*
X96342200Y-136067800D02*
X95834200Y-135559800D01*
X105841800Y-135559800D02*
X105333800Y-136067800D01*
X105333800Y-126060200D02*
X105841800Y-126568200D01*
X95834200Y-126568200D02*
X96342200Y-126060200D01*
X94457520Y-118823740D02*
X109456220Y-118823740D01*
X109456220Y-112824260D02*
X94457520Y-112824260D01*
X109456220Y-112824260D02*
X109456220Y-118823740D01*
X94457520Y-118823740D02*
X94457520Y-112824260D01*
X95379738Y-118181120D02*
G75*
G03X95379738Y-118181120I-406598J0D01*
G74*
G01*
D17*
X78450000Y-123800000D02*
X78450000Y-131800000D01*
D15*
X112465000Y-104543000D02*
X112465000Y-102257000D01*
X112465000Y-102257000D02*
X113735000Y-102257000D01*
X113735000Y-102257000D02*
X113735000Y-104543000D01*
X113735000Y-104543000D02*
X112465000Y-104543000D01*
X93635000Y-129807000D02*
X93635000Y-132093000D01*
X93635000Y-132093000D02*
X92365000Y-132093000D01*
X92365000Y-132093000D02*
X92365000Y-129807000D01*
X92365000Y-129807000D02*
X93635000Y-129807000D01*
X88900380Y-128248500D02*
X89606500Y-128248500D01*
X89606500Y-128248500D02*
X89606500Y-126851500D01*
X89606500Y-126851500D02*
X88900380Y-126851500D01*
X87193500Y-128248500D02*
X87899620Y-128248500D01*
X87193500Y-128248500D02*
X87193500Y-126851500D01*
X87193500Y-126851500D02*
X87899620Y-126851500D01*
X88900380Y-126698500D02*
X89606500Y-126698500D01*
X89606500Y-126698500D02*
X89606500Y-125301500D01*
X89606500Y-125301500D02*
X88900380Y-125301500D01*
X87193500Y-126698500D02*
X87899620Y-126698500D01*
X87193500Y-126698500D02*
X87193500Y-125301500D01*
X87193500Y-125301500D02*
X87899620Y-125301500D01*
X86500380Y-123198500D02*
X87206500Y-123198500D01*
X87206500Y-123198500D02*
X87206500Y-121801500D01*
X87206500Y-121801500D02*
X86500380Y-121801500D01*
X84793500Y-123198500D02*
X85499620Y-123198500D01*
X84793500Y-123198500D02*
X84793500Y-121801500D01*
X84793500Y-121801500D02*
X85499620Y-121801500D01*
X115808000Y-103538000D02*
X116570000Y-104046000D01*
X114030000Y-103538000D02*
X116633500Y-103538000D01*
X116633500Y-103538000D02*
X116633500Y-105062000D01*
X116633500Y-105062000D02*
X114030000Y-105062000D01*
X114030000Y-105062000D02*
X114030000Y-103538000D01*
X90578000Y-133717000D02*
X90705000Y-133717000D01*
X90705000Y-133717000D02*
X90705000Y-128383000D01*
X86895000Y-128383000D02*
X86895000Y-133717000D01*
X86895000Y-133717000D02*
X90578000Y-133717000D01*
X88292000Y-133717000D02*
X88292000Y-133209000D01*
X88292000Y-133209000D02*
X89308000Y-133209000D01*
X89308000Y-133209000D02*
X89308000Y-133717000D01*
X86895000Y-128383000D02*
X90705000Y-128383000D01*
D18*
X79316667Y-111383333D02*
X78616667Y-111383333D01*
X78616667Y-111116667D01*
X78650000Y-111050000D01*
X78683333Y-111016667D01*
X78750000Y-110983333D01*
X78850000Y-110983333D01*
X78916667Y-111016667D01*
X78950000Y-111050000D01*
X78983333Y-111116667D01*
X78983333Y-111383333D01*
X79316667Y-110316667D02*
X79316667Y-110716667D01*
X79316667Y-110516667D02*
X78616667Y-110516667D01*
X78716667Y-110583333D01*
X78783333Y-110650000D01*
X78816667Y-110716667D01*
X78616667Y-109883333D02*
X78616667Y-109816666D01*
X78650000Y-109750000D01*
X78683333Y-109716666D01*
X78750000Y-109683333D01*
X78883333Y-109650000D01*
X79050000Y-109650000D01*
X79183333Y-109683333D01*
X79250000Y-109716666D01*
X79283333Y-109750000D01*
X79316667Y-109816666D01*
X79316667Y-109883333D01*
X79283333Y-109950000D01*
X79250000Y-109983333D01*
X79183333Y-110016666D01*
X79050000Y-110050000D01*
X78883333Y-110050000D01*
X78750000Y-110016666D01*
X78683333Y-109983333D01*
X78650000Y-109950000D01*
X78616667Y-109883333D01*
X79316667Y-108983333D02*
X79316667Y-109383333D01*
X79316667Y-109183333D02*
X78616667Y-109183333D01*
X78716667Y-109249999D01*
X78783333Y-109316666D01*
X78816667Y-109383333D01*
X110783334Y-134516667D02*
X110783334Y-133816667D01*
X111183334Y-134516667D02*
X110883334Y-134116667D01*
X111183334Y-133816667D02*
X110783334Y-134216667D01*
X111850000Y-134516667D02*
X111450000Y-134516667D01*
X111650000Y-134516667D02*
X111650000Y-133816667D01*
X111583334Y-133916667D01*
X111516667Y-133983333D01*
X111450000Y-134016667D01*
D15*
X97273000Y-103472143D02*
X97236714Y-103508429D01*
X97127857Y-103544714D01*
X97055286Y-103544714D01*
X96946429Y-103508429D01*
X96873857Y-103435857D01*
X96837572Y-103363286D01*
X96801286Y-103218143D01*
X96801286Y-103109286D01*
X96837572Y-102964143D01*
X96873857Y-102891571D01*
X96946429Y-102819000D01*
X97055286Y-102782714D01*
X97127857Y-102782714D01*
X97236714Y-102819000D01*
X97273000Y-102855286D01*
X97998714Y-103544714D02*
X97563286Y-103544714D01*
X97781000Y-103544714D02*
X97781000Y-102782714D01*
X97708429Y-102891571D01*
X97635857Y-102964143D01*
X97563286Y-103000429D01*
D19*
X107481429Y-126393915D02*
X107505619Y-126415686D01*
X107529810Y-126481000D01*
X107529810Y-126524543D01*
X107505619Y-126589858D01*
X107457238Y-126633400D01*
X107408857Y-126655172D01*
X107312095Y-126676943D01*
X107239524Y-126676943D01*
X107142762Y-126655172D01*
X107094381Y-126633400D01*
X107046000Y-126589858D01*
X107021810Y-126524543D01*
X107021810Y-126481000D01*
X107046000Y-126415686D01*
X107070190Y-126393915D01*
X107529810Y-125958486D02*
X107529810Y-126219743D01*
X107529810Y-126089115D02*
X107021810Y-126089115D01*
X107094381Y-126132658D01*
X107142762Y-126176200D01*
X107166952Y-126219743D01*
X107021810Y-125675457D02*
X107021810Y-125631914D01*
X107046000Y-125588371D01*
X107070190Y-125566600D01*
X107118571Y-125544829D01*
X107215333Y-125523057D01*
X107336286Y-125523057D01*
X107433048Y-125544829D01*
X107481429Y-125566600D01*
X107505619Y-125588371D01*
X107529810Y-125631914D01*
X107529810Y-125675457D01*
X107505619Y-125719000D01*
X107481429Y-125740771D01*
X107433048Y-125762543D01*
X107336286Y-125784314D01*
X107215333Y-125784314D01*
X107118571Y-125762543D01*
X107070190Y-125740771D01*
X107046000Y-125719000D01*
X107021810Y-125675457D01*
X108581429Y-134293915D02*
X108605619Y-134315686D01*
X108629810Y-134381000D01*
X108629810Y-134424543D01*
X108605619Y-134489858D01*
X108557238Y-134533400D01*
X108508857Y-134555172D01*
X108412095Y-134576943D01*
X108339524Y-134576943D01*
X108242762Y-134555172D01*
X108194381Y-134533400D01*
X108146000Y-134489858D01*
X108121810Y-134424543D01*
X108121810Y-134381000D01*
X108146000Y-134315686D01*
X108170190Y-134293915D01*
X108629810Y-133858486D02*
X108629810Y-134119743D01*
X108629810Y-133989115D02*
X108121810Y-133989115D01*
X108194381Y-134032658D01*
X108242762Y-134076200D01*
X108266952Y-134119743D01*
X108629810Y-133423057D02*
X108629810Y-133684314D01*
X108629810Y-133553686D02*
X108121810Y-133553686D01*
X108194381Y-133597229D01*
X108242762Y-133640771D01*
X108266952Y-133684314D01*
X99781429Y-122993915D02*
X99805619Y-123015686D01*
X99829810Y-123081000D01*
X99829810Y-123124543D01*
X99805619Y-123189858D01*
X99757238Y-123233400D01*
X99708857Y-123255172D01*
X99612095Y-123276943D01*
X99539524Y-123276943D01*
X99442762Y-123255172D01*
X99394381Y-123233400D01*
X99346000Y-123189858D01*
X99321810Y-123124543D01*
X99321810Y-123081000D01*
X99346000Y-123015686D01*
X99370190Y-122993915D01*
X99829810Y-122558486D02*
X99829810Y-122819743D01*
X99829810Y-122689115D02*
X99321810Y-122689115D01*
X99394381Y-122732658D01*
X99442762Y-122776200D01*
X99466952Y-122819743D01*
X99370190Y-122384314D02*
X99346000Y-122362543D01*
X99321810Y-122319000D01*
X99321810Y-122210143D01*
X99346000Y-122166600D01*
X99370190Y-122144829D01*
X99418571Y-122123057D01*
X99466952Y-122123057D01*
X99539524Y-122144829D01*
X99829810Y-122406086D01*
X99829810Y-122123057D01*
X92281429Y-127493915D02*
X92305619Y-127515686D01*
X92329810Y-127581000D01*
X92329810Y-127624543D01*
X92305619Y-127689858D01*
X92257238Y-127733400D01*
X92208857Y-127755172D01*
X92112095Y-127776943D01*
X92039524Y-127776943D01*
X91942762Y-127755172D01*
X91894381Y-127733400D01*
X91846000Y-127689858D01*
X91821810Y-127624543D01*
X91821810Y-127581000D01*
X91846000Y-127515686D01*
X91870190Y-127493915D01*
X92329810Y-127058486D02*
X92329810Y-127319743D01*
X92329810Y-127189115D02*
X91821810Y-127189115D01*
X91894381Y-127232658D01*
X91942762Y-127276200D01*
X91966952Y-127319743D01*
X91821810Y-126906086D02*
X91821810Y-126623057D01*
X92015333Y-126775457D01*
X92015333Y-126710143D01*
X92039524Y-126666600D01*
X92063714Y-126644829D01*
X92112095Y-126623057D01*
X92233048Y-126623057D01*
X92281429Y-126644829D01*
X92305619Y-126666600D01*
X92329810Y-126710143D01*
X92329810Y-126840771D01*
X92305619Y-126884314D01*
X92281429Y-126906086D01*
X94706085Y-121381429D02*
X94684314Y-121405619D01*
X94619000Y-121429810D01*
X94575457Y-121429810D01*
X94510142Y-121405619D01*
X94466600Y-121357238D01*
X94444828Y-121308857D01*
X94423057Y-121212095D01*
X94423057Y-121139524D01*
X94444828Y-121042762D01*
X94466600Y-120994381D01*
X94510142Y-120946000D01*
X94575457Y-120921810D01*
X94619000Y-120921810D01*
X94684314Y-120946000D01*
X94706085Y-120970190D01*
X95141514Y-121429810D02*
X94880257Y-121429810D01*
X95010885Y-121429810D02*
X95010885Y-120921810D01*
X94967342Y-120994381D01*
X94923800Y-121042762D01*
X94880257Y-121066952D01*
X95359229Y-121429810D02*
X95446314Y-121429810D01*
X95489857Y-121405619D01*
X95511629Y-121381429D01*
X95555171Y-121308857D01*
X95576943Y-121212095D01*
X95576943Y-121018571D01*
X95555171Y-120970190D01*
X95533400Y-120946000D01*
X95489857Y-120921810D01*
X95402771Y-120921810D01*
X95359229Y-120946000D01*
X95337457Y-120970190D01*
X95315686Y-121018571D01*
X95315686Y-121139524D01*
X95337457Y-121187905D01*
X95359229Y-121212095D01*
X95402771Y-121236286D01*
X95489857Y-121236286D01*
X95533400Y-121212095D01*
X95555171Y-121187905D01*
X95576943Y-121139524D01*
X92706085Y-121481429D02*
X92684314Y-121505619D01*
X92619000Y-121529810D01*
X92575457Y-121529810D01*
X92510142Y-121505619D01*
X92466600Y-121457238D01*
X92444828Y-121408857D01*
X92423057Y-121312095D01*
X92423057Y-121239524D01*
X92444828Y-121142762D01*
X92466600Y-121094381D01*
X92510142Y-121046000D01*
X92575457Y-121021810D01*
X92619000Y-121021810D01*
X92684314Y-121046000D01*
X92706085Y-121070190D01*
X92880257Y-121070190D02*
X92902028Y-121046000D01*
X92945571Y-121021810D01*
X93054428Y-121021810D01*
X93097971Y-121046000D01*
X93119742Y-121070190D01*
X93141514Y-121118571D01*
X93141514Y-121166952D01*
X93119742Y-121239524D01*
X92858485Y-121529810D01*
X93141514Y-121529810D01*
X93576943Y-121529810D02*
X93315686Y-121529810D01*
X93446314Y-121529810D02*
X93446314Y-121021810D01*
X93402771Y-121094381D01*
X93359229Y-121142762D01*
X93315686Y-121166952D01*
X102206085Y-123981429D02*
X102184314Y-124005619D01*
X102119000Y-124029810D01*
X102075457Y-124029810D01*
X102010142Y-124005619D01*
X101966600Y-123957238D01*
X101944828Y-123908857D01*
X101923057Y-123812095D01*
X101923057Y-123739524D01*
X101944828Y-123642762D01*
X101966600Y-123594381D01*
X102010142Y-123546000D01*
X102075457Y-123521810D01*
X102119000Y-123521810D01*
X102184314Y-123546000D01*
X102206085Y-123570190D01*
X102380257Y-123570190D02*
X102402028Y-123546000D01*
X102445571Y-123521810D01*
X102554428Y-123521810D01*
X102597971Y-123546000D01*
X102619742Y-123570190D01*
X102641514Y-123618571D01*
X102641514Y-123666952D01*
X102619742Y-123739524D01*
X102358485Y-124029810D01*
X102641514Y-124029810D01*
X102815686Y-123570190D02*
X102837457Y-123546000D01*
X102881000Y-123521810D01*
X102989857Y-123521810D01*
X103033400Y-123546000D01*
X103055171Y-123570190D01*
X103076943Y-123618571D01*
X103076943Y-123666952D01*
X103055171Y-123739524D01*
X102793914Y-124029810D01*
X103076943Y-124029810D01*
D20*
X107778707Y-122221672D02*
X107802535Y-122245500D01*
X107826362Y-122316983D01*
X107826362Y-122364638D01*
X107802535Y-122436121D01*
X107754880Y-122483776D01*
X107707224Y-122507604D01*
X107611914Y-122531432D01*
X107540431Y-122531432D01*
X107445120Y-122507604D01*
X107397465Y-122483776D01*
X107349810Y-122436121D01*
X107325982Y-122364638D01*
X107325982Y-122316983D01*
X107349810Y-122245500D01*
X107373638Y-122221672D01*
X107373638Y-122031052D02*
X107349810Y-122007224D01*
X107325982Y-121959569D01*
X107325982Y-121840431D01*
X107349810Y-121792775D01*
X107373638Y-121768948D01*
X107421293Y-121745120D01*
X107468948Y-121745120D01*
X107540431Y-121768948D01*
X107826362Y-122054879D01*
X107826362Y-121745120D01*
X107325982Y-121578327D02*
X107325982Y-121268568D01*
X107516603Y-121435361D01*
X107516603Y-121363879D01*
X107540431Y-121316223D01*
X107564259Y-121292396D01*
X107611914Y-121268568D01*
X107731052Y-121268568D01*
X107778707Y-121292396D01*
X107802535Y-121316223D01*
X107826362Y-121363879D01*
X107826362Y-121506844D01*
X107802535Y-121554500D01*
X107778707Y-121578327D01*
D19*
X91781429Y-110693915D02*
X91805619Y-110715686D01*
X91829810Y-110781000D01*
X91829810Y-110824543D01*
X91805619Y-110889858D01*
X91757238Y-110933400D01*
X91708857Y-110955172D01*
X91612095Y-110976943D01*
X91539524Y-110976943D01*
X91442762Y-110955172D01*
X91394381Y-110933400D01*
X91346000Y-110889858D01*
X91321810Y-110824543D01*
X91321810Y-110781000D01*
X91346000Y-110715686D01*
X91370190Y-110693915D01*
X91370190Y-110519743D02*
X91346000Y-110497972D01*
X91321810Y-110454429D01*
X91321810Y-110345572D01*
X91346000Y-110302029D01*
X91370190Y-110280258D01*
X91418571Y-110258486D01*
X91466952Y-110258486D01*
X91539524Y-110280258D01*
X91829810Y-110541515D01*
X91829810Y-110258486D01*
X91321810Y-109866600D02*
X91321810Y-109953686D01*
X91346000Y-109997229D01*
X91370190Y-110019000D01*
X91442762Y-110062543D01*
X91539524Y-110084314D01*
X91733048Y-110084314D01*
X91781429Y-110062543D01*
X91805619Y-110040771D01*
X91829810Y-109997229D01*
X91829810Y-109910143D01*
X91805619Y-109866600D01*
X91781429Y-109844829D01*
X91733048Y-109823057D01*
X91612095Y-109823057D01*
X91563714Y-109844829D01*
X91539524Y-109866600D01*
X91515333Y-109910143D01*
X91515333Y-109997229D01*
X91539524Y-110040771D01*
X91563714Y-110062543D01*
X91612095Y-110084314D01*
X97081429Y-109493915D02*
X97105619Y-109515686D01*
X97129810Y-109581000D01*
X97129810Y-109624543D01*
X97105619Y-109689858D01*
X97057238Y-109733400D01*
X97008857Y-109755172D01*
X96912095Y-109776943D01*
X96839524Y-109776943D01*
X96742762Y-109755172D01*
X96694381Y-109733400D01*
X96646000Y-109689858D01*
X96621810Y-109624543D01*
X96621810Y-109581000D01*
X96646000Y-109515686D01*
X96670190Y-109493915D01*
X96670190Y-109319743D02*
X96646000Y-109297972D01*
X96621810Y-109254429D01*
X96621810Y-109145572D01*
X96646000Y-109102029D01*
X96670190Y-109080258D01*
X96718571Y-109058486D01*
X96766952Y-109058486D01*
X96839524Y-109080258D01*
X97129810Y-109341515D01*
X97129810Y-109058486D01*
X96621810Y-108906086D02*
X96621810Y-108601286D01*
X97129810Y-108797229D01*
D20*
X98878328Y-108578707D02*
X98854500Y-108602535D01*
X98783017Y-108626362D01*
X98735362Y-108626362D01*
X98663879Y-108602535D01*
X98616224Y-108554880D01*
X98592396Y-108507224D01*
X98568568Y-108411914D01*
X98568568Y-108340431D01*
X98592396Y-108245120D01*
X98616224Y-108197465D01*
X98663879Y-108149810D01*
X98735362Y-108125982D01*
X98783017Y-108125982D01*
X98854500Y-108149810D01*
X98878328Y-108173638D01*
X99068948Y-108173638D02*
X99092776Y-108149810D01*
X99140431Y-108125982D01*
X99259569Y-108125982D01*
X99307225Y-108149810D01*
X99331052Y-108173638D01*
X99354880Y-108221293D01*
X99354880Y-108268948D01*
X99331052Y-108340431D01*
X99045121Y-108626362D01*
X99354880Y-108626362D01*
X99640811Y-108340431D02*
X99593156Y-108316603D01*
X99569328Y-108292776D01*
X99545500Y-108245120D01*
X99545500Y-108221293D01*
X99569328Y-108173638D01*
X99593156Y-108149810D01*
X99640811Y-108125982D01*
X99736121Y-108125982D01*
X99783777Y-108149810D01*
X99807604Y-108173638D01*
X99831432Y-108221293D01*
X99831432Y-108245120D01*
X99807604Y-108292776D01*
X99783777Y-108316603D01*
X99736121Y-108340431D01*
X99640811Y-108340431D01*
X99593156Y-108364259D01*
X99569328Y-108388086D01*
X99545500Y-108435741D01*
X99545500Y-108531052D01*
X99569328Y-108578707D01*
X99593156Y-108602535D01*
X99640811Y-108626362D01*
X99736121Y-108626362D01*
X99783777Y-108602535D01*
X99807604Y-108578707D01*
X99831432Y-108531052D01*
X99831432Y-108435741D01*
X99807604Y-108388086D01*
X99783777Y-108364259D01*
X99736121Y-108340431D01*
X101378328Y-104378707D02*
X101354500Y-104402535D01*
X101283017Y-104426362D01*
X101235362Y-104426362D01*
X101163879Y-104402535D01*
X101116224Y-104354880D01*
X101092396Y-104307224D01*
X101068568Y-104211914D01*
X101068568Y-104140431D01*
X101092396Y-104045120D01*
X101116224Y-103997465D01*
X101163879Y-103949810D01*
X101235362Y-103925982D01*
X101283017Y-103925982D01*
X101354500Y-103949810D01*
X101378328Y-103973638D01*
X101568948Y-103973638D02*
X101592776Y-103949810D01*
X101640431Y-103925982D01*
X101759569Y-103925982D01*
X101807225Y-103949810D01*
X101831052Y-103973638D01*
X101854880Y-104021293D01*
X101854880Y-104068948D01*
X101831052Y-104140431D01*
X101545121Y-104426362D01*
X101854880Y-104426362D01*
X102093156Y-104426362D02*
X102188466Y-104426362D01*
X102236121Y-104402535D01*
X102259949Y-104378707D01*
X102307604Y-104307224D01*
X102331432Y-104211914D01*
X102331432Y-104021293D01*
X102307604Y-103973638D01*
X102283777Y-103949810D01*
X102236121Y-103925982D01*
X102140811Y-103925982D01*
X102093156Y-103949810D01*
X102069328Y-103973638D01*
X102045500Y-104021293D01*
X102045500Y-104140431D01*
X102069328Y-104188086D01*
X102093156Y-104211914D01*
X102140811Y-104235741D01*
X102236121Y-104235741D01*
X102283777Y-104211914D01*
X102307604Y-104188086D01*
X102331432Y-104140431D01*
X103778328Y-106578707D02*
X103754500Y-106602535D01*
X103683017Y-106626362D01*
X103635362Y-106626362D01*
X103563879Y-106602535D01*
X103516224Y-106554880D01*
X103492396Y-106507224D01*
X103468568Y-106411914D01*
X103468568Y-106340431D01*
X103492396Y-106245120D01*
X103516224Y-106197465D01*
X103563879Y-106149810D01*
X103635362Y-106125982D01*
X103683017Y-106125982D01*
X103754500Y-106149810D01*
X103778328Y-106173638D01*
X103945121Y-106125982D02*
X104254880Y-106125982D01*
X104088087Y-106316603D01*
X104159569Y-106316603D01*
X104207225Y-106340431D01*
X104231052Y-106364259D01*
X104254880Y-106411914D01*
X104254880Y-106531052D01*
X104231052Y-106578707D01*
X104207225Y-106602535D01*
X104159569Y-106626362D01*
X104016604Y-106626362D01*
X103968948Y-106602535D01*
X103945121Y-106578707D01*
X104564639Y-106125982D02*
X104612294Y-106125982D01*
X104659949Y-106149810D01*
X104683777Y-106173638D01*
X104707604Y-106221293D01*
X104731432Y-106316603D01*
X104731432Y-106435741D01*
X104707604Y-106531052D01*
X104683777Y-106578707D01*
X104659949Y-106602535D01*
X104612294Y-106626362D01*
X104564639Y-106626362D01*
X104516983Y-106602535D01*
X104493156Y-106578707D01*
X104469328Y-106531052D01*
X104445500Y-106435741D01*
X104445500Y-106316603D01*
X104469328Y-106221293D01*
X104493156Y-106173638D01*
X104516983Y-106149810D01*
X104564639Y-106125982D01*
D19*
X106781429Y-108893915D02*
X106805619Y-108915686D01*
X106829810Y-108981000D01*
X106829810Y-109024543D01*
X106805619Y-109089858D01*
X106757238Y-109133400D01*
X106708857Y-109155172D01*
X106612095Y-109176943D01*
X106539524Y-109176943D01*
X106442762Y-109155172D01*
X106394381Y-109133400D01*
X106346000Y-109089858D01*
X106321810Y-109024543D01*
X106321810Y-108981000D01*
X106346000Y-108915686D01*
X106370190Y-108893915D01*
X106321810Y-108741515D02*
X106321810Y-108458486D01*
X106515333Y-108610886D01*
X106515333Y-108545572D01*
X106539524Y-108502029D01*
X106563714Y-108480258D01*
X106612095Y-108458486D01*
X106733048Y-108458486D01*
X106781429Y-108480258D01*
X106805619Y-108502029D01*
X106829810Y-108545572D01*
X106829810Y-108676200D01*
X106805619Y-108719743D01*
X106781429Y-108741515D01*
X106491143Y-108066600D02*
X106829810Y-108066600D01*
X106297619Y-108175457D02*
X106660476Y-108284314D01*
X106660476Y-108001286D01*
X95006085Y-138481429D02*
X94984314Y-138505619D01*
X94919000Y-138529810D01*
X94875457Y-138529810D01*
X94810142Y-138505619D01*
X94766600Y-138457238D01*
X94744828Y-138408857D01*
X94723057Y-138312095D01*
X94723057Y-138239524D01*
X94744828Y-138142762D01*
X94766600Y-138094381D01*
X94810142Y-138046000D01*
X94875457Y-138021810D01*
X94919000Y-138021810D01*
X94984314Y-138046000D01*
X95006085Y-138070190D01*
X95158485Y-138021810D02*
X95441514Y-138021810D01*
X95289114Y-138215333D01*
X95354428Y-138215333D01*
X95397971Y-138239524D01*
X95419742Y-138263714D01*
X95441514Y-138312095D01*
X95441514Y-138433048D01*
X95419742Y-138481429D01*
X95397971Y-138505619D01*
X95354428Y-138529810D01*
X95223800Y-138529810D01*
X95180257Y-138505619D01*
X95158485Y-138481429D01*
X95855171Y-138021810D02*
X95637457Y-138021810D01*
X95615686Y-138263714D01*
X95637457Y-138239524D01*
X95681000Y-138215333D01*
X95789857Y-138215333D01*
X95833400Y-138239524D01*
X95855171Y-138263714D01*
X95876943Y-138312095D01*
X95876943Y-138433048D01*
X95855171Y-138481429D01*
X95833400Y-138505619D01*
X95789857Y-138529810D01*
X95681000Y-138529810D01*
X95637457Y-138505619D01*
X95615686Y-138481429D01*
X110256085Y-110007429D02*
X110234314Y-110031619D01*
X110169000Y-110055810D01*
X110125457Y-110055810D01*
X110060142Y-110031619D01*
X110016600Y-109983238D01*
X109994828Y-109934857D01*
X109973057Y-109838095D01*
X109973057Y-109765524D01*
X109994828Y-109668762D01*
X110016600Y-109620381D01*
X110060142Y-109572000D01*
X110125457Y-109547810D01*
X110169000Y-109547810D01*
X110234314Y-109572000D01*
X110256085Y-109596190D01*
X110408485Y-109547810D02*
X110691514Y-109547810D01*
X110539114Y-109741333D01*
X110604428Y-109741333D01*
X110647971Y-109765524D01*
X110669742Y-109789714D01*
X110691514Y-109838095D01*
X110691514Y-109959048D01*
X110669742Y-110007429D01*
X110647971Y-110031619D01*
X110604428Y-110055810D01*
X110473800Y-110055810D01*
X110430257Y-110031619D01*
X110408485Y-110007429D01*
X111083400Y-109547810D02*
X110996314Y-109547810D01*
X110952771Y-109572000D01*
X110931000Y-109596190D01*
X110887457Y-109668762D01*
X110865686Y-109765524D01*
X110865686Y-109959048D01*
X110887457Y-110007429D01*
X110909229Y-110031619D01*
X110952771Y-110055810D01*
X111039857Y-110055810D01*
X111083400Y-110031619D01*
X111105171Y-110007429D01*
X111126943Y-109959048D01*
X111126943Y-109838095D01*
X111105171Y-109789714D01*
X111083400Y-109765524D01*
X111039857Y-109741333D01*
X110952771Y-109741333D01*
X110909229Y-109765524D01*
X110887457Y-109789714D01*
X110865686Y-109838095D01*
D16*
X89978328Y-102778707D02*
X89954500Y-102802535D01*
X89883017Y-102826362D01*
X89835362Y-102826362D01*
X89763879Y-102802535D01*
X89716224Y-102754880D01*
X89692396Y-102707224D01*
X89668568Y-102611914D01*
X89668568Y-102540431D01*
X89692396Y-102445120D01*
X89716224Y-102397465D01*
X89763879Y-102349810D01*
X89835362Y-102325982D01*
X89883017Y-102325982D01*
X89954500Y-102349810D01*
X89978328Y-102373638D01*
X90145121Y-102325982D02*
X90454880Y-102325982D01*
X90288087Y-102516603D01*
X90359569Y-102516603D01*
X90407225Y-102540431D01*
X90431052Y-102564259D01*
X90454880Y-102611914D01*
X90454880Y-102731052D01*
X90431052Y-102778707D01*
X90407225Y-102802535D01*
X90359569Y-102826362D01*
X90216604Y-102826362D01*
X90168948Y-102802535D01*
X90145121Y-102778707D01*
X90621673Y-102325982D02*
X90955260Y-102325982D01*
X90740811Y-102826362D01*
D15*
X110460143Y-112898143D02*
X110423857Y-112934429D01*
X110315000Y-112970714D01*
X110242429Y-112970714D01*
X110133572Y-112934429D01*
X110061000Y-112861857D01*
X110024715Y-112789286D01*
X109988429Y-112644143D01*
X109988429Y-112535286D01*
X110024715Y-112390143D01*
X110061000Y-112317571D01*
X110133572Y-112245000D01*
X110242429Y-112208714D01*
X110315000Y-112208714D01*
X110423857Y-112245000D01*
X110460143Y-112281286D01*
X110714143Y-112208714D02*
X111185857Y-112208714D01*
X110931857Y-112499000D01*
X111040715Y-112499000D01*
X111113286Y-112535286D01*
X111149572Y-112571571D01*
X111185857Y-112644143D01*
X111185857Y-112825571D01*
X111149572Y-112898143D01*
X111113286Y-112934429D01*
X111040715Y-112970714D01*
X110823000Y-112970714D01*
X110750429Y-112934429D01*
X110714143Y-112898143D01*
X111548714Y-112970714D02*
X111693857Y-112970714D01*
X111766429Y-112934429D01*
X111802714Y-112898143D01*
X111875286Y-112789286D01*
X111911571Y-112644143D01*
X111911571Y-112353857D01*
X111875286Y-112281286D01*
X111839000Y-112245000D01*
X111766429Y-112208714D01*
X111621286Y-112208714D01*
X111548714Y-112245000D01*
X111512429Y-112281286D01*
X111476143Y-112353857D01*
X111476143Y-112535286D01*
X111512429Y-112607857D01*
X111548714Y-112644143D01*
X111621286Y-112680429D01*
X111766429Y-112680429D01*
X111839000Y-112644143D01*
X111875286Y-112607857D01*
X111911571Y-112535286D01*
D21*
X86246000Y-110789429D02*
X85520286Y-110789429D01*
X85520286Y-109265429D01*
X87552286Y-110789429D02*
X86681429Y-110789429D01*
X87116857Y-110789429D02*
X87116857Y-109265429D01*
X86971714Y-109483143D01*
X86826572Y-109628286D01*
X86681429Y-109700857D01*
D11*
X79752381Y-137438095D02*
X78752381Y-137438095D01*
X78752381Y-137057142D01*
X78800000Y-136961904D01*
X78847619Y-136914285D01*
X78942857Y-136866666D01*
X79085714Y-136866666D01*
X79180952Y-136914285D01*
X79228571Y-136961904D01*
X79276190Y-137057142D01*
X79276190Y-137438095D01*
X79752381Y-135914285D02*
X79752381Y-136485714D01*
X79752381Y-136200000D02*
X78752381Y-136200000D01*
X78895238Y-136295238D01*
X78990476Y-136390476D01*
X79038095Y-136485714D01*
X116752381Y-135938095D02*
X115752381Y-135938095D01*
X115752381Y-135557142D01*
X115800000Y-135461904D01*
X115847619Y-135414285D01*
X115942857Y-135366666D01*
X116085714Y-135366666D01*
X116180952Y-135414285D01*
X116228571Y-135461904D01*
X116276190Y-135557142D01*
X116276190Y-135938095D01*
X115847619Y-134985714D02*
X115800000Y-134938095D01*
X115752381Y-134842857D01*
X115752381Y-134604761D01*
X115800000Y-134509523D01*
X115847619Y-134461904D01*
X115942857Y-134414285D01*
X116038095Y-134414285D01*
X116180952Y-134461904D01*
X116752381Y-135033333D01*
X116752381Y-134414285D01*
X112302381Y-111764095D02*
X111302381Y-111764095D01*
X111302381Y-111383142D01*
X111350000Y-111287904D01*
X111397619Y-111240285D01*
X111492857Y-111192666D01*
X111635714Y-111192666D01*
X111730952Y-111240285D01*
X111778571Y-111287904D01*
X111826190Y-111383142D01*
X111826190Y-111764095D01*
X111302381Y-110859333D02*
X111302381Y-110240285D01*
X111683333Y-110573619D01*
X111683333Y-110430761D01*
X111730952Y-110335523D01*
X111778571Y-110287904D01*
X111873810Y-110240285D01*
X112111905Y-110240285D01*
X112207143Y-110287904D01*
X112254762Y-110335523D01*
X112302381Y-110430761D01*
X112302381Y-110716476D01*
X112254762Y-110811714D01*
X112207143Y-110859333D01*
D21*
X79665143Y-83493429D02*
X79665143Y-81969429D01*
X80245715Y-81969429D01*
X80390857Y-82042000D01*
X80463429Y-82114571D01*
X80536000Y-82259714D01*
X80536000Y-82477429D01*
X80463429Y-82622571D01*
X80390857Y-82695143D01*
X80245715Y-82767714D01*
X79665143Y-82767714D01*
X81842286Y-81969429D02*
X81552000Y-81969429D01*
X81406857Y-82042000D01*
X81334286Y-82114571D01*
X81189143Y-82332286D01*
X81116572Y-82622571D01*
X81116572Y-83203143D01*
X81189143Y-83348286D01*
X81261715Y-83420857D01*
X81406857Y-83493429D01*
X81697143Y-83493429D01*
X81842286Y-83420857D01*
X81914857Y-83348286D01*
X81987429Y-83203143D01*
X81987429Y-82840286D01*
X81914857Y-82695143D01*
X81842286Y-82622571D01*
X81697143Y-82550000D01*
X81406857Y-82550000D01*
X81261715Y-82622571D01*
X81189143Y-82695143D01*
X81116572Y-82840286D01*
D10*
X93757143Y-80871429D02*
X93757143Y-80271429D01*
X93985715Y-80271429D01*
X94042857Y-80300000D01*
X94071429Y-80328571D01*
X94100000Y-80385714D01*
X94100000Y-80471429D01*
X94071429Y-80528571D01*
X94042857Y-80557143D01*
X93985715Y-80585714D01*
X93757143Y-80585714D01*
X94300000Y-80271429D02*
X94700000Y-80271429D01*
X94442857Y-80871429D01*
D21*
X112575143Y-81889429D02*
X112575143Y-80365429D01*
X113155715Y-80365429D01*
X113300857Y-80438000D01*
X113373429Y-80510571D01*
X113446000Y-80655714D01*
X113446000Y-80873429D01*
X113373429Y-81018571D01*
X113300857Y-81091143D01*
X113155715Y-81163714D01*
X112575143Y-81163714D01*
X114171715Y-81889429D02*
X114462000Y-81889429D01*
X114607143Y-81816857D01*
X114679715Y-81744286D01*
X114824857Y-81526571D01*
X114897429Y-81236286D01*
X114897429Y-80655714D01*
X114824857Y-80510571D01*
X114752286Y-80438000D01*
X114607143Y-80365429D01*
X114316857Y-80365429D01*
X114171715Y-80438000D01*
X114099143Y-80510571D01*
X114026572Y-80655714D01*
X114026572Y-81018571D01*
X114099143Y-81163714D01*
X114171715Y-81236286D01*
X114316857Y-81308857D01*
X114607143Y-81308857D01*
X114752286Y-81236286D01*
X114824857Y-81163714D01*
X114897429Y-81018571D01*
D19*
X86206085Y-119526362D02*
X86053685Y-119288086D01*
X85944828Y-119526362D02*
X85944828Y-119025982D01*
X86119000Y-119025982D01*
X86162542Y-119049810D01*
X86184314Y-119073638D01*
X86206085Y-119121293D01*
X86206085Y-119192776D01*
X86184314Y-119240431D01*
X86162542Y-119264259D01*
X86119000Y-119288086D01*
X85944828Y-119288086D01*
X86641514Y-119526362D02*
X86380257Y-119526362D01*
X86510885Y-119526362D02*
X86510885Y-119025982D01*
X86467342Y-119097465D01*
X86423800Y-119145120D01*
X86380257Y-119168948D01*
X86793914Y-119025982D02*
X87098714Y-119025982D01*
X86902771Y-119526362D01*
X89406085Y-121826362D02*
X89253685Y-121588086D01*
X89144828Y-121826362D02*
X89144828Y-121325982D01*
X89319000Y-121325982D01*
X89362542Y-121349810D01*
X89384314Y-121373638D01*
X89406085Y-121421293D01*
X89406085Y-121492776D01*
X89384314Y-121540431D01*
X89362542Y-121564259D01*
X89319000Y-121588086D01*
X89144828Y-121588086D01*
X89841514Y-121826362D02*
X89580257Y-121826362D01*
X89710885Y-121826362D02*
X89710885Y-121325982D01*
X89667342Y-121397465D01*
X89623800Y-121445120D01*
X89580257Y-121468948D01*
X90102771Y-121540431D02*
X90059229Y-121516603D01*
X90037457Y-121492776D01*
X90015686Y-121445120D01*
X90015686Y-121421293D01*
X90037457Y-121373638D01*
X90059229Y-121349810D01*
X90102771Y-121325982D01*
X90189857Y-121325982D01*
X90233400Y-121349810D01*
X90255171Y-121373638D01*
X90276943Y-121421293D01*
X90276943Y-121445120D01*
X90255171Y-121492776D01*
X90233400Y-121516603D01*
X90189857Y-121540431D01*
X90102771Y-121540431D01*
X90059229Y-121564259D01*
X90037457Y-121588086D01*
X90015686Y-121635741D01*
X90015686Y-121731052D01*
X90037457Y-121778707D01*
X90059229Y-121802535D01*
X90102771Y-121826362D01*
X90189857Y-121826362D01*
X90233400Y-121802535D01*
X90255171Y-121778707D01*
X90276943Y-121731052D01*
X90276943Y-121635741D01*
X90255171Y-121588086D01*
X90233400Y-121564259D01*
X90189857Y-121540431D01*
X94706085Y-125026362D02*
X94553685Y-124788086D01*
X94444828Y-125026362D02*
X94444828Y-124525982D01*
X94619000Y-124525982D01*
X94662542Y-124549810D01*
X94684314Y-124573638D01*
X94706085Y-124621293D01*
X94706085Y-124692776D01*
X94684314Y-124740431D01*
X94662542Y-124764259D01*
X94619000Y-124788086D01*
X94444828Y-124788086D01*
X95141514Y-125026362D02*
X94880257Y-125026362D01*
X95010885Y-125026362D02*
X95010885Y-124525982D01*
X94967342Y-124597465D01*
X94923800Y-124645120D01*
X94880257Y-124668948D01*
X95359229Y-125026362D02*
X95446314Y-125026362D01*
X95489857Y-125002535D01*
X95511629Y-124978707D01*
X95555171Y-124907224D01*
X95576943Y-124811914D01*
X95576943Y-124621293D01*
X95555171Y-124573638D01*
X95533400Y-124549810D01*
X95489857Y-124525982D01*
X95402771Y-124525982D01*
X95359229Y-124549810D01*
X95337457Y-124573638D01*
X95315686Y-124621293D01*
X95315686Y-124740431D01*
X95337457Y-124788086D01*
X95359229Y-124811914D01*
X95402771Y-124835741D01*
X95489857Y-124835741D01*
X95533400Y-124811914D01*
X95555171Y-124788086D01*
X95576943Y-124740431D01*
X96806085Y-121326362D02*
X96653685Y-121088086D01*
X96544828Y-121326362D02*
X96544828Y-120825982D01*
X96719000Y-120825982D01*
X96762542Y-120849810D01*
X96784314Y-120873638D01*
X96806085Y-120921293D01*
X96806085Y-120992776D01*
X96784314Y-121040431D01*
X96762542Y-121064259D01*
X96719000Y-121088086D01*
X96544828Y-121088086D01*
X96980257Y-120873638D02*
X97002028Y-120849810D01*
X97045571Y-120825982D01*
X97154428Y-120825982D01*
X97197971Y-120849810D01*
X97219742Y-120873638D01*
X97241514Y-120921293D01*
X97241514Y-120968948D01*
X97219742Y-121040431D01*
X96958485Y-121326362D01*
X97241514Y-121326362D01*
X97524543Y-120825982D02*
X97568086Y-120825982D01*
X97611629Y-120849810D01*
X97633400Y-120873638D01*
X97655171Y-120921293D01*
X97676943Y-121016603D01*
X97676943Y-121135741D01*
X97655171Y-121231052D01*
X97633400Y-121278707D01*
X97611629Y-121302535D01*
X97568086Y-121326362D01*
X97524543Y-121326362D01*
X97481000Y-121302535D01*
X97459229Y-121278707D01*
X97437457Y-121231052D01*
X97415686Y-121135741D01*
X97415686Y-121016603D01*
X97437457Y-120921293D01*
X97459229Y-120873638D01*
X97481000Y-120849810D01*
X97524543Y-120825982D01*
X95026362Y-107293915D02*
X94788086Y-107446315D01*
X95026362Y-107555172D02*
X94525982Y-107555172D01*
X94525982Y-107381000D01*
X94549810Y-107337458D01*
X94573638Y-107315686D01*
X94621293Y-107293915D01*
X94692776Y-107293915D01*
X94740431Y-107315686D01*
X94764259Y-107337458D01*
X94788086Y-107381000D01*
X94788086Y-107555172D01*
X94573638Y-107119743D02*
X94549810Y-107097972D01*
X94525982Y-107054429D01*
X94525982Y-106945572D01*
X94549810Y-106902029D01*
X94573638Y-106880258D01*
X94621293Y-106858486D01*
X94668948Y-106858486D01*
X94740431Y-106880258D01*
X95026362Y-107141515D01*
X95026362Y-106858486D01*
X94525982Y-106444829D02*
X94525982Y-106662543D01*
X94764259Y-106684314D01*
X94740431Y-106662543D01*
X94716603Y-106619000D01*
X94716603Y-106510143D01*
X94740431Y-106466600D01*
X94764259Y-106444829D01*
X94811914Y-106423057D01*
X94931052Y-106423057D01*
X94978707Y-106444829D01*
X95002535Y-106466600D01*
X95026362Y-106510143D01*
X95026362Y-106619000D01*
X95002535Y-106662543D01*
X94978707Y-106684314D01*
X113926362Y-84093915D02*
X113688086Y-84246315D01*
X113926362Y-84355172D02*
X113425982Y-84355172D01*
X113425982Y-84181000D01*
X113449810Y-84137458D01*
X113473638Y-84115686D01*
X113521293Y-84093915D01*
X113592776Y-84093915D01*
X113640431Y-84115686D01*
X113664259Y-84137458D01*
X113688086Y-84181000D01*
X113688086Y-84355172D01*
X113473638Y-83919743D02*
X113449810Y-83897972D01*
X113425982Y-83854429D01*
X113425982Y-83745572D01*
X113449810Y-83702029D01*
X113473638Y-83680258D01*
X113521293Y-83658486D01*
X113568948Y-83658486D01*
X113640431Y-83680258D01*
X113926362Y-83941515D01*
X113926362Y-83658486D01*
X113640431Y-83397229D02*
X113616603Y-83440771D01*
X113592776Y-83462543D01*
X113545120Y-83484314D01*
X113521293Y-83484314D01*
X113473638Y-83462543D01*
X113449810Y-83440771D01*
X113425982Y-83397229D01*
X113425982Y-83310143D01*
X113449810Y-83266600D01*
X113473638Y-83244829D01*
X113521293Y-83223057D01*
X113545120Y-83223057D01*
X113592776Y-83244829D01*
X113616603Y-83266600D01*
X113640431Y-83310143D01*
X113640431Y-83397229D01*
X113664259Y-83440771D01*
X113688086Y-83462543D01*
X113735741Y-83484314D01*
X113831052Y-83484314D01*
X113878707Y-83462543D01*
X113902535Y-83440771D01*
X113926362Y-83397229D01*
X113926362Y-83310143D01*
X113902535Y-83266600D01*
X113878707Y-83244829D01*
X113831052Y-83223057D01*
X113735741Y-83223057D01*
X113688086Y-83244829D01*
X113664259Y-83266600D01*
X113640431Y-83310143D01*
X104106085Y-88526362D02*
X103953685Y-88288086D01*
X103844828Y-88526362D02*
X103844828Y-88025982D01*
X104019000Y-88025982D01*
X104062542Y-88049810D01*
X104084314Y-88073638D01*
X104106085Y-88121293D01*
X104106085Y-88192776D01*
X104084314Y-88240431D01*
X104062542Y-88264259D01*
X104019000Y-88288086D01*
X103844828Y-88288086D01*
X104258485Y-88025982D02*
X104541514Y-88025982D01*
X104389114Y-88216603D01*
X104454428Y-88216603D01*
X104497971Y-88240431D01*
X104519742Y-88264259D01*
X104541514Y-88311914D01*
X104541514Y-88431052D01*
X104519742Y-88478707D01*
X104497971Y-88502535D01*
X104454428Y-88526362D01*
X104323800Y-88526362D01*
X104280257Y-88502535D01*
X104258485Y-88478707D01*
X104933400Y-88192776D02*
X104933400Y-88526362D01*
X104824543Y-88002155D02*
X104715686Y-88359569D01*
X104998714Y-88359569D01*
X91206085Y-87426362D02*
X91053685Y-87188086D01*
X90944828Y-87426362D02*
X90944828Y-86925982D01*
X91119000Y-86925982D01*
X91162542Y-86949810D01*
X91184314Y-86973638D01*
X91206085Y-87021293D01*
X91206085Y-87092776D01*
X91184314Y-87140431D01*
X91162542Y-87164259D01*
X91119000Y-87188086D01*
X90944828Y-87188086D01*
X91597971Y-87092776D02*
X91597971Y-87426362D01*
X91489114Y-86902155D02*
X91380257Y-87259569D01*
X91663285Y-87259569D01*
X91815686Y-86973638D02*
X91837457Y-86949810D01*
X91881000Y-86925982D01*
X91989857Y-86925982D01*
X92033400Y-86949810D01*
X92055171Y-86973638D01*
X92076943Y-87021293D01*
X92076943Y-87068948D01*
X92055171Y-87140431D01*
X91793914Y-87426362D01*
X92076943Y-87426362D01*
X107006085Y-105326362D02*
X106853685Y-105088086D01*
X106744828Y-105326362D02*
X106744828Y-104825982D01*
X106919000Y-104825982D01*
X106962542Y-104849810D01*
X106984314Y-104873638D01*
X107006085Y-104921293D01*
X107006085Y-104992776D01*
X106984314Y-105040431D01*
X106962542Y-105064259D01*
X106919000Y-105088086D01*
X106744828Y-105088086D01*
X107397971Y-104992776D02*
X107397971Y-105326362D01*
X107289114Y-104802155D02*
X107180257Y-105159569D01*
X107463285Y-105159569D01*
X107702771Y-105040431D02*
X107659229Y-105016603D01*
X107637457Y-104992776D01*
X107615686Y-104945120D01*
X107615686Y-104921293D01*
X107637457Y-104873638D01*
X107659229Y-104849810D01*
X107702771Y-104825982D01*
X107789857Y-104825982D01*
X107833400Y-104849810D01*
X107855171Y-104873638D01*
X107876943Y-104921293D01*
X107876943Y-104945120D01*
X107855171Y-104992776D01*
X107833400Y-105016603D01*
X107789857Y-105040431D01*
X107702771Y-105040431D01*
X107659229Y-105064259D01*
X107637457Y-105088086D01*
X107615686Y-105135741D01*
X107615686Y-105231052D01*
X107637457Y-105278707D01*
X107659229Y-105302535D01*
X107702771Y-105326362D01*
X107789857Y-105326362D01*
X107833400Y-105302535D01*
X107855171Y-105278707D01*
X107876943Y-105231052D01*
X107876943Y-105135741D01*
X107855171Y-105088086D01*
X107833400Y-105064259D01*
X107789857Y-105040431D01*
X108606085Y-105326362D02*
X108453685Y-105088086D01*
X108344828Y-105326362D02*
X108344828Y-104825982D01*
X108519000Y-104825982D01*
X108562542Y-104849810D01*
X108584314Y-104873638D01*
X108606085Y-104921293D01*
X108606085Y-104992776D01*
X108584314Y-105040431D01*
X108562542Y-105064259D01*
X108519000Y-105088086D01*
X108344828Y-105088086D01*
X108997971Y-104992776D02*
X108997971Y-105326362D01*
X108889114Y-104802155D02*
X108780257Y-105159569D01*
X109063285Y-105159569D01*
X109259229Y-105326362D02*
X109346314Y-105326362D01*
X109389857Y-105302535D01*
X109411629Y-105278707D01*
X109455171Y-105207224D01*
X109476943Y-105111914D01*
X109476943Y-104921293D01*
X109455171Y-104873638D01*
X109433400Y-104849810D01*
X109389857Y-104825982D01*
X109302771Y-104825982D01*
X109259229Y-104849810D01*
X109237457Y-104873638D01*
X109215686Y-104921293D01*
X109215686Y-105040431D01*
X109237457Y-105088086D01*
X109259229Y-105111914D01*
X109302771Y-105135741D01*
X109389857Y-105135741D01*
X109433400Y-105111914D01*
X109455171Y-105088086D01*
X109476943Y-105040431D01*
X110106085Y-105326362D02*
X109953685Y-105088086D01*
X109844828Y-105326362D02*
X109844828Y-104825982D01*
X110019000Y-104825982D01*
X110062542Y-104849810D01*
X110084314Y-104873638D01*
X110106085Y-104921293D01*
X110106085Y-104992776D01*
X110084314Y-105040431D01*
X110062542Y-105064259D01*
X110019000Y-105088086D01*
X109844828Y-105088086D01*
X110519742Y-104825982D02*
X110302028Y-104825982D01*
X110280257Y-105064259D01*
X110302028Y-105040431D01*
X110345571Y-105016603D01*
X110454428Y-105016603D01*
X110497971Y-105040431D01*
X110519742Y-105064259D01*
X110541514Y-105111914D01*
X110541514Y-105231052D01*
X110519742Y-105278707D01*
X110497971Y-105302535D01*
X110454428Y-105326362D01*
X110345571Y-105326362D01*
X110302028Y-105302535D01*
X110280257Y-105278707D01*
X110824543Y-104825982D02*
X110868086Y-104825982D01*
X110911629Y-104849810D01*
X110933400Y-104873638D01*
X110955171Y-104921293D01*
X110976943Y-105016603D01*
X110976943Y-105135741D01*
X110955171Y-105231052D01*
X110933400Y-105278707D01*
X110911629Y-105302535D01*
X110868086Y-105326362D01*
X110824543Y-105326362D01*
X110781000Y-105302535D01*
X110759229Y-105278707D01*
X110737457Y-105231052D01*
X110715686Y-105135741D01*
X110715686Y-105016603D01*
X110737457Y-104921293D01*
X110759229Y-104873638D01*
X110781000Y-104849810D01*
X110824543Y-104825982D01*
X111606085Y-105326362D02*
X111453685Y-105088086D01*
X111344828Y-105326362D02*
X111344828Y-104825982D01*
X111519000Y-104825982D01*
X111562542Y-104849810D01*
X111584314Y-104873638D01*
X111606085Y-104921293D01*
X111606085Y-104992776D01*
X111584314Y-105040431D01*
X111562542Y-105064259D01*
X111519000Y-105088086D01*
X111344828Y-105088086D01*
X112019742Y-104825982D02*
X111802028Y-104825982D01*
X111780257Y-105064259D01*
X111802028Y-105040431D01*
X111845571Y-105016603D01*
X111954428Y-105016603D01*
X111997971Y-105040431D01*
X112019742Y-105064259D01*
X112041514Y-105111914D01*
X112041514Y-105231052D01*
X112019742Y-105278707D01*
X111997971Y-105302535D01*
X111954428Y-105326362D01*
X111845571Y-105326362D01*
X111802028Y-105302535D01*
X111780257Y-105278707D01*
X112476943Y-105326362D02*
X112215686Y-105326362D01*
X112346314Y-105326362D02*
X112346314Y-104825982D01*
X112302771Y-104897465D01*
X112259229Y-104945120D01*
X112215686Y-104968948D01*
D22*
X105329105Y-137189669D02*
X105329105Y-137796245D01*
X105364786Y-137867607D01*
X105400467Y-137903288D01*
X105471829Y-137938969D01*
X105614552Y-137938969D01*
X105685914Y-137903288D01*
X105721595Y-137867607D01*
X105757276Y-137796245D01*
X105757276Y-137189669D01*
X106506576Y-137938969D02*
X106078405Y-137938969D01*
X106292491Y-137938969D02*
X106292491Y-137189669D01*
X106221129Y-137296712D01*
X106149767Y-137368074D01*
X106078405Y-137403755D01*
X101283105Y-116683669D02*
X101283105Y-117290245D01*
X101318786Y-117361607D01*
X101354467Y-117397288D01*
X101425829Y-117432969D01*
X101568552Y-117432969D01*
X101639914Y-117397288D01*
X101675595Y-117361607D01*
X101711276Y-117290245D01*
X101711276Y-116683669D01*
X101996724Y-116683669D02*
X102460576Y-116683669D01*
X102210810Y-116969117D01*
X102317852Y-116969117D01*
X102389214Y-117004798D01*
X102424895Y-117040479D01*
X102460576Y-117111840D01*
X102460576Y-117290245D01*
X102424895Y-117361607D01*
X102389214Y-117397288D01*
X102317852Y-117432969D01*
X102103767Y-117432969D01*
X102032405Y-117397288D01*
X101996724Y-117361607D01*
D18*
X78833333Y-133316667D02*
X79300000Y-134016667D01*
X79300000Y-133316667D02*
X78833333Y-134016667D01*
X79933333Y-134016667D02*
X79533333Y-134016667D01*
X79733333Y-134016667D02*
X79733333Y-133316667D01*
X79666667Y-133416667D01*
X79600000Y-133483333D01*
X79533333Y-133516667D01*
D19*
X111088371Y-102581429D02*
X111066600Y-102605619D01*
X111001286Y-102629810D01*
X110957743Y-102629810D01*
X110892428Y-102605619D01*
X110848886Y-102557238D01*
X110827114Y-102508857D01*
X110805343Y-102412095D01*
X110805343Y-102339524D01*
X110827114Y-102242762D01*
X110848886Y-102194381D01*
X110892428Y-102146000D01*
X110957743Y-102121810D01*
X111001286Y-102121810D01*
X111066600Y-102146000D01*
X111088371Y-102170190D01*
X111240771Y-102121810D02*
X111523800Y-102121810D01*
X111371400Y-102315333D01*
X111436714Y-102315333D01*
X111480257Y-102339524D01*
X111502028Y-102363714D01*
X111523800Y-102412095D01*
X111523800Y-102533048D01*
X111502028Y-102581429D01*
X111480257Y-102605619D01*
X111436714Y-102629810D01*
X111306086Y-102629810D01*
X111262543Y-102605619D01*
X111240771Y-102581429D01*
X111806829Y-102121810D02*
X111850372Y-102121810D01*
X111893915Y-102146000D01*
X111915686Y-102170190D01*
X111937457Y-102218571D01*
X111959229Y-102315333D01*
X111959229Y-102436286D01*
X111937457Y-102533048D01*
X111915686Y-102581429D01*
X111893915Y-102605619D01*
X111850372Y-102629810D01*
X111806829Y-102629810D01*
X111763286Y-102605619D01*
X111741515Y-102581429D01*
X111719743Y-102533048D01*
X111697972Y-102436286D01*
X111697972Y-102315333D01*
X111719743Y-102218571D01*
X111741515Y-102170190D01*
X111763286Y-102146000D01*
X111806829Y-102121810D01*
X112394658Y-102629810D02*
X112133401Y-102629810D01*
X112264029Y-102629810D02*
X112264029Y-102121810D01*
X112220486Y-102194381D01*
X112176944Y-102242762D01*
X112133401Y-102266952D01*
X92981429Y-133611629D02*
X93005619Y-133633400D01*
X93029810Y-133698714D01*
X93029810Y-133742257D01*
X93005619Y-133807572D01*
X92957238Y-133851114D01*
X92908857Y-133872886D01*
X92812095Y-133894657D01*
X92739524Y-133894657D01*
X92642762Y-133872886D01*
X92594381Y-133851114D01*
X92546000Y-133807572D01*
X92521810Y-133742257D01*
X92521810Y-133698714D01*
X92546000Y-133633400D01*
X92570190Y-133611629D01*
X92691143Y-133219743D02*
X93029810Y-133219743D01*
X92497619Y-133328600D02*
X92860476Y-133437457D01*
X92860476Y-133154429D01*
X92521810Y-132893171D02*
X92521810Y-132849628D01*
X92546000Y-132806085D01*
X92570190Y-132784314D01*
X92618571Y-132762543D01*
X92715333Y-132740771D01*
X92836286Y-132740771D01*
X92933048Y-132762543D01*
X92981429Y-132784314D01*
X93005619Y-132806085D01*
X93029810Y-132849628D01*
X93029810Y-132893171D01*
X93005619Y-132936714D01*
X92981429Y-132958485D01*
X92933048Y-132980257D01*
X92836286Y-133002028D01*
X92715333Y-133002028D01*
X92618571Y-132980257D01*
X92570190Y-132958485D01*
X92546000Y-132936714D01*
X92521810Y-132893171D01*
X93029810Y-132305342D02*
X93029810Y-132566599D01*
X93029810Y-132435971D02*
X92521810Y-132435971D01*
X92594381Y-132479514D01*
X92642762Y-132523056D01*
X92666952Y-132566599D01*
X85688371Y-127526362D02*
X85535971Y-127288086D01*
X85427114Y-127526362D02*
X85427114Y-127025982D01*
X85601286Y-127025982D01*
X85644828Y-127049810D01*
X85666600Y-127073638D01*
X85688371Y-127121293D01*
X85688371Y-127192776D01*
X85666600Y-127240431D01*
X85644828Y-127264259D01*
X85601286Y-127288086D01*
X85427114Y-127288086D01*
X86123800Y-127526362D02*
X85862543Y-127526362D01*
X85993171Y-127526362D02*
X85993171Y-127025982D01*
X85949628Y-127097465D01*
X85906086Y-127145120D01*
X85862543Y-127168948D01*
X86406829Y-127025982D02*
X86450372Y-127025982D01*
X86493915Y-127049810D01*
X86515686Y-127073638D01*
X86537457Y-127121293D01*
X86559229Y-127216603D01*
X86559229Y-127335741D01*
X86537457Y-127431052D01*
X86515686Y-127478707D01*
X86493915Y-127502535D01*
X86450372Y-127526362D01*
X86406829Y-127526362D01*
X86363286Y-127502535D01*
X86341515Y-127478707D01*
X86319743Y-127431052D01*
X86297972Y-127335741D01*
X86297972Y-127216603D01*
X86319743Y-127121293D01*
X86341515Y-127073638D01*
X86363286Y-127049810D01*
X86406829Y-127025982D01*
X86711629Y-127025982D02*
X86994658Y-127025982D01*
X86842258Y-127216603D01*
X86907572Y-127216603D01*
X86951115Y-127240431D01*
X86972886Y-127264259D01*
X86994658Y-127311914D01*
X86994658Y-127431052D01*
X86972886Y-127478707D01*
X86951115Y-127502535D01*
X86907572Y-127526362D01*
X86776944Y-127526362D01*
X86733401Y-127502535D01*
X86711629Y-127478707D01*
X87888371Y-125126362D02*
X87735971Y-124888086D01*
X87627114Y-125126362D02*
X87627114Y-124625982D01*
X87801286Y-124625982D01*
X87844828Y-124649810D01*
X87866600Y-124673638D01*
X87888371Y-124721293D01*
X87888371Y-124792776D01*
X87866600Y-124840431D01*
X87844828Y-124864259D01*
X87801286Y-124888086D01*
X87627114Y-124888086D01*
X88323800Y-125126362D02*
X88062543Y-125126362D01*
X88193171Y-125126362D02*
X88193171Y-124625982D01*
X88149628Y-124697465D01*
X88106086Y-124745120D01*
X88062543Y-124768948D01*
X88606829Y-124625982D02*
X88650372Y-124625982D01*
X88693915Y-124649810D01*
X88715686Y-124673638D01*
X88737457Y-124721293D01*
X88759229Y-124816603D01*
X88759229Y-124935741D01*
X88737457Y-125031052D01*
X88715686Y-125078707D01*
X88693915Y-125102535D01*
X88650372Y-125126362D01*
X88606829Y-125126362D01*
X88563286Y-125102535D01*
X88541515Y-125078707D01*
X88519743Y-125031052D01*
X88497972Y-124935741D01*
X88497972Y-124816603D01*
X88519743Y-124721293D01*
X88541515Y-124673638D01*
X88563286Y-124649810D01*
X88606829Y-124625982D01*
X89151115Y-124792776D02*
X89151115Y-125126362D01*
X89042258Y-124602155D02*
X88933401Y-124959569D01*
X89216429Y-124959569D01*
X85488371Y-123926362D02*
X85335971Y-123688086D01*
X85227114Y-123926362D02*
X85227114Y-123425982D01*
X85401286Y-123425982D01*
X85444828Y-123449810D01*
X85466600Y-123473638D01*
X85488371Y-123521293D01*
X85488371Y-123592776D01*
X85466600Y-123640431D01*
X85444828Y-123664259D01*
X85401286Y-123688086D01*
X85227114Y-123688086D01*
X85880257Y-123592776D02*
X85880257Y-123926362D01*
X85771400Y-123402155D02*
X85662543Y-123759569D01*
X85945571Y-123759569D01*
X86206829Y-123425982D02*
X86250372Y-123425982D01*
X86293915Y-123449810D01*
X86315686Y-123473638D01*
X86337457Y-123521293D01*
X86359229Y-123616603D01*
X86359229Y-123735741D01*
X86337457Y-123831052D01*
X86315686Y-123878707D01*
X86293915Y-123902535D01*
X86250372Y-123926362D01*
X86206829Y-123926362D01*
X86163286Y-123902535D01*
X86141515Y-123878707D01*
X86119743Y-123831052D01*
X86097972Y-123735741D01*
X86097972Y-123616603D01*
X86119743Y-123521293D01*
X86141515Y-123473638D01*
X86163286Y-123449810D01*
X86206829Y-123425982D01*
X86794658Y-123926362D02*
X86533401Y-123926362D01*
X86664029Y-123926362D02*
X86664029Y-123425982D01*
X86620486Y-123497465D01*
X86576944Y-123545120D01*
X86533401Y-123568948D01*
D23*
X114571428Y-104371429D02*
X114571428Y-104857143D01*
X114600000Y-104914286D01*
X114628571Y-104942857D01*
X114685714Y-104971429D01*
X114800000Y-104971429D01*
X114857142Y-104942857D01*
X114885714Y-104914286D01*
X114914285Y-104857143D01*
X114914285Y-104371429D01*
X115142856Y-104371429D02*
X115514285Y-104371429D01*
X115314285Y-104600000D01*
X115399999Y-104600000D01*
X115457142Y-104628571D01*
X115485713Y-104657143D01*
X115514285Y-104714286D01*
X115514285Y-104857143D01*
X115485713Y-104914286D01*
X115457142Y-104942857D01*
X115399999Y-104971429D01*
X115228571Y-104971429D01*
X115171428Y-104942857D01*
X115142856Y-104914286D01*
X115885714Y-104371429D02*
X115942857Y-104371429D01*
X116000000Y-104400000D01*
X116028571Y-104428571D01*
X116057142Y-104485714D01*
X116085714Y-104600000D01*
X116085714Y-104742857D01*
X116057142Y-104857143D01*
X116028571Y-104914286D01*
X116000000Y-104942857D01*
X115942857Y-104971429D01*
X115885714Y-104971429D01*
X115828571Y-104942857D01*
X115800000Y-104914286D01*
X115771428Y-104857143D01*
X115742857Y-104742857D01*
X115742857Y-104600000D01*
X115771428Y-104485714D01*
X115800000Y-104428571D01*
X115828571Y-104400000D01*
X115885714Y-104371429D01*
X116657143Y-104971429D02*
X116314286Y-104971429D01*
X116485714Y-104971429D02*
X116485714Y-104371429D01*
X116428571Y-104457143D01*
X116371429Y-104514286D01*
X116314286Y-104542857D01*
D14*
X84400000Y-133416667D02*
X84400000Y-133983333D01*
X84433333Y-134050000D01*
X84466666Y-134083333D01*
X84533333Y-134116667D01*
X84666666Y-134116667D01*
X84733333Y-134083333D01*
X84766666Y-134050000D01*
X84800000Y-133983333D01*
X84800000Y-133416667D01*
X85433333Y-133650000D02*
X85433333Y-134116667D01*
X85266666Y-133383333D02*
X85099999Y-133883333D01*
X85533333Y-133883333D01*
X85933333Y-133416667D02*
X86000000Y-133416667D01*
X86066666Y-133450000D01*
X86100000Y-133483333D01*
X86133333Y-133550000D01*
X86166666Y-133683333D01*
X86166666Y-133850000D01*
X86133333Y-133983333D01*
X86100000Y-134050000D01*
X86066666Y-134083333D01*
X86000000Y-134116667D01*
X85933333Y-134116667D01*
X85866666Y-134083333D01*
X85833333Y-134050000D01*
X85800000Y-133983333D01*
X85766666Y-133850000D01*
X85766666Y-133683333D01*
X85800000Y-133550000D01*
X85833333Y-133483333D01*
X85866666Y-133450000D01*
X85933333Y-133416667D01*
X86833333Y-134116667D02*
X86433333Y-134116667D01*
X86633333Y-134116667D02*
X86633333Y-133416667D01*
X86566667Y-133516667D01*
X86500000Y-133583333D01*
X86433333Y-133616667D01*
%LPC*%
D24*
X80450000Y-119728280D03*
D25*
X80450000Y-115725240D03*
X80450000Y-117726760D03*
X80450000Y-113726260D03*
D26*
X108712000Y-136398000D03*
X111252000Y-136398000D03*
X113792000Y-136398000D03*
D27*
X92000000Y-83000000D03*
X103500000Y-83000000D03*
D28*
X95758000Y-104902000D03*
X99060000Y-104902000D03*
D29*
X108331000Y-125349000D03*
X108331000Y-126873000D03*
X109474000Y-134239000D03*
X109474000Y-132715000D03*
X98552000Y-123444000D03*
X98552000Y-121920000D03*
X93091000Y-128016000D03*
X93091000Y-126492000D03*
D30*
X94234000Y-122174000D03*
X95758000Y-122174000D03*
D29*
X92964000Y-122174000D03*
X92964000Y-123698000D03*
D30*
X101727000Y-122682000D03*
X103251000Y-122682000D03*
D31*
X110553500Y-121920000D03*
X108648500Y-121920000D03*
D30*
X92456000Y-110109000D03*
X93980000Y-110109000D03*
D29*
X95758000Y-108458000D03*
X95758000Y-109982000D03*
D31*
X100139500Y-107188000D03*
X98234500Y-107188000D03*
X102679500Y-105410000D03*
X100774500Y-105410000D03*
X105092500Y-107569000D03*
X103187500Y-107569000D03*
D30*
X107442000Y-108712000D03*
X108966000Y-108712000D03*
X94615000Y-137160000D03*
X96139000Y-137160000D03*
X110236000Y-108712000D03*
X111760000Y-108712000D03*
D32*
X93380560Y-105918000D03*
X88229440Y-105918000D03*
D33*
X110998000Y-117348000D03*
X110998000Y-114046000D03*
D34*
X91399360Y-115062000D03*
X86400640Y-115062000D03*
D35*
X86099240Y-137200000D03*
X88100760Y-137200000D03*
X90099740Y-137200000D03*
X92101260Y-137200000D03*
X84100260Y-137200000D03*
X82098740Y-137200000D03*
X114300000Y-126253240D03*
X114300000Y-128254760D03*
X114300000Y-130253740D03*
X114300000Y-132255260D03*
X114300000Y-124254260D03*
X114300000Y-122252740D03*
X114300000Y-112029240D03*
X114300000Y-114030760D03*
X114300000Y-116029740D03*
X114300000Y-118031260D03*
X114300000Y-110030260D03*
X114300000Y-108028740D03*
D36*
X85090000Y-82804000D03*
X97790000Y-82804000D03*
X109474000Y-82804000D03*
D37*
X110744000Y-97848420D03*
D38*
X114554000Y-87246460D03*
X113284000Y-87246460D03*
X112014000Y-87246460D03*
X109474000Y-87246460D03*
X108204000Y-87246460D03*
X106934000Y-87246460D03*
D37*
X97917000Y-97848420D03*
D38*
X101727000Y-87246460D03*
X100457000Y-87246460D03*
X99187000Y-87246460D03*
X96647000Y-87246460D03*
X95377000Y-87246460D03*
X94107000Y-87246460D03*
D37*
X84709000Y-97848420D03*
D38*
X88519000Y-87246460D03*
X87249000Y-87246460D03*
X85979000Y-87246460D03*
X83439000Y-87246460D03*
X82169000Y-87246460D03*
X80899000Y-87246460D03*
D30*
X86360000Y-120396000D03*
X87884000Y-120396000D03*
X88900000Y-120396000D03*
X90424000Y-120396000D03*
X94234000Y-123698000D03*
X95758000Y-123698000D03*
D29*
X97028000Y-121920000D03*
X97028000Y-123444000D03*
D30*
X95631000Y-107061000D03*
X97155000Y-107061000D03*
D29*
X114808000Y-84582000D03*
X114808000Y-83058000D03*
X104394000Y-89154000D03*
X104394000Y-90678000D03*
X91440000Y-88011000D03*
X91440000Y-89535000D03*
X107315000Y-105918000D03*
X107315000Y-107442000D03*
X108839000Y-105918000D03*
X108839000Y-107442000D03*
X110363000Y-105918000D03*
X110363000Y-107442000D03*
X111887000Y-105918000D03*
X111887000Y-107442000D03*
D39*
X98587560Y-136814560D03*
X99087940Y-136814560D03*
X99588320Y-136814560D03*
X100088700Y-136814560D03*
X100589080Y-136814560D03*
X97088960Y-136814560D03*
X97586800Y-136814560D03*
X98087180Y-136814560D03*
D40*
X106588560Y-134813040D03*
X106588560Y-134315200D03*
X106588560Y-133814820D03*
X106588560Y-133314440D03*
X106588560Y-132814060D03*
X106588560Y-132313680D03*
X106588560Y-131813300D03*
X106588560Y-131312920D03*
D39*
X104587040Y-125313440D03*
X104089200Y-125313440D03*
X103588820Y-125313440D03*
X103088440Y-125313440D03*
X102588060Y-125313440D03*
X102087680Y-125313440D03*
X101587300Y-125313440D03*
X101086920Y-125313440D03*
D40*
X95087440Y-127314960D03*
X95087440Y-127812800D03*
X95087440Y-128313180D03*
X95087440Y-128813560D03*
X95087440Y-129313940D03*
X95087440Y-129814320D03*
X95087440Y-130314700D03*
X95087440Y-130815080D03*
D39*
X101086920Y-136814560D03*
X101587300Y-136814560D03*
X102087680Y-136814560D03*
D40*
X106588560Y-130815080D03*
X106588560Y-130314700D03*
X106588560Y-129814320D03*
D39*
X100589080Y-125313440D03*
X100088700Y-125313440D03*
X99588320Y-125313440D03*
D40*
X95087440Y-131312920D03*
X95087440Y-131813300D03*
X95087440Y-132313680D03*
D39*
X102588060Y-136814560D03*
X103088440Y-136814560D03*
X103588820Y-136814560D03*
X104089200Y-136814560D03*
X104587040Y-136814560D03*
D40*
X106588560Y-129313940D03*
X106588560Y-128813560D03*
X106588560Y-128313180D03*
X106588560Y-127812800D03*
X106588560Y-127314960D03*
D39*
X99087940Y-125313440D03*
X98587560Y-125313440D03*
X98087180Y-125313440D03*
X97586800Y-125313440D03*
X97088960Y-125313440D03*
D40*
X95087440Y-132814060D03*
X95087440Y-133314440D03*
X95087440Y-133814820D03*
X95087440Y-134315200D03*
X95087440Y-134813040D03*
D41*
X104157780Y-111823500D03*
X103657400Y-111823500D03*
X103157020Y-111823500D03*
X102656640Y-111823500D03*
X102156260Y-111823500D03*
X101658420Y-111823500D03*
X101158040Y-111823500D03*
X100657660Y-111823500D03*
X100157280Y-111823500D03*
X99656900Y-111823500D03*
X99156520Y-111823500D03*
X108656120Y-111823500D03*
X108158280Y-111823500D03*
X107657900Y-111823500D03*
X103157020Y-119824500D03*
X106657140Y-111823500D03*
X106156760Y-111823500D03*
X105656380Y-111823500D03*
X105158540Y-111823500D03*
X104658160Y-111823500D03*
X100657660Y-119824500D03*
X101158040Y-119824500D03*
X101658420Y-119824500D03*
X102156260Y-119824500D03*
X102656640Y-119824500D03*
X107157520Y-111823500D03*
X103657400Y-119824500D03*
X104157780Y-119824500D03*
X104658160Y-119824500D03*
X105158540Y-119824500D03*
X105656380Y-119824500D03*
X106156760Y-119824500D03*
X106657140Y-119824500D03*
X95158560Y-119824500D03*
X95656400Y-119824500D03*
X96156780Y-119824500D03*
X96657160Y-119824500D03*
X97157540Y-119824500D03*
X97657920Y-119824500D03*
X98158300Y-119824500D03*
X98656140Y-119824500D03*
X99156520Y-119824500D03*
X99656900Y-119824500D03*
X100157280Y-119824500D03*
X107157520Y-119824500D03*
X107657900Y-119824500D03*
X108158280Y-119824500D03*
X108656120Y-119824500D03*
X98656140Y-111823500D03*
X98158300Y-111823500D03*
X97657920Y-111823500D03*
X97157540Y-111823500D03*
X96657160Y-111823500D03*
X96156780Y-111823500D03*
X95656400Y-111823500D03*
X95158560Y-111823500D03*
D42*
X101854000Y-115824000D03*
D43*
X84100000Y-129400000D03*
X84100000Y-128600000D03*
X84100000Y-127800000D03*
X84100000Y-127000000D03*
X84100000Y-126200000D03*
D44*
X83000000Y-123250000D03*
X83000000Y-132350000D03*
D45*
X79925000Y-123450000D03*
X79925000Y-132150000D03*
D46*
X82700000Y-125800000D03*
X82700000Y-129800000D03*
D29*
X113100000Y-104162000D03*
X113100000Y-102638000D03*
X93000000Y-130188000D03*
X93000000Y-131712000D03*
D30*
X89162000Y-127550000D03*
X87638000Y-127550000D03*
X89162000Y-126000000D03*
X87638000Y-126000000D03*
X86762000Y-122500000D03*
X85238000Y-122500000D03*
D47*
X116252500Y-105570000D03*
X115300000Y-105570000D03*
X114347500Y-105570000D03*
X114347500Y-103030000D03*
X115300000Y-103030000D03*
X116252500Y-103030000D03*
D48*
X86133000Y-132955000D03*
X91467000Y-132955000D03*
X86133000Y-131685000D03*
X86133000Y-130415000D03*
X86133000Y-129145000D03*
X91467000Y-131685000D03*
X91467000Y-130415000D03*
X91467000Y-129145000D03*
D49*
G36*
X100711000Y-88646000D02*
X93853000Y-88646000D01*
X93853000Y-85795967D01*
X95504000Y-84779967D01*
X95504000Y-80772000D01*
X100203000Y-80772000D01*
X100203000Y-84874453D01*
X100711000Y-85636453D01*
X100711000Y-88646000D01*
X100711000Y-88646000D01*
G37*
X100711000Y-88646000D02*
X93853000Y-88646000D01*
X93853000Y-85795967D01*
X95504000Y-84779967D01*
X95504000Y-80772000D01*
X100203000Y-80772000D01*
X100203000Y-84874453D01*
X100711000Y-85636453D01*
X100711000Y-88646000D01*
G36*
X113538000Y-88646000D02*
X106680000Y-88646000D01*
X106680000Y-85742008D01*
X107061000Y-84345008D01*
X107061000Y-80899000D01*
X111887000Y-80899000D01*
X111887000Y-84395968D01*
X112319967Y-84684613D01*
X113538000Y-85659039D01*
X113538000Y-88646000D01*
X113538000Y-88646000D01*
G37*
X113538000Y-88646000D02*
X106680000Y-88646000D01*
X106680000Y-85742008D01*
X107061000Y-84345008D01*
X107061000Y-80899000D01*
X111887000Y-80899000D01*
X111887000Y-84395968D01*
X112319967Y-84684613D01*
X113538000Y-85659039D01*
X113538000Y-88646000D01*
G36*
X87500968Y-88646000D02*
X81280000Y-88646000D01*
X81280000Y-84998177D01*
X82804000Y-82458177D01*
X82804000Y-80899000D01*
X87378000Y-80899000D01*
X87500968Y-88646000D01*
X87500968Y-88646000D01*
G37*
X87500968Y-88646000D02*
X81280000Y-88646000D01*
X81280000Y-84998177D01*
X82804000Y-82458177D01*
X82804000Y-80899000D01*
X87378000Y-80899000D01*
X87500968Y-88646000D01*
G36*
X88988001Y-101977254D02*
X83947000Y-107264157D01*
X83947000Y-111125000D01*
X79502000Y-111125000D01*
X79502000Y-101855639D01*
X88988001Y-101977254D01*
X88988001Y-101977254D01*
G37*
X88988001Y-101977254D02*
X83947000Y-107264157D01*
X83947000Y-111125000D01*
X79502000Y-111125000D01*
X79502000Y-101855639D01*
X88988001Y-101977254D01*
G36*
X94107000Y-101473000D02*
X92837000Y-101473000D01*
X92837000Y-99949000D01*
X90879395Y-99949000D01*
X89789000Y-101039395D01*
X89789000Y-92329000D01*
X92403395Y-92329000D01*
X94107000Y-94032605D01*
X94107000Y-101473000D01*
X94107000Y-101473000D01*
G37*
X94107000Y-101473000D02*
X92837000Y-101473000D01*
X92837000Y-99949000D01*
X90879395Y-99949000D01*
X89789000Y-101039395D01*
X89789000Y-92329000D01*
X92403395Y-92329000D01*
X94107000Y-94032605D01*
X94107000Y-101473000D01*
G36*
X106553000Y-100203000D02*
X103251000Y-100203000D01*
X103251000Y-92583000D01*
X104855020Y-92583000D01*
X106553000Y-94038412D01*
X106553000Y-100203000D01*
X106553000Y-100203000D01*
G37*
X106553000Y-100203000D02*
X103251000Y-100203000D01*
X103251000Y-92583000D01*
X104855020Y-92583000D01*
X106553000Y-94038412D01*
X106553000Y-100203000D01*
M02*
