%FSLAX46Y46*%
G04 Gerber Fmt 4.6, Leading zero omitted, Abs format (unit mm)*
G04 Created by KiCad (PCBNEW (2014-08-29 BZR 5106)-product) date fre  5 sep 2014 20:10:35*
%MOMM*%
G01*
G04 APERTURE LIST*
%ADD10C,0.150000*%
%ADD11R,1.699260X1.198880*%
%ADD12O,1.699260X1.198880*%
%ADD13O,1.524000X3.048000*%
%ADD14C,4.064000*%
%ADD15C,1.300480*%
%ADD16C,0.800000*%
%ADD17C,1.524000*%
%ADD18C,0.889000*%
%ADD19C,1.016000*%
%ADD20C,1.270000*%
%ADD21C,0.254000*%
%ADD22C,0.635000*%
%ADD23C,0.304800*%
%ADD24C,0.508000*%
%ADD25C,0.406400*%
G04 APERTURE END LIST*
D10*
D11*
X80450000Y-119728280D03*
D12*
X80450000Y-115725240D03*
X80450000Y-117726760D03*
X80450000Y-113726260D03*
D13*
X108712000Y-136398000D03*
X111252000Y-136398000D03*
X113792000Y-136398000D03*
D14*
X92000000Y-83000000D03*
X103500000Y-83000000D03*
D15*
X86099240Y-137200000D03*
X88100760Y-137200000D03*
X90099740Y-137200000D03*
X92101260Y-137200000D03*
X84100260Y-137200000D03*
X82098740Y-137200000D03*
X114300000Y-126253240D03*
X114300000Y-128254760D03*
X114300000Y-130253740D03*
X114300000Y-132255260D03*
X114300000Y-124254260D03*
X114300000Y-122252740D03*
X114300000Y-112029240D03*
X114300000Y-114030760D03*
X114300000Y-116029740D03*
X114300000Y-118031260D03*
X114300000Y-110030260D03*
X114300000Y-108028740D03*
D16*
X79400000Y-127800000D03*
X88900000Y-118800000D03*
X88900000Y-117729000D03*
X85979000Y-114935000D03*
D17*
X92000356Y-105549680D03*
X92070128Y-103845682D03*
D16*
X81800000Y-112800000D03*
X88138000Y-131699000D03*
X90255293Y-131671345D03*
X114935000Y-104273302D03*
X86300000Y-126200000D03*
X80600000Y-121900000D03*
D18*
X90908085Y-109436017D03*
D16*
X107750000Y-124550000D03*
X93321003Y-128553294D03*
X103251000Y-132842000D03*
X99314000Y-117475000D03*
X97028000Y-123063000D03*
X98552000Y-116840000D03*
X110871000Y-118364000D03*
X110871000Y-119380000D03*
X113411000Y-111125000D03*
X91823218Y-122684218D03*
X113150000Y-129100000D03*
X109950000Y-135050000D03*
X112550000Y-135200000D03*
X98450000Y-130100000D03*
X84928238Y-131104499D03*
X92833302Y-124850000D03*
X103800000Y-114950000D03*
X103886176Y-113159379D03*
X94430898Y-112400000D03*
X93408500Y-105410000D03*
X79050000Y-130800000D03*
X109782385Y-122455968D03*
X89800000Y-119600000D03*
X96450000Y-116950000D03*
X82650000Y-127000000D03*
X93650000Y-120850000D03*
X98512630Y-135586518D03*
X99881940Y-138024468D03*
X99187000Y-132731485D03*
X97028000Y-133350000D03*
X108204000Y-128143000D03*
X97350000Y-126600000D03*
X100965000Y-121539000D03*
X105537000Y-121539000D03*
X90805000Y-114935000D03*
X91948000Y-114935000D03*
X99374925Y-134191906D03*
X100457000Y-122555000D03*
X94615000Y-120523000D03*
X83900000Y-130100000D03*
X96901000Y-127635000D03*
X98171000Y-128143000D03*
X107200501Y-135762249D03*
X109100000Y-127450000D03*
X110900000Y-132400000D03*
X116200000Y-110900000D03*
X95850000Y-126400000D03*
X98552000Y-122301000D03*
X95631000Y-137160000D03*
X106350000Y-126600000D03*
X92850000Y-129600000D03*
X91200000Y-119400000D03*
X104350000Y-132600000D03*
X79300000Y-126650000D03*
X88200000Y-121900000D03*
X116100000Y-101300000D03*
X96647000Y-114046000D03*
D17*
X80010000Y-110744000D03*
X81788000Y-110744000D03*
X83566000Y-110744000D03*
X83566000Y-108966000D03*
X81788000Y-108966000D03*
X80010000Y-108966000D03*
X80010000Y-107188000D03*
X81788000Y-107188000D03*
X80010000Y-105410000D03*
X81788000Y-105410000D03*
X83566000Y-105410000D03*
X83566000Y-107188000D03*
D16*
X93980000Y-113411000D03*
X111125000Y-113411000D03*
X83900000Y-125300000D03*
X116078000Y-100330000D03*
X82600000Y-128300000D03*
X101600000Y-138085820D03*
X104304820Y-130645617D03*
X86741000Y-125095000D03*
X99695000Y-109220000D03*
D17*
X112522000Y-90424000D03*
X110744000Y-90424000D03*
X108966000Y-90424000D03*
X106934000Y-90424000D03*
X108966000Y-88646000D03*
X108966000Y-86868000D03*
X106934000Y-88646000D03*
X106934000Y-86868000D03*
X112522000Y-88646000D03*
X112522000Y-86868000D03*
X110744000Y-88646000D03*
X110744000Y-86868000D03*
D16*
X91200000Y-123600000D03*
D17*
X93980000Y-88900000D03*
X95758000Y-87122000D03*
D16*
X105918000Y-104648000D03*
D17*
X93980000Y-87122000D03*
X99822000Y-87122000D03*
X97790000Y-87122000D03*
X95758000Y-88900000D03*
X97790000Y-88900000D03*
X99822000Y-88900000D03*
X99822000Y-90678000D03*
X97790000Y-90678000D03*
X95758000Y-90678000D03*
X93980000Y-90678000D03*
D18*
X91440000Y-86868000D03*
D16*
X104648000Y-104394000D03*
D17*
X86360000Y-87122000D03*
X84582000Y-87122000D03*
X82804000Y-87122000D03*
X81026000Y-87122000D03*
X81026000Y-89154000D03*
X82804000Y-89154000D03*
X84582000Y-89154000D03*
X86360000Y-89154000D03*
X86360000Y-90932000D03*
X84582000Y-90932000D03*
X82804000Y-90932000D03*
X81026000Y-90932000D03*
D16*
X86500000Y-128267478D03*
X105283000Y-130429000D03*
X101346000Y-128524000D03*
D18*
X108003411Y-103725057D03*
D16*
X101473000Y-113284000D03*
X105791000Y-106045000D03*
D18*
X91440000Y-91313000D03*
D16*
X107061000Y-137287000D03*
X91300000Y-128250000D03*
X105792150Y-136142850D03*
X90932000Y-126492000D03*
X99012291Y-113211397D03*
D18*
X114808000Y-81915000D03*
D16*
X113030000Y-105791000D03*
X113030000Y-105791000D03*
X100441730Y-113235361D03*
X103632000Y-138085820D03*
X91440000Y-124587000D03*
X105918000Y-102743000D03*
D18*
X104394000Y-91694000D03*
X103917829Y-102086099D03*
D16*
X102616000Y-113284000D03*
X106807000Y-113538000D03*
D18*
X91313000Y-90170000D03*
X91452628Y-102191916D03*
D16*
X105283000Y-108966000D03*
X111055180Y-104070180D03*
X88519000Y-109601000D03*
D18*
X111760000Y-103124000D03*
X89792039Y-109562880D03*
D16*
X110617000Y-106426000D03*
X112395000Y-109982000D03*
X100711000Y-109982000D03*
X100584000Y-118364000D03*
X105283000Y-125349000D03*
X105283000Y-126619000D03*
X106934000Y-118237000D03*
X104648000Y-127508000D03*
X104929931Y-118437878D03*
X103632000Y-127889000D03*
X103759000Y-118466239D03*
X100076000Y-128270000D03*
X102229461Y-118465184D03*
X96520000Y-129413000D03*
X96450000Y-118050000D03*
X100700000Y-126600000D03*
X103378000Y-121412000D03*
X98850000Y-126650000D03*
X90200000Y-127300000D03*
X93859398Y-129369533D03*
X93605312Y-132700000D03*
X89453446Y-132677426D03*
X102489000Y-127889000D03*
X88292526Y-129652290D03*
X88100000Y-123900000D03*
X107950000Y-130810000D03*
X105029000Y-131572000D03*
X84900000Y-132600000D03*
D19*
X111252000Y-136398000D02*
X111252000Y-136948000D01*
D20*
X110109000Y-133477000D02*
X111252000Y-134620000D01*
X83682036Y-134697126D02*
X95811363Y-134697126D01*
X82098740Y-136280422D02*
X83682036Y-134697126D01*
X105283000Y-133477000D02*
X110109000Y-133477000D01*
X95811363Y-134697126D02*
X97913557Y-136799320D01*
X111252000Y-134620000D02*
X111252000Y-136398000D01*
X97913557Y-136799320D02*
X101960680Y-136799320D01*
X101960680Y-136799320D02*
X105283000Y-133477000D01*
X82098740Y-137200000D02*
X82098740Y-136280422D01*
D21*
X113156262Y-110870262D02*
X113411000Y-111125000D01*
D22*
X80450000Y-119728280D02*
X82074720Y-119728280D01*
X82931000Y-113931000D02*
X81800000Y-112800000D01*
X82931000Y-118872000D02*
X82931000Y-113931000D01*
X82074720Y-119728280D02*
X82931000Y-118872000D01*
D23*
X90255293Y-131053319D02*
X90255293Y-131671345D01*
X93321003Y-128553294D02*
X92755318Y-128553294D01*
X92755318Y-128553294D02*
X90255293Y-131053319D01*
D21*
X114935000Y-104273302D02*
X114935000Y-105537000D01*
X114935000Y-105537000D02*
X113156262Y-107315738D01*
X113156262Y-107315738D02*
X113156262Y-110870262D01*
D23*
X96619345Y-131671345D02*
X90820978Y-131671345D01*
X90820978Y-131671345D02*
X90255293Y-131671345D01*
X103251000Y-132842000D02*
X102631295Y-133461705D01*
X98409705Y-133461705D02*
X96619345Y-131671345D01*
X102631295Y-133461705D02*
X98409705Y-133461705D01*
D21*
X102997000Y-129921000D02*
X100186515Y-132731485D01*
X105029000Y-129413000D02*
X104521000Y-129921000D01*
X99752685Y-132731485D02*
X99187000Y-132731485D01*
X113380422Y-130253740D02*
X113047682Y-129921000D01*
X114300000Y-130253740D02*
X113380422Y-130253740D01*
X104521000Y-129921000D02*
X102997000Y-129921000D01*
X106553000Y-129413000D02*
X105029000Y-129413000D01*
X107061000Y-129921000D02*
X106553000Y-129413000D01*
X113047682Y-129921000D02*
X107061000Y-129921000D01*
X100186515Y-132731485D02*
X99752685Y-132731485D01*
X102362000Y-128905000D02*
X103886000Y-128905000D01*
X107061000Y-128270000D02*
X107696000Y-128905000D01*
X104521000Y-128270000D02*
X107061000Y-128270000D01*
X103886000Y-128905000D02*
X104521000Y-128270000D01*
X108712000Y-128905000D02*
X107696000Y-128905000D01*
X113362740Y-124254260D02*
X108712000Y-128905000D01*
X114300000Y-124254260D02*
X113362740Y-124254260D01*
X99822000Y-129413000D02*
X99060000Y-128651000D01*
X101854000Y-129413000D02*
X99822000Y-129413000D01*
X102362000Y-128905000D02*
X101854000Y-129413000D01*
X98425000Y-127254000D02*
X97917000Y-127254000D01*
X97536000Y-127635000D02*
X96901000Y-127635000D01*
X97917000Y-127254000D02*
X97536000Y-127635000D01*
X99060000Y-127889000D02*
X98425000Y-127254000D01*
X99060000Y-128651000D02*
X99060000Y-127889000D01*
X102616000Y-129413000D02*
X104267000Y-129413000D01*
X106934000Y-128905000D02*
X107442000Y-129413000D01*
X104775000Y-128905000D02*
X106934000Y-128905000D01*
X104267000Y-129413000D02*
X104775000Y-128905000D01*
X108966000Y-129413000D02*
X107442000Y-129413000D01*
X114300000Y-128254760D02*
X110124240Y-128254760D01*
X110124240Y-128254760D02*
X108966000Y-129413000D01*
X98171000Y-128778000D02*
X98171000Y-128143000D01*
X99314000Y-129921000D02*
X98171000Y-128778000D01*
X102108000Y-129921000D02*
X99314000Y-129921000D01*
X102616000Y-129413000D02*
X102108000Y-129921000D01*
X116200000Y-110900000D02*
X116200000Y-114129740D01*
X116200000Y-114129740D02*
X114300000Y-116029740D01*
X86004801Y-123195199D02*
X83900000Y-125300000D01*
X93980000Y-113411000D02*
X93980000Y-117653504D01*
X88438305Y-123195199D02*
X86004801Y-123195199D01*
X93980000Y-117653504D02*
X88438305Y-123195199D01*
D20*
X91440000Y-86868000D02*
X86614000Y-86868000D01*
X86614000Y-86868000D02*
X86360000Y-87122000D01*
D21*
X105047999Y-103994001D02*
X104648000Y-104394000D01*
X105047999Y-102003301D02*
X105047999Y-103994001D01*
X101122562Y-101224030D02*
X104268728Y-101224030D01*
X95135699Y-117414301D02*
X95135699Y-107210893D01*
X88943166Y-123606834D02*
X95135699Y-117414301D01*
X104268728Y-101224030D02*
X105047999Y-102003301D01*
X95135699Y-107210893D02*
X101122562Y-101224030D01*
X88943166Y-124567505D02*
X88943166Y-123606834D01*
X86500000Y-127010671D02*
X88943166Y-124567505D01*
X86500000Y-128267478D02*
X86500000Y-127010671D01*
D22*
X101473000Y-113284000D02*
X101473000Y-114398046D01*
X101473000Y-114398046D02*
X103020255Y-115945301D01*
X106177699Y-115945301D02*
X108003411Y-114119589D01*
X108003411Y-114119589D02*
X108003411Y-104353674D01*
X108003411Y-104353674D02*
X108003411Y-103725057D01*
X103020255Y-115945301D02*
X106177699Y-115945301D01*
X101858111Y-116758111D02*
X100441730Y-115341730D01*
X100441730Y-115341730D02*
X100441730Y-114004283D01*
X107269889Y-116758111D02*
X101858111Y-116758111D01*
X100441730Y-114004283D02*
X100441730Y-113235361D01*
X109347000Y-114681000D02*
X107269889Y-116758111D01*
X109347000Y-109474000D02*
X109347000Y-114681000D01*
X113030000Y-105791000D02*
X109347000Y-109474000D01*
X103473330Y-102530598D02*
X103917829Y-102086099D01*
X102616000Y-103387928D02*
X103473330Y-102530598D01*
X102616000Y-113284000D02*
X102616000Y-103387928D01*
D24*
X112736507Y-102636507D02*
X110205490Y-100105490D01*
X109600000Y-103300000D02*
X109600000Y-104600000D01*
X108916000Y-102616000D02*
X109600000Y-103300000D01*
X105283000Y-108966000D02*
X106900000Y-107349000D01*
X109600000Y-104600000D02*
X110300000Y-105300000D01*
X112736507Y-104306493D02*
X112736507Y-102636507D01*
X111743000Y-105300000D02*
X112736507Y-104306493D01*
X110300000Y-105300000D02*
X111743000Y-105300000D01*
X106900000Y-103000000D02*
X107284000Y-102616000D01*
X106900000Y-107349000D02*
X106900000Y-103000000D01*
X107284000Y-102616000D02*
X108916000Y-102616000D01*
X96808084Y-102191916D02*
X91452628Y-102191916D01*
D25*
X97920251Y-101079749D02*
X99900000Y-99100000D01*
X109200000Y-99100000D02*
X110024295Y-99924295D01*
D24*
X97614867Y-101385133D02*
X99900000Y-99100000D01*
X97920251Y-101079749D02*
X97614867Y-101385133D01*
X97614867Y-101385133D02*
X96808084Y-102191916D01*
X109200000Y-99100000D02*
X110205490Y-100105490D01*
X110205490Y-100105490D02*
X110024295Y-99924295D01*
X99900000Y-99100000D02*
X109200000Y-99100000D01*
D23*
X111055180Y-103504495D02*
X111055180Y-104070180D01*
X108317505Y-100766820D02*
X111055180Y-103504495D01*
X100672900Y-100766820D02*
X108317505Y-100766820D01*
X91147900Y-110291820D02*
X100572667Y-100867053D01*
D21*
X100572667Y-100867053D02*
X100672900Y-100766820D01*
D23*
X91147900Y-110337600D02*
X91147900Y-110291820D01*
X89255600Y-110337600D02*
X91147900Y-110337600D01*
X88519000Y-109601000D02*
X89255600Y-110337600D01*
X89792039Y-108934263D02*
X90064986Y-108661316D01*
X111408741Y-102707402D02*
X111760000Y-103124000D01*
X90064986Y-108661316D02*
X91938684Y-108661316D01*
X91938684Y-108661316D02*
X100315790Y-100284210D01*
X100315790Y-100284210D02*
X108985549Y-100284210D01*
X108985549Y-100284210D02*
X111408741Y-102707402D01*
X89792039Y-109562880D02*
X89792039Y-108934263D01*
D21*
X97917000Y-112776000D02*
X100711000Y-109982000D01*
X97917000Y-114300000D02*
X97917000Y-112776000D01*
X101092000Y-117475000D02*
X97917000Y-114300000D01*
X110236000Y-112141000D02*
X112395000Y-109982000D01*
X110236000Y-114935000D02*
X110236000Y-112141000D01*
X110236000Y-114935000D02*
X107696000Y-117475000D01*
X107696000Y-117475000D02*
X101092000Y-117475000D01*
X95100000Y-127993000D02*
X95100000Y-125900000D01*
X95100000Y-125900000D02*
X96012000Y-124988000D01*
X96520000Y-129413000D02*
X95100000Y-127993000D01*
X96012000Y-118488000D02*
X96450000Y-118050000D01*
X96012000Y-124988000D02*
X96012000Y-118488000D01*
G36*
X107355711Y-113054109D02*
X107221165Y-112919328D01*
X106952883Y-112807927D01*
X106662392Y-112807674D01*
X106393916Y-112918606D01*
X106188328Y-113123835D01*
X106076927Y-113392117D01*
X106076674Y-113682608D01*
X106187606Y-113951084D01*
X106392835Y-114156672D01*
X106661117Y-114268073D01*
X106938699Y-114268314D01*
X105909413Y-115297601D01*
X103288541Y-115297601D01*
X102120700Y-114129760D01*
X102120700Y-113821395D01*
X102201835Y-113902672D01*
X102470117Y-114014073D01*
X102760608Y-114014326D01*
X103029084Y-113903394D01*
X103234672Y-113698165D01*
X103346073Y-113429883D01*
X103346326Y-113139392D01*
X103263700Y-112939421D01*
X103263700Y-110127000D01*
X107355711Y-110127000D01*
X107355711Y-113054109D01*
X107355711Y-113054109D01*
G37*
X107355711Y-113054109D02*
X107221165Y-112919328D01*
X106952883Y-112807927D01*
X106662392Y-112807674D01*
X106393916Y-112918606D01*
X106188328Y-113123835D01*
X106076927Y-113392117D01*
X106076674Y-113682608D01*
X106187606Y-113951084D01*
X106392835Y-114156672D01*
X106661117Y-114268073D01*
X106938699Y-114268314D01*
X105909413Y-115297601D01*
X103288541Y-115297601D01*
X102120700Y-114129760D01*
X102120700Y-113821395D01*
X102201835Y-113902672D01*
X102470117Y-114014073D01*
X102760608Y-114014326D01*
X103029084Y-113903394D01*
X103234672Y-113698165D01*
X103346073Y-113429883D01*
X103346326Y-113139392D01*
X103263700Y-112939421D01*
X103263700Y-110127000D01*
X107355711Y-110127000D01*
X107355711Y-113054109D01*
G36*
X116594800Y-138594800D02*
X115280610Y-138594800D01*
X115280610Y-132061094D01*
X115131661Y-131700611D01*
X114856100Y-131424568D01*
X114495877Y-131274991D01*
X114105834Y-131274650D01*
X113745351Y-131423599D01*
X113469308Y-131699160D01*
X113319731Y-132059383D01*
X113319390Y-132449426D01*
X113468339Y-132809909D01*
X113743900Y-133085952D01*
X114104123Y-133235529D01*
X114494166Y-133235870D01*
X114854649Y-133086921D01*
X115130692Y-132811360D01*
X115280269Y-132451137D01*
X115280610Y-132061094D01*
X115280610Y-138594800D01*
X114808000Y-138594800D01*
X114808000Y-137191750D01*
X114808000Y-136429750D01*
X114808000Y-136366250D01*
X114808000Y-135604250D01*
X114718511Y-135217860D01*
X114487969Y-134895129D01*
X114151472Y-134685189D01*
X113982219Y-134637965D01*
X113823750Y-134684029D01*
X113823750Y-136366250D01*
X114808000Y-136366250D01*
X114808000Y-136429750D01*
X113823750Y-136429750D01*
X113823750Y-138111971D01*
X113982219Y-138158035D01*
X114151472Y-138110811D01*
X114487969Y-137900871D01*
X114718511Y-137578140D01*
X114808000Y-137191750D01*
X114808000Y-138594800D01*
X113760250Y-138594800D01*
X113760250Y-138111971D01*
X113760250Y-136429750D01*
X113760250Y-136366250D01*
X113760250Y-134684029D01*
X113601781Y-134637965D01*
X113432528Y-134685189D01*
X113096031Y-134895129D01*
X112865489Y-135217860D01*
X112776000Y-135604250D01*
X112776000Y-136366250D01*
X113760250Y-136366250D01*
X113760250Y-136429750D01*
X112776000Y-136429750D01*
X112776000Y-137191750D01*
X112865489Y-137578140D01*
X113096031Y-137900871D01*
X113432528Y-138110811D01*
X113601781Y-138158035D01*
X113760250Y-138111971D01*
X113760250Y-138594800D01*
X109804200Y-138594800D01*
X109804200Y-137196326D01*
X109804200Y-135599674D01*
X109721061Y-135181707D01*
X109484302Y-134827372D01*
X109129967Y-134590613D01*
X108712000Y-134507474D01*
X108294033Y-134590613D01*
X107939698Y-134827372D01*
X107702939Y-135181707D01*
X107694596Y-135223647D01*
X107614666Y-135143577D01*
X107346384Y-135032176D01*
X107055893Y-135031923D01*
X106787417Y-135142855D01*
X106581829Y-135348084D01*
X106470428Y-135616366D01*
X106470205Y-135871737D01*
X106411544Y-135729766D01*
X106206315Y-135524178D01*
X105938033Y-135412777D01*
X105647542Y-135412524D01*
X105379066Y-135523456D01*
X105173478Y-135728685D01*
X105062077Y-135996967D01*
X105061824Y-136287458D01*
X105172756Y-136555934D01*
X105377985Y-136761522D01*
X105646267Y-136872923D01*
X105936758Y-136873176D01*
X106205234Y-136762244D01*
X106410822Y-136557015D01*
X106522223Y-136288733D01*
X106522445Y-136033361D01*
X106581107Y-136175333D01*
X106786336Y-136380921D01*
X107054618Y-136492322D01*
X107345109Y-136492575D01*
X107613585Y-136381643D01*
X107619800Y-136375438D01*
X107619800Y-136813216D01*
X107475165Y-136668328D01*
X107206883Y-136556927D01*
X106916392Y-136556674D01*
X106647916Y-136667606D01*
X106442328Y-136872835D01*
X106330927Y-137141117D01*
X106330674Y-137431608D01*
X106441606Y-137700084D01*
X106646835Y-137905672D01*
X106915117Y-138017073D01*
X107205608Y-138017326D01*
X107474084Y-137906394D01*
X107679672Y-137701165D01*
X107710836Y-137626112D01*
X107939698Y-137968628D01*
X108294033Y-138205387D01*
X108712000Y-138288526D01*
X109129967Y-138205387D01*
X109484302Y-137968628D01*
X109721061Y-137614293D01*
X109804200Y-137196326D01*
X109804200Y-138594800D01*
X104155691Y-138594800D01*
X104250672Y-138499985D01*
X104362073Y-138231703D01*
X104362326Y-137941212D01*
X104251394Y-137672736D01*
X104046165Y-137467148D01*
X103777883Y-137355747D01*
X103487392Y-137355494D01*
X103218916Y-137466426D01*
X103013328Y-137671655D01*
X102901927Y-137939937D01*
X102901674Y-138230428D01*
X103012606Y-138498904D01*
X103108334Y-138594800D01*
X102123691Y-138594800D01*
X102218672Y-138499985D01*
X102330073Y-138231703D01*
X102330326Y-137941212D01*
X102234789Y-137709996D01*
X102330046Y-137691049D01*
X102643179Y-137481819D01*
X105682798Y-134442200D01*
X109709201Y-134442200D01*
X110286800Y-135019798D01*
X110286800Y-135116064D01*
X110242939Y-135181707D01*
X110159800Y-135599674D01*
X110159800Y-137196326D01*
X110242939Y-137614293D01*
X110479698Y-137968628D01*
X110834033Y-138205387D01*
X111252000Y-138288526D01*
X111669967Y-138205387D01*
X112024302Y-137968628D01*
X112261061Y-137614293D01*
X112344200Y-137196326D01*
X112344200Y-135599674D01*
X112261061Y-135181707D01*
X112217200Y-135116064D01*
X112217200Y-134620000D01*
X112143729Y-134250634D01*
X111934499Y-133937501D01*
X111934499Y-133937500D01*
X111103139Y-133106141D01*
X111313084Y-133019394D01*
X111518672Y-132814165D01*
X111630073Y-132545883D01*
X111630326Y-132255392D01*
X111519394Y-131986916D01*
X111314165Y-131781328D01*
X111045883Y-131669927D01*
X110755392Y-131669674D01*
X110486916Y-131780606D01*
X110281328Y-131985835D01*
X110169927Y-132254117D01*
X110169692Y-132523872D01*
X110109000Y-132511800D01*
X105283000Y-132511800D01*
X105080241Y-132552130D01*
X105080326Y-132455392D01*
X105017024Y-132302189D01*
X105173608Y-132302326D01*
X105442084Y-132191394D01*
X105647672Y-131986165D01*
X105759073Y-131717883D01*
X105759326Y-131427392D01*
X105648394Y-131158916D01*
X105584209Y-131094619D01*
X105696084Y-131048394D01*
X105901672Y-130843165D01*
X106013073Y-130574883D01*
X106013326Y-130284392D01*
X105902394Y-130015916D01*
X105756932Y-129870200D01*
X106363621Y-129870200D01*
X106737710Y-130244289D01*
X106737711Y-130244289D01*
X106886037Y-130343398D01*
X107061000Y-130378200D01*
X107348993Y-130378200D01*
X107331328Y-130395835D01*
X107219927Y-130664117D01*
X107219674Y-130954608D01*
X107330606Y-131223084D01*
X107535835Y-131428672D01*
X107804117Y-131540073D01*
X108094608Y-131540326D01*
X108363084Y-131429394D01*
X108568672Y-131224165D01*
X108680073Y-130955883D01*
X108680326Y-130665392D01*
X108569394Y-130396916D01*
X108550710Y-130378200D01*
X112858303Y-130378200D01*
X113057132Y-130577029D01*
X113057133Y-130577029D01*
X113205459Y-130676138D01*
X113380422Y-130710940D01*
X113428073Y-130710940D01*
X113468339Y-130808389D01*
X113743900Y-131084432D01*
X114104123Y-131234009D01*
X114494166Y-131234350D01*
X114854649Y-131085401D01*
X115130692Y-130809840D01*
X115280269Y-130449617D01*
X115280610Y-130059574D01*
X115131661Y-129699091D01*
X114856100Y-129423048D01*
X114495877Y-129273471D01*
X114105834Y-129273130D01*
X113745351Y-129422079D01*
X113470104Y-129696844D01*
X113370971Y-129597711D01*
X113222645Y-129498602D01*
X113047682Y-129463800D01*
X109561778Y-129463800D01*
X110313618Y-128711960D01*
X113428073Y-128711960D01*
X113468339Y-128809409D01*
X113743900Y-129085452D01*
X114104123Y-129235029D01*
X114494166Y-129235370D01*
X114854649Y-129086421D01*
X115130692Y-128810860D01*
X115280269Y-128450637D01*
X115280610Y-128060594D01*
X115205097Y-127877839D01*
X115205097Y-126077740D01*
X115069039Y-125744734D01*
X115064097Y-125737336D01*
X114929055Y-125669086D01*
X114884154Y-125713987D01*
X114884154Y-125624185D01*
X114815904Y-125489143D01*
X114484225Y-125349879D01*
X114124500Y-125348143D01*
X113791494Y-125484201D01*
X113784096Y-125489143D01*
X113715846Y-125624185D01*
X114300000Y-126208339D01*
X114884154Y-125624185D01*
X114884154Y-125713987D01*
X114344901Y-126253240D01*
X114929055Y-126837394D01*
X115064097Y-126769144D01*
X115203361Y-126437465D01*
X115205097Y-126077740D01*
X115205097Y-127877839D01*
X115131661Y-127700111D01*
X114884154Y-127452171D01*
X114884154Y-126882295D01*
X114300000Y-126298141D01*
X114255099Y-126343042D01*
X114255099Y-126253240D01*
X113670945Y-125669086D01*
X113535903Y-125737336D01*
X113396639Y-126069015D01*
X113394903Y-126428740D01*
X113530961Y-126761746D01*
X113535903Y-126769144D01*
X113670945Y-126837394D01*
X114255099Y-126253240D01*
X114255099Y-126343042D01*
X113715846Y-126882295D01*
X113784096Y-127017337D01*
X114115775Y-127156601D01*
X114475500Y-127158337D01*
X114808506Y-127022279D01*
X114815904Y-127017337D01*
X114884154Y-126882295D01*
X114884154Y-127452171D01*
X114856100Y-127424068D01*
X114495877Y-127274491D01*
X114105834Y-127274150D01*
X113745351Y-127423099D01*
X113469308Y-127698660D01*
X113428241Y-127797560D01*
X110466018Y-127797560D01*
X113464342Y-124799236D01*
X113468339Y-124808909D01*
X113743900Y-125084952D01*
X114104123Y-125234529D01*
X114494166Y-125234870D01*
X114854649Y-125085921D01*
X115130692Y-124810360D01*
X115280269Y-124450137D01*
X115280610Y-124060094D01*
X115280610Y-122058574D01*
X115280610Y-117837094D01*
X115131661Y-117476611D01*
X114856100Y-117200568D01*
X114495877Y-117050991D01*
X114105834Y-117050650D01*
X113745351Y-117199599D01*
X113469308Y-117475160D01*
X113319731Y-117835383D01*
X113319390Y-118225426D01*
X113468339Y-118585909D01*
X113743900Y-118861952D01*
X114104123Y-119011529D01*
X114494166Y-119011870D01*
X114854649Y-118862921D01*
X115130692Y-118587360D01*
X115280269Y-118227137D01*
X115280610Y-117837094D01*
X115280610Y-122058574D01*
X115131661Y-121698091D01*
X114856100Y-121422048D01*
X114495877Y-121272471D01*
X114105834Y-121272130D01*
X113745351Y-121421079D01*
X113469308Y-121696640D01*
X113319731Y-122056863D01*
X113319390Y-122446906D01*
X113468339Y-122807389D01*
X113743900Y-123083432D01*
X114104123Y-123233009D01*
X114494166Y-123233350D01*
X114854649Y-123084401D01*
X115130692Y-122808840D01*
X115280269Y-122448617D01*
X115280610Y-122058574D01*
X115280610Y-124060094D01*
X115131661Y-123699611D01*
X114856100Y-123423568D01*
X114495877Y-123273991D01*
X114105834Y-123273650D01*
X113745351Y-123422599D01*
X113469308Y-123698160D01*
X113428241Y-123797060D01*
X113362740Y-123797060D01*
X113187777Y-123831862D01*
X113039451Y-123930970D01*
X109781996Y-127188425D01*
X109719394Y-127036916D01*
X109514165Y-126831328D01*
X109245883Y-126719927D01*
X108955392Y-126719674D01*
X108686916Y-126830606D01*
X108481328Y-127035835D01*
X108369927Y-127304117D01*
X108369825Y-127421207D01*
X108349883Y-127412927D01*
X108059392Y-127412674D01*
X107790916Y-127523606D01*
X107585328Y-127728835D01*
X107473927Y-127997117D01*
X107473892Y-128036314D01*
X107384289Y-127946711D01*
X107235963Y-127847602D01*
X107061000Y-127812800D01*
X105312084Y-127812800D01*
X105378073Y-127653883D01*
X105378326Y-127363392D01*
X105372494Y-127349277D01*
X105427608Y-127349326D01*
X105696084Y-127238394D01*
X105826029Y-127108674D01*
X105935835Y-127218672D01*
X106204117Y-127330073D01*
X106494608Y-127330326D01*
X106763084Y-127219394D01*
X106968672Y-127014165D01*
X107080073Y-126745883D01*
X107080326Y-126455392D01*
X106969394Y-126186916D01*
X106764165Y-125981328D01*
X106495883Y-125869927D01*
X106267326Y-125869727D01*
X106267326Y-121394392D01*
X106156394Y-121125916D01*
X105951165Y-120920328D01*
X105682883Y-120808927D01*
X105392392Y-120808674D01*
X105123916Y-120919606D01*
X104918328Y-121124835D01*
X104806927Y-121393117D01*
X104806674Y-121683608D01*
X104917606Y-121952084D01*
X105122835Y-122157672D01*
X105391117Y-122269073D01*
X105681608Y-122269326D01*
X105950084Y-122158394D01*
X106155672Y-121953165D01*
X106267073Y-121684883D01*
X106267326Y-121394392D01*
X106267326Y-125869727D01*
X106205392Y-125869674D01*
X105936916Y-125980606D01*
X105806970Y-126110325D01*
X105697165Y-126000328D01*
X105658078Y-125984097D01*
X105696084Y-125968394D01*
X105901672Y-125763165D01*
X106013073Y-125494883D01*
X106013326Y-125204392D01*
X105902394Y-124935916D01*
X105697165Y-124730328D01*
X105428883Y-124618927D01*
X105138392Y-124618674D01*
X104869916Y-124729606D01*
X104664328Y-124934835D01*
X104552927Y-125203117D01*
X104552674Y-125493608D01*
X104663606Y-125762084D01*
X104868835Y-125967672D01*
X104907921Y-125983902D01*
X104869916Y-125999606D01*
X104664328Y-126204835D01*
X104552927Y-126473117D01*
X104552674Y-126763608D01*
X104558505Y-126777722D01*
X104503392Y-126777674D01*
X104234916Y-126888606D01*
X104108326Y-127014974D01*
X104108326Y-121267392D01*
X103997394Y-120998916D01*
X103792165Y-120793328D01*
X103523883Y-120681927D01*
X103233392Y-120681674D01*
X102964916Y-120792606D01*
X102759328Y-120997835D01*
X102647927Y-121266117D01*
X102647674Y-121556608D01*
X102758606Y-121825084D01*
X102963835Y-122030672D01*
X103232117Y-122142073D01*
X103522608Y-122142326D01*
X103791084Y-122031394D01*
X103996672Y-121826165D01*
X104108073Y-121557883D01*
X104108326Y-121267392D01*
X104108326Y-127014974D01*
X104029328Y-127093835D01*
X103969295Y-127238408D01*
X103777883Y-127158927D01*
X103487392Y-127158674D01*
X103218916Y-127269606D01*
X103060403Y-127427841D01*
X102903165Y-127270328D01*
X102634883Y-127158927D01*
X102344392Y-127158674D01*
X102075916Y-127269606D01*
X101870328Y-127474835D01*
X101758927Y-127743117D01*
X101758786Y-127904755D01*
X101695326Y-127878404D01*
X101695326Y-121394392D01*
X101584394Y-121125916D01*
X101379165Y-120920328D01*
X101110883Y-120808927D01*
X100820392Y-120808674D01*
X100551916Y-120919606D01*
X100346328Y-121124835D01*
X100234927Y-121393117D01*
X100234674Y-121683608D01*
X100295794Y-121831531D01*
X100043916Y-121935606D01*
X99838328Y-122140835D01*
X99726927Y-122409117D01*
X99726674Y-122699608D01*
X99837606Y-122968084D01*
X100042835Y-123173672D01*
X100311117Y-123285073D01*
X100601608Y-123285326D01*
X100870084Y-123174394D01*
X101075672Y-122969165D01*
X101187073Y-122700883D01*
X101187326Y-122410392D01*
X101126205Y-122262468D01*
X101378084Y-122158394D01*
X101583672Y-121953165D01*
X101695073Y-121684883D01*
X101695326Y-121394392D01*
X101695326Y-127878404D01*
X101491883Y-127793927D01*
X101430326Y-127793873D01*
X101430326Y-126455392D01*
X101319394Y-126186916D01*
X101114165Y-125981328D01*
X100845883Y-125869927D01*
X100555392Y-125869674D01*
X100286916Y-125980606D01*
X100081328Y-126185835D01*
X99969927Y-126454117D01*
X99969674Y-126744608D01*
X100080606Y-127013084D01*
X100285835Y-127218672D01*
X100554117Y-127330073D01*
X100844608Y-127330326D01*
X101113084Y-127219394D01*
X101318672Y-127014165D01*
X101430073Y-126745883D01*
X101430326Y-126455392D01*
X101430326Y-127793873D01*
X101201392Y-127793674D01*
X100932916Y-127904606D01*
X100778706Y-128058546D01*
X100695394Y-127856916D01*
X100490165Y-127651328D01*
X100221883Y-127539927D01*
X99931392Y-127539674D01*
X99662916Y-127650606D01*
X99501777Y-127811463D01*
X99482398Y-127714037D01*
X99383289Y-127565711D01*
X99138463Y-127320885D01*
X99263084Y-127269394D01*
X99468672Y-127064165D01*
X99580073Y-126795883D01*
X99580326Y-126505392D01*
X99469394Y-126236916D01*
X99282326Y-126049520D01*
X99282326Y-122156392D01*
X99171394Y-121887916D01*
X98966165Y-121682328D01*
X98697883Y-121570927D01*
X98407392Y-121570674D01*
X98138916Y-121681606D01*
X97933328Y-121886835D01*
X97821927Y-122155117D01*
X97821674Y-122445608D01*
X97932606Y-122714084D01*
X98137835Y-122919672D01*
X98406117Y-123031073D01*
X98696608Y-123031326D01*
X98965084Y-122920394D01*
X99170672Y-122715165D01*
X99282073Y-122446883D01*
X99282326Y-122156392D01*
X99282326Y-126049520D01*
X99264165Y-126031328D01*
X98995883Y-125919927D01*
X98705392Y-125919674D01*
X98436916Y-126030606D01*
X98231328Y-126235835D01*
X98119927Y-126504117D01*
X98119674Y-126794608D01*
X98120579Y-126796800D01*
X98058930Y-126796800D01*
X98080073Y-126745883D01*
X98080326Y-126455392D01*
X97969394Y-126186916D01*
X97764165Y-125981328D01*
X97495883Y-125869927D01*
X97377326Y-125869823D01*
X97377326Y-113901392D01*
X97266394Y-113632916D01*
X97061165Y-113427328D01*
X96792883Y-113315927D01*
X96502392Y-113315674D01*
X96233916Y-113426606D01*
X96028328Y-113631835D01*
X95916927Y-113900117D01*
X95916674Y-114190608D01*
X96027606Y-114459084D01*
X96232835Y-114664672D01*
X96501117Y-114776073D01*
X96791608Y-114776326D01*
X97060084Y-114665394D01*
X97265672Y-114460165D01*
X97377073Y-114191883D01*
X97377326Y-113901392D01*
X97377326Y-125869823D01*
X97205392Y-125869674D01*
X96936916Y-125980606D01*
X96731328Y-126185835D01*
X96619927Y-126454117D01*
X96619674Y-126744608D01*
X96696104Y-126929584D01*
X96487916Y-127015606D01*
X96282328Y-127220835D01*
X96170927Y-127489117D01*
X96170674Y-127779608D01*
X96281606Y-128048084D01*
X96486835Y-128253672D01*
X96755117Y-128365073D01*
X97045608Y-128365326D01*
X97314084Y-128254394D01*
X97440813Y-128127886D01*
X97440674Y-128287608D01*
X97551606Y-128556084D01*
X97713800Y-128718561D01*
X97713800Y-128778000D01*
X97748602Y-128952963D01*
X97847711Y-129101289D01*
X98990711Y-130244289D01*
X99139037Y-130343398D01*
X99314000Y-130378200D01*
X101893221Y-130378200D01*
X99997137Y-132274285D01*
X99762355Y-132274285D01*
X99601165Y-132112813D01*
X99332883Y-132001412D01*
X99042392Y-132001159D01*
X98773916Y-132112091D01*
X98568328Y-132317320D01*
X98456927Y-132585602D01*
X98456674Y-132876093D01*
X98567606Y-133144569D01*
X98772835Y-133350157D01*
X99041117Y-133461558D01*
X99229972Y-133461722D01*
X98961841Y-133572512D01*
X98756253Y-133777741D01*
X98644852Y-134046023D01*
X98644599Y-134336514D01*
X98755531Y-134604990D01*
X98960760Y-134810578D01*
X99229042Y-134921979D01*
X99519533Y-134922232D01*
X99788009Y-134811300D01*
X99993597Y-134606071D01*
X100104998Y-134337789D01*
X100105251Y-134047298D01*
X99994319Y-133778822D01*
X99789090Y-133573234D01*
X99520808Y-133461833D01*
X99331952Y-133461668D01*
X99600084Y-133350879D01*
X99762561Y-133188685D01*
X100186515Y-133188685D01*
X100361478Y-133153883D01*
X100509804Y-133054774D01*
X103186378Y-130378200D01*
X103625212Y-130378200D01*
X103574747Y-130499734D01*
X103574494Y-130790225D01*
X103685426Y-131058701D01*
X103890655Y-131264289D01*
X104158937Y-131375690D01*
X104319808Y-131375830D01*
X104298927Y-131426117D01*
X104298674Y-131716608D01*
X104361975Y-131869810D01*
X104205392Y-131869674D01*
X103936916Y-131980606D01*
X103731328Y-132185835D01*
X103619927Y-132454117D01*
X103619674Y-132744608D01*
X103730606Y-133013084D01*
X103935835Y-133218672D01*
X104105767Y-133289234D01*
X101560881Y-135834120D01*
X98313355Y-135834120D01*
X97758326Y-135279091D01*
X97758326Y-133205392D01*
X97647394Y-132936916D01*
X97442165Y-132731328D01*
X97250326Y-132651669D01*
X97250326Y-129268392D01*
X97139394Y-128999916D01*
X96934165Y-128794328D01*
X96665883Y-128682927D01*
X96436305Y-128682727D01*
X95557200Y-127803622D01*
X95557200Y-127069067D01*
X95704117Y-127130073D01*
X95994608Y-127130326D01*
X96263084Y-127019394D01*
X96468672Y-126814165D01*
X96580073Y-126545883D01*
X96580326Y-126255392D01*
X96469394Y-125986916D01*
X96264165Y-125781328D01*
X95995883Y-125669927D01*
X95976667Y-125669910D01*
X96335289Y-125311289D01*
X96434398Y-125162963D01*
X96469200Y-124988000D01*
X96469200Y-118780216D01*
X96594608Y-118780326D01*
X96863084Y-118669394D01*
X97068672Y-118464165D01*
X97180073Y-118195883D01*
X97180326Y-117905392D01*
X97069394Y-117636916D01*
X96864165Y-117431328D01*
X96595883Y-117319927D01*
X96305392Y-117319674D01*
X96036916Y-117430606D01*
X95831328Y-117635835D01*
X95719927Y-117904117D01*
X95719727Y-118133694D01*
X95688711Y-118164711D01*
X95589602Y-118313037D01*
X95554800Y-118488000D01*
X95554800Y-124798622D01*
X95345326Y-125008096D01*
X95345326Y-120378392D01*
X95234394Y-120109916D01*
X95029165Y-119904328D01*
X94760883Y-119792927D01*
X94470392Y-119792674D01*
X94201916Y-119903606D01*
X93996328Y-120108835D01*
X93884927Y-120377117D01*
X93884674Y-120667608D01*
X93995606Y-120936084D01*
X94200835Y-121141672D01*
X94469117Y-121253073D01*
X94759608Y-121253326D01*
X95028084Y-121142394D01*
X95233672Y-120937165D01*
X95345073Y-120668883D01*
X95345326Y-120378392D01*
X95345326Y-125008096D01*
X94776711Y-125576711D01*
X94677602Y-125725037D01*
X94642800Y-125900000D01*
X94642800Y-127993000D01*
X94677602Y-128167963D01*
X94776711Y-128316289D01*
X95789872Y-129329450D01*
X95789674Y-129557608D01*
X95900606Y-129826084D01*
X96105835Y-130031672D01*
X96374117Y-130143073D01*
X96664608Y-130143326D01*
X96933084Y-130032394D01*
X97138672Y-129827165D01*
X97250073Y-129558883D01*
X97250326Y-129268392D01*
X97250326Y-132651669D01*
X97173883Y-132619927D01*
X96883392Y-132619674D01*
X96614916Y-132730606D01*
X96409328Y-132935835D01*
X96297927Y-133204117D01*
X96297674Y-133494608D01*
X96408606Y-133763084D01*
X96613835Y-133968672D01*
X96882117Y-134080073D01*
X97172608Y-134080326D01*
X97441084Y-133969394D01*
X97646672Y-133764165D01*
X97758073Y-133495883D01*
X97758326Y-133205392D01*
X97758326Y-135279091D01*
X96493862Y-134014627D01*
X96180729Y-133805397D01*
X95811363Y-133731926D01*
X94589724Y-133731926D01*
X94589724Y-129224925D01*
X94478792Y-128956449D01*
X94273563Y-128750861D01*
X94005281Y-128639460D01*
X93714790Y-128639207D01*
X93446314Y-128750139D01*
X93240726Y-128955368D01*
X93234978Y-128969208D01*
X92995883Y-128869927D01*
X92705392Y-128869674D01*
X92436916Y-128980606D01*
X92231328Y-129185835D01*
X92170326Y-129332743D01*
X92170326Y-124442392D01*
X92059394Y-124173916D01*
X91854165Y-123968328D01*
X91840125Y-123962498D01*
X91930073Y-123745883D01*
X91930326Y-123455392D01*
X91819394Y-123186916D01*
X91614165Y-122981328D01*
X91345883Y-122869927D01*
X91055392Y-122869674D01*
X90786916Y-122980606D01*
X90581328Y-123185835D01*
X90469927Y-123454117D01*
X90469674Y-123744608D01*
X90580606Y-124013084D01*
X90785835Y-124218672D01*
X90799874Y-124224501D01*
X90709927Y-124441117D01*
X90709674Y-124731608D01*
X90820606Y-125000084D01*
X91025835Y-125205672D01*
X91294117Y-125317073D01*
X91584608Y-125317326D01*
X91853084Y-125206394D01*
X92058672Y-125001165D01*
X92170073Y-124732883D01*
X92170326Y-124442392D01*
X92170326Y-129332743D01*
X92119927Y-129454117D01*
X92119674Y-129744608D01*
X92230606Y-130013084D01*
X92435835Y-130218672D01*
X92704117Y-130330073D01*
X92994608Y-130330326D01*
X93263084Y-130219394D01*
X93468672Y-130014165D01*
X93474419Y-130000324D01*
X93713515Y-130099606D01*
X94004006Y-130099859D01*
X94272482Y-129988927D01*
X94478070Y-129783698D01*
X94589471Y-129515416D01*
X94589724Y-129224925D01*
X94589724Y-133731926D01*
X94335638Y-133731926D01*
X94335638Y-132555392D01*
X94224706Y-132286916D01*
X94019477Y-132081328D01*
X93751195Y-131969927D01*
X93460704Y-131969674D01*
X93192228Y-132080606D01*
X92986640Y-132285835D01*
X92875239Y-132554117D01*
X92874986Y-132844608D01*
X92985918Y-133113084D01*
X93191147Y-133318672D01*
X93459429Y-133430073D01*
X93749920Y-133430326D01*
X94018396Y-133319394D01*
X94223984Y-133114165D01*
X94335385Y-132845883D01*
X94335638Y-132555392D01*
X94335638Y-133731926D01*
X92030326Y-133731926D01*
X92030326Y-128105392D01*
X91919394Y-127836916D01*
X91714165Y-127631328D01*
X91445883Y-127519927D01*
X91155392Y-127519674D01*
X90886916Y-127630606D01*
X90829618Y-127687803D01*
X90930073Y-127445883D01*
X90930267Y-127222198D01*
X91076608Y-127222326D01*
X91345084Y-127111394D01*
X91550672Y-126906165D01*
X91662073Y-126637883D01*
X91662326Y-126347392D01*
X91551394Y-126078916D01*
X91346165Y-125873328D01*
X91077883Y-125761927D01*
X90787392Y-125761674D01*
X90518916Y-125872606D01*
X90313328Y-126077835D01*
X90201927Y-126346117D01*
X90201732Y-126569801D01*
X90055392Y-126569674D01*
X89786916Y-126680606D01*
X89581328Y-126885835D01*
X89469927Y-127154117D01*
X89469674Y-127444608D01*
X89580606Y-127713084D01*
X89785835Y-127918672D01*
X90054117Y-128030073D01*
X90344608Y-128030326D01*
X90613084Y-127919394D01*
X90670381Y-127862196D01*
X90569927Y-128104117D01*
X90569674Y-128394608D01*
X90680606Y-128663084D01*
X90885835Y-128868672D01*
X91154117Y-128980073D01*
X91444608Y-128980326D01*
X91713084Y-128869394D01*
X91918672Y-128664165D01*
X92030073Y-128395883D01*
X92030326Y-128105392D01*
X92030326Y-133731926D01*
X90183772Y-133731926D01*
X90183772Y-132532818D01*
X90072840Y-132264342D01*
X89867611Y-132058754D01*
X89599329Y-131947353D01*
X89308838Y-131947100D01*
X89040362Y-132058032D01*
X89022852Y-132075511D01*
X89022852Y-129507682D01*
X88911920Y-129239206D01*
X88706691Y-129033618D01*
X88438409Y-128922217D01*
X88147918Y-128921964D01*
X87879442Y-129032896D01*
X87673854Y-129238125D01*
X87562453Y-129506407D01*
X87562200Y-129796898D01*
X87673132Y-130065374D01*
X87878361Y-130270962D01*
X88146643Y-130382363D01*
X88437134Y-130382616D01*
X88705610Y-130271684D01*
X88911198Y-130066455D01*
X89022599Y-129798173D01*
X89022852Y-129507682D01*
X89022852Y-132075511D01*
X88834774Y-132263261D01*
X88723373Y-132531543D01*
X88723120Y-132822034D01*
X88834052Y-133090510D01*
X89039281Y-133296098D01*
X89307563Y-133407499D01*
X89598054Y-133407752D01*
X89866530Y-133296820D01*
X90072118Y-133091591D01*
X90183519Y-132823309D01*
X90183772Y-132532818D01*
X90183772Y-133731926D01*
X85630326Y-133731926D01*
X85630326Y-132455392D01*
X85519394Y-132186916D01*
X85314165Y-131981328D01*
X85045883Y-131869927D01*
X84755392Y-131869674D01*
X84630326Y-131921350D01*
X84630326Y-129955392D01*
X84519394Y-129686916D01*
X84314165Y-129481328D01*
X84045883Y-129369927D01*
X83755392Y-129369674D01*
X83486916Y-129480606D01*
X83434023Y-129533406D01*
X83361807Y-129358630D01*
X83142525Y-129138964D01*
X82855872Y-129019936D01*
X82769935Y-129019860D01*
X83013084Y-128919394D01*
X83218672Y-128714165D01*
X83330073Y-128445883D01*
X83330326Y-128155392D01*
X83219394Y-127886916D01*
X83014165Y-127681328D01*
X82745883Y-127569927D01*
X82455392Y-127569674D01*
X82186916Y-127680606D01*
X81981328Y-127885835D01*
X81869927Y-128154117D01*
X81869674Y-128444608D01*
X81980606Y-128713084D01*
X82185835Y-128918672D01*
X82454117Y-129030073D01*
X82520160Y-129030130D01*
X82258630Y-129138193D01*
X82038964Y-129357475D01*
X81919936Y-129644128D01*
X81919665Y-129954511D01*
X82038193Y-130241370D01*
X82257475Y-130461036D01*
X82544128Y-130580064D01*
X82854511Y-130580335D01*
X83141370Y-130461807D01*
X83224946Y-130378376D01*
X83280606Y-130513084D01*
X83485835Y-130718672D01*
X83754117Y-130830073D01*
X84044608Y-130830326D01*
X84313084Y-130719394D01*
X84518672Y-130514165D01*
X84630073Y-130245883D01*
X84630326Y-129955392D01*
X84630326Y-131921350D01*
X84486916Y-131980606D01*
X84281328Y-132185835D01*
X84169927Y-132454117D01*
X84169674Y-132744608D01*
X84280606Y-133013084D01*
X84485835Y-133218672D01*
X84754117Y-133330073D01*
X85044608Y-133330326D01*
X85313084Y-133219394D01*
X85518672Y-133014165D01*
X85630073Y-132745883D01*
X85630326Y-132455392D01*
X85630326Y-133731926D01*
X83682036Y-133731926D01*
X83312670Y-133805397D01*
X82999537Y-134014626D01*
X81652944Y-135361219D01*
X81652944Y-117726760D01*
X81652944Y-115725240D01*
X81652944Y-113726260D01*
X81582179Y-113370502D01*
X81380659Y-113068905D01*
X81079062Y-112867385D01*
X80723304Y-112796620D01*
X80176696Y-112796620D01*
X79820938Y-112867385D01*
X79519341Y-113068905D01*
X79317821Y-113370502D01*
X79247056Y-113726260D01*
X79317821Y-114082018D01*
X79519341Y-114383615D01*
X79820938Y-114585135D01*
X80176696Y-114655900D01*
X80723304Y-114655900D01*
X81079062Y-114585135D01*
X81380659Y-114383615D01*
X81582179Y-114082018D01*
X81652944Y-113726260D01*
X81652944Y-115725240D01*
X81582179Y-115369482D01*
X81380659Y-115067885D01*
X81079062Y-114866365D01*
X80723304Y-114795600D01*
X80176696Y-114795600D01*
X79820938Y-114866365D01*
X79519341Y-115067885D01*
X79317821Y-115369482D01*
X79247056Y-115725240D01*
X79317821Y-116080998D01*
X79519341Y-116382595D01*
X79820938Y-116584115D01*
X80176696Y-116654880D01*
X80723304Y-116654880D01*
X81079062Y-116584115D01*
X81380659Y-116382595D01*
X81582179Y-116080998D01*
X81652944Y-115725240D01*
X81652944Y-117726760D01*
X81582179Y-117371002D01*
X81380659Y-117069405D01*
X81079062Y-116867885D01*
X80723304Y-116797120D01*
X80176696Y-116797120D01*
X79820938Y-116867885D01*
X79519341Y-117069405D01*
X79317821Y-117371002D01*
X79247056Y-117726760D01*
X79317821Y-118082518D01*
X79519341Y-118384115D01*
X79820938Y-118585635D01*
X80176696Y-118656400D01*
X80723304Y-118656400D01*
X81079062Y-118585635D01*
X81380659Y-118384115D01*
X81582179Y-118082518D01*
X81652944Y-117726760D01*
X81652944Y-135361219D01*
X81553630Y-135460533D01*
X81553630Y-120378244D01*
X81553630Y-119823530D01*
X81553630Y-119633030D01*
X81553630Y-119078316D01*
X81514961Y-118984960D01*
X81443509Y-118913509D01*
X81350154Y-118874840D01*
X81249106Y-118874840D01*
X80545250Y-118874840D01*
X80481750Y-118938340D01*
X80481750Y-119696530D01*
X81490130Y-119696530D01*
X81553630Y-119633030D01*
X81553630Y-119823530D01*
X81490130Y-119760030D01*
X80481750Y-119760030D01*
X80481750Y-120518220D01*
X80545250Y-120581720D01*
X81249106Y-120581720D01*
X81350154Y-120581720D01*
X81443509Y-120543051D01*
X81514961Y-120471600D01*
X81553630Y-120378244D01*
X81553630Y-135460533D01*
X81416241Y-135597923D01*
X81207011Y-135911056D01*
X81133540Y-136280422D01*
X81133540Y-136967832D01*
X81118471Y-137004123D01*
X81118130Y-137394166D01*
X81267079Y-137754649D01*
X81542640Y-138030692D01*
X81902863Y-138180269D01*
X82292906Y-138180610D01*
X82653389Y-138031661D01*
X82929432Y-137756100D01*
X83079009Y-137395877D01*
X83079350Y-137005834D01*
X83063940Y-136968539D01*
X83063940Y-136680220D01*
X84081834Y-135662326D01*
X95411564Y-135662326D01*
X97231057Y-137481819D01*
X97231058Y-137481819D01*
X97544190Y-137691049D01*
X97544191Y-137691049D01*
X97605471Y-137703238D01*
X97913557Y-137764520D01*
X99199231Y-137764520D01*
X99151867Y-137878585D01*
X99151614Y-138169076D01*
X99262546Y-138437552D01*
X99419519Y-138594800D01*
X96361326Y-138594800D01*
X96361326Y-137015392D01*
X96250394Y-136746916D01*
X96045165Y-136541328D01*
X95776883Y-136429927D01*
X95486392Y-136429674D01*
X95217916Y-136540606D01*
X95012328Y-136745835D01*
X94900927Y-137014117D01*
X94900674Y-137304608D01*
X95011606Y-137573084D01*
X95216835Y-137778672D01*
X95485117Y-137890073D01*
X95775608Y-137890326D01*
X96044084Y-137779394D01*
X96249672Y-137574165D01*
X96361073Y-137305883D01*
X96361326Y-137015392D01*
X96361326Y-138594800D01*
X93006357Y-138594800D01*
X93006357Y-137024500D01*
X92870299Y-136691494D01*
X92865357Y-136684096D01*
X92730315Y-136615846D01*
X92685414Y-136660747D01*
X92685414Y-136570945D01*
X92617164Y-136435903D01*
X92285485Y-136296639D01*
X91925760Y-136294903D01*
X91592754Y-136430961D01*
X91585356Y-136435903D01*
X91517106Y-136570945D01*
X92101260Y-137155099D01*
X92685414Y-136570945D01*
X92685414Y-136660747D01*
X92146161Y-137200000D01*
X92730315Y-137784154D01*
X92865357Y-137715904D01*
X93004621Y-137384225D01*
X93006357Y-137024500D01*
X93006357Y-138594800D01*
X92685414Y-138594800D01*
X92685414Y-137829055D01*
X92101260Y-137244901D01*
X92056359Y-137289802D01*
X92056359Y-137200000D01*
X91472205Y-136615846D01*
X91337163Y-136684096D01*
X91197899Y-137015775D01*
X91196163Y-137375500D01*
X91332221Y-137708506D01*
X91337163Y-137715904D01*
X91472205Y-137784154D01*
X92056359Y-137200000D01*
X92056359Y-137289802D01*
X91517106Y-137829055D01*
X91585356Y-137964097D01*
X91917035Y-138103361D01*
X92276760Y-138105097D01*
X92609766Y-137969039D01*
X92617164Y-137964097D01*
X92685414Y-137829055D01*
X92685414Y-138594800D01*
X91080350Y-138594800D01*
X91080350Y-137005834D01*
X90931401Y-136645351D01*
X90655840Y-136369308D01*
X90295617Y-136219731D01*
X89905574Y-136219390D01*
X89545091Y-136368339D01*
X89269048Y-136643900D01*
X89119471Y-137004123D01*
X89119130Y-137394166D01*
X89268079Y-137754649D01*
X89543640Y-138030692D01*
X89903863Y-138180269D01*
X90293906Y-138180610D01*
X90654389Y-138031661D01*
X90930432Y-137756100D01*
X91080009Y-137395877D01*
X91080350Y-137005834D01*
X91080350Y-138594800D01*
X89081370Y-138594800D01*
X89081370Y-137005834D01*
X88932421Y-136645351D01*
X88656860Y-136369308D01*
X88296637Y-136219731D01*
X87906594Y-136219390D01*
X87546111Y-136368339D01*
X87270068Y-136643900D01*
X87120491Y-137004123D01*
X87120150Y-137394166D01*
X87269099Y-137754649D01*
X87544660Y-138030692D01*
X87904883Y-138180269D01*
X88294926Y-138180610D01*
X88655409Y-138031661D01*
X88931452Y-137756100D01*
X89081029Y-137395877D01*
X89081370Y-137005834D01*
X89081370Y-138594800D01*
X87079850Y-138594800D01*
X87079850Y-137005834D01*
X86930901Y-136645351D01*
X86655340Y-136369308D01*
X86295117Y-136219731D01*
X85905074Y-136219390D01*
X85544591Y-136368339D01*
X85268548Y-136643900D01*
X85118971Y-137004123D01*
X85118630Y-137394166D01*
X85267579Y-137754649D01*
X85543140Y-138030692D01*
X85903363Y-138180269D01*
X86293406Y-138180610D01*
X86653889Y-138031661D01*
X86929932Y-137756100D01*
X87079509Y-137395877D01*
X87079850Y-137005834D01*
X87079850Y-138594800D01*
X85080870Y-138594800D01*
X85080870Y-137005834D01*
X84931921Y-136645351D01*
X84656360Y-136369308D01*
X84296137Y-136219731D01*
X83906094Y-136219390D01*
X83545611Y-136368339D01*
X83269568Y-136643900D01*
X83119991Y-137004123D01*
X83119650Y-137394166D01*
X83268599Y-137754649D01*
X83544160Y-138030692D01*
X83904383Y-138180269D01*
X84294426Y-138180610D01*
X84654909Y-138031661D01*
X84930952Y-137756100D01*
X85080529Y-137395877D01*
X85080870Y-137005834D01*
X85080870Y-138594800D01*
X80418250Y-138594800D01*
X80418250Y-120518220D01*
X80418250Y-119760030D01*
X80418250Y-119696530D01*
X80418250Y-118938340D01*
X80354750Y-118874840D01*
X79650894Y-118874840D01*
X79549846Y-118874840D01*
X79456491Y-118913509D01*
X79385039Y-118984960D01*
X79346370Y-119078316D01*
X79346370Y-119633030D01*
X79409870Y-119696530D01*
X80418250Y-119696530D01*
X80418250Y-119760030D01*
X79409870Y-119760030D01*
X79346370Y-119823530D01*
X79346370Y-120378244D01*
X79385039Y-120471600D01*
X79456491Y-120543051D01*
X79549846Y-120581720D01*
X79650894Y-120581720D01*
X80354750Y-120581720D01*
X80418250Y-120518220D01*
X80418250Y-138594800D01*
X78905200Y-138594800D01*
X78905200Y-128337895D01*
X78985835Y-128418672D01*
X79254117Y-128530073D01*
X79544608Y-128530326D01*
X79813084Y-128419394D01*
X80018672Y-128214165D01*
X80130073Y-127945883D01*
X80130326Y-127655392D01*
X80019394Y-127386916D01*
X79814165Y-127181328D01*
X79805082Y-127177556D01*
X79918672Y-127064165D01*
X80030073Y-126795883D01*
X80030326Y-126505392D01*
X79919394Y-126236916D01*
X79714165Y-126031328D01*
X79445883Y-125919927D01*
X79155392Y-125919674D01*
X78905200Y-126023051D01*
X78905200Y-110127000D01*
X79083584Y-110127000D01*
X78917990Y-110525795D01*
X78917611Y-110960299D01*
X79083538Y-111361873D01*
X79390511Y-111669382D01*
X79791795Y-111836010D01*
X80226299Y-111836389D01*
X80627873Y-111670462D01*
X80899203Y-111399604D01*
X81168511Y-111669382D01*
X81569795Y-111836010D01*
X82004299Y-111836389D01*
X82405873Y-111670462D01*
X82677203Y-111399604D01*
X82946511Y-111669382D01*
X83347795Y-111836010D01*
X83782299Y-111836389D01*
X84183873Y-111670462D01*
X84491382Y-111363489D01*
X84658010Y-110962205D01*
X84658389Y-110527701D01*
X84492822Y-110127000D01*
X88012324Y-110127000D01*
X88104835Y-110219672D01*
X88373117Y-110331073D01*
X88566741Y-110331241D01*
X88914350Y-110678850D01*
X89070917Y-110783464D01*
X89255600Y-110820201D01*
X89255600Y-110820200D01*
X89255605Y-110820200D01*
X91147900Y-110820200D01*
X91332583Y-110783464D01*
X91489150Y-110678850D01*
X91581333Y-110540886D01*
X91995220Y-110127000D01*
X94678499Y-110127000D01*
X94678499Y-113189364D01*
X94599394Y-112997916D01*
X94394165Y-112792328D01*
X94125883Y-112680927D01*
X93835392Y-112680674D01*
X93566916Y-112791606D01*
X93361328Y-112996835D01*
X93249927Y-113265117D01*
X93249674Y-113555608D01*
X93360606Y-113824084D01*
X93522800Y-113986561D01*
X93522800Y-117464126D01*
X92678326Y-118308599D01*
X92678326Y-114790392D01*
X92567394Y-114521916D01*
X92362165Y-114316328D01*
X92093883Y-114204927D01*
X91803392Y-114204674D01*
X91534916Y-114315606D01*
X91376403Y-114473841D01*
X91219165Y-114316328D01*
X90950883Y-114204927D01*
X90660392Y-114204674D01*
X90391916Y-114315606D01*
X90186328Y-114520835D01*
X90074927Y-114789117D01*
X90074674Y-115079608D01*
X90185606Y-115348084D01*
X90390835Y-115553672D01*
X90659117Y-115665073D01*
X90949608Y-115665326D01*
X91218084Y-115554394D01*
X91376596Y-115396158D01*
X91533835Y-115553672D01*
X91802117Y-115665073D01*
X92092608Y-115665326D01*
X92361084Y-115554394D01*
X92566672Y-115349165D01*
X92678073Y-115080883D01*
X92678326Y-114790392D01*
X92678326Y-118308599D01*
X91872202Y-119114723D01*
X91819394Y-118986916D01*
X91614165Y-118781328D01*
X91345883Y-118669927D01*
X91055392Y-118669674D01*
X90786916Y-118780606D01*
X90581328Y-118985835D01*
X90469927Y-119254117D01*
X90469674Y-119544608D01*
X90580606Y-119813084D01*
X90785835Y-120018672D01*
X90914731Y-120072194D01*
X89630326Y-121356599D01*
X89630326Y-118655392D01*
X89519394Y-118386916D01*
X89397158Y-118264466D01*
X89518672Y-118143165D01*
X89630073Y-117874883D01*
X89630326Y-117584392D01*
X89519394Y-117315916D01*
X89314165Y-117110328D01*
X89045883Y-116998927D01*
X88755392Y-116998674D01*
X88486916Y-117109606D01*
X88281328Y-117314835D01*
X88169927Y-117583117D01*
X88169674Y-117873608D01*
X88280606Y-118142084D01*
X88402841Y-118264533D01*
X88281328Y-118385835D01*
X88169927Y-118654117D01*
X88169674Y-118944608D01*
X88280606Y-119213084D01*
X88485835Y-119418672D01*
X88754117Y-119530073D01*
X89044608Y-119530326D01*
X89313084Y-119419394D01*
X89518672Y-119214165D01*
X89630073Y-118945883D01*
X89630326Y-118655392D01*
X89630326Y-121356599D01*
X88922283Y-122064642D01*
X88930073Y-122045883D01*
X88930326Y-121755392D01*
X88819394Y-121486916D01*
X88614165Y-121281328D01*
X88345883Y-121169927D01*
X88055392Y-121169674D01*
X87786916Y-121280606D01*
X87581328Y-121485835D01*
X87469927Y-121754117D01*
X87469674Y-122044608D01*
X87580606Y-122313084D01*
X87785835Y-122518672D01*
X88054117Y-122630073D01*
X88344608Y-122630326D01*
X88365043Y-122621882D01*
X88248927Y-122737999D01*
X86709326Y-122737999D01*
X86709326Y-114790392D01*
X86598394Y-114521916D01*
X86393165Y-114316328D01*
X86124883Y-114204927D01*
X85834392Y-114204674D01*
X85565916Y-114315606D01*
X85360328Y-114520835D01*
X85248927Y-114789117D01*
X85248674Y-115079608D01*
X85359606Y-115348084D01*
X85564835Y-115553672D01*
X85833117Y-115665073D01*
X86123608Y-115665326D01*
X86392084Y-115554394D01*
X86597672Y-115349165D01*
X86709073Y-115080883D01*
X86709326Y-114790392D01*
X86709326Y-122737999D01*
X86004801Y-122737999D01*
X85829838Y-122772801D01*
X85681512Y-122871910D01*
X83983549Y-124569872D01*
X83755392Y-124569674D01*
X83486916Y-124680606D01*
X83281328Y-124885835D01*
X83169927Y-125154117D01*
X83169916Y-125166403D01*
X83142525Y-125138964D01*
X82855872Y-125019936D01*
X82545489Y-125019665D01*
X82258630Y-125138193D01*
X82038964Y-125357475D01*
X81919936Y-125644128D01*
X81919665Y-125954511D01*
X82038193Y-126241370D01*
X82257475Y-126461036D01*
X82544128Y-126580064D01*
X82854511Y-126580335D01*
X83141370Y-126461807D01*
X83361036Y-126242525D01*
X83480064Y-125955872D01*
X83480101Y-125912928D01*
X83485835Y-125918672D01*
X83754117Y-126030073D01*
X84044608Y-126030326D01*
X84313084Y-125919394D01*
X84518672Y-125714165D01*
X84630073Y-125445883D01*
X84630272Y-125216305D01*
X86194179Y-123652399D01*
X87412164Y-123652399D01*
X87369927Y-123754117D01*
X87369674Y-124044608D01*
X87480606Y-124313084D01*
X87685835Y-124518672D01*
X87954117Y-124630073D01*
X88233775Y-124630316D01*
X87363041Y-125501051D01*
X87471073Y-125240883D01*
X87471326Y-124950392D01*
X87360394Y-124681916D01*
X87155165Y-124476328D01*
X86886883Y-124364927D01*
X86596392Y-124364674D01*
X86327916Y-124475606D01*
X86122328Y-124680835D01*
X86010927Y-124949117D01*
X86010674Y-125239608D01*
X86121606Y-125508084D01*
X86326835Y-125713672D01*
X86595117Y-125825073D01*
X86885608Y-125825326D01*
X87146610Y-125717481D01*
X86176711Y-126687382D01*
X86077602Y-126835708D01*
X86042800Y-127010671D01*
X86042800Y-127692122D01*
X85881328Y-127853313D01*
X85769927Y-128121595D01*
X85769674Y-128412086D01*
X85880606Y-128680562D01*
X86085835Y-128886150D01*
X86354117Y-128997551D01*
X86644608Y-128997804D01*
X86913084Y-128886872D01*
X87118672Y-128681643D01*
X87230073Y-128413361D01*
X87230326Y-128122870D01*
X87119394Y-127854394D01*
X86957200Y-127691916D01*
X86957200Y-127200049D01*
X89266455Y-124890795D01*
X89266455Y-124890794D01*
X89365564Y-124742468D01*
X89400365Y-124567505D01*
X89400366Y-124567505D01*
X89400366Y-123796212D01*
X95458988Y-117737590D01*
X95558097Y-117589264D01*
X95592899Y-117414301D01*
X95592899Y-110127000D01*
X99919421Y-110127000D01*
X97593711Y-112452711D01*
X97494602Y-112601037D01*
X97459800Y-112776000D01*
X97459800Y-114300000D01*
X97494602Y-114474963D01*
X97593711Y-114623289D01*
X100604239Y-117633817D01*
X100439392Y-117633674D01*
X100170916Y-117744606D01*
X99965328Y-117949835D01*
X99853927Y-118218117D01*
X99853674Y-118508608D01*
X99964606Y-118777084D01*
X100169835Y-118982672D01*
X100438117Y-119094073D01*
X100728608Y-119094326D01*
X100997084Y-118983394D01*
X101202672Y-118778165D01*
X101314073Y-118509883D01*
X101314326Y-118219392D01*
X101203394Y-117950916D01*
X101184710Y-117932200D01*
X101729815Y-117932200D01*
X101610789Y-118051019D01*
X101499388Y-118319301D01*
X101499135Y-118609792D01*
X101610067Y-118878268D01*
X101815296Y-119083856D01*
X102083578Y-119195257D01*
X102374069Y-119195510D01*
X102642545Y-119084578D01*
X102848133Y-118879349D01*
X102959534Y-118611067D01*
X102959787Y-118320576D01*
X102848855Y-118052100D01*
X102729164Y-117932200D01*
X103260411Y-117932200D01*
X103140328Y-118052074D01*
X103028927Y-118320356D01*
X103028674Y-118610847D01*
X103139606Y-118879323D01*
X103344835Y-119084911D01*
X103613117Y-119196312D01*
X103903608Y-119196565D01*
X104172084Y-119085633D01*
X104358766Y-118899276D01*
X104515766Y-119056550D01*
X104784048Y-119167951D01*
X105074539Y-119168204D01*
X105343015Y-119057272D01*
X105548603Y-118852043D01*
X105660004Y-118583761D01*
X105660257Y-118293270D01*
X105549325Y-118024794D01*
X105456892Y-117932200D01*
X106269915Y-117932200D01*
X106203927Y-118091117D01*
X106203674Y-118381608D01*
X106314606Y-118650084D01*
X106519835Y-118855672D01*
X106788117Y-118967073D01*
X107078608Y-118967326D01*
X107347084Y-118856394D01*
X107552672Y-118651165D01*
X107664073Y-118382883D01*
X107664326Y-118092392D01*
X107598136Y-117932200D01*
X107696000Y-117932200D01*
X107870963Y-117897398D01*
X108019289Y-117798289D01*
X110559289Y-115258290D01*
X110559289Y-115258289D01*
X110658398Y-115109963D01*
X110693199Y-114935000D01*
X110693200Y-114935000D01*
X110693200Y-114012006D01*
X110710835Y-114029672D01*
X110979117Y-114141073D01*
X111269608Y-114141326D01*
X111538084Y-114030394D01*
X111743672Y-113825165D01*
X111855073Y-113556883D01*
X111855326Y-113266392D01*
X111744394Y-112997916D01*
X111539165Y-112792328D01*
X111270883Y-112680927D01*
X110980392Y-112680674D01*
X110711916Y-112791606D01*
X110693200Y-112810289D01*
X110693200Y-112330378D01*
X112311450Y-110712127D01*
X112539608Y-110712326D01*
X112808084Y-110601394D01*
X113013672Y-110396165D01*
X113125073Y-110127883D01*
X113125073Y-110127000D01*
X113319475Y-110127000D01*
X113319390Y-110224426D01*
X113468339Y-110584909D01*
X113743900Y-110860952D01*
X114104123Y-111010529D01*
X114494166Y-111010870D01*
X114854649Y-110861921D01*
X115130692Y-110586360D01*
X115280269Y-110226137D01*
X115280355Y-110127000D01*
X116594800Y-110127000D01*
X116594800Y-110273286D01*
X116345883Y-110169927D01*
X116055392Y-110169674D01*
X115786916Y-110280606D01*
X115581328Y-110485835D01*
X115469927Y-110754117D01*
X115469674Y-111044608D01*
X115580606Y-111313084D01*
X115742800Y-111475561D01*
X115742800Y-113940362D01*
X115280610Y-114402551D01*
X115280610Y-111835074D01*
X115131661Y-111474591D01*
X114856100Y-111198548D01*
X114495877Y-111048971D01*
X114105834Y-111048630D01*
X113745351Y-111197579D01*
X113469308Y-111473140D01*
X113319731Y-111833363D01*
X113319390Y-112223406D01*
X113468339Y-112583889D01*
X113743900Y-112859932D01*
X114104123Y-113009509D01*
X114494166Y-113009850D01*
X114854649Y-112860901D01*
X115130692Y-112585340D01*
X115280269Y-112225117D01*
X115280610Y-111835074D01*
X115280610Y-114402551D01*
X115205097Y-114478064D01*
X115205097Y-113855260D01*
X115069039Y-113522254D01*
X115064097Y-113514856D01*
X114929055Y-113446606D01*
X114884154Y-113491507D01*
X114884154Y-113401705D01*
X114815904Y-113266663D01*
X114484225Y-113127399D01*
X114124500Y-113125663D01*
X113791494Y-113261721D01*
X113784096Y-113266663D01*
X113715846Y-113401705D01*
X114300000Y-113985859D01*
X114884154Y-113401705D01*
X114884154Y-113491507D01*
X114344901Y-114030760D01*
X114929055Y-114614914D01*
X115064097Y-114546664D01*
X115203361Y-114214985D01*
X115205097Y-113855260D01*
X115205097Y-114478064D01*
X114884154Y-114799007D01*
X114884154Y-114659815D01*
X114300000Y-114075661D01*
X114255099Y-114120562D01*
X114255099Y-114030760D01*
X113670945Y-113446606D01*
X113535903Y-113514856D01*
X113396639Y-113846535D01*
X113394903Y-114206260D01*
X113530961Y-114539266D01*
X113535903Y-114546664D01*
X113670945Y-114614914D01*
X114255099Y-114030760D01*
X114255099Y-114120562D01*
X113715846Y-114659815D01*
X113784096Y-114794857D01*
X114115775Y-114934121D01*
X114475500Y-114935857D01*
X114808506Y-114799799D01*
X114815904Y-114794857D01*
X114884154Y-114659815D01*
X114884154Y-114799007D01*
X114593255Y-115089906D01*
X114495877Y-115049471D01*
X114105834Y-115049130D01*
X113745351Y-115198079D01*
X113469308Y-115473640D01*
X113319731Y-115833863D01*
X113319390Y-116223906D01*
X113468339Y-116584389D01*
X113743900Y-116860432D01*
X114104123Y-117010009D01*
X114494166Y-117010350D01*
X114854649Y-116861401D01*
X115130692Y-116585840D01*
X115280269Y-116225617D01*
X115280610Y-115835574D01*
X115239715Y-115736602D01*
X116523289Y-114453029D01*
X116594800Y-114346006D01*
X116594800Y-138594800D01*
X116594800Y-138594800D01*
G37*
X116594800Y-138594800D02*
X115280610Y-138594800D01*
X115280610Y-132061094D01*
X115131661Y-131700611D01*
X114856100Y-131424568D01*
X114495877Y-131274991D01*
X114105834Y-131274650D01*
X113745351Y-131423599D01*
X113469308Y-131699160D01*
X113319731Y-132059383D01*
X113319390Y-132449426D01*
X113468339Y-132809909D01*
X113743900Y-133085952D01*
X114104123Y-133235529D01*
X114494166Y-133235870D01*
X114854649Y-133086921D01*
X115130692Y-132811360D01*
X115280269Y-132451137D01*
X115280610Y-132061094D01*
X115280610Y-138594800D01*
X114808000Y-138594800D01*
X114808000Y-137191750D01*
X114808000Y-136429750D01*
X114808000Y-136366250D01*
X114808000Y-135604250D01*
X114718511Y-135217860D01*
X114487969Y-134895129D01*
X114151472Y-134685189D01*
X113982219Y-134637965D01*
X113823750Y-134684029D01*
X113823750Y-136366250D01*
X114808000Y-136366250D01*
X114808000Y-136429750D01*
X113823750Y-136429750D01*
X113823750Y-138111971D01*
X113982219Y-138158035D01*
X114151472Y-138110811D01*
X114487969Y-137900871D01*
X114718511Y-137578140D01*
X114808000Y-137191750D01*
X114808000Y-138594800D01*
X113760250Y-138594800D01*
X113760250Y-138111971D01*
X113760250Y-136429750D01*
X113760250Y-136366250D01*
X113760250Y-134684029D01*
X113601781Y-134637965D01*
X113432528Y-134685189D01*
X113096031Y-134895129D01*
X112865489Y-135217860D01*
X112776000Y-135604250D01*
X112776000Y-136366250D01*
X113760250Y-136366250D01*
X113760250Y-136429750D01*
X112776000Y-136429750D01*
X112776000Y-137191750D01*
X112865489Y-137578140D01*
X113096031Y-137900871D01*
X113432528Y-138110811D01*
X113601781Y-138158035D01*
X113760250Y-138111971D01*
X113760250Y-138594800D01*
X109804200Y-138594800D01*
X109804200Y-137196326D01*
X109804200Y-135599674D01*
X109721061Y-135181707D01*
X109484302Y-134827372D01*
X109129967Y-134590613D01*
X108712000Y-134507474D01*
X108294033Y-134590613D01*
X107939698Y-134827372D01*
X107702939Y-135181707D01*
X107694596Y-135223647D01*
X107614666Y-135143577D01*
X107346384Y-135032176D01*
X107055893Y-135031923D01*
X106787417Y-135142855D01*
X106581829Y-135348084D01*
X106470428Y-135616366D01*
X106470205Y-135871737D01*
X106411544Y-135729766D01*
X106206315Y-135524178D01*
X105938033Y-135412777D01*
X105647542Y-135412524D01*
X105379066Y-135523456D01*
X105173478Y-135728685D01*
X105062077Y-135996967D01*
X105061824Y-136287458D01*
X105172756Y-136555934D01*
X105377985Y-136761522D01*
X105646267Y-136872923D01*
X105936758Y-136873176D01*
X106205234Y-136762244D01*
X106410822Y-136557015D01*
X106522223Y-136288733D01*
X106522445Y-136033361D01*
X106581107Y-136175333D01*
X106786336Y-136380921D01*
X107054618Y-136492322D01*
X107345109Y-136492575D01*
X107613585Y-136381643D01*
X107619800Y-136375438D01*
X107619800Y-136813216D01*
X107475165Y-136668328D01*
X107206883Y-136556927D01*
X106916392Y-136556674D01*
X106647916Y-136667606D01*
X106442328Y-136872835D01*
X106330927Y-137141117D01*
X106330674Y-137431608D01*
X106441606Y-137700084D01*
X106646835Y-137905672D01*
X106915117Y-138017073D01*
X107205608Y-138017326D01*
X107474084Y-137906394D01*
X107679672Y-137701165D01*
X107710836Y-137626112D01*
X107939698Y-137968628D01*
X108294033Y-138205387D01*
X108712000Y-138288526D01*
X109129967Y-138205387D01*
X109484302Y-137968628D01*
X109721061Y-137614293D01*
X109804200Y-137196326D01*
X109804200Y-138594800D01*
X104155691Y-138594800D01*
X104250672Y-138499985D01*
X104362073Y-138231703D01*
X104362326Y-137941212D01*
X104251394Y-137672736D01*
X104046165Y-137467148D01*
X103777883Y-137355747D01*
X103487392Y-137355494D01*
X103218916Y-137466426D01*
X103013328Y-137671655D01*
X102901927Y-137939937D01*
X102901674Y-138230428D01*
X103012606Y-138498904D01*
X103108334Y-138594800D01*
X102123691Y-138594800D01*
X102218672Y-138499985D01*
X102330073Y-138231703D01*
X102330326Y-137941212D01*
X102234789Y-137709996D01*
X102330046Y-137691049D01*
X102643179Y-137481819D01*
X105682798Y-134442200D01*
X109709201Y-134442200D01*
X110286800Y-135019798D01*
X110286800Y-135116064D01*
X110242939Y-135181707D01*
X110159800Y-135599674D01*
X110159800Y-137196326D01*
X110242939Y-137614293D01*
X110479698Y-137968628D01*
X110834033Y-138205387D01*
X111252000Y-138288526D01*
X111669967Y-138205387D01*
X112024302Y-137968628D01*
X112261061Y-137614293D01*
X112344200Y-137196326D01*
X112344200Y-135599674D01*
X112261061Y-135181707D01*
X112217200Y-135116064D01*
X112217200Y-134620000D01*
X112143729Y-134250634D01*
X111934499Y-133937501D01*
X111934499Y-133937500D01*
X111103139Y-133106141D01*
X111313084Y-133019394D01*
X111518672Y-132814165D01*
X111630073Y-132545883D01*
X111630326Y-132255392D01*
X111519394Y-131986916D01*
X111314165Y-131781328D01*
X111045883Y-131669927D01*
X110755392Y-131669674D01*
X110486916Y-131780606D01*
X110281328Y-131985835D01*
X110169927Y-132254117D01*
X110169692Y-132523872D01*
X110109000Y-132511800D01*
X105283000Y-132511800D01*
X105080241Y-132552130D01*
X105080326Y-132455392D01*
X105017024Y-132302189D01*
X105173608Y-132302326D01*
X105442084Y-132191394D01*
X105647672Y-131986165D01*
X105759073Y-131717883D01*
X105759326Y-131427392D01*
X105648394Y-131158916D01*
X105584209Y-131094619D01*
X105696084Y-131048394D01*
X105901672Y-130843165D01*
X106013073Y-130574883D01*
X106013326Y-130284392D01*
X105902394Y-130015916D01*
X105756932Y-129870200D01*
X106363621Y-129870200D01*
X106737710Y-130244289D01*
X106737711Y-130244289D01*
X106886037Y-130343398D01*
X107061000Y-130378200D01*
X107348993Y-130378200D01*
X107331328Y-130395835D01*
X107219927Y-130664117D01*
X107219674Y-130954608D01*
X107330606Y-131223084D01*
X107535835Y-131428672D01*
X107804117Y-131540073D01*
X108094608Y-131540326D01*
X108363084Y-131429394D01*
X108568672Y-131224165D01*
X108680073Y-130955883D01*
X108680326Y-130665392D01*
X108569394Y-130396916D01*
X108550710Y-130378200D01*
X112858303Y-130378200D01*
X113057132Y-130577029D01*
X113057133Y-130577029D01*
X113205459Y-130676138D01*
X113380422Y-130710940D01*
X113428073Y-130710940D01*
X113468339Y-130808389D01*
X113743900Y-131084432D01*
X114104123Y-131234009D01*
X114494166Y-131234350D01*
X114854649Y-131085401D01*
X115130692Y-130809840D01*
X115280269Y-130449617D01*
X115280610Y-130059574D01*
X115131661Y-129699091D01*
X114856100Y-129423048D01*
X114495877Y-129273471D01*
X114105834Y-129273130D01*
X113745351Y-129422079D01*
X113470104Y-129696844D01*
X113370971Y-129597711D01*
X113222645Y-129498602D01*
X113047682Y-129463800D01*
X109561778Y-129463800D01*
X110313618Y-128711960D01*
X113428073Y-128711960D01*
X113468339Y-128809409D01*
X113743900Y-129085452D01*
X114104123Y-129235029D01*
X114494166Y-129235370D01*
X114854649Y-129086421D01*
X115130692Y-128810860D01*
X115280269Y-128450637D01*
X115280610Y-128060594D01*
X115205097Y-127877839D01*
X115205097Y-126077740D01*
X115069039Y-125744734D01*
X115064097Y-125737336D01*
X114929055Y-125669086D01*
X114884154Y-125713987D01*
X114884154Y-125624185D01*
X114815904Y-125489143D01*
X114484225Y-125349879D01*
X114124500Y-125348143D01*
X113791494Y-125484201D01*
X113784096Y-125489143D01*
X113715846Y-125624185D01*
X114300000Y-126208339D01*
X114884154Y-125624185D01*
X114884154Y-125713987D01*
X114344901Y-126253240D01*
X114929055Y-126837394D01*
X115064097Y-126769144D01*
X115203361Y-126437465D01*
X115205097Y-126077740D01*
X115205097Y-127877839D01*
X115131661Y-127700111D01*
X114884154Y-127452171D01*
X114884154Y-126882295D01*
X114300000Y-126298141D01*
X114255099Y-126343042D01*
X114255099Y-126253240D01*
X113670945Y-125669086D01*
X113535903Y-125737336D01*
X113396639Y-126069015D01*
X113394903Y-126428740D01*
X113530961Y-126761746D01*
X113535903Y-126769144D01*
X113670945Y-126837394D01*
X114255099Y-126253240D01*
X114255099Y-126343042D01*
X113715846Y-126882295D01*
X113784096Y-127017337D01*
X114115775Y-127156601D01*
X114475500Y-127158337D01*
X114808506Y-127022279D01*
X114815904Y-127017337D01*
X114884154Y-126882295D01*
X114884154Y-127452171D01*
X114856100Y-127424068D01*
X114495877Y-127274491D01*
X114105834Y-127274150D01*
X113745351Y-127423099D01*
X113469308Y-127698660D01*
X113428241Y-127797560D01*
X110466018Y-127797560D01*
X113464342Y-124799236D01*
X113468339Y-124808909D01*
X113743900Y-125084952D01*
X114104123Y-125234529D01*
X114494166Y-125234870D01*
X114854649Y-125085921D01*
X115130692Y-124810360D01*
X115280269Y-124450137D01*
X115280610Y-124060094D01*
X115280610Y-122058574D01*
X115280610Y-117837094D01*
X115131661Y-117476611D01*
X114856100Y-117200568D01*
X114495877Y-117050991D01*
X114105834Y-117050650D01*
X113745351Y-117199599D01*
X113469308Y-117475160D01*
X113319731Y-117835383D01*
X113319390Y-118225426D01*
X113468339Y-118585909D01*
X113743900Y-118861952D01*
X114104123Y-119011529D01*
X114494166Y-119011870D01*
X114854649Y-118862921D01*
X115130692Y-118587360D01*
X115280269Y-118227137D01*
X115280610Y-117837094D01*
X115280610Y-122058574D01*
X115131661Y-121698091D01*
X114856100Y-121422048D01*
X114495877Y-121272471D01*
X114105834Y-121272130D01*
X113745351Y-121421079D01*
X113469308Y-121696640D01*
X113319731Y-122056863D01*
X113319390Y-122446906D01*
X113468339Y-122807389D01*
X113743900Y-123083432D01*
X114104123Y-123233009D01*
X114494166Y-123233350D01*
X114854649Y-123084401D01*
X115130692Y-122808840D01*
X115280269Y-122448617D01*
X115280610Y-122058574D01*
X115280610Y-124060094D01*
X115131661Y-123699611D01*
X114856100Y-123423568D01*
X114495877Y-123273991D01*
X114105834Y-123273650D01*
X113745351Y-123422599D01*
X113469308Y-123698160D01*
X113428241Y-123797060D01*
X113362740Y-123797060D01*
X113187777Y-123831862D01*
X113039451Y-123930970D01*
X109781996Y-127188425D01*
X109719394Y-127036916D01*
X109514165Y-126831328D01*
X109245883Y-126719927D01*
X108955392Y-126719674D01*
X108686916Y-126830606D01*
X108481328Y-127035835D01*
X108369927Y-127304117D01*
X108369825Y-127421207D01*
X108349883Y-127412927D01*
X108059392Y-127412674D01*
X107790916Y-127523606D01*
X107585328Y-127728835D01*
X107473927Y-127997117D01*
X107473892Y-128036314D01*
X107384289Y-127946711D01*
X107235963Y-127847602D01*
X107061000Y-127812800D01*
X105312084Y-127812800D01*
X105378073Y-127653883D01*
X105378326Y-127363392D01*
X105372494Y-127349277D01*
X105427608Y-127349326D01*
X105696084Y-127238394D01*
X105826029Y-127108674D01*
X105935835Y-127218672D01*
X106204117Y-127330073D01*
X106494608Y-127330326D01*
X106763084Y-127219394D01*
X106968672Y-127014165D01*
X107080073Y-126745883D01*
X107080326Y-126455392D01*
X106969394Y-126186916D01*
X106764165Y-125981328D01*
X106495883Y-125869927D01*
X106267326Y-125869727D01*
X106267326Y-121394392D01*
X106156394Y-121125916D01*
X105951165Y-120920328D01*
X105682883Y-120808927D01*
X105392392Y-120808674D01*
X105123916Y-120919606D01*
X104918328Y-121124835D01*
X104806927Y-121393117D01*
X104806674Y-121683608D01*
X104917606Y-121952084D01*
X105122835Y-122157672D01*
X105391117Y-122269073D01*
X105681608Y-122269326D01*
X105950084Y-122158394D01*
X106155672Y-121953165D01*
X106267073Y-121684883D01*
X106267326Y-121394392D01*
X106267326Y-125869727D01*
X106205392Y-125869674D01*
X105936916Y-125980606D01*
X105806970Y-126110325D01*
X105697165Y-126000328D01*
X105658078Y-125984097D01*
X105696084Y-125968394D01*
X105901672Y-125763165D01*
X106013073Y-125494883D01*
X106013326Y-125204392D01*
X105902394Y-124935916D01*
X105697165Y-124730328D01*
X105428883Y-124618927D01*
X105138392Y-124618674D01*
X104869916Y-124729606D01*
X104664328Y-124934835D01*
X104552927Y-125203117D01*
X104552674Y-125493608D01*
X104663606Y-125762084D01*
X104868835Y-125967672D01*
X104907921Y-125983902D01*
X104869916Y-125999606D01*
X104664328Y-126204835D01*
X104552927Y-126473117D01*
X104552674Y-126763608D01*
X104558505Y-126777722D01*
X104503392Y-126777674D01*
X104234916Y-126888606D01*
X104108326Y-127014974D01*
X104108326Y-121267392D01*
X103997394Y-120998916D01*
X103792165Y-120793328D01*
X103523883Y-120681927D01*
X103233392Y-120681674D01*
X102964916Y-120792606D01*
X102759328Y-120997835D01*
X102647927Y-121266117D01*
X102647674Y-121556608D01*
X102758606Y-121825084D01*
X102963835Y-122030672D01*
X103232117Y-122142073D01*
X103522608Y-122142326D01*
X103791084Y-122031394D01*
X103996672Y-121826165D01*
X104108073Y-121557883D01*
X104108326Y-121267392D01*
X104108326Y-127014974D01*
X104029328Y-127093835D01*
X103969295Y-127238408D01*
X103777883Y-127158927D01*
X103487392Y-127158674D01*
X103218916Y-127269606D01*
X103060403Y-127427841D01*
X102903165Y-127270328D01*
X102634883Y-127158927D01*
X102344392Y-127158674D01*
X102075916Y-127269606D01*
X101870328Y-127474835D01*
X101758927Y-127743117D01*
X101758786Y-127904755D01*
X101695326Y-127878404D01*
X101695326Y-121394392D01*
X101584394Y-121125916D01*
X101379165Y-120920328D01*
X101110883Y-120808927D01*
X100820392Y-120808674D01*
X100551916Y-120919606D01*
X100346328Y-121124835D01*
X100234927Y-121393117D01*
X100234674Y-121683608D01*
X100295794Y-121831531D01*
X100043916Y-121935606D01*
X99838328Y-122140835D01*
X99726927Y-122409117D01*
X99726674Y-122699608D01*
X99837606Y-122968084D01*
X100042835Y-123173672D01*
X100311117Y-123285073D01*
X100601608Y-123285326D01*
X100870084Y-123174394D01*
X101075672Y-122969165D01*
X101187073Y-122700883D01*
X101187326Y-122410392D01*
X101126205Y-122262468D01*
X101378084Y-122158394D01*
X101583672Y-121953165D01*
X101695073Y-121684883D01*
X101695326Y-121394392D01*
X101695326Y-127878404D01*
X101491883Y-127793927D01*
X101430326Y-127793873D01*
X101430326Y-126455392D01*
X101319394Y-126186916D01*
X101114165Y-125981328D01*
X100845883Y-125869927D01*
X100555392Y-125869674D01*
X100286916Y-125980606D01*
X100081328Y-126185835D01*
X99969927Y-126454117D01*
X99969674Y-126744608D01*
X100080606Y-127013084D01*
X100285835Y-127218672D01*
X100554117Y-127330073D01*
X100844608Y-127330326D01*
X101113084Y-127219394D01*
X101318672Y-127014165D01*
X101430073Y-126745883D01*
X101430326Y-126455392D01*
X101430326Y-127793873D01*
X101201392Y-127793674D01*
X100932916Y-127904606D01*
X100778706Y-128058546D01*
X100695394Y-127856916D01*
X100490165Y-127651328D01*
X100221883Y-127539927D01*
X99931392Y-127539674D01*
X99662916Y-127650606D01*
X99501777Y-127811463D01*
X99482398Y-127714037D01*
X99383289Y-127565711D01*
X99138463Y-127320885D01*
X99263084Y-127269394D01*
X99468672Y-127064165D01*
X99580073Y-126795883D01*
X99580326Y-126505392D01*
X99469394Y-126236916D01*
X99282326Y-126049520D01*
X99282326Y-122156392D01*
X99171394Y-121887916D01*
X98966165Y-121682328D01*
X98697883Y-121570927D01*
X98407392Y-121570674D01*
X98138916Y-121681606D01*
X97933328Y-121886835D01*
X97821927Y-122155117D01*
X97821674Y-122445608D01*
X97932606Y-122714084D01*
X98137835Y-122919672D01*
X98406117Y-123031073D01*
X98696608Y-123031326D01*
X98965084Y-122920394D01*
X99170672Y-122715165D01*
X99282073Y-122446883D01*
X99282326Y-122156392D01*
X99282326Y-126049520D01*
X99264165Y-126031328D01*
X98995883Y-125919927D01*
X98705392Y-125919674D01*
X98436916Y-126030606D01*
X98231328Y-126235835D01*
X98119927Y-126504117D01*
X98119674Y-126794608D01*
X98120579Y-126796800D01*
X98058930Y-126796800D01*
X98080073Y-126745883D01*
X98080326Y-126455392D01*
X97969394Y-126186916D01*
X97764165Y-125981328D01*
X97495883Y-125869927D01*
X97377326Y-125869823D01*
X97377326Y-113901392D01*
X97266394Y-113632916D01*
X97061165Y-113427328D01*
X96792883Y-113315927D01*
X96502392Y-113315674D01*
X96233916Y-113426606D01*
X96028328Y-113631835D01*
X95916927Y-113900117D01*
X95916674Y-114190608D01*
X96027606Y-114459084D01*
X96232835Y-114664672D01*
X96501117Y-114776073D01*
X96791608Y-114776326D01*
X97060084Y-114665394D01*
X97265672Y-114460165D01*
X97377073Y-114191883D01*
X97377326Y-113901392D01*
X97377326Y-125869823D01*
X97205392Y-125869674D01*
X96936916Y-125980606D01*
X96731328Y-126185835D01*
X96619927Y-126454117D01*
X96619674Y-126744608D01*
X96696104Y-126929584D01*
X96487916Y-127015606D01*
X96282328Y-127220835D01*
X96170927Y-127489117D01*
X96170674Y-127779608D01*
X96281606Y-128048084D01*
X96486835Y-128253672D01*
X96755117Y-128365073D01*
X97045608Y-128365326D01*
X97314084Y-128254394D01*
X97440813Y-128127886D01*
X97440674Y-128287608D01*
X97551606Y-128556084D01*
X97713800Y-128718561D01*
X97713800Y-128778000D01*
X97748602Y-128952963D01*
X97847711Y-129101289D01*
X98990711Y-130244289D01*
X99139037Y-130343398D01*
X99314000Y-130378200D01*
X101893221Y-130378200D01*
X99997137Y-132274285D01*
X99762355Y-132274285D01*
X99601165Y-132112813D01*
X99332883Y-132001412D01*
X99042392Y-132001159D01*
X98773916Y-132112091D01*
X98568328Y-132317320D01*
X98456927Y-132585602D01*
X98456674Y-132876093D01*
X98567606Y-133144569D01*
X98772835Y-133350157D01*
X99041117Y-133461558D01*
X99229972Y-133461722D01*
X98961841Y-133572512D01*
X98756253Y-133777741D01*
X98644852Y-134046023D01*
X98644599Y-134336514D01*
X98755531Y-134604990D01*
X98960760Y-134810578D01*
X99229042Y-134921979D01*
X99519533Y-134922232D01*
X99788009Y-134811300D01*
X99993597Y-134606071D01*
X100104998Y-134337789D01*
X100105251Y-134047298D01*
X99994319Y-133778822D01*
X99789090Y-133573234D01*
X99520808Y-133461833D01*
X99331952Y-133461668D01*
X99600084Y-133350879D01*
X99762561Y-133188685D01*
X100186515Y-133188685D01*
X100361478Y-133153883D01*
X100509804Y-133054774D01*
X103186378Y-130378200D01*
X103625212Y-130378200D01*
X103574747Y-130499734D01*
X103574494Y-130790225D01*
X103685426Y-131058701D01*
X103890655Y-131264289D01*
X104158937Y-131375690D01*
X104319808Y-131375830D01*
X104298927Y-131426117D01*
X104298674Y-131716608D01*
X104361975Y-131869810D01*
X104205392Y-131869674D01*
X103936916Y-131980606D01*
X103731328Y-132185835D01*
X103619927Y-132454117D01*
X103619674Y-132744608D01*
X103730606Y-133013084D01*
X103935835Y-133218672D01*
X104105767Y-133289234D01*
X101560881Y-135834120D01*
X98313355Y-135834120D01*
X97758326Y-135279091D01*
X97758326Y-133205392D01*
X97647394Y-132936916D01*
X97442165Y-132731328D01*
X97250326Y-132651669D01*
X97250326Y-129268392D01*
X97139394Y-128999916D01*
X96934165Y-128794328D01*
X96665883Y-128682927D01*
X96436305Y-128682727D01*
X95557200Y-127803622D01*
X95557200Y-127069067D01*
X95704117Y-127130073D01*
X95994608Y-127130326D01*
X96263084Y-127019394D01*
X96468672Y-126814165D01*
X96580073Y-126545883D01*
X96580326Y-126255392D01*
X96469394Y-125986916D01*
X96264165Y-125781328D01*
X95995883Y-125669927D01*
X95976667Y-125669910D01*
X96335289Y-125311289D01*
X96434398Y-125162963D01*
X96469200Y-124988000D01*
X96469200Y-118780216D01*
X96594608Y-118780326D01*
X96863084Y-118669394D01*
X97068672Y-118464165D01*
X97180073Y-118195883D01*
X97180326Y-117905392D01*
X97069394Y-117636916D01*
X96864165Y-117431328D01*
X96595883Y-117319927D01*
X96305392Y-117319674D01*
X96036916Y-117430606D01*
X95831328Y-117635835D01*
X95719927Y-117904117D01*
X95719727Y-118133694D01*
X95688711Y-118164711D01*
X95589602Y-118313037D01*
X95554800Y-118488000D01*
X95554800Y-124798622D01*
X95345326Y-125008096D01*
X95345326Y-120378392D01*
X95234394Y-120109916D01*
X95029165Y-119904328D01*
X94760883Y-119792927D01*
X94470392Y-119792674D01*
X94201916Y-119903606D01*
X93996328Y-120108835D01*
X93884927Y-120377117D01*
X93884674Y-120667608D01*
X93995606Y-120936084D01*
X94200835Y-121141672D01*
X94469117Y-121253073D01*
X94759608Y-121253326D01*
X95028084Y-121142394D01*
X95233672Y-120937165D01*
X95345073Y-120668883D01*
X95345326Y-120378392D01*
X95345326Y-125008096D01*
X94776711Y-125576711D01*
X94677602Y-125725037D01*
X94642800Y-125900000D01*
X94642800Y-127993000D01*
X94677602Y-128167963D01*
X94776711Y-128316289D01*
X95789872Y-129329450D01*
X95789674Y-129557608D01*
X95900606Y-129826084D01*
X96105835Y-130031672D01*
X96374117Y-130143073D01*
X96664608Y-130143326D01*
X96933084Y-130032394D01*
X97138672Y-129827165D01*
X97250073Y-129558883D01*
X97250326Y-129268392D01*
X97250326Y-132651669D01*
X97173883Y-132619927D01*
X96883392Y-132619674D01*
X96614916Y-132730606D01*
X96409328Y-132935835D01*
X96297927Y-133204117D01*
X96297674Y-133494608D01*
X96408606Y-133763084D01*
X96613835Y-133968672D01*
X96882117Y-134080073D01*
X97172608Y-134080326D01*
X97441084Y-133969394D01*
X97646672Y-133764165D01*
X97758073Y-133495883D01*
X97758326Y-133205392D01*
X97758326Y-135279091D01*
X96493862Y-134014627D01*
X96180729Y-133805397D01*
X95811363Y-133731926D01*
X94589724Y-133731926D01*
X94589724Y-129224925D01*
X94478792Y-128956449D01*
X94273563Y-128750861D01*
X94005281Y-128639460D01*
X93714790Y-128639207D01*
X93446314Y-128750139D01*
X93240726Y-128955368D01*
X93234978Y-128969208D01*
X92995883Y-128869927D01*
X92705392Y-128869674D01*
X92436916Y-128980606D01*
X92231328Y-129185835D01*
X92170326Y-129332743D01*
X92170326Y-124442392D01*
X92059394Y-124173916D01*
X91854165Y-123968328D01*
X91840125Y-123962498D01*
X91930073Y-123745883D01*
X91930326Y-123455392D01*
X91819394Y-123186916D01*
X91614165Y-122981328D01*
X91345883Y-122869927D01*
X91055392Y-122869674D01*
X90786916Y-122980606D01*
X90581328Y-123185835D01*
X90469927Y-123454117D01*
X90469674Y-123744608D01*
X90580606Y-124013084D01*
X90785835Y-124218672D01*
X90799874Y-124224501D01*
X90709927Y-124441117D01*
X90709674Y-124731608D01*
X90820606Y-125000084D01*
X91025835Y-125205672D01*
X91294117Y-125317073D01*
X91584608Y-125317326D01*
X91853084Y-125206394D01*
X92058672Y-125001165D01*
X92170073Y-124732883D01*
X92170326Y-124442392D01*
X92170326Y-129332743D01*
X92119927Y-129454117D01*
X92119674Y-129744608D01*
X92230606Y-130013084D01*
X92435835Y-130218672D01*
X92704117Y-130330073D01*
X92994608Y-130330326D01*
X93263084Y-130219394D01*
X93468672Y-130014165D01*
X93474419Y-130000324D01*
X93713515Y-130099606D01*
X94004006Y-130099859D01*
X94272482Y-129988927D01*
X94478070Y-129783698D01*
X94589471Y-129515416D01*
X94589724Y-129224925D01*
X94589724Y-133731926D01*
X94335638Y-133731926D01*
X94335638Y-132555392D01*
X94224706Y-132286916D01*
X94019477Y-132081328D01*
X93751195Y-131969927D01*
X93460704Y-131969674D01*
X93192228Y-132080606D01*
X92986640Y-132285835D01*
X92875239Y-132554117D01*
X92874986Y-132844608D01*
X92985918Y-133113084D01*
X93191147Y-133318672D01*
X93459429Y-133430073D01*
X93749920Y-133430326D01*
X94018396Y-133319394D01*
X94223984Y-133114165D01*
X94335385Y-132845883D01*
X94335638Y-132555392D01*
X94335638Y-133731926D01*
X92030326Y-133731926D01*
X92030326Y-128105392D01*
X91919394Y-127836916D01*
X91714165Y-127631328D01*
X91445883Y-127519927D01*
X91155392Y-127519674D01*
X90886916Y-127630606D01*
X90829618Y-127687803D01*
X90930073Y-127445883D01*
X90930267Y-127222198D01*
X91076608Y-127222326D01*
X91345084Y-127111394D01*
X91550672Y-126906165D01*
X91662073Y-126637883D01*
X91662326Y-126347392D01*
X91551394Y-126078916D01*
X91346165Y-125873328D01*
X91077883Y-125761927D01*
X90787392Y-125761674D01*
X90518916Y-125872606D01*
X90313328Y-126077835D01*
X90201927Y-126346117D01*
X90201732Y-126569801D01*
X90055392Y-126569674D01*
X89786916Y-126680606D01*
X89581328Y-126885835D01*
X89469927Y-127154117D01*
X89469674Y-127444608D01*
X89580606Y-127713084D01*
X89785835Y-127918672D01*
X90054117Y-128030073D01*
X90344608Y-128030326D01*
X90613084Y-127919394D01*
X90670381Y-127862196D01*
X90569927Y-128104117D01*
X90569674Y-128394608D01*
X90680606Y-128663084D01*
X90885835Y-128868672D01*
X91154117Y-128980073D01*
X91444608Y-128980326D01*
X91713084Y-128869394D01*
X91918672Y-128664165D01*
X92030073Y-128395883D01*
X92030326Y-128105392D01*
X92030326Y-133731926D01*
X90183772Y-133731926D01*
X90183772Y-132532818D01*
X90072840Y-132264342D01*
X89867611Y-132058754D01*
X89599329Y-131947353D01*
X89308838Y-131947100D01*
X89040362Y-132058032D01*
X89022852Y-132075511D01*
X89022852Y-129507682D01*
X88911920Y-129239206D01*
X88706691Y-129033618D01*
X88438409Y-128922217D01*
X88147918Y-128921964D01*
X87879442Y-129032896D01*
X87673854Y-129238125D01*
X87562453Y-129506407D01*
X87562200Y-129796898D01*
X87673132Y-130065374D01*
X87878361Y-130270962D01*
X88146643Y-130382363D01*
X88437134Y-130382616D01*
X88705610Y-130271684D01*
X88911198Y-130066455D01*
X89022599Y-129798173D01*
X89022852Y-129507682D01*
X89022852Y-132075511D01*
X88834774Y-132263261D01*
X88723373Y-132531543D01*
X88723120Y-132822034D01*
X88834052Y-133090510D01*
X89039281Y-133296098D01*
X89307563Y-133407499D01*
X89598054Y-133407752D01*
X89866530Y-133296820D01*
X90072118Y-133091591D01*
X90183519Y-132823309D01*
X90183772Y-132532818D01*
X90183772Y-133731926D01*
X85630326Y-133731926D01*
X85630326Y-132455392D01*
X85519394Y-132186916D01*
X85314165Y-131981328D01*
X85045883Y-131869927D01*
X84755392Y-131869674D01*
X84630326Y-131921350D01*
X84630326Y-129955392D01*
X84519394Y-129686916D01*
X84314165Y-129481328D01*
X84045883Y-129369927D01*
X83755392Y-129369674D01*
X83486916Y-129480606D01*
X83434023Y-129533406D01*
X83361807Y-129358630D01*
X83142525Y-129138964D01*
X82855872Y-129019936D01*
X82769935Y-129019860D01*
X83013084Y-128919394D01*
X83218672Y-128714165D01*
X83330073Y-128445883D01*
X83330326Y-128155392D01*
X83219394Y-127886916D01*
X83014165Y-127681328D01*
X82745883Y-127569927D01*
X82455392Y-127569674D01*
X82186916Y-127680606D01*
X81981328Y-127885835D01*
X81869927Y-128154117D01*
X81869674Y-128444608D01*
X81980606Y-128713084D01*
X82185835Y-128918672D01*
X82454117Y-129030073D01*
X82520160Y-129030130D01*
X82258630Y-129138193D01*
X82038964Y-129357475D01*
X81919936Y-129644128D01*
X81919665Y-129954511D01*
X82038193Y-130241370D01*
X82257475Y-130461036D01*
X82544128Y-130580064D01*
X82854511Y-130580335D01*
X83141370Y-130461807D01*
X83224946Y-130378376D01*
X83280606Y-130513084D01*
X83485835Y-130718672D01*
X83754117Y-130830073D01*
X84044608Y-130830326D01*
X84313084Y-130719394D01*
X84518672Y-130514165D01*
X84630073Y-130245883D01*
X84630326Y-129955392D01*
X84630326Y-131921350D01*
X84486916Y-131980606D01*
X84281328Y-132185835D01*
X84169927Y-132454117D01*
X84169674Y-132744608D01*
X84280606Y-133013084D01*
X84485835Y-133218672D01*
X84754117Y-133330073D01*
X85044608Y-133330326D01*
X85313084Y-133219394D01*
X85518672Y-133014165D01*
X85630073Y-132745883D01*
X85630326Y-132455392D01*
X85630326Y-133731926D01*
X83682036Y-133731926D01*
X83312670Y-133805397D01*
X82999537Y-134014626D01*
X81652944Y-135361219D01*
X81652944Y-117726760D01*
X81652944Y-115725240D01*
X81652944Y-113726260D01*
X81582179Y-113370502D01*
X81380659Y-113068905D01*
X81079062Y-112867385D01*
X80723304Y-112796620D01*
X80176696Y-112796620D01*
X79820938Y-112867385D01*
X79519341Y-113068905D01*
X79317821Y-113370502D01*
X79247056Y-113726260D01*
X79317821Y-114082018D01*
X79519341Y-114383615D01*
X79820938Y-114585135D01*
X80176696Y-114655900D01*
X80723304Y-114655900D01*
X81079062Y-114585135D01*
X81380659Y-114383615D01*
X81582179Y-114082018D01*
X81652944Y-113726260D01*
X81652944Y-115725240D01*
X81582179Y-115369482D01*
X81380659Y-115067885D01*
X81079062Y-114866365D01*
X80723304Y-114795600D01*
X80176696Y-114795600D01*
X79820938Y-114866365D01*
X79519341Y-115067885D01*
X79317821Y-115369482D01*
X79247056Y-115725240D01*
X79317821Y-116080998D01*
X79519341Y-116382595D01*
X79820938Y-116584115D01*
X80176696Y-116654880D01*
X80723304Y-116654880D01*
X81079062Y-116584115D01*
X81380659Y-116382595D01*
X81582179Y-116080998D01*
X81652944Y-115725240D01*
X81652944Y-117726760D01*
X81582179Y-117371002D01*
X81380659Y-117069405D01*
X81079062Y-116867885D01*
X80723304Y-116797120D01*
X80176696Y-116797120D01*
X79820938Y-116867885D01*
X79519341Y-117069405D01*
X79317821Y-117371002D01*
X79247056Y-117726760D01*
X79317821Y-118082518D01*
X79519341Y-118384115D01*
X79820938Y-118585635D01*
X80176696Y-118656400D01*
X80723304Y-118656400D01*
X81079062Y-118585635D01*
X81380659Y-118384115D01*
X81582179Y-118082518D01*
X81652944Y-117726760D01*
X81652944Y-135361219D01*
X81553630Y-135460533D01*
X81553630Y-120378244D01*
X81553630Y-119823530D01*
X81553630Y-119633030D01*
X81553630Y-119078316D01*
X81514961Y-118984960D01*
X81443509Y-118913509D01*
X81350154Y-118874840D01*
X81249106Y-118874840D01*
X80545250Y-118874840D01*
X80481750Y-118938340D01*
X80481750Y-119696530D01*
X81490130Y-119696530D01*
X81553630Y-119633030D01*
X81553630Y-119823530D01*
X81490130Y-119760030D01*
X80481750Y-119760030D01*
X80481750Y-120518220D01*
X80545250Y-120581720D01*
X81249106Y-120581720D01*
X81350154Y-120581720D01*
X81443509Y-120543051D01*
X81514961Y-120471600D01*
X81553630Y-120378244D01*
X81553630Y-135460533D01*
X81416241Y-135597923D01*
X81207011Y-135911056D01*
X81133540Y-136280422D01*
X81133540Y-136967832D01*
X81118471Y-137004123D01*
X81118130Y-137394166D01*
X81267079Y-137754649D01*
X81542640Y-138030692D01*
X81902863Y-138180269D01*
X82292906Y-138180610D01*
X82653389Y-138031661D01*
X82929432Y-137756100D01*
X83079009Y-137395877D01*
X83079350Y-137005834D01*
X83063940Y-136968539D01*
X83063940Y-136680220D01*
X84081834Y-135662326D01*
X95411564Y-135662326D01*
X97231057Y-137481819D01*
X97231058Y-137481819D01*
X97544190Y-137691049D01*
X97544191Y-137691049D01*
X97605471Y-137703238D01*
X97913557Y-137764520D01*
X99199231Y-137764520D01*
X99151867Y-137878585D01*
X99151614Y-138169076D01*
X99262546Y-138437552D01*
X99419519Y-138594800D01*
X96361326Y-138594800D01*
X96361326Y-137015392D01*
X96250394Y-136746916D01*
X96045165Y-136541328D01*
X95776883Y-136429927D01*
X95486392Y-136429674D01*
X95217916Y-136540606D01*
X95012328Y-136745835D01*
X94900927Y-137014117D01*
X94900674Y-137304608D01*
X95011606Y-137573084D01*
X95216835Y-137778672D01*
X95485117Y-137890073D01*
X95775608Y-137890326D01*
X96044084Y-137779394D01*
X96249672Y-137574165D01*
X96361073Y-137305883D01*
X96361326Y-137015392D01*
X96361326Y-138594800D01*
X93006357Y-138594800D01*
X93006357Y-137024500D01*
X92870299Y-136691494D01*
X92865357Y-136684096D01*
X92730315Y-136615846D01*
X92685414Y-136660747D01*
X92685414Y-136570945D01*
X92617164Y-136435903D01*
X92285485Y-136296639D01*
X91925760Y-136294903D01*
X91592754Y-136430961D01*
X91585356Y-136435903D01*
X91517106Y-136570945D01*
X92101260Y-137155099D01*
X92685414Y-136570945D01*
X92685414Y-136660747D01*
X92146161Y-137200000D01*
X92730315Y-137784154D01*
X92865357Y-137715904D01*
X93004621Y-137384225D01*
X93006357Y-137024500D01*
X93006357Y-138594800D01*
X92685414Y-138594800D01*
X92685414Y-137829055D01*
X92101260Y-137244901D01*
X92056359Y-137289802D01*
X92056359Y-137200000D01*
X91472205Y-136615846D01*
X91337163Y-136684096D01*
X91197899Y-137015775D01*
X91196163Y-137375500D01*
X91332221Y-137708506D01*
X91337163Y-137715904D01*
X91472205Y-137784154D01*
X92056359Y-137200000D01*
X92056359Y-137289802D01*
X91517106Y-137829055D01*
X91585356Y-137964097D01*
X91917035Y-138103361D01*
X92276760Y-138105097D01*
X92609766Y-137969039D01*
X92617164Y-137964097D01*
X92685414Y-137829055D01*
X92685414Y-138594800D01*
X91080350Y-138594800D01*
X91080350Y-137005834D01*
X90931401Y-136645351D01*
X90655840Y-136369308D01*
X90295617Y-136219731D01*
X89905574Y-136219390D01*
X89545091Y-136368339D01*
X89269048Y-136643900D01*
X89119471Y-137004123D01*
X89119130Y-137394166D01*
X89268079Y-137754649D01*
X89543640Y-138030692D01*
X89903863Y-138180269D01*
X90293906Y-138180610D01*
X90654389Y-138031661D01*
X90930432Y-137756100D01*
X91080009Y-137395877D01*
X91080350Y-137005834D01*
X91080350Y-138594800D01*
X89081370Y-138594800D01*
X89081370Y-137005834D01*
X88932421Y-136645351D01*
X88656860Y-136369308D01*
X88296637Y-136219731D01*
X87906594Y-136219390D01*
X87546111Y-136368339D01*
X87270068Y-136643900D01*
X87120491Y-137004123D01*
X87120150Y-137394166D01*
X87269099Y-137754649D01*
X87544660Y-138030692D01*
X87904883Y-138180269D01*
X88294926Y-138180610D01*
X88655409Y-138031661D01*
X88931452Y-137756100D01*
X89081029Y-137395877D01*
X89081370Y-137005834D01*
X89081370Y-138594800D01*
X87079850Y-138594800D01*
X87079850Y-137005834D01*
X86930901Y-136645351D01*
X86655340Y-136369308D01*
X86295117Y-136219731D01*
X85905074Y-136219390D01*
X85544591Y-136368339D01*
X85268548Y-136643900D01*
X85118971Y-137004123D01*
X85118630Y-137394166D01*
X85267579Y-137754649D01*
X85543140Y-138030692D01*
X85903363Y-138180269D01*
X86293406Y-138180610D01*
X86653889Y-138031661D01*
X86929932Y-137756100D01*
X87079509Y-137395877D01*
X87079850Y-137005834D01*
X87079850Y-138594800D01*
X85080870Y-138594800D01*
X85080870Y-137005834D01*
X84931921Y-136645351D01*
X84656360Y-136369308D01*
X84296137Y-136219731D01*
X83906094Y-136219390D01*
X83545611Y-136368339D01*
X83269568Y-136643900D01*
X83119991Y-137004123D01*
X83119650Y-137394166D01*
X83268599Y-137754649D01*
X83544160Y-138030692D01*
X83904383Y-138180269D01*
X84294426Y-138180610D01*
X84654909Y-138031661D01*
X84930952Y-137756100D01*
X85080529Y-137395877D01*
X85080870Y-137005834D01*
X85080870Y-138594800D01*
X80418250Y-138594800D01*
X80418250Y-120518220D01*
X80418250Y-119760030D01*
X80418250Y-119696530D01*
X80418250Y-118938340D01*
X80354750Y-118874840D01*
X79650894Y-118874840D01*
X79549846Y-118874840D01*
X79456491Y-118913509D01*
X79385039Y-118984960D01*
X79346370Y-119078316D01*
X79346370Y-119633030D01*
X79409870Y-119696530D01*
X80418250Y-119696530D01*
X80418250Y-119760030D01*
X79409870Y-119760030D01*
X79346370Y-119823530D01*
X79346370Y-120378244D01*
X79385039Y-120471600D01*
X79456491Y-120543051D01*
X79549846Y-120581720D01*
X79650894Y-120581720D01*
X80354750Y-120581720D01*
X80418250Y-120518220D01*
X80418250Y-138594800D01*
X78905200Y-138594800D01*
X78905200Y-128337895D01*
X78985835Y-128418672D01*
X79254117Y-128530073D01*
X79544608Y-128530326D01*
X79813084Y-128419394D01*
X80018672Y-128214165D01*
X80130073Y-127945883D01*
X80130326Y-127655392D01*
X80019394Y-127386916D01*
X79814165Y-127181328D01*
X79805082Y-127177556D01*
X79918672Y-127064165D01*
X80030073Y-126795883D01*
X80030326Y-126505392D01*
X79919394Y-126236916D01*
X79714165Y-126031328D01*
X79445883Y-125919927D01*
X79155392Y-125919674D01*
X78905200Y-126023051D01*
X78905200Y-110127000D01*
X79083584Y-110127000D01*
X78917990Y-110525795D01*
X78917611Y-110960299D01*
X79083538Y-111361873D01*
X79390511Y-111669382D01*
X79791795Y-111836010D01*
X80226299Y-111836389D01*
X80627873Y-111670462D01*
X80899203Y-111399604D01*
X81168511Y-111669382D01*
X81569795Y-111836010D01*
X82004299Y-111836389D01*
X82405873Y-111670462D01*
X82677203Y-111399604D01*
X82946511Y-111669382D01*
X83347795Y-111836010D01*
X83782299Y-111836389D01*
X84183873Y-111670462D01*
X84491382Y-111363489D01*
X84658010Y-110962205D01*
X84658389Y-110527701D01*
X84492822Y-110127000D01*
X88012324Y-110127000D01*
X88104835Y-110219672D01*
X88373117Y-110331073D01*
X88566741Y-110331241D01*
X88914350Y-110678850D01*
X89070917Y-110783464D01*
X89255600Y-110820201D01*
X89255600Y-110820200D01*
X89255605Y-110820200D01*
X91147900Y-110820200D01*
X91332583Y-110783464D01*
X91489150Y-110678850D01*
X91581333Y-110540886D01*
X91995220Y-110127000D01*
X94678499Y-110127000D01*
X94678499Y-113189364D01*
X94599394Y-112997916D01*
X94394165Y-112792328D01*
X94125883Y-112680927D01*
X93835392Y-112680674D01*
X93566916Y-112791606D01*
X93361328Y-112996835D01*
X93249927Y-113265117D01*
X93249674Y-113555608D01*
X93360606Y-113824084D01*
X93522800Y-113986561D01*
X93522800Y-117464126D01*
X92678326Y-118308599D01*
X92678326Y-114790392D01*
X92567394Y-114521916D01*
X92362165Y-114316328D01*
X92093883Y-114204927D01*
X91803392Y-114204674D01*
X91534916Y-114315606D01*
X91376403Y-114473841D01*
X91219165Y-114316328D01*
X90950883Y-114204927D01*
X90660392Y-114204674D01*
X90391916Y-114315606D01*
X90186328Y-114520835D01*
X90074927Y-114789117D01*
X90074674Y-115079608D01*
X90185606Y-115348084D01*
X90390835Y-115553672D01*
X90659117Y-115665073D01*
X90949608Y-115665326D01*
X91218084Y-115554394D01*
X91376596Y-115396158D01*
X91533835Y-115553672D01*
X91802117Y-115665073D01*
X92092608Y-115665326D01*
X92361084Y-115554394D01*
X92566672Y-115349165D01*
X92678073Y-115080883D01*
X92678326Y-114790392D01*
X92678326Y-118308599D01*
X91872202Y-119114723D01*
X91819394Y-118986916D01*
X91614165Y-118781328D01*
X91345883Y-118669927D01*
X91055392Y-118669674D01*
X90786916Y-118780606D01*
X90581328Y-118985835D01*
X90469927Y-119254117D01*
X90469674Y-119544608D01*
X90580606Y-119813084D01*
X90785835Y-120018672D01*
X90914731Y-120072194D01*
X89630326Y-121356599D01*
X89630326Y-118655392D01*
X89519394Y-118386916D01*
X89397158Y-118264466D01*
X89518672Y-118143165D01*
X89630073Y-117874883D01*
X89630326Y-117584392D01*
X89519394Y-117315916D01*
X89314165Y-117110328D01*
X89045883Y-116998927D01*
X88755392Y-116998674D01*
X88486916Y-117109606D01*
X88281328Y-117314835D01*
X88169927Y-117583117D01*
X88169674Y-117873608D01*
X88280606Y-118142084D01*
X88402841Y-118264533D01*
X88281328Y-118385835D01*
X88169927Y-118654117D01*
X88169674Y-118944608D01*
X88280606Y-119213084D01*
X88485835Y-119418672D01*
X88754117Y-119530073D01*
X89044608Y-119530326D01*
X89313084Y-119419394D01*
X89518672Y-119214165D01*
X89630073Y-118945883D01*
X89630326Y-118655392D01*
X89630326Y-121356599D01*
X88922283Y-122064642D01*
X88930073Y-122045883D01*
X88930326Y-121755392D01*
X88819394Y-121486916D01*
X88614165Y-121281328D01*
X88345883Y-121169927D01*
X88055392Y-121169674D01*
X87786916Y-121280606D01*
X87581328Y-121485835D01*
X87469927Y-121754117D01*
X87469674Y-122044608D01*
X87580606Y-122313084D01*
X87785835Y-122518672D01*
X88054117Y-122630073D01*
X88344608Y-122630326D01*
X88365043Y-122621882D01*
X88248927Y-122737999D01*
X86709326Y-122737999D01*
X86709326Y-114790392D01*
X86598394Y-114521916D01*
X86393165Y-114316328D01*
X86124883Y-114204927D01*
X85834392Y-114204674D01*
X85565916Y-114315606D01*
X85360328Y-114520835D01*
X85248927Y-114789117D01*
X85248674Y-115079608D01*
X85359606Y-115348084D01*
X85564835Y-115553672D01*
X85833117Y-115665073D01*
X86123608Y-115665326D01*
X86392084Y-115554394D01*
X86597672Y-115349165D01*
X86709073Y-115080883D01*
X86709326Y-114790392D01*
X86709326Y-122737999D01*
X86004801Y-122737999D01*
X85829838Y-122772801D01*
X85681512Y-122871910D01*
X83983549Y-124569872D01*
X83755392Y-124569674D01*
X83486916Y-124680606D01*
X83281328Y-124885835D01*
X83169927Y-125154117D01*
X83169916Y-125166403D01*
X83142525Y-125138964D01*
X82855872Y-125019936D01*
X82545489Y-125019665D01*
X82258630Y-125138193D01*
X82038964Y-125357475D01*
X81919936Y-125644128D01*
X81919665Y-125954511D01*
X82038193Y-126241370D01*
X82257475Y-126461036D01*
X82544128Y-126580064D01*
X82854511Y-126580335D01*
X83141370Y-126461807D01*
X83361036Y-126242525D01*
X83480064Y-125955872D01*
X83480101Y-125912928D01*
X83485835Y-125918672D01*
X83754117Y-126030073D01*
X84044608Y-126030326D01*
X84313084Y-125919394D01*
X84518672Y-125714165D01*
X84630073Y-125445883D01*
X84630272Y-125216305D01*
X86194179Y-123652399D01*
X87412164Y-123652399D01*
X87369927Y-123754117D01*
X87369674Y-124044608D01*
X87480606Y-124313084D01*
X87685835Y-124518672D01*
X87954117Y-124630073D01*
X88233775Y-124630316D01*
X87363041Y-125501051D01*
X87471073Y-125240883D01*
X87471326Y-124950392D01*
X87360394Y-124681916D01*
X87155165Y-124476328D01*
X86886883Y-124364927D01*
X86596392Y-124364674D01*
X86327916Y-124475606D01*
X86122328Y-124680835D01*
X86010927Y-124949117D01*
X86010674Y-125239608D01*
X86121606Y-125508084D01*
X86326835Y-125713672D01*
X86595117Y-125825073D01*
X86885608Y-125825326D01*
X87146610Y-125717481D01*
X86176711Y-126687382D01*
X86077602Y-126835708D01*
X86042800Y-127010671D01*
X86042800Y-127692122D01*
X85881328Y-127853313D01*
X85769927Y-128121595D01*
X85769674Y-128412086D01*
X85880606Y-128680562D01*
X86085835Y-128886150D01*
X86354117Y-128997551D01*
X86644608Y-128997804D01*
X86913084Y-128886872D01*
X87118672Y-128681643D01*
X87230073Y-128413361D01*
X87230326Y-128122870D01*
X87119394Y-127854394D01*
X86957200Y-127691916D01*
X86957200Y-127200049D01*
X89266455Y-124890795D01*
X89266455Y-124890794D01*
X89365564Y-124742468D01*
X89400365Y-124567505D01*
X89400366Y-124567505D01*
X89400366Y-123796212D01*
X95458988Y-117737590D01*
X95558097Y-117589264D01*
X95592899Y-117414301D01*
X95592899Y-110127000D01*
X99919421Y-110127000D01*
X97593711Y-112452711D01*
X97494602Y-112601037D01*
X97459800Y-112776000D01*
X97459800Y-114300000D01*
X97494602Y-114474963D01*
X97593711Y-114623289D01*
X100604239Y-117633817D01*
X100439392Y-117633674D01*
X100170916Y-117744606D01*
X99965328Y-117949835D01*
X99853927Y-118218117D01*
X99853674Y-118508608D01*
X99964606Y-118777084D01*
X100169835Y-118982672D01*
X100438117Y-119094073D01*
X100728608Y-119094326D01*
X100997084Y-118983394D01*
X101202672Y-118778165D01*
X101314073Y-118509883D01*
X101314326Y-118219392D01*
X101203394Y-117950916D01*
X101184710Y-117932200D01*
X101729815Y-117932200D01*
X101610789Y-118051019D01*
X101499388Y-118319301D01*
X101499135Y-118609792D01*
X101610067Y-118878268D01*
X101815296Y-119083856D01*
X102083578Y-119195257D01*
X102374069Y-119195510D01*
X102642545Y-119084578D01*
X102848133Y-118879349D01*
X102959534Y-118611067D01*
X102959787Y-118320576D01*
X102848855Y-118052100D01*
X102729164Y-117932200D01*
X103260411Y-117932200D01*
X103140328Y-118052074D01*
X103028927Y-118320356D01*
X103028674Y-118610847D01*
X103139606Y-118879323D01*
X103344835Y-119084911D01*
X103613117Y-119196312D01*
X103903608Y-119196565D01*
X104172084Y-119085633D01*
X104358766Y-118899276D01*
X104515766Y-119056550D01*
X104784048Y-119167951D01*
X105074539Y-119168204D01*
X105343015Y-119057272D01*
X105548603Y-118852043D01*
X105660004Y-118583761D01*
X105660257Y-118293270D01*
X105549325Y-118024794D01*
X105456892Y-117932200D01*
X106269915Y-117932200D01*
X106203927Y-118091117D01*
X106203674Y-118381608D01*
X106314606Y-118650084D01*
X106519835Y-118855672D01*
X106788117Y-118967073D01*
X107078608Y-118967326D01*
X107347084Y-118856394D01*
X107552672Y-118651165D01*
X107664073Y-118382883D01*
X107664326Y-118092392D01*
X107598136Y-117932200D01*
X107696000Y-117932200D01*
X107870963Y-117897398D01*
X108019289Y-117798289D01*
X110559289Y-115258290D01*
X110559289Y-115258289D01*
X110658398Y-115109963D01*
X110693199Y-114935000D01*
X110693200Y-114935000D01*
X110693200Y-114012006D01*
X110710835Y-114029672D01*
X110979117Y-114141073D01*
X111269608Y-114141326D01*
X111538084Y-114030394D01*
X111743672Y-113825165D01*
X111855073Y-113556883D01*
X111855326Y-113266392D01*
X111744394Y-112997916D01*
X111539165Y-112792328D01*
X111270883Y-112680927D01*
X110980392Y-112680674D01*
X110711916Y-112791606D01*
X110693200Y-112810289D01*
X110693200Y-112330378D01*
X112311450Y-110712127D01*
X112539608Y-110712326D01*
X112808084Y-110601394D01*
X113013672Y-110396165D01*
X113125073Y-110127883D01*
X113125073Y-110127000D01*
X113319475Y-110127000D01*
X113319390Y-110224426D01*
X113468339Y-110584909D01*
X113743900Y-110860952D01*
X114104123Y-111010529D01*
X114494166Y-111010870D01*
X114854649Y-110861921D01*
X115130692Y-110586360D01*
X115280269Y-110226137D01*
X115280355Y-110127000D01*
X116594800Y-110127000D01*
X116594800Y-110273286D01*
X116345883Y-110169927D01*
X116055392Y-110169674D01*
X115786916Y-110280606D01*
X115581328Y-110485835D01*
X115469927Y-110754117D01*
X115469674Y-111044608D01*
X115580606Y-111313084D01*
X115742800Y-111475561D01*
X115742800Y-113940362D01*
X115280610Y-114402551D01*
X115280610Y-111835074D01*
X115131661Y-111474591D01*
X114856100Y-111198548D01*
X114495877Y-111048971D01*
X114105834Y-111048630D01*
X113745351Y-111197579D01*
X113469308Y-111473140D01*
X113319731Y-111833363D01*
X113319390Y-112223406D01*
X113468339Y-112583889D01*
X113743900Y-112859932D01*
X114104123Y-113009509D01*
X114494166Y-113009850D01*
X114854649Y-112860901D01*
X115130692Y-112585340D01*
X115280269Y-112225117D01*
X115280610Y-111835074D01*
X115280610Y-114402551D01*
X115205097Y-114478064D01*
X115205097Y-113855260D01*
X115069039Y-113522254D01*
X115064097Y-113514856D01*
X114929055Y-113446606D01*
X114884154Y-113491507D01*
X114884154Y-113401705D01*
X114815904Y-113266663D01*
X114484225Y-113127399D01*
X114124500Y-113125663D01*
X113791494Y-113261721D01*
X113784096Y-113266663D01*
X113715846Y-113401705D01*
X114300000Y-113985859D01*
X114884154Y-113401705D01*
X114884154Y-113491507D01*
X114344901Y-114030760D01*
X114929055Y-114614914D01*
X115064097Y-114546664D01*
X115203361Y-114214985D01*
X115205097Y-113855260D01*
X115205097Y-114478064D01*
X114884154Y-114799007D01*
X114884154Y-114659815D01*
X114300000Y-114075661D01*
X114255099Y-114120562D01*
X114255099Y-114030760D01*
X113670945Y-113446606D01*
X113535903Y-113514856D01*
X113396639Y-113846535D01*
X113394903Y-114206260D01*
X113530961Y-114539266D01*
X113535903Y-114546664D01*
X113670945Y-114614914D01*
X114255099Y-114030760D01*
X114255099Y-114120562D01*
X113715846Y-114659815D01*
X113784096Y-114794857D01*
X114115775Y-114934121D01*
X114475500Y-114935857D01*
X114808506Y-114799799D01*
X114815904Y-114794857D01*
X114884154Y-114659815D01*
X114884154Y-114799007D01*
X114593255Y-115089906D01*
X114495877Y-115049471D01*
X114105834Y-115049130D01*
X113745351Y-115198079D01*
X113469308Y-115473640D01*
X113319731Y-115833863D01*
X113319390Y-116223906D01*
X113468339Y-116584389D01*
X113743900Y-116860432D01*
X114104123Y-117010009D01*
X114494166Y-117010350D01*
X114854649Y-116861401D01*
X115130692Y-116585840D01*
X115280269Y-116225617D01*
X115280610Y-115835574D01*
X115239715Y-115736602D01*
X116523289Y-114453029D01*
X116594800Y-114346006D01*
X116594800Y-138594800D01*
G36*
X91185880Y-85852000D02*
X91182536Y-89395186D01*
X91159579Y-89395166D01*
X90874741Y-89512859D01*
X90656624Y-89730595D01*
X90538435Y-90015227D01*
X90538166Y-90323421D01*
X90655859Y-90608259D01*
X90852297Y-90805041D01*
X90783624Y-90873595D01*
X90665435Y-91158227D01*
X90665166Y-91466421D01*
X90782859Y-91751259D01*
X91000595Y-91969376D01*
X91180036Y-92043886D01*
X91173120Y-99373000D01*
X78905200Y-99373000D01*
X78905200Y-80405200D01*
X88265000Y-80405200D01*
X88265000Y-85852000D01*
X91185880Y-85852000D01*
X91185880Y-85852000D01*
G37*
X91185880Y-85852000D02*
X91182536Y-89395186D01*
X91159579Y-89395166D01*
X90874741Y-89512859D01*
X90656624Y-89730595D01*
X90538435Y-90015227D01*
X90538166Y-90323421D01*
X90655859Y-90608259D01*
X90852297Y-90805041D01*
X90783624Y-90873595D01*
X90665435Y-91158227D01*
X90665166Y-91466421D01*
X90782859Y-91751259D01*
X91000595Y-91969376D01*
X91180036Y-92043886D01*
X91173120Y-99373000D01*
X78905200Y-99373000D01*
X78905200Y-80405200D01*
X88265000Y-80405200D01*
X88265000Y-85852000D01*
X91185880Y-85852000D01*
G36*
X104170641Y-98515800D02*
X99900000Y-98515800D01*
X99676436Y-98560270D01*
X99486908Y-98686908D01*
X98800816Y-99373000D01*
X91927194Y-99373000D01*
X91938571Y-91909933D01*
X92096376Y-91752405D01*
X92214565Y-91467773D01*
X92214834Y-91159579D01*
X92097141Y-90874741D01*
X91940389Y-90717714D01*
X91940510Y-90638220D01*
X91969376Y-90609405D01*
X92087565Y-90324773D01*
X92087834Y-90016579D01*
X91970141Y-89731741D01*
X91941935Y-89703485D01*
X91945036Y-87669076D01*
X92122499Y-87550499D01*
X92331729Y-87237366D01*
X92405200Y-86868000D01*
X92331729Y-86498634D01*
X92122499Y-86185501D01*
X91947476Y-86068554D01*
X91947807Y-85852000D01*
X94996000Y-85852000D01*
X94996000Y-80405200D01*
X100457000Y-80405200D01*
X100457000Y-85852000D01*
X104140304Y-85852000D01*
X104152530Y-90955547D01*
X103955741Y-91036859D01*
X103737624Y-91254595D01*
X103619435Y-91539227D01*
X103619166Y-91847421D01*
X103736859Y-92132259D01*
X103954595Y-92350376D01*
X104156071Y-92434036D01*
X104170641Y-98515800D01*
X104170641Y-98515800D01*
G37*
X104170641Y-98515800D02*
X99900000Y-98515800D01*
X99676436Y-98560270D01*
X99486908Y-98686908D01*
X98800816Y-99373000D01*
X91927194Y-99373000D01*
X91938571Y-91909933D01*
X92096376Y-91752405D01*
X92214565Y-91467773D01*
X92214834Y-91159579D01*
X92097141Y-90874741D01*
X91940389Y-90717714D01*
X91940510Y-90638220D01*
X91969376Y-90609405D01*
X92087565Y-90324773D01*
X92087834Y-90016579D01*
X91970141Y-89731741D01*
X91941935Y-89703485D01*
X91945036Y-87669076D01*
X92122499Y-87550499D01*
X92331729Y-87237366D01*
X92405200Y-86868000D01*
X92331729Y-86498634D01*
X92122499Y-86185501D01*
X91947476Y-86068554D01*
X91947807Y-85852000D01*
X94996000Y-85852000D01*
X94996000Y-80405200D01*
X100457000Y-80405200D01*
X100457000Y-85852000D01*
X104140304Y-85852000D01*
X104152530Y-90955547D01*
X103955741Y-91036859D01*
X103737624Y-91254595D01*
X103619435Y-91539227D01*
X103619166Y-91847421D01*
X103736859Y-92132259D01*
X103954595Y-92350376D01*
X104156071Y-92434036D01*
X104170641Y-98515800D01*
G36*
X116594800Y-99373000D02*
X115582834Y-99373000D01*
X115582834Y-81761579D01*
X115465141Y-81476741D01*
X115247405Y-81258624D01*
X114962773Y-81140435D01*
X114654579Y-81140166D01*
X114369741Y-81257859D01*
X114151624Y-81475595D01*
X114033435Y-81760227D01*
X114033166Y-82068421D01*
X114150859Y-82353259D01*
X114368595Y-82571376D01*
X114653227Y-82689565D01*
X114961421Y-82689834D01*
X115246259Y-82572141D01*
X115464376Y-82354405D01*
X115582565Y-82069773D01*
X115582834Y-81761579D01*
X115582834Y-99373000D01*
X110299183Y-99373000D01*
X109613092Y-98686908D01*
X109423564Y-98560270D01*
X109200000Y-98515800D01*
X104730429Y-98515800D01*
X104751795Y-92384387D01*
X104832259Y-92351141D01*
X105050376Y-92133405D01*
X105168565Y-91848773D01*
X105168834Y-91540579D01*
X105051141Y-91255741D01*
X104833405Y-91037624D01*
X104756599Y-91005731D01*
X104774558Y-85852000D01*
X106807000Y-85852000D01*
X106807000Y-80405200D01*
X116594800Y-80405200D01*
X116594800Y-99373000D01*
X116594800Y-99373000D01*
G37*
X116594800Y-99373000D02*
X115582834Y-99373000D01*
X115582834Y-81761579D01*
X115465141Y-81476741D01*
X115247405Y-81258624D01*
X114962773Y-81140435D01*
X114654579Y-81140166D01*
X114369741Y-81257859D01*
X114151624Y-81475595D01*
X114033435Y-81760227D01*
X114033166Y-82068421D01*
X114150859Y-82353259D01*
X114368595Y-82571376D01*
X114653227Y-82689565D01*
X114961421Y-82689834D01*
X115246259Y-82572141D01*
X115464376Y-82354405D01*
X115582565Y-82069773D01*
X115582834Y-81761579D01*
X115582834Y-99373000D01*
X110299183Y-99373000D01*
X109613092Y-98686908D01*
X109423564Y-98560270D01*
X109200000Y-98515800D01*
X104730429Y-98515800D01*
X104751795Y-92384387D01*
X104832259Y-92351141D01*
X105050376Y-92133405D01*
X105168565Y-91848773D01*
X105168834Y-91540579D01*
X105051141Y-91255741D01*
X104833405Y-91037624D01*
X104756599Y-91005731D01*
X104774558Y-85852000D01*
X106807000Y-85852000D01*
X106807000Y-80405200D01*
X116594800Y-80405200D01*
X116594800Y-99373000D01*
M02*
