G04 #@! TF.FileFunction,Copper,L3,Inr,Signal*
%FSLAX46Y46*%
G04 Gerber Fmt 4.6, Leading zero omitted, Abs format (unit mm)*
G04 Created by KiCad (PCBNEW (2015-08-21 BZR 6112)-product) date ons  3 feb 2016 15:49:01*
%MOMM*%
G01*
G04 APERTURE LIST*
%ADD10C,0.150000*%
%ADD11C,1.300480*%
%ADD12R,1.699260X1.198880*%
%ADD13O,1.699260X1.198880*%
%ADD14O,1.524000X3.048000*%
%ADD15C,4.064000*%
%ADD16R,1.300000X1.300000*%
%ADD17C,1.300000*%
%ADD18C,0.800000*%
%ADD19C,0.889000*%
%ADD20C,1.524000*%
%ADD21C,1.270000*%
%ADD22C,1.016000*%
%ADD23C,0.304800*%
%ADD24C,0.635000*%
%ADD25C,0.254000*%
G04 APERTURE END LIST*
D10*
D11*
X86099240Y-137200000D03*
X88100760Y-137200000D03*
X90099740Y-137200000D03*
X92101260Y-137200000D03*
X84100260Y-137200000D03*
X82098740Y-137200000D03*
D12*
X80450000Y-119728280D03*
D13*
X80450000Y-115725240D03*
X80450000Y-117726760D03*
X80450000Y-113726260D03*
D11*
X114300000Y-126253240D03*
X114300000Y-128254760D03*
X114300000Y-130253740D03*
X114300000Y-132255260D03*
X114300000Y-124254260D03*
X114300000Y-122252740D03*
D14*
X108712000Y-136398000D03*
X111252000Y-136398000D03*
X113792000Y-136398000D03*
D15*
X92000000Y-83000000D03*
X103500000Y-83000000D03*
X114000000Y-142000000D03*
X81500000Y-142000000D03*
D16*
X114300000Y-118018560D03*
D17*
X114300000Y-114015520D03*
X114300000Y-116017040D03*
X114300000Y-112016540D03*
X114300000Y-110015020D03*
X114300000Y-108013500D03*
X114300000Y-106014520D03*
D18*
X88900000Y-117729000D03*
X88900000Y-118800000D03*
X79400000Y-127800000D03*
X85979000Y-114935000D03*
X101473000Y-118237000D03*
X102870000Y-132842000D03*
X107817006Y-124617006D03*
D19*
X90551000Y-110490012D03*
D18*
X103759000Y-115189000D03*
X103709331Y-113221584D03*
X98512630Y-135586518D03*
X109782385Y-122455968D03*
X91823218Y-122684218D03*
X110871000Y-119380000D03*
X110871000Y-118364000D03*
X98552000Y-116840000D03*
X97028000Y-123063000D03*
X99314000Y-117475000D03*
X93321003Y-128553294D03*
X80600000Y-121900000D03*
X86300000Y-126200000D03*
X90255293Y-131671345D03*
X88138000Y-131699000D03*
X81800000Y-112800000D03*
D20*
X93472000Y-103251000D03*
X93472000Y-104775000D03*
D18*
X84928238Y-131104499D03*
D20*
X94996000Y-103251000D03*
X94996000Y-104775000D03*
X93472000Y-106299000D03*
X94996000Y-106299000D03*
D18*
X99187000Y-132731485D03*
X93472000Y-137541000D03*
X97028000Y-133350000D03*
X108286870Y-128330435D03*
X97350000Y-126600000D03*
X100831698Y-122555000D03*
X100132231Y-123334253D03*
X105537000Y-121539000D03*
X91948000Y-114935000D03*
X90805000Y-114935000D03*
X99374925Y-134191906D03*
X94615000Y-120523000D03*
X83900000Y-130100000D03*
X96901000Y-127635000D03*
X98171000Y-128143000D03*
X112394988Y-131318000D03*
X109135117Y-127485117D03*
X106044996Y-126432893D03*
X91200000Y-119400000D03*
X92850000Y-129600000D03*
X95631000Y-137160000D03*
X98552000Y-122301000D03*
X95850000Y-126400000D03*
X107200501Y-135762249D03*
X111049589Y-110692411D03*
X116078000Y-99314000D03*
D20*
X80010000Y-110744000D03*
D18*
X116078000Y-100330000D03*
X83900000Y-125300000D03*
X111125000Y-113411000D03*
X93980000Y-113411000D03*
D20*
X83566000Y-107188000D03*
X83566000Y-105410000D03*
X81788000Y-105410000D03*
X80010000Y-105410000D03*
X81788000Y-107188000D03*
X80010000Y-107188000D03*
X80010000Y-108966000D03*
X81788000Y-108966000D03*
X83566000Y-108966000D03*
X83566000Y-110744000D03*
X81788000Y-110744000D03*
D18*
X96647000Y-114046000D03*
X116100000Y-101300000D03*
X101600000Y-138085820D03*
X82600000Y-128300000D03*
X104310799Y-130643738D03*
X100203000Y-110490012D03*
D20*
X110744000Y-86868000D03*
X110744000Y-88646000D03*
X112522000Y-86868000D03*
X112522000Y-88646000D03*
X106934000Y-86868000D03*
X106934000Y-88646000D03*
X108966000Y-86868000D03*
X108966000Y-88646000D03*
X106934000Y-90424000D03*
X108966000Y-90424000D03*
X110744000Y-90424000D03*
X112522000Y-90424000D03*
D18*
X86741000Y-125095000D03*
D20*
X111252000Y-81534000D03*
X109474000Y-81534000D03*
X107696000Y-81534000D03*
D18*
X105410000Y-103632000D03*
X91200000Y-123600000D03*
D20*
X93980000Y-90678000D03*
X95758000Y-90678000D03*
X97790000Y-90678000D03*
X99822000Y-90678000D03*
X99822000Y-88900000D03*
X97790000Y-88900000D03*
X95758000Y-88900000D03*
X97790000Y-87122000D03*
X99822000Y-87122000D03*
X93980000Y-87122000D03*
X95758000Y-87122000D03*
X93980000Y-88900000D03*
X96139000Y-81534000D03*
X97790000Y-81534000D03*
X99441000Y-81534000D03*
D18*
X104500000Y-104000266D03*
X86500000Y-128267478D03*
D20*
X81026000Y-90932000D03*
X82804000Y-90932000D03*
X84582000Y-90932000D03*
X86360000Y-90932000D03*
X86360000Y-89154000D03*
X84582000Y-89154000D03*
X82804000Y-89154000D03*
X81026000Y-89154000D03*
X81026000Y-87122000D03*
X82804000Y-87122000D03*
X84582000Y-87122000D03*
X86360000Y-87122000D03*
D19*
X91440000Y-86868000D03*
D20*
X83312000Y-81534000D03*
X85090000Y-81534000D03*
X86868000Y-81534000D03*
D18*
X101473000Y-113284000D03*
D19*
X108003411Y-103725057D03*
D18*
X105291353Y-106846343D03*
D19*
X91440000Y-91313000D03*
D18*
X91300000Y-128250000D03*
X107061000Y-137287000D03*
X90932000Y-126492000D03*
X105792150Y-136142850D03*
D19*
X114808000Y-81915000D03*
D18*
X99012291Y-113211397D03*
X112483130Y-104116822D03*
X100441730Y-113235361D03*
X91440000Y-124587000D03*
X103632000Y-138085820D03*
X105537509Y-102507217D03*
D19*
X104394000Y-91694000D03*
X103937763Y-101968280D03*
D18*
X102596601Y-113245201D03*
X107051383Y-113293617D03*
D19*
X91313000Y-90170000D03*
D18*
X105383273Y-109569220D03*
D19*
X91440000Y-101981000D03*
D18*
X105264351Y-105868904D03*
X90424000Y-109220000D03*
X105266323Y-104825601D03*
X89789000Y-108458000D03*
X111506000Y-104902000D03*
X111029780Y-106546698D03*
X100505015Y-118375283D03*
X105181969Y-125258511D03*
X105090994Y-126647361D03*
X107061000Y-118237000D03*
X104643484Y-127516758D03*
X104902000Y-118364000D03*
X103885996Y-118364000D03*
X103632000Y-127889000D03*
X100203000Y-127635000D03*
X102489000Y-118364000D03*
X96450000Y-118050000D03*
X96520000Y-129413000D03*
X100584000Y-126619000D03*
X103378000Y-121412000D03*
X90200000Y-127300000D03*
X98850000Y-126650000D03*
X93859398Y-129369533D03*
X93605312Y-132700000D03*
X89453446Y-132677426D03*
X88100000Y-123900000D03*
X88292526Y-129652290D03*
X109474000Y-130556000D03*
X109849234Y-129387867D03*
X84900000Y-132600000D03*
X104775000Y-132588000D03*
X101473000Y-128578582D03*
X103377992Y-130937000D03*
X103632000Y-132207000D03*
X102489000Y-128156220D03*
D21*
X111252000Y-135636000D02*
X111252000Y-136398000D01*
X109651811Y-134035811D02*
X111252000Y-135636000D01*
X104724189Y-134035811D02*
X109651811Y-134035811D01*
X101960680Y-136799320D02*
X104724189Y-134035811D01*
X97913557Y-136799320D02*
X101960680Y-136799320D01*
X82098740Y-136280422D02*
X83682036Y-134697126D01*
X95811363Y-134697126D02*
X97913557Y-136799320D01*
X83682036Y-134697126D02*
X95811363Y-134697126D01*
X82098740Y-137200000D02*
X82098740Y-136280422D01*
D22*
X111252000Y-135382000D02*
X111252000Y-136398000D01*
X111252000Y-136398000D02*
X111252000Y-136948000D01*
D23*
X102470001Y-133241999D02*
X102870000Y-132842000D01*
X98409705Y-133461705D02*
X102250295Y-133461705D01*
X90255293Y-131671345D02*
X96619345Y-131671345D01*
X96619345Y-131671345D02*
X98409705Y-133461705D01*
X102250295Y-133461705D02*
X102470001Y-133241999D01*
X92755318Y-128553294D02*
X90255293Y-131053319D01*
X93321003Y-128553294D02*
X92755318Y-128553294D01*
X90255293Y-131053319D02*
X90255293Y-131671345D01*
D24*
X82074720Y-119728280D02*
X82931000Y-118872000D01*
X82931000Y-118872000D02*
X82931000Y-113931000D01*
X82931000Y-113931000D02*
X81800000Y-112800000D01*
X80450000Y-119728280D02*
X82074720Y-119728280D01*
D21*
X94996000Y-104775000D02*
X94996000Y-106299000D01*
D25*
X113380422Y-130253740D02*
X114300000Y-130253740D01*
X99187000Y-132731485D02*
X100186515Y-132731485D01*
X102997000Y-129921000D02*
X105077656Y-129921000D01*
X105077656Y-129921000D02*
X107693845Y-132537189D01*
X112289154Y-130253740D02*
X113380422Y-130253740D01*
X100186515Y-132731485D02*
X102997000Y-129921000D01*
X107693845Y-132537189D02*
X110005705Y-132537189D01*
X110005705Y-132537189D02*
X112289154Y-130253740D01*
X113030000Y-128270000D02*
X113030000Y-125524260D01*
X109626433Y-131673567D02*
X113030000Y-128270000D01*
X102743000Y-128905000D02*
X105283000Y-128905000D01*
X99060000Y-128651000D02*
X100203000Y-129794000D01*
X113649761Y-124904499D02*
X114300000Y-124254260D01*
X99060000Y-127889000D02*
X99060000Y-128651000D01*
X98425000Y-127254000D02*
X99060000Y-127889000D01*
X113030000Y-125524260D02*
X113649761Y-124904499D01*
X97536000Y-127635000D02*
X97917000Y-127254000D01*
X96901000Y-127635000D02*
X97536000Y-127635000D01*
X97917000Y-127254000D02*
X98425000Y-127254000D01*
X100203000Y-129794000D02*
X101854000Y-129794000D01*
X105283000Y-128905000D02*
X108051567Y-131673567D01*
X101854000Y-129794000D02*
X102743000Y-128905000D01*
X108051567Y-131673567D02*
X109626433Y-131673567D01*
X102845672Y-129413000D02*
X105180328Y-129413000D01*
X113027223Y-128904999D02*
X113649761Y-128904999D01*
X98171000Y-128143000D02*
X98171000Y-128708685D01*
X105180328Y-129413000D02*
X107872706Y-132105378D01*
X102032861Y-130225811D02*
X102845672Y-129413000D01*
X113649761Y-128904999D02*
X114300000Y-128254760D01*
X99688126Y-130225811D02*
X102032861Y-130225811D01*
X98171000Y-128708685D02*
X99688126Y-130225811D01*
X109826844Y-132105378D02*
X113027223Y-128904999D01*
X107872706Y-132105378D02*
X109826844Y-132105378D01*
D22*
X111125000Y-110617000D02*
X111125000Y-111941992D01*
X111125000Y-111941992D02*
X111125000Y-113411000D01*
X111049589Y-110692411D02*
X111049589Y-111258096D01*
X111049589Y-111258096D02*
X111125000Y-111333507D01*
X111125000Y-111333507D02*
X111125000Y-111941992D01*
X112903000Y-108839000D02*
X112014250Y-109727750D01*
X112014250Y-109727750D02*
X111125000Y-110617000D01*
X111049589Y-110692411D02*
X112014250Y-109727750D01*
X116078000Y-99314000D02*
X116078000Y-100330000D01*
X116123315Y-100711000D02*
X116123315Y-100375315D01*
X116123315Y-100375315D02*
X116078000Y-100330000D01*
X116100000Y-101300000D02*
X116100000Y-100734315D01*
X116100000Y-100734315D02*
X116123315Y-100711000D01*
X112903000Y-105434534D02*
X112903000Y-108839000D01*
X115570000Y-104521000D02*
X113816534Y-104521000D01*
X113816534Y-104521000D02*
X112903000Y-105434534D01*
X116078000Y-104013000D02*
X115570000Y-104521000D01*
X116078000Y-102259534D02*
X116078000Y-104013000D01*
X116100000Y-101300000D02*
X116100000Y-102237534D01*
X116100000Y-102237534D02*
X116078000Y-102259534D01*
D25*
X93980000Y-117653504D02*
X88438305Y-123195199D01*
X88438305Y-123195199D02*
X86004801Y-123195199D01*
X93980000Y-113411000D02*
X93980000Y-117653504D01*
X86004801Y-123195199D02*
X83900000Y-125300000D01*
X104500000Y-104000266D02*
X98539266Y-104000266D01*
X93726000Y-111760000D02*
X94869000Y-112903000D01*
X98539266Y-104000266D02*
X95504000Y-100965000D01*
X95504000Y-100965000D02*
X90932000Y-100965000D01*
X90932000Y-100965000D02*
X88392000Y-103505000D01*
X88392000Y-103505000D02*
X88392000Y-110363000D01*
X89789000Y-111760000D02*
X93726000Y-111760000D01*
X88943166Y-123606834D02*
X88943166Y-125824312D01*
X88392000Y-110363000D02*
X89789000Y-111760000D01*
X94869000Y-112903000D02*
X94869000Y-117681000D01*
X94869000Y-117681000D02*
X88943166Y-123606834D01*
X88943166Y-125824312D02*
X86500000Y-128267478D01*
D21*
X86614000Y-86868000D02*
X86360000Y-87122000D01*
X91440000Y-86868000D02*
X86614000Y-86868000D01*
D24*
X101473000Y-113284000D02*
X101473000Y-114935000D01*
X101473000Y-114935000D02*
X102870000Y-116332000D01*
X102870000Y-116332000D02*
X105791000Y-116332000D01*
X105791000Y-116332000D02*
X108003411Y-114119589D01*
X108003411Y-114119589D02*
X108003411Y-103812411D01*
X108003411Y-103812411D02*
X108003411Y-103725057D01*
X100441730Y-113235361D02*
X100441730Y-115341730D01*
X100441730Y-115341730D02*
X102321000Y-117221000D01*
X112125308Y-103759000D02*
X112483130Y-104116822D01*
X102321000Y-117221000D02*
X106243954Y-117221000D01*
X109093000Y-105029000D02*
X110363000Y-103759000D01*
X106243954Y-117221000D02*
X109093000Y-114371954D01*
X109093000Y-114371954D02*
X109093000Y-105029000D01*
X110363000Y-103759000D02*
X112125308Y-103759000D01*
X104382262Y-101523781D02*
X103937763Y-101968280D01*
X106934000Y-101981000D02*
X106476781Y-101523781D01*
X106476781Y-101523781D02*
X104382262Y-101523781D01*
X105410000Y-111633000D02*
X106934000Y-110109000D01*
X106934000Y-110109000D02*
X106934000Y-101981000D01*
X103643117Y-111633000D02*
X105410000Y-111633000D01*
X102596601Y-112679516D02*
X103643117Y-111633000D01*
X102596601Y-113245201D02*
X102596601Y-112679516D01*
D23*
X90424000Y-109220000D02*
X101473000Y-109220000D01*
X101473000Y-109220000D02*
X104824096Y-105868904D01*
X104824096Y-105868904D02*
X105264351Y-105868904D01*
X89789000Y-108458000D02*
X101346000Y-108458000D01*
X105029000Y-104775000D02*
X105215722Y-104775000D01*
X101346000Y-108458000D02*
X105029000Y-104775000D01*
X105215722Y-104775000D02*
X105266323Y-104825601D01*
D25*
X96012000Y-124988000D02*
X96012000Y-118488000D01*
X96012000Y-118488000D02*
X96450000Y-118050000D01*
X96520000Y-129413000D02*
X95100000Y-127993000D01*
X95100000Y-125900000D02*
X96012000Y-124988000D01*
X95100000Y-127993000D02*
X95100000Y-125900000D01*
G36*
X87884000Y-110363000D02*
X87888579Y-110409704D01*
X87892669Y-110456448D01*
X87893414Y-110459014D01*
X87893675Y-110461671D01*
X87907227Y-110506556D01*
X87920329Y-110551655D01*
X87921560Y-110554029D01*
X87922331Y-110556584D01*
X87944340Y-110597977D01*
X87965955Y-110639677D01*
X87967623Y-110641766D01*
X87968876Y-110644123D01*
X87998552Y-110680509D01*
X88027810Y-110717159D01*
X88031473Y-110720874D01*
X88031538Y-110720954D01*
X88031612Y-110721015D01*
X88032790Y-110722210D01*
X89429790Y-112119210D01*
X89466028Y-112148976D01*
X89501997Y-112179158D01*
X89504339Y-112180446D01*
X89506402Y-112182140D01*
X89547714Y-112204291D01*
X89588878Y-112226921D01*
X89591428Y-112227730D01*
X89593778Y-112228990D01*
X89638624Y-112242701D01*
X89683381Y-112256899D01*
X89686034Y-112257197D01*
X89688590Y-112257978D01*
X89735318Y-112262724D01*
X89781907Y-112267950D01*
X89787125Y-112267987D01*
X89787226Y-112267997D01*
X89787320Y-112267988D01*
X89789000Y-112268000D01*
X93515580Y-112268000D01*
X93882132Y-112634552D01*
X93758424Y-112658151D01*
X93616415Y-112715526D01*
X93488254Y-112799392D01*
X93378824Y-112906554D01*
X93292293Y-113032930D01*
X93231956Y-113173706D01*
X93200112Y-113323522D01*
X93197973Y-113476669D01*
X93225622Y-113627314D01*
X93282005Y-113769721D01*
X93364974Y-113898464D01*
X93471369Y-114008639D01*
X93472000Y-114009078D01*
X93472000Y-117443084D01*
X91889165Y-119025919D01*
X91808160Y-118903997D01*
X91700237Y-118795317D01*
X91573260Y-118709670D01*
X91432065Y-118650318D01*
X91282032Y-118619520D01*
X91128873Y-118618451D01*
X90978424Y-118647151D01*
X90836415Y-118704526D01*
X90708254Y-118788392D01*
X90598824Y-118895554D01*
X90512293Y-119021930D01*
X90451956Y-119162706D01*
X90420112Y-119312522D01*
X90417973Y-119465669D01*
X90445622Y-119616314D01*
X90502005Y-119758721D01*
X90584974Y-119887464D01*
X90691369Y-119997639D01*
X90817138Y-120085051D01*
X90826112Y-120088972D01*
X88227885Y-122687199D01*
X86004801Y-122687199D01*
X85958101Y-122691778D01*
X85911353Y-122695868D01*
X85908787Y-122696613D01*
X85906130Y-122696874D01*
X85861245Y-122710426D01*
X85816146Y-122723528D01*
X85813772Y-122724759D01*
X85811217Y-122725530D01*
X85769785Y-122747560D01*
X85728124Y-122769155D01*
X85726038Y-122770820D01*
X85723678Y-122772075D01*
X85687265Y-122801773D01*
X85650642Y-122831009D01*
X85646927Y-122834672D01*
X85646847Y-122834737D01*
X85646786Y-122834811D01*
X85645591Y-122835989D01*
X83962198Y-124519382D01*
X83828873Y-124518451D01*
X83678424Y-124547151D01*
X83536415Y-124604526D01*
X83408254Y-124688392D01*
X83298824Y-124795554D01*
X83212293Y-124921930D01*
X83158799Y-125046740D01*
X83121053Y-125021280D01*
X82961779Y-124954327D01*
X82792535Y-124919587D01*
X82619766Y-124918380D01*
X82450054Y-124950755D01*
X82289861Y-125015477D01*
X82145291Y-125110081D01*
X82021849Y-125230964D01*
X81924238Y-125373521D01*
X81856176Y-125532323D01*
X81820254Y-125701321D01*
X81817842Y-125874077D01*
X81849031Y-126044012D01*
X81912633Y-126204652D01*
X82006225Y-126349879D01*
X82126243Y-126474162D01*
X82268116Y-126572766D01*
X82426439Y-126641935D01*
X82595181Y-126679036D01*
X82767917Y-126682654D01*
X82938065Y-126652652D01*
X83099145Y-126590173D01*
X83245022Y-126497597D01*
X83370140Y-126378449D01*
X83469732Y-126237268D01*
X83540005Y-126079432D01*
X83557447Y-126002661D01*
X83657490Y-126046369D01*
X83807079Y-126079258D01*
X83960207Y-126082466D01*
X84111043Y-126055870D01*
X84253839Y-126000483D01*
X84383158Y-125918414D01*
X84494074Y-125812791D01*
X84582361Y-125687635D01*
X84644658Y-125547715D01*
X84678591Y-125398359D01*
X84680836Y-125237584D01*
X84757751Y-125160669D01*
X85958973Y-125160669D01*
X85986622Y-125311314D01*
X86043005Y-125453721D01*
X86125974Y-125582464D01*
X86232369Y-125692639D01*
X86358138Y-125780051D01*
X86498490Y-125841369D01*
X86648079Y-125874258D01*
X86801207Y-125877466D01*
X86952043Y-125850870D01*
X87094839Y-125795483D01*
X87224158Y-125713414D01*
X87335074Y-125607791D01*
X87423361Y-125482635D01*
X87485658Y-125342715D01*
X87519591Y-125193359D01*
X87522034Y-125018419D01*
X87492284Y-124868174D01*
X87433919Y-124726569D01*
X87349160Y-124598997D01*
X87241237Y-124490317D01*
X87114260Y-124404670D01*
X86973065Y-124345318D01*
X86823032Y-124314520D01*
X86669873Y-124313451D01*
X86519424Y-124342151D01*
X86377415Y-124399526D01*
X86249254Y-124483392D01*
X86139824Y-124590554D01*
X86053293Y-124716930D01*
X85992956Y-124857706D01*
X85961112Y-125007522D01*
X85958973Y-125160669D01*
X84757751Y-125160669D01*
X86215221Y-123703199D01*
X87343349Y-123703199D01*
X87320112Y-123812522D01*
X87317973Y-123965669D01*
X87345622Y-124116314D01*
X87402005Y-124258721D01*
X87484974Y-124387464D01*
X87591369Y-124497639D01*
X87717138Y-124585051D01*
X87857490Y-124646369D01*
X88007079Y-124679258D01*
X88160207Y-124682466D01*
X88311043Y-124655870D01*
X88435166Y-124607726D01*
X88435166Y-125613891D01*
X86562198Y-127486860D01*
X86428873Y-127485929D01*
X86278424Y-127514629D01*
X86136415Y-127572004D01*
X86008254Y-127655870D01*
X85898824Y-127763032D01*
X85812293Y-127889408D01*
X85751956Y-128030184D01*
X85720112Y-128180000D01*
X85717973Y-128333147D01*
X85745622Y-128483792D01*
X85802005Y-128626199D01*
X85884974Y-128754942D01*
X85991369Y-128865117D01*
X86117138Y-128952529D01*
X86257490Y-129013847D01*
X86407079Y-129046736D01*
X86560207Y-129049944D01*
X86711043Y-129023348D01*
X86853839Y-128967961D01*
X86983158Y-128885892D01*
X87094074Y-128780269D01*
X87182361Y-128655113D01*
X87244658Y-128515193D01*
X87278591Y-128365837D01*
X87280836Y-128205062D01*
X88120229Y-127365669D01*
X89417973Y-127365669D01*
X89445622Y-127516314D01*
X89502005Y-127658721D01*
X89584974Y-127787464D01*
X89691369Y-127897639D01*
X89817138Y-127985051D01*
X89957490Y-128046369D01*
X90107079Y-128079258D01*
X90260207Y-128082466D01*
X90411043Y-128055870D01*
X90553839Y-128000483D01*
X90558449Y-127997558D01*
X90551956Y-128012706D01*
X90520112Y-128162522D01*
X90517973Y-128315669D01*
X90545622Y-128466314D01*
X90602005Y-128608721D01*
X90684974Y-128737464D01*
X90791369Y-128847639D01*
X90917138Y-128935051D01*
X91057490Y-128996369D01*
X91207079Y-129029258D01*
X91360207Y-129032466D01*
X91511043Y-129005870D01*
X91653839Y-128950483D01*
X91783158Y-128868414D01*
X91894074Y-128762791D01*
X91982361Y-128637635D01*
X92044658Y-128497715D01*
X92078591Y-128348359D01*
X92081034Y-128173419D01*
X92051284Y-128023174D01*
X91992919Y-127881569D01*
X91908160Y-127753997D01*
X91800237Y-127645317D01*
X91673260Y-127559670D01*
X91532065Y-127500318D01*
X91382032Y-127469520D01*
X91228873Y-127468451D01*
X91078424Y-127497151D01*
X90942768Y-127551959D01*
X90944658Y-127547715D01*
X90978591Y-127398359D01*
X90980325Y-127274217D01*
X90992207Y-127274466D01*
X91143043Y-127247870D01*
X91285839Y-127192483D01*
X91415158Y-127110414D01*
X91526074Y-127004791D01*
X91614361Y-126879635D01*
X91676658Y-126739715D01*
X91710591Y-126590359D01*
X91713034Y-126415419D01*
X91683284Y-126265174D01*
X91624919Y-126123569D01*
X91540160Y-125995997D01*
X91432237Y-125887317D01*
X91305260Y-125801670D01*
X91164065Y-125742318D01*
X91014032Y-125711520D01*
X90860873Y-125710451D01*
X90710424Y-125739151D01*
X90568415Y-125796526D01*
X90440254Y-125880392D01*
X90330824Y-125987554D01*
X90244293Y-126113930D01*
X90183956Y-126254706D01*
X90152112Y-126404522D01*
X90150519Y-126518602D01*
X90128873Y-126518451D01*
X89978424Y-126547151D01*
X89836415Y-126604526D01*
X89708254Y-126688392D01*
X89598824Y-126795554D01*
X89512293Y-126921930D01*
X89451956Y-127062706D01*
X89420112Y-127212522D01*
X89417973Y-127365669D01*
X88120229Y-127365669D01*
X89302376Y-126183523D01*
X89332163Y-126147260D01*
X89362324Y-126111315D01*
X89363612Y-126108973D01*
X89365306Y-126106910D01*
X89387457Y-126065598D01*
X89410087Y-126024434D01*
X89410896Y-126021884D01*
X89412156Y-126019534D01*
X89425854Y-125974729D01*
X89440065Y-125929931D01*
X89440363Y-125927273D01*
X89441143Y-125924722D01*
X89445880Y-125878089D01*
X89451116Y-125831405D01*
X89451153Y-125826176D01*
X89451162Y-125826086D01*
X89451154Y-125826002D01*
X89451166Y-125824312D01*
X89451166Y-123817254D01*
X89602751Y-123665669D01*
X90417973Y-123665669D01*
X90445622Y-123816314D01*
X90502005Y-123958721D01*
X90584974Y-124087464D01*
X90691369Y-124197639D01*
X90742039Y-124232855D01*
X90691956Y-124349706D01*
X90660112Y-124499522D01*
X90657973Y-124652669D01*
X90685622Y-124803314D01*
X90742005Y-124945721D01*
X90824974Y-125074464D01*
X90931369Y-125184639D01*
X91057138Y-125272051D01*
X91197490Y-125333369D01*
X91347079Y-125366258D01*
X91500207Y-125369466D01*
X91651043Y-125342870D01*
X91793839Y-125287483D01*
X91923158Y-125205414D01*
X92034074Y-125099791D01*
X92122361Y-124974635D01*
X92184658Y-124834715D01*
X92218591Y-124685359D01*
X92221034Y-124510419D01*
X92191284Y-124360174D01*
X92132919Y-124218569D01*
X92048160Y-124090997D01*
X91940237Y-123982317D01*
X91897549Y-123953523D01*
X91944658Y-123847715D01*
X91978591Y-123698359D01*
X91981034Y-123523419D01*
X91951284Y-123373174D01*
X91892919Y-123231569D01*
X91808160Y-123103997D01*
X91700237Y-122995317D01*
X91573260Y-122909670D01*
X91432065Y-122850318D01*
X91282032Y-122819520D01*
X91128873Y-122818451D01*
X90978424Y-122847151D01*
X90836415Y-122904526D01*
X90708254Y-122988392D01*
X90598824Y-123095554D01*
X90512293Y-123221930D01*
X90451956Y-123362706D01*
X90420112Y-123512522D01*
X90417973Y-123665669D01*
X89602751Y-123665669D01*
X92679751Y-120588669D01*
X93832973Y-120588669D01*
X93860622Y-120739314D01*
X93917005Y-120881721D01*
X93999974Y-121010464D01*
X94106369Y-121120639D01*
X94232138Y-121208051D01*
X94372490Y-121269369D01*
X94522079Y-121302258D01*
X94675207Y-121305466D01*
X94826043Y-121278870D01*
X94968839Y-121223483D01*
X95098158Y-121141414D01*
X95209074Y-121035791D01*
X95297361Y-120910635D01*
X95359658Y-120770715D01*
X95393591Y-120621359D01*
X95396034Y-120446419D01*
X95366284Y-120296174D01*
X95307919Y-120154569D01*
X95223160Y-120026997D01*
X95115237Y-119918317D01*
X94988260Y-119832670D01*
X94847065Y-119773318D01*
X94697032Y-119742520D01*
X94543873Y-119741451D01*
X94393424Y-119770151D01*
X94251415Y-119827526D01*
X94123254Y-119911392D01*
X94013824Y-120018554D01*
X93927293Y-120144930D01*
X93866956Y-120285706D01*
X93835112Y-120435522D01*
X93832973Y-120588669D01*
X92679751Y-120588669D01*
X95228210Y-118040210D01*
X95257976Y-118003972D01*
X95288158Y-117968003D01*
X95289446Y-117965661D01*
X95291140Y-117963598D01*
X95313300Y-117922269D01*
X95335921Y-117881122D01*
X95336729Y-117878574D01*
X95337991Y-117876221D01*
X95351711Y-117831344D01*
X95365899Y-117786619D01*
X95366197Y-117783966D01*
X95366978Y-117781410D01*
X95371724Y-117734687D01*
X95376950Y-117688093D01*
X95376987Y-117682873D01*
X95376997Y-117682773D01*
X95376988Y-117682679D01*
X95377000Y-117681000D01*
X95377000Y-114111669D01*
X95864973Y-114111669D01*
X95892622Y-114262314D01*
X95949005Y-114404721D01*
X96031974Y-114533464D01*
X96138369Y-114643639D01*
X96264138Y-114731051D01*
X96404490Y-114792369D01*
X96554079Y-114825258D01*
X96707207Y-114828466D01*
X96858043Y-114801870D01*
X97000839Y-114746483D01*
X97130158Y-114664414D01*
X97241074Y-114558791D01*
X97329361Y-114433635D01*
X97391658Y-114293715D01*
X97425591Y-114144359D01*
X97428034Y-113969419D01*
X97398284Y-113819174D01*
X97339919Y-113677569D01*
X97255160Y-113549997D01*
X97147237Y-113441317D01*
X97020260Y-113355670D01*
X96879065Y-113296318D01*
X96729032Y-113265520D01*
X96575873Y-113264451D01*
X96425424Y-113293151D01*
X96283415Y-113350526D01*
X96155254Y-113434392D01*
X96045824Y-113541554D01*
X95959293Y-113667930D01*
X95898956Y-113808706D01*
X95867112Y-113958522D01*
X95864973Y-114111669D01*
X95377000Y-114111669D01*
X95377000Y-112903000D01*
X95372421Y-112856300D01*
X95368331Y-112809552D01*
X95367586Y-112806986D01*
X95367325Y-112804329D01*
X95353773Y-112759444D01*
X95340671Y-112714345D01*
X95339440Y-112711971D01*
X95338669Y-112709416D01*
X95316639Y-112667984D01*
X95295044Y-112626323D01*
X95293379Y-112624237D01*
X95292124Y-112621877D01*
X95262426Y-112585464D01*
X95233190Y-112548841D01*
X95229527Y-112545126D01*
X95229462Y-112545046D01*
X95229388Y-112544985D01*
X95228210Y-112543790D01*
X94085210Y-111400790D01*
X94048972Y-111371024D01*
X94013003Y-111340842D01*
X94010661Y-111339554D01*
X94008598Y-111337860D01*
X93967251Y-111315690D01*
X93926122Y-111293079D01*
X93923577Y-111292272D01*
X93921222Y-111291009D01*
X93876330Y-111277284D01*
X93831619Y-111263101D01*
X93828966Y-111262803D01*
X93826410Y-111262022D01*
X93779687Y-111257276D01*
X93733093Y-111252050D01*
X93727873Y-111252013D01*
X93727773Y-111252003D01*
X93727679Y-111252012D01*
X93726000Y-111252000D01*
X89999420Y-111252000D01*
X88900000Y-110152580D01*
X88900000Y-110127000D01*
X99508839Y-110127000D01*
X99454956Y-110252718D01*
X99423112Y-110402534D01*
X99420973Y-110555681D01*
X99448622Y-110706326D01*
X99505005Y-110848733D01*
X99587974Y-110977476D01*
X99694369Y-111087651D01*
X99820138Y-111175063D01*
X99960490Y-111236381D01*
X100110079Y-111269270D01*
X100263207Y-111272478D01*
X100414043Y-111245882D01*
X100556839Y-111190495D01*
X100686158Y-111108426D01*
X100797074Y-111002803D01*
X100885361Y-110877647D01*
X100947658Y-110737727D01*
X100981591Y-110588371D01*
X100984034Y-110413431D01*
X100954284Y-110263186D01*
X100898153Y-110127000D01*
X104836151Y-110127000D01*
X104874642Y-110166859D01*
X105000411Y-110254271D01*
X105140763Y-110315589D01*
X105290352Y-110348478D01*
X105443480Y-110351686D01*
X105594316Y-110325090D01*
X105737112Y-110269703D01*
X105866431Y-110187634D01*
X105889628Y-110165544D01*
X105120672Y-110934500D01*
X103643117Y-110934500D01*
X103578913Y-110940795D01*
X103514626Y-110946420D01*
X103511099Y-110947445D01*
X103507444Y-110947803D01*
X103445682Y-110966450D01*
X103383716Y-110984453D01*
X103380454Y-110986144D01*
X103376939Y-110987205D01*
X103319992Y-111017485D01*
X103262686Y-111047189D01*
X103259814Y-111049482D01*
X103256573Y-111051205D01*
X103206597Y-111091964D01*
X103156147Y-111132238D01*
X103151035Y-111137280D01*
X103150930Y-111137365D01*
X103150850Y-111137462D01*
X103149203Y-111139086D01*
X102102687Y-112185602D01*
X102061735Y-112235458D01*
X102020259Y-112284887D01*
X102018490Y-112288105D01*
X102016158Y-112290944D01*
X101985670Y-112347804D01*
X101954585Y-112404348D01*
X101953474Y-112407850D01*
X101951739Y-112411086D01*
X101932884Y-112472760D01*
X101913365Y-112534290D01*
X101912955Y-112537942D01*
X101911882Y-112541453D01*
X101905363Y-112605630D01*
X101902453Y-112631573D01*
X101846260Y-112593670D01*
X101705065Y-112534318D01*
X101555032Y-112503520D01*
X101401873Y-112502451D01*
X101251424Y-112531151D01*
X101109415Y-112588526D01*
X100982549Y-112671545D01*
X100941967Y-112630678D01*
X100814990Y-112545031D01*
X100673795Y-112485679D01*
X100523762Y-112454881D01*
X100370603Y-112453812D01*
X100220154Y-112482512D01*
X100078145Y-112539887D01*
X99949984Y-112623753D01*
X99840554Y-112730915D01*
X99754023Y-112857291D01*
X99732149Y-112908326D01*
X99705210Y-112842966D01*
X99620451Y-112715394D01*
X99512528Y-112606714D01*
X99385551Y-112521067D01*
X99244356Y-112461715D01*
X99094323Y-112430917D01*
X98941164Y-112429848D01*
X98790715Y-112458548D01*
X98648706Y-112515923D01*
X98520545Y-112599789D01*
X98411115Y-112706951D01*
X98324584Y-112833327D01*
X98264247Y-112974103D01*
X98232403Y-113123919D01*
X98230264Y-113277066D01*
X98257913Y-113427711D01*
X98314296Y-113570118D01*
X98397265Y-113698861D01*
X98503660Y-113809036D01*
X98629429Y-113896448D01*
X98769781Y-113957766D01*
X98919370Y-113990655D01*
X99072498Y-113993863D01*
X99223334Y-113967267D01*
X99366130Y-113911880D01*
X99495449Y-113829811D01*
X99606365Y-113724188D01*
X99694652Y-113599032D01*
X99721669Y-113538351D01*
X99743230Y-113592807D01*
X99743230Y-115341730D01*
X99749526Y-115405939D01*
X99755150Y-115470220D01*
X99756174Y-115473746D01*
X99756533Y-115477403D01*
X99775184Y-115539177D01*
X99793183Y-115601131D01*
X99794874Y-115604393D01*
X99795935Y-115607908D01*
X99826215Y-115664855D01*
X99855919Y-115722161D01*
X99858212Y-115725033D01*
X99859935Y-115728274D01*
X99900694Y-115778250D01*
X99940968Y-115828700D01*
X99946010Y-115833812D01*
X99946095Y-115833917D01*
X99946192Y-115833997D01*
X99947816Y-115835644D01*
X101827086Y-117714914D01*
X101876942Y-117755866D01*
X101926371Y-117797342D01*
X101929589Y-117799111D01*
X101932428Y-117801443D01*
X101941951Y-117806549D01*
X101887824Y-117859554D01*
X101801293Y-117985930D01*
X101740956Y-118126706D01*
X101709112Y-118276522D01*
X101706973Y-118429669D01*
X101734622Y-118580314D01*
X101791005Y-118722721D01*
X101873974Y-118851464D01*
X101980369Y-118961639D01*
X102106138Y-119049051D01*
X102246490Y-119110369D01*
X102396079Y-119143258D01*
X102549207Y-119146466D01*
X102700043Y-119119870D01*
X102842839Y-119064483D01*
X102972158Y-118982414D01*
X103083074Y-118876791D01*
X103171361Y-118751635D01*
X103186228Y-118718243D01*
X103188001Y-118722721D01*
X103270970Y-118851464D01*
X103377365Y-118961639D01*
X103503134Y-119049051D01*
X103643486Y-119110369D01*
X103793075Y-119143258D01*
X103946203Y-119146466D01*
X104097039Y-119119870D01*
X104239835Y-119064483D01*
X104369154Y-118982414D01*
X104392220Y-118960449D01*
X104393369Y-118961639D01*
X104519138Y-119049051D01*
X104659490Y-119110369D01*
X104809079Y-119143258D01*
X104962207Y-119146466D01*
X105113043Y-119119870D01*
X105255839Y-119064483D01*
X105385158Y-118982414D01*
X105496074Y-118876791D01*
X105584361Y-118751635D01*
X105646658Y-118611715D01*
X105680591Y-118462359D01*
X105683034Y-118287419D01*
X105653284Y-118137174D01*
X105594919Y-117995569D01*
X105544379Y-117919500D01*
X106243954Y-117919500D01*
X106308163Y-117913204D01*
X106351662Y-117909398D01*
X106312956Y-117999706D01*
X106281112Y-118149522D01*
X106278973Y-118302669D01*
X106306622Y-118453314D01*
X106363005Y-118595721D01*
X106445974Y-118724464D01*
X106552369Y-118834639D01*
X106678138Y-118922051D01*
X106818490Y-118983369D01*
X106968079Y-119016258D01*
X107121207Y-119019466D01*
X107272043Y-118992870D01*
X107414839Y-118937483D01*
X107544158Y-118855414D01*
X107655074Y-118749791D01*
X107743361Y-118624635D01*
X107805658Y-118484715D01*
X107839591Y-118335359D01*
X107842034Y-118160419D01*
X107812284Y-118010174D01*
X107753919Y-117868569D01*
X107669160Y-117740997D01*
X107561237Y-117632317D01*
X107434260Y-117546670D01*
X107293065Y-117487318D01*
X107143032Y-117456520D01*
X106997279Y-117455503D01*
X107084222Y-117368560D01*
X113267157Y-117368560D01*
X113267157Y-118668560D01*
X113271995Y-118729233D01*
X113303864Y-118832140D01*
X113363140Y-118922095D01*
X113445130Y-118991975D01*
X113543342Y-119036246D01*
X113650000Y-119051403D01*
X114950000Y-119051403D01*
X115010673Y-119046565D01*
X115113580Y-119014696D01*
X115203535Y-118955420D01*
X115273415Y-118873430D01*
X115317686Y-118775218D01*
X115332843Y-118668560D01*
X115332843Y-117368560D01*
X115328005Y-117307887D01*
X115296136Y-117204980D01*
X115236860Y-117115025D01*
X115154870Y-117045145D01*
X115056658Y-117000874D01*
X114950000Y-116985717D01*
X114653748Y-116985717D01*
X114767104Y-116941749D01*
X114937819Y-116833410D01*
X115084239Y-116693977D01*
X115200787Y-116528758D01*
X115283025Y-116344049D01*
X115327820Y-116146884D01*
X115331045Y-115915945D01*
X115291772Y-115717606D01*
X115214724Y-115530673D01*
X115102834Y-115362265D01*
X114960364Y-115218797D01*
X114792741Y-115105734D01*
X114606350Y-115027382D01*
X114419015Y-114988928D01*
X114485357Y-114982864D01*
X114670515Y-114928115D01*
X114841434Y-114838295D01*
X114852948Y-114830603D01*
X114915242Y-114675664D01*
X114300000Y-114060421D01*
X113684758Y-114675664D01*
X113747052Y-114830603D01*
X113916692Y-114922816D01*
X114101062Y-114980163D01*
X114186063Y-114989138D01*
X114007497Y-115023201D01*
X113820030Y-115098943D01*
X113650845Y-115209654D01*
X113506386Y-115351119D01*
X113392156Y-115517948D01*
X113312505Y-115703788D01*
X113270467Y-115901559D01*
X113267644Y-116103729D01*
X113304143Y-116302597D01*
X113378574Y-116490588D01*
X113488102Y-116660542D01*
X113628555Y-116805985D01*
X113794583Y-116921378D01*
X113941850Y-116985717D01*
X113650000Y-116985717D01*
X113589327Y-116990555D01*
X113486420Y-117022424D01*
X113396465Y-117081700D01*
X113326585Y-117163690D01*
X113282314Y-117261902D01*
X113267157Y-117368560D01*
X107084222Y-117368560D01*
X109586914Y-114865868D01*
X109627844Y-114816039D01*
X109669342Y-114766583D01*
X109671113Y-114763361D01*
X109673442Y-114760526D01*
X109703910Y-114703704D01*
X109735016Y-114647122D01*
X109736127Y-114643620D01*
X109737862Y-114640384D01*
X109756721Y-114578698D01*
X109776236Y-114517180D01*
X109776646Y-114513529D01*
X109777719Y-114510018D01*
X109784234Y-114445880D01*
X109791432Y-114381707D01*
X109791482Y-114374519D01*
X109791495Y-114374392D01*
X109791484Y-114374274D01*
X109791500Y-114371954D01*
X109791500Y-110127000D01*
X110369052Y-110127000D01*
X110368857Y-110127238D01*
X110316063Y-110190155D01*
X110313810Y-110194253D01*
X110310844Y-110197864D01*
X110272038Y-110270236D01*
X110232478Y-110342197D01*
X110231065Y-110346651D01*
X110228855Y-110350773D01*
X110204838Y-110429328D01*
X110180016Y-110507578D01*
X110179495Y-110512223D01*
X110178128Y-110516694D01*
X110169830Y-110598391D01*
X110160676Y-110679999D01*
X110160612Y-110689141D01*
X110160595Y-110689308D01*
X110160610Y-110689463D01*
X110160589Y-110692411D01*
X110160589Y-111258096D01*
X110168600Y-111339800D01*
X110175759Y-111421629D01*
X110177064Y-111426121D01*
X110177520Y-111430770D01*
X110201254Y-111509380D01*
X110224166Y-111588242D01*
X110226316Y-111592390D01*
X110227668Y-111596868D01*
X110236000Y-111612538D01*
X110236000Y-113411000D01*
X110252931Y-113583674D01*
X110303079Y-113749772D01*
X110384533Y-113902965D01*
X110494192Y-114037420D01*
X110627878Y-114148014D01*
X110780499Y-114230536D01*
X110946242Y-114281842D01*
X111118794Y-114299978D01*
X111291582Y-114284253D01*
X111458025Y-114235266D01*
X111611784Y-114154883D01*
X111747001Y-114046166D01*
X111778525Y-114008597D01*
X113315082Y-114008597D01*
X113332656Y-114200877D01*
X113387405Y-114386035D01*
X113477225Y-114556954D01*
X113484917Y-114568468D01*
X113639856Y-114630762D01*
X114255099Y-114015520D01*
X114344901Y-114015520D01*
X114960144Y-114630762D01*
X115115083Y-114568468D01*
X115207296Y-114398828D01*
X115264643Y-114214458D01*
X115284918Y-114022443D01*
X115267344Y-113830163D01*
X115212595Y-113645005D01*
X115122775Y-113474086D01*
X115115083Y-113462572D01*
X114960144Y-113400278D01*
X114344901Y-114015520D01*
X114255099Y-114015520D01*
X113639856Y-113400278D01*
X113484917Y-113462572D01*
X113392704Y-113632212D01*
X113335357Y-113816582D01*
X113315082Y-114008597D01*
X111778525Y-114008597D01*
X111858526Y-113913256D01*
X111942111Y-113761214D01*
X111994573Y-113595833D01*
X112013913Y-113423412D01*
X112014000Y-113411000D01*
X112014000Y-110985236D01*
X112872236Y-110127000D01*
X113272286Y-110127000D01*
X113304143Y-110300577D01*
X113378574Y-110488568D01*
X113488102Y-110658522D01*
X113628555Y-110803965D01*
X113794583Y-110919358D01*
X113979862Y-111000304D01*
X114047244Y-111015119D01*
X114007497Y-111022701D01*
X113820030Y-111098443D01*
X113650845Y-111209154D01*
X113506386Y-111350619D01*
X113392156Y-111517448D01*
X113312505Y-111703288D01*
X113270467Y-111901059D01*
X113267644Y-112103229D01*
X113304143Y-112302097D01*
X113378574Y-112490088D01*
X113488102Y-112660042D01*
X113628555Y-112805485D01*
X113794583Y-112920878D01*
X113979862Y-113001824D01*
X114168356Y-113043267D01*
X114114643Y-113048176D01*
X113929485Y-113102925D01*
X113758566Y-113192745D01*
X113747052Y-113200437D01*
X113684758Y-113355376D01*
X114300000Y-113970619D01*
X114915242Y-113355376D01*
X114852948Y-113200437D01*
X114683308Y-113108224D01*
X114498938Y-113050877D01*
X114419253Y-113042463D01*
X114578598Y-113014366D01*
X114767104Y-112941249D01*
X114937819Y-112832910D01*
X115084239Y-112693477D01*
X115200787Y-112528258D01*
X115283025Y-112343549D01*
X115327820Y-112146384D01*
X115331045Y-111915445D01*
X115291772Y-111717106D01*
X115214724Y-111530173D01*
X115102834Y-111361765D01*
X114960364Y-111218297D01*
X114792741Y-111105234D01*
X114606350Y-111026882D01*
X114556744Y-111016699D01*
X114578598Y-111012846D01*
X114767104Y-110939729D01*
X114937819Y-110831390D01*
X115084239Y-110691957D01*
X115200787Y-110526738D01*
X115283025Y-110342029D01*
X115327820Y-110144864D01*
X115328069Y-110127000D01*
X116544000Y-110127000D01*
X116544000Y-138873000D01*
X111435713Y-138873000D01*
X111434909Y-138870337D01*
X111422796Y-138829179D01*
X111422055Y-138827761D01*
X111421593Y-138826232D01*
X111401471Y-138788388D01*
X111381565Y-138750311D01*
X111380562Y-138749063D01*
X111379812Y-138747653D01*
X111352716Y-138714431D01*
X111325800Y-138680954D01*
X111324574Y-138679925D01*
X111323564Y-138678687D01*
X111290529Y-138651358D01*
X111257625Y-138623748D01*
X111256223Y-138622977D01*
X111254992Y-138621959D01*
X111217277Y-138601566D01*
X111179638Y-138580874D01*
X111178113Y-138580390D01*
X111176707Y-138579630D01*
X111135711Y-138566940D01*
X111094808Y-138553965D01*
X111093219Y-138553787D01*
X111091692Y-138553314D01*
X111049044Y-138548831D01*
X111006367Y-138544044D01*
X111003295Y-138544023D01*
X111003183Y-138544011D01*
X111003071Y-138544021D01*
X111000000Y-138544000D01*
X104264597Y-138544000D01*
X104314361Y-138473455D01*
X104376658Y-138333535D01*
X104410591Y-138184179D01*
X104413034Y-138009239D01*
X104383284Y-137858994D01*
X104324919Y-137717389D01*
X104240160Y-137589817D01*
X104132237Y-137481137D01*
X104005260Y-137395490D01*
X103864065Y-137336138D01*
X103714032Y-137305340D01*
X103560873Y-137304271D01*
X103410424Y-137332971D01*
X103268415Y-137390346D01*
X103140254Y-137474212D01*
X103030824Y-137581374D01*
X102944293Y-137707750D01*
X102883956Y-137848526D01*
X102852112Y-137998342D01*
X102849973Y-138151489D01*
X102877622Y-138302134D01*
X102934005Y-138444541D01*
X102998102Y-138544000D01*
X102232597Y-138544000D01*
X102282361Y-138473455D01*
X102344658Y-138333535D01*
X102378591Y-138184179D01*
X102381034Y-138009239D01*
X102351284Y-137858994D01*
X102307042Y-137751653D01*
X102337990Y-137742662D01*
X102342734Y-137740203D01*
X102347848Y-137738659D01*
X102430733Y-137694588D01*
X102514033Y-137651409D01*
X102518206Y-137648078D01*
X102522926Y-137645568D01*
X102595662Y-137586246D01*
X102668999Y-137527702D01*
X102676432Y-137520371D01*
X102676588Y-137520244D01*
X102676707Y-137520100D01*
X102679100Y-137517740D01*
X105145030Y-135051811D01*
X106873953Y-135051811D01*
X106836916Y-135066775D01*
X106708755Y-135150641D01*
X106599325Y-135257803D01*
X106512794Y-135384179D01*
X106452457Y-135524955D01*
X106420613Y-135674771D01*
X106420577Y-135677351D01*
X106400310Y-135646847D01*
X106292387Y-135538167D01*
X106165410Y-135452520D01*
X106024215Y-135393168D01*
X105874182Y-135362370D01*
X105721023Y-135361301D01*
X105570574Y-135390001D01*
X105428565Y-135447376D01*
X105300404Y-135531242D01*
X105190974Y-135638404D01*
X105104443Y-135764780D01*
X105044106Y-135905556D01*
X105012262Y-136055372D01*
X105010123Y-136208519D01*
X105037772Y-136359164D01*
X105094155Y-136501571D01*
X105177124Y-136630314D01*
X105283519Y-136740489D01*
X105409288Y-136827901D01*
X105549640Y-136889219D01*
X105699229Y-136922108D01*
X105852357Y-136925316D01*
X106003193Y-136898720D01*
X106145989Y-136843333D01*
X106275308Y-136761264D01*
X106386224Y-136655641D01*
X106474511Y-136530485D01*
X106536808Y-136390565D01*
X106570741Y-136241209D01*
X106570937Y-136227155D01*
X106585475Y-136249713D01*
X106691870Y-136359888D01*
X106817639Y-136447300D01*
X106957991Y-136508618D01*
X106965090Y-136510179D01*
X106839424Y-136534151D01*
X106697415Y-136591526D01*
X106569254Y-136675392D01*
X106459824Y-136782554D01*
X106373293Y-136908930D01*
X106312956Y-137049706D01*
X106281112Y-137199522D01*
X106278973Y-137352669D01*
X106306622Y-137503314D01*
X106363005Y-137645721D01*
X106445974Y-137774464D01*
X106552369Y-137884639D01*
X106678138Y-137972051D01*
X106818490Y-138033369D01*
X106968079Y-138066258D01*
X107121207Y-138069466D01*
X107272043Y-138042870D01*
X107414839Y-137987483D01*
X107544158Y-137905414D01*
X107655074Y-137799791D01*
X107714295Y-137715839D01*
X107759971Y-137801744D01*
X107900961Y-137974614D01*
X108072843Y-138116807D01*
X108269070Y-138222907D01*
X108482168Y-138288872D01*
X108704020Y-138312189D01*
X108926177Y-138291971D01*
X109140175Y-138228988D01*
X109337865Y-138125639D01*
X109511715Y-137985859D01*
X109655105Y-137814974D01*
X109762572Y-137619493D01*
X109830023Y-137406860D01*
X109854889Y-137185176D01*
X109855000Y-137169217D01*
X109855000Y-135675840D01*
X110109000Y-135929840D01*
X110109000Y-137169217D01*
X110130768Y-137391227D01*
X110195244Y-137604780D01*
X110299971Y-137801744D01*
X110440961Y-137974614D01*
X110612843Y-138116807D01*
X110809070Y-138222907D01*
X111022168Y-138288872D01*
X111244020Y-138312189D01*
X111466177Y-138291971D01*
X111680175Y-138228988D01*
X111877865Y-138125639D01*
X112051715Y-137985859D01*
X112195105Y-137814974D01*
X112302572Y-137619493D01*
X112370023Y-137406860D01*
X112394889Y-137185176D01*
X112395000Y-137169217D01*
X112395000Y-136429750D01*
X112699800Y-136429750D01*
X112699800Y-137191750D01*
X112726980Y-137404218D01*
X112795089Y-137607301D01*
X112901508Y-137793194D01*
X113042149Y-137954754D01*
X113211606Y-138085772D01*
X113403367Y-138181213D01*
X113589855Y-138233330D01*
X113760250Y-138169151D01*
X113760250Y-136429750D01*
X113823750Y-136429750D01*
X113823750Y-138169151D01*
X113994145Y-138233330D01*
X114180633Y-138181213D01*
X114372394Y-138085772D01*
X114541851Y-137954754D01*
X114682492Y-137793194D01*
X114788911Y-137607301D01*
X114857020Y-137404218D01*
X114884200Y-137191750D01*
X114884200Y-136429750D01*
X113823750Y-136429750D01*
X113760250Y-136429750D01*
X112699800Y-136429750D01*
X112395000Y-136429750D01*
X112395000Y-135626783D01*
X112392791Y-135604250D01*
X112699800Y-135604250D01*
X112699800Y-136366250D01*
X113760250Y-136366250D01*
X113760250Y-134626849D01*
X113823750Y-134626849D01*
X113823750Y-136366250D01*
X114884200Y-136366250D01*
X114884200Y-135604250D01*
X114857020Y-135391782D01*
X114788911Y-135188699D01*
X114682492Y-135002806D01*
X114541851Y-134841246D01*
X114372394Y-134710228D01*
X114180633Y-134614787D01*
X113994145Y-134562670D01*
X113823750Y-134626849D01*
X113760250Y-134626849D01*
X113589855Y-134562670D01*
X113403367Y-134614787D01*
X113211606Y-134710228D01*
X113042149Y-134841246D01*
X112901508Y-135002806D01*
X112795089Y-135188699D01*
X112726980Y-135391782D01*
X112699800Y-135604250D01*
X112392791Y-135604250D01*
X112373232Y-135404773D01*
X112308756Y-135191220D01*
X112204029Y-134994256D01*
X112063039Y-134821386D01*
X111891157Y-134679193D01*
X111694930Y-134573093D01*
X111594999Y-134542159D01*
X110370231Y-133317391D01*
X110297725Y-133257834D01*
X110225817Y-133197496D01*
X110221136Y-133194922D01*
X110217007Y-133191531D01*
X110134299Y-133147183D01*
X110052056Y-133101969D01*
X110046963Y-133100353D01*
X110042255Y-133097829D01*
X109952484Y-133070383D01*
X109873061Y-133045189D01*
X110005705Y-133045189D01*
X110052409Y-133040610D01*
X110099153Y-133036520D01*
X110101719Y-133035775D01*
X110104376Y-133035514D01*
X110149261Y-133021962D01*
X110194360Y-133008860D01*
X110196734Y-133007629D01*
X110199289Y-133006858D01*
X110240682Y-132984849D01*
X110282382Y-132963234D01*
X110284471Y-132961566D01*
X110286828Y-132960313D01*
X110323214Y-132930637D01*
X110359864Y-132901379D01*
X110363579Y-132897716D01*
X110363659Y-132897651D01*
X110363720Y-132897577D01*
X110364915Y-132896399D01*
X111665113Y-131596202D01*
X111696993Y-131676721D01*
X111779962Y-131805464D01*
X111886357Y-131915639D01*
X112012126Y-132003051D01*
X112152478Y-132064369D01*
X112302067Y-132097258D01*
X112455195Y-132100466D01*
X112606031Y-132073870D01*
X112748827Y-132018483D01*
X112878146Y-131936414D01*
X112989062Y-131830791D01*
X113077349Y-131705635D01*
X113139646Y-131565715D01*
X113173579Y-131416359D01*
X113176022Y-131241419D01*
X113146272Y-131091174D01*
X113087907Y-130949569D01*
X113003148Y-130821997D01*
X112943311Y-130761740D01*
X113400491Y-130761740D01*
X113487913Y-130897392D01*
X113628399Y-131042869D01*
X113794465Y-131158288D01*
X113979787Y-131239253D01*
X114046052Y-131253822D01*
X114007429Y-131261190D01*
X113819919Y-131336949D01*
X113650694Y-131447687D01*
X113506202Y-131589184D01*
X113391945Y-131756052D01*
X113312275Y-131941935D01*
X113270228Y-132139753D01*
X113267404Y-132341969D01*
X113303912Y-132540884D01*
X113378360Y-132728919D01*
X113487913Y-132898912D01*
X113628399Y-133044389D01*
X113794465Y-133159808D01*
X113979787Y-133240773D01*
X114177306Y-133284201D01*
X114379499Y-133288436D01*
X114578663Y-133253318D01*
X114767213Y-133180184D01*
X114937967Y-133071820D01*
X115084421Y-132932354D01*
X115200997Y-132767097D01*
X115283254Y-132582345D01*
X115328059Y-132385134D01*
X115331284Y-132154142D01*
X115292003Y-131955757D01*
X115214937Y-131768779D01*
X115103021Y-131600332D01*
X114960518Y-131456831D01*
X114792856Y-131343742D01*
X114606422Y-131265372D01*
X114558024Y-131255437D01*
X114578663Y-131251798D01*
X114767213Y-131178664D01*
X114937967Y-131070300D01*
X115084421Y-130930834D01*
X115200997Y-130765577D01*
X115283254Y-130580825D01*
X115328059Y-130383614D01*
X115331284Y-130152622D01*
X115292003Y-129954237D01*
X115214937Y-129767259D01*
X115103021Y-129598812D01*
X114960518Y-129455311D01*
X114792856Y-129342222D01*
X114606422Y-129263852D01*
X114564680Y-129255284D01*
X114578663Y-129252818D01*
X114767213Y-129179684D01*
X114937967Y-129071320D01*
X115084421Y-128931854D01*
X115200997Y-128766597D01*
X115283254Y-128581845D01*
X115328059Y-128384634D01*
X115331284Y-128153642D01*
X115292003Y-127955257D01*
X115214937Y-127768279D01*
X115103021Y-127599832D01*
X114960518Y-127456331D01*
X114792856Y-127343242D01*
X114606422Y-127264872D01*
X114420653Y-127226739D01*
X114485398Y-127220822D01*
X114670602Y-127166061D01*
X114841563Y-127076220D01*
X114853089Y-127068519D01*
X114915413Y-126913554D01*
X114300000Y-126298141D01*
X113684587Y-126913554D01*
X113746911Y-127068519D01*
X113916592Y-127160756D01*
X114101007Y-127218118D01*
X114184424Y-127226927D01*
X114007429Y-127260690D01*
X113819919Y-127336449D01*
X113650694Y-127447187D01*
X113538000Y-127557545D01*
X113538000Y-126827757D01*
X113639686Y-126868653D01*
X114255099Y-126253240D01*
X114344901Y-126253240D01*
X114960314Y-126868653D01*
X115115279Y-126806329D01*
X115207516Y-126636648D01*
X115264878Y-126452233D01*
X115285160Y-126260171D01*
X115267582Y-126067842D01*
X115212821Y-125882638D01*
X115122980Y-125711677D01*
X115115279Y-125700151D01*
X114960314Y-125637827D01*
X114344901Y-126253240D01*
X114255099Y-126253240D01*
X114240957Y-126239098D01*
X114285858Y-126194197D01*
X114300000Y-126208339D01*
X114915413Y-125592926D01*
X114853089Y-125437961D01*
X114683408Y-125345724D01*
X114498993Y-125288362D01*
X114420973Y-125280123D01*
X114578663Y-125252318D01*
X114767213Y-125179184D01*
X114937967Y-125070820D01*
X115084421Y-124931354D01*
X115200997Y-124766097D01*
X115283254Y-124581345D01*
X115328059Y-124384134D01*
X115331284Y-124153142D01*
X115292003Y-123954757D01*
X115214937Y-123767779D01*
X115103021Y-123599332D01*
X114960518Y-123455831D01*
X114792856Y-123342742D01*
X114606422Y-123264372D01*
X114558024Y-123254437D01*
X114578663Y-123250798D01*
X114767213Y-123177664D01*
X114937967Y-123069300D01*
X115084421Y-122929834D01*
X115200997Y-122764577D01*
X115283254Y-122579825D01*
X115328059Y-122382614D01*
X115331284Y-122151622D01*
X115292003Y-121953237D01*
X115214937Y-121766259D01*
X115103021Y-121597812D01*
X114960518Y-121454311D01*
X114792856Y-121341222D01*
X114606422Y-121262852D01*
X114408316Y-121222187D01*
X114206084Y-121220775D01*
X114007429Y-121258670D01*
X113819919Y-121334429D01*
X113650694Y-121445167D01*
X113506202Y-121586664D01*
X113391945Y-121753532D01*
X113312275Y-121939415D01*
X113270228Y-122137233D01*
X113267404Y-122339449D01*
X113303912Y-122538364D01*
X113378360Y-122726399D01*
X113487913Y-122896392D01*
X113628399Y-123041869D01*
X113794465Y-123157288D01*
X113979787Y-123238253D01*
X114046052Y-123252822D01*
X114007429Y-123260190D01*
X113819919Y-123335949D01*
X113650694Y-123446687D01*
X113506202Y-123588184D01*
X113391945Y-123755052D01*
X113312275Y-123940935D01*
X113270228Y-124138753D01*
X113267404Y-124340969D01*
X113302678Y-124533162D01*
X113290621Y-124545219D01*
X113290550Y-124545289D01*
X112670790Y-125165050D01*
X112641024Y-125201288D01*
X112610842Y-125237257D01*
X112609554Y-125239599D01*
X112607860Y-125241662D01*
X112585690Y-125283009D01*
X112563079Y-125324138D01*
X112562272Y-125326683D01*
X112561009Y-125329038D01*
X112547284Y-125373930D01*
X112533101Y-125418641D01*
X112532803Y-125421294D01*
X112532022Y-125423850D01*
X112527276Y-125470573D01*
X112522050Y-125517167D01*
X112522013Y-125522387D01*
X112522003Y-125522487D01*
X112522012Y-125522581D01*
X112522000Y-125524260D01*
X112522000Y-128059579D01*
X110229767Y-130351813D01*
X110225284Y-130329174D01*
X110166919Y-130187569D01*
X110121913Y-130119830D01*
X110203073Y-130088350D01*
X110332392Y-130006281D01*
X110443308Y-129900658D01*
X110531595Y-129775502D01*
X110593892Y-129635582D01*
X110627825Y-129486226D01*
X110630268Y-129311286D01*
X110600518Y-129161041D01*
X110542153Y-129019436D01*
X110457394Y-128891864D01*
X110349471Y-128783184D01*
X110222494Y-128697537D01*
X110081299Y-128638185D01*
X109931266Y-128607387D01*
X109778107Y-128606318D01*
X109627658Y-128635018D01*
X109485649Y-128692393D01*
X109357488Y-128776259D01*
X109248058Y-128883421D01*
X109161527Y-129009797D01*
X109101190Y-129150573D01*
X109069346Y-129300389D01*
X109067207Y-129453536D01*
X109094856Y-129604181D01*
X109151239Y-129746588D01*
X109201064Y-129823902D01*
X109110415Y-129860526D01*
X108982254Y-129944392D01*
X108872824Y-130051554D01*
X108786293Y-130177930D01*
X108725956Y-130318706D01*
X108694112Y-130468522D01*
X108691973Y-130621669D01*
X108719622Y-130772314D01*
X108776005Y-130914721D01*
X108858974Y-131043464D01*
X108965369Y-131153639D01*
X108982531Y-131165567D01*
X108261987Y-131165567D01*
X105642210Y-128545790D01*
X105605972Y-128516024D01*
X105570003Y-128485842D01*
X105567661Y-128484554D01*
X105565598Y-128482860D01*
X105524251Y-128460690D01*
X105483122Y-128438079D01*
X105480577Y-128437272D01*
X105478222Y-128436009D01*
X105433330Y-128422284D01*
X105388619Y-128408101D01*
X105385966Y-128407803D01*
X105383410Y-128407022D01*
X105336687Y-128402276D01*
X105290093Y-128397050D01*
X105284873Y-128397013D01*
X105284773Y-128397003D01*
X105284679Y-128397012D01*
X105283000Y-128397000D01*
X104229454Y-128397000D01*
X104230086Y-128396104D01*
X107504843Y-128396104D01*
X107532492Y-128546749D01*
X107588875Y-128689156D01*
X107671844Y-128817899D01*
X107778239Y-128928074D01*
X107904008Y-129015486D01*
X108044360Y-129076804D01*
X108193949Y-129109693D01*
X108347077Y-129112901D01*
X108497913Y-129086305D01*
X108640709Y-129030918D01*
X108770028Y-128948849D01*
X108880944Y-128843226D01*
X108969231Y-128718070D01*
X109031528Y-128578150D01*
X109065461Y-128428794D01*
X109067750Y-128264910D01*
X109195324Y-128267583D01*
X109346160Y-128240987D01*
X109488956Y-128185600D01*
X109618275Y-128103531D01*
X109729191Y-127997908D01*
X109817478Y-127872752D01*
X109879775Y-127732832D01*
X109913708Y-127583476D01*
X109916151Y-127408536D01*
X109886401Y-127258291D01*
X109828036Y-127116686D01*
X109743277Y-126989114D01*
X109635354Y-126880434D01*
X109508377Y-126794787D01*
X109367182Y-126735435D01*
X109217149Y-126704637D01*
X109063990Y-126703568D01*
X108913541Y-126732268D01*
X108771532Y-126789643D01*
X108643371Y-126873509D01*
X108533941Y-126980671D01*
X108447410Y-127107047D01*
X108387073Y-127247823D01*
X108355229Y-127397639D01*
X108353103Y-127549845D01*
X108215743Y-127548886D01*
X108065294Y-127577586D01*
X107923285Y-127634961D01*
X107795124Y-127718827D01*
X107685694Y-127825989D01*
X107599163Y-127952365D01*
X107538826Y-128093141D01*
X107506982Y-128242957D01*
X107504843Y-128396104D01*
X104230086Y-128396104D01*
X104314361Y-128276635D01*
X104333500Y-128233648D01*
X104400974Y-128263127D01*
X104550563Y-128296016D01*
X104703691Y-128299224D01*
X104854527Y-128272628D01*
X104997323Y-128217241D01*
X105126642Y-128135172D01*
X105237558Y-128029549D01*
X105325845Y-127904393D01*
X105388142Y-127764473D01*
X105422075Y-127615117D01*
X105424518Y-127440177D01*
X105408988Y-127361747D01*
X105444833Y-127347844D01*
X105574152Y-127265775D01*
X105685068Y-127160152D01*
X105702425Y-127135547D01*
X105802486Y-127179262D01*
X105952075Y-127212151D01*
X106105203Y-127215359D01*
X106256039Y-127188763D01*
X106398835Y-127133376D01*
X106528154Y-127051307D01*
X106639070Y-126945684D01*
X106727357Y-126820528D01*
X106789654Y-126680608D01*
X106823587Y-126531252D01*
X106826030Y-126356312D01*
X106796280Y-126206067D01*
X106737915Y-126064462D01*
X106653156Y-125936890D01*
X106545233Y-125828210D01*
X106418256Y-125742563D01*
X106277061Y-125683211D01*
X106127028Y-125652413D01*
X105973869Y-125651344D01*
X105843061Y-125676297D01*
X105864330Y-125646146D01*
X105926627Y-125506226D01*
X105960560Y-125356870D01*
X105963003Y-125181930D01*
X105933253Y-125031685D01*
X105874888Y-124890080D01*
X105790129Y-124762508D01*
X105682206Y-124653828D01*
X105555229Y-124568181D01*
X105414034Y-124508829D01*
X105264001Y-124478031D01*
X105110842Y-124476962D01*
X104960393Y-124505662D01*
X104818384Y-124563037D01*
X104690223Y-124646903D01*
X104580793Y-124754065D01*
X104494262Y-124880441D01*
X104433925Y-125021217D01*
X104402081Y-125171033D01*
X104399942Y-125324180D01*
X104427591Y-125474825D01*
X104483974Y-125617232D01*
X104566943Y-125745975D01*
X104673338Y-125856150D01*
X104780325Y-125930508D01*
X104727409Y-125951887D01*
X104599248Y-126035753D01*
X104489818Y-126142915D01*
X104403287Y-126269291D01*
X104342950Y-126410067D01*
X104311106Y-126559883D01*
X104308967Y-126713030D01*
X104325457Y-126802877D01*
X104279899Y-126821284D01*
X104151738Y-126905150D01*
X104042308Y-127012312D01*
X103955777Y-127138688D01*
X103941547Y-127171888D01*
X103864065Y-127139318D01*
X103714032Y-127108520D01*
X103560873Y-127107451D01*
X103410424Y-127136151D01*
X103268415Y-127193526D01*
X103140254Y-127277392D01*
X103030824Y-127384554D01*
X102944293Y-127510930D01*
X102940871Y-127518914D01*
X102862260Y-127465890D01*
X102721065Y-127406538D01*
X102571032Y-127375740D01*
X102417873Y-127374671D01*
X102267424Y-127403371D01*
X102125415Y-127460746D01*
X101997254Y-127544612D01*
X101887824Y-127651774D01*
X101801293Y-127778150D01*
X101768172Y-127855427D01*
X101705065Y-127828900D01*
X101555032Y-127798102D01*
X101401873Y-127797033D01*
X101251424Y-127825733D01*
X101109415Y-127883108D01*
X100981254Y-127966974D01*
X100871824Y-128074136D01*
X100785293Y-128200512D01*
X100724956Y-128341288D01*
X100693112Y-128491104D01*
X100690973Y-128644251D01*
X100718622Y-128794896D01*
X100775005Y-128937303D01*
X100857974Y-129066046D01*
X100964369Y-129176221D01*
X101090138Y-129263633D01*
X101141334Y-129286000D01*
X100413420Y-129286000D01*
X99568000Y-128440580D01*
X99568000Y-128091470D01*
X99587974Y-128122464D01*
X99694369Y-128232639D01*
X99820138Y-128320051D01*
X99960490Y-128381369D01*
X100110079Y-128414258D01*
X100263207Y-128417466D01*
X100414043Y-128390870D01*
X100556839Y-128335483D01*
X100686158Y-128253414D01*
X100797074Y-128147791D01*
X100885361Y-128022635D01*
X100947658Y-127882715D01*
X100981591Y-127733359D01*
X100984034Y-127558419D01*
X100954284Y-127408174D01*
X100920500Y-127326208D01*
X100937839Y-127319483D01*
X101067158Y-127237414D01*
X101178074Y-127131791D01*
X101266361Y-127006635D01*
X101328658Y-126866715D01*
X101362591Y-126717359D01*
X101365034Y-126542419D01*
X101335284Y-126392174D01*
X101276919Y-126250569D01*
X101192160Y-126122997D01*
X101084237Y-126014317D01*
X100957260Y-125928670D01*
X100816065Y-125869318D01*
X100666032Y-125838520D01*
X100512873Y-125837451D01*
X100362424Y-125866151D01*
X100220415Y-125923526D01*
X100092254Y-126007392D01*
X99982824Y-126114554D01*
X99896293Y-126240930D01*
X99835956Y-126381706D01*
X99804112Y-126531522D01*
X99801973Y-126684669D01*
X99829622Y-126835314D01*
X99866543Y-126928566D01*
X99839415Y-126939526D01*
X99711254Y-127023392D01*
X99601824Y-127130554D01*
X99515293Y-127256930D01*
X99454956Y-127397706D01*
X99425468Y-127536440D01*
X99424191Y-127534841D01*
X99420523Y-127531120D01*
X99420462Y-127531046D01*
X99420393Y-127530989D01*
X99419211Y-127529790D01*
X99225902Y-127336481D01*
X99333158Y-127268414D01*
X99444074Y-127162791D01*
X99532361Y-127037635D01*
X99594658Y-126897715D01*
X99628591Y-126748359D01*
X99631034Y-126573419D01*
X99601284Y-126423174D01*
X99542919Y-126281569D01*
X99458160Y-126153997D01*
X99350237Y-126045317D01*
X99223260Y-125959670D01*
X99082065Y-125900318D01*
X98932032Y-125869520D01*
X98778873Y-125868451D01*
X98628424Y-125897151D01*
X98486415Y-125954526D01*
X98358254Y-126038392D01*
X98248824Y-126145554D01*
X98162293Y-126271930D01*
X98106851Y-126401286D01*
X98101284Y-126373174D01*
X98042919Y-126231569D01*
X97958160Y-126103997D01*
X97850237Y-125995317D01*
X97723260Y-125909670D01*
X97582065Y-125850318D01*
X97432032Y-125819520D01*
X97278873Y-125818451D01*
X97128424Y-125847151D01*
X96986415Y-125904526D01*
X96858254Y-125988392D01*
X96748824Y-126095554D01*
X96662293Y-126221930D01*
X96627166Y-126303886D01*
X96601284Y-126173174D01*
X96542919Y-126031569D01*
X96458160Y-125903997D01*
X96350237Y-125795317D01*
X96223260Y-125709670D01*
X96082065Y-125650318D01*
X96070480Y-125647940D01*
X96371210Y-125347210D01*
X96400976Y-125310972D01*
X96431158Y-125275003D01*
X96432446Y-125272661D01*
X96434140Y-125270598D01*
X96456300Y-125229269D01*
X96478921Y-125188122D01*
X96479729Y-125185574D01*
X96480991Y-125183221D01*
X96494711Y-125138344D01*
X96508899Y-125093619D01*
X96509197Y-125090966D01*
X96509978Y-125088410D01*
X96514724Y-125041687D01*
X96519950Y-124995093D01*
X96519987Y-124989873D01*
X96519997Y-124989773D01*
X96519988Y-124989679D01*
X96520000Y-124988000D01*
X96520000Y-123399922D01*
X99350204Y-123399922D01*
X99377853Y-123550567D01*
X99434236Y-123692974D01*
X99517205Y-123821717D01*
X99623600Y-123931892D01*
X99749369Y-124019304D01*
X99889721Y-124080622D01*
X100039310Y-124113511D01*
X100192438Y-124116719D01*
X100343274Y-124090123D01*
X100486070Y-124034736D01*
X100615389Y-123952667D01*
X100726305Y-123847044D01*
X100814592Y-123721888D01*
X100876889Y-123581968D01*
X100910822Y-123432612D01*
X100912201Y-123333887D01*
X101042741Y-123310870D01*
X101185537Y-123255483D01*
X101314856Y-123173414D01*
X101425772Y-123067791D01*
X101514059Y-122942635D01*
X101576356Y-122802715D01*
X101610289Y-122653359D01*
X101612732Y-122478419D01*
X101582982Y-122328174D01*
X101524617Y-122186569D01*
X101439858Y-122058997D01*
X101331935Y-121950317D01*
X101204958Y-121864670D01*
X101063763Y-121805318D01*
X100913730Y-121774520D01*
X100760571Y-121773451D01*
X100610122Y-121802151D01*
X100468113Y-121859526D01*
X100339952Y-121943392D01*
X100230522Y-122050554D01*
X100143991Y-122176930D01*
X100083654Y-122317706D01*
X100051810Y-122467522D01*
X100050592Y-122554709D01*
X99910655Y-122581404D01*
X99768646Y-122638779D01*
X99640485Y-122722645D01*
X99531055Y-122829807D01*
X99444524Y-122956183D01*
X99384187Y-123096959D01*
X99352343Y-123246775D01*
X99350204Y-123399922D01*
X96520000Y-123399922D01*
X96520000Y-122366669D01*
X97769973Y-122366669D01*
X97797622Y-122517314D01*
X97854005Y-122659721D01*
X97936974Y-122788464D01*
X98043369Y-122898639D01*
X98169138Y-122986051D01*
X98309490Y-123047369D01*
X98459079Y-123080258D01*
X98612207Y-123083466D01*
X98763043Y-123056870D01*
X98905839Y-123001483D01*
X99035158Y-122919414D01*
X99146074Y-122813791D01*
X99234361Y-122688635D01*
X99296658Y-122548715D01*
X99330591Y-122399359D01*
X99333034Y-122224419D01*
X99303284Y-122074174D01*
X99244919Y-121932569D01*
X99160160Y-121804997D01*
X99052237Y-121696317D01*
X98925260Y-121610670D01*
X98784065Y-121551318D01*
X98634032Y-121520520D01*
X98480873Y-121519451D01*
X98330424Y-121548151D01*
X98188415Y-121605526D01*
X98060254Y-121689392D01*
X97950824Y-121796554D01*
X97864293Y-121922930D01*
X97803956Y-122063706D01*
X97772112Y-122213522D01*
X97769973Y-122366669D01*
X96520000Y-122366669D01*
X96520000Y-121477669D01*
X102595973Y-121477669D01*
X102623622Y-121628314D01*
X102680005Y-121770721D01*
X102762974Y-121899464D01*
X102869369Y-122009639D01*
X102995138Y-122097051D01*
X103135490Y-122158369D01*
X103285079Y-122191258D01*
X103438207Y-122194466D01*
X103589043Y-122167870D01*
X103731839Y-122112483D01*
X103861158Y-122030414D01*
X103972074Y-121924791D01*
X104060361Y-121799635D01*
X104122658Y-121659715D01*
X104135164Y-121604669D01*
X104754973Y-121604669D01*
X104782622Y-121755314D01*
X104839005Y-121897721D01*
X104921974Y-122026464D01*
X105028369Y-122136639D01*
X105154138Y-122224051D01*
X105294490Y-122285369D01*
X105444079Y-122318258D01*
X105597207Y-122321466D01*
X105748043Y-122294870D01*
X105890839Y-122239483D01*
X106020158Y-122157414D01*
X106131074Y-122051791D01*
X106219361Y-121926635D01*
X106281658Y-121786715D01*
X106315591Y-121637359D01*
X106318034Y-121462419D01*
X106288284Y-121312174D01*
X106229919Y-121170569D01*
X106145160Y-121042997D01*
X106037237Y-120934317D01*
X105910260Y-120848670D01*
X105769065Y-120789318D01*
X105619032Y-120758520D01*
X105465873Y-120757451D01*
X105315424Y-120786151D01*
X105173415Y-120843526D01*
X105045254Y-120927392D01*
X104935824Y-121034554D01*
X104849293Y-121160930D01*
X104788956Y-121301706D01*
X104757112Y-121451522D01*
X104754973Y-121604669D01*
X104135164Y-121604669D01*
X104156591Y-121510359D01*
X104159034Y-121335419D01*
X104129284Y-121185174D01*
X104070919Y-121043569D01*
X103986160Y-120915997D01*
X103878237Y-120807317D01*
X103751260Y-120721670D01*
X103610065Y-120662318D01*
X103460032Y-120631520D01*
X103306873Y-120630451D01*
X103156424Y-120659151D01*
X103014415Y-120716526D01*
X102886254Y-120800392D01*
X102776824Y-120907554D01*
X102690293Y-121033930D01*
X102629956Y-121174706D01*
X102598112Y-121324522D01*
X102595973Y-121477669D01*
X96520000Y-121477669D01*
X96520000Y-118830739D01*
X96661043Y-118805870D01*
X96803839Y-118750483D01*
X96933158Y-118668414D01*
X97044074Y-118562791D01*
X97130021Y-118440952D01*
X99722988Y-118440952D01*
X99750637Y-118591597D01*
X99807020Y-118734004D01*
X99889989Y-118862747D01*
X99996384Y-118972922D01*
X100122153Y-119060334D01*
X100262505Y-119121652D01*
X100412094Y-119154541D01*
X100565222Y-119157749D01*
X100716058Y-119131153D01*
X100858854Y-119075766D01*
X100988173Y-118993697D01*
X101099089Y-118888074D01*
X101187376Y-118762918D01*
X101249673Y-118622998D01*
X101283606Y-118473642D01*
X101286049Y-118298702D01*
X101256299Y-118148457D01*
X101197934Y-118006852D01*
X101113175Y-117879280D01*
X101005252Y-117770600D01*
X100878275Y-117684953D01*
X100737080Y-117625601D01*
X100587047Y-117594803D01*
X100433888Y-117593734D01*
X100283439Y-117622434D01*
X100141430Y-117679809D01*
X100013269Y-117763675D01*
X99903839Y-117870837D01*
X99817308Y-117997213D01*
X99756971Y-118137989D01*
X99725127Y-118287805D01*
X99722988Y-118440952D01*
X97130021Y-118440952D01*
X97132361Y-118437635D01*
X97194658Y-118297715D01*
X97228591Y-118148359D01*
X97231034Y-117973419D01*
X97201284Y-117823174D01*
X97142919Y-117681569D01*
X97058160Y-117553997D01*
X96950237Y-117445317D01*
X96823260Y-117359670D01*
X96682065Y-117300318D01*
X96532032Y-117269520D01*
X96378873Y-117268451D01*
X96228424Y-117297151D01*
X96086415Y-117354526D01*
X95958254Y-117438392D01*
X95848824Y-117545554D01*
X95762293Y-117671930D01*
X95701956Y-117812706D01*
X95670112Y-117962522D01*
X95668002Y-118113578D01*
X95652790Y-118128790D01*
X95623024Y-118165028D01*
X95592842Y-118200997D01*
X95591554Y-118203339D01*
X95589860Y-118205402D01*
X95567690Y-118246749D01*
X95545079Y-118287878D01*
X95544272Y-118290423D01*
X95543009Y-118292778D01*
X95529284Y-118337670D01*
X95515101Y-118382381D01*
X95514803Y-118385034D01*
X95514022Y-118387590D01*
X95509276Y-118434313D01*
X95504050Y-118480907D01*
X95504013Y-118486127D01*
X95504003Y-118486227D01*
X95504012Y-118486321D01*
X95504000Y-118488000D01*
X95504000Y-124777580D01*
X94740790Y-125540790D01*
X94711024Y-125577028D01*
X94680842Y-125612997D01*
X94679554Y-125615339D01*
X94677860Y-125617402D01*
X94655705Y-125658721D01*
X94633079Y-125699878D01*
X94632272Y-125702423D01*
X94631009Y-125704778D01*
X94617284Y-125749670D01*
X94603101Y-125794381D01*
X94602803Y-125797034D01*
X94602022Y-125799590D01*
X94597276Y-125846313D01*
X94592050Y-125892907D01*
X94592013Y-125898127D01*
X94592003Y-125898227D01*
X94592012Y-125898321D01*
X94592000Y-125900000D01*
X94592000Y-127993000D01*
X94596579Y-128039704D01*
X94600669Y-128086448D01*
X94601414Y-128089014D01*
X94601675Y-128091671D01*
X94615227Y-128136556D01*
X94628329Y-128181655D01*
X94629560Y-128184029D01*
X94630331Y-128186584D01*
X94652340Y-128227977D01*
X94673955Y-128269677D01*
X94675623Y-128271766D01*
X94676876Y-128274123D01*
X94706552Y-128310509D01*
X94735810Y-128347159D01*
X94739473Y-128350874D01*
X94739538Y-128350954D01*
X94739612Y-128351015D01*
X94740790Y-128352210D01*
X95739754Y-129351174D01*
X95737973Y-129478669D01*
X95765622Y-129629314D01*
X95822005Y-129771721D01*
X95904974Y-129900464D01*
X96011369Y-130010639D01*
X96137138Y-130098051D01*
X96277490Y-130159369D01*
X96427079Y-130192258D01*
X96580207Y-130195466D01*
X96731043Y-130168870D01*
X96873839Y-130113483D01*
X97003158Y-130031414D01*
X97114074Y-129925791D01*
X97202361Y-129800635D01*
X97264658Y-129660715D01*
X97298591Y-129511359D01*
X97301034Y-129336419D01*
X97271284Y-129186174D01*
X97212919Y-129044569D01*
X97128160Y-128916997D01*
X97020237Y-128808317D01*
X96893260Y-128722670D01*
X96752065Y-128663318D01*
X96602032Y-128632520D01*
X96456927Y-128631507D01*
X95608000Y-127782580D01*
X95608000Y-127146481D01*
X95757079Y-127179258D01*
X95910207Y-127182466D01*
X96061043Y-127155870D01*
X96203839Y-127100483D01*
X96333158Y-127018414D01*
X96444074Y-126912791D01*
X96532361Y-126787635D01*
X96573429Y-126695396D01*
X96595622Y-126816314D01*
X96629651Y-126902261D01*
X96537415Y-126939526D01*
X96409254Y-127023392D01*
X96299824Y-127130554D01*
X96213293Y-127256930D01*
X96152956Y-127397706D01*
X96121112Y-127547522D01*
X96118973Y-127700669D01*
X96146622Y-127851314D01*
X96203005Y-127993721D01*
X96285974Y-128122464D01*
X96392369Y-128232639D01*
X96518138Y-128320051D01*
X96658490Y-128381369D01*
X96808079Y-128414258D01*
X96961207Y-128417466D01*
X97112043Y-128390870D01*
X97254839Y-128335483D01*
X97384158Y-128253414D01*
X97395247Y-128242854D01*
X97416622Y-128359314D01*
X97473005Y-128501721D01*
X97555974Y-128630464D01*
X97662369Y-128740639D01*
X97666408Y-128743447D01*
X97667579Y-128755389D01*
X97671669Y-128802133D01*
X97672414Y-128804699D01*
X97672675Y-128807356D01*
X97686227Y-128852241D01*
X97699329Y-128897340D01*
X97700560Y-128899714D01*
X97701331Y-128902269D01*
X97723340Y-128943662D01*
X97744955Y-128985362D01*
X97746623Y-128987451D01*
X97747876Y-128989808D01*
X97777552Y-129026194D01*
X97806810Y-129062844D01*
X97810473Y-129066559D01*
X97810538Y-129066639D01*
X97810612Y-129066700D01*
X97811790Y-129067895D01*
X99328916Y-130585021D01*
X99365154Y-130614787D01*
X99401123Y-130644969D01*
X99403465Y-130646257D01*
X99405528Y-130647951D01*
X99446875Y-130670121D01*
X99488004Y-130692732D01*
X99490549Y-130693539D01*
X99492904Y-130694802D01*
X99537796Y-130708527D01*
X99582507Y-130722710D01*
X99585160Y-130723008D01*
X99587716Y-130723789D01*
X99634444Y-130728535D01*
X99681033Y-130733761D01*
X99686251Y-130733798D01*
X99686352Y-130733808D01*
X99686446Y-130733799D01*
X99688126Y-130733811D01*
X101465769Y-130733811D01*
X99976095Y-132223485D01*
X99783247Y-132223485D01*
X99687237Y-132126802D01*
X99560260Y-132041155D01*
X99419065Y-131981803D01*
X99269032Y-131951005D01*
X99115873Y-131949936D01*
X98965424Y-131978636D01*
X98823415Y-132036011D01*
X98695254Y-132119877D01*
X98585824Y-132227039D01*
X98499293Y-132353415D01*
X98438956Y-132494191D01*
X98407112Y-132644007D01*
X98404973Y-132797154D01*
X98432622Y-132947799D01*
X98489005Y-133090206D01*
X98571974Y-133218949D01*
X98678369Y-133329124D01*
X98804138Y-133416536D01*
X98944490Y-133477854D01*
X99017559Y-133493919D01*
X99011340Y-133496432D01*
X98883179Y-133580298D01*
X98773749Y-133687460D01*
X98687218Y-133813836D01*
X98626881Y-133954612D01*
X98595037Y-134104428D01*
X98592898Y-134257575D01*
X98620547Y-134408220D01*
X98676930Y-134550627D01*
X98759899Y-134679370D01*
X98866294Y-134789545D01*
X98992063Y-134876957D01*
X99132415Y-134938275D01*
X99282004Y-134971164D01*
X99435132Y-134974372D01*
X99585968Y-134947776D01*
X99728764Y-134892389D01*
X99858083Y-134810320D01*
X99968999Y-134704697D01*
X100057286Y-134579541D01*
X100119583Y-134439621D01*
X100153516Y-134290265D01*
X100155959Y-134115325D01*
X100126209Y-133965080D01*
X100067844Y-133823475D01*
X99983085Y-133695903D01*
X99875162Y-133587223D01*
X99748185Y-133501576D01*
X99606990Y-133442224D01*
X99544796Y-133429457D01*
X99670158Y-133349899D01*
X99781074Y-133244276D01*
X99784454Y-133239485D01*
X100186515Y-133239485D01*
X100233219Y-133234906D01*
X100279963Y-133230816D01*
X100282529Y-133230071D01*
X100285186Y-133229810D01*
X100330071Y-133216258D01*
X100375170Y-133203156D01*
X100377544Y-133201925D01*
X100380099Y-133201154D01*
X100421492Y-133179145D01*
X100463192Y-133157530D01*
X100465281Y-133155862D01*
X100467638Y-133154609D01*
X100504024Y-133124933D01*
X100540674Y-133095675D01*
X100544389Y-133092012D01*
X100544469Y-133091947D01*
X100544530Y-133091873D01*
X100545725Y-133090695D01*
X102601825Y-131034595D01*
X102623614Y-131153314D01*
X102679997Y-131295721D01*
X102762966Y-131424464D01*
X102869361Y-131534639D01*
X102995130Y-131622051D01*
X103076658Y-131657670D01*
X103030824Y-131702554D01*
X102944293Y-131828930D01*
X102883956Y-131969706D01*
X102852112Y-132119522D01*
X102849973Y-132272669D01*
X102877622Y-132423314D01*
X102934005Y-132565721D01*
X103016974Y-132694464D01*
X103123369Y-132804639D01*
X103249138Y-132892051D01*
X103389490Y-132953369D01*
X103539079Y-132986258D01*
X103692207Y-132989466D01*
X103843043Y-132962870D01*
X103985839Y-132907483D01*
X104046282Y-132869124D01*
X104077005Y-132946721D01*
X104159974Y-133075464D01*
X104233267Y-133151361D01*
X104170836Y-133183722D01*
X104166663Y-133187053D01*
X104161943Y-133189563D01*
X104089207Y-133248885D01*
X104015870Y-133307429D01*
X104008432Y-133314764D01*
X104008281Y-133314887D01*
X104008165Y-133315027D01*
X104005769Y-133317390D01*
X101539840Y-135783320D01*
X98334398Y-135783320D01*
X96529783Y-133978706D01*
X96457277Y-133919149D01*
X96385369Y-133858811D01*
X96380688Y-133856237D01*
X96376559Y-133852846D01*
X96293851Y-133808498D01*
X96211608Y-133763284D01*
X96206515Y-133761668D01*
X96201807Y-133759144D01*
X96112036Y-133731698D01*
X96022601Y-133703328D01*
X96017295Y-133702733D01*
X96012183Y-133701170D01*
X95918782Y-133691683D01*
X95825549Y-133681225D01*
X95815108Y-133681152D01*
X95814910Y-133681132D01*
X95814725Y-133681149D01*
X95811363Y-133681126D01*
X83682036Y-133681126D01*
X83588624Y-133690285D01*
X83495142Y-133698464D01*
X83490011Y-133699955D01*
X83484694Y-133700476D01*
X83394858Y-133727599D01*
X83304726Y-133753784D01*
X83299982Y-133756243D01*
X83294868Y-133757787D01*
X83211983Y-133801858D01*
X83128683Y-133845037D01*
X83124510Y-133848368D01*
X83119790Y-133850878D01*
X83047054Y-133910200D01*
X82973717Y-133968744D01*
X82966279Y-133976079D01*
X82966128Y-133976202D01*
X82966012Y-133976342D01*
X82963616Y-133978705D01*
X81380320Y-135562002D01*
X81320763Y-135634508D01*
X81260425Y-135706416D01*
X81257851Y-135711097D01*
X81254460Y-135715226D01*
X81210112Y-135797934D01*
X81164898Y-135880177D01*
X81163282Y-135885270D01*
X81160758Y-135889978D01*
X81133312Y-135979749D01*
X81104942Y-136069184D01*
X81104347Y-136074490D01*
X81102784Y-136079602D01*
X81093297Y-136173003D01*
X81082839Y-136266236D01*
X81082766Y-136276677D01*
X81082746Y-136276875D01*
X81082763Y-136277060D01*
X81082740Y-136280422D01*
X81082740Y-137019700D01*
X81068968Y-137084493D01*
X81066144Y-137286709D01*
X81102652Y-137485624D01*
X81177100Y-137673659D01*
X81286653Y-137843652D01*
X81427139Y-137989129D01*
X81593205Y-138104548D01*
X81778527Y-138185513D01*
X81976046Y-138228941D01*
X82178239Y-138233176D01*
X82377403Y-138198058D01*
X82565953Y-138124924D01*
X82736707Y-138016560D01*
X82883161Y-137877094D01*
X82999737Y-137711837D01*
X83081994Y-137527085D01*
X83098471Y-137454561D01*
X83104172Y-137485624D01*
X83178620Y-137673659D01*
X83288173Y-137843652D01*
X83428659Y-137989129D01*
X83594725Y-138104548D01*
X83780047Y-138185513D01*
X83977566Y-138228941D01*
X84179759Y-138233176D01*
X84378923Y-138198058D01*
X84567473Y-138124924D01*
X84738227Y-138016560D01*
X84884681Y-137877094D01*
X85001257Y-137711837D01*
X85083514Y-137527085D01*
X85098586Y-137460745D01*
X85103152Y-137485624D01*
X85177600Y-137673659D01*
X85287153Y-137843652D01*
X85427639Y-137989129D01*
X85593705Y-138104548D01*
X85779027Y-138185513D01*
X85976546Y-138228941D01*
X86178739Y-138233176D01*
X86377903Y-138198058D01*
X86566453Y-138124924D01*
X86737207Y-138016560D01*
X86883661Y-137877094D01*
X87000237Y-137711837D01*
X87082494Y-137527085D01*
X87098971Y-137454561D01*
X87104672Y-137485624D01*
X87179120Y-137673659D01*
X87288673Y-137843652D01*
X87429159Y-137989129D01*
X87595225Y-138104548D01*
X87780547Y-138185513D01*
X87978066Y-138228941D01*
X88180259Y-138233176D01*
X88379423Y-138198058D01*
X88567973Y-138124924D01*
X88738727Y-138016560D01*
X88885181Y-137877094D01*
X89001757Y-137711837D01*
X89084014Y-137527085D01*
X89099086Y-137460745D01*
X89103652Y-137485624D01*
X89178100Y-137673659D01*
X89287653Y-137843652D01*
X89428139Y-137989129D01*
X89594205Y-138104548D01*
X89779527Y-138185513D01*
X89977046Y-138228941D01*
X90179239Y-138233176D01*
X90378403Y-138198058D01*
X90566953Y-138124924D01*
X90737707Y-138016560D01*
X90884161Y-137877094D01*
X90895997Y-137860314D01*
X91485847Y-137860314D01*
X91548171Y-138015279D01*
X91717852Y-138107516D01*
X91902267Y-138164878D01*
X92094329Y-138185160D01*
X92286658Y-138167582D01*
X92471862Y-138112821D01*
X92642823Y-138022980D01*
X92654349Y-138015279D01*
X92716672Y-137860316D01*
X92775003Y-137918647D01*
X92781813Y-137911837D01*
X92856974Y-138028464D01*
X92963369Y-138138639D01*
X93089138Y-138226051D01*
X93229490Y-138287369D01*
X93379079Y-138320258D01*
X93532207Y-138323466D01*
X93683043Y-138296870D01*
X93825839Y-138241483D01*
X93955158Y-138159414D01*
X94066074Y-138053791D01*
X94154361Y-137928635D01*
X94216658Y-137788715D01*
X94250591Y-137639359D01*
X94253034Y-137464419D01*
X94223284Y-137314174D01*
X94186806Y-137225669D01*
X94848973Y-137225669D01*
X94876622Y-137376314D01*
X94933005Y-137518721D01*
X95015974Y-137647464D01*
X95122369Y-137757639D01*
X95248138Y-137845051D01*
X95388490Y-137906369D01*
X95538079Y-137939258D01*
X95691207Y-137942466D01*
X95842043Y-137915870D01*
X95984839Y-137860483D01*
X96114158Y-137778414D01*
X96225074Y-137672791D01*
X96313361Y-137547635D01*
X96375658Y-137407715D01*
X96409591Y-137258359D01*
X96412034Y-137083419D01*
X96382284Y-136933174D01*
X96323919Y-136791569D01*
X96239160Y-136663997D01*
X96131237Y-136555317D01*
X96004260Y-136469670D01*
X95863065Y-136410318D01*
X95713032Y-136379520D01*
X95559873Y-136378451D01*
X95409424Y-136407151D01*
X95267415Y-136464526D01*
X95139254Y-136548392D01*
X95029824Y-136655554D01*
X94943293Y-136781930D01*
X94882956Y-136922706D01*
X94851112Y-137072522D01*
X94848973Y-137225669D01*
X94186806Y-137225669D01*
X94164919Y-137172569D01*
X94080160Y-137044997D01*
X93972237Y-136936317D01*
X93845260Y-136850670D01*
X93704065Y-136791318D01*
X93554032Y-136760520D01*
X93400873Y-136759451D01*
X93250424Y-136788151D01*
X93108415Y-136845526D01*
X93033370Y-136894634D01*
X93014081Y-136829398D01*
X92924240Y-136658437D01*
X92916539Y-136646911D01*
X92761574Y-136584587D01*
X92146161Y-137200000D01*
X92160304Y-137214143D01*
X92115403Y-137259044D01*
X92101260Y-137244901D01*
X91485847Y-137860314D01*
X90895997Y-137860314D01*
X91000737Y-137711837D01*
X91082994Y-137527085D01*
X91127799Y-137329874D01*
X91127906Y-137322239D01*
X91133678Y-137385398D01*
X91188439Y-137570602D01*
X91278280Y-137741563D01*
X91285981Y-137753089D01*
X91440946Y-137815413D01*
X92056359Y-137200000D01*
X91440946Y-136584587D01*
X91285981Y-136646911D01*
X91193744Y-136816592D01*
X91136382Y-137001007D01*
X91127778Y-137082487D01*
X91091743Y-136900497D01*
X91014677Y-136713519D01*
X90902761Y-136545072D01*
X90897413Y-136539686D01*
X91485847Y-136539686D01*
X92101260Y-137155099D01*
X92716673Y-136539686D01*
X92654349Y-136384721D01*
X92484668Y-136292484D01*
X92300253Y-136235122D01*
X92108191Y-136214840D01*
X91915862Y-136232418D01*
X91730658Y-136287179D01*
X91559697Y-136377020D01*
X91548171Y-136384721D01*
X91485847Y-136539686D01*
X90897413Y-136539686D01*
X90760258Y-136401571D01*
X90592596Y-136288482D01*
X90406162Y-136210112D01*
X90208056Y-136169447D01*
X90005824Y-136168035D01*
X89807169Y-136205930D01*
X89619659Y-136281689D01*
X89450434Y-136392427D01*
X89305942Y-136533924D01*
X89191685Y-136700792D01*
X89112015Y-136886675D01*
X89100631Y-136940233D01*
X89092763Y-136900497D01*
X89015697Y-136713519D01*
X88903781Y-136545072D01*
X88761278Y-136401571D01*
X88593616Y-136288482D01*
X88407182Y-136210112D01*
X88209076Y-136169447D01*
X88006844Y-136168035D01*
X87808189Y-136205930D01*
X87620679Y-136281689D01*
X87451454Y-136392427D01*
X87306962Y-136533924D01*
X87192705Y-136700792D01*
X87113035Y-136886675D01*
X87100336Y-136946420D01*
X87091243Y-136900497D01*
X87014177Y-136713519D01*
X86902261Y-136545072D01*
X86759758Y-136401571D01*
X86592096Y-136288482D01*
X86405662Y-136210112D01*
X86207556Y-136169447D01*
X86005324Y-136168035D01*
X85806669Y-136205930D01*
X85619159Y-136281689D01*
X85449934Y-136392427D01*
X85305442Y-136533924D01*
X85191185Y-136700792D01*
X85111515Y-136886675D01*
X85100131Y-136940233D01*
X85092263Y-136900497D01*
X85015197Y-136713519D01*
X84903281Y-136545072D01*
X84760778Y-136401571D01*
X84593116Y-136288482D01*
X84406682Y-136210112D01*
X84208576Y-136169447D01*
X84006344Y-136168035D01*
X83807689Y-136205930D01*
X83620179Y-136281689D01*
X83450954Y-136392427D01*
X83306462Y-136533924D01*
X83192205Y-136700792D01*
X83114740Y-136881530D01*
X83114740Y-136701262D01*
X84102877Y-135713126D01*
X95390523Y-135713126D01*
X97195136Y-137517740D01*
X97267667Y-137577318D01*
X97339551Y-137637635D01*
X97344232Y-137640208D01*
X97348361Y-137643600D01*
X97431069Y-137687948D01*
X97513312Y-137733162D01*
X97518405Y-137734778D01*
X97523113Y-137737302D01*
X97612843Y-137764735D01*
X97702319Y-137793118D01*
X97707630Y-137793714D01*
X97712737Y-137795275D01*
X97806043Y-137804753D01*
X97899371Y-137815221D01*
X97909822Y-137815294D01*
X97910010Y-137815313D01*
X97910185Y-137815296D01*
X97913557Y-137815320D01*
X100866188Y-137815320D01*
X100851956Y-137848526D01*
X100820112Y-137998342D01*
X100817973Y-138151489D01*
X100845622Y-138302134D01*
X100902005Y-138444541D01*
X100966102Y-138544000D01*
X84500000Y-138544000D01*
X84457272Y-138548189D01*
X84414554Y-138552077D01*
X84413022Y-138552528D01*
X84411429Y-138552684D01*
X84370337Y-138565091D01*
X84329179Y-138577204D01*
X84327761Y-138577945D01*
X84326232Y-138578407D01*
X84288388Y-138598529D01*
X84250311Y-138618435D01*
X84249063Y-138619438D01*
X84247653Y-138620188D01*
X84214431Y-138647284D01*
X84180954Y-138674200D01*
X84179925Y-138675426D01*
X84178687Y-138676436D01*
X84151358Y-138709471D01*
X84123748Y-138742375D01*
X84122977Y-138743777D01*
X84121959Y-138745008D01*
X84101566Y-138782723D01*
X84080874Y-138820362D01*
X84080390Y-138821887D01*
X84079630Y-138823293D01*
X84066940Y-138864289D01*
X84064177Y-138873000D01*
X78956000Y-138873000D01*
X78956000Y-132665669D01*
X84117973Y-132665669D01*
X84145622Y-132816314D01*
X84202005Y-132958721D01*
X84284974Y-133087464D01*
X84391369Y-133197639D01*
X84517138Y-133285051D01*
X84657490Y-133346369D01*
X84807079Y-133379258D01*
X84960207Y-133382466D01*
X85111043Y-133355870D01*
X85253839Y-133300483D01*
X85383158Y-133218414D01*
X85494074Y-133112791D01*
X85582361Y-132987635D01*
X85644658Y-132847715D01*
X85668427Y-132743095D01*
X88671419Y-132743095D01*
X88699068Y-132893740D01*
X88755451Y-133036147D01*
X88838420Y-133164890D01*
X88944815Y-133275065D01*
X89070584Y-133362477D01*
X89210936Y-133423795D01*
X89360525Y-133456684D01*
X89513653Y-133459892D01*
X89664489Y-133433296D01*
X89807285Y-133377909D01*
X89936604Y-133295840D01*
X90047520Y-133190217D01*
X90135807Y-133065061D01*
X90198104Y-132925141D01*
X90232037Y-132775785D01*
X90232178Y-132765669D01*
X92823285Y-132765669D01*
X92850934Y-132916314D01*
X92907317Y-133058721D01*
X92990286Y-133187464D01*
X93096681Y-133297639D01*
X93222450Y-133385051D01*
X93362802Y-133446369D01*
X93512391Y-133479258D01*
X93665519Y-133482466D01*
X93816355Y-133455870D01*
X93919999Y-133415669D01*
X96245973Y-133415669D01*
X96273622Y-133566314D01*
X96330005Y-133708721D01*
X96412974Y-133837464D01*
X96519369Y-133947639D01*
X96645138Y-134035051D01*
X96785490Y-134096369D01*
X96935079Y-134129258D01*
X97088207Y-134132466D01*
X97239043Y-134105870D01*
X97381839Y-134050483D01*
X97511158Y-133968414D01*
X97622074Y-133862791D01*
X97710361Y-133737635D01*
X97772658Y-133597715D01*
X97806591Y-133448359D01*
X97809034Y-133273419D01*
X97779284Y-133123174D01*
X97720919Y-132981569D01*
X97636160Y-132853997D01*
X97528237Y-132745317D01*
X97401260Y-132659670D01*
X97260065Y-132600318D01*
X97110032Y-132569520D01*
X96956873Y-132568451D01*
X96806424Y-132597151D01*
X96664415Y-132654526D01*
X96536254Y-132738392D01*
X96426824Y-132845554D01*
X96340293Y-132971930D01*
X96279956Y-133112706D01*
X96248112Y-133262522D01*
X96245973Y-133415669D01*
X93919999Y-133415669D01*
X93959151Y-133400483D01*
X94088470Y-133318414D01*
X94199386Y-133212791D01*
X94287673Y-133087635D01*
X94349970Y-132947715D01*
X94383903Y-132798359D01*
X94386346Y-132623419D01*
X94356596Y-132473174D01*
X94298231Y-132331569D01*
X94213472Y-132203997D01*
X94105549Y-132095317D01*
X93978572Y-132009670D01*
X93837377Y-131950318D01*
X93687344Y-131919520D01*
X93534185Y-131918451D01*
X93383736Y-131947151D01*
X93241727Y-132004526D01*
X93113566Y-132088392D01*
X93004136Y-132195554D01*
X92917605Y-132321930D01*
X92857268Y-132462706D01*
X92825424Y-132612522D01*
X92823285Y-132765669D01*
X90232178Y-132765669D01*
X90234480Y-132600845D01*
X90204730Y-132450600D01*
X90146365Y-132308995D01*
X90061606Y-132181423D01*
X89953683Y-132072743D01*
X89826706Y-131987096D01*
X89685511Y-131927744D01*
X89535478Y-131896946D01*
X89382319Y-131895877D01*
X89231870Y-131924577D01*
X89089861Y-131981952D01*
X88961700Y-132065818D01*
X88852270Y-132172980D01*
X88765739Y-132299356D01*
X88705402Y-132440132D01*
X88673558Y-132589948D01*
X88671419Y-132743095D01*
X85668427Y-132743095D01*
X85678591Y-132698359D01*
X85681034Y-132523419D01*
X85651284Y-132373174D01*
X85592919Y-132231569D01*
X85508160Y-132103997D01*
X85400237Y-131995317D01*
X85273260Y-131909670D01*
X85132065Y-131850318D01*
X84982032Y-131819520D01*
X84828873Y-131818451D01*
X84678424Y-131847151D01*
X84536415Y-131904526D01*
X84408254Y-131988392D01*
X84298824Y-132095554D01*
X84212293Y-132221930D01*
X84151956Y-132362706D01*
X84120112Y-132512522D01*
X84117973Y-132665669D01*
X78956000Y-132665669D01*
X78956000Y-129874077D01*
X81817842Y-129874077D01*
X81849031Y-130044012D01*
X81912633Y-130204652D01*
X82006225Y-130349879D01*
X82126243Y-130474162D01*
X82268116Y-130572766D01*
X82426439Y-130641935D01*
X82595181Y-130679036D01*
X82767917Y-130682654D01*
X82938065Y-130652652D01*
X83099145Y-130590173D01*
X83232273Y-130505688D01*
X83284974Y-130587464D01*
X83391369Y-130697639D01*
X83517138Y-130785051D01*
X83657490Y-130846369D01*
X83807079Y-130879258D01*
X83960207Y-130882466D01*
X84111043Y-130855870D01*
X84253839Y-130800483D01*
X84383158Y-130718414D01*
X84494074Y-130612791D01*
X84582361Y-130487635D01*
X84644658Y-130347715D01*
X84678591Y-130198359D01*
X84681034Y-130023419D01*
X84651284Y-129873174D01*
X84592919Y-129731569D01*
X84583877Y-129717959D01*
X87510499Y-129717959D01*
X87538148Y-129868604D01*
X87594531Y-130011011D01*
X87677500Y-130139754D01*
X87783895Y-130249929D01*
X87909664Y-130337341D01*
X88050016Y-130398659D01*
X88199605Y-130431548D01*
X88352733Y-130434756D01*
X88503569Y-130408160D01*
X88646365Y-130352773D01*
X88775684Y-130270704D01*
X88886600Y-130165081D01*
X88974887Y-130039925D01*
X89037184Y-129900005D01*
X89071117Y-129750649D01*
X89072303Y-129665669D01*
X92067973Y-129665669D01*
X92095622Y-129816314D01*
X92152005Y-129958721D01*
X92234974Y-130087464D01*
X92341369Y-130197639D01*
X92467138Y-130285051D01*
X92607490Y-130346369D01*
X92757079Y-130379258D01*
X92910207Y-130382466D01*
X93061043Y-130355870D01*
X93203839Y-130300483D01*
X93333158Y-130218414D01*
X93444074Y-130112791D01*
X93483109Y-130057455D01*
X93616888Y-130115902D01*
X93766477Y-130148791D01*
X93919605Y-130151999D01*
X94070441Y-130125403D01*
X94213237Y-130070016D01*
X94342556Y-129987947D01*
X94453472Y-129882324D01*
X94541759Y-129757168D01*
X94604056Y-129617248D01*
X94637989Y-129467892D01*
X94640432Y-129292952D01*
X94610682Y-129142707D01*
X94552317Y-129001102D01*
X94467558Y-128873530D01*
X94359635Y-128764850D01*
X94232658Y-128679203D01*
X94091463Y-128619851D01*
X93941430Y-128589053D01*
X93788271Y-128587984D01*
X93637822Y-128616684D01*
X93495813Y-128674059D01*
X93367652Y-128757925D01*
X93258222Y-128865087D01*
X93226294Y-128911717D01*
X93223260Y-128909670D01*
X93082065Y-128850318D01*
X92932032Y-128819520D01*
X92778873Y-128818451D01*
X92628424Y-128847151D01*
X92486415Y-128904526D01*
X92358254Y-128988392D01*
X92248824Y-129095554D01*
X92162293Y-129221930D01*
X92101956Y-129362706D01*
X92070112Y-129512522D01*
X92067973Y-129665669D01*
X89072303Y-129665669D01*
X89073560Y-129575709D01*
X89043810Y-129425464D01*
X88985445Y-129283859D01*
X88900686Y-129156287D01*
X88792763Y-129047607D01*
X88665786Y-128961960D01*
X88524591Y-128902608D01*
X88374558Y-128871810D01*
X88221399Y-128870741D01*
X88070950Y-128899441D01*
X87928941Y-128956816D01*
X87800780Y-129040682D01*
X87691350Y-129147844D01*
X87604819Y-129274220D01*
X87544482Y-129414996D01*
X87512638Y-129564812D01*
X87510499Y-129717959D01*
X84583877Y-129717959D01*
X84508160Y-129603997D01*
X84400237Y-129495317D01*
X84273260Y-129409670D01*
X84132065Y-129350318D01*
X83982032Y-129319520D01*
X83828873Y-129318451D01*
X83678424Y-129347151D01*
X83536415Y-129404526D01*
X83499811Y-129428479D01*
X83481641Y-129384394D01*
X83386030Y-129240488D01*
X83264288Y-129117893D01*
X83121053Y-129021280D01*
X83000753Y-128970710D01*
X83083158Y-128918414D01*
X83194074Y-128812791D01*
X83282361Y-128687635D01*
X83344658Y-128547715D01*
X83378591Y-128398359D01*
X83381034Y-128223419D01*
X83351284Y-128073174D01*
X83292919Y-127931569D01*
X83208160Y-127803997D01*
X83100237Y-127695317D01*
X82973260Y-127609670D01*
X82832065Y-127550318D01*
X82682032Y-127519520D01*
X82528873Y-127518451D01*
X82378424Y-127547151D01*
X82236415Y-127604526D01*
X82108254Y-127688392D01*
X81998824Y-127795554D01*
X81912293Y-127921930D01*
X81851956Y-128062706D01*
X81820112Y-128212522D01*
X81817973Y-128365669D01*
X81845622Y-128516314D01*
X81902005Y-128658721D01*
X81984974Y-128787464D01*
X82091369Y-128897639D01*
X82217138Y-128985051D01*
X82288628Y-129016284D01*
X82145291Y-129110081D01*
X82021849Y-129230964D01*
X81924238Y-129373521D01*
X81856176Y-129532323D01*
X81820254Y-129701321D01*
X81817842Y-129874077D01*
X78956000Y-129874077D01*
X78956000Y-128442559D01*
X79017138Y-128485051D01*
X79157490Y-128546369D01*
X79307079Y-128579258D01*
X79460207Y-128582466D01*
X79611043Y-128555870D01*
X79753839Y-128500483D01*
X79883158Y-128418414D01*
X79994074Y-128312791D01*
X80082361Y-128187635D01*
X80144658Y-128047715D01*
X80178591Y-127898359D01*
X80181034Y-127723419D01*
X80151284Y-127573174D01*
X80092919Y-127431569D01*
X80008160Y-127303997D01*
X79900237Y-127195317D01*
X79773260Y-127109670D01*
X79632065Y-127050318D01*
X79482032Y-127019520D01*
X79328873Y-127018451D01*
X79178424Y-127047151D01*
X79036415Y-127104526D01*
X78956000Y-127157148D01*
X78956000Y-119842580D01*
X79270170Y-119842580D01*
X79270170Y-120360242D01*
X79282859Y-120424036D01*
X79307751Y-120484128D01*
X79343887Y-120538210D01*
X79389880Y-120584203D01*
X79443962Y-120620340D01*
X79504054Y-120645231D01*
X79567848Y-120657920D01*
X80335700Y-120657920D01*
X80418250Y-120575370D01*
X80418250Y-119760030D01*
X80481750Y-119760030D01*
X80481750Y-120575370D01*
X80564300Y-120657920D01*
X81332152Y-120657920D01*
X81395946Y-120645231D01*
X81456038Y-120620340D01*
X81510120Y-120584203D01*
X81556113Y-120538210D01*
X81592249Y-120484128D01*
X81617141Y-120424036D01*
X81629830Y-120360242D01*
X81629830Y-119842580D01*
X81547280Y-119760030D01*
X80481750Y-119760030D01*
X80418250Y-119760030D01*
X79352720Y-119760030D01*
X79270170Y-119842580D01*
X78956000Y-119842580D01*
X78956000Y-119096318D01*
X79270170Y-119096318D01*
X79270170Y-119613980D01*
X79352720Y-119696530D01*
X80418250Y-119696530D01*
X80418250Y-118881190D01*
X80481750Y-118881190D01*
X80481750Y-119696530D01*
X81547280Y-119696530D01*
X81629830Y-119613980D01*
X81629830Y-119096318D01*
X81617141Y-119032524D01*
X81592249Y-118972432D01*
X81556113Y-118918350D01*
X81510120Y-118872357D01*
X81456038Y-118836220D01*
X81395946Y-118811329D01*
X81332152Y-118798640D01*
X80564300Y-118798640D01*
X80481750Y-118881190D01*
X80418250Y-118881190D01*
X80335700Y-118798640D01*
X79567848Y-118798640D01*
X79504054Y-118811329D01*
X79443962Y-118836220D01*
X79389880Y-118872357D01*
X79343887Y-118918350D01*
X79307751Y-118972432D01*
X79282859Y-119032524D01*
X79270170Y-119096318D01*
X78956000Y-119096318D01*
X78956000Y-117719915D01*
X79213440Y-117719915D01*
X79230782Y-117910476D01*
X79284808Y-118094039D01*
X79373459Y-118263613D01*
X79493358Y-118412738D01*
X79639940Y-118535734D01*
X79807620Y-118627917D01*
X79990011Y-118685775D01*
X80180167Y-118707104D01*
X80193856Y-118707200D01*
X80706144Y-118707200D01*
X80896579Y-118688528D01*
X81079761Y-118633222D01*
X81248711Y-118543389D01*
X81396996Y-118422452D01*
X81518966Y-118275015D01*
X81609976Y-118106696D01*
X81666559Y-117923905D01*
X81680142Y-117794669D01*
X88117973Y-117794669D01*
X88145622Y-117945314D01*
X88202005Y-118087721D01*
X88284974Y-118216464D01*
X88330960Y-118264084D01*
X88298824Y-118295554D01*
X88212293Y-118421930D01*
X88151956Y-118562706D01*
X88120112Y-118712522D01*
X88117973Y-118865669D01*
X88145622Y-119016314D01*
X88202005Y-119158721D01*
X88284974Y-119287464D01*
X88391369Y-119397639D01*
X88517138Y-119485051D01*
X88657490Y-119546369D01*
X88807079Y-119579258D01*
X88960207Y-119582466D01*
X89111043Y-119555870D01*
X89253839Y-119500483D01*
X89383158Y-119418414D01*
X89494074Y-119312791D01*
X89582361Y-119187635D01*
X89644658Y-119047715D01*
X89678591Y-118898359D01*
X89681034Y-118723419D01*
X89651284Y-118573174D01*
X89592919Y-118431569D01*
X89508160Y-118303997D01*
X89469565Y-118265131D01*
X89494074Y-118241791D01*
X89582361Y-118116635D01*
X89644658Y-117976715D01*
X89678591Y-117827359D01*
X89681034Y-117652419D01*
X89651284Y-117502174D01*
X89592919Y-117360569D01*
X89508160Y-117232997D01*
X89400237Y-117124317D01*
X89273260Y-117038670D01*
X89132065Y-116979318D01*
X88982032Y-116948520D01*
X88828873Y-116947451D01*
X88678424Y-116976151D01*
X88536415Y-117033526D01*
X88408254Y-117117392D01*
X88298824Y-117224554D01*
X88212293Y-117350930D01*
X88151956Y-117491706D01*
X88120112Y-117641522D01*
X88117973Y-117794669D01*
X81680142Y-117794669D01*
X81686560Y-117733605D01*
X81669218Y-117543044D01*
X81615192Y-117359481D01*
X81526541Y-117189907D01*
X81406642Y-117040782D01*
X81260060Y-116917786D01*
X81092380Y-116825603D01*
X80909989Y-116767745D01*
X80719833Y-116746416D01*
X80706144Y-116746320D01*
X80193856Y-116746320D01*
X80003421Y-116764992D01*
X79820239Y-116820298D01*
X79651289Y-116910131D01*
X79503004Y-117031068D01*
X79381034Y-117178505D01*
X79290024Y-117346824D01*
X79233441Y-117529615D01*
X79213440Y-117719915D01*
X78956000Y-117719915D01*
X78956000Y-115718395D01*
X79213440Y-115718395D01*
X79230782Y-115908956D01*
X79284808Y-116092519D01*
X79373459Y-116262093D01*
X79493358Y-116411218D01*
X79639940Y-116534214D01*
X79807620Y-116626397D01*
X79990011Y-116684255D01*
X80180167Y-116705584D01*
X80193856Y-116705680D01*
X80706144Y-116705680D01*
X80896579Y-116687008D01*
X81079761Y-116631702D01*
X81248711Y-116541869D01*
X81396996Y-116420932D01*
X81518966Y-116273495D01*
X81609976Y-116105176D01*
X81666559Y-115922385D01*
X81686560Y-115732085D01*
X81669218Y-115541524D01*
X81615192Y-115357961D01*
X81526541Y-115188387D01*
X81406642Y-115039262D01*
X81360649Y-115000669D01*
X85196973Y-115000669D01*
X85224622Y-115151314D01*
X85281005Y-115293721D01*
X85363974Y-115422464D01*
X85470369Y-115532639D01*
X85596138Y-115620051D01*
X85736490Y-115681369D01*
X85886079Y-115714258D01*
X86039207Y-115717466D01*
X86190043Y-115690870D01*
X86332839Y-115635483D01*
X86462158Y-115553414D01*
X86573074Y-115447791D01*
X86661361Y-115322635D01*
X86723658Y-115182715D01*
X86757591Y-115033359D01*
X86758047Y-115000669D01*
X90022973Y-115000669D01*
X90050622Y-115151314D01*
X90107005Y-115293721D01*
X90189974Y-115422464D01*
X90296369Y-115532639D01*
X90422138Y-115620051D01*
X90562490Y-115681369D01*
X90712079Y-115714258D01*
X90865207Y-115717466D01*
X91016043Y-115690870D01*
X91158839Y-115635483D01*
X91288158Y-115553414D01*
X91377381Y-115468449D01*
X91439369Y-115532639D01*
X91565138Y-115620051D01*
X91705490Y-115681369D01*
X91855079Y-115714258D01*
X92008207Y-115717466D01*
X92159043Y-115690870D01*
X92301839Y-115635483D01*
X92431158Y-115553414D01*
X92542074Y-115447791D01*
X92630361Y-115322635D01*
X92692658Y-115182715D01*
X92726591Y-115033359D01*
X92729034Y-114858419D01*
X92699284Y-114708174D01*
X92640919Y-114566569D01*
X92556160Y-114438997D01*
X92448237Y-114330317D01*
X92321260Y-114244670D01*
X92180065Y-114185318D01*
X92030032Y-114154520D01*
X91876873Y-114153451D01*
X91726424Y-114182151D01*
X91584415Y-114239526D01*
X91456254Y-114323392D01*
X91376205Y-114401782D01*
X91305237Y-114330317D01*
X91178260Y-114244670D01*
X91037065Y-114185318D01*
X90887032Y-114154520D01*
X90733873Y-114153451D01*
X90583424Y-114182151D01*
X90441415Y-114239526D01*
X90313254Y-114323392D01*
X90203824Y-114430554D01*
X90117293Y-114556930D01*
X90056956Y-114697706D01*
X90025112Y-114847522D01*
X90022973Y-115000669D01*
X86758047Y-115000669D01*
X86760034Y-114858419D01*
X86730284Y-114708174D01*
X86671919Y-114566569D01*
X86587160Y-114438997D01*
X86479237Y-114330317D01*
X86352260Y-114244670D01*
X86211065Y-114185318D01*
X86061032Y-114154520D01*
X85907873Y-114153451D01*
X85757424Y-114182151D01*
X85615415Y-114239526D01*
X85487254Y-114323392D01*
X85377824Y-114430554D01*
X85291293Y-114556930D01*
X85230956Y-114697706D01*
X85199112Y-114847522D01*
X85196973Y-115000669D01*
X81360649Y-115000669D01*
X81260060Y-114916266D01*
X81092380Y-114824083D01*
X80909989Y-114766225D01*
X80719833Y-114744896D01*
X80706144Y-114744800D01*
X80193856Y-114744800D01*
X80003421Y-114763472D01*
X79820239Y-114818778D01*
X79651289Y-114908611D01*
X79503004Y-115029548D01*
X79381034Y-115176985D01*
X79290024Y-115345304D01*
X79233441Y-115528095D01*
X79213440Y-115718395D01*
X78956000Y-115718395D01*
X78956000Y-113719415D01*
X79213440Y-113719415D01*
X79230782Y-113909976D01*
X79284808Y-114093539D01*
X79373459Y-114263113D01*
X79493358Y-114412238D01*
X79639940Y-114535234D01*
X79807620Y-114627417D01*
X79990011Y-114685275D01*
X80180167Y-114706604D01*
X80193856Y-114706700D01*
X80706144Y-114706700D01*
X80896579Y-114688028D01*
X81079761Y-114632722D01*
X81248711Y-114542889D01*
X81396996Y-114421952D01*
X81518966Y-114274515D01*
X81609976Y-114106196D01*
X81666559Y-113923405D01*
X81686560Y-113733105D01*
X81669218Y-113542544D01*
X81615192Y-113358981D01*
X81526541Y-113189407D01*
X81406642Y-113040282D01*
X81260060Y-112917286D01*
X81092380Y-112825103D01*
X80909989Y-112767245D01*
X80719833Y-112745916D01*
X80706144Y-112745820D01*
X80193856Y-112745820D01*
X80003421Y-112764492D01*
X79820239Y-112819798D01*
X79651289Y-112909631D01*
X79503004Y-113030568D01*
X79381034Y-113178005D01*
X79290024Y-113346324D01*
X79233441Y-113529115D01*
X79213440Y-113719415D01*
X78956000Y-113719415D01*
X78956000Y-111186959D01*
X78988479Y-111268991D01*
X79109905Y-111457407D01*
X79265615Y-111618650D01*
X79449679Y-111746577D01*
X79655085Y-111836317D01*
X79874009Y-111884451D01*
X80098114Y-111889145D01*
X80318862Y-111850221D01*
X80527846Y-111769162D01*
X80717106Y-111649054D01*
X80879432Y-111494473D01*
X80898118Y-111467983D01*
X81043615Y-111618650D01*
X81227679Y-111746577D01*
X81433085Y-111836317D01*
X81652009Y-111884451D01*
X81876114Y-111889145D01*
X82096862Y-111850221D01*
X82305846Y-111769162D01*
X82495106Y-111649054D01*
X82657432Y-111494473D01*
X82676118Y-111467983D01*
X82821615Y-111618650D01*
X83005679Y-111746577D01*
X83211085Y-111836317D01*
X83430009Y-111884451D01*
X83654114Y-111889145D01*
X83874862Y-111850221D01*
X84083846Y-111769162D01*
X84273106Y-111649054D01*
X84435432Y-111494473D01*
X84564641Y-111311307D01*
X84655813Y-111106532D01*
X84705473Y-110887949D01*
X84709049Y-110631923D01*
X84665510Y-110412038D01*
X84580092Y-110204798D01*
X84528403Y-110127000D01*
X87884000Y-110127000D01*
X87884000Y-110363000D01*
X87884000Y-110363000D01*
G37*
X87884000Y-110363000D02*
X87888579Y-110409704D01*
X87892669Y-110456448D01*
X87893414Y-110459014D01*
X87893675Y-110461671D01*
X87907227Y-110506556D01*
X87920329Y-110551655D01*
X87921560Y-110554029D01*
X87922331Y-110556584D01*
X87944340Y-110597977D01*
X87965955Y-110639677D01*
X87967623Y-110641766D01*
X87968876Y-110644123D01*
X87998552Y-110680509D01*
X88027810Y-110717159D01*
X88031473Y-110720874D01*
X88031538Y-110720954D01*
X88031612Y-110721015D01*
X88032790Y-110722210D01*
X89429790Y-112119210D01*
X89466028Y-112148976D01*
X89501997Y-112179158D01*
X89504339Y-112180446D01*
X89506402Y-112182140D01*
X89547714Y-112204291D01*
X89588878Y-112226921D01*
X89591428Y-112227730D01*
X89593778Y-112228990D01*
X89638624Y-112242701D01*
X89683381Y-112256899D01*
X89686034Y-112257197D01*
X89688590Y-112257978D01*
X89735318Y-112262724D01*
X89781907Y-112267950D01*
X89787125Y-112267987D01*
X89787226Y-112267997D01*
X89787320Y-112267988D01*
X89789000Y-112268000D01*
X93515580Y-112268000D01*
X93882132Y-112634552D01*
X93758424Y-112658151D01*
X93616415Y-112715526D01*
X93488254Y-112799392D01*
X93378824Y-112906554D01*
X93292293Y-113032930D01*
X93231956Y-113173706D01*
X93200112Y-113323522D01*
X93197973Y-113476669D01*
X93225622Y-113627314D01*
X93282005Y-113769721D01*
X93364974Y-113898464D01*
X93471369Y-114008639D01*
X93472000Y-114009078D01*
X93472000Y-117443084D01*
X91889165Y-119025919D01*
X91808160Y-118903997D01*
X91700237Y-118795317D01*
X91573260Y-118709670D01*
X91432065Y-118650318D01*
X91282032Y-118619520D01*
X91128873Y-118618451D01*
X90978424Y-118647151D01*
X90836415Y-118704526D01*
X90708254Y-118788392D01*
X90598824Y-118895554D01*
X90512293Y-119021930D01*
X90451956Y-119162706D01*
X90420112Y-119312522D01*
X90417973Y-119465669D01*
X90445622Y-119616314D01*
X90502005Y-119758721D01*
X90584974Y-119887464D01*
X90691369Y-119997639D01*
X90817138Y-120085051D01*
X90826112Y-120088972D01*
X88227885Y-122687199D01*
X86004801Y-122687199D01*
X85958101Y-122691778D01*
X85911353Y-122695868D01*
X85908787Y-122696613D01*
X85906130Y-122696874D01*
X85861245Y-122710426D01*
X85816146Y-122723528D01*
X85813772Y-122724759D01*
X85811217Y-122725530D01*
X85769785Y-122747560D01*
X85728124Y-122769155D01*
X85726038Y-122770820D01*
X85723678Y-122772075D01*
X85687265Y-122801773D01*
X85650642Y-122831009D01*
X85646927Y-122834672D01*
X85646847Y-122834737D01*
X85646786Y-122834811D01*
X85645591Y-122835989D01*
X83962198Y-124519382D01*
X83828873Y-124518451D01*
X83678424Y-124547151D01*
X83536415Y-124604526D01*
X83408254Y-124688392D01*
X83298824Y-124795554D01*
X83212293Y-124921930D01*
X83158799Y-125046740D01*
X83121053Y-125021280D01*
X82961779Y-124954327D01*
X82792535Y-124919587D01*
X82619766Y-124918380D01*
X82450054Y-124950755D01*
X82289861Y-125015477D01*
X82145291Y-125110081D01*
X82021849Y-125230964D01*
X81924238Y-125373521D01*
X81856176Y-125532323D01*
X81820254Y-125701321D01*
X81817842Y-125874077D01*
X81849031Y-126044012D01*
X81912633Y-126204652D01*
X82006225Y-126349879D01*
X82126243Y-126474162D01*
X82268116Y-126572766D01*
X82426439Y-126641935D01*
X82595181Y-126679036D01*
X82767917Y-126682654D01*
X82938065Y-126652652D01*
X83099145Y-126590173D01*
X83245022Y-126497597D01*
X83370140Y-126378449D01*
X83469732Y-126237268D01*
X83540005Y-126079432D01*
X83557447Y-126002661D01*
X83657490Y-126046369D01*
X83807079Y-126079258D01*
X83960207Y-126082466D01*
X84111043Y-126055870D01*
X84253839Y-126000483D01*
X84383158Y-125918414D01*
X84494074Y-125812791D01*
X84582361Y-125687635D01*
X84644658Y-125547715D01*
X84678591Y-125398359D01*
X84680836Y-125237584D01*
X84757751Y-125160669D01*
X85958973Y-125160669D01*
X85986622Y-125311314D01*
X86043005Y-125453721D01*
X86125974Y-125582464D01*
X86232369Y-125692639D01*
X86358138Y-125780051D01*
X86498490Y-125841369D01*
X86648079Y-125874258D01*
X86801207Y-125877466D01*
X86952043Y-125850870D01*
X87094839Y-125795483D01*
X87224158Y-125713414D01*
X87335074Y-125607791D01*
X87423361Y-125482635D01*
X87485658Y-125342715D01*
X87519591Y-125193359D01*
X87522034Y-125018419D01*
X87492284Y-124868174D01*
X87433919Y-124726569D01*
X87349160Y-124598997D01*
X87241237Y-124490317D01*
X87114260Y-124404670D01*
X86973065Y-124345318D01*
X86823032Y-124314520D01*
X86669873Y-124313451D01*
X86519424Y-124342151D01*
X86377415Y-124399526D01*
X86249254Y-124483392D01*
X86139824Y-124590554D01*
X86053293Y-124716930D01*
X85992956Y-124857706D01*
X85961112Y-125007522D01*
X85958973Y-125160669D01*
X84757751Y-125160669D01*
X86215221Y-123703199D01*
X87343349Y-123703199D01*
X87320112Y-123812522D01*
X87317973Y-123965669D01*
X87345622Y-124116314D01*
X87402005Y-124258721D01*
X87484974Y-124387464D01*
X87591369Y-124497639D01*
X87717138Y-124585051D01*
X87857490Y-124646369D01*
X88007079Y-124679258D01*
X88160207Y-124682466D01*
X88311043Y-124655870D01*
X88435166Y-124607726D01*
X88435166Y-125613891D01*
X86562198Y-127486860D01*
X86428873Y-127485929D01*
X86278424Y-127514629D01*
X86136415Y-127572004D01*
X86008254Y-127655870D01*
X85898824Y-127763032D01*
X85812293Y-127889408D01*
X85751956Y-128030184D01*
X85720112Y-128180000D01*
X85717973Y-128333147D01*
X85745622Y-128483792D01*
X85802005Y-128626199D01*
X85884974Y-128754942D01*
X85991369Y-128865117D01*
X86117138Y-128952529D01*
X86257490Y-129013847D01*
X86407079Y-129046736D01*
X86560207Y-129049944D01*
X86711043Y-129023348D01*
X86853839Y-128967961D01*
X86983158Y-128885892D01*
X87094074Y-128780269D01*
X87182361Y-128655113D01*
X87244658Y-128515193D01*
X87278591Y-128365837D01*
X87280836Y-128205062D01*
X88120229Y-127365669D01*
X89417973Y-127365669D01*
X89445622Y-127516314D01*
X89502005Y-127658721D01*
X89584974Y-127787464D01*
X89691369Y-127897639D01*
X89817138Y-127985051D01*
X89957490Y-128046369D01*
X90107079Y-128079258D01*
X90260207Y-128082466D01*
X90411043Y-128055870D01*
X90553839Y-128000483D01*
X90558449Y-127997558D01*
X90551956Y-128012706D01*
X90520112Y-128162522D01*
X90517973Y-128315669D01*
X90545622Y-128466314D01*
X90602005Y-128608721D01*
X90684974Y-128737464D01*
X90791369Y-128847639D01*
X90917138Y-128935051D01*
X91057490Y-128996369D01*
X91207079Y-129029258D01*
X91360207Y-129032466D01*
X91511043Y-129005870D01*
X91653839Y-128950483D01*
X91783158Y-128868414D01*
X91894074Y-128762791D01*
X91982361Y-128637635D01*
X92044658Y-128497715D01*
X92078591Y-128348359D01*
X92081034Y-128173419D01*
X92051284Y-128023174D01*
X91992919Y-127881569D01*
X91908160Y-127753997D01*
X91800237Y-127645317D01*
X91673260Y-127559670D01*
X91532065Y-127500318D01*
X91382032Y-127469520D01*
X91228873Y-127468451D01*
X91078424Y-127497151D01*
X90942768Y-127551959D01*
X90944658Y-127547715D01*
X90978591Y-127398359D01*
X90980325Y-127274217D01*
X90992207Y-127274466D01*
X91143043Y-127247870D01*
X91285839Y-127192483D01*
X91415158Y-127110414D01*
X91526074Y-127004791D01*
X91614361Y-126879635D01*
X91676658Y-126739715D01*
X91710591Y-126590359D01*
X91713034Y-126415419D01*
X91683284Y-126265174D01*
X91624919Y-126123569D01*
X91540160Y-125995997D01*
X91432237Y-125887317D01*
X91305260Y-125801670D01*
X91164065Y-125742318D01*
X91014032Y-125711520D01*
X90860873Y-125710451D01*
X90710424Y-125739151D01*
X90568415Y-125796526D01*
X90440254Y-125880392D01*
X90330824Y-125987554D01*
X90244293Y-126113930D01*
X90183956Y-126254706D01*
X90152112Y-126404522D01*
X90150519Y-126518602D01*
X90128873Y-126518451D01*
X89978424Y-126547151D01*
X89836415Y-126604526D01*
X89708254Y-126688392D01*
X89598824Y-126795554D01*
X89512293Y-126921930D01*
X89451956Y-127062706D01*
X89420112Y-127212522D01*
X89417973Y-127365669D01*
X88120229Y-127365669D01*
X89302376Y-126183523D01*
X89332163Y-126147260D01*
X89362324Y-126111315D01*
X89363612Y-126108973D01*
X89365306Y-126106910D01*
X89387457Y-126065598D01*
X89410087Y-126024434D01*
X89410896Y-126021884D01*
X89412156Y-126019534D01*
X89425854Y-125974729D01*
X89440065Y-125929931D01*
X89440363Y-125927273D01*
X89441143Y-125924722D01*
X89445880Y-125878089D01*
X89451116Y-125831405D01*
X89451153Y-125826176D01*
X89451162Y-125826086D01*
X89451154Y-125826002D01*
X89451166Y-125824312D01*
X89451166Y-123817254D01*
X89602751Y-123665669D01*
X90417973Y-123665669D01*
X90445622Y-123816314D01*
X90502005Y-123958721D01*
X90584974Y-124087464D01*
X90691369Y-124197639D01*
X90742039Y-124232855D01*
X90691956Y-124349706D01*
X90660112Y-124499522D01*
X90657973Y-124652669D01*
X90685622Y-124803314D01*
X90742005Y-124945721D01*
X90824974Y-125074464D01*
X90931369Y-125184639D01*
X91057138Y-125272051D01*
X91197490Y-125333369D01*
X91347079Y-125366258D01*
X91500207Y-125369466D01*
X91651043Y-125342870D01*
X91793839Y-125287483D01*
X91923158Y-125205414D01*
X92034074Y-125099791D01*
X92122361Y-124974635D01*
X92184658Y-124834715D01*
X92218591Y-124685359D01*
X92221034Y-124510419D01*
X92191284Y-124360174D01*
X92132919Y-124218569D01*
X92048160Y-124090997D01*
X91940237Y-123982317D01*
X91897549Y-123953523D01*
X91944658Y-123847715D01*
X91978591Y-123698359D01*
X91981034Y-123523419D01*
X91951284Y-123373174D01*
X91892919Y-123231569D01*
X91808160Y-123103997D01*
X91700237Y-122995317D01*
X91573260Y-122909670D01*
X91432065Y-122850318D01*
X91282032Y-122819520D01*
X91128873Y-122818451D01*
X90978424Y-122847151D01*
X90836415Y-122904526D01*
X90708254Y-122988392D01*
X90598824Y-123095554D01*
X90512293Y-123221930D01*
X90451956Y-123362706D01*
X90420112Y-123512522D01*
X90417973Y-123665669D01*
X89602751Y-123665669D01*
X92679751Y-120588669D01*
X93832973Y-120588669D01*
X93860622Y-120739314D01*
X93917005Y-120881721D01*
X93999974Y-121010464D01*
X94106369Y-121120639D01*
X94232138Y-121208051D01*
X94372490Y-121269369D01*
X94522079Y-121302258D01*
X94675207Y-121305466D01*
X94826043Y-121278870D01*
X94968839Y-121223483D01*
X95098158Y-121141414D01*
X95209074Y-121035791D01*
X95297361Y-120910635D01*
X95359658Y-120770715D01*
X95393591Y-120621359D01*
X95396034Y-120446419D01*
X95366284Y-120296174D01*
X95307919Y-120154569D01*
X95223160Y-120026997D01*
X95115237Y-119918317D01*
X94988260Y-119832670D01*
X94847065Y-119773318D01*
X94697032Y-119742520D01*
X94543873Y-119741451D01*
X94393424Y-119770151D01*
X94251415Y-119827526D01*
X94123254Y-119911392D01*
X94013824Y-120018554D01*
X93927293Y-120144930D01*
X93866956Y-120285706D01*
X93835112Y-120435522D01*
X93832973Y-120588669D01*
X92679751Y-120588669D01*
X95228210Y-118040210D01*
X95257976Y-118003972D01*
X95288158Y-117968003D01*
X95289446Y-117965661D01*
X95291140Y-117963598D01*
X95313300Y-117922269D01*
X95335921Y-117881122D01*
X95336729Y-117878574D01*
X95337991Y-117876221D01*
X95351711Y-117831344D01*
X95365899Y-117786619D01*
X95366197Y-117783966D01*
X95366978Y-117781410D01*
X95371724Y-117734687D01*
X95376950Y-117688093D01*
X95376987Y-117682873D01*
X95376997Y-117682773D01*
X95376988Y-117682679D01*
X95377000Y-117681000D01*
X95377000Y-114111669D01*
X95864973Y-114111669D01*
X95892622Y-114262314D01*
X95949005Y-114404721D01*
X96031974Y-114533464D01*
X96138369Y-114643639D01*
X96264138Y-114731051D01*
X96404490Y-114792369D01*
X96554079Y-114825258D01*
X96707207Y-114828466D01*
X96858043Y-114801870D01*
X97000839Y-114746483D01*
X97130158Y-114664414D01*
X97241074Y-114558791D01*
X97329361Y-114433635D01*
X97391658Y-114293715D01*
X97425591Y-114144359D01*
X97428034Y-113969419D01*
X97398284Y-113819174D01*
X97339919Y-113677569D01*
X97255160Y-113549997D01*
X97147237Y-113441317D01*
X97020260Y-113355670D01*
X96879065Y-113296318D01*
X96729032Y-113265520D01*
X96575873Y-113264451D01*
X96425424Y-113293151D01*
X96283415Y-113350526D01*
X96155254Y-113434392D01*
X96045824Y-113541554D01*
X95959293Y-113667930D01*
X95898956Y-113808706D01*
X95867112Y-113958522D01*
X95864973Y-114111669D01*
X95377000Y-114111669D01*
X95377000Y-112903000D01*
X95372421Y-112856300D01*
X95368331Y-112809552D01*
X95367586Y-112806986D01*
X95367325Y-112804329D01*
X95353773Y-112759444D01*
X95340671Y-112714345D01*
X95339440Y-112711971D01*
X95338669Y-112709416D01*
X95316639Y-112667984D01*
X95295044Y-112626323D01*
X95293379Y-112624237D01*
X95292124Y-112621877D01*
X95262426Y-112585464D01*
X95233190Y-112548841D01*
X95229527Y-112545126D01*
X95229462Y-112545046D01*
X95229388Y-112544985D01*
X95228210Y-112543790D01*
X94085210Y-111400790D01*
X94048972Y-111371024D01*
X94013003Y-111340842D01*
X94010661Y-111339554D01*
X94008598Y-111337860D01*
X93967251Y-111315690D01*
X93926122Y-111293079D01*
X93923577Y-111292272D01*
X93921222Y-111291009D01*
X93876330Y-111277284D01*
X93831619Y-111263101D01*
X93828966Y-111262803D01*
X93826410Y-111262022D01*
X93779687Y-111257276D01*
X93733093Y-111252050D01*
X93727873Y-111252013D01*
X93727773Y-111252003D01*
X93727679Y-111252012D01*
X93726000Y-111252000D01*
X89999420Y-111252000D01*
X88900000Y-110152580D01*
X88900000Y-110127000D01*
X99508839Y-110127000D01*
X99454956Y-110252718D01*
X99423112Y-110402534D01*
X99420973Y-110555681D01*
X99448622Y-110706326D01*
X99505005Y-110848733D01*
X99587974Y-110977476D01*
X99694369Y-111087651D01*
X99820138Y-111175063D01*
X99960490Y-111236381D01*
X100110079Y-111269270D01*
X100263207Y-111272478D01*
X100414043Y-111245882D01*
X100556839Y-111190495D01*
X100686158Y-111108426D01*
X100797074Y-111002803D01*
X100885361Y-110877647D01*
X100947658Y-110737727D01*
X100981591Y-110588371D01*
X100984034Y-110413431D01*
X100954284Y-110263186D01*
X100898153Y-110127000D01*
X104836151Y-110127000D01*
X104874642Y-110166859D01*
X105000411Y-110254271D01*
X105140763Y-110315589D01*
X105290352Y-110348478D01*
X105443480Y-110351686D01*
X105594316Y-110325090D01*
X105737112Y-110269703D01*
X105866431Y-110187634D01*
X105889628Y-110165544D01*
X105120672Y-110934500D01*
X103643117Y-110934500D01*
X103578913Y-110940795D01*
X103514626Y-110946420D01*
X103511099Y-110947445D01*
X103507444Y-110947803D01*
X103445682Y-110966450D01*
X103383716Y-110984453D01*
X103380454Y-110986144D01*
X103376939Y-110987205D01*
X103319992Y-111017485D01*
X103262686Y-111047189D01*
X103259814Y-111049482D01*
X103256573Y-111051205D01*
X103206597Y-111091964D01*
X103156147Y-111132238D01*
X103151035Y-111137280D01*
X103150930Y-111137365D01*
X103150850Y-111137462D01*
X103149203Y-111139086D01*
X102102687Y-112185602D01*
X102061735Y-112235458D01*
X102020259Y-112284887D01*
X102018490Y-112288105D01*
X102016158Y-112290944D01*
X101985670Y-112347804D01*
X101954585Y-112404348D01*
X101953474Y-112407850D01*
X101951739Y-112411086D01*
X101932884Y-112472760D01*
X101913365Y-112534290D01*
X101912955Y-112537942D01*
X101911882Y-112541453D01*
X101905363Y-112605630D01*
X101902453Y-112631573D01*
X101846260Y-112593670D01*
X101705065Y-112534318D01*
X101555032Y-112503520D01*
X101401873Y-112502451D01*
X101251424Y-112531151D01*
X101109415Y-112588526D01*
X100982549Y-112671545D01*
X100941967Y-112630678D01*
X100814990Y-112545031D01*
X100673795Y-112485679D01*
X100523762Y-112454881D01*
X100370603Y-112453812D01*
X100220154Y-112482512D01*
X100078145Y-112539887D01*
X99949984Y-112623753D01*
X99840554Y-112730915D01*
X99754023Y-112857291D01*
X99732149Y-112908326D01*
X99705210Y-112842966D01*
X99620451Y-112715394D01*
X99512528Y-112606714D01*
X99385551Y-112521067D01*
X99244356Y-112461715D01*
X99094323Y-112430917D01*
X98941164Y-112429848D01*
X98790715Y-112458548D01*
X98648706Y-112515923D01*
X98520545Y-112599789D01*
X98411115Y-112706951D01*
X98324584Y-112833327D01*
X98264247Y-112974103D01*
X98232403Y-113123919D01*
X98230264Y-113277066D01*
X98257913Y-113427711D01*
X98314296Y-113570118D01*
X98397265Y-113698861D01*
X98503660Y-113809036D01*
X98629429Y-113896448D01*
X98769781Y-113957766D01*
X98919370Y-113990655D01*
X99072498Y-113993863D01*
X99223334Y-113967267D01*
X99366130Y-113911880D01*
X99495449Y-113829811D01*
X99606365Y-113724188D01*
X99694652Y-113599032D01*
X99721669Y-113538351D01*
X99743230Y-113592807D01*
X99743230Y-115341730D01*
X99749526Y-115405939D01*
X99755150Y-115470220D01*
X99756174Y-115473746D01*
X99756533Y-115477403D01*
X99775184Y-115539177D01*
X99793183Y-115601131D01*
X99794874Y-115604393D01*
X99795935Y-115607908D01*
X99826215Y-115664855D01*
X99855919Y-115722161D01*
X99858212Y-115725033D01*
X99859935Y-115728274D01*
X99900694Y-115778250D01*
X99940968Y-115828700D01*
X99946010Y-115833812D01*
X99946095Y-115833917D01*
X99946192Y-115833997D01*
X99947816Y-115835644D01*
X101827086Y-117714914D01*
X101876942Y-117755866D01*
X101926371Y-117797342D01*
X101929589Y-117799111D01*
X101932428Y-117801443D01*
X101941951Y-117806549D01*
X101887824Y-117859554D01*
X101801293Y-117985930D01*
X101740956Y-118126706D01*
X101709112Y-118276522D01*
X101706973Y-118429669D01*
X101734622Y-118580314D01*
X101791005Y-118722721D01*
X101873974Y-118851464D01*
X101980369Y-118961639D01*
X102106138Y-119049051D01*
X102246490Y-119110369D01*
X102396079Y-119143258D01*
X102549207Y-119146466D01*
X102700043Y-119119870D01*
X102842839Y-119064483D01*
X102972158Y-118982414D01*
X103083074Y-118876791D01*
X103171361Y-118751635D01*
X103186228Y-118718243D01*
X103188001Y-118722721D01*
X103270970Y-118851464D01*
X103377365Y-118961639D01*
X103503134Y-119049051D01*
X103643486Y-119110369D01*
X103793075Y-119143258D01*
X103946203Y-119146466D01*
X104097039Y-119119870D01*
X104239835Y-119064483D01*
X104369154Y-118982414D01*
X104392220Y-118960449D01*
X104393369Y-118961639D01*
X104519138Y-119049051D01*
X104659490Y-119110369D01*
X104809079Y-119143258D01*
X104962207Y-119146466D01*
X105113043Y-119119870D01*
X105255839Y-119064483D01*
X105385158Y-118982414D01*
X105496074Y-118876791D01*
X105584361Y-118751635D01*
X105646658Y-118611715D01*
X105680591Y-118462359D01*
X105683034Y-118287419D01*
X105653284Y-118137174D01*
X105594919Y-117995569D01*
X105544379Y-117919500D01*
X106243954Y-117919500D01*
X106308163Y-117913204D01*
X106351662Y-117909398D01*
X106312956Y-117999706D01*
X106281112Y-118149522D01*
X106278973Y-118302669D01*
X106306622Y-118453314D01*
X106363005Y-118595721D01*
X106445974Y-118724464D01*
X106552369Y-118834639D01*
X106678138Y-118922051D01*
X106818490Y-118983369D01*
X106968079Y-119016258D01*
X107121207Y-119019466D01*
X107272043Y-118992870D01*
X107414839Y-118937483D01*
X107544158Y-118855414D01*
X107655074Y-118749791D01*
X107743361Y-118624635D01*
X107805658Y-118484715D01*
X107839591Y-118335359D01*
X107842034Y-118160419D01*
X107812284Y-118010174D01*
X107753919Y-117868569D01*
X107669160Y-117740997D01*
X107561237Y-117632317D01*
X107434260Y-117546670D01*
X107293065Y-117487318D01*
X107143032Y-117456520D01*
X106997279Y-117455503D01*
X107084222Y-117368560D01*
X113267157Y-117368560D01*
X113267157Y-118668560D01*
X113271995Y-118729233D01*
X113303864Y-118832140D01*
X113363140Y-118922095D01*
X113445130Y-118991975D01*
X113543342Y-119036246D01*
X113650000Y-119051403D01*
X114950000Y-119051403D01*
X115010673Y-119046565D01*
X115113580Y-119014696D01*
X115203535Y-118955420D01*
X115273415Y-118873430D01*
X115317686Y-118775218D01*
X115332843Y-118668560D01*
X115332843Y-117368560D01*
X115328005Y-117307887D01*
X115296136Y-117204980D01*
X115236860Y-117115025D01*
X115154870Y-117045145D01*
X115056658Y-117000874D01*
X114950000Y-116985717D01*
X114653748Y-116985717D01*
X114767104Y-116941749D01*
X114937819Y-116833410D01*
X115084239Y-116693977D01*
X115200787Y-116528758D01*
X115283025Y-116344049D01*
X115327820Y-116146884D01*
X115331045Y-115915945D01*
X115291772Y-115717606D01*
X115214724Y-115530673D01*
X115102834Y-115362265D01*
X114960364Y-115218797D01*
X114792741Y-115105734D01*
X114606350Y-115027382D01*
X114419015Y-114988928D01*
X114485357Y-114982864D01*
X114670515Y-114928115D01*
X114841434Y-114838295D01*
X114852948Y-114830603D01*
X114915242Y-114675664D01*
X114300000Y-114060421D01*
X113684758Y-114675664D01*
X113747052Y-114830603D01*
X113916692Y-114922816D01*
X114101062Y-114980163D01*
X114186063Y-114989138D01*
X114007497Y-115023201D01*
X113820030Y-115098943D01*
X113650845Y-115209654D01*
X113506386Y-115351119D01*
X113392156Y-115517948D01*
X113312505Y-115703788D01*
X113270467Y-115901559D01*
X113267644Y-116103729D01*
X113304143Y-116302597D01*
X113378574Y-116490588D01*
X113488102Y-116660542D01*
X113628555Y-116805985D01*
X113794583Y-116921378D01*
X113941850Y-116985717D01*
X113650000Y-116985717D01*
X113589327Y-116990555D01*
X113486420Y-117022424D01*
X113396465Y-117081700D01*
X113326585Y-117163690D01*
X113282314Y-117261902D01*
X113267157Y-117368560D01*
X107084222Y-117368560D01*
X109586914Y-114865868D01*
X109627844Y-114816039D01*
X109669342Y-114766583D01*
X109671113Y-114763361D01*
X109673442Y-114760526D01*
X109703910Y-114703704D01*
X109735016Y-114647122D01*
X109736127Y-114643620D01*
X109737862Y-114640384D01*
X109756721Y-114578698D01*
X109776236Y-114517180D01*
X109776646Y-114513529D01*
X109777719Y-114510018D01*
X109784234Y-114445880D01*
X109791432Y-114381707D01*
X109791482Y-114374519D01*
X109791495Y-114374392D01*
X109791484Y-114374274D01*
X109791500Y-114371954D01*
X109791500Y-110127000D01*
X110369052Y-110127000D01*
X110368857Y-110127238D01*
X110316063Y-110190155D01*
X110313810Y-110194253D01*
X110310844Y-110197864D01*
X110272038Y-110270236D01*
X110232478Y-110342197D01*
X110231065Y-110346651D01*
X110228855Y-110350773D01*
X110204838Y-110429328D01*
X110180016Y-110507578D01*
X110179495Y-110512223D01*
X110178128Y-110516694D01*
X110169830Y-110598391D01*
X110160676Y-110679999D01*
X110160612Y-110689141D01*
X110160595Y-110689308D01*
X110160610Y-110689463D01*
X110160589Y-110692411D01*
X110160589Y-111258096D01*
X110168600Y-111339800D01*
X110175759Y-111421629D01*
X110177064Y-111426121D01*
X110177520Y-111430770D01*
X110201254Y-111509380D01*
X110224166Y-111588242D01*
X110226316Y-111592390D01*
X110227668Y-111596868D01*
X110236000Y-111612538D01*
X110236000Y-113411000D01*
X110252931Y-113583674D01*
X110303079Y-113749772D01*
X110384533Y-113902965D01*
X110494192Y-114037420D01*
X110627878Y-114148014D01*
X110780499Y-114230536D01*
X110946242Y-114281842D01*
X111118794Y-114299978D01*
X111291582Y-114284253D01*
X111458025Y-114235266D01*
X111611784Y-114154883D01*
X111747001Y-114046166D01*
X111778525Y-114008597D01*
X113315082Y-114008597D01*
X113332656Y-114200877D01*
X113387405Y-114386035D01*
X113477225Y-114556954D01*
X113484917Y-114568468D01*
X113639856Y-114630762D01*
X114255099Y-114015520D01*
X114344901Y-114015520D01*
X114960144Y-114630762D01*
X115115083Y-114568468D01*
X115207296Y-114398828D01*
X115264643Y-114214458D01*
X115284918Y-114022443D01*
X115267344Y-113830163D01*
X115212595Y-113645005D01*
X115122775Y-113474086D01*
X115115083Y-113462572D01*
X114960144Y-113400278D01*
X114344901Y-114015520D01*
X114255099Y-114015520D01*
X113639856Y-113400278D01*
X113484917Y-113462572D01*
X113392704Y-113632212D01*
X113335357Y-113816582D01*
X113315082Y-114008597D01*
X111778525Y-114008597D01*
X111858526Y-113913256D01*
X111942111Y-113761214D01*
X111994573Y-113595833D01*
X112013913Y-113423412D01*
X112014000Y-113411000D01*
X112014000Y-110985236D01*
X112872236Y-110127000D01*
X113272286Y-110127000D01*
X113304143Y-110300577D01*
X113378574Y-110488568D01*
X113488102Y-110658522D01*
X113628555Y-110803965D01*
X113794583Y-110919358D01*
X113979862Y-111000304D01*
X114047244Y-111015119D01*
X114007497Y-111022701D01*
X113820030Y-111098443D01*
X113650845Y-111209154D01*
X113506386Y-111350619D01*
X113392156Y-111517448D01*
X113312505Y-111703288D01*
X113270467Y-111901059D01*
X113267644Y-112103229D01*
X113304143Y-112302097D01*
X113378574Y-112490088D01*
X113488102Y-112660042D01*
X113628555Y-112805485D01*
X113794583Y-112920878D01*
X113979862Y-113001824D01*
X114168356Y-113043267D01*
X114114643Y-113048176D01*
X113929485Y-113102925D01*
X113758566Y-113192745D01*
X113747052Y-113200437D01*
X113684758Y-113355376D01*
X114300000Y-113970619D01*
X114915242Y-113355376D01*
X114852948Y-113200437D01*
X114683308Y-113108224D01*
X114498938Y-113050877D01*
X114419253Y-113042463D01*
X114578598Y-113014366D01*
X114767104Y-112941249D01*
X114937819Y-112832910D01*
X115084239Y-112693477D01*
X115200787Y-112528258D01*
X115283025Y-112343549D01*
X115327820Y-112146384D01*
X115331045Y-111915445D01*
X115291772Y-111717106D01*
X115214724Y-111530173D01*
X115102834Y-111361765D01*
X114960364Y-111218297D01*
X114792741Y-111105234D01*
X114606350Y-111026882D01*
X114556744Y-111016699D01*
X114578598Y-111012846D01*
X114767104Y-110939729D01*
X114937819Y-110831390D01*
X115084239Y-110691957D01*
X115200787Y-110526738D01*
X115283025Y-110342029D01*
X115327820Y-110144864D01*
X115328069Y-110127000D01*
X116544000Y-110127000D01*
X116544000Y-138873000D01*
X111435713Y-138873000D01*
X111434909Y-138870337D01*
X111422796Y-138829179D01*
X111422055Y-138827761D01*
X111421593Y-138826232D01*
X111401471Y-138788388D01*
X111381565Y-138750311D01*
X111380562Y-138749063D01*
X111379812Y-138747653D01*
X111352716Y-138714431D01*
X111325800Y-138680954D01*
X111324574Y-138679925D01*
X111323564Y-138678687D01*
X111290529Y-138651358D01*
X111257625Y-138623748D01*
X111256223Y-138622977D01*
X111254992Y-138621959D01*
X111217277Y-138601566D01*
X111179638Y-138580874D01*
X111178113Y-138580390D01*
X111176707Y-138579630D01*
X111135711Y-138566940D01*
X111094808Y-138553965D01*
X111093219Y-138553787D01*
X111091692Y-138553314D01*
X111049044Y-138548831D01*
X111006367Y-138544044D01*
X111003295Y-138544023D01*
X111003183Y-138544011D01*
X111003071Y-138544021D01*
X111000000Y-138544000D01*
X104264597Y-138544000D01*
X104314361Y-138473455D01*
X104376658Y-138333535D01*
X104410591Y-138184179D01*
X104413034Y-138009239D01*
X104383284Y-137858994D01*
X104324919Y-137717389D01*
X104240160Y-137589817D01*
X104132237Y-137481137D01*
X104005260Y-137395490D01*
X103864065Y-137336138D01*
X103714032Y-137305340D01*
X103560873Y-137304271D01*
X103410424Y-137332971D01*
X103268415Y-137390346D01*
X103140254Y-137474212D01*
X103030824Y-137581374D01*
X102944293Y-137707750D01*
X102883956Y-137848526D01*
X102852112Y-137998342D01*
X102849973Y-138151489D01*
X102877622Y-138302134D01*
X102934005Y-138444541D01*
X102998102Y-138544000D01*
X102232597Y-138544000D01*
X102282361Y-138473455D01*
X102344658Y-138333535D01*
X102378591Y-138184179D01*
X102381034Y-138009239D01*
X102351284Y-137858994D01*
X102307042Y-137751653D01*
X102337990Y-137742662D01*
X102342734Y-137740203D01*
X102347848Y-137738659D01*
X102430733Y-137694588D01*
X102514033Y-137651409D01*
X102518206Y-137648078D01*
X102522926Y-137645568D01*
X102595662Y-137586246D01*
X102668999Y-137527702D01*
X102676432Y-137520371D01*
X102676588Y-137520244D01*
X102676707Y-137520100D01*
X102679100Y-137517740D01*
X105145030Y-135051811D01*
X106873953Y-135051811D01*
X106836916Y-135066775D01*
X106708755Y-135150641D01*
X106599325Y-135257803D01*
X106512794Y-135384179D01*
X106452457Y-135524955D01*
X106420613Y-135674771D01*
X106420577Y-135677351D01*
X106400310Y-135646847D01*
X106292387Y-135538167D01*
X106165410Y-135452520D01*
X106024215Y-135393168D01*
X105874182Y-135362370D01*
X105721023Y-135361301D01*
X105570574Y-135390001D01*
X105428565Y-135447376D01*
X105300404Y-135531242D01*
X105190974Y-135638404D01*
X105104443Y-135764780D01*
X105044106Y-135905556D01*
X105012262Y-136055372D01*
X105010123Y-136208519D01*
X105037772Y-136359164D01*
X105094155Y-136501571D01*
X105177124Y-136630314D01*
X105283519Y-136740489D01*
X105409288Y-136827901D01*
X105549640Y-136889219D01*
X105699229Y-136922108D01*
X105852357Y-136925316D01*
X106003193Y-136898720D01*
X106145989Y-136843333D01*
X106275308Y-136761264D01*
X106386224Y-136655641D01*
X106474511Y-136530485D01*
X106536808Y-136390565D01*
X106570741Y-136241209D01*
X106570937Y-136227155D01*
X106585475Y-136249713D01*
X106691870Y-136359888D01*
X106817639Y-136447300D01*
X106957991Y-136508618D01*
X106965090Y-136510179D01*
X106839424Y-136534151D01*
X106697415Y-136591526D01*
X106569254Y-136675392D01*
X106459824Y-136782554D01*
X106373293Y-136908930D01*
X106312956Y-137049706D01*
X106281112Y-137199522D01*
X106278973Y-137352669D01*
X106306622Y-137503314D01*
X106363005Y-137645721D01*
X106445974Y-137774464D01*
X106552369Y-137884639D01*
X106678138Y-137972051D01*
X106818490Y-138033369D01*
X106968079Y-138066258D01*
X107121207Y-138069466D01*
X107272043Y-138042870D01*
X107414839Y-137987483D01*
X107544158Y-137905414D01*
X107655074Y-137799791D01*
X107714295Y-137715839D01*
X107759971Y-137801744D01*
X107900961Y-137974614D01*
X108072843Y-138116807D01*
X108269070Y-138222907D01*
X108482168Y-138288872D01*
X108704020Y-138312189D01*
X108926177Y-138291971D01*
X109140175Y-138228988D01*
X109337865Y-138125639D01*
X109511715Y-137985859D01*
X109655105Y-137814974D01*
X109762572Y-137619493D01*
X109830023Y-137406860D01*
X109854889Y-137185176D01*
X109855000Y-137169217D01*
X109855000Y-135675840D01*
X110109000Y-135929840D01*
X110109000Y-137169217D01*
X110130768Y-137391227D01*
X110195244Y-137604780D01*
X110299971Y-137801744D01*
X110440961Y-137974614D01*
X110612843Y-138116807D01*
X110809070Y-138222907D01*
X111022168Y-138288872D01*
X111244020Y-138312189D01*
X111466177Y-138291971D01*
X111680175Y-138228988D01*
X111877865Y-138125639D01*
X112051715Y-137985859D01*
X112195105Y-137814974D01*
X112302572Y-137619493D01*
X112370023Y-137406860D01*
X112394889Y-137185176D01*
X112395000Y-137169217D01*
X112395000Y-136429750D01*
X112699800Y-136429750D01*
X112699800Y-137191750D01*
X112726980Y-137404218D01*
X112795089Y-137607301D01*
X112901508Y-137793194D01*
X113042149Y-137954754D01*
X113211606Y-138085772D01*
X113403367Y-138181213D01*
X113589855Y-138233330D01*
X113760250Y-138169151D01*
X113760250Y-136429750D01*
X113823750Y-136429750D01*
X113823750Y-138169151D01*
X113994145Y-138233330D01*
X114180633Y-138181213D01*
X114372394Y-138085772D01*
X114541851Y-137954754D01*
X114682492Y-137793194D01*
X114788911Y-137607301D01*
X114857020Y-137404218D01*
X114884200Y-137191750D01*
X114884200Y-136429750D01*
X113823750Y-136429750D01*
X113760250Y-136429750D01*
X112699800Y-136429750D01*
X112395000Y-136429750D01*
X112395000Y-135626783D01*
X112392791Y-135604250D01*
X112699800Y-135604250D01*
X112699800Y-136366250D01*
X113760250Y-136366250D01*
X113760250Y-134626849D01*
X113823750Y-134626849D01*
X113823750Y-136366250D01*
X114884200Y-136366250D01*
X114884200Y-135604250D01*
X114857020Y-135391782D01*
X114788911Y-135188699D01*
X114682492Y-135002806D01*
X114541851Y-134841246D01*
X114372394Y-134710228D01*
X114180633Y-134614787D01*
X113994145Y-134562670D01*
X113823750Y-134626849D01*
X113760250Y-134626849D01*
X113589855Y-134562670D01*
X113403367Y-134614787D01*
X113211606Y-134710228D01*
X113042149Y-134841246D01*
X112901508Y-135002806D01*
X112795089Y-135188699D01*
X112726980Y-135391782D01*
X112699800Y-135604250D01*
X112392791Y-135604250D01*
X112373232Y-135404773D01*
X112308756Y-135191220D01*
X112204029Y-134994256D01*
X112063039Y-134821386D01*
X111891157Y-134679193D01*
X111694930Y-134573093D01*
X111594999Y-134542159D01*
X110370231Y-133317391D01*
X110297725Y-133257834D01*
X110225817Y-133197496D01*
X110221136Y-133194922D01*
X110217007Y-133191531D01*
X110134299Y-133147183D01*
X110052056Y-133101969D01*
X110046963Y-133100353D01*
X110042255Y-133097829D01*
X109952484Y-133070383D01*
X109873061Y-133045189D01*
X110005705Y-133045189D01*
X110052409Y-133040610D01*
X110099153Y-133036520D01*
X110101719Y-133035775D01*
X110104376Y-133035514D01*
X110149261Y-133021962D01*
X110194360Y-133008860D01*
X110196734Y-133007629D01*
X110199289Y-133006858D01*
X110240682Y-132984849D01*
X110282382Y-132963234D01*
X110284471Y-132961566D01*
X110286828Y-132960313D01*
X110323214Y-132930637D01*
X110359864Y-132901379D01*
X110363579Y-132897716D01*
X110363659Y-132897651D01*
X110363720Y-132897577D01*
X110364915Y-132896399D01*
X111665113Y-131596202D01*
X111696993Y-131676721D01*
X111779962Y-131805464D01*
X111886357Y-131915639D01*
X112012126Y-132003051D01*
X112152478Y-132064369D01*
X112302067Y-132097258D01*
X112455195Y-132100466D01*
X112606031Y-132073870D01*
X112748827Y-132018483D01*
X112878146Y-131936414D01*
X112989062Y-131830791D01*
X113077349Y-131705635D01*
X113139646Y-131565715D01*
X113173579Y-131416359D01*
X113176022Y-131241419D01*
X113146272Y-131091174D01*
X113087907Y-130949569D01*
X113003148Y-130821997D01*
X112943311Y-130761740D01*
X113400491Y-130761740D01*
X113487913Y-130897392D01*
X113628399Y-131042869D01*
X113794465Y-131158288D01*
X113979787Y-131239253D01*
X114046052Y-131253822D01*
X114007429Y-131261190D01*
X113819919Y-131336949D01*
X113650694Y-131447687D01*
X113506202Y-131589184D01*
X113391945Y-131756052D01*
X113312275Y-131941935D01*
X113270228Y-132139753D01*
X113267404Y-132341969D01*
X113303912Y-132540884D01*
X113378360Y-132728919D01*
X113487913Y-132898912D01*
X113628399Y-133044389D01*
X113794465Y-133159808D01*
X113979787Y-133240773D01*
X114177306Y-133284201D01*
X114379499Y-133288436D01*
X114578663Y-133253318D01*
X114767213Y-133180184D01*
X114937967Y-133071820D01*
X115084421Y-132932354D01*
X115200997Y-132767097D01*
X115283254Y-132582345D01*
X115328059Y-132385134D01*
X115331284Y-132154142D01*
X115292003Y-131955757D01*
X115214937Y-131768779D01*
X115103021Y-131600332D01*
X114960518Y-131456831D01*
X114792856Y-131343742D01*
X114606422Y-131265372D01*
X114558024Y-131255437D01*
X114578663Y-131251798D01*
X114767213Y-131178664D01*
X114937967Y-131070300D01*
X115084421Y-130930834D01*
X115200997Y-130765577D01*
X115283254Y-130580825D01*
X115328059Y-130383614D01*
X115331284Y-130152622D01*
X115292003Y-129954237D01*
X115214937Y-129767259D01*
X115103021Y-129598812D01*
X114960518Y-129455311D01*
X114792856Y-129342222D01*
X114606422Y-129263852D01*
X114564680Y-129255284D01*
X114578663Y-129252818D01*
X114767213Y-129179684D01*
X114937967Y-129071320D01*
X115084421Y-128931854D01*
X115200997Y-128766597D01*
X115283254Y-128581845D01*
X115328059Y-128384634D01*
X115331284Y-128153642D01*
X115292003Y-127955257D01*
X115214937Y-127768279D01*
X115103021Y-127599832D01*
X114960518Y-127456331D01*
X114792856Y-127343242D01*
X114606422Y-127264872D01*
X114420653Y-127226739D01*
X114485398Y-127220822D01*
X114670602Y-127166061D01*
X114841563Y-127076220D01*
X114853089Y-127068519D01*
X114915413Y-126913554D01*
X114300000Y-126298141D01*
X113684587Y-126913554D01*
X113746911Y-127068519D01*
X113916592Y-127160756D01*
X114101007Y-127218118D01*
X114184424Y-127226927D01*
X114007429Y-127260690D01*
X113819919Y-127336449D01*
X113650694Y-127447187D01*
X113538000Y-127557545D01*
X113538000Y-126827757D01*
X113639686Y-126868653D01*
X114255099Y-126253240D01*
X114344901Y-126253240D01*
X114960314Y-126868653D01*
X115115279Y-126806329D01*
X115207516Y-126636648D01*
X115264878Y-126452233D01*
X115285160Y-126260171D01*
X115267582Y-126067842D01*
X115212821Y-125882638D01*
X115122980Y-125711677D01*
X115115279Y-125700151D01*
X114960314Y-125637827D01*
X114344901Y-126253240D01*
X114255099Y-126253240D01*
X114240957Y-126239098D01*
X114285858Y-126194197D01*
X114300000Y-126208339D01*
X114915413Y-125592926D01*
X114853089Y-125437961D01*
X114683408Y-125345724D01*
X114498993Y-125288362D01*
X114420973Y-125280123D01*
X114578663Y-125252318D01*
X114767213Y-125179184D01*
X114937967Y-125070820D01*
X115084421Y-124931354D01*
X115200997Y-124766097D01*
X115283254Y-124581345D01*
X115328059Y-124384134D01*
X115331284Y-124153142D01*
X115292003Y-123954757D01*
X115214937Y-123767779D01*
X115103021Y-123599332D01*
X114960518Y-123455831D01*
X114792856Y-123342742D01*
X114606422Y-123264372D01*
X114558024Y-123254437D01*
X114578663Y-123250798D01*
X114767213Y-123177664D01*
X114937967Y-123069300D01*
X115084421Y-122929834D01*
X115200997Y-122764577D01*
X115283254Y-122579825D01*
X115328059Y-122382614D01*
X115331284Y-122151622D01*
X115292003Y-121953237D01*
X115214937Y-121766259D01*
X115103021Y-121597812D01*
X114960518Y-121454311D01*
X114792856Y-121341222D01*
X114606422Y-121262852D01*
X114408316Y-121222187D01*
X114206084Y-121220775D01*
X114007429Y-121258670D01*
X113819919Y-121334429D01*
X113650694Y-121445167D01*
X113506202Y-121586664D01*
X113391945Y-121753532D01*
X113312275Y-121939415D01*
X113270228Y-122137233D01*
X113267404Y-122339449D01*
X113303912Y-122538364D01*
X113378360Y-122726399D01*
X113487913Y-122896392D01*
X113628399Y-123041869D01*
X113794465Y-123157288D01*
X113979787Y-123238253D01*
X114046052Y-123252822D01*
X114007429Y-123260190D01*
X113819919Y-123335949D01*
X113650694Y-123446687D01*
X113506202Y-123588184D01*
X113391945Y-123755052D01*
X113312275Y-123940935D01*
X113270228Y-124138753D01*
X113267404Y-124340969D01*
X113302678Y-124533162D01*
X113290621Y-124545219D01*
X113290550Y-124545289D01*
X112670790Y-125165050D01*
X112641024Y-125201288D01*
X112610842Y-125237257D01*
X112609554Y-125239599D01*
X112607860Y-125241662D01*
X112585690Y-125283009D01*
X112563079Y-125324138D01*
X112562272Y-125326683D01*
X112561009Y-125329038D01*
X112547284Y-125373930D01*
X112533101Y-125418641D01*
X112532803Y-125421294D01*
X112532022Y-125423850D01*
X112527276Y-125470573D01*
X112522050Y-125517167D01*
X112522013Y-125522387D01*
X112522003Y-125522487D01*
X112522012Y-125522581D01*
X112522000Y-125524260D01*
X112522000Y-128059579D01*
X110229767Y-130351813D01*
X110225284Y-130329174D01*
X110166919Y-130187569D01*
X110121913Y-130119830D01*
X110203073Y-130088350D01*
X110332392Y-130006281D01*
X110443308Y-129900658D01*
X110531595Y-129775502D01*
X110593892Y-129635582D01*
X110627825Y-129486226D01*
X110630268Y-129311286D01*
X110600518Y-129161041D01*
X110542153Y-129019436D01*
X110457394Y-128891864D01*
X110349471Y-128783184D01*
X110222494Y-128697537D01*
X110081299Y-128638185D01*
X109931266Y-128607387D01*
X109778107Y-128606318D01*
X109627658Y-128635018D01*
X109485649Y-128692393D01*
X109357488Y-128776259D01*
X109248058Y-128883421D01*
X109161527Y-129009797D01*
X109101190Y-129150573D01*
X109069346Y-129300389D01*
X109067207Y-129453536D01*
X109094856Y-129604181D01*
X109151239Y-129746588D01*
X109201064Y-129823902D01*
X109110415Y-129860526D01*
X108982254Y-129944392D01*
X108872824Y-130051554D01*
X108786293Y-130177930D01*
X108725956Y-130318706D01*
X108694112Y-130468522D01*
X108691973Y-130621669D01*
X108719622Y-130772314D01*
X108776005Y-130914721D01*
X108858974Y-131043464D01*
X108965369Y-131153639D01*
X108982531Y-131165567D01*
X108261987Y-131165567D01*
X105642210Y-128545790D01*
X105605972Y-128516024D01*
X105570003Y-128485842D01*
X105567661Y-128484554D01*
X105565598Y-128482860D01*
X105524251Y-128460690D01*
X105483122Y-128438079D01*
X105480577Y-128437272D01*
X105478222Y-128436009D01*
X105433330Y-128422284D01*
X105388619Y-128408101D01*
X105385966Y-128407803D01*
X105383410Y-128407022D01*
X105336687Y-128402276D01*
X105290093Y-128397050D01*
X105284873Y-128397013D01*
X105284773Y-128397003D01*
X105284679Y-128397012D01*
X105283000Y-128397000D01*
X104229454Y-128397000D01*
X104230086Y-128396104D01*
X107504843Y-128396104D01*
X107532492Y-128546749D01*
X107588875Y-128689156D01*
X107671844Y-128817899D01*
X107778239Y-128928074D01*
X107904008Y-129015486D01*
X108044360Y-129076804D01*
X108193949Y-129109693D01*
X108347077Y-129112901D01*
X108497913Y-129086305D01*
X108640709Y-129030918D01*
X108770028Y-128948849D01*
X108880944Y-128843226D01*
X108969231Y-128718070D01*
X109031528Y-128578150D01*
X109065461Y-128428794D01*
X109067750Y-128264910D01*
X109195324Y-128267583D01*
X109346160Y-128240987D01*
X109488956Y-128185600D01*
X109618275Y-128103531D01*
X109729191Y-127997908D01*
X109817478Y-127872752D01*
X109879775Y-127732832D01*
X109913708Y-127583476D01*
X109916151Y-127408536D01*
X109886401Y-127258291D01*
X109828036Y-127116686D01*
X109743277Y-126989114D01*
X109635354Y-126880434D01*
X109508377Y-126794787D01*
X109367182Y-126735435D01*
X109217149Y-126704637D01*
X109063990Y-126703568D01*
X108913541Y-126732268D01*
X108771532Y-126789643D01*
X108643371Y-126873509D01*
X108533941Y-126980671D01*
X108447410Y-127107047D01*
X108387073Y-127247823D01*
X108355229Y-127397639D01*
X108353103Y-127549845D01*
X108215743Y-127548886D01*
X108065294Y-127577586D01*
X107923285Y-127634961D01*
X107795124Y-127718827D01*
X107685694Y-127825989D01*
X107599163Y-127952365D01*
X107538826Y-128093141D01*
X107506982Y-128242957D01*
X107504843Y-128396104D01*
X104230086Y-128396104D01*
X104314361Y-128276635D01*
X104333500Y-128233648D01*
X104400974Y-128263127D01*
X104550563Y-128296016D01*
X104703691Y-128299224D01*
X104854527Y-128272628D01*
X104997323Y-128217241D01*
X105126642Y-128135172D01*
X105237558Y-128029549D01*
X105325845Y-127904393D01*
X105388142Y-127764473D01*
X105422075Y-127615117D01*
X105424518Y-127440177D01*
X105408988Y-127361747D01*
X105444833Y-127347844D01*
X105574152Y-127265775D01*
X105685068Y-127160152D01*
X105702425Y-127135547D01*
X105802486Y-127179262D01*
X105952075Y-127212151D01*
X106105203Y-127215359D01*
X106256039Y-127188763D01*
X106398835Y-127133376D01*
X106528154Y-127051307D01*
X106639070Y-126945684D01*
X106727357Y-126820528D01*
X106789654Y-126680608D01*
X106823587Y-126531252D01*
X106826030Y-126356312D01*
X106796280Y-126206067D01*
X106737915Y-126064462D01*
X106653156Y-125936890D01*
X106545233Y-125828210D01*
X106418256Y-125742563D01*
X106277061Y-125683211D01*
X106127028Y-125652413D01*
X105973869Y-125651344D01*
X105843061Y-125676297D01*
X105864330Y-125646146D01*
X105926627Y-125506226D01*
X105960560Y-125356870D01*
X105963003Y-125181930D01*
X105933253Y-125031685D01*
X105874888Y-124890080D01*
X105790129Y-124762508D01*
X105682206Y-124653828D01*
X105555229Y-124568181D01*
X105414034Y-124508829D01*
X105264001Y-124478031D01*
X105110842Y-124476962D01*
X104960393Y-124505662D01*
X104818384Y-124563037D01*
X104690223Y-124646903D01*
X104580793Y-124754065D01*
X104494262Y-124880441D01*
X104433925Y-125021217D01*
X104402081Y-125171033D01*
X104399942Y-125324180D01*
X104427591Y-125474825D01*
X104483974Y-125617232D01*
X104566943Y-125745975D01*
X104673338Y-125856150D01*
X104780325Y-125930508D01*
X104727409Y-125951887D01*
X104599248Y-126035753D01*
X104489818Y-126142915D01*
X104403287Y-126269291D01*
X104342950Y-126410067D01*
X104311106Y-126559883D01*
X104308967Y-126713030D01*
X104325457Y-126802877D01*
X104279899Y-126821284D01*
X104151738Y-126905150D01*
X104042308Y-127012312D01*
X103955777Y-127138688D01*
X103941547Y-127171888D01*
X103864065Y-127139318D01*
X103714032Y-127108520D01*
X103560873Y-127107451D01*
X103410424Y-127136151D01*
X103268415Y-127193526D01*
X103140254Y-127277392D01*
X103030824Y-127384554D01*
X102944293Y-127510930D01*
X102940871Y-127518914D01*
X102862260Y-127465890D01*
X102721065Y-127406538D01*
X102571032Y-127375740D01*
X102417873Y-127374671D01*
X102267424Y-127403371D01*
X102125415Y-127460746D01*
X101997254Y-127544612D01*
X101887824Y-127651774D01*
X101801293Y-127778150D01*
X101768172Y-127855427D01*
X101705065Y-127828900D01*
X101555032Y-127798102D01*
X101401873Y-127797033D01*
X101251424Y-127825733D01*
X101109415Y-127883108D01*
X100981254Y-127966974D01*
X100871824Y-128074136D01*
X100785293Y-128200512D01*
X100724956Y-128341288D01*
X100693112Y-128491104D01*
X100690973Y-128644251D01*
X100718622Y-128794896D01*
X100775005Y-128937303D01*
X100857974Y-129066046D01*
X100964369Y-129176221D01*
X101090138Y-129263633D01*
X101141334Y-129286000D01*
X100413420Y-129286000D01*
X99568000Y-128440580D01*
X99568000Y-128091470D01*
X99587974Y-128122464D01*
X99694369Y-128232639D01*
X99820138Y-128320051D01*
X99960490Y-128381369D01*
X100110079Y-128414258D01*
X100263207Y-128417466D01*
X100414043Y-128390870D01*
X100556839Y-128335483D01*
X100686158Y-128253414D01*
X100797074Y-128147791D01*
X100885361Y-128022635D01*
X100947658Y-127882715D01*
X100981591Y-127733359D01*
X100984034Y-127558419D01*
X100954284Y-127408174D01*
X100920500Y-127326208D01*
X100937839Y-127319483D01*
X101067158Y-127237414D01*
X101178074Y-127131791D01*
X101266361Y-127006635D01*
X101328658Y-126866715D01*
X101362591Y-126717359D01*
X101365034Y-126542419D01*
X101335284Y-126392174D01*
X101276919Y-126250569D01*
X101192160Y-126122997D01*
X101084237Y-126014317D01*
X100957260Y-125928670D01*
X100816065Y-125869318D01*
X100666032Y-125838520D01*
X100512873Y-125837451D01*
X100362424Y-125866151D01*
X100220415Y-125923526D01*
X100092254Y-126007392D01*
X99982824Y-126114554D01*
X99896293Y-126240930D01*
X99835956Y-126381706D01*
X99804112Y-126531522D01*
X99801973Y-126684669D01*
X99829622Y-126835314D01*
X99866543Y-126928566D01*
X99839415Y-126939526D01*
X99711254Y-127023392D01*
X99601824Y-127130554D01*
X99515293Y-127256930D01*
X99454956Y-127397706D01*
X99425468Y-127536440D01*
X99424191Y-127534841D01*
X99420523Y-127531120D01*
X99420462Y-127531046D01*
X99420393Y-127530989D01*
X99419211Y-127529790D01*
X99225902Y-127336481D01*
X99333158Y-127268414D01*
X99444074Y-127162791D01*
X99532361Y-127037635D01*
X99594658Y-126897715D01*
X99628591Y-126748359D01*
X99631034Y-126573419D01*
X99601284Y-126423174D01*
X99542919Y-126281569D01*
X99458160Y-126153997D01*
X99350237Y-126045317D01*
X99223260Y-125959670D01*
X99082065Y-125900318D01*
X98932032Y-125869520D01*
X98778873Y-125868451D01*
X98628424Y-125897151D01*
X98486415Y-125954526D01*
X98358254Y-126038392D01*
X98248824Y-126145554D01*
X98162293Y-126271930D01*
X98106851Y-126401286D01*
X98101284Y-126373174D01*
X98042919Y-126231569D01*
X97958160Y-126103997D01*
X97850237Y-125995317D01*
X97723260Y-125909670D01*
X97582065Y-125850318D01*
X97432032Y-125819520D01*
X97278873Y-125818451D01*
X97128424Y-125847151D01*
X96986415Y-125904526D01*
X96858254Y-125988392D01*
X96748824Y-126095554D01*
X96662293Y-126221930D01*
X96627166Y-126303886D01*
X96601284Y-126173174D01*
X96542919Y-126031569D01*
X96458160Y-125903997D01*
X96350237Y-125795317D01*
X96223260Y-125709670D01*
X96082065Y-125650318D01*
X96070480Y-125647940D01*
X96371210Y-125347210D01*
X96400976Y-125310972D01*
X96431158Y-125275003D01*
X96432446Y-125272661D01*
X96434140Y-125270598D01*
X96456300Y-125229269D01*
X96478921Y-125188122D01*
X96479729Y-125185574D01*
X96480991Y-125183221D01*
X96494711Y-125138344D01*
X96508899Y-125093619D01*
X96509197Y-125090966D01*
X96509978Y-125088410D01*
X96514724Y-125041687D01*
X96519950Y-124995093D01*
X96519987Y-124989873D01*
X96519997Y-124989773D01*
X96519988Y-124989679D01*
X96520000Y-124988000D01*
X96520000Y-123399922D01*
X99350204Y-123399922D01*
X99377853Y-123550567D01*
X99434236Y-123692974D01*
X99517205Y-123821717D01*
X99623600Y-123931892D01*
X99749369Y-124019304D01*
X99889721Y-124080622D01*
X100039310Y-124113511D01*
X100192438Y-124116719D01*
X100343274Y-124090123D01*
X100486070Y-124034736D01*
X100615389Y-123952667D01*
X100726305Y-123847044D01*
X100814592Y-123721888D01*
X100876889Y-123581968D01*
X100910822Y-123432612D01*
X100912201Y-123333887D01*
X101042741Y-123310870D01*
X101185537Y-123255483D01*
X101314856Y-123173414D01*
X101425772Y-123067791D01*
X101514059Y-122942635D01*
X101576356Y-122802715D01*
X101610289Y-122653359D01*
X101612732Y-122478419D01*
X101582982Y-122328174D01*
X101524617Y-122186569D01*
X101439858Y-122058997D01*
X101331935Y-121950317D01*
X101204958Y-121864670D01*
X101063763Y-121805318D01*
X100913730Y-121774520D01*
X100760571Y-121773451D01*
X100610122Y-121802151D01*
X100468113Y-121859526D01*
X100339952Y-121943392D01*
X100230522Y-122050554D01*
X100143991Y-122176930D01*
X100083654Y-122317706D01*
X100051810Y-122467522D01*
X100050592Y-122554709D01*
X99910655Y-122581404D01*
X99768646Y-122638779D01*
X99640485Y-122722645D01*
X99531055Y-122829807D01*
X99444524Y-122956183D01*
X99384187Y-123096959D01*
X99352343Y-123246775D01*
X99350204Y-123399922D01*
X96520000Y-123399922D01*
X96520000Y-122366669D01*
X97769973Y-122366669D01*
X97797622Y-122517314D01*
X97854005Y-122659721D01*
X97936974Y-122788464D01*
X98043369Y-122898639D01*
X98169138Y-122986051D01*
X98309490Y-123047369D01*
X98459079Y-123080258D01*
X98612207Y-123083466D01*
X98763043Y-123056870D01*
X98905839Y-123001483D01*
X99035158Y-122919414D01*
X99146074Y-122813791D01*
X99234361Y-122688635D01*
X99296658Y-122548715D01*
X99330591Y-122399359D01*
X99333034Y-122224419D01*
X99303284Y-122074174D01*
X99244919Y-121932569D01*
X99160160Y-121804997D01*
X99052237Y-121696317D01*
X98925260Y-121610670D01*
X98784065Y-121551318D01*
X98634032Y-121520520D01*
X98480873Y-121519451D01*
X98330424Y-121548151D01*
X98188415Y-121605526D01*
X98060254Y-121689392D01*
X97950824Y-121796554D01*
X97864293Y-121922930D01*
X97803956Y-122063706D01*
X97772112Y-122213522D01*
X97769973Y-122366669D01*
X96520000Y-122366669D01*
X96520000Y-121477669D01*
X102595973Y-121477669D01*
X102623622Y-121628314D01*
X102680005Y-121770721D01*
X102762974Y-121899464D01*
X102869369Y-122009639D01*
X102995138Y-122097051D01*
X103135490Y-122158369D01*
X103285079Y-122191258D01*
X103438207Y-122194466D01*
X103589043Y-122167870D01*
X103731839Y-122112483D01*
X103861158Y-122030414D01*
X103972074Y-121924791D01*
X104060361Y-121799635D01*
X104122658Y-121659715D01*
X104135164Y-121604669D01*
X104754973Y-121604669D01*
X104782622Y-121755314D01*
X104839005Y-121897721D01*
X104921974Y-122026464D01*
X105028369Y-122136639D01*
X105154138Y-122224051D01*
X105294490Y-122285369D01*
X105444079Y-122318258D01*
X105597207Y-122321466D01*
X105748043Y-122294870D01*
X105890839Y-122239483D01*
X106020158Y-122157414D01*
X106131074Y-122051791D01*
X106219361Y-121926635D01*
X106281658Y-121786715D01*
X106315591Y-121637359D01*
X106318034Y-121462419D01*
X106288284Y-121312174D01*
X106229919Y-121170569D01*
X106145160Y-121042997D01*
X106037237Y-120934317D01*
X105910260Y-120848670D01*
X105769065Y-120789318D01*
X105619032Y-120758520D01*
X105465873Y-120757451D01*
X105315424Y-120786151D01*
X105173415Y-120843526D01*
X105045254Y-120927392D01*
X104935824Y-121034554D01*
X104849293Y-121160930D01*
X104788956Y-121301706D01*
X104757112Y-121451522D01*
X104754973Y-121604669D01*
X104135164Y-121604669D01*
X104156591Y-121510359D01*
X104159034Y-121335419D01*
X104129284Y-121185174D01*
X104070919Y-121043569D01*
X103986160Y-120915997D01*
X103878237Y-120807317D01*
X103751260Y-120721670D01*
X103610065Y-120662318D01*
X103460032Y-120631520D01*
X103306873Y-120630451D01*
X103156424Y-120659151D01*
X103014415Y-120716526D01*
X102886254Y-120800392D01*
X102776824Y-120907554D01*
X102690293Y-121033930D01*
X102629956Y-121174706D01*
X102598112Y-121324522D01*
X102595973Y-121477669D01*
X96520000Y-121477669D01*
X96520000Y-118830739D01*
X96661043Y-118805870D01*
X96803839Y-118750483D01*
X96933158Y-118668414D01*
X97044074Y-118562791D01*
X97130021Y-118440952D01*
X99722988Y-118440952D01*
X99750637Y-118591597D01*
X99807020Y-118734004D01*
X99889989Y-118862747D01*
X99996384Y-118972922D01*
X100122153Y-119060334D01*
X100262505Y-119121652D01*
X100412094Y-119154541D01*
X100565222Y-119157749D01*
X100716058Y-119131153D01*
X100858854Y-119075766D01*
X100988173Y-118993697D01*
X101099089Y-118888074D01*
X101187376Y-118762918D01*
X101249673Y-118622998D01*
X101283606Y-118473642D01*
X101286049Y-118298702D01*
X101256299Y-118148457D01*
X101197934Y-118006852D01*
X101113175Y-117879280D01*
X101005252Y-117770600D01*
X100878275Y-117684953D01*
X100737080Y-117625601D01*
X100587047Y-117594803D01*
X100433888Y-117593734D01*
X100283439Y-117622434D01*
X100141430Y-117679809D01*
X100013269Y-117763675D01*
X99903839Y-117870837D01*
X99817308Y-117997213D01*
X99756971Y-118137989D01*
X99725127Y-118287805D01*
X99722988Y-118440952D01*
X97130021Y-118440952D01*
X97132361Y-118437635D01*
X97194658Y-118297715D01*
X97228591Y-118148359D01*
X97231034Y-117973419D01*
X97201284Y-117823174D01*
X97142919Y-117681569D01*
X97058160Y-117553997D01*
X96950237Y-117445317D01*
X96823260Y-117359670D01*
X96682065Y-117300318D01*
X96532032Y-117269520D01*
X96378873Y-117268451D01*
X96228424Y-117297151D01*
X96086415Y-117354526D01*
X95958254Y-117438392D01*
X95848824Y-117545554D01*
X95762293Y-117671930D01*
X95701956Y-117812706D01*
X95670112Y-117962522D01*
X95668002Y-118113578D01*
X95652790Y-118128790D01*
X95623024Y-118165028D01*
X95592842Y-118200997D01*
X95591554Y-118203339D01*
X95589860Y-118205402D01*
X95567690Y-118246749D01*
X95545079Y-118287878D01*
X95544272Y-118290423D01*
X95543009Y-118292778D01*
X95529284Y-118337670D01*
X95515101Y-118382381D01*
X95514803Y-118385034D01*
X95514022Y-118387590D01*
X95509276Y-118434313D01*
X95504050Y-118480907D01*
X95504013Y-118486127D01*
X95504003Y-118486227D01*
X95504012Y-118486321D01*
X95504000Y-118488000D01*
X95504000Y-124777580D01*
X94740790Y-125540790D01*
X94711024Y-125577028D01*
X94680842Y-125612997D01*
X94679554Y-125615339D01*
X94677860Y-125617402D01*
X94655705Y-125658721D01*
X94633079Y-125699878D01*
X94632272Y-125702423D01*
X94631009Y-125704778D01*
X94617284Y-125749670D01*
X94603101Y-125794381D01*
X94602803Y-125797034D01*
X94602022Y-125799590D01*
X94597276Y-125846313D01*
X94592050Y-125892907D01*
X94592013Y-125898127D01*
X94592003Y-125898227D01*
X94592012Y-125898321D01*
X94592000Y-125900000D01*
X94592000Y-127993000D01*
X94596579Y-128039704D01*
X94600669Y-128086448D01*
X94601414Y-128089014D01*
X94601675Y-128091671D01*
X94615227Y-128136556D01*
X94628329Y-128181655D01*
X94629560Y-128184029D01*
X94630331Y-128186584D01*
X94652340Y-128227977D01*
X94673955Y-128269677D01*
X94675623Y-128271766D01*
X94676876Y-128274123D01*
X94706552Y-128310509D01*
X94735810Y-128347159D01*
X94739473Y-128350874D01*
X94739538Y-128350954D01*
X94739612Y-128351015D01*
X94740790Y-128352210D01*
X95739754Y-129351174D01*
X95737973Y-129478669D01*
X95765622Y-129629314D01*
X95822005Y-129771721D01*
X95904974Y-129900464D01*
X96011369Y-130010639D01*
X96137138Y-130098051D01*
X96277490Y-130159369D01*
X96427079Y-130192258D01*
X96580207Y-130195466D01*
X96731043Y-130168870D01*
X96873839Y-130113483D01*
X97003158Y-130031414D01*
X97114074Y-129925791D01*
X97202361Y-129800635D01*
X97264658Y-129660715D01*
X97298591Y-129511359D01*
X97301034Y-129336419D01*
X97271284Y-129186174D01*
X97212919Y-129044569D01*
X97128160Y-128916997D01*
X97020237Y-128808317D01*
X96893260Y-128722670D01*
X96752065Y-128663318D01*
X96602032Y-128632520D01*
X96456927Y-128631507D01*
X95608000Y-127782580D01*
X95608000Y-127146481D01*
X95757079Y-127179258D01*
X95910207Y-127182466D01*
X96061043Y-127155870D01*
X96203839Y-127100483D01*
X96333158Y-127018414D01*
X96444074Y-126912791D01*
X96532361Y-126787635D01*
X96573429Y-126695396D01*
X96595622Y-126816314D01*
X96629651Y-126902261D01*
X96537415Y-126939526D01*
X96409254Y-127023392D01*
X96299824Y-127130554D01*
X96213293Y-127256930D01*
X96152956Y-127397706D01*
X96121112Y-127547522D01*
X96118973Y-127700669D01*
X96146622Y-127851314D01*
X96203005Y-127993721D01*
X96285974Y-128122464D01*
X96392369Y-128232639D01*
X96518138Y-128320051D01*
X96658490Y-128381369D01*
X96808079Y-128414258D01*
X96961207Y-128417466D01*
X97112043Y-128390870D01*
X97254839Y-128335483D01*
X97384158Y-128253414D01*
X97395247Y-128242854D01*
X97416622Y-128359314D01*
X97473005Y-128501721D01*
X97555974Y-128630464D01*
X97662369Y-128740639D01*
X97666408Y-128743447D01*
X97667579Y-128755389D01*
X97671669Y-128802133D01*
X97672414Y-128804699D01*
X97672675Y-128807356D01*
X97686227Y-128852241D01*
X97699329Y-128897340D01*
X97700560Y-128899714D01*
X97701331Y-128902269D01*
X97723340Y-128943662D01*
X97744955Y-128985362D01*
X97746623Y-128987451D01*
X97747876Y-128989808D01*
X97777552Y-129026194D01*
X97806810Y-129062844D01*
X97810473Y-129066559D01*
X97810538Y-129066639D01*
X97810612Y-129066700D01*
X97811790Y-129067895D01*
X99328916Y-130585021D01*
X99365154Y-130614787D01*
X99401123Y-130644969D01*
X99403465Y-130646257D01*
X99405528Y-130647951D01*
X99446875Y-130670121D01*
X99488004Y-130692732D01*
X99490549Y-130693539D01*
X99492904Y-130694802D01*
X99537796Y-130708527D01*
X99582507Y-130722710D01*
X99585160Y-130723008D01*
X99587716Y-130723789D01*
X99634444Y-130728535D01*
X99681033Y-130733761D01*
X99686251Y-130733798D01*
X99686352Y-130733808D01*
X99686446Y-130733799D01*
X99688126Y-130733811D01*
X101465769Y-130733811D01*
X99976095Y-132223485D01*
X99783247Y-132223485D01*
X99687237Y-132126802D01*
X99560260Y-132041155D01*
X99419065Y-131981803D01*
X99269032Y-131951005D01*
X99115873Y-131949936D01*
X98965424Y-131978636D01*
X98823415Y-132036011D01*
X98695254Y-132119877D01*
X98585824Y-132227039D01*
X98499293Y-132353415D01*
X98438956Y-132494191D01*
X98407112Y-132644007D01*
X98404973Y-132797154D01*
X98432622Y-132947799D01*
X98489005Y-133090206D01*
X98571974Y-133218949D01*
X98678369Y-133329124D01*
X98804138Y-133416536D01*
X98944490Y-133477854D01*
X99017559Y-133493919D01*
X99011340Y-133496432D01*
X98883179Y-133580298D01*
X98773749Y-133687460D01*
X98687218Y-133813836D01*
X98626881Y-133954612D01*
X98595037Y-134104428D01*
X98592898Y-134257575D01*
X98620547Y-134408220D01*
X98676930Y-134550627D01*
X98759899Y-134679370D01*
X98866294Y-134789545D01*
X98992063Y-134876957D01*
X99132415Y-134938275D01*
X99282004Y-134971164D01*
X99435132Y-134974372D01*
X99585968Y-134947776D01*
X99728764Y-134892389D01*
X99858083Y-134810320D01*
X99968999Y-134704697D01*
X100057286Y-134579541D01*
X100119583Y-134439621D01*
X100153516Y-134290265D01*
X100155959Y-134115325D01*
X100126209Y-133965080D01*
X100067844Y-133823475D01*
X99983085Y-133695903D01*
X99875162Y-133587223D01*
X99748185Y-133501576D01*
X99606990Y-133442224D01*
X99544796Y-133429457D01*
X99670158Y-133349899D01*
X99781074Y-133244276D01*
X99784454Y-133239485D01*
X100186515Y-133239485D01*
X100233219Y-133234906D01*
X100279963Y-133230816D01*
X100282529Y-133230071D01*
X100285186Y-133229810D01*
X100330071Y-133216258D01*
X100375170Y-133203156D01*
X100377544Y-133201925D01*
X100380099Y-133201154D01*
X100421492Y-133179145D01*
X100463192Y-133157530D01*
X100465281Y-133155862D01*
X100467638Y-133154609D01*
X100504024Y-133124933D01*
X100540674Y-133095675D01*
X100544389Y-133092012D01*
X100544469Y-133091947D01*
X100544530Y-133091873D01*
X100545725Y-133090695D01*
X102601825Y-131034595D01*
X102623614Y-131153314D01*
X102679997Y-131295721D01*
X102762966Y-131424464D01*
X102869361Y-131534639D01*
X102995130Y-131622051D01*
X103076658Y-131657670D01*
X103030824Y-131702554D01*
X102944293Y-131828930D01*
X102883956Y-131969706D01*
X102852112Y-132119522D01*
X102849973Y-132272669D01*
X102877622Y-132423314D01*
X102934005Y-132565721D01*
X103016974Y-132694464D01*
X103123369Y-132804639D01*
X103249138Y-132892051D01*
X103389490Y-132953369D01*
X103539079Y-132986258D01*
X103692207Y-132989466D01*
X103843043Y-132962870D01*
X103985839Y-132907483D01*
X104046282Y-132869124D01*
X104077005Y-132946721D01*
X104159974Y-133075464D01*
X104233267Y-133151361D01*
X104170836Y-133183722D01*
X104166663Y-133187053D01*
X104161943Y-133189563D01*
X104089207Y-133248885D01*
X104015870Y-133307429D01*
X104008432Y-133314764D01*
X104008281Y-133314887D01*
X104008165Y-133315027D01*
X104005769Y-133317390D01*
X101539840Y-135783320D01*
X98334398Y-135783320D01*
X96529783Y-133978706D01*
X96457277Y-133919149D01*
X96385369Y-133858811D01*
X96380688Y-133856237D01*
X96376559Y-133852846D01*
X96293851Y-133808498D01*
X96211608Y-133763284D01*
X96206515Y-133761668D01*
X96201807Y-133759144D01*
X96112036Y-133731698D01*
X96022601Y-133703328D01*
X96017295Y-133702733D01*
X96012183Y-133701170D01*
X95918782Y-133691683D01*
X95825549Y-133681225D01*
X95815108Y-133681152D01*
X95814910Y-133681132D01*
X95814725Y-133681149D01*
X95811363Y-133681126D01*
X83682036Y-133681126D01*
X83588624Y-133690285D01*
X83495142Y-133698464D01*
X83490011Y-133699955D01*
X83484694Y-133700476D01*
X83394858Y-133727599D01*
X83304726Y-133753784D01*
X83299982Y-133756243D01*
X83294868Y-133757787D01*
X83211983Y-133801858D01*
X83128683Y-133845037D01*
X83124510Y-133848368D01*
X83119790Y-133850878D01*
X83047054Y-133910200D01*
X82973717Y-133968744D01*
X82966279Y-133976079D01*
X82966128Y-133976202D01*
X82966012Y-133976342D01*
X82963616Y-133978705D01*
X81380320Y-135562002D01*
X81320763Y-135634508D01*
X81260425Y-135706416D01*
X81257851Y-135711097D01*
X81254460Y-135715226D01*
X81210112Y-135797934D01*
X81164898Y-135880177D01*
X81163282Y-135885270D01*
X81160758Y-135889978D01*
X81133312Y-135979749D01*
X81104942Y-136069184D01*
X81104347Y-136074490D01*
X81102784Y-136079602D01*
X81093297Y-136173003D01*
X81082839Y-136266236D01*
X81082766Y-136276677D01*
X81082746Y-136276875D01*
X81082763Y-136277060D01*
X81082740Y-136280422D01*
X81082740Y-137019700D01*
X81068968Y-137084493D01*
X81066144Y-137286709D01*
X81102652Y-137485624D01*
X81177100Y-137673659D01*
X81286653Y-137843652D01*
X81427139Y-137989129D01*
X81593205Y-138104548D01*
X81778527Y-138185513D01*
X81976046Y-138228941D01*
X82178239Y-138233176D01*
X82377403Y-138198058D01*
X82565953Y-138124924D01*
X82736707Y-138016560D01*
X82883161Y-137877094D01*
X82999737Y-137711837D01*
X83081994Y-137527085D01*
X83098471Y-137454561D01*
X83104172Y-137485624D01*
X83178620Y-137673659D01*
X83288173Y-137843652D01*
X83428659Y-137989129D01*
X83594725Y-138104548D01*
X83780047Y-138185513D01*
X83977566Y-138228941D01*
X84179759Y-138233176D01*
X84378923Y-138198058D01*
X84567473Y-138124924D01*
X84738227Y-138016560D01*
X84884681Y-137877094D01*
X85001257Y-137711837D01*
X85083514Y-137527085D01*
X85098586Y-137460745D01*
X85103152Y-137485624D01*
X85177600Y-137673659D01*
X85287153Y-137843652D01*
X85427639Y-137989129D01*
X85593705Y-138104548D01*
X85779027Y-138185513D01*
X85976546Y-138228941D01*
X86178739Y-138233176D01*
X86377903Y-138198058D01*
X86566453Y-138124924D01*
X86737207Y-138016560D01*
X86883661Y-137877094D01*
X87000237Y-137711837D01*
X87082494Y-137527085D01*
X87098971Y-137454561D01*
X87104672Y-137485624D01*
X87179120Y-137673659D01*
X87288673Y-137843652D01*
X87429159Y-137989129D01*
X87595225Y-138104548D01*
X87780547Y-138185513D01*
X87978066Y-138228941D01*
X88180259Y-138233176D01*
X88379423Y-138198058D01*
X88567973Y-138124924D01*
X88738727Y-138016560D01*
X88885181Y-137877094D01*
X89001757Y-137711837D01*
X89084014Y-137527085D01*
X89099086Y-137460745D01*
X89103652Y-137485624D01*
X89178100Y-137673659D01*
X89287653Y-137843652D01*
X89428139Y-137989129D01*
X89594205Y-138104548D01*
X89779527Y-138185513D01*
X89977046Y-138228941D01*
X90179239Y-138233176D01*
X90378403Y-138198058D01*
X90566953Y-138124924D01*
X90737707Y-138016560D01*
X90884161Y-137877094D01*
X90895997Y-137860314D01*
X91485847Y-137860314D01*
X91548171Y-138015279D01*
X91717852Y-138107516D01*
X91902267Y-138164878D01*
X92094329Y-138185160D01*
X92286658Y-138167582D01*
X92471862Y-138112821D01*
X92642823Y-138022980D01*
X92654349Y-138015279D01*
X92716672Y-137860316D01*
X92775003Y-137918647D01*
X92781813Y-137911837D01*
X92856974Y-138028464D01*
X92963369Y-138138639D01*
X93089138Y-138226051D01*
X93229490Y-138287369D01*
X93379079Y-138320258D01*
X93532207Y-138323466D01*
X93683043Y-138296870D01*
X93825839Y-138241483D01*
X93955158Y-138159414D01*
X94066074Y-138053791D01*
X94154361Y-137928635D01*
X94216658Y-137788715D01*
X94250591Y-137639359D01*
X94253034Y-137464419D01*
X94223284Y-137314174D01*
X94186806Y-137225669D01*
X94848973Y-137225669D01*
X94876622Y-137376314D01*
X94933005Y-137518721D01*
X95015974Y-137647464D01*
X95122369Y-137757639D01*
X95248138Y-137845051D01*
X95388490Y-137906369D01*
X95538079Y-137939258D01*
X95691207Y-137942466D01*
X95842043Y-137915870D01*
X95984839Y-137860483D01*
X96114158Y-137778414D01*
X96225074Y-137672791D01*
X96313361Y-137547635D01*
X96375658Y-137407715D01*
X96409591Y-137258359D01*
X96412034Y-137083419D01*
X96382284Y-136933174D01*
X96323919Y-136791569D01*
X96239160Y-136663997D01*
X96131237Y-136555317D01*
X96004260Y-136469670D01*
X95863065Y-136410318D01*
X95713032Y-136379520D01*
X95559873Y-136378451D01*
X95409424Y-136407151D01*
X95267415Y-136464526D01*
X95139254Y-136548392D01*
X95029824Y-136655554D01*
X94943293Y-136781930D01*
X94882956Y-136922706D01*
X94851112Y-137072522D01*
X94848973Y-137225669D01*
X94186806Y-137225669D01*
X94164919Y-137172569D01*
X94080160Y-137044997D01*
X93972237Y-136936317D01*
X93845260Y-136850670D01*
X93704065Y-136791318D01*
X93554032Y-136760520D01*
X93400873Y-136759451D01*
X93250424Y-136788151D01*
X93108415Y-136845526D01*
X93033370Y-136894634D01*
X93014081Y-136829398D01*
X92924240Y-136658437D01*
X92916539Y-136646911D01*
X92761574Y-136584587D01*
X92146161Y-137200000D01*
X92160304Y-137214143D01*
X92115403Y-137259044D01*
X92101260Y-137244901D01*
X91485847Y-137860314D01*
X90895997Y-137860314D01*
X91000737Y-137711837D01*
X91082994Y-137527085D01*
X91127799Y-137329874D01*
X91127906Y-137322239D01*
X91133678Y-137385398D01*
X91188439Y-137570602D01*
X91278280Y-137741563D01*
X91285981Y-137753089D01*
X91440946Y-137815413D01*
X92056359Y-137200000D01*
X91440946Y-136584587D01*
X91285981Y-136646911D01*
X91193744Y-136816592D01*
X91136382Y-137001007D01*
X91127778Y-137082487D01*
X91091743Y-136900497D01*
X91014677Y-136713519D01*
X90902761Y-136545072D01*
X90897413Y-136539686D01*
X91485847Y-136539686D01*
X92101260Y-137155099D01*
X92716673Y-136539686D01*
X92654349Y-136384721D01*
X92484668Y-136292484D01*
X92300253Y-136235122D01*
X92108191Y-136214840D01*
X91915862Y-136232418D01*
X91730658Y-136287179D01*
X91559697Y-136377020D01*
X91548171Y-136384721D01*
X91485847Y-136539686D01*
X90897413Y-136539686D01*
X90760258Y-136401571D01*
X90592596Y-136288482D01*
X90406162Y-136210112D01*
X90208056Y-136169447D01*
X90005824Y-136168035D01*
X89807169Y-136205930D01*
X89619659Y-136281689D01*
X89450434Y-136392427D01*
X89305942Y-136533924D01*
X89191685Y-136700792D01*
X89112015Y-136886675D01*
X89100631Y-136940233D01*
X89092763Y-136900497D01*
X89015697Y-136713519D01*
X88903781Y-136545072D01*
X88761278Y-136401571D01*
X88593616Y-136288482D01*
X88407182Y-136210112D01*
X88209076Y-136169447D01*
X88006844Y-136168035D01*
X87808189Y-136205930D01*
X87620679Y-136281689D01*
X87451454Y-136392427D01*
X87306962Y-136533924D01*
X87192705Y-136700792D01*
X87113035Y-136886675D01*
X87100336Y-136946420D01*
X87091243Y-136900497D01*
X87014177Y-136713519D01*
X86902261Y-136545072D01*
X86759758Y-136401571D01*
X86592096Y-136288482D01*
X86405662Y-136210112D01*
X86207556Y-136169447D01*
X86005324Y-136168035D01*
X85806669Y-136205930D01*
X85619159Y-136281689D01*
X85449934Y-136392427D01*
X85305442Y-136533924D01*
X85191185Y-136700792D01*
X85111515Y-136886675D01*
X85100131Y-136940233D01*
X85092263Y-136900497D01*
X85015197Y-136713519D01*
X84903281Y-136545072D01*
X84760778Y-136401571D01*
X84593116Y-136288482D01*
X84406682Y-136210112D01*
X84208576Y-136169447D01*
X84006344Y-136168035D01*
X83807689Y-136205930D01*
X83620179Y-136281689D01*
X83450954Y-136392427D01*
X83306462Y-136533924D01*
X83192205Y-136700792D01*
X83114740Y-136881530D01*
X83114740Y-136701262D01*
X84102877Y-135713126D01*
X95390523Y-135713126D01*
X97195136Y-137517740D01*
X97267667Y-137577318D01*
X97339551Y-137637635D01*
X97344232Y-137640208D01*
X97348361Y-137643600D01*
X97431069Y-137687948D01*
X97513312Y-137733162D01*
X97518405Y-137734778D01*
X97523113Y-137737302D01*
X97612843Y-137764735D01*
X97702319Y-137793118D01*
X97707630Y-137793714D01*
X97712737Y-137795275D01*
X97806043Y-137804753D01*
X97899371Y-137815221D01*
X97909822Y-137815294D01*
X97910010Y-137815313D01*
X97910185Y-137815296D01*
X97913557Y-137815320D01*
X100866188Y-137815320D01*
X100851956Y-137848526D01*
X100820112Y-137998342D01*
X100817973Y-138151489D01*
X100845622Y-138302134D01*
X100902005Y-138444541D01*
X100966102Y-138544000D01*
X84500000Y-138544000D01*
X84457272Y-138548189D01*
X84414554Y-138552077D01*
X84413022Y-138552528D01*
X84411429Y-138552684D01*
X84370337Y-138565091D01*
X84329179Y-138577204D01*
X84327761Y-138577945D01*
X84326232Y-138578407D01*
X84288388Y-138598529D01*
X84250311Y-138618435D01*
X84249063Y-138619438D01*
X84247653Y-138620188D01*
X84214431Y-138647284D01*
X84180954Y-138674200D01*
X84179925Y-138675426D01*
X84178687Y-138676436D01*
X84151358Y-138709471D01*
X84123748Y-138742375D01*
X84122977Y-138743777D01*
X84121959Y-138745008D01*
X84101566Y-138782723D01*
X84080874Y-138820362D01*
X84080390Y-138821887D01*
X84079630Y-138823293D01*
X84066940Y-138864289D01*
X84064177Y-138873000D01*
X78956000Y-138873000D01*
X78956000Y-132665669D01*
X84117973Y-132665669D01*
X84145622Y-132816314D01*
X84202005Y-132958721D01*
X84284974Y-133087464D01*
X84391369Y-133197639D01*
X84517138Y-133285051D01*
X84657490Y-133346369D01*
X84807079Y-133379258D01*
X84960207Y-133382466D01*
X85111043Y-133355870D01*
X85253839Y-133300483D01*
X85383158Y-133218414D01*
X85494074Y-133112791D01*
X85582361Y-132987635D01*
X85644658Y-132847715D01*
X85668427Y-132743095D01*
X88671419Y-132743095D01*
X88699068Y-132893740D01*
X88755451Y-133036147D01*
X88838420Y-133164890D01*
X88944815Y-133275065D01*
X89070584Y-133362477D01*
X89210936Y-133423795D01*
X89360525Y-133456684D01*
X89513653Y-133459892D01*
X89664489Y-133433296D01*
X89807285Y-133377909D01*
X89936604Y-133295840D01*
X90047520Y-133190217D01*
X90135807Y-133065061D01*
X90198104Y-132925141D01*
X90232037Y-132775785D01*
X90232178Y-132765669D01*
X92823285Y-132765669D01*
X92850934Y-132916314D01*
X92907317Y-133058721D01*
X92990286Y-133187464D01*
X93096681Y-133297639D01*
X93222450Y-133385051D01*
X93362802Y-133446369D01*
X93512391Y-133479258D01*
X93665519Y-133482466D01*
X93816355Y-133455870D01*
X93919999Y-133415669D01*
X96245973Y-133415669D01*
X96273622Y-133566314D01*
X96330005Y-133708721D01*
X96412974Y-133837464D01*
X96519369Y-133947639D01*
X96645138Y-134035051D01*
X96785490Y-134096369D01*
X96935079Y-134129258D01*
X97088207Y-134132466D01*
X97239043Y-134105870D01*
X97381839Y-134050483D01*
X97511158Y-133968414D01*
X97622074Y-133862791D01*
X97710361Y-133737635D01*
X97772658Y-133597715D01*
X97806591Y-133448359D01*
X97809034Y-133273419D01*
X97779284Y-133123174D01*
X97720919Y-132981569D01*
X97636160Y-132853997D01*
X97528237Y-132745317D01*
X97401260Y-132659670D01*
X97260065Y-132600318D01*
X97110032Y-132569520D01*
X96956873Y-132568451D01*
X96806424Y-132597151D01*
X96664415Y-132654526D01*
X96536254Y-132738392D01*
X96426824Y-132845554D01*
X96340293Y-132971930D01*
X96279956Y-133112706D01*
X96248112Y-133262522D01*
X96245973Y-133415669D01*
X93919999Y-133415669D01*
X93959151Y-133400483D01*
X94088470Y-133318414D01*
X94199386Y-133212791D01*
X94287673Y-133087635D01*
X94349970Y-132947715D01*
X94383903Y-132798359D01*
X94386346Y-132623419D01*
X94356596Y-132473174D01*
X94298231Y-132331569D01*
X94213472Y-132203997D01*
X94105549Y-132095317D01*
X93978572Y-132009670D01*
X93837377Y-131950318D01*
X93687344Y-131919520D01*
X93534185Y-131918451D01*
X93383736Y-131947151D01*
X93241727Y-132004526D01*
X93113566Y-132088392D01*
X93004136Y-132195554D01*
X92917605Y-132321930D01*
X92857268Y-132462706D01*
X92825424Y-132612522D01*
X92823285Y-132765669D01*
X90232178Y-132765669D01*
X90234480Y-132600845D01*
X90204730Y-132450600D01*
X90146365Y-132308995D01*
X90061606Y-132181423D01*
X89953683Y-132072743D01*
X89826706Y-131987096D01*
X89685511Y-131927744D01*
X89535478Y-131896946D01*
X89382319Y-131895877D01*
X89231870Y-131924577D01*
X89089861Y-131981952D01*
X88961700Y-132065818D01*
X88852270Y-132172980D01*
X88765739Y-132299356D01*
X88705402Y-132440132D01*
X88673558Y-132589948D01*
X88671419Y-132743095D01*
X85668427Y-132743095D01*
X85678591Y-132698359D01*
X85681034Y-132523419D01*
X85651284Y-132373174D01*
X85592919Y-132231569D01*
X85508160Y-132103997D01*
X85400237Y-131995317D01*
X85273260Y-131909670D01*
X85132065Y-131850318D01*
X84982032Y-131819520D01*
X84828873Y-131818451D01*
X84678424Y-131847151D01*
X84536415Y-131904526D01*
X84408254Y-131988392D01*
X84298824Y-132095554D01*
X84212293Y-132221930D01*
X84151956Y-132362706D01*
X84120112Y-132512522D01*
X84117973Y-132665669D01*
X78956000Y-132665669D01*
X78956000Y-129874077D01*
X81817842Y-129874077D01*
X81849031Y-130044012D01*
X81912633Y-130204652D01*
X82006225Y-130349879D01*
X82126243Y-130474162D01*
X82268116Y-130572766D01*
X82426439Y-130641935D01*
X82595181Y-130679036D01*
X82767917Y-130682654D01*
X82938065Y-130652652D01*
X83099145Y-130590173D01*
X83232273Y-130505688D01*
X83284974Y-130587464D01*
X83391369Y-130697639D01*
X83517138Y-130785051D01*
X83657490Y-130846369D01*
X83807079Y-130879258D01*
X83960207Y-130882466D01*
X84111043Y-130855870D01*
X84253839Y-130800483D01*
X84383158Y-130718414D01*
X84494074Y-130612791D01*
X84582361Y-130487635D01*
X84644658Y-130347715D01*
X84678591Y-130198359D01*
X84681034Y-130023419D01*
X84651284Y-129873174D01*
X84592919Y-129731569D01*
X84583877Y-129717959D01*
X87510499Y-129717959D01*
X87538148Y-129868604D01*
X87594531Y-130011011D01*
X87677500Y-130139754D01*
X87783895Y-130249929D01*
X87909664Y-130337341D01*
X88050016Y-130398659D01*
X88199605Y-130431548D01*
X88352733Y-130434756D01*
X88503569Y-130408160D01*
X88646365Y-130352773D01*
X88775684Y-130270704D01*
X88886600Y-130165081D01*
X88974887Y-130039925D01*
X89037184Y-129900005D01*
X89071117Y-129750649D01*
X89072303Y-129665669D01*
X92067973Y-129665669D01*
X92095622Y-129816314D01*
X92152005Y-129958721D01*
X92234974Y-130087464D01*
X92341369Y-130197639D01*
X92467138Y-130285051D01*
X92607490Y-130346369D01*
X92757079Y-130379258D01*
X92910207Y-130382466D01*
X93061043Y-130355870D01*
X93203839Y-130300483D01*
X93333158Y-130218414D01*
X93444074Y-130112791D01*
X93483109Y-130057455D01*
X93616888Y-130115902D01*
X93766477Y-130148791D01*
X93919605Y-130151999D01*
X94070441Y-130125403D01*
X94213237Y-130070016D01*
X94342556Y-129987947D01*
X94453472Y-129882324D01*
X94541759Y-129757168D01*
X94604056Y-129617248D01*
X94637989Y-129467892D01*
X94640432Y-129292952D01*
X94610682Y-129142707D01*
X94552317Y-129001102D01*
X94467558Y-128873530D01*
X94359635Y-128764850D01*
X94232658Y-128679203D01*
X94091463Y-128619851D01*
X93941430Y-128589053D01*
X93788271Y-128587984D01*
X93637822Y-128616684D01*
X93495813Y-128674059D01*
X93367652Y-128757925D01*
X93258222Y-128865087D01*
X93226294Y-128911717D01*
X93223260Y-128909670D01*
X93082065Y-128850318D01*
X92932032Y-128819520D01*
X92778873Y-128818451D01*
X92628424Y-128847151D01*
X92486415Y-128904526D01*
X92358254Y-128988392D01*
X92248824Y-129095554D01*
X92162293Y-129221930D01*
X92101956Y-129362706D01*
X92070112Y-129512522D01*
X92067973Y-129665669D01*
X89072303Y-129665669D01*
X89073560Y-129575709D01*
X89043810Y-129425464D01*
X88985445Y-129283859D01*
X88900686Y-129156287D01*
X88792763Y-129047607D01*
X88665786Y-128961960D01*
X88524591Y-128902608D01*
X88374558Y-128871810D01*
X88221399Y-128870741D01*
X88070950Y-128899441D01*
X87928941Y-128956816D01*
X87800780Y-129040682D01*
X87691350Y-129147844D01*
X87604819Y-129274220D01*
X87544482Y-129414996D01*
X87512638Y-129564812D01*
X87510499Y-129717959D01*
X84583877Y-129717959D01*
X84508160Y-129603997D01*
X84400237Y-129495317D01*
X84273260Y-129409670D01*
X84132065Y-129350318D01*
X83982032Y-129319520D01*
X83828873Y-129318451D01*
X83678424Y-129347151D01*
X83536415Y-129404526D01*
X83499811Y-129428479D01*
X83481641Y-129384394D01*
X83386030Y-129240488D01*
X83264288Y-129117893D01*
X83121053Y-129021280D01*
X83000753Y-128970710D01*
X83083158Y-128918414D01*
X83194074Y-128812791D01*
X83282361Y-128687635D01*
X83344658Y-128547715D01*
X83378591Y-128398359D01*
X83381034Y-128223419D01*
X83351284Y-128073174D01*
X83292919Y-127931569D01*
X83208160Y-127803997D01*
X83100237Y-127695317D01*
X82973260Y-127609670D01*
X82832065Y-127550318D01*
X82682032Y-127519520D01*
X82528873Y-127518451D01*
X82378424Y-127547151D01*
X82236415Y-127604526D01*
X82108254Y-127688392D01*
X81998824Y-127795554D01*
X81912293Y-127921930D01*
X81851956Y-128062706D01*
X81820112Y-128212522D01*
X81817973Y-128365669D01*
X81845622Y-128516314D01*
X81902005Y-128658721D01*
X81984974Y-128787464D01*
X82091369Y-128897639D01*
X82217138Y-128985051D01*
X82288628Y-129016284D01*
X82145291Y-129110081D01*
X82021849Y-129230964D01*
X81924238Y-129373521D01*
X81856176Y-129532323D01*
X81820254Y-129701321D01*
X81817842Y-129874077D01*
X78956000Y-129874077D01*
X78956000Y-128442559D01*
X79017138Y-128485051D01*
X79157490Y-128546369D01*
X79307079Y-128579258D01*
X79460207Y-128582466D01*
X79611043Y-128555870D01*
X79753839Y-128500483D01*
X79883158Y-128418414D01*
X79994074Y-128312791D01*
X80082361Y-128187635D01*
X80144658Y-128047715D01*
X80178591Y-127898359D01*
X80181034Y-127723419D01*
X80151284Y-127573174D01*
X80092919Y-127431569D01*
X80008160Y-127303997D01*
X79900237Y-127195317D01*
X79773260Y-127109670D01*
X79632065Y-127050318D01*
X79482032Y-127019520D01*
X79328873Y-127018451D01*
X79178424Y-127047151D01*
X79036415Y-127104526D01*
X78956000Y-127157148D01*
X78956000Y-119842580D01*
X79270170Y-119842580D01*
X79270170Y-120360242D01*
X79282859Y-120424036D01*
X79307751Y-120484128D01*
X79343887Y-120538210D01*
X79389880Y-120584203D01*
X79443962Y-120620340D01*
X79504054Y-120645231D01*
X79567848Y-120657920D01*
X80335700Y-120657920D01*
X80418250Y-120575370D01*
X80418250Y-119760030D01*
X80481750Y-119760030D01*
X80481750Y-120575370D01*
X80564300Y-120657920D01*
X81332152Y-120657920D01*
X81395946Y-120645231D01*
X81456038Y-120620340D01*
X81510120Y-120584203D01*
X81556113Y-120538210D01*
X81592249Y-120484128D01*
X81617141Y-120424036D01*
X81629830Y-120360242D01*
X81629830Y-119842580D01*
X81547280Y-119760030D01*
X80481750Y-119760030D01*
X80418250Y-119760030D01*
X79352720Y-119760030D01*
X79270170Y-119842580D01*
X78956000Y-119842580D01*
X78956000Y-119096318D01*
X79270170Y-119096318D01*
X79270170Y-119613980D01*
X79352720Y-119696530D01*
X80418250Y-119696530D01*
X80418250Y-118881190D01*
X80481750Y-118881190D01*
X80481750Y-119696530D01*
X81547280Y-119696530D01*
X81629830Y-119613980D01*
X81629830Y-119096318D01*
X81617141Y-119032524D01*
X81592249Y-118972432D01*
X81556113Y-118918350D01*
X81510120Y-118872357D01*
X81456038Y-118836220D01*
X81395946Y-118811329D01*
X81332152Y-118798640D01*
X80564300Y-118798640D01*
X80481750Y-118881190D01*
X80418250Y-118881190D01*
X80335700Y-118798640D01*
X79567848Y-118798640D01*
X79504054Y-118811329D01*
X79443962Y-118836220D01*
X79389880Y-118872357D01*
X79343887Y-118918350D01*
X79307751Y-118972432D01*
X79282859Y-119032524D01*
X79270170Y-119096318D01*
X78956000Y-119096318D01*
X78956000Y-117719915D01*
X79213440Y-117719915D01*
X79230782Y-117910476D01*
X79284808Y-118094039D01*
X79373459Y-118263613D01*
X79493358Y-118412738D01*
X79639940Y-118535734D01*
X79807620Y-118627917D01*
X79990011Y-118685775D01*
X80180167Y-118707104D01*
X80193856Y-118707200D01*
X80706144Y-118707200D01*
X80896579Y-118688528D01*
X81079761Y-118633222D01*
X81248711Y-118543389D01*
X81396996Y-118422452D01*
X81518966Y-118275015D01*
X81609976Y-118106696D01*
X81666559Y-117923905D01*
X81680142Y-117794669D01*
X88117973Y-117794669D01*
X88145622Y-117945314D01*
X88202005Y-118087721D01*
X88284974Y-118216464D01*
X88330960Y-118264084D01*
X88298824Y-118295554D01*
X88212293Y-118421930D01*
X88151956Y-118562706D01*
X88120112Y-118712522D01*
X88117973Y-118865669D01*
X88145622Y-119016314D01*
X88202005Y-119158721D01*
X88284974Y-119287464D01*
X88391369Y-119397639D01*
X88517138Y-119485051D01*
X88657490Y-119546369D01*
X88807079Y-119579258D01*
X88960207Y-119582466D01*
X89111043Y-119555870D01*
X89253839Y-119500483D01*
X89383158Y-119418414D01*
X89494074Y-119312791D01*
X89582361Y-119187635D01*
X89644658Y-119047715D01*
X89678591Y-118898359D01*
X89681034Y-118723419D01*
X89651284Y-118573174D01*
X89592919Y-118431569D01*
X89508160Y-118303997D01*
X89469565Y-118265131D01*
X89494074Y-118241791D01*
X89582361Y-118116635D01*
X89644658Y-117976715D01*
X89678591Y-117827359D01*
X89681034Y-117652419D01*
X89651284Y-117502174D01*
X89592919Y-117360569D01*
X89508160Y-117232997D01*
X89400237Y-117124317D01*
X89273260Y-117038670D01*
X89132065Y-116979318D01*
X88982032Y-116948520D01*
X88828873Y-116947451D01*
X88678424Y-116976151D01*
X88536415Y-117033526D01*
X88408254Y-117117392D01*
X88298824Y-117224554D01*
X88212293Y-117350930D01*
X88151956Y-117491706D01*
X88120112Y-117641522D01*
X88117973Y-117794669D01*
X81680142Y-117794669D01*
X81686560Y-117733605D01*
X81669218Y-117543044D01*
X81615192Y-117359481D01*
X81526541Y-117189907D01*
X81406642Y-117040782D01*
X81260060Y-116917786D01*
X81092380Y-116825603D01*
X80909989Y-116767745D01*
X80719833Y-116746416D01*
X80706144Y-116746320D01*
X80193856Y-116746320D01*
X80003421Y-116764992D01*
X79820239Y-116820298D01*
X79651289Y-116910131D01*
X79503004Y-117031068D01*
X79381034Y-117178505D01*
X79290024Y-117346824D01*
X79233441Y-117529615D01*
X79213440Y-117719915D01*
X78956000Y-117719915D01*
X78956000Y-115718395D01*
X79213440Y-115718395D01*
X79230782Y-115908956D01*
X79284808Y-116092519D01*
X79373459Y-116262093D01*
X79493358Y-116411218D01*
X79639940Y-116534214D01*
X79807620Y-116626397D01*
X79990011Y-116684255D01*
X80180167Y-116705584D01*
X80193856Y-116705680D01*
X80706144Y-116705680D01*
X80896579Y-116687008D01*
X81079761Y-116631702D01*
X81248711Y-116541869D01*
X81396996Y-116420932D01*
X81518966Y-116273495D01*
X81609976Y-116105176D01*
X81666559Y-115922385D01*
X81686560Y-115732085D01*
X81669218Y-115541524D01*
X81615192Y-115357961D01*
X81526541Y-115188387D01*
X81406642Y-115039262D01*
X81360649Y-115000669D01*
X85196973Y-115000669D01*
X85224622Y-115151314D01*
X85281005Y-115293721D01*
X85363974Y-115422464D01*
X85470369Y-115532639D01*
X85596138Y-115620051D01*
X85736490Y-115681369D01*
X85886079Y-115714258D01*
X86039207Y-115717466D01*
X86190043Y-115690870D01*
X86332839Y-115635483D01*
X86462158Y-115553414D01*
X86573074Y-115447791D01*
X86661361Y-115322635D01*
X86723658Y-115182715D01*
X86757591Y-115033359D01*
X86758047Y-115000669D01*
X90022973Y-115000669D01*
X90050622Y-115151314D01*
X90107005Y-115293721D01*
X90189974Y-115422464D01*
X90296369Y-115532639D01*
X90422138Y-115620051D01*
X90562490Y-115681369D01*
X90712079Y-115714258D01*
X90865207Y-115717466D01*
X91016043Y-115690870D01*
X91158839Y-115635483D01*
X91288158Y-115553414D01*
X91377381Y-115468449D01*
X91439369Y-115532639D01*
X91565138Y-115620051D01*
X91705490Y-115681369D01*
X91855079Y-115714258D01*
X92008207Y-115717466D01*
X92159043Y-115690870D01*
X92301839Y-115635483D01*
X92431158Y-115553414D01*
X92542074Y-115447791D01*
X92630361Y-115322635D01*
X92692658Y-115182715D01*
X92726591Y-115033359D01*
X92729034Y-114858419D01*
X92699284Y-114708174D01*
X92640919Y-114566569D01*
X92556160Y-114438997D01*
X92448237Y-114330317D01*
X92321260Y-114244670D01*
X92180065Y-114185318D01*
X92030032Y-114154520D01*
X91876873Y-114153451D01*
X91726424Y-114182151D01*
X91584415Y-114239526D01*
X91456254Y-114323392D01*
X91376205Y-114401782D01*
X91305237Y-114330317D01*
X91178260Y-114244670D01*
X91037065Y-114185318D01*
X90887032Y-114154520D01*
X90733873Y-114153451D01*
X90583424Y-114182151D01*
X90441415Y-114239526D01*
X90313254Y-114323392D01*
X90203824Y-114430554D01*
X90117293Y-114556930D01*
X90056956Y-114697706D01*
X90025112Y-114847522D01*
X90022973Y-115000669D01*
X86758047Y-115000669D01*
X86760034Y-114858419D01*
X86730284Y-114708174D01*
X86671919Y-114566569D01*
X86587160Y-114438997D01*
X86479237Y-114330317D01*
X86352260Y-114244670D01*
X86211065Y-114185318D01*
X86061032Y-114154520D01*
X85907873Y-114153451D01*
X85757424Y-114182151D01*
X85615415Y-114239526D01*
X85487254Y-114323392D01*
X85377824Y-114430554D01*
X85291293Y-114556930D01*
X85230956Y-114697706D01*
X85199112Y-114847522D01*
X85196973Y-115000669D01*
X81360649Y-115000669D01*
X81260060Y-114916266D01*
X81092380Y-114824083D01*
X80909989Y-114766225D01*
X80719833Y-114744896D01*
X80706144Y-114744800D01*
X80193856Y-114744800D01*
X80003421Y-114763472D01*
X79820239Y-114818778D01*
X79651289Y-114908611D01*
X79503004Y-115029548D01*
X79381034Y-115176985D01*
X79290024Y-115345304D01*
X79233441Y-115528095D01*
X79213440Y-115718395D01*
X78956000Y-115718395D01*
X78956000Y-113719415D01*
X79213440Y-113719415D01*
X79230782Y-113909976D01*
X79284808Y-114093539D01*
X79373459Y-114263113D01*
X79493358Y-114412238D01*
X79639940Y-114535234D01*
X79807620Y-114627417D01*
X79990011Y-114685275D01*
X80180167Y-114706604D01*
X80193856Y-114706700D01*
X80706144Y-114706700D01*
X80896579Y-114688028D01*
X81079761Y-114632722D01*
X81248711Y-114542889D01*
X81396996Y-114421952D01*
X81518966Y-114274515D01*
X81609976Y-114106196D01*
X81666559Y-113923405D01*
X81686560Y-113733105D01*
X81669218Y-113542544D01*
X81615192Y-113358981D01*
X81526541Y-113189407D01*
X81406642Y-113040282D01*
X81260060Y-112917286D01*
X81092380Y-112825103D01*
X80909989Y-112767245D01*
X80719833Y-112745916D01*
X80706144Y-112745820D01*
X80193856Y-112745820D01*
X80003421Y-112764492D01*
X79820239Y-112819798D01*
X79651289Y-112909631D01*
X79503004Y-113030568D01*
X79381034Y-113178005D01*
X79290024Y-113346324D01*
X79233441Y-113529115D01*
X79213440Y-113719415D01*
X78956000Y-113719415D01*
X78956000Y-111186959D01*
X78988479Y-111268991D01*
X79109905Y-111457407D01*
X79265615Y-111618650D01*
X79449679Y-111746577D01*
X79655085Y-111836317D01*
X79874009Y-111884451D01*
X80098114Y-111889145D01*
X80318862Y-111850221D01*
X80527846Y-111769162D01*
X80717106Y-111649054D01*
X80879432Y-111494473D01*
X80898118Y-111467983D01*
X81043615Y-111618650D01*
X81227679Y-111746577D01*
X81433085Y-111836317D01*
X81652009Y-111884451D01*
X81876114Y-111889145D01*
X82096862Y-111850221D01*
X82305846Y-111769162D01*
X82495106Y-111649054D01*
X82657432Y-111494473D01*
X82676118Y-111467983D01*
X82821615Y-111618650D01*
X83005679Y-111746577D01*
X83211085Y-111836317D01*
X83430009Y-111884451D01*
X83654114Y-111889145D01*
X83874862Y-111850221D01*
X84083846Y-111769162D01*
X84273106Y-111649054D01*
X84435432Y-111494473D01*
X84564641Y-111311307D01*
X84655813Y-111106532D01*
X84705473Y-110887949D01*
X84709049Y-110631923D01*
X84665510Y-110412038D01*
X84580092Y-110204798D01*
X84528403Y-110127000D01*
X87884000Y-110127000D01*
X87884000Y-110363000D01*
G36*
X107304911Y-112552957D02*
X107283448Y-112543935D01*
X107133415Y-112513137D01*
X106980256Y-112512068D01*
X106829807Y-112540768D01*
X106687798Y-112598143D01*
X106559637Y-112682009D01*
X106450207Y-112789171D01*
X106363676Y-112915547D01*
X106303339Y-113056323D01*
X106271495Y-113206139D01*
X106269356Y-113359286D01*
X106297005Y-113509931D01*
X106353388Y-113652338D01*
X106436357Y-113781081D01*
X106542752Y-113891256D01*
X106668521Y-113978668D01*
X106808873Y-114039986D01*
X106958462Y-114072875D01*
X107060166Y-114075006D01*
X105501672Y-115633500D01*
X103159328Y-115633500D01*
X102171500Y-114645672D01*
X102171500Y-113900895D01*
X102213739Y-113930252D01*
X102354091Y-113991570D01*
X102503680Y-114024459D01*
X102656808Y-114027667D01*
X102807644Y-114001071D01*
X102950440Y-113945684D01*
X103079759Y-113863615D01*
X103190675Y-113757992D01*
X103278962Y-113632836D01*
X103341259Y-113492916D01*
X103375192Y-113343560D01*
X103377635Y-113168620D01*
X103347885Y-113018375D01*
X103318022Y-112945923D01*
X103932445Y-112331500D01*
X105410000Y-112331500D01*
X105474209Y-112325204D01*
X105538490Y-112319580D01*
X105542016Y-112318556D01*
X105545673Y-112318197D01*
X105607447Y-112299546D01*
X105669401Y-112281547D01*
X105672663Y-112279856D01*
X105676178Y-112278795D01*
X105733125Y-112248515D01*
X105790431Y-112218811D01*
X105793303Y-112216518D01*
X105796544Y-112214795D01*
X105846520Y-112174036D01*
X105896970Y-112133762D01*
X105902082Y-112128720D01*
X105902187Y-112128635D01*
X105902267Y-112128538D01*
X105903914Y-112126914D01*
X107304911Y-110725917D01*
X107304911Y-112552957D01*
X107304911Y-112552957D01*
G37*
X107304911Y-112552957D02*
X107283448Y-112543935D01*
X107133415Y-112513137D01*
X106980256Y-112512068D01*
X106829807Y-112540768D01*
X106687798Y-112598143D01*
X106559637Y-112682009D01*
X106450207Y-112789171D01*
X106363676Y-112915547D01*
X106303339Y-113056323D01*
X106271495Y-113206139D01*
X106269356Y-113359286D01*
X106297005Y-113509931D01*
X106353388Y-113652338D01*
X106436357Y-113781081D01*
X106542752Y-113891256D01*
X106668521Y-113978668D01*
X106808873Y-114039986D01*
X106958462Y-114072875D01*
X107060166Y-114075006D01*
X105501672Y-115633500D01*
X103159328Y-115633500D01*
X102171500Y-114645672D01*
X102171500Y-113900895D01*
X102213739Y-113930252D01*
X102354091Y-113991570D01*
X102503680Y-114024459D01*
X102656808Y-114027667D01*
X102807644Y-114001071D01*
X102950440Y-113945684D01*
X103079759Y-113863615D01*
X103190675Y-113757992D01*
X103278962Y-113632836D01*
X103341259Y-113492916D01*
X103375192Y-113343560D01*
X103377635Y-113168620D01*
X103347885Y-113018375D01*
X103318022Y-112945923D01*
X103932445Y-112331500D01*
X105410000Y-112331500D01*
X105474209Y-112325204D01*
X105538490Y-112319580D01*
X105542016Y-112318556D01*
X105545673Y-112318197D01*
X105607447Y-112299546D01*
X105669401Y-112281547D01*
X105672663Y-112279856D01*
X105676178Y-112278795D01*
X105733125Y-112248515D01*
X105790431Y-112218811D01*
X105793303Y-112216518D01*
X105796544Y-112214795D01*
X105846520Y-112174036D01*
X105896970Y-112133762D01*
X105902082Y-112128720D01*
X105902187Y-112128635D01*
X105902267Y-112128538D01*
X105903914Y-112126914D01*
X107304911Y-110725917D01*
X107304911Y-112552957D01*
G36*
X88265000Y-85725000D02*
X88270028Y-85760381D01*
X88284714Y-85792961D01*
X88307895Y-85820160D01*
X88337736Y-85839823D01*
X88371873Y-85850395D01*
X88392000Y-85852000D01*
X91185880Y-85852000D01*
X91182575Y-89354459D01*
X91078799Y-89374255D01*
X90928699Y-89434899D01*
X90793236Y-89523544D01*
X90677571Y-89636812D01*
X90586109Y-89770388D01*
X90522334Y-89919186D01*
X90488675Y-90077537D01*
X90486415Y-90239410D01*
X90515639Y-90398640D01*
X90575234Y-90549160D01*
X90662931Y-90685238D01*
X90775388Y-90801691D01*
X90785011Y-90808379D01*
X90713109Y-90913388D01*
X90649334Y-91062186D01*
X90615675Y-91220537D01*
X90613415Y-91382410D01*
X90642639Y-91541640D01*
X90702234Y-91692160D01*
X90789931Y-91828238D01*
X90902388Y-91944691D01*
X91035323Y-92037084D01*
X91179983Y-92100284D01*
X91173120Y-99373000D01*
X78956000Y-99373000D01*
X78956000Y-80456000D01*
X88265000Y-80456000D01*
X88265000Y-85725000D01*
X88265000Y-85725000D01*
G37*
X88265000Y-85725000D02*
X88270028Y-85760381D01*
X88284714Y-85792961D01*
X88307895Y-85820160D01*
X88337736Y-85839823D01*
X88371873Y-85850395D01*
X88392000Y-85852000D01*
X91185880Y-85852000D01*
X91182575Y-89354459D01*
X91078799Y-89374255D01*
X90928699Y-89434899D01*
X90793236Y-89523544D01*
X90677571Y-89636812D01*
X90586109Y-89770388D01*
X90522334Y-89919186D01*
X90488675Y-90077537D01*
X90486415Y-90239410D01*
X90515639Y-90398640D01*
X90575234Y-90549160D01*
X90662931Y-90685238D01*
X90775388Y-90801691D01*
X90785011Y-90808379D01*
X90713109Y-90913388D01*
X90649334Y-91062186D01*
X90615675Y-91220537D01*
X90613415Y-91382410D01*
X90642639Y-91541640D01*
X90702234Y-91692160D01*
X90789931Y-91828238D01*
X90902388Y-91944691D01*
X91035323Y-92037084D01*
X91179983Y-92100284D01*
X91173120Y-99373000D01*
X78956000Y-99373000D01*
X78956000Y-80456000D01*
X88265000Y-80456000D01*
X88265000Y-85725000D01*
G36*
X100457000Y-85725000D02*
X100462028Y-85760381D01*
X100476714Y-85792961D01*
X100499895Y-85820160D01*
X100529736Y-85839823D01*
X100563873Y-85850395D01*
X100584000Y-85852000D01*
X104140000Y-85852000D01*
X104140000Y-90906254D01*
X104009699Y-90958899D01*
X103874236Y-91047544D01*
X103758571Y-91160812D01*
X103667109Y-91294388D01*
X103603334Y-91443186D01*
X103569675Y-91601537D01*
X103567415Y-91763410D01*
X103596639Y-91922640D01*
X103656234Y-92073160D01*
X103743931Y-92209238D01*
X103856388Y-92325691D01*
X103989323Y-92418084D01*
X104137672Y-92482896D01*
X104140000Y-92483408D01*
X104140000Y-99314599D01*
X91927195Y-99372396D01*
X91938473Y-91974401D01*
X91950687Y-91966650D01*
X92067923Y-91855008D01*
X92161241Y-91722722D01*
X92227087Y-91574829D01*
X92262953Y-91416963D01*
X92265535Y-91232056D01*
X92234091Y-91073250D01*
X92172400Y-90923576D01*
X92082812Y-90788735D01*
X91968739Y-90673864D01*
X91968124Y-90673449D01*
X92034241Y-90579722D01*
X92100087Y-90431829D01*
X92135953Y-90273963D01*
X92138535Y-90089056D01*
X92107091Y-89930250D01*
X92045400Y-89780576D01*
X91955812Y-89645735D01*
X91942045Y-89631871D01*
X91944922Y-87744728D01*
X92002246Y-87714248D01*
X92155908Y-87588924D01*
X92282302Y-87436140D01*
X92376613Y-87261716D01*
X92435248Y-87072295D01*
X92455975Y-86875093D01*
X92438004Y-86677621D01*
X92382019Y-86487400D01*
X92290153Y-86311676D01*
X92165904Y-86157142D01*
X92014006Y-86029685D01*
X91947592Y-85993173D01*
X91947807Y-85852000D01*
X94869000Y-85852000D01*
X94904381Y-85846972D01*
X94936961Y-85832286D01*
X94964160Y-85809105D01*
X94983823Y-85779264D01*
X94994395Y-85745127D01*
X94996000Y-85725000D01*
X94996000Y-80456000D01*
X100457000Y-80456000D01*
X100457000Y-85725000D01*
X100457000Y-85725000D01*
G37*
X100457000Y-85725000D02*
X100462028Y-85760381D01*
X100476714Y-85792961D01*
X100499895Y-85820160D01*
X100529736Y-85839823D01*
X100563873Y-85850395D01*
X100584000Y-85852000D01*
X104140000Y-85852000D01*
X104140000Y-90906254D01*
X104009699Y-90958899D01*
X103874236Y-91047544D01*
X103758571Y-91160812D01*
X103667109Y-91294388D01*
X103603334Y-91443186D01*
X103569675Y-91601537D01*
X103567415Y-91763410D01*
X103596639Y-91922640D01*
X103656234Y-92073160D01*
X103743931Y-92209238D01*
X103856388Y-92325691D01*
X103989323Y-92418084D01*
X104137672Y-92482896D01*
X104140000Y-92483408D01*
X104140000Y-99314599D01*
X91927195Y-99372396D01*
X91938473Y-91974401D01*
X91950687Y-91966650D01*
X92067923Y-91855008D01*
X92161241Y-91722722D01*
X92227087Y-91574829D01*
X92262953Y-91416963D01*
X92265535Y-91232056D01*
X92234091Y-91073250D01*
X92172400Y-90923576D01*
X92082812Y-90788735D01*
X91968739Y-90673864D01*
X91968124Y-90673449D01*
X92034241Y-90579722D01*
X92100087Y-90431829D01*
X92135953Y-90273963D01*
X92138535Y-90089056D01*
X92107091Y-89930250D01*
X92045400Y-89780576D01*
X91955812Y-89645735D01*
X91942045Y-89631871D01*
X91944922Y-87744728D01*
X92002246Y-87714248D01*
X92155908Y-87588924D01*
X92282302Y-87436140D01*
X92376613Y-87261716D01*
X92435248Y-87072295D01*
X92455975Y-86875093D01*
X92438004Y-86677621D01*
X92382019Y-86487400D01*
X92290153Y-86311676D01*
X92165904Y-86157142D01*
X92014006Y-86029685D01*
X91947592Y-85993173D01*
X91947807Y-85852000D01*
X94869000Y-85852000D01*
X94904381Y-85846972D01*
X94936961Y-85832286D01*
X94964160Y-85809105D01*
X94983823Y-85779264D01*
X94994395Y-85745127D01*
X94996000Y-85725000D01*
X94996000Y-80456000D01*
X100457000Y-80456000D01*
X100457000Y-85725000D01*
G36*
X116544000Y-98560158D02*
X116422501Y-98494464D01*
X116256758Y-98443158D01*
X116084206Y-98425022D01*
X115911418Y-98440747D01*
X115744975Y-98489734D01*
X115591216Y-98570117D01*
X115455999Y-98678834D01*
X115344474Y-98811744D01*
X115260889Y-98963786D01*
X115208427Y-99129167D01*
X115189087Y-99301588D01*
X115189000Y-99314000D01*
X115189000Y-99364347D01*
X104775000Y-99314605D01*
X104775000Y-92429953D01*
X104904687Y-92347650D01*
X105021923Y-92236008D01*
X105115241Y-92103722D01*
X105181087Y-91955829D01*
X105216953Y-91797963D01*
X105219535Y-91613056D01*
X105188091Y-91454250D01*
X105126400Y-91304576D01*
X105036812Y-91169735D01*
X104922739Y-91054864D01*
X104788527Y-90964337D01*
X104775000Y-90958651D01*
X104775000Y-85852000D01*
X106680000Y-85852000D01*
X106715381Y-85846972D01*
X106747961Y-85832286D01*
X106775160Y-85809105D01*
X106794823Y-85779264D01*
X106805395Y-85745127D01*
X106807000Y-85725000D01*
X106807000Y-81984410D01*
X113981415Y-81984410D01*
X114010639Y-82143640D01*
X114070234Y-82294160D01*
X114157931Y-82430238D01*
X114270388Y-82546691D01*
X114403323Y-82639084D01*
X114551672Y-82703896D01*
X114709785Y-82738659D01*
X114871638Y-82742049D01*
X115031067Y-82713938D01*
X115182000Y-82655395D01*
X115318687Y-82568650D01*
X115435923Y-82457008D01*
X115529241Y-82324722D01*
X115595087Y-82176829D01*
X115630953Y-82018963D01*
X115633535Y-81834056D01*
X115602091Y-81675250D01*
X115540400Y-81525576D01*
X115450812Y-81390735D01*
X115336739Y-81275864D01*
X115202527Y-81185337D01*
X115053288Y-81122602D01*
X114894706Y-81090050D01*
X114732821Y-81088920D01*
X114573799Y-81119255D01*
X114423699Y-81179899D01*
X114288236Y-81268544D01*
X114172571Y-81381812D01*
X114081109Y-81515388D01*
X114017334Y-81664186D01*
X113983675Y-81822537D01*
X113981415Y-81984410D01*
X106807000Y-81984410D01*
X106807000Y-80456000D01*
X116544000Y-80456000D01*
X116544000Y-98560158D01*
X116544000Y-98560158D01*
G37*
X116544000Y-98560158D02*
X116422501Y-98494464D01*
X116256758Y-98443158D01*
X116084206Y-98425022D01*
X115911418Y-98440747D01*
X115744975Y-98489734D01*
X115591216Y-98570117D01*
X115455999Y-98678834D01*
X115344474Y-98811744D01*
X115260889Y-98963786D01*
X115208427Y-99129167D01*
X115189087Y-99301588D01*
X115189000Y-99314000D01*
X115189000Y-99364347D01*
X104775000Y-99314605D01*
X104775000Y-92429953D01*
X104904687Y-92347650D01*
X105021923Y-92236008D01*
X105115241Y-92103722D01*
X105181087Y-91955829D01*
X105216953Y-91797963D01*
X105219535Y-91613056D01*
X105188091Y-91454250D01*
X105126400Y-91304576D01*
X105036812Y-91169735D01*
X104922739Y-91054864D01*
X104788527Y-90964337D01*
X104775000Y-90958651D01*
X104775000Y-85852000D01*
X106680000Y-85852000D01*
X106715381Y-85846972D01*
X106747961Y-85832286D01*
X106775160Y-85809105D01*
X106794823Y-85779264D01*
X106805395Y-85745127D01*
X106807000Y-85725000D01*
X106807000Y-81984410D01*
X113981415Y-81984410D01*
X114010639Y-82143640D01*
X114070234Y-82294160D01*
X114157931Y-82430238D01*
X114270388Y-82546691D01*
X114403323Y-82639084D01*
X114551672Y-82703896D01*
X114709785Y-82738659D01*
X114871638Y-82742049D01*
X115031067Y-82713938D01*
X115182000Y-82655395D01*
X115318687Y-82568650D01*
X115435923Y-82457008D01*
X115529241Y-82324722D01*
X115595087Y-82176829D01*
X115630953Y-82018963D01*
X115633535Y-81834056D01*
X115602091Y-81675250D01*
X115540400Y-81525576D01*
X115450812Y-81390735D01*
X115336739Y-81275864D01*
X115202527Y-81185337D01*
X115053288Y-81122602D01*
X114894706Y-81090050D01*
X114732821Y-81088920D01*
X114573799Y-81119255D01*
X114423699Y-81179899D01*
X114288236Y-81268544D01*
X114172571Y-81381812D01*
X114081109Y-81515388D01*
X114017334Y-81664186D01*
X113983675Y-81822537D01*
X113981415Y-81984410D01*
X106807000Y-81984410D01*
X106807000Y-80456000D01*
X116544000Y-80456000D01*
X116544000Y-98560158D01*
G36*
X95631000Y-106934000D02*
X92837000Y-106934000D01*
X92837000Y-102616000D01*
X95631000Y-102616000D01*
X95631000Y-106934000D01*
X95631000Y-106934000D01*
G37*
X95631000Y-106934000D02*
X92837000Y-106934000D01*
X92837000Y-102616000D01*
X95631000Y-102616000D01*
X95631000Y-106934000D01*
M02*
