%FSLAX46Y46*%
G04 Gerber Fmt 4.6, Leading zero omitted, Abs format (unit mm)*
G04 Created by KiCad (PCBNEW (2014-08-24 BZR 5093)-product) date Thu 04 Sep 2014 06:20:05 PM ART*
%MOMM*%
G01*
G04 APERTURE LIST*
%ADD10C,0.150000*%
%ADD11R,1.699260X1.198880*%
%ADD12O,1.699260X1.198880*%
%ADD13O,1.524000X3.048000*%
%ADD14C,4.064000*%
%ADD15C,1.300480*%
%ADD16C,0.800000*%
%ADD17C,0.889000*%
%ADD18C,1.524000*%
%ADD19C,1.270000*%
%ADD20C,0.635000*%
%ADD21C,0.508000*%
%ADD22C,0.304800*%
%ADD23C,0.254000*%
%ADD24C,1.016000*%
G04 APERTURE END LIST*
D10*
D11*
X80450000Y-119728280D03*
D12*
X80450000Y-115725240D03*
X80450000Y-117726760D03*
X80450000Y-113726260D03*
D13*
X108712000Y-136398000D03*
X111252000Y-136398000D03*
X113792000Y-136398000D03*
D14*
X92000000Y-83000000D03*
X103500000Y-83000000D03*
D15*
X86099240Y-137200000D03*
X88100760Y-137200000D03*
X90099740Y-137200000D03*
X92101260Y-137200000D03*
X84100260Y-137200000D03*
X82098740Y-137200000D03*
X114300000Y-126253240D03*
X114300000Y-128254760D03*
X114300000Y-130253740D03*
X114300000Y-132255260D03*
X114300000Y-124254260D03*
X114300000Y-122252740D03*
X114300000Y-112029240D03*
X114300000Y-114030760D03*
X114300000Y-116029740D03*
X114300000Y-118031260D03*
X114300000Y-110030260D03*
X114300000Y-108028740D03*
D16*
X85979000Y-114935000D03*
X88900000Y-117729000D03*
X88900000Y-118800000D03*
X79400000Y-127800000D03*
X93650000Y-120850000D03*
X82650000Y-127000000D03*
X96450000Y-116950000D03*
X89800000Y-119600000D03*
X109782385Y-122455968D03*
X79050000Y-130800000D03*
X93408500Y-105410000D03*
X94430898Y-112400000D03*
X103886176Y-113159379D03*
X103800000Y-114950000D03*
X92833302Y-124850000D03*
X84928238Y-131104499D03*
X98512630Y-135586518D03*
X98450000Y-130100000D03*
X112550000Y-135200000D03*
X109950000Y-135050000D03*
X113150000Y-129100000D03*
X91823218Y-122684218D03*
X113411000Y-111125000D03*
X110871000Y-119380000D03*
X110871000Y-118364000D03*
X98552000Y-116840000D03*
X97028000Y-123063000D03*
X99314000Y-117475000D03*
X103251000Y-132842000D03*
X93321003Y-128553294D03*
X107750000Y-124550000D03*
D17*
X90908085Y-109436017D03*
D16*
X80600000Y-121900000D03*
X86300000Y-126200000D03*
X114935000Y-104273302D03*
X90255293Y-131671345D03*
X88138000Y-131699000D03*
X81800000Y-112800000D03*
D18*
X92070128Y-103845682D03*
X92000356Y-105549680D03*
D16*
X99187000Y-132731485D03*
X99881940Y-138024468D03*
X97028000Y-133350000D03*
X108204000Y-128143000D03*
X97350000Y-126600000D03*
X100965000Y-121539000D03*
X105537000Y-121539000D03*
X91948000Y-114935000D03*
X90805000Y-114935000D03*
X99374925Y-134191906D03*
X100457000Y-122555000D03*
X94615000Y-120523000D03*
X83900000Y-130100000D03*
X96901000Y-127635000D03*
X98171000Y-128143000D03*
X88200000Y-121900000D03*
X79300000Y-126650000D03*
X104350000Y-132600000D03*
X91200000Y-119400000D03*
X92850000Y-129600000D03*
X106350000Y-126600000D03*
X95631000Y-137160000D03*
X98552000Y-122301000D03*
X95850000Y-126400000D03*
X116200000Y-110900000D03*
X110900000Y-132400000D03*
X109100000Y-127450000D03*
X107200501Y-135762249D03*
X111125000Y-113411000D03*
X93980000Y-113411000D03*
X83900000Y-125300000D03*
D18*
X83566000Y-107188000D03*
X83566000Y-105410000D03*
X81788000Y-105410000D03*
X80010000Y-105410000D03*
X81788000Y-107188000D03*
X80010000Y-107188000D03*
X80010000Y-108966000D03*
X81788000Y-108966000D03*
X83566000Y-108966000D03*
X83566000Y-110744000D03*
X81788000Y-110744000D03*
X80010000Y-110744000D03*
D16*
X96647000Y-114046000D03*
X116100000Y-101300000D03*
X101600000Y-138085820D03*
X82600000Y-128300000D03*
X104304820Y-130645617D03*
D18*
X110744000Y-86868000D03*
X110744000Y-88646000D03*
X112522000Y-86868000D03*
X112522000Y-88646000D03*
X106934000Y-86868000D03*
X106934000Y-88646000D03*
X108966000Y-86868000D03*
X108966000Y-88646000D03*
X106934000Y-90424000D03*
X108966000Y-90424000D03*
X110744000Y-90424000D03*
X112522000Y-90424000D03*
D16*
X99695000Y-109220000D03*
X86741000Y-125095000D03*
D18*
X93980000Y-90678000D03*
X95758000Y-90678000D03*
X97790000Y-90678000D03*
X99822000Y-90678000D03*
X99822000Y-88900000D03*
X97790000Y-88900000D03*
X95758000Y-88900000D03*
X97790000Y-87122000D03*
X99822000Y-87122000D03*
X93980000Y-87122000D03*
D16*
X105918000Y-104648000D03*
D18*
X95758000Y-87122000D03*
X93980000Y-88900000D03*
D16*
X91200000Y-123600000D03*
X86500000Y-128267478D03*
D18*
X81026000Y-90932000D03*
X82804000Y-90932000D03*
X84582000Y-90932000D03*
X86360000Y-90932000D03*
X86360000Y-89154000D03*
X84582000Y-89154000D03*
X82804000Y-89154000D03*
X81026000Y-89154000D03*
X81026000Y-87122000D03*
X82804000Y-87122000D03*
X84582000Y-87122000D03*
X86360000Y-87122000D03*
D16*
X104648000Y-104394000D03*
D17*
X91440000Y-86868000D03*
D16*
X105283000Y-130429000D03*
X101346000Y-128524000D03*
X101473000Y-113284000D03*
D17*
X108003411Y-103725057D03*
X91440000Y-91313000D03*
D16*
X105791000Y-106045000D03*
X91300000Y-128250000D03*
X107061000Y-137287000D03*
X90932000Y-126492000D03*
X105792150Y-136142850D03*
D17*
X114808000Y-81915000D03*
D16*
X99012291Y-113211397D03*
X100441730Y-113235361D03*
X113030000Y-105791000D03*
X113030000Y-105791000D03*
X91440000Y-124587000D03*
X103632000Y-138085820D03*
D17*
X104394000Y-91694000D03*
D16*
X105918000Y-102743000D03*
X102616000Y-113284000D03*
D17*
X103917829Y-102086099D03*
X91313000Y-90170000D03*
D16*
X106807000Y-113538000D03*
X105283000Y-108966000D03*
D17*
X91452628Y-102191916D03*
D16*
X88519000Y-109601000D03*
X111055180Y-104070180D03*
D17*
X89792039Y-109562880D03*
X111760000Y-103124000D03*
D16*
X110617000Y-106426000D03*
X100711000Y-109982000D03*
X112395000Y-109982000D03*
X105283000Y-125349000D03*
X100584000Y-118364000D03*
X106934000Y-118237000D03*
X105283000Y-126619000D03*
X104929931Y-118437878D03*
X104648000Y-127508000D03*
X103759000Y-118466239D03*
X103632000Y-127889000D03*
X102229461Y-118465184D03*
X100076000Y-128270000D03*
X96450000Y-118050000D03*
X96520000Y-129413000D03*
X103378000Y-121412000D03*
X100700000Y-126600000D03*
X90200000Y-127300000D03*
X98850000Y-126650000D03*
X93859398Y-129369533D03*
X93605312Y-132700000D03*
X89453446Y-132677426D03*
X102489000Y-127889000D03*
X88100000Y-123900000D03*
X88292526Y-129652290D03*
X107950000Y-130810000D03*
X105029000Y-131572000D03*
X84900000Y-132600000D03*
D19*
X80518000Y-127800000D02*
X80518000Y-123698000D01*
X80518000Y-123698000D02*
X86487000Y-117729000D01*
X86487000Y-117729000D02*
X88900000Y-117729000D01*
X82098740Y-137200000D02*
X82103522Y-135303663D01*
D20*
X88900000Y-117729000D02*
X88900000Y-118800000D01*
D19*
X80518000Y-133718000D02*
X82103522Y-135303522D01*
X82103522Y-135303522D02*
X82103522Y-135303663D01*
X80518000Y-127800000D02*
X80518000Y-133718000D01*
D21*
X79400000Y-127800000D02*
X80518000Y-127800000D01*
D22*
X114297260Y-122252740D02*
X114300000Y-122252740D01*
X109100000Y-127450000D02*
X114297260Y-122252740D01*
X109100000Y-130600000D02*
X110900000Y-132400000D01*
X109100000Y-127450000D02*
X109100000Y-130600000D01*
X95319315Y-126365000D02*
X94303315Y-127381000D01*
X95850000Y-126400000D02*
X95319315Y-126365000D01*
X94303315Y-127381000D02*
X93091000Y-127381000D01*
X93091000Y-127381000D02*
X92329000Y-128143000D01*
X92329000Y-129079000D02*
X92850000Y-129600000D01*
X92329000Y-128143000D02*
X92329000Y-129079000D01*
X99580201Y-123329201D02*
X98552000Y-122301000D01*
X99580201Y-127000497D02*
X99580201Y-123329201D01*
X99345799Y-127234899D02*
X99580201Y-127000497D01*
X99345799Y-128048899D02*
X99345799Y-127234899D01*
X96971019Y-130423679D02*
X99345799Y-128048899D01*
X93673679Y-130423679D02*
X96971019Y-130423679D01*
X92850000Y-129600000D02*
X93673679Y-130423679D01*
D23*
X107200501Y-133972499D02*
X108773000Y-132400000D01*
X108773000Y-132400000D02*
X110900000Y-132400000D01*
X107200501Y-135762249D02*
X107200501Y-133972499D01*
D24*
X108145389Y-116898611D02*
X102554671Y-116898611D01*
X97663000Y-114046000D02*
X97212685Y-114046000D01*
X102554671Y-116898611D02*
X102242060Y-116586000D01*
X97212685Y-114046000D02*
X96647000Y-114046000D01*
X102242060Y-116586000D02*
X100203000Y-116586000D01*
X100203000Y-116586000D02*
X97663000Y-114046000D01*
X111125000Y-113919000D02*
X108145389Y-116898611D01*
X111125000Y-113411000D02*
X111125000Y-113919000D01*
X110744000Y-113030000D02*
X111125000Y-113411000D01*
X111048802Y-113538000D02*
X111125000Y-113919000D01*
X111048802Y-113538000D02*
X111048802Y-113411000D01*
X111048802Y-113411000D02*
X110744000Y-113030000D01*
X110744000Y-113030000D02*
X110547199Y-112833199D01*
X111760000Y-107315000D02*
X111760000Y-105074315D01*
X115534315Y-101300000D02*
X116100000Y-101300000D01*
X110547199Y-108527801D02*
X111760000Y-107315000D01*
X110547199Y-112833199D02*
X110547199Y-108527801D01*
X111760000Y-105074315D02*
X115534315Y-101300000D01*
D23*
X98906061Y-134729582D02*
X101600000Y-137423521D01*
X89617476Y-134729582D02*
X98906061Y-134729582D01*
X82600000Y-128300000D02*
X83187894Y-128300000D01*
X101600000Y-137423521D02*
X101600000Y-137520135D01*
X83187894Y-128300000D02*
X89617476Y-134729582D01*
X101600000Y-137520135D02*
X101600000Y-138085820D01*
D20*
X90790000Y-85710000D02*
X105776000Y-85710000D01*
X105776000Y-85710000D02*
X106934000Y-86868000D01*
D23*
X86741000Y-125095000D02*
X86741000Y-124005000D01*
X86741000Y-124005000D02*
X87683909Y-123062091D01*
X94869000Y-113480315D02*
X94869000Y-117372340D01*
X99695000Y-109220000D02*
X99129315Y-109220000D01*
X99129315Y-109220000D02*
X94869000Y-113480315D01*
X89179249Y-123062091D02*
X87683909Y-123062091D01*
X94869000Y-117372340D02*
X89179249Y-123062091D01*
D20*
X99441000Y-109220000D02*
X99695000Y-109220000D01*
X90864259Y-107950000D02*
X98171000Y-107950000D01*
X90790000Y-85710000D02*
X89500000Y-87000000D01*
X98171000Y-107950000D02*
X99441000Y-109220000D01*
X89500000Y-106585741D02*
X90864259Y-107950000D01*
X89500000Y-87000000D02*
X89500000Y-106585741D01*
D23*
X91200000Y-123600000D02*
X91200000Y-123585000D01*
X90678000Y-122428000D02*
X91059000Y-122047000D01*
X90678000Y-123063000D02*
X90678000Y-122428000D01*
X91200000Y-123585000D02*
X90678000Y-123063000D01*
X95377000Y-113903351D02*
X95377000Y-117729000D01*
X105918000Y-104648000D02*
X107823000Y-106553000D01*
X95377000Y-117729000D02*
X91059000Y-122047000D01*
X107823000Y-106553000D02*
X107823000Y-113919000D01*
X107823000Y-113919000D02*
X107188000Y-114554000D01*
X107188000Y-114554000D02*
X106754000Y-114554000D01*
X106754000Y-114554000D02*
X104200000Y-112000000D01*
X104200000Y-112000000D02*
X97280351Y-112000000D01*
X97280351Y-112000000D02*
X95377000Y-113903351D01*
D20*
X107100000Y-103466000D02*
X105918000Y-104648000D01*
X107100000Y-101700000D02*
X107100000Y-103466000D01*
X105537000Y-100137000D02*
X107100000Y-101700000D01*
X105537000Y-91059000D02*
X105537000Y-100137000D01*
X103378000Y-88900000D02*
X105537000Y-91059000D01*
X99822000Y-88900000D02*
X103378000Y-88900000D01*
X91440000Y-86868000D02*
X91440000Y-87757000D01*
X91440000Y-87757000D02*
X92583000Y-88900000D01*
X104648000Y-104394000D02*
X100838000Y-100584000D01*
X92583000Y-99314000D02*
X92583000Y-88900000D01*
X93853000Y-100584000D02*
X92583000Y-99314000D01*
X100838000Y-100584000D02*
X93853000Y-100584000D01*
D23*
X105283000Y-129921000D02*
X105283000Y-130429000D01*
X113157000Y-113172240D02*
X114300000Y-112029240D01*
X105406297Y-129797703D02*
X105283000Y-129921000D01*
X113157000Y-113172240D02*
X113157000Y-122112770D01*
X105472067Y-129797703D02*
X113157000Y-122112770D01*
X105406297Y-129797703D02*
X105472067Y-129797703D01*
X101346000Y-128524000D02*
X102236842Y-129414842D01*
X112649000Y-110771106D02*
X113344959Y-110075147D01*
X102236842Y-129414842D02*
X105174487Y-129414842D01*
X113344959Y-108983781D02*
X114300000Y-108028740D01*
X112649000Y-121940329D02*
X112649000Y-110771106D01*
X113344959Y-110075147D02*
X113344959Y-108983781D01*
X105174487Y-129414842D02*
X112649000Y-121940329D01*
D20*
X91440000Y-99822000D02*
X91440000Y-91313000D01*
X93472000Y-101854000D02*
X91440000Y-99822000D01*
X104521000Y-106045000D02*
X100330000Y-101854000D01*
X100330000Y-101854000D02*
X93472000Y-101854000D01*
X105791000Y-106045000D02*
X104521000Y-106045000D01*
D23*
X91300000Y-128250000D02*
X91300000Y-129099990D01*
X91300000Y-129099990D02*
X93080898Y-130880888D01*
X93080898Y-130880888D02*
X99614559Y-130880888D01*
X105793921Y-135130921D02*
X106496951Y-135833951D01*
X99614559Y-130880888D02*
X103864592Y-135130921D01*
X106496951Y-136722951D02*
X107061000Y-137287000D01*
X103864592Y-135130921D02*
X105793921Y-135130921D01*
X106496951Y-135833951D02*
X106496951Y-136722951D01*
X104265850Y-136142850D02*
X105792150Y-136142850D01*
X90932000Y-126492000D02*
X89789000Y-126492000D01*
X92902038Y-131312698D02*
X99435698Y-131312698D01*
X89281000Y-127000000D02*
X89281000Y-127691660D01*
X89281000Y-127691660D02*
X92902038Y-131312698D01*
X89789000Y-126492000D02*
X89281000Y-127000000D01*
X99435698Y-131312698D02*
X104265850Y-136142850D01*
D20*
X114808000Y-81915000D02*
X114808000Y-98700359D01*
X102554699Y-115479745D02*
X101280639Y-115479745D01*
X109347000Y-113792000D02*
X107243699Y-115895301D01*
X114808000Y-98700359D02*
X109347000Y-104161359D01*
X107243699Y-115895301D02*
X102970255Y-115895301D01*
X109347000Y-104161359D02*
X109347000Y-113792000D01*
X102970255Y-115895301D02*
X102554699Y-115479745D01*
X101280639Y-115479745D02*
X99412290Y-113611396D01*
X99412290Y-113611396D02*
X99012291Y-113211397D01*
D23*
X99243121Y-131744500D02*
X103632000Y-136133379D01*
X88773000Y-126688315D02*
X88773000Y-127794320D01*
X91440000Y-124587000D02*
X90874315Y-124587000D01*
X90874315Y-124587000D02*
X88773000Y-126688315D01*
X103632000Y-136133379D02*
X103632000Y-137520135D01*
X92723180Y-131744500D02*
X99243121Y-131744500D01*
X88773000Y-127794320D02*
X92723180Y-131744500D01*
X103632000Y-137520135D02*
X103632000Y-138085820D01*
D20*
X104394000Y-101219000D02*
X105918000Y-102743000D01*
X104394000Y-91694000D02*
X104394000Y-101219000D01*
X90312810Y-90541573D02*
X90312810Y-105933839D01*
X90684383Y-90170000D02*
X90312810Y-90541573D01*
X91185971Y-106807000D02*
X100641685Y-106807000D01*
X100641685Y-106807000D02*
X106807000Y-112972315D01*
X91313000Y-90170000D02*
X90684383Y-90170000D01*
X90312810Y-105933839D02*
X91185971Y-106807000D01*
X106807000Y-112972315D02*
X106807000Y-113538000D01*
D23*
X105283000Y-125349000D02*
X107569000Y-123063000D01*
X100983999Y-117964001D02*
X100584000Y-118364000D01*
X107569000Y-123063000D02*
X107569000Y-120142000D01*
X107569000Y-120142000D02*
X106045000Y-118618000D01*
X106045000Y-118618000D02*
X106045000Y-117983000D01*
X106045000Y-117983000D02*
X105773421Y-117711421D01*
X105773421Y-117711421D02*
X101236579Y-117711421D01*
X101236579Y-117711421D02*
X100983999Y-117964001D01*
X106172000Y-125730000D02*
X105283000Y-126619000D01*
X106934000Y-118237000D02*
X106934000Y-118745000D01*
X108331000Y-120142000D02*
X108331000Y-122936000D01*
X106934000Y-118745000D02*
X108331000Y-120142000D01*
X106172000Y-125095000D02*
X108331000Y-122936000D01*
X106172000Y-125095000D02*
X106172000Y-125730000D01*
X106934000Y-122555000D02*
X106934000Y-120441947D01*
X105329930Y-118837877D02*
X104929931Y-118437878D01*
X104248001Y-127108001D02*
X104248001Y-125240999D01*
X106934000Y-120441947D02*
X105329930Y-118837877D01*
X104248001Y-125240999D02*
X106934000Y-122555000D01*
X104648000Y-127508000D02*
X104248001Y-127108001D01*
X106426000Y-121920000D02*
X106426000Y-121133239D01*
X104158999Y-118866238D02*
X103759000Y-118466239D01*
X103632000Y-127889000D02*
X103632000Y-124714000D01*
X106426000Y-121133239D02*
X104158999Y-118866238D01*
X103632000Y-124714000D02*
X106426000Y-121920000D01*
X104394000Y-122174000D02*
X104394000Y-120629723D01*
X100076000Y-128270000D02*
X102108000Y-126238000D01*
X102108000Y-126238000D02*
X102108000Y-124460000D01*
X104394000Y-120629723D02*
X102629460Y-118865183D01*
X102629460Y-118865183D02*
X102229461Y-118465184D01*
X102108000Y-124460000D02*
X104394000Y-122174000D01*
X103378000Y-121412000D02*
X101092000Y-123698000D01*
X101092000Y-123698000D02*
X101092000Y-126111000D01*
X101092000Y-126111000D02*
X100700000Y-126600000D01*
X92200000Y-127000000D02*
X92200000Y-127002000D01*
X90200000Y-127300000D02*
X91900000Y-127300000D01*
X93599000Y-125603000D02*
X92200000Y-127002000D01*
X91900000Y-127300000D02*
X92200000Y-127000000D01*
X97917000Y-125603000D02*
X93599000Y-125603000D01*
X98850000Y-126650000D02*
X97917000Y-125603000D01*
X105073659Y-128905000D02*
X112056695Y-121921964D01*
X111690199Y-109035801D02*
X113673643Y-107052357D01*
X102489000Y-127889000D02*
X103505000Y-128905000D01*
X103505000Y-128905000D02*
X105073659Y-128905000D01*
X112056695Y-121921964D02*
X112056695Y-110686801D01*
X112056695Y-110686801D02*
X111690199Y-110320305D01*
X113673643Y-107052357D02*
X114709239Y-107052357D01*
X111690199Y-110320305D02*
X111690199Y-109035801D01*
X114709239Y-107052357D02*
X115443000Y-107786118D01*
X115443000Y-108887260D02*
X114300000Y-110030260D01*
X115443000Y-107786118D02*
X115443000Y-108887260D01*
X88292526Y-124092526D02*
X88100000Y-123900000D01*
X88292526Y-129652290D02*
X88292526Y-124092526D01*
G36*
X101091538Y-137561637D02*
X100981328Y-137671655D01*
X100869927Y-137939937D01*
X100869674Y-138230428D01*
X100980606Y-138498904D01*
X101076334Y-138594800D01*
X100344171Y-138594800D01*
X100500612Y-138438633D01*
X100612013Y-138170351D01*
X100612266Y-137879860D01*
X100501334Y-137611384D01*
X100296105Y-137405796D01*
X100027823Y-137294395D01*
X99737332Y-137294142D01*
X99468856Y-137405074D01*
X99263268Y-137610303D01*
X99151867Y-137878585D01*
X99151614Y-138169076D01*
X99262546Y-138437552D01*
X99419519Y-138594800D01*
X93081870Y-138594800D01*
X93081870Y-137005834D01*
X92932921Y-136645351D01*
X92657360Y-136369308D01*
X92297137Y-136219731D01*
X91907094Y-136219390D01*
X91546611Y-136368339D01*
X91270568Y-136643900D01*
X91120991Y-137004123D01*
X91120650Y-137394166D01*
X91269599Y-137754649D01*
X91545160Y-138030692D01*
X91905383Y-138180269D01*
X92295426Y-138180610D01*
X92655909Y-138031661D01*
X92931952Y-137756100D01*
X93081529Y-137395877D01*
X93081870Y-137005834D01*
X93081870Y-138594800D01*
X91080350Y-138594800D01*
X91080350Y-137005834D01*
X90931401Y-136645351D01*
X90655840Y-136369308D01*
X90295617Y-136219731D01*
X89905574Y-136219390D01*
X89545091Y-136368339D01*
X89269048Y-136643900D01*
X89119471Y-137004123D01*
X89119130Y-137394166D01*
X89268079Y-137754649D01*
X89543640Y-138030692D01*
X89903863Y-138180269D01*
X90293906Y-138180610D01*
X90654389Y-138031661D01*
X90930432Y-137756100D01*
X91080009Y-137395877D01*
X91080350Y-137005834D01*
X91080350Y-138594800D01*
X89081370Y-138594800D01*
X89081370Y-137005834D01*
X88932421Y-136645351D01*
X88656860Y-136369308D01*
X88296637Y-136219731D01*
X87906594Y-136219390D01*
X87546111Y-136368339D01*
X87270068Y-136643900D01*
X87120491Y-137004123D01*
X87120150Y-137394166D01*
X87269099Y-137754649D01*
X87544660Y-138030692D01*
X87904883Y-138180269D01*
X88294926Y-138180610D01*
X88655409Y-138031661D01*
X88931452Y-137756100D01*
X89081029Y-137395877D01*
X89081370Y-137005834D01*
X89081370Y-138594800D01*
X87079850Y-138594800D01*
X87079850Y-137005834D01*
X86930901Y-136645351D01*
X86655340Y-136369308D01*
X86295117Y-136219731D01*
X85905074Y-136219390D01*
X85630326Y-136332913D01*
X85630326Y-132455392D01*
X85519394Y-132186916D01*
X85314165Y-131981328D01*
X85045883Y-131869927D01*
X84755392Y-131869674D01*
X84486916Y-131980606D01*
X84281328Y-132185835D01*
X84169927Y-132454117D01*
X84169674Y-132744608D01*
X84280606Y-133013084D01*
X84485835Y-133218672D01*
X84754117Y-133330073D01*
X85044608Y-133330326D01*
X85313084Y-133219394D01*
X85518672Y-133014165D01*
X85630073Y-132745883D01*
X85630326Y-132455392D01*
X85630326Y-136332913D01*
X85544591Y-136368339D01*
X85268548Y-136643900D01*
X85118971Y-137004123D01*
X85118630Y-137394166D01*
X85267579Y-137754649D01*
X85543140Y-138030692D01*
X85903363Y-138180269D01*
X86293406Y-138180610D01*
X86653889Y-138031661D01*
X86929932Y-137756100D01*
X87079509Y-137395877D01*
X87079850Y-137005834D01*
X87079850Y-138594800D01*
X85080870Y-138594800D01*
X85080870Y-137005834D01*
X84931921Y-136645351D01*
X84656360Y-136369308D01*
X84296137Y-136219731D01*
X83906094Y-136219390D01*
X83545611Y-136368339D01*
X83269568Y-136643900D01*
X83119991Y-137004123D01*
X83119650Y-137394166D01*
X83268599Y-137754649D01*
X83544160Y-138030692D01*
X83904383Y-138180269D01*
X84294426Y-138180610D01*
X84654909Y-138031661D01*
X84930952Y-137756100D01*
X85080529Y-137395877D01*
X85080870Y-137005834D01*
X85080870Y-138594800D01*
X78905200Y-138594800D01*
X78905200Y-131530073D01*
X79194608Y-131530326D01*
X79463084Y-131419394D01*
X79552800Y-131329834D01*
X79552800Y-133718000D01*
X79626271Y-134087366D01*
X79835501Y-134400499D01*
X81137313Y-135702312D01*
X81134125Y-136966421D01*
X81118471Y-137004123D01*
X81118130Y-137394166D01*
X81267079Y-137754649D01*
X81542640Y-138030692D01*
X81902863Y-138180269D01*
X82292906Y-138180610D01*
X82653389Y-138031661D01*
X82929432Y-137756100D01*
X83079009Y-137395877D01*
X83079350Y-137005834D01*
X83064523Y-136969950D01*
X83068719Y-135306097D01*
X83068480Y-135304879D01*
X83068722Y-135303663D01*
X83068722Y-135303522D01*
X83030135Y-135109534D01*
X82996180Y-134936547D01*
X82995532Y-134935573D01*
X82995251Y-134934156D01*
X82874155Y-134752924D01*
X82874049Y-134752765D01*
X82787740Y-134622887D01*
X82786882Y-134622310D01*
X82786022Y-134621023D01*
X81483200Y-133318201D01*
X81483200Y-127800000D01*
X81483200Y-124097798D01*
X86886798Y-118694200D01*
X88169892Y-118694200D01*
X88169674Y-118944608D01*
X88280606Y-119213084D01*
X88485835Y-119418672D01*
X88754117Y-119530073D01*
X89044608Y-119530326D01*
X89069869Y-119519888D01*
X89069674Y-119744608D01*
X89180606Y-120013084D01*
X89385835Y-120218672D01*
X89654117Y-120330073D01*
X89944608Y-120330326D01*
X90213084Y-120219394D01*
X90418672Y-120014165D01*
X90530073Y-119745883D01*
X90530326Y-119455392D01*
X90419394Y-119186916D01*
X90214165Y-118981328D01*
X89945883Y-118869927D01*
X89655392Y-118869674D01*
X89630130Y-118880111D01*
X89630326Y-118655392D01*
X89547700Y-118455421D01*
X89547700Y-118434751D01*
X89582499Y-118411499D01*
X89791729Y-118098366D01*
X89865200Y-117729000D01*
X89791729Y-117359634D01*
X89582499Y-117046501D01*
X89269366Y-116837271D01*
X88900000Y-116763800D01*
X86709326Y-116763800D01*
X86709326Y-114790392D01*
X86598394Y-114521916D01*
X86393165Y-114316328D01*
X86124883Y-114204927D01*
X85834392Y-114204674D01*
X85565916Y-114315606D01*
X85360328Y-114520835D01*
X85248927Y-114789117D01*
X85248674Y-115079608D01*
X85359606Y-115348084D01*
X85564835Y-115553672D01*
X85833117Y-115665073D01*
X86123608Y-115665326D01*
X86392084Y-115554394D01*
X86597672Y-115349165D01*
X86709073Y-115080883D01*
X86709326Y-114790392D01*
X86709326Y-116763800D01*
X86487000Y-116763800D01*
X86117634Y-116837271D01*
X85804501Y-117046500D01*
X82530326Y-120320675D01*
X82530326Y-112655392D01*
X82419394Y-112386916D01*
X82214165Y-112181328D01*
X81945883Y-112069927D01*
X81655392Y-112069674D01*
X81386916Y-112180606D01*
X81181328Y-112385835D01*
X81069927Y-112654117D01*
X81069742Y-112865531D01*
X80723304Y-112796620D01*
X80176696Y-112796620D01*
X79820938Y-112867385D01*
X79519341Y-113068905D01*
X79317821Y-113370502D01*
X79247056Y-113726260D01*
X79317821Y-114082018D01*
X79519341Y-114383615D01*
X79820938Y-114585135D01*
X80176696Y-114655900D01*
X80723304Y-114655900D01*
X81079062Y-114585135D01*
X81380659Y-114383615D01*
X81582179Y-114082018D01*
X81652944Y-113726260D01*
X81610300Y-113511878D01*
X81654117Y-113530073D01*
X81944608Y-113530326D01*
X82213084Y-113419394D01*
X82418672Y-113214165D01*
X82530073Y-112945883D01*
X82530326Y-112655392D01*
X82530326Y-120320675D01*
X81652944Y-121198057D01*
X81652944Y-117726760D01*
X81652944Y-115725240D01*
X81582179Y-115369482D01*
X81380659Y-115067885D01*
X81079062Y-114866365D01*
X80723304Y-114795600D01*
X80176696Y-114795600D01*
X79820938Y-114866365D01*
X79519341Y-115067885D01*
X79317821Y-115369482D01*
X79247056Y-115725240D01*
X79317821Y-116080998D01*
X79519341Y-116382595D01*
X79820938Y-116584115D01*
X80176696Y-116654880D01*
X80723304Y-116654880D01*
X81079062Y-116584115D01*
X81380659Y-116382595D01*
X81582179Y-116080998D01*
X81652944Y-115725240D01*
X81652944Y-117726760D01*
X81582179Y-117371002D01*
X81380659Y-117069405D01*
X81079062Y-116867885D01*
X80723304Y-116797120D01*
X80176696Y-116797120D01*
X79820938Y-116867885D01*
X79519341Y-117069405D01*
X79317821Y-117371002D01*
X79247056Y-117726760D01*
X79317821Y-118082518D01*
X79519341Y-118384115D01*
X79820938Y-118585635D01*
X80176696Y-118656400D01*
X80723304Y-118656400D01*
X81079062Y-118585635D01*
X81380659Y-118384115D01*
X81582179Y-118082518D01*
X81652944Y-117726760D01*
X81652944Y-121198057D01*
X81629830Y-121221171D01*
X81629830Y-120393401D01*
X81629830Y-120262039D01*
X81629830Y-119063159D01*
X81579560Y-118941797D01*
X81486673Y-118848910D01*
X81365311Y-118798640D01*
X81233949Y-118798640D01*
X79534689Y-118798640D01*
X79413327Y-118848910D01*
X79320440Y-118941797D01*
X79270170Y-119063159D01*
X79270170Y-119194521D01*
X79270170Y-120393401D01*
X79320440Y-120514763D01*
X79413327Y-120607650D01*
X79534689Y-120657920D01*
X79666051Y-120657920D01*
X81365311Y-120657920D01*
X81486673Y-120607650D01*
X81579560Y-120514763D01*
X81629830Y-120393401D01*
X81629830Y-121221171D01*
X81261699Y-121589302D01*
X81219394Y-121486916D01*
X81014165Y-121281328D01*
X80745883Y-121169927D01*
X80455392Y-121169674D01*
X80186916Y-121280606D01*
X79981328Y-121485835D01*
X79869927Y-121754117D01*
X79869674Y-122044608D01*
X79980606Y-122313084D01*
X80185835Y-122518672D01*
X80289347Y-122561654D01*
X79835501Y-123015501D01*
X79626271Y-123328634D01*
X79552800Y-123698000D01*
X79552800Y-127072799D01*
X79545883Y-127069927D01*
X79255392Y-127069674D01*
X78986916Y-127180606D01*
X78905200Y-127262179D01*
X78905200Y-110127000D01*
X79083584Y-110127000D01*
X78917990Y-110525795D01*
X78917611Y-110960299D01*
X79083538Y-111361873D01*
X79390511Y-111669382D01*
X79791795Y-111836010D01*
X80226299Y-111836389D01*
X80627873Y-111670462D01*
X80899203Y-111399604D01*
X81168511Y-111669382D01*
X81569795Y-111836010D01*
X82004299Y-111836389D01*
X82405873Y-111670462D01*
X82677203Y-111399604D01*
X82946511Y-111669382D01*
X83347795Y-111836010D01*
X83782299Y-111836389D01*
X84183873Y-111670462D01*
X84491382Y-111363489D01*
X84658010Y-110962205D01*
X84658389Y-110527701D01*
X84492822Y-110127000D01*
X88012324Y-110127000D01*
X88104835Y-110219672D01*
X88373117Y-110331073D01*
X88663608Y-110331326D01*
X88932084Y-110220394D01*
X89025641Y-110127000D01*
X89260539Y-110127000D01*
X89352634Y-110219256D01*
X89637266Y-110337445D01*
X89945460Y-110337714D01*
X90230298Y-110220021D01*
X90323481Y-110127000D01*
X90552023Y-110127000D01*
X90753312Y-110210582D01*
X91061506Y-110210851D01*
X91264440Y-110127000D01*
X97575736Y-110127000D01*
X95160974Y-112541762D01*
X95161224Y-112255392D01*
X95050292Y-111986916D01*
X94845063Y-111781328D01*
X94576781Y-111669927D01*
X94286290Y-111669674D01*
X94017814Y-111780606D01*
X93812226Y-111985835D01*
X93700825Y-112254117D01*
X93700572Y-112544608D01*
X93768255Y-112708414D01*
X93566916Y-112791606D01*
X93361328Y-112996835D01*
X93249927Y-113265117D01*
X93249674Y-113555608D01*
X93360606Y-113824084D01*
X93565835Y-114029672D01*
X93834117Y-114141073D01*
X94124608Y-114141326D01*
X94393084Y-114030394D01*
X94411800Y-114011710D01*
X94411800Y-117182962D01*
X92678326Y-118916436D01*
X92678326Y-114790392D01*
X92567394Y-114521916D01*
X92362165Y-114316328D01*
X92093883Y-114204927D01*
X91803392Y-114204674D01*
X91534916Y-114315606D01*
X91376403Y-114473841D01*
X91219165Y-114316328D01*
X90950883Y-114204927D01*
X90660392Y-114204674D01*
X90391916Y-114315606D01*
X90186328Y-114520835D01*
X90074927Y-114789117D01*
X90074674Y-115079608D01*
X90185606Y-115348084D01*
X90390835Y-115553672D01*
X90659117Y-115665073D01*
X90949608Y-115665326D01*
X91218084Y-115554394D01*
X91376596Y-115396158D01*
X91533835Y-115553672D01*
X91802117Y-115665073D01*
X92092608Y-115665326D01*
X92361084Y-115554394D01*
X92566672Y-115349165D01*
X92678073Y-115080883D01*
X92678326Y-114790392D01*
X92678326Y-118916436D01*
X88989871Y-122604891D01*
X87683909Y-122604891D01*
X87508946Y-122639693D01*
X87360620Y-122738802D01*
X86417711Y-123681711D01*
X86318602Y-123830037D01*
X86283800Y-124005000D01*
X86283800Y-124519644D01*
X86122328Y-124680835D01*
X86010927Y-124949117D01*
X86010674Y-125239608D01*
X86112976Y-125487199D01*
X85886916Y-125580606D01*
X85681328Y-125785835D01*
X85569927Y-126054117D01*
X85569674Y-126344608D01*
X85680606Y-126613084D01*
X85885835Y-126818672D01*
X86154117Y-126930073D01*
X86444608Y-126930326D01*
X86713084Y-126819394D01*
X86918672Y-126614165D01*
X87030073Y-126345883D01*
X87030326Y-126055392D01*
X86928023Y-125807800D01*
X87154084Y-125714394D01*
X87359672Y-125509165D01*
X87471073Y-125240883D01*
X87471326Y-124950392D01*
X87360394Y-124681916D01*
X87198200Y-124519438D01*
X87198200Y-124194378D01*
X87369692Y-124022885D01*
X87369674Y-124044608D01*
X87480606Y-124313084D01*
X87685835Y-124518672D01*
X87835326Y-124580746D01*
X87835326Y-129076934D01*
X87673854Y-129238125D01*
X87562453Y-129506407D01*
X87562200Y-129796898D01*
X87673132Y-130065374D01*
X87878361Y-130270962D01*
X88146643Y-130382363D01*
X88437134Y-130382616D01*
X88705610Y-130271684D01*
X88911198Y-130066455D01*
X89022599Y-129798173D01*
X89022852Y-129507682D01*
X88911920Y-129239206D01*
X88749726Y-129076728D01*
X88749726Y-128417624D01*
X92399891Y-132067789D01*
X92548217Y-132166898D01*
X92723180Y-132201700D01*
X93070922Y-132201700D01*
X92986640Y-132285835D01*
X92875239Y-132554117D01*
X92874986Y-132844608D01*
X92985918Y-133113084D01*
X93191147Y-133318672D01*
X93459429Y-133430073D01*
X93749920Y-133430326D01*
X94018396Y-133319394D01*
X94223984Y-133114165D01*
X94335385Y-132845883D01*
X94335638Y-132555392D01*
X94224706Y-132286916D01*
X94139638Y-132201700D01*
X98684150Y-132201700D01*
X98568328Y-132317320D01*
X98456927Y-132585602D01*
X98456674Y-132876093D01*
X98567606Y-133144569D01*
X98772835Y-133350157D01*
X99041117Y-133461558D01*
X99229972Y-133461722D01*
X98961841Y-133572512D01*
X98756253Y-133777741D01*
X98644852Y-134046023D01*
X98644654Y-134272382D01*
X97758326Y-134272382D01*
X97758326Y-133205392D01*
X97647394Y-132936916D01*
X97442165Y-132731328D01*
X97173883Y-132619927D01*
X96883392Y-132619674D01*
X96614916Y-132730606D01*
X96409328Y-132935835D01*
X96297927Y-133204117D01*
X96297674Y-133494608D01*
X96408606Y-133763084D01*
X96613835Y-133968672D01*
X96882117Y-134080073D01*
X97172608Y-134080326D01*
X97441084Y-133969394D01*
X97646672Y-133764165D01*
X97758073Y-133495883D01*
X97758326Y-133205392D01*
X97758326Y-134272382D01*
X90985619Y-134272382D01*
X90985619Y-131526737D01*
X90874687Y-131258261D01*
X90669458Y-131052673D01*
X90401176Y-130941272D01*
X90110685Y-130941019D01*
X89842209Y-131051951D01*
X89636621Y-131257180D01*
X89525220Y-131525462D01*
X89524967Y-131815953D01*
X89579253Y-131947335D01*
X89308838Y-131947100D01*
X89040362Y-132058032D01*
X88834774Y-132263261D01*
X88723373Y-132531543D01*
X88723120Y-132822034D01*
X88834052Y-133090510D01*
X89039281Y-133296098D01*
X89307563Y-133407499D01*
X89598054Y-133407752D01*
X89866530Y-133296820D01*
X90072118Y-133091591D01*
X90183519Y-132823309D01*
X90183772Y-132532818D01*
X90129485Y-132401435D01*
X90399901Y-132401671D01*
X90668377Y-132290739D01*
X90873965Y-132085510D01*
X90985366Y-131817228D01*
X90985619Y-131526737D01*
X90985619Y-134272382D01*
X89806854Y-134272382D01*
X87943256Y-132408784D01*
X87992117Y-132429073D01*
X88282608Y-132429326D01*
X88551084Y-132318394D01*
X88756672Y-132113165D01*
X88868073Y-131844883D01*
X88868326Y-131554392D01*
X88757394Y-131285916D01*
X88552165Y-131080328D01*
X88283883Y-130968927D01*
X87993392Y-130968674D01*
X87724916Y-131079606D01*
X87519328Y-131284835D01*
X87407927Y-131553117D01*
X87407674Y-131843608D01*
X87428512Y-131894040D01*
X87230326Y-131695854D01*
X87230326Y-128122870D01*
X87119394Y-127854394D01*
X86914165Y-127648806D01*
X86645883Y-127537405D01*
X86355392Y-127537152D01*
X86086916Y-127648084D01*
X85881328Y-127853313D01*
X85769927Y-128121595D01*
X85769674Y-128412086D01*
X85880606Y-128680562D01*
X86085835Y-128886150D01*
X86354117Y-128997551D01*
X86644608Y-128997804D01*
X86913084Y-128886872D01*
X87118672Y-128681643D01*
X87230073Y-128413361D01*
X87230326Y-128122870D01*
X87230326Y-131695854D01*
X83511183Y-127976711D01*
X83362857Y-127877602D01*
X83187894Y-127842800D01*
X83175355Y-127842800D01*
X83014165Y-127681328D01*
X82963803Y-127660415D01*
X83063084Y-127619394D01*
X83268672Y-127414165D01*
X83380073Y-127145883D01*
X83380326Y-126855392D01*
X83269394Y-126586916D01*
X83142939Y-126460240D01*
X83361036Y-126242525D01*
X83480064Y-125955872D01*
X83480101Y-125912928D01*
X83485835Y-125918672D01*
X83754117Y-126030073D01*
X84044608Y-126030326D01*
X84313084Y-125919394D01*
X84518672Y-125714165D01*
X84630073Y-125445883D01*
X84630326Y-125155392D01*
X84519394Y-124886916D01*
X84314165Y-124681328D01*
X84045883Y-124569927D01*
X83755392Y-124569674D01*
X83486916Y-124680606D01*
X83281328Y-124885835D01*
X83169927Y-125154117D01*
X83169916Y-125166403D01*
X83142525Y-125138964D01*
X82855872Y-125019936D01*
X82545489Y-125019665D01*
X82258630Y-125138193D01*
X82038964Y-125357475D01*
X81919936Y-125644128D01*
X81919665Y-125954511D01*
X82038193Y-126241370D01*
X82206998Y-126410471D01*
X82031328Y-126585835D01*
X81919927Y-126854117D01*
X81919674Y-127144608D01*
X82030606Y-127413084D01*
X82235835Y-127618672D01*
X82286196Y-127639584D01*
X82186916Y-127680606D01*
X81981328Y-127885835D01*
X81869927Y-128154117D01*
X81869674Y-128444608D01*
X81980606Y-128713084D01*
X82185835Y-128918672D01*
X82454117Y-129030073D01*
X82520160Y-129030130D01*
X82258630Y-129138193D01*
X82038964Y-129357475D01*
X81919936Y-129644128D01*
X81919665Y-129954511D01*
X82038193Y-130241370D01*
X82257475Y-130461036D01*
X82544128Y-130580064D01*
X82854511Y-130580335D01*
X83141370Y-130461807D01*
X83224946Y-130378376D01*
X83280606Y-130513084D01*
X83485835Y-130718672D01*
X83754117Y-130830073D01*
X84044608Y-130830326D01*
X84294271Y-130727167D01*
X84198165Y-130958616D01*
X84197912Y-131249107D01*
X84308844Y-131517583D01*
X84514073Y-131723171D01*
X84782355Y-131834572D01*
X85072846Y-131834825D01*
X85341322Y-131723893D01*
X85546910Y-131518664D01*
X85609425Y-131368109D01*
X89294187Y-135052871D01*
X89442513Y-135151980D01*
X89617476Y-135186782D01*
X97887966Y-135186782D01*
X97782557Y-135440635D01*
X97782304Y-135731126D01*
X97893236Y-135999602D01*
X98098465Y-136205190D01*
X98366747Y-136316591D01*
X98657238Y-136316844D01*
X98925714Y-136205912D01*
X99131302Y-136000683D01*
X99242703Y-135732401D01*
X99242720Y-135712819D01*
X101091538Y-137561637D01*
X101091538Y-137561637D01*
G37*
X101091538Y-137561637D02*
X100981328Y-137671655D01*
X100869927Y-137939937D01*
X100869674Y-138230428D01*
X100980606Y-138498904D01*
X101076334Y-138594800D01*
X100344171Y-138594800D01*
X100500612Y-138438633D01*
X100612013Y-138170351D01*
X100612266Y-137879860D01*
X100501334Y-137611384D01*
X100296105Y-137405796D01*
X100027823Y-137294395D01*
X99737332Y-137294142D01*
X99468856Y-137405074D01*
X99263268Y-137610303D01*
X99151867Y-137878585D01*
X99151614Y-138169076D01*
X99262546Y-138437552D01*
X99419519Y-138594800D01*
X93081870Y-138594800D01*
X93081870Y-137005834D01*
X92932921Y-136645351D01*
X92657360Y-136369308D01*
X92297137Y-136219731D01*
X91907094Y-136219390D01*
X91546611Y-136368339D01*
X91270568Y-136643900D01*
X91120991Y-137004123D01*
X91120650Y-137394166D01*
X91269599Y-137754649D01*
X91545160Y-138030692D01*
X91905383Y-138180269D01*
X92295426Y-138180610D01*
X92655909Y-138031661D01*
X92931952Y-137756100D01*
X93081529Y-137395877D01*
X93081870Y-137005834D01*
X93081870Y-138594800D01*
X91080350Y-138594800D01*
X91080350Y-137005834D01*
X90931401Y-136645351D01*
X90655840Y-136369308D01*
X90295617Y-136219731D01*
X89905574Y-136219390D01*
X89545091Y-136368339D01*
X89269048Y-136643900D01*
X89119471Y-137004123D01*
X89119130Y-137394166D01*
X89268079Y-137754649D01*
X89543640Y-138030692D01*
X89903863Y-138180269D01*
X90293906Y-138180610D01*
X90654389Y-138031661D01*
X90930432Y-137756100D01*
X91080009Y-137395877D01*
X91080350Y-137005834D01*
X91080350Y-138594800D01*
X89081370Y-138594800D01*
X89081370Y-137005834D01*
X88932421Y-136645351D01*
X88656860Y-136369308D01*
X88296637Y-136219731D01*
X87906594Y-136219390D01*
X87546111Y-136368339D01*
X87270068Y-136643900D01*
X87120491Y-137004123D01*
X87120150Y-137394166D01*
X87269099Y-137754649D01*
X87544660Y-138030692D01*
X87904883Y-138180269D01*
X88294926Y-138180610D01*
X88655409Y-138031661D01*
X88931452Y-137756100D01*
X89081029Y-137395877D01*
X89081370Y-137005834D01*
X89081370Y-138594800D01*
X87079850Y-138594800D01*
X87079850Y-137005834D01*
X86930901Y-136645351D01*
X86655340Y-136369308D01*
X86295117Y-136219731D01*
X85905074Y-136219390D01*
X85630326Y-136332913D01*
X85630326Y-132455392D01*
X85519394Y-132186916D01*
X85314165Y-131981328D01*
X85045883Y-131869927D01*
X84755392Y-131869674D01*
X84486916Y-131980606D01*
X84281328Y-132185835D01*
X84169927Y-132454117D01*
X84169674Y-132744608D01*
X84280606Y-133013084D01*
X84485835Y-133218672D01*
X84754117Y-133330073D01*
X85044608Y-133330326D01*
X85313084Y-133219394D01*
X85518672Y-133014165D01*
X85630073Y-132745883D01*
X85630326Y-132455392D01*
X85630326Y-136332913D01*
X85544591Y-136368339D01*
X85268548Y-136643900D01*
X85118971Y-137004123D01*
X85118630Y-137394166D01*
X85267579Y-137754649D01*
X85543140Y-138030692D01*
X85903363Y-138180269D01*
X86293406Y-138180610D01*
X86653889Y-138031661D01*
X86929932Y-137756100D01*
X87079509Y-137395877D01*
X87079850Y-137005834D01*
X87079850Y-138594800D01*
X85080870Y-138594800D01*
X85080870Y-137005834D01*
X84931921Y-136645351D01*
X84656360Y-136369308D01*
X84296137Y-136219731D01*
X83906094Y-136219390D01*
X83545611Y-136368339D01*
X83269568Y-136643900D01*
X83119991Y-137004123D01*
X83119650Y-137394166D01*
X83268599Y-137754649D01*
X83544160Y-138030692D01*
X83904383Y-138180269D01*
X84294426Y-138180610D01*
X84654909Y-138031661D01*
X84930952Y-137756100D01*
X85080529Y-137395877D01*
X85080870Y-137005834D01*
X85080870Y-138594800D01*
X78905200Y-138594800D01*
X78905200Y-131530073D01*
X79194608Y-131530326D01*
X79463084Y-131419394D01*
X79552800Y-131329834D01*
X79552800Y-133718000D01*
X79626271Y-134087366D01*
X79835501Y-134400499D01*
X81137313Y-135702312D01*
X81134125Y-136966421D01*
X81118471Y-137004123D01*
X81118130Y-137394166D01*
X81267079Y-137754649D01*
X81542640Y-138030692D01*
X81902863Y-138180269D01*
X82292906Y-138180610D01*
X82653389Y-138031661D01*
X82929432Y-137756100D01*
X83079009Y-137395877D01*
X83079350Y-137005834D01*
X83064523Y-136969950D01*
X83068719Y-135306097D01*
X83068480Y-135304879D01*
X83068722Y-135303663D01*
X83068722Y-135303522D01*
X83030135Y-135109534D01*
X82996180Y-134936547D01*
X82995532Y-134935573D01*
X82995251Y-134934156D01*
X82874155Y-134752924D01*
X82874049Y-134752765D01*
X82787740Y-134622887D01*
X82786882Y-134622310D01*
X82786022Y-134621023D01*
X81483200Y-133318201D01*
X81483200Y-127800000D01*
X81483200Y-124097798D01*
X86886798Y-118694200D01*
X88169892Y-118694200D01*
X88169674Y-118944608D01*
X88280606Y-119213084D01*
X88485835Y-119418672D01*
X88754117Y-119530073D01*
X89044608Y-119530326D01*
X89069869Y-119519888D01*
X89069674Y-119744608D01*
X89180606Y-120013084D01*
X89385835Y-120218672D01*
X89654117Y-120330073D01*
X89944608Y-120330326D01*
X90213084Y-120219394D01*
X90418672Y-120014165D01*
X90530073Y-119745883D01*
X90530326Y-119455392D01*
X90419394Y-119186916D01*
X90214165Y-118981328D01*
X89945883Y-118869927D01*
X89655392Y-118869674D01*
X89630130Y-118880111D01*
X89630326Y-118655392D01*
X89547700Y-118455421D01*
X89547700Y-118434751D01*
X89582499Y-118411499D01*
X89791729Y-118098366D01*
X89865200Y-117729000D01*
X89791729Y-117359634D01*
X89582499Y-117046501D01*
X89269366Y-116837271D01*
X88900000Y-116763800D01*
X86709326Y-116763800D01*
X86709326Y-114790392D01*
X86598394Y-114521916D01*
X86393165Y-114316328D01*
X86124883Y-114204927D01*
X85834392Y-114204674D01*
X85565916Y-114315606D01*
X85360328Y-114520835D01*
X85248927Y-114789117D01*
X85248674Y-115079608D01*
X85359606Y-115348084D01*
X85564835Y-115553672D01*
X85833117Y-115665073D01*
X86123608Y-115665326D01*
X86392084Y-115554394D01*
X86597672Y-115349165D01*
X86709073Y-115080883D01*
X86709326Y-114790392D01*
X86709326Y-116763800D01*
X86487000Y-116763800D01*
X86117634Y-116837271D01*
X85804501Y-117046500D01*
X82530326Y-120320675D01*
X82530326Y-112655392D01*
X82419394Y-112386916D01*
X82214165Y-112181328D01*
X81945883Y-112069927D01*
X81655392Y-112069674D01*
X81386916Y-112180606D01*
X81181328Y-112385835D01*
X81069927Y-112654117D01*
X81069742Y-112865531D01*
X80723304Y-112796620D01*
X80176696Y-112796620D01*
X79820938Y-112867385D01*
X79519341Y-113068905D01*
X79317821Y-113370502D01*
X79247056Y-113726260D01*
X79317821Y-114082018D01*
X79519341Y-114383615D01*
X79820938Y-114585135D01*
X80176696Y-114655900D01*
X80723304Y-114655900D01*
X81079062Y-114585135D01*
X81380659Y-114383615D01*
X81582179Y-114082018D01*
X81652944Y-113726260D01*
X81610300Y-113511878D01*
X81654117Y-113530073D01*
X81944608Y-113530326D01*
X82213084Y-113419394D01*
X82418672Y-113214165D01*
X82530073Y-112945883D01*
X82530326Y-112655392D01*
X82530326Y-120320675D01*
X81652944Y-121198057D01*
X81652944Y-117726760D01*
X81652944Y-115725240D01*
X81582179Y-115369482D01*
X81380659Y-115067885D01*
X81079062Y-114866365D01*
X80723304Y-114795600D01*
X80176696Y-114795600D01*
X79820938Y-114866365D01*
X79519341Y-115067885D01*
X79317821Y-115369482D01*
X79247056Y-115725240D01*
X79317821Y-116080998D01*
X79519341Y-116382595D01*
X79820938Y-116584115D01*
X80176696Y-116654880D01*
X80723304Y-116654880D01*
X81079062Y-116584115D01*
X81380659Y-116382595D01*
X81582179Y-116080998D01*
X81652944Y-115725240D01*
X81652944Y-117726760D01*
X81582179Y-117371002D01*
X81380659Y-117069405D01*
X81079062Y-116867885D01*
X80723304Y-116797120D01*
X80176696Y-116797120D01*
X79820938Y-116867885D01*
X79519341Y-117069405D01*
X79317821Y-117371002D01*
X79247056Y-117726760D01*
X79317821Y-118082518D01*
X79519341Y-118384115D01*
X79820938Y-118585635D01*
X80176696Y-118656400D01*
X80723304Y-118656400D01*
X81079062Y-118585635D01*
X81380659Y-118384115D01*
X81582179Y-118082518D01*
X81652944Y-117726760D01*
X81652944Y-121198057D01*
X81629830Y-121221171D01*
X81629830Y-120393401D01*
X81629830Y-120262039D01*
X81629830Y-119063159D01*
X81579560Y-118941797D01*
X81486673Y-118848910D01*
X81365311Y-118798640D01*
X81233949Y-118798640D01*
X79534689Y-118798640D01*
X79413327Y-118848910D01*
X79320440Y-118941797D01*
X79270170Y-119063159D01*
X79270170Y-119194521D01*
X79270170Y-120393401D01*
X79320440Y-120514763D01*
X79413327Y-120607650D01*
X79534689Y-120657920D01*
X79666051Y-120657920D01*
X81365311Y-120657920D01*
X81486673Y-120607650D01*
X81579560Y-120514763D01*
X81629830Y-120393401D01*
X81629830Y-121221171D01*
X81261699Y-121589302D01*
X81219394Y-121486916D01*
X81014165Y-121281328D01*
X80745883Y-121169927D01*
X80455392Y-121169674D01*
X80186916Y-121280606D01*
X79981328Y-121485835D01*
X79869927Y-121754117D01*
X79869674Y-122044608D01*
X79980606Y-122313084D01*
X80185835Y-122518672D01*
X80289347Y-122561654D01*
X79835501Y-123015501D01*
X79626271Y-123328634D01*
X79552800Y-123698000D01*
X79552800Y-127072799D01*
X79545883Y-127069927D01*
X79255392Y-127069674D01*
X78986916Y-127180606D01*
X78905200Y-127262179D01*
X78905200Y-110127000D01*
X79083584Y-110127000D01*
X78917990Y-110525795D01*
X78917611Y-110960299D01*
X79083538Y-111361873D01*
X79390511Y-111669382D01*
X79791795Y-111836010D01*
X80226299Y-111836389D01*
X80627873Y-111670462D01*
X80899203Y-111399604D01*
X81168511Y-111669382D01*
X81569795Y-111836010D01*
X82004299Y-111836389D01*
X82405873Y-111670462D01*
X82677203Y-111399604D01*
X82946511Y-111669382D01*
X83347795Y-111836010D01*
X83782299Y-111836389D01*
X84183873Y-111670462D01*
X84491382Y-111363489D01*
X84658010Y-110962205D01*
X84658389Y-110527701D01*
X84492822Y-110127000D01*
X88012324Y-110127000D01*
X88104835Y-110219672D01*
X88373117Y-110331073D01*
X88663608Y-110331326D01*
X88932084Y-110220394D01*
X89025641Y-110127000D01*
X89260539Y-110127000D01*
X89352634Y-110219256D01*
X89637266Y-110337445D01*
X89945460Y-110337714D01*
X90230298Y-110220021D01*
X90323481Y-110127000D01*
X90552023Y-110127000D01*
X90753312Y-110210582D01*
X91061506Y-110210851D01*
X91264440Y-110127000D01*
X97575736Y-110127000D01*
X95160974Y-112541762D01*
X95161224Y-112255392D01*
X95050292Y-111986916D01*
X94845063Y-111781328D01*
X94576781Y-111669927D01*
X94286290Y-111669674D01*
X94017814Y-111780606D01*
X93812226Y-111985835D01*
X93700825Y-112254117D01*
X93700572Y-112544608D01*
X93768255Y-112708414D01*
X93566916Y-112791606D01*
X93361328Y-112996835D01*
X93249927Y-113265117D01*
X93249674Y-113555608D01*
X93360606Y-113824084D01*
X93565835Y-114029672D01*
X93834117Y-114141073D01*
X94124608Y-114141326D01*
X94393084Y-114030394D01*
X94411800Y-114011710D01*
X94411800Y-117182962D01*
X92678326Y-118916436D01*
X92678326Y-114790392D01*
X92567394Y-114521916D01*
X92362165Y-114316328D01*
X92093883Y-114204927D01*
X91803392Y-114204674D01*
X91534916Y-114315606D01*
X91376403Y-114473841D01*
X91219165Y-114316328D01*
X90950883Y-114204927D01*
X90660392Y-114204674D01*
X90391916Y-114315606D01*
X90186328Y-114520835D01*
X90074927Y-114789117D01*
X90074674Y-115079608D01*
X90185606Y-115348084D01*
X90390835Y-115553672D01*
X90659117Y-115665073D01*
X90949608Y-115665326D01*
X91218084Y-115554394D01*
X91376596Y-115396158D01*
X91533835Y-115553672D01*
X91802117Y-115665073D01*
X92092608Y-115665326D01*
X92361084Y-115554394D01*
X92566672Y-115349165D01*
X92678073Y-115080883D01*
X92678326Y-114790392D01*
X92678326Y-118916436D01*
X88989871Y-122604891D01*
X87683909Y-122604891D01*
X87508946Y-122639693D01*
X87360620Y-122738802D01*
X86417711Y-123681711D01*
X86318602Y-123830037D01*
X86283800Y-124005000D01*
X86283800Y-124519644D01*
X86122328Y-124680835D01*
X86010927Y-124949117D01*
X86010674Y-125239608D01*
X86112976Y-125487199D01*
X85886916Y-125580606D01*
X85681328Y-125785835D01*
X85569927Y-126054117D01*
X85569674Y-126344608D01*
X85680606Y-126613084D01*
X85885835Y-126818672D01*
X86154117Y-126930073D01*
X86444608Y-126930326D01*
X86713084Y-126819394D01*
X86918672Y-126614165D01*
X87030073Y-126345883D01*
X87030326Y-126055392D01*
X86928023Y-125807800D01*
X87154084Y-125714394D01*
X87359672Y-125509165D01*
X87471073Y-125240883D01*
X87471326Y-124950392D01*
X87360394Y-124681916D01*
X87198200Y-124519438D01*
X87198200Y-124194378D01*
X87369692Y-124022885D01*
X87369674Y-124044608D01*
X87480606Y-124313084D01*
X87685835Y-124518672D01*
X87835326Y-124580746D01*
X87835326Y-129076934D01*
X87673854Y-129238125D01*
X87562453Y-129506407D01*
X87562200Y-129796898D01*
X87673132Y-130065374D01*
X87878361Y-130270962D01*
X88146643Y-130382363D01*
X88437134Y-130382616D01*
X88705610Y-130271684D01*
X88911198Y-130066455D01*
X89022599Y-129798173D01*
X89022852Y-129507682D01*
X88911920Y-129239206D01*
X88749726Y-129076728D01*
X88749726Y-128417624D01*
X92399891Y-132067789D01*
X92548217Y-132166898D01*
X92723180Y-132201700D01*
X93070922Y-132201700D01*
X92986640Y-132285835D01*
X92875239Y-132554117D01*
X92874986Y-132844608D01*
X92985918Y-133113084D01*
X93191147Y-133318672D01*
X93459429Y-133430073D01*
X93749920Y-133430326D01*
X94018396Y-133319394D01*
X94223984Y-133114165D01*
X94335385Y-132845883D01*
X94335638Y-132555392D01*
X94224706Y-132286916D01*
X94139638Y-132201700D01*
X98684150Y-132201700D01*
X98568328Y-132317320D01*
X98456927Y-132585602D01*
X98456674Y-132876093D01*
X98567606Y-133144569D01*
X98772835Y-133350157D01*
X99041117Y-133461558D01*
X99229972Y-133461722D01*
X98961841Y-133572512D01*
X98756253Y-133777741D01*
X98644852Y-134046023D01*
X98644654Y-134272382D01*
X97758326Y-134272382D01*
X97758326Y-133205392D01*
X97647394Y-132936916D01*
X97442165Y-132731328D01*
X97173883Y-132619927D01*
X96883392Y-132619674D01*
X96614916Y-132730606D01*
X96409328Y-132935835D01*
X96297927Y-133204117D01*
X96297674Y-133494608D01*
X96408606Y-133763084D01*
X96613835Y-133968672D01*
X96882117Y-134080073D01*
X97172608Y-134080326D01*
X97441084Y-133969394D01*
X97646672Y-133764165D01*
X97758073Y-133495883D01*
X97758326Y-133205392D01*
X97758326Y-134272382D01*
X90985619Y-134272382D01*
X90985619Y-131526737D01*
X90874687Y-131258261D01*
X90669458Y-131052673D01*
X90401176Y-130941272D01*
X90110685Y-130941019D01*
X89842209Y-131051951D01*
X89636621Y-131257180D01*
X89525220Y-131525462D01*
X89524967Y-131815953D01*
X89579253Y-131947335D01*
X89308838Y-131947100D01*
X89040362Y-132058032D01*
X88834774Y-132263261D01*
X88723373Y-132531543D01*
X88723120Y-132822034D01*
X88834052Y-133090510D01*
X89039281Y-133296098D01*
X89307563Y-133407499D01*
X89598054Y-133407752D01*
X89866530Y-133296820D01*
X90072118Y-133091591D01*
X90183519Y-132823309D01*
X90183772Y-132532818D01*
X90129485Y-132401435D01*
X90399901Y-132401671D01*
X90668377Y-132290739D01*
X90873965Y-132085510D01*
X90985366Y-131817228D01*
X90985619Y-131526737D01*
X90985619Y-134272382D01*
X89806854Y-134272382D01*
X87943256Y-132408784D01*
X87992117Y-132429073D01*
X88282608Y-132429326D01*
X88551084Y-132318394D01*
X88756672Y-132113165D01*
X88868073Y-131844883D01*
X88868326Y-131554392D01*
X88757394Y-131285916D01*
X88552165Y-131080328D01*
X88283883Y-130968927D01*
X87993392Y-130968674D01*
X87724916Y-131079606D01*
X87519328Y-131284835D01*
X87407927Y-131553117D01*
X87407674Y-131843608D01*
X87428512Y-131894040D01*
X87230326Y-131695854D01*
X87230326Y-128122870D01*
X87119394Y-127854394D01*
X86914165Y-127648806D01*
X86645883Y-127537405D01*
X86355392Y-127537152D01*
X86086916Y-127648084D01*
X85881328Y-127853313D01*
X85769927Y-128121595D01*
X85769674Y-128412086D01*
X85880606Y-128680562D01*
X86085835Y-128886150D01*
X86354117Y-128997551D01*
X86644608Y-128997804D01*
X86913084Y-128886872D01*
X87118672Y-128681643D01*
X87230073Y-128413361D01*
X87230326Y-128122870D01*
X87230326Y-131695854D01*
X83511183Y-127976711D01*
X83362857Y-127877602D01*
X83187894Y-127842800D01*
X83175355Y-127842800D01*
X83014165Y-127681328D01*
X82963803Y-127660415D01*
X83063084Y-127619394D01*
X83268672Y-127414165D01*
X83380073Y-127145883D01*
X83380326Y-126855392D01*
X83269394Y-126586916D01*
X83142939Y-126460240D01*
X83361036Y-126242525D01*
X83480064Y-125955872D01*
X83480101Y-125912928D01*
X83485835Y-125918672D01*
X83754117Y-126030073D01*
X84044608Y-126030326D01*
X84313084Y-125919394D01*
X84518672Y-125714165D01*
X84630073Y-125445883D01*
X84630326Y-125155392D01*
X84519394Y-124886916D01*
X84314165Y-124681328D01*
X84045883Y-124569927D01*
X83755392Y-124569674D01*
X83486916Y-124680606D01*
X83281328Y-124885835D01*
X83169927Y-125154117D01*
X83169916Y-125166403D01*
X83142525Y-125138964D01*
X82855872Y-125019936D01*
X82545489Y-125019665D01*
X82258630Y-125138193D01*
X82038964Y-125357475D01*
X81919936Y-125644128D01*
X81919665Y-125954511D01*
X82038193Y-126241370D01*
X82206998Y-126410471D01*
X82031328Y-126585835D01*
X81919927Y-126854117D01*
X81919674Y-127144608D01*
X82030606Y-127413084D01*
X82235835Y-127618672D01*
X82286196Y-127639584D01*
X82186916Y-127680606D01*
X81981328Y-127885835D01*
X81869927Y-128154117D01*
X81869674Y-128444608D01*
X81980606Y-128713084D01*
X82185835Y-128918672D01*
X82454117Y-129030073D01*
X82520160Y-129030130D01*
X82258630Y-129138193D01*
X82038964Y-129357475D01*
X81919936Y-129644128D01*
X81919665Y-129954511D01*
X82038193Y-130241370D01*
X82257475Y-130461036D01*
X82544128Y-130580064D01*
X82854511Y-130580335D01*
X83141370Y-130461807D01*
X83224946Y-130378376D01*
X83280606Y-130513084D01*
X83485835Y-130718672D01*
X83754117Y-130830073D01*
X84044608Y-130830326D01*
X84294271Y-130727167D01*
X84198165Y-130958616D01*
X84197912Y-131249107D01*
X84308844Y-131517583D01*
X84514073Y-131723171D01*
X84782355Y-131834572D01*
X85072846Y-131834825D01*
X85341322Y-131723893D01*
X85546910Y-131518664D01*
X85609425Y-131368109D01*
X89294187Y-135052871D01*
X89442513Y-135151980D01*
X89617476Y-135186782D01*
X97887966Y-135186782D01*
X97782557Y-135440635D01*
X97782304Y-135731126D01*
X97893236Y-135999602D01*
X98098465Y-136205190D01*
X98366747Y-136316591D01*
X98657238Y-136316844D01*
X98925714Y-136205912D01*
X99131302Y-136000683D01*
X99242703Y-135732401D01*
X99242720Y-135712819D01*
X101091538Y-137561637D01*
G36*
X108162407Y-125169673D02*
X104884281Y-128447800D01*
X104105783Y-128447800D01*
X104250672Y-128303165D01*
X104310704Y-128158591D01*
X104502117Y-128238073D01*
X104792608Y-128238326D01*
X105061084Y-128127394D01*
X105266672Y-127922165D01*
X105378073Y-127653883D01*
X105378326Y-127363392D01*
X105372494Y-127349277D01*
X105427608Y-127349326D01*
X105696084Y-127238394D01*
X105901672Y-127033165D01*
X106013073Y-126764883D01*
X106013272Y-126535305D01*
X106495289Y-126053289D01*
X106594398Y-125904963D01*
X106629200Y-125730000D01*
X106629200Y-125284378D01*
X107077944Y-124835633D01*
X107130606Y-124963084D01*
X107335835Y-125168672D01*
X107604117Y-125280073D01*
X107894608Y-125280326D01*
X108162407Y-125169673D01*
X108162407Y-125169673D01*
G37*
X108162407Y-125169673D02*
X104884281Y-128447800D01*
X104105783Y-128447800D01*
X104250672Y-128303165D01*
X104310704Y-128158591D01*
X104502117Y-128238073D01*
X104792608Y-128238326D01*
X105061084Y-128127394D01*
X105266672Y-127922165D01*
X105378073Y-127653883D01*
X105378326Y-127363392D01*
X105372494Y-127349277D01*
X105427608Y-127349326D01*
X105696084Y-127238394D01*
X105901672Y-127033165D01*
X106013073Y-126764883D01*
X106013272Y-126535305D01*
X106495289Y-126053289D01*
X106594398Y-125904963D01*
X106629200Y-125730000D01*
X106629200Y-125284378D01*
X107077944Y-124835633D01*
X107130606Y-124963084D01*
X107335835Y-125168672D01*
X107604117Y-125280073D01*
X107894608Y-125280326D01*
X108162407Y-125169673D01*
G36*
X116594800Y-138594800D02*
X115280610Y-138594800D01*
X115280610Y-132061094D01*
X115280610Y-130059574D01*
X115131661Y-129699091D01*
X114856100Y-129423048D01*
X114495877Y-129273471D01*
X114105834Y-129273130D01*
X113819658Y-129391375D01*
X113880073Y-129245883D01*
X113880163Y-129142033D01*
X114104123Y-129235029D01*
X114494166Y-129235370D01*
X114854649Y-129086421D01*
X115130692Y-128810860D01*
X115280269Y-128450637D01*
X115280610Y-128060594D01*
X115280610Y-126059074D01*
X115280610Y-124060094D01*
X115205097Y-123877339D01*
X115205097Y-122077240D01*
X115069039Y-121744234D01*
X115064097Y-121736836D01*
X114929055Y-121668586D01*
X114884154Y-121713487D01*
X114884154Y-121623685D01*
X114815904Y-121488643D01*
X114484225Y-121349379D01*
X114124500Y-121347643D01*
X113791494Y-121483701D01*
X113784096Y-121488643D01*
X113715846Y-121623685D01*
X114300000Y-122207839D01*
X114884154Y-121623685D01*
X114884154Y-121713487D01*
X114344901Y-122252740D01*
X114929055Y-122836894D01*
X115064097Y-122768644D01*
X115203361Y-122436965D01*
X115205097Y-122077240D01*
X115205097Y-123877339D01*
X115131661Y-123699611D01*
X114884154Y-123451671D01*
X114884154Y-122881795D01*
X114300000Y-122297641D01*
X113715846Y-122881795D01*
X113784096Y-123016837D01*
X114115775Y-123156101D01*
X114475500Y-123157837D01*
X114808506Y-123021779D01*
X114815904Y-123016837D01*
X114884154Y-122881795D01*
X114884154Y-123451671D01*
X114856100Y-123423568D01*
X114495877Y-123273991D01*
X114105834Y-123273650D01*
X113745351Y-123422599D01*
X113469308Y-123698160D01*
X113319731Y-124058383D01*
X113319390Y-124448426D01*
X113468339Y-124808909D01*
X113743900Y-125084952D01*
X114104123Y-125234529D01*
X114494166Y-125234870D01*
X114854649Y-125085921D01*
X115130692Y-124810360D01*
X115280269Y-124450137D01*
X115280610Y-124060094D01*
X115280610Y-126059074D01*
X115131661Y-125698591D01*
X114856100Y-125422548D01*
X114495877Y-125272971D01*
X114105834Y-125272630D01*
X113745351Y-125421579D01*
X113469308Y-125697140D01*
X113319731Y-126057363D01*
X113319390Y-126447406D01*
X113468339Y-126807889D01*
X113743900Y-127083932D01*
X114104123Y-127233509D01*
X114494166Y-127233850D01*
X114854649Y-127084901D01*
X115130692Y-126809340D01*
X115280269Y-126449117D01*
X115280610Y-126059074D01*
X115280610Y-128060594D01*
X115131661Y-127700111D01*
X114856100Y-127424068D01*
X114495877Y-127274491D01*
X114105834Y-127274150D01*
X113745351Y-127423099D01*
X113469308Y-127698660D01*
X113319731Y-128058883D01*
X113319450Y-128379713D01*
X113295883Y-128369927D01*
X113005392Y-128369674D01*
X112736916Y-128480606D01*
X112531328Y-128685835D01*
X112419927Y-128954117D01*
X112419674Y-129244608D01*
X112530606Y-129513084D01*
X112735835Y-129718672D01*
X113004117Y-129830073D01*
X113294608Y-129830326D01*
X113438982Y-129770671D01*
X113319731Y-130057863D01*
X113319390Y-130447906D01*
X113468339Y-130808389D01*
X113743900Y-131084432D01*
X114104123Y-131234009D01*
X114494166Y-131234350D01*
X114854649Y-131085401D01*
X115130692Y-130809840D01*
X115280269Y-130449617D01*
X115280610Y-130059574D01*
X115280610Y-132061094D01*
X115131661Y-131700611D01*
X114856100Y-131424568D01*
X114495877Y-131274991D01*
X114105834Y-131274650D01*
X113745351Y-131423599D01*
X113469308Y-131699160D01*
X113319731Y-132059383D01*
X113319390Y-132449426D01*
X113468339Y-132809909D01*
X113743900Y-133085952D01*
X114104123Y-133235529D01*
X114494166Y-133235870D01*
X114854649Y-133086921D01*
X115130692Y-132811360D01*
X115280269Y-132451137D01*
X115280610Y-132061094D01*
X115280610Y-138594800D01*
X104155691Y-138594800D01*
X104250672Y-138499985D01*
X104362073Y-138231703D01*
X104362326Y-137941212D01*
X104251394Y-137672736D01*
X104089200Y-137510258D01*
X104089200Y-136564120D01*
X104090887Y-136565248D01*
X104265850Y-136600050D01*
X105216794Y-136600050D01*
X105377985Y-136761522D01*
X105646267Y-136872923D01*
X105936758Y-136873176D01*
X106059541Y-136822443D01*
X106074553Y-136897914D01*
X106173662Y-137046240D01*
X106330872Y-137203450D01*
X106330674Y-137431608D01*
X106441606Y-137700084D01*
X106646835Y-137905672D01*
X106915117Y-138017073D01*
X107205608Y-138017326D01*
X107474084Y-137906394D01*
X107679672Y-137701165D01*
X107710836Y-137626112D01*
X107939698Y-137968628D01*
X108294033Y-138205387D01*
X108712000Y-138288526D01*
X109129967Y-138205387D01*
X109484302Y-137968628D01*
X109721061Y-137614293D01*
X109804200Y-137196326D01*
X109804200Y-135780073D01*
X110094608Y-135780326D01*
X110159800Y-135753389D01*
X110159800Y-137196326D01*
X110242939Y-137614293D01*
X110479698Y-137968628D01*
X110834033Y-138205387D01*
X111252000Y-138288526D01*
X111669967Y-138205387D01*
X112024302Y-137968628D01*
X112261061Y-137614293D01*
X112344200Y-137196326D01*
X112344200Y-135905193D01*
X112404117Y-135930073D01*
X112694608Y-135930326D01*
X112699800Y-135928180D01*
X112699800Y-137196326D01*
X112782939Y-137614293D01*
X113019698Y-137968628D01*
X113374033Y-138205387D01*
X113792000Y-138288526D01*
X114209967Y-138205387D01*
X114564302Y-137968628D01*
X114801061Y-137614293D01*
X114884200Y-137196326D01*
X114884200Y-135599674D01*
X114801061Y-135181707D01*
X114564302Y-134827372D01*
X114209967Y-134590613D01*
X113792000Y-134507474D01*
X113374033Y-134590613D01*
X113133723Y-134751182D01*
X112964165Y-134581328D01*
X112695883Y-134469927D01*
X112405392Y-134469674D01*
X112136916Y-134580606D01*
X111943681Y-134773503D01*
X111669967Y-134590613D01*
X111252000Y-134507474D01*
X110834033Y-134590613D01*
X110611656Y-134739199D01*
X110569394Y-134636916D01*
X110364165Y-134431328D01*
X110095883Y-134319927D01*
X109805392Y-134319674D01*
X109536916Y-134430606D01*
X109331328Y-134635835D01*
X109302293Y-134705757D01*
X109129967Y-134590613D01*
X108712000Y-134507474D01*
X108680326Y-134513774D01*
X108680326Y-130665392D01*
X108569394Y-130396916D01*
X108364165Y-130191328D01*
X108095883Y-130079927D01*
X107805392Y-130079674D01*
X107536916Y-130190606D01*
X107331328Y-130395835D01*
X107219927Y-130664117D01*
X107219674Y-130954608D01*
X107330606Y-131223084D01*
X107535835Y-131428672D01*
X107804117Y-131540073D01*
X108094608Y-131540326D01*
X108363084Y-131429394D01*
X108568672Y-131224165D01*
X108680073Y-130955883D01*
X108680326Y-130665392D01*
X108680326Y-134513774D01*
X108294033Y-134590613D01*
X107939698Y-134827372D01*
X107702939Y-135181707D01*
X107619800Y-135599674D01*
X107619800Y-136813216D01*
X107475165Y-136668328D01*
X107206883Y-136556927D01*
X106977305Y-136556727D01*
X106954151Y-136533573D01*
X106954151Y-135833951D01*
X106919349Y-135658988D01*
X106820241Y-135510662D01*
X106117210Y-134807632D01*
X105968884Y-134708523D01*
X105793921Y-134673721D01*
X104053970Y-134673721D01*
X102843822Y-133463573D01*
X103105117Y-133572073D01*
X103395608Y-133572326D01*
X103664084Y-133461394D01*
X103869672Y-133256165D01*
X103981073Y-132987883D01*
X103981326Y-132697392D01*
X103870394Y-132428916D01*
X103665165Y-132223328D01*
X103396883Y-132111927D01*
X103106392Y-132111674D01*
X102837916Y-132222606D01*
X102632328Y-132427835D01*
X102520927Y-132696117D01*
X102520674Y-132986608D01*
X102628981Y-133248732D01*
X99937848Y-130557599D01*
X99789522Y-130458490D01*
X99614559Y-130423688D01*
X99106241Y-130423688D01*
X99180073Y-130245883D01*
X99180326Y-129955392D01*
X99069394Y-129686916D01*
X98864165Y-129481328D01*
X98595883Y-129369927D01*
X98305392Y-129369674D01*
X98036916Y-129480606D01*
X97831328Y-129685835D01*
X97719927Y-129954117D01*
X97719674Y-130244608D01*
X97793668Y-130423688D01*
X97250326Y-130423688D01*
X97250326Y-129268392D01*
X97139394Y-128999916D01*
X96934165Y-128794328D01*
X96665883Y-128682927D01*
X96375392Y-128682674D01*
X96106916Y-128793606D01*
X95901328Y-128998835D01*
X95789927Y-129267117D01*
X95789674Y-129557608D01*
X95900606Y-129826084D01*
X96105835Y-130031672D01*
X96374117Y-130143073D01*
X96664608Y-130143326D01*
X96933084Y-130032394D01*
X97138672Y-129827165D01*
X97250073Y-129558883D01*
X97250326Y-129268392D01*
X97250326Y-130423688D01*
X94589724Y-130423688D01*
X94589724Y-129224925D01*
X94478792Y-128956449D01*
X94273563Y-128750861D01*
X94051111Y-128658490D01*
X94051329Y-128408686D01*
X93940397Y-128140210D01*
X93735168Y-127934622D01*
X93466886Y-127823221D01*
X93176395Y-127822968D01*
X92907919Y-127933900D01*
X92702331Y-128139129D01*
X92590930Y-128407411D01*
X92590677Y-128697902D01*
X92701609Y-128966378D01*
X92906838Y-129171966D01*
X93129289Y-129264336D01*
X93129072Y-129514141D01*
X93240004Y-129782617D01*
X93445233Y-129988205D01*
X93713515Y-130099606D01*
X94004006Y-130099859D01*
X94272482Y-129988927D01*
X94478070Y-129783698D01*
X94589471Y-129515416D01*
X94589724Y-129224925D01*
X94589724Y-130423688D01*
X93270275Y-130423688D01*
X91757200Y-128910612D01*
X91757200Y-128825355D01*
X91918672Y-128664165D01*
X92030073Y-128395883D01*
X92030326Y-128105392D01*
X91919394Y-127836916D01*
X91839817Y-127757200D01*
X91900000Y-127757200D01*
X92074963Y-127722398D01*
X92223289Y-127623289D01*
X92517261Y-127329316D01*
X92523289Y-127325289D01*
X93788378Y-126060200D01*
X96857182Y-126060200D01*
X96731328Y-126185835D01*
X96619927Y-126454117D01*
X96619674Y-126744608D01*
X96696104Y-126929584D01*
X96487916Y-127015606D01*
X96282328Y-127220835D01*
X96170927Y-127489117D01*
X96170674Y-127779608D01*
X96281606Y-128048084D01*
X96486835Y-128253672D01*
X96755117Y-128365073D01*
X97045608Y-128365326D01*
X97314084Y-128254394D01*
X97440813Y-128127886D01*
X97440674Y-128287608D01*
X97551606Y-128556084D01*
X97756835Y-128761672D01*
X98025117Y-128873073D01*
X98315608Y-128873326D01*
X98584084Y-128762394D01*
X98789672Y-128557165D01*
X98901073Y-128288883D01*
X98901326Y-127998392D01*
X98790394Y-127729916D01*
X98585165Y-127524328D01*
X98316883Y-127412927D01*
X98026392Y-127412674D01*
X97757916Y-127523606D01*
X97631186Y-127650113D01*
X97631326Y-127490392D01*
X97554895Y-127305415D01*
X97763084Y-127219394D01*
X97968672Y-127014165D01*
X98080073Y-126745883D01*
X98080310Y-126473481D01*
X98119914Y-126517925D01*
X98119674Y-126794608D01*
X98230606Y-127063084D01*
X98435835Y-127268672D01*
X98704117Y-127380073D01*
X98994608Y-127380326D01*
X99263084Y-127269394D01*
X99468672Y-127064165D01*
X99580073Y-126795883D01*
X99580326Y-126505392D01*
X99469394Y-126236916D01*
X99264165Y-126031328D01*
X98995883Y-125919927D01*
X98811666Y-125919766D01*
X98258338Y-125298828D01*
X98247694Y-125290794D01*
X98240289Y-125279711D01*
X98176856Y-125237326D01*
X98115953Y-125191357D01*
X98103047Y-125188008D01*
X98091963Y-125180602D01*
X98017131Y-125165717D01*
X97943280Y-125146556D01*
X97930076Y-125148400D01*
X97917000Y-125145800D01*
X97758326Y-125145800D01*
X97758326Y-122918392D01*
X97647394Y-122649916D01*
X97442165Y-122444328D01*
X97173883Y-122332927D01*
X96883392Y-122332674D01*
X96614916Y-122443606D01*
X96409328Y-122648835D01*
X96297927Y-122917117D01*
X96297674Y-123207608D01*
X96408606Y-123476084D01*
X96613835Y-123681672D01*
X96882117Y-123793073D01*
X97172608Y-123793326D01*
X97441084Y-123682394D01*
X97646672Y-123477165D01*
X97758073Y-123208883D01*
X97758326Y-122918392D01*
X97758326Y-125145800D01*
X93599000Y-125145800D01*
X93492311Y-125167021D01*
X93563375Y-124995883D01*
X93563628Y-124705392D01*
X93452696Y-124436916D01*
X93247467Y-124231328D01*
X92979185Y-124119927D01*
X92688694Y-124119674D01*
X92420218Y-124230606D01*
X92214630Y-124435835D01*
X92170238Y-124542740D01*
X92170326Y-124442392D01*
X92059394Y-124173916D01*
X91854165Y-123968328D01*
X91840125Y-123962498D01*
X91930073Y-123745883D01*
X91930326Y-123455392D01*
X91913428Y-123414496D01*
X91967826Y-123414544D01*
X92236302Y-123303612D01*
X92441890Y-123098383D01*
X92553291Y-122830101D01*
X92553544Y-122539610D01*
X92442612Y-122271134D01*
X92237383Y-122065546D01*
X91969101Y-121954145D01*
X91798581Y-121953996D01*
X92919814Y-120832763D01*
X92919674Y-120994608D01*
X93030606Y-121263084D01*
X93235835Y-121468672D01*
X93504117Y-121580073D01*
X93794608Y-121580326D01*
X94063084Y-121469394D01*
X94268672Y-121264165D01*
X94302079Y-121183712D01*
X94469117Y-121253073D01*
X94759608Y-121253326D01*
X95028084Y-121142394D01*
X95233672Y-120937165D01*
X95345073Y-120668883D01*
X95345326Y-120378392D01*
X95234394Y-120109916D01*
X95029165Y-119904328D01*
X94760883Y-119792927D01*
X94470392Y-119792674D01*
X94201916Y-119903606D01*
X93996328Y-120108835D01*
X93962920Y-120189287D01*
X93795883Y-120119927D01*
X93632793Y-120119784D01*
X95700289Y-118052289D01*
X95719823Y-118023053D01*
X95719674Y-118194608D01*
X95830606Y-118463084D01*
X96035835Y-118668672D01*
X96304117Y-118780073D01*
X96594608Y-118780326D01*
X96863084Y-118669394D01*
X97068672Y-118464165D01*
X97180073Y-118195883D01*
X97180326Y-117905392D01*
X97069394Y-117636916D01*
X96932658Y-117499941D01*
X97068672Y-117364165D01*
X97180073Y-117095883D01*
X97180326Y-116805392D01*
X97069394Y-116536916D01*
X96864165Y-116331328D01*
X96595883Y-116219927D01*
X96305392Y-116219674D01*
X96036916Y-116330606D01*
X95834200Y-116532968D01*
X95834200Y-114173694D01*
X95872604Y-114366765D01*
X96054303Y-114638697D01*
X96326235Y-114820396D01*
X96647000Y-114884200D01*
X97212685Y-114884200D01*
X97315806Y-114884200D01*
X98541396Y-116109790D01*
X98407392Y-116109674D01*
X98138916Y-116220606D01*
X97933328Y-116425835D01*
X97821927Y-116694117D01*
X97821674Y-116984608D01*
X97932606Y-117253084D01*
X98137835Y-117458672D01*
X98406117Y-117570073D01*
X98583717Y-117570227D01*
X98583674Y-117619608D01*
X98694606Y-117888084D01*
X98899835Y-118093672D01*
X99168117Y-118205073D01*
X99458608Y-118205326D01*
X99727084Y-118094394D01*
X99932672Y-117889165D01*
X100044073Y-117620883D01*
X100044271Y-117392627D01*
X100203000Y-117424200D01*
X100877222Y-117424200D01*
X100667549Y-117633872D01*
X100439392Y-117633674D01*
X100170916Y-117744606D01*
X99965328Y-117949835D01*
X99853927Y-118218117D01*
X99853674Y-118508608D01*
X99964606Y-118777084D01*
X100169835Y-118982672D01*
X100438117Y-119094073D01*
X100728608Y-119094326D01*
X100997084Y-118983394D01*
X101202672Y-118778165D01*
X101314073Y-118509883D01*
X101314272Y-118280305D01*
X101425957Y-118168621D01*
X101561956Y-118168621D01*
X101499388Y-118319301D01*
X101499135Y-118609792D01*
X101610067Y-118878268D01*
X101815296Y-119083856D01*
X102083578Y-119195257D01*
X102313155Y-119195456D01*
X103936800Y-120819101D01*
X103936800Y-120938216D01*
X103792165Y-120793328D01*
X103523883Y-120681927D01*
X103233392Y-120681674D01*
X102964916Y-120792606D01*
X102759328Y-120997835D01*
X102647927Y-121266117D01*
X102647727Y-121495694D01*
X101695326Y-122448095D01*
X101695326Y-121394392D01*
X101584394Y-121125916D01*
X101379165Y-120920328D01*
X101110883Y-120808927D01*
X100820392Y-120808674D01*
X100551916Y-120919606D01*
X100346328Y-121124835D01*
X100234927Y-121393117D01*
X100234674Y-121683608D01*
X100295794Y-121831531D01*
X100043916Y-121935606D01*
X99838328Y-122140835D01*
X99726927Y-122409117D01*
X99726674Y-122699608D01*
X99837606Y-122968084D01*
X100042835Y-123173672D01*
X100311117Y-123285073D01*
X100601608Y-123285326D01*
X100870084Y-123174394D01*
X101075672Y-122969165D01*
X101187073Y-122700883D01*
X101187326Y-122410392D01*
X101126205Y-122262468D01*
X101378084Y-122158394D01*
X101583672Y-121953165D01*
X101695073Y-121684883D01*
X101695326Y-121394392D01*
X101695326Y-122448095D01*
X100768711Y-123374711D01*
X100669602Y-123523037D01*
X100634800Y-123698000D01*
X100634800Y-125869743D01*
X100555392Y-125869674D01*
X100286916Y-125980606D01*
X100081328Y-126185835D01*
X99969927Y-126454117D01*
X99969674Y-126744608D01*
X100080606Y-127013084D01*
X100285835Y-127218672D01*
X100423560Y-127275861D01*
X100159549Y-127539872D01*
X99931392Y-127539674D01*
X99662916Y-127650606D01*
X99457328Y-127855835D01*
X99345927Y-128124117D01*
X99345674Y-128414608D01*
X99456606Y-128683084D01*
X99661835Y-128888672D01*
X99930117Y-129000073D01*
X100220608Y-129000326D01*
X100489084Y-128889394D01*
X100643293Y-128735453D01*
X100726606Y-128937084D01*
X100931835Y-129142672D01*
X101200117Y-129254073D01*
X101429694Y-129254272D01*
X101913553Y-129738131D01*
X102061879Y-129837240D01*
X102236842Y-129872042D01*
X104807370Y-129872042D01*
X104671817Y-130007359D01*
X104450703Y-129915544D01*
X104160212Y-129915291D01*
X103891736Y-130026223D01*
X103686148Y-130231452D01*
X103574747Y-130499734D01*
X103574494Y-130790225D01*
X103685426Y-131058701D01*
X103890655Y-131264289D01*
X104158937Y-131375690D01*
X104319808Y-131375830D01*
X104298927Y-131426117D01*
X104298674Y-131716608D01*
X104409606Y-131985084D01*
X104614835Y-132190672D01*
X104883117Y-132302073D01*
X105173608Y-132302326D01*
X105442084Y-132191394D01*
X105647672Y-131986165D01*
X105759073Y-131717883D01*
X105759326Y-131427392D01*
X105648394Y-131158916D01*
X105584209Y-131094619D01*
X105696084Y-131048394D01*
X105901672Y-130843165D01*
X106013073Y-130574883D01*
X106013326Y-130284392D01*
X105902394Y-130015916D01*
X105901413Y-130014934D01*
X107519012Y-128397335D01*
X107584606Y-128556084D01*
X107789835Y-128761672D01*
X108058117Y-128873073D01*
X108348608Y-128873326D01*
X108617084Y-128762394D01*
X108822672Y-128557165D01*
X108934073Y-128288883D01*
X108934326Y-127998392D01*
X108823394Y-127729916D01*
X108618165Y-127524328D01*
X108458372Y-127457975D01*
X113421938Y-122494410D01*
X113530961Y-122761246D01*
X113535903Y-122768644D01*
X113670945Y-122836894D01*
X114255099Y-122252740D01*
X113670945Y-121668586D01*
X113614200Y-121697264D01*
X113614200Y-118732025D01*
X113743900Y-118861952D01*
X114104123Y-119011529D01*
X114494166Y-119011870D01*
X114854649Y-118862921D01*
X115130692Y-118587360D01*
X115280269Y-118227137D01*
X115280610Y-117837094D01*
X115205097Y-117654339D01*
X115205097Y-115854240D01*
X115069039Y-115521234D01*
X115064097Y-115513836D01*
X114929055Y-115445586D01*
X114884154Y-115490487D01*
X114884154Y-115400685D01*
X114815904Y-115265643D01*
X114484225Y-115126379D01*
X114124500Y-115124643D01*
X113791494Y-115260701D01*
X113784096Y-115265643D01*
X113715846Y-115400685D01*
X114300000Y-115984839D01*
X114884154Y-115400685D01*
X114884154Y-115490487D01*
X114344901Y-116029740D01*
X114929055Y-116613894D01*
X115064097Y-116545644D01*
X115203361Y-116213965D01*
X115205097Y-115854240D01*
X115205097Y-117654339D01*
X115131661Y-117476611D01*
X114884154Y-117228671D01*
X114884154Y-116658795D01*
X114300000Y-116074641D01*
X113715846Y-116658795D01*
X113784096Y-116793837D01*
X114115775Y-116933101D01*
X114475500Y-116934837D01*
X114808506Y-116798779D01*
X114815904Y-116793837D01*
X114884154Y-116658795D01*
X114884154Y-117228671D01*
X114856100Y-117200568D01*
X114495877Y-117050991D01*
X114105834Y-117050650D01*
X113745351Y-117199599D01*
X113614200Y-117330520D01*
X113614200Y-116585215D01*
X113670945Y-116613894D01*
X114255099Y-116029740D01*
X113670945Y-115445586D01*
X113614200Y-115474264D01*
X113614200Y-114731525D01*
X113743900Y-114861452D01*
X114104123Y-115011029D01*
X114494166Y-115011370D01*
X114854649Y-114862421D01*
X115130692Y-114586860D01*
X115280269Y-114226637D01*
X115280610Y-113836594D01*
X115131661Y-113476111D01*
X114856100Y-113200068D01*
X114495877Y-113050491D01*
X114105834Y-113050150D01*
X113798806Y-113177011D01*
X114006744Y-112969073D01*
X114104123Y-113009509D01*
X114494166Y-113009850D01*
X114854649Y-112860901D01*
X115130692Y-112585340D01*
X115280269Y-112225117D01*
X115280610Y-111835074D01*
X115131661Y-111474591D01*
X114856100Y-111198548D01*
X114495877Y-111048971D01*
X114141266Y-111048660D01*
X114141299Y-111010561D01*
X114494166Y-111010870D01*
X114854649Y-110861921D01*
X115130692Y-110586360D01*
X115280269Y-110226137D01*
X115280355Y-110127000D01*
X116594800Y-110127000D01*
X116594800Y-138594800D01*
X116594800Y-138594800D01*
G37*
X116594800Y-138594800D02*
X115280610Y-138594800D01*
X115280610Y-132061094D01*
X115280610Y-130059574D01*
X115131661Y-129699091D01*
X114856100Y-129423048D01*
X114495877Y-129273471D01*
X114105834Y-129273130D01*
X113819658Y-129391375D01*
X113880073Y-129245883D01*
X113880163Y-129142033D01*
X114104123Y-129235029D01*
X114494166Y-129235370D01*
X114854649Y-129086421D01*
X115130692Y-128810860D01*
X115280269Y-128450637D01*
X115280610Y-128060594D01*
X115280610Y-126059074D01*
X115280610Y-124060094D01*
X115205097Y-123877339D01*
X115205097Y-122077240D01*
X115069039Y-121744234D01*
X115064097Y-121736836D01*
X114929055Y-121668586D01*
X114884154Y-121713487D01*
X114884154Y-121623685D01*
X114815904Y-121488643D01*
X114484225Y-121349379D01*
X114124500Y-121347643D01*
X113791494Y-121483701D01*
X113784096Y-121488643D01*
X113715846Y-121623685D01*
X114300000Y-122207839D01*
X114884154Y-121623685D01*
X114884154Y-121713487D01*
X114344901Y-122252740D01*
X114929055Y-122836894D01*
X115064097Y-122768644D01*
X115203361Y-122436965D01*
X115205097Y-122077240D01*
X115205097Y-123877339D01*
X115131661Y-123699611D01*
X114884154Y-123451671D01*
X114884154Y-122881795D01*
X114300000Y-122297641D01*
X113715846Y-122881795D01*
X113784096Y-123016837D01*
X114115775Y-123156101D01*
X114475500Y-123157837D01*
X114808506Y-123021779D01*
X114815904Y-123016837D01*
X114884154Y-122881795D01*
X114884154Y-123451671D01*
X114856100Y-123423568D01*
X114495877Y-123273991D01*
X114105834Y-123273650D01*
X113745351Y-123422599D01*
X113469308Y-123698160D01*
X113319731Y-124058383D01*
X113319390Y-124448426D01*
X113468339Y-124808909D01*
X113743900Y-125084952D01*
X114104123Y-125234529D01*
X114494166Y-125234870D01*
X114854649Y-125085921D01*
X115130692Y-124810360D01*
X115280269Y-124450137D01*
X115280610Y-124060094D01*
X115280610Y-126059074D01*
X115131661Y-125698591D01*
X114856100Y-125422548D01*
X114495877Y-125272971D01*
X114105834Y-125272630D01*
X113745351Y-125421579D01*
X113469308Y-125697140D01*
X113319731Y-126057363D01*
X113319390Y-126447406D01*
X113468339Y-126807889D01*
X113743900Y-127083932D01*
X114104123Y-127233509D01*
X114494166Y-127233850D01*
X114854649Y-127084901D01*
X115130692Y-126809340D01*
X115280269Y-126449117D01*
X115280610Y-126059074D01*
X115280610Y-128060594D01*
X115131661Y-127700111D01*
X114856100Y-127424068D01*
X114495877Y-127274491D01*
X114105834Y-127274150D01*
X113745351Y-127423099D01*
X113469308Y-127698660D01*
X113319731Y-128058883D01*
X113319450Y-128379713D01*
X113295883Y-128369927D01*
X113005392Y-128369674D01*
X112736916Y-128480606D01*
X112531328Y-128685835D01*
X112419927Y-128954117D01*
X112419674Y-129244608D01*
X112530606Y-129513084D01*
X112735835Y-129718672D01*
X113004117Y-129830073D01*
X113294608Y-129830326D01*
X113438982Y-129770671D01*
X113319731Y-130057863D01*
X113319390Y-130447906D01*
X113468339Y-130808389D01*
X113743900Y-131084432D01*
X114104123Y-131234009D01*
X114494166Y-131234350D01*
X114854649Y-131085401D01*
X115130692Y-130809840D01*
X115280269Y-130449617D01*
X115280610Y-130059574D01*
X115280610Y-132061094D01*
X115131661Y-131700611D01*
X114856100Y-131424568D01*
X114495877Y-131274991D01*
X114105834Y-131274650D01*
X113745351Y-131423599D01*
X113469308Y-131699160D01*
X113319731Y-132059383D01*
X113319390Y-132449426D01*
X113468339Y-132809909D01*
X113743900Y-133085952D01*
X114104123Y-133235529D01*
X114494166Y-133235870D01*
X114854649Y-133086921D01*
X115130692Y-132811360D01*
X115280269Y-132451137D01*
X115280610Y-132061094D01*
X115280610Y-138594800D01*
X104155691Y-138594800D01*
X104250672Y-138499985D01*
X104362073Y-138231703D01*
X104362326Y-137941212D01*
X104251394Y-137672736D01*
X104089200Y-137510258D01*
X104089200Y-136564120D01*
X104090887Y-136565248D01*
X104265850Y-136600050D01*
X105216794Y-136600050D01*
X105377985Y-136761522D01*
X105646267Y-136872923D01*
X105936758Y-136873176D01*
X106059541Y-136822443D01*
X106074553Y-136897914D01*
X106173662Y-137046240D01*
X106330872Y-137203450D01*
X106330674Y-137431608D01*
X106441606Y-137700084D01*
X106646835Y-137905672D01*
X106915117Y-138017073D01*
X107205608Y-138017326D01*
X107474084Y-137906394D01*
X107679672Y-137701165D01*
X107710836Y-137626112D01*
X107939698Y-137968628D01*
X108294033Y-138205387D01*
X108712000Y-138288526D01*
X109129967Y-138205387D01*
X109484302Y-137968628D01*
X109721061Y-137614293D01*
X109804200Y-137196326D01*
X109804200Y-135780073D01*
X110094608Y-135780326D01*
X110159800Y-135753389D01*
X110159800Y-137196326D01*
X110242939Y-137614293D01*
X110479698Y-137968628D01*
X110834033Y-138205387D01*
X111252000Y-138288526D01*
X111669967Y-138205387D01*
X112024302Y-137968628D01*
X112261061Y-137614293D01*
X112344200Y-137196326D01*
X112344200Y-135905193D01*
X112404117Y-135930073D01*
X112694608Y-135930326D01*
X112699800Y-135928180D01*
X112699800Y-137196326D01*
X112782939Y-137614293D01*
X113019698Y-137968628D01*
X113374033Y-138205387D01*
X113792000Y-138288526D01*
X114209967Y-138205387D01*
X114564302Y-137968628D01*
X114801061Y-137614293D01*
X114884200Y-137196326D01*
X114884200Y-135599674D01*
X114801061Y-135181707D01*
X114564302Y-134827372D01*
X114209967Y-134590613D01*
X113792000Y-134507474D01*
X113374033Y-134590613D01*
X113133723Y-134751182D01*
X112964165Y-134581328D01*
X112695883Y-134469927D01*
X112405392Y-134469674D01*
X112136916Y-134580606D01*
X111943681Y-134773503D01*
X111669967Y-134590613D01*
X111252000Y-134507474D01*
X110834033Y-134590613D01*
X110611656Y-134739199D01*
X110569394Y-134636916D01*
X110364165Y-134431328D01*
X110095883Y-134319927D01*
X109805392Y-134319674D01*
X109536916Y-134430606D01*
X109331328Y-134635835D01*
X109302293Y-134705757D01*
X109129967Y-134590613D01*
X108712000Y-134507474D01*
X108680326Y-134513774D01*
X108680326Y-130665392D01*
X108569394Y-130396916D01*
X108364165Y-130191328D01*
X108095883Y-130079927D01*
X107805392Y-130079674D01*
X107536916Y-130190606D01*
X107331328Y-130395835D01*
X107219927Y-130664117D01*
X107219674Y-130954608D01*
X107330606Y-131223084D01*
X107535835Y-131428672D01*
X107804117Y-131540073D01*
X108094608Y-131540326D01*
X108363084Y-131429394D01*
X108568672Y-131224165D01*
X108680073Y-130955883D01*
X108680326Y-130665392D01*
X108680326Y-134513774D01*
X108294033Y-134590613D01*
X107939698Y-134827372D01*
X107702939Y-135181707D01*
X107619800Y-135599674D01*
X107619800Y-136813216D01*
X107475165Y-136668328D01*
X107206883Y-136556927D01*
X106977305Y-136556727D01*
X106954151Y-136533573D01*
X106954151Y-135833951D01*
X106919349Y-135658988D01*
X106820241Y-135510662D01*
X106117210Y-134807632D01*
X105968884Y-134708523D01*
X105793921Y-134673721D01*
X104053970Y-134673721D01*
X102843822Y-133463573D01*
X103105117Y-133572073D01*
X103395608Y-133572326D01*
X103664084Y-133461394D01*
X103869672Y-133256165D01*
X103981073Y-132987883D01*
X103981326Y-132697392D01*
X103870394Y-132428916D01*
X103665165Y-132223328D01*
X103396883Y-132111927D01*
X103106392Y-132111674D01*
X102837916Y-132222606D01*
X102632328Y-132427835D01*
X102520927Y-132696117D01*
X102520674Y-132986608D01*
X102628981Y-133248732D01*
X99937848Y-130557599D01*
X99789522Y-130458490D01*
X99614559Y-130423688D01*
X99106241Y-130423688D01*
X99180073Y-130245883D01*
X99180326Y-129955392D01*
X99069394Y-129686916D01*
X98864165Y-129481328D01*
X98595883Y-129369927D01*
X98305392Y-129369674D01*
X98036916Y-129480606D01*
X97831328Y-129685835D01*
X97719927Y-129954117D01*
X97719674Y-130244608D01*
X97793668Y-130423688D01*
X97250326Y-130423688D01*
X97250326Y-129268392D01*
X97139394Y-128999916D01*
X96934165Y-128794328D01*
X96665883Y-128682927D01*
X96375392Y-128682674D01*
X96106916Y-128793606D01*
X95901328Y-128998835D01*
X95789927Y-129267117D01*
X95789674Y-129557608D01*
X95900606Y-129826084D01*
X96105835Y-130031672D01*
X96374117Y-130143073D01*
X96664608Y-130143326D01*
X96933084Y-130032394D01*
X97138672Y-129827165D01*
X97250073Y-129558883D01*
X97250326Y-129268392D01*
X97250326Y-130423688D01*
X94589724Y-130423688D01*
X94589724Y-129224925D01*
X94478792Y-128956449D01*
X94273563Y-128750861D01*
X94051111Y-128658490D01*
X94051329Y-128408686D01*
X93940397Y-128140210D01*
X93735168Y-127934622D01*
X93466886Y-127823221D01*
X93176395Y-127822968D01*
X92907919Y-127933900D01*
X92702331Y-128139129D01*
X92590930Y-128407411D01*
X92590677Y-128697902D01*
X92701609Y-128966378D01*
X92906838Y-129171966D01*
X93129289Y-129264336D01*
X93129072Y-129514141D01*
X93240004Y-129782617D01*
X93445233Y-129988205D01*
X93713515Y-130099606D01*
X94004006Y-130099859D01*
X94272482Y-129988927D01*
X94478070Y-129783698D01*
X94589471Y-129515416D01*
X94589724Y-129224925D01*
X94589724Y-130423688D01*
X93270275Y-130423688D01*
X91757200Y-128910612D01*
X91757200Y-128825355D01*
X91918672Y-128664165D01*
X92030073Y-128395883D01*
X92030326Y-128105392D01*
X91919394Y-127836916D01*
X91839817Y-127757200D01*
X91900000Y-127757200D01*
X92074963Y-127722398D01*
X92223289Y-127623289D01*
X92517261Y-127329316D01*
X92523289Y-127325289D01*
X93788378Y-126060200D01*
X96857182Y-126060200D01*
X96731328Y-126185835D01*
X96619927Y-126454117D01*
X96619674Y-126744608D01*
X96696104Y-126929584D01*
X96487916Y-127015606D01*
X96282328Y-127220835D01*
X96170927Y-127489117D01*
X96170674Y-127779608D01*
X96281606Y-128048084D01*
X96486835Y-128253672D01*
X96755117Y-128365073D01*
X97045608Y-128365326D01*
X97314084Y-128254394D01*
X97440813Y-128127886D01*
X97440674Y-128287608D01*
X97551606Y-128556084D01*
X97756835Y-128761672D01*
X98025117Y-128873073D01*
X98315608Y-128873326D01*
X98584084Y-128762394D01*
X98789672Y-128557165D01*
X98901073Y-128288883D01*
X98901326Y-127998392D01*
X98790394Y-127729916D01*
X98585165Y-127524328D01*
X98316883Y-127412927D01*
X98026392Y-127412674D01*
X97757916Y-127523606D01*
X97631186Y-127650113D01*
X97631326Y-127490392D01*
X97554895Y-127305415D01*
X97763084Y-127219394D01*
X97968672Y-127014165D01*
X98080073Y-126745883D01*
X98080310Y-126473481D01*
X98119914Y-126517925D01*
X98119674Y-126794608D01*
X98230606Y-127063084D01*
X98435835Y-127268672D01*
X98704117Y-127380073D01*
X98994608Y-127380326D01*
X99263084Y-127269394D01*
X99468672Y-127064165D01*
X99580073Y-126795883D01*
X99580326Y-126505392D01*
X99469394Y-126236916D01*
X99264165Y-126031328D01*
X98995883Y-125919927D01*
X98811666Y-125919766D01*
X98258338Y-125298828D01*
X98247694Y-125290794D01*
X98240289Y-125279711D01*
X98176856Y-125237326D01*
X98115953Y-125191357D01*
X98103047Y-125188008D01*
X98091963Y-125180602D01*
X98017131Y-125165717D01*
X97943280Y-125146556D01*
X97930076Y-125148400D01*
X97917000Y-125145800D01*
X97758326Y-125145800D01*
X97758326Y-122918392D01*
X97647394Y-122649916D01*
X97442165Y-122444328D01*
X97173883Y-122332927D01*
X96883392Y-122332674D01*
X96614916Y-122443606D01*
X96409328Y-122648835D01*
X96297927Y-122917117D01*
X96297674Y-123207608D01*
X96408606Y-123476084D01*
X96613835Y-123681672D01*
X96882117Y-123793073D01*
X97172608Y-123793326D01*
X97441084Y-123682394D01*
X97646672Y-123477165D01*
X97758073Y-123208883D01*
X97758326Y-122918392D01*
X97758326Y-125145800D01*
X93599000Y-125145800D01*
X93492311Y-125167021D01*
X93563375Y-124995883D01*
X93563628Y-124705392D01*
X93452696Y-124436916D01*
X93247467Y-124231328D01*
X92979185Y-124119927D01*
X92688694Y-124119674D01*
X92420218Y-124230606D01*
X92214630Y-124435835D01*
X92170238Y-124542740D01*
X92170326Y-124442392D01*
X92059394Y-124173916D01*
X91854165Y-123968328D01*
X91840125Y-123962498D01*
X91930073Y-123745883D01*
X91930326Y-123455392D01*
X91913428Y-123414496D01*
X91967826Y-123414544D01*
X92236302Y-123303612D01*
X92441890Y-123098383D01*
X92553291Y-122830101D01*
X92553544Y-122539610D01*
X92442612Y-122271134D01*
X92237383Y-122065546D01*
X91969101Y-121954145D01*
X91798581Y-121953996D01*
X92919814Y-120832763D01*
X92919674Y-120994608D01*
X93030606Y-121263084D01*
X93235835Y-121468672D01*
X93504117Y-121580073D01*
X93794608Y-121580326D01*
X94063084Y-121469394D01*
X94268672Y-121264165D01*
X94302079Y-121183712D01*
X94469117Y-121253073D01*
X94759608Y-121253326D01*
X95028084Y-121142394D01*
X95233672Y-120937165D01*
X95345073Y-120668883D01*
X95345326Y-120378392D01*
X95234394Y-120109916D01*
X95029165Y-119904328D01*
X94760883Y-119792927D01*
X94470392Y-119792674D01*
X94201916Y-119903606D01*
X93996328Y-120108835D01*
X93962920Y-120189287D01*
X93795883Y-120119927D01*
X93632793Y-120119784D01*
X95700289Y-118052289D01*
X95719823Y-118023053D01*
X95719674Y-118194608D01*
X95830606Y-118463084D01*
X96035835Y-118668672D01*
X96304117Y-118780073D01*
X96594608Y-118780326D01*
X96863084Y-118669394D01*
X97068672Y-118464165D01*
X97180073Y-118195883D01*
X97180326Y-117905392D01*
X97069394Y-117636916D01*
X96932658Y-117499941D01*
X97068672Y-117364165D01*
X97180073Y-117095883D01*
X97180326Y-116805392D01*
X97069394Y-116536916D01*
X96864165Y-116331328D01*
X96595883Y-116219927D01*
X96305392Y-116219674D01*
X96036916Y-116330606D01*
X95834200Y-116532968D01*
X95834200Y-114173694D01*
X95872604Y-114366765D01*
X96054303Y-114638697D01*
X96326235Y-114820396D01*
X96647000Y-114884200D01*
X97212685Y-114884200D01*
X97315806Y-114884200D01*
X98541396Y-116109790D01*
X98407392Y-116109674D01*
X98138916Y-116220606D01*
X97933328Y-116425835D01*
X97821927Y-116694117D01*
X97821674Y-116984608D01*
X97932606Y-117253084D01*
X98137835Y-117458672D01*
X98406117Y-117570073D01*
X98583717Y-117570227D01*
X98583674Y-117619608D01*
X98694606Y-117888084D01*
X98899835Y-118093672D01*
X99168117Y-118205073D01*
X99458608Y-118205326D01*
X99727084Y-118094394D01*
X99932672Y-117889165D01*
X100044073Y-117620883D01*
X100044271Y-117392627D01*
X100203000Y-117424200D01*
X100877222Y-117424200D01*
X100667549Y-117633872D01*
X100439392Y-117633674D01*
X100170916Y-117744606D01*
X99965328Y-117949835D01*
X99853927Y-118218117D01*
X99853674Y-118508608D01*
X99964606Y-118777084D01*
X100169835Y-118982672D01*
X100438117Y-119094073D01*
X100728608Y-119094326D01*
X100997084Y-118983394D01*
X101202672Y-118778165D01*
X101314073Y-118509883D01*
X101314272Y-118280305D01*
X101425957Y-118168621D01*
X101561956Y-118168621D01*
X101499388Y-118319301D01*
X101499135Y-118609792D01*
X101610067Y-118878268D01*
X101815296Y-119083856D01*
X102083578Y-119195257D01*
X102313155Y-119195456D01*
X103936800Y-120819101D01*
X103936800Y-120938216D01*
X103792165Y-120793328D01*
X103523883Y-120681927D01*
X103233392Y-120681674D01*
X102964916Y-120792606D01*
X102759328Y-120997835D01*
X102647927Y-121266117D01*
X102647727Y-121495694D01*
X101695326Y-122448095D01*
X101695326Y-121394392D01*
X101584394Y-121125916D01*
X101379165Y-120920328D01*
X101110883Y-120808927D01*
X100820392Y-120808674D01*
X100551916Y-120919606D01*
X100346328Y-121124835D01*
X100234927Y-121393117D01*
X100234674Y-121683608D01*
X100295794Y-121831531D01*
X100043916Y-121935606D01*
X99838328Y-122140835D01*
X99726927Y-122409117D01*
X99726674Y-122699608D01*
X99837606Y-122968084D01*
X100042835Y-123173672D01*
X100311117Y-123285073D01*
X100601608Y-123285326D01*
X100870084Y-123174394D01*
X101075672Y-122969165D01*
X101187073Y-122700883D01*
X101187326Y-122410392D01*
X101126205Y-122262468D01*
X101378084Y-122158394D01*
X101583672Y-121953165D01*
X101695073Y-121684883D01*
X101695326Y-121394392D01*
X101695326Y-122448095D01*
X100768711Y-123374711D01*
X100669602Y-123523037D01*
X100634800Y-123698000D01*
X100634800Y-125869743D01*
X100555392Y-125869674D01*
X100286916Y-125980606D01*
X100081328Y-126185835D01*
X99969927Y-126454117D01*
X99969674Y-126744608D01*
X100080606Y-127013084D01*
X100285835Y-127218672D01*
X100423560Y-127275861D01*
X100159549Y-127539872D01*
X99931392Y-127539674D01*
X99662916Y-127650606D01*
X99457328Y-127855835D01*
X99345927Y-128124117D01*
X99345674Y-128414608D01*
X99456606Y-128683084D01*
X99661835Y-128888672D01*
X99930117Y-129000073D01*
X100220608Y-129000326D01*
X100489084Y-128889394D01*
X100643293Y-128735453D01*
X100726606Y-128937084D01*
X100931835Y-129142672D01*
X101200117Y-129254073D01*
X101429694Y-129254272D01*
X101913553Y-129738131D01*
X102061879Y-129837240D01*
X102236842Y-129872042D01*
X104807370Y-129872042D01*
X104671817Y-130007359D01*
X104450703Y-129915544D01*
X104160212Y-129915291D01*
X103891736Y-130026223D01*
X103686148Y-130231452D01*
X103574747Y-130499734D01*
X103574494Y-130790225D01*
X103685426Y-131058701D01*
X103890655Y-131264289D01*
X104158937Y-131375690D01*
X104319808Y-131375830D01*
X104298927Y-131426117D01*
X104298674Y-131716608D01*
X104409606Y-131985084D01*
X104614835Y-132190672D01*
X104883117Y-132302073D01*
X105173608Y-132302326D01*
X105442084Y-132191394D01*
X105647672Y-131986165D01*
X105759073Y-131717883D01*
X105759326Y-131427392D01*
X105648394Y-131158916D01*
X105584209Y-131094619D01*
X105696084Y-131048394D01*
X105901672Y-130843165D01*
X106013073Y-130574883D01*
X106013326Y-130284392D01*
X105902394Y-130015916D01*
X105901413Y-130014934D01*
X107519012Y-128397335D01*
X107584606Y-128556084D01*
X107789835Y-128761672D01*
X108058117Y-128873073D01*
X108348608Y-128873326D01*
X108617084Y-128762394D01*
X108822672Y-128557165D01*
X108934073Y-128288883D01*
X108934326Y-127998392D01*
X108823394Y-127729916D01*
X108618165Y-127524328D01*
X108458372Y-127457975D01*
X113421938Y-122494410D01*
X113530961Y-122761246D01*
X113535903Y-122768644D01*
X113670945Y-122836894D01*
X114255099Y-122252740D01*
X113670945Y-121668586D01*
X113614200Y-121697264D01*
X113614200Y-118732025D01*
X113743900Y-118861952D01*
X114104123Y-119011529D01*
X114494166Y-119011870D01*
X114854649Y-118862921D01*
X115130692Y-118587360D01*
X115280269Y-118227137D01*
X115280610Y-117837094D01*
X115205097Y-117654339D01*
X115205097Y-115854240D01*
X115069039Y-115521234D01*
X115064097Y-115513836D01*
X114929055Y-115445586D01*
X114884154Y-115490487D01*
X114884154Y-115400685D01*
X114815904Y-115265643D01*
X114484225Y-115126379D01*
X114124500Y-115124643D01*
X113791494Y-115260701D01*
X113784096Y-115265643D01*
X113715846Y-115400685D01*
X114300000Y-115984839D01*
X114884154Y-115400685D01*
X114884154Y-115490487D01*
X114344901Y-116029740D01*
X114929055Y-116613894D01*
X115064097Y-116545644D01*
X115203361Y-116213965D01*
X115205097Y-115854240D01*
X115205097Y-117654339D01*
X115131661Y-117476611D01*
X114884154Y-117228671D01*
X114884154Y-116658795D01*
X114300000Y-116074641D01*
X113715846Y-116658795D01*
X113784096Y-116793837D01*
X114115775Y-116933101D01*
X114475500Y-116934837D01*
X114808506Y-116798779D01*
X114815904Y-116793837D01*
X114884154Y-116658795D01*
X114884154Y-117228671D01*
X114856100Y-117200568D01*
X114495877Y-117050991D01*
X114105834Y-117050650D01*
X113745351Y-117199599D01*
X113614200Y-117330520D01*
X113614200Y-116585215D01*
X113670945Y-116613894D01*
X114255099Y-116029740D01*
X113670945Y-115445586D01*
X113614200Y-115474264D01*
X113614200Y-114731525D01*
X113743900Y-114861452D01*
X114104123Y-115011029D01*
X114494166Y-115011370D01*
X114854649Y-114862421D01*
X115130692Y-114586860D01*
X115280269Y-114226637D01*
X115280610Y-113836594D01*
X115131661Y-113476111D01*
X114856100Y-113200068D01*
X114495877Y-113050491D01*
X114105834Y-113050150D01*
X113798806Y-113177011D01*
X114006744Y-112969073D01*
X114104123Y-113009509D01*
X114494166Y-113009850D01*
X114854649Y-112860901D01*
X115130692Y-112585340D01*
X115280269Y-112225117D01*
X115280610Y-111835074D01*
X115131661Y-111474591D01*
X114856100Y-111198548D01*
X114495877Y-111048971D01*
X114141266Y-111048660D01*
X114141299Y-111010561D01*
X114494166Y-111010870D01*
X114854649Y-110861921D01*
X115130692Y-110586360D01*
X115280269Y-110226137D01*
X115280355Y-110127000D01*
X116594800Y-110127000D01*
X116594800Y-138594800D01*
G36*
X89732014Y-85852000D02*
X89042007Y-86542007D01*
X88901603Y-86752136D01*
X88852300Y-87000000D01*
X88852300Y-99373000D01*
X78905200Y-99373000D01*
X78905200Y-80405200D01*
X88265000Y-80405200D01*
X88265000Y-85852000D01*
X89732014Y-85852000D01*
X89732014Y-85852000D01*
G37*
X89732014Y-85852000D02*
X89042007Y-86542007D01*
X88901603Y-86752136D01*
X88852300Y-87000000D01*
X88852300Y-99373000D01*
X78905200Y-99373000D01*
X78905200Y-80405200D01*
X88265000Y-80405200D01*
X88265000Y-85852000D01*
X89732014Y-85852000D01*
G36*
X104152530Y-90955547D02*
X103955741Y-91036859D01*
X103737624Y-91254595D01*
X103619435Y-91539227D01*
X103619166Y-91847421D01*
X103736859Y-92132259D01*
X103746300Y-92141716D01*
X103746300Y-99373000D01*
X93557985Y-99373000D01*
X93230700Y-99045714D01*
X93230700Y-88900000D01*
X93181397Y-88652136D01*
X93040993Y-88442007D01*
X92087700Y-87488714D01*
X92087700Y-87316065D01*
X92096376Y-87307405D01*
X92214565Y-87022773D01*
X92214834Y-86714579D01*
X92097141Y-86429741D01*
X92025225Y-86357700D01*
X104141515Y-86357700D01*
X104152530Y-90955547D01*
X104152530Y-90955547D01*
G37*
X104152530Y-90955547D02*
X103955741Y-91036859D01*
X103737624Y-91254595D01*
X103619435Y-91539227D01*
X103619166Y-91847421D01*
X103736859Y-92132259D01*
X103746300Y-92141716D01*
X103746300Y-99373000D01*
X93557985Y-99373000D01*
X93230700Y-99045714D01*
X93230700Y-88900000D01*
X93181397Y-88652136D01*
X93040993Y-88442007D01*
X92087700Y-87488714D01*
X92087700Y-87316065D01*
X92096376Y-87307405D01*
X92214565Y-87022773D01*
X92214834Y-86714579D01*
X92097141Y-86429741D01*
X92025225Y-86357700D01*
X104141515Y-86357700D01*
X104152530Y-90955547D01*
G36*
X116594800Y-99373000D02*
X115051344Y-99373000D01*
X115265993Y-99158352D01*
X115406397Y-98948223D01*
X115455700Y-98700359D01*
X115455700Y-82363065D01*
X115464376Y-82354405D01*
X115582565Y-82069773D01*
X115582834Y-81761579D01*
X115465141Y-81476741D01*
X115247405Y-81258624D01*
X114962773Y-81140435D01*
X114654579Y-81140166D01*
X114369741Y-81257859D01*
X114151624Y-81475595D01*
X114033435Y-81760227D01*
X114033166Y-82068421D01*
X114150859Y-82353259D01*
X114160300Y-82362716D01*
X114160300Y-98432073D01*
X113219372Y-99373000D01*
X106184700Y-99373000D01*
X106184700Y-91059000D01*
X106135397Y-90811136D01*
X105994993Y-90601007D01*
X104762305Y-89368319D01*
X104774558Y-85852000D01*
X106807000Y-85852000D01*
X106807000Y-80405200D01*
X116594800Y-80405200D01*
X116594800Y-99373000D01*
X116594800Y-99373000D01*
G37*
X116594800Y-99373000D02*
X115051344Y-99373000D01*
X115265993Y-99158352D01*
X115406397Y-98948223D01*
X115455700Y-98700359D01*
X115455700Y-82363065D01*
X115464376Y-82354405D01*
X115582565Y-82069773D01*
X115582834Y-81761579D01*
X115465141Y-81476741D01*
X115247405Y-81258624D01*
X114962773Y-81140435D01*
X114654579Y-81140166D01*
X114369741Y-81257859D01*
X114151624Y-81475595D01*
X114033435Y-81760227D01*
X114033166Y-82068421D01*
X114150859Y-82353259D01*
X114160300Y-82362716D01*
X114160300Y-98432073D01*
X113219372Y-99373000D01*
X106184700Y-99373000D01*
X106184700Y-91059000D01*
X106135397Y-90811136D01*
X105994993Y-90601007D01*
X104762305Y-89368319D01*
X104774558Y-85852000D01*
X106807000Y-85852000D01*
X106807000Y-80405200D01*
X116594800Y-80405200D01*
X116594800Y-99373000D01*
M02*
