M48
METRIC,TZ
T1C0.500
T2C0.701
T3C0.762
T4C1.016
T5C3.048
%
G90
G05
T1
X79.248Y-130.683
X79.3Y-126.65
X79.4Y-127.8
X80.6Y-121.9
X81.8Y-112.8
X82.6Y-128.3
X82.65Y-127.
X83.9Y-125.3
X83.9Y-130.1
X84.9Y-132.6
X84.928Y-131.104
X85.979Y-114.935
X86.3Y-126.2
X86.5Y-128.267
X86.741Y-125.095
X88.1Y-123.9
X88.138Y-131.699
X88.2Y-121.9
X88.293Y-129.652
X88.519Y-109.601
X88.9Y-117.729
X88.9Y-118.8
X89.453Y-132.677
X89.792Y-109.563
X89.8Y-119.6
X90.2Y-127.3
X90.255Y-131.671
X90.805Y-114.935
X90.908Y-109.436
X90.932Y-126.492
X91.2Y-119.4
X91.2Y-123.6
X91.3Y-128.25
X91.313Y-90.17
X91.44Y-86.868
X91.44Y-91.313
X91.44Y-124.587
X91.453Y-102.192
X91.823Y-122.684
X91.948Y-114.935
X92.833Y-124.85
X92.85Y-129.6
X93.321Y-128.553
X93.408Y-105.41
X93.472Y-137.541
X93.605Y-132.7
X93.65Y-120.85
X93.859Y-129.37
X93.98Y-113.411
X94.431Y-112.4
X94.615Y-120.523
X95.631Y-137.16
X95.85Y-126.4
X96.45Y-116.95
X96.45Y-118.05
X96.52Y-129.413
X96.647Y-114.046
X96.901Y-127.635
X97.028Y-123.063
X97.028Y-133.35
X97.35Y-126.6
X98.171Y-128.143
X98.45Y-130.1
X98.513Y-135.587
X98.552Y-116.84
X98.552Y-122.301
X98.85Y-126.65
X99.012Y-113.211
X99.187Y-132.731
X99.314Y-117.475
X99.375Y-134.192
X99.695Y-109.22
X100.076Y-128.27
X100.442Y-113.235
X100.457Y-122.555
X100.584Y-118.364
X100.7Y-126.6
X100.965Y-121.539
X101.346Y-128.524
X101.473Y-113.284
X101.6Y-138.086
X102.229Y-118.465
X102.489Y-127.889
X102.616Y-113.284
X103.251Y-132.842
X103.378Y-121.412
X103.632Y-127.889
X103.632Y-138.086
X103.759Y-118.466
X103.8Y-114.95
X103.886Y-113.159
X103.918Y-102.086
X104.305Y-130.646
X104.35Y-132.6
X104.394Y-91.694
X104.648Y-104.394
X104.648Y-127.508
X104.93Y-118.438
X105.029Y-131.572
X105.283Y-108.966
X105.283Y-125.349
X105.283Y-126.619
X105.283Y-130.429
X105.537Y-121.539
X105.791Y-106.045
X105.792Y-136.143
X105.918Y-102.743
X105.918Y-104.648
X106.35Y-126.6
X106.807Y-113.538
X106.934Y-118.237
X107.061Y-137.287
X107.201Y-135.762
X107.75Y-124.55
X107.95Y-130.81
X108.003Y-103.725
X108.204Y-128.143
X109.1Y-127.45
X109.782Y-122.456
X110.617Y-106.426
X110.871Y-118.364
X110.871Y-119.38
X111.055Y-104.07
X111.125Y-113.411
X111.76Y-103.124
X112.776Y-131.318
X113.157Y-105.41
X114.3Y-105.41
X114.808Y-81.915
X116.078Y-100.33
X116.1Y-101.3
T2
X80.45Y-113.726
X80.45Y-115.725
X80.45Y-117.727
X80.45Y-119.728
X82.099Y-137.2
X84.1Y-137.2
X86.099Y-137.2
X88.101Y-137.2
X90.1Y-137.2
X92.101Y-137.2
X114.3Y-108.029
X114.3Y-110.03
X114.3Y-112.029
X114.3Y-114.031
X114.3Y-116.03
X114.3Y-118.031
X114.3Y-122.253
X114.3Y-124.254
X114.3Y-126.253
X114.3Y-128.255
X114.3Y-130.254
X114.3Y-132.255
T3
X80.01Y-105.41
X80.01Y-107.188
X80.01Y-108.966
X80.01Y-110.744
X81.026Y-87.122
X81.026Y-89.154
X81.026Y-90.932
X81.788Y-105.41
X81.788Y-107.188
X81.788Y-108.966
X81.788Y-110.744
X82.804Y-87.122
X82.804Y-89.154
X82.804Y-90.932
X83.566Y-105.41
X83.566Y-107.188
X83.566Y-108.966
X83.566Y-110.744
X84.582Y-87.122
X84.582Y-89.154
X84.582Y-90.932
X86.36Y-87.122
X86.36Y-89.154
X86.36Y-90.932
X92.Y-105.55
X92.07Y-103.846
X93.98Y-87.122
X93.98Y-88.9
X93.98Y-90.678
X95.758Y-87.122
X95.758Y-88.9
X95.758Y-90.678
X97.79Y-87.122
X97.79Y-88.9
X97.79Y-90.678
X99.822Y-87.122
X99.822Y-88.9
X99.822Y-90.678
X106.934Y-86.868
X106.934Y-88.646
X106.934Y-90.424
X108.966Y-86.868
X108.966Y-88.646
X108.966Y-90.424
X110.744Y-86.868
X110.744Y-88.646
X110.744Y-90.424
X112.522Y-86.868
X112.522Y-88.646
X112.522Y-90.424
T4
X108.712Y-136.398
X111.252Y-136.398
X113.792Y-136.398
T5
X81.5Y-142.
X92.Y-83.
X103.5Y-83.
X114.Y-142.
T0
M30
