G04 #@! TF.FileFunction,Copper,L2,Inr,Signal*
%FSLAX46Y46*%
G04 Gerber Fmt 4.6, Leading zero omitted, Abs format (unit mm)*
G04 Created by KiCad (PCBNEW (2015-08-21 BZR 6112)-product) date ons  3 feb 2016 15:49:01*
%MOMM*%
G01*
G04 APERTURE LIST*
%ADD10C,0.150000*%
%ADD11C,1.300480*%
%ADD12R,1.699260X1.198880*%
%ADD13O,1.699260X1.198880*%
%ADD14O,1.524000X3.048000*%
%ADD15C,4.064000*%
%ADD16R,1.300000X1.300000*%
%ADD17C,1.300000*%
%ADD18C,0.800000*%
%ADD19C,0.889000*%
%ADD20C,1.524000*%
%ADD21C,1.016000*%
%ADD22C,1.270000*%
%ADD23C,0.635000*%
%ADD24C,0.508000*%
%ADD25C,0.304800*%
%ADD26C,0.254000*%
G04 APERTURE END LIST*
D10*
D11*
X86099240Y-137200000D03*
X88100760Y-137200000D03*
X90099740Y-137200000D03*
X92101260Y-137200000D03*
X84100260Y-137200000D03*
X82098740Y-137200000D03*
D12*
X80450000Y-119728280D03*
D13*
X80450000Y-115725240D03*
X80450000Y-117726760D03*
X80450000Y-113726260D03*
D11*
X114300000Y-126253240D03*
X114300000Y-128254760D03*
X114300000Y-130253740D03*
X114300000Y-132255260D03*
X114300000Y-124254260D03*
X114300000Y-122252740D03*
D14*
X108712000Y-136398000D03*
X111252000Y-136398000D03*
X113792000Y-136398000D03*
D15*
X92000000Y-83000000D03*
X103500000Y-83000000D03*
X114000000Y-142000000D03*
X81500000Y-142000000D03*
D16*
X114300000Y-118018560D03*
D17*
X114300000Y-114015520D03*
X114300000Y-116017040D03*
X114300000Y-112016540D03*
X114300000Y-110015020D03*
X114300000Y-108013500D03*
X114300000Y-106014520D03*
D18*
X88900000Y-117729000D03*
X88900000Y-118800000D03*
X79400000Y-127800000D03*
X85979000Y-114935000D03*
X101473000Y-118237000D03*
X102870000Y-132842000D03*
X107817006Y-124617006D03*
D19*
X90551000Y-110490012D03*
D18*
X103759000Y-115189000D03*
X103709331Y-113221584D03*
X98512630Y-135586518D03*
X109782385Y-122455968D03*
X91823218Y-122684218D03*
X110871000Y-119380000D03*
X110871000Y-118364000D03*
X98552000Y-116840000D03*
X97028000Y-123063000D03*
X99314000Y-117475000D03*
X93321003Y-128553294D03*
X80600000Y-121900000D03*
X86300000Y-126200000D03*
X90255293Y-131671345D03*
X88138000Y-131699000D03*
X81800000Y-112800000D03*
D20*
X93472000Y-103251000D03*
X93472000Y-104775000D03*
D18*
X84928238Y-131104499D03*
D20*
X94996000Y-103251000D03*
X94996000Y-104775000D03*
X93472000Y-106299000D03*
X94996000Y-106299000D03*
D18*
X99187000Y-132731485D03*
X93472000Y-137541000D03*
X97028000Y-133350000D03*
X108286870Y-128330435D03*
X97350000Y-126600000D03*
X100831698Y-122555000D03*
X100132231Y-123334253D03*
X105537000Y-121539000D03*
X91948000Y-114935000D03*
X90805000Y-114935000D03*
X99374925Y-134191906D03*
X94615000Y-120523000D03*
X83900000Y-130100000D03*
X96901000Y-127635000D03*
X98171000Y-128143000D03*
X112394988Y-131318000D03*
X109135117Y-127485117D03*
X106044996Y-126432893D03*
X91200000Y-119400000D03*
X92850000Y-129600000D03*
X95631000Y-137160000D03*
X98552000Y-122301000D03*
X95850000Y-126400000D03*
X107200501Y-135762249D03*
X111049589Y-110692411D03*
X116078000Y-99314000D03*
D20*
X80010000Y-110744000D03*
D18*
X116078000Y-100330000D03*
X83900000Y-125300000D03*
X111125000Y-113411000D03*
X93980000Y-113411000D03*
D20*
X83566000Y-107188000D03*
X83566000Y-105410000D03*
X81788000Y-105410000D03*
X80010000Y-105410000D03*
X81788000Y-107188000D03*
X80010000Y-107188000D03*
X80010000Y-108966000D03*
X81788000Y-108966000D03*
X83566000Y-108966000D03*
X83566000Y-110744000D03*
X81788000Y-110744000D03*
D18*
X96647000Y-114046000D03*
X116100000Y-101300000D03*
X101600000Y-138085820D03*
X82600000Y-128300000D03*
X104310799Y-130643738D03*
X100203000Y-110490012D03*
D20*
X110744000Y-86868000D03*
X110744000Y-88646000D03*
X112522000Y-86868000D03*
X112522000Y-88646000D03*
X106934000Y-86868000D03*
X106934000Y-88646000D03*
X108966000Y-86868000D03*
X108966000Y-88646000D03*
X106934000Y-90424000D03*
X108966000Y-90424000D03*
X110744000Y-90424000D03*
X112522000Y-90424000D03*
D18*
X86741000Y-125095000D03*
D20*
X111252000Y-81534000D03*
X109474000Y-81534000D03*
X107696000Y-81534000D03*
D18*
X105410000Y-103632000D03*
X91200000Y-123600000D03*
D20*
X93980000Y-90678000D03*
X95758000Y-90678000D03*
X97790000Y-90678000D03*
X99822000Y-90678000D03*
X99822000Y-88900000D03*
X97790000Y-88900000D03*
X95758000Y-88900000D03*
X97790000Y-87122000D03*
X99822000Y-87122000D03*
X93980000Y-87122000D03*
X95758000Y-87122000D03*
X93980000Y-88900000D03*
X96139000Y-81534000D03*
X97790000Y-81534000D03*
X99441000Y-81534000D03*
D18*
X104500000Y-104000266D03*
X86500000Y-128267478D03*
D20*
X81026000Y-90932000D03*
X82804000Y-90932000D03*
X84582000Y-90932000D03*
X86360000Y-90932000D03*
X86360000Y-89154000D03*
X84582000Y-89154000D03*
X82804000Y-89154000D03*
X81026000Y-89154000D03*
X81026000Y-87122000D03*
X82804000Y-87122000D03*
X84582000Y-87122000D03*
X86360000Y-87122000D03*
D19*
X91440000Y-86868000D03*
D20*
X83312000Y-81534000D03*
X85090000Y-81534000D03*
X86868000Y-81534000D03*
D18*
X101473000Y-113284000D03*
D19*
X108003411Y-103725057D03*
D18*
X105291353Y-106846343D03*
D19*
X91440000Y-91313000D03*
D18*
X91300000Y-128250000D03*
X107061000Y-137287000D03*
X90932000Y-126492000D03*
X105792150Y-136142850D03*
D19*
X114808000Y-81915000D03*
D18*
X99012291Y-113211397D03*
X112483130Y-104116822D03*
X100441730Y-113235361D03*
X91440000Y-124587000D03*
X103632000Y-138085820D03*
X105537509Y-102507217D03*
D19*
X104394000Y-91694000D03*
X103937763Y-101968280D03*
D18*
X102596601Y-113245201D03*
X107051383Y-113293617D03*
D19*
X91313000Y-90170000D03*
D18*
X105383273Y-109569220D03*
D19*
X91440000Y-101981000D03*
D18*
X105264351Y-105868904D03*
X90424000Y-109220000D03*
X105266323Y-104825601D03*
X89789000Y-108458000D03*
X111506000Y-104902000D03*
X111029780Y-106546698D03*
X100505015Y-118375283D03*
X105181969Y-125258511D03*
X105090994Y-126647361D03*
X107061000Y-118237000D03*
X104643484Y-127516758D03*
X104902000Y-118364000D03*
X103885996Y-118364000D03*
X103632000Y-127889000D03*
X100203000Y-127635000D03*
X102489000Y-118364000D03*
X96450000Y-118050000D03*
X96520000Y-129413000D03*
X100584000Y-126619000D03*
X103378000Y-121412000D03*
X90200000Y-127300000D03*
X98850000Y-126650000D03*
X93859398Y-129369533D03*
X93605312Y-132700000D03*
X89453446Y-132677426D03*
X88100000Y-123900000D03*
X88292526Y-129652290D03*
X109474000Y-130556000D03*
X109849234Y-129387867D03*
X84900000Y-132600000D03*
X104775000Y-132588000D03*
X101473000Y-128578582D03*
X103377992Y-130937000D03*
X103632000Y-132207000D03*
X102489000Y-128156220D03*
D21*
X114300000Y-118031260D02*
X114300000Y-119634000D01*
X114935000Y-133858000D02*
X112395000Y-133858000D01*
X115824000Y-132969000D02*
X114935000Y-133858000D01*
X115824000Y-121158000D02*
X115824000Y-132969000D01*
X114300000Y-119634000D02*
X115824000Y-121158000D01*
X112395000Y-133858000D02*
X111252000Y-135001000D01*
X111252000Y-135001000D02*
X111252000Y-136398000D01*
D22*
X80518000Y-127800000D02*
X80518000Y-123698000D01*
X80518000Y-123698000D02*
X86487000Y-117729000D01*
X86487000Y-117729000D02*
X88900000Y-117729000D01*
X82098740Y-137200000D02*
X82103522Y-135303663D01*
D23*
X88900000Y-117729000D02*
X88900000Y-118800000D01*
D22*
X80518000Y-133718000D02*
X82103522Y-135303522D01*
X82103522Y-135303522D02*
X82103522Y-135303663D01*
X80518000Y-127800000D02*
X80518000Y-133718000D01*
D24*
X79400000Y-127800000D02*
X80518000Y-127800000D01*
D22*
X93472000Y-104775000D02*
X93472000Y-106299000D01*
D25*
X99345799Y-128048899D02*
X99345799Y-127349201D01*
X93673679Y-130423679D02*
X96971019Y-130423679D01*
X96971019Y-130423679D02*
X99345799Y-128048899D01*
X98552000Y-122866685D02*
X98552000Y-122301000D01*
X99580201Y-123894886D02*
X98552000Y-122866685D01*
X99580201Y-127114799D02*
X99580201Y-123894886D01*
X99345799Y-127349201D02*
X99580201Y-127114799D01*
X92850000Y-129600000D02*
X93673679Y-130423679D01*
X111829303Y-131318000D02*
X112394988Y-131318000D01*
X111079065Y-131318000D02*
X111829303Y-131318000D01*
X107200501Y-135762249D02*
X107200501Y-135196564D01*
X109135117Y-127485117D02*
X112394988Y-130744988D01*
X112394988Y-130752315D02*
X112394988Y-131318000D01*
X112394988Y-130744988D02*
X112394988Y-130752315D01*
X107200501Y-135196564D02*
X111079065Y-131318000D01*
X109135117Y-127417623D02*
X109135117Y-127485117D01*
X114300000Y-122252740D02*
X109135117Y-127417623D01*
X95319315Y-126365000D02*
X94303315Y-127381000D01*
X95850000Y-126400000D02*
X95319315Y-126365000D01*
X94303315Y-127381000D02*
X93091000Y-127381000D01*
X93091000Y-127381000D02*
X92329000Y-128143000D01*
X92329000Y-129079000D02*
X92850000Y-129600000D01*
X92329000Y-128143000D02*
X92329000Y-129079000D01*
D21*
X111125000Y-109914983D02*
X111125000Y-111453556D01*
X111049589Y-110692411D02*
X111049589Y-111258096D01*
X111125000Y-111453556D02*
X111125000Y-113411000D01*
X111049589Y-111258096D02*
X111125000Y-111333507D01*
X111125000Y-111333507D02*
X111125000Y-111453556D01*
X111125000Y-109093000D02*
X111125000Y-109914983D01*
X111049589Y-110692411D02*
X111049589Y-110126726D01*
X111049589Y-110126726D02*
X111125000Y-110051315D01*
X111125000Y-110051315D02*
X111125000Y-109914983D01*
X116078000Y-99314000D02*
X116078000Y-100330000D01*
X116078000Y-100330000D02*
X116078000Y-101278000D01*
X116078000Y-101278000D02*
X116100000Y-101300000D01*
X112903000Y-107315000D02*
X111125000Y-109093000D01*
X112903000Y-105410000D02*
X112903000Y-107315000D01*
X113792000Y-104521000D02*
X112903000Y-105410000D01*
X115570000Y-104521000D02*
X113792000Y-104521000D01*
X116100000Y-103991000D02*
X115570000Y-104521000D01*
X116100000Y-101300000D02*
X116100000Y-103991000D01*
X111125000Y-113411000D02*
X111125000Y-113919000D01*
X111125000Y-113919000D02*
X108458000Y-116586000D01*
X108458000Y-116586000D02*
X100457000Y-116586000D01*
X100457000Y-116586000D02*
X97917000Y-114046000D01*
X97917000Y-114046000D02*
X96647000Y-114046000D01*
D26*
X98906061Y-134729582D02*
X101600000Y-137423521D01*
X89617476Y-134729582D02*
X98906061Y-134729582D01*
X82600000Y-128300000D02*
X83187894Y-128300000D01*
X83187894Y-128300000D02*
X89617476Y-134729582D01*
X101600000Y-137423521D02*
X101600000Y-138085820D01*
D23*
X106934000Y-86868000D02*
X105776000Y-85710000D01*
X93472000Y-110490000D02*
X97374851Y-110490000D01*
X105776000Y-85710000D02*
X90790000Y-85710000D01*
X90790000Y-85710000D02*
X89154000Y-87346000D01*
X89154000Y-87346000D02*
X89154000Y-106172000D01*
X89154000Y-106172000D02*
X93472000Y-110490000D01*
X97374851Y-110490000D02*
X98679000Y-110490000D01*
D26*
X94869000Y-112995851D02*
X97374851Y-110490000D01*
X86741000Y-125095000D02*
X86741000Y-124005000D01*
X87683909Y-123062091D02*
X89179249Y-123062091D01*
X86741000Y-124005000D02*
X87683909Y-123062091D01*
X89179249Y-123062091D02*
X94869000Y-117372340D01*
X94869000Y-117372340D02*
X94869000Y-112995851D01*
D23*
X99637315Y-110490012D02*
X100203000Y-110490012D01*
X98367327Y-110490012D02*
X99637315Y-110490012D01*
X106159825Y-103632000D02*
X105410000Y-103632000D01*
D26*
X91200000Y-123600000D02*
X90800001Y-123200001D01*
X90800001Y-123200001D02*
X90800001Y-122305999D01*
X97396311Y-111391689D02*
X104406689Y-111391689D01*
X90800001Y-122305999D02*
X95377000Y-117729000D01*
X95377000Y-117729000D02*
X95377000Y-113411000D01*
X106172000Y-113792000D02*
X106553000Y-114173000D01*
X95377000Y-113411000D02*
X97396311Y-111391689D01*
X108077000Y-106114860D02*
X105994139Y-104031999D01*
X105994139Y-104031999D02*
X105594140Y-103632000D01*
X104406689Y-111391689D02*
X106172000Y-113157000D01*
X106172000Y-113157000D02*
X106172000Y-113792000D01*
X106553000Y-114173000D02*
X107442000Y-114173000D01*
X107442000Y-114173000D02*
X108077000Y-113538000D01*
X108077000Y-113538000D02*
X108077000Y-106114860D01*
D23*
X107100000Y-92622000D02*
X107100000Y-102691825D01*
X103378000Y-88900000D02*
X107100000Y-92622000D01*
X107100000Y-102691825D02*
X106159825Y-103632000D01*
X106159825Y-103632000D02*
X105594140Y-103632000D01*
X99822000Y-88900000D02*
X103378000Y-88900000D01*
X92583000Y-88011000D02*
X92583000Y-97917000D01*
X99940734Y-99441000D02*
X104100001Y-103600267D01*
X91440000Y-86868000D02*
X92583000Y-88011000D01*
X92583000Y-97917000D02*
X94107000Y-99441000D01*
X104100001Y-103600267D02*
X104500000Y-104000266D01*
X94107000Y-99441000D02*
X99940734Y-99441000D01*
X91440000Y-98425000D02*
X93535500Y-100520500D01*
X98399825Y-100520500D02*
X104725668Y-106846343D01*
X104725668Y-106846343D02*
X105291353Y-106846343D01*
X93535500Y-100520500D02*
X98399825Y-100520500D01*
X91440000Y-91313000D02*
X91440000Y-98425000D01*
D26*
X91300000Y-128250000D02*
X91300000Y-129099990D01*
X91300000Y-129099990D02*
X93080898Y-130880888D01*
X93080898Y-130880888D02*
X99614559Y-130880888D01*
X105793921Y-135130921D02*
X106496951Y-135833951D01*
X99614559Y-130880888D02*
X103864592Y-135130921D01*
X106496951Y-136722951D02*
X107061000Y-137287000D01*
X103864592Y-135130921D02*
X105793921Y-135130921D01*
X106496951Y-135833951D02*
X106496951Y-136722951D01*
X104265850Y-136142850D02*
X105792150Y-136142850D01*
X90932000Y-126492000D02*
X89789000Y-126492000D01*
X92902038Y-131312698D02*
X99435698Y-131312698D01*
X89281000Y-127000000D02*
X89281000Y-127691660D01*
X89281000Y-127691660D02*
X92902038Y-131312698D01*
X89789000Y-126492000D02*
X89281000Y-127000000D01*
X99435698Y-131312698D02*
X104265850Y-136142850D01*
D23*
X114808000Y-98700359D02*
X114808000Y-82543617D01*
X109340699Y-113544301D02*
X109340699Y-104167660D01*
X107950000Y-114935000D02*
X109340699Y-113544301D01*
X105029000Y-113792000D02*
X106172000Y-114935000D01*
X105029000Y-113157000D02*
X105029000Y-113792000D01*
X114808000Y-82543617D02*
X114808000Y-81915000D01*
X106172000Y-114935000D02*
X107950000Y-114935000D01*
X99012291Y-113211397D02*
X100082688Y-112141000D01*
X109340699Y-104167660D02*
X114808000Y-98700359D01*
X104013000Y-112141000D02*
X105029000Y-113157000D01*
X100082688Y-112141000D02*
X104013000Y-112141000D01*
D26*
X99243121Y-131744500D02*
X103632000Y-136133379D01*
X88773000Y-126688315D02*
X88773000Y-127794320D01*
X91440000Y-124587000D02*
X90874315Y-124587000D01*
X90874315Y-124587000D02*
X88773000Y-126688315D01*
X92723180Y-131744500D02*
X99243121Y-131744500D01*
X88773000Y-127794320D02*
X92723180Y-131744500D01*
X103632000Y-136133379D02*
X103632000Y-138085820D01*
D23*
X105537509Y-101941532D02*
X105537509Y-102507217D01*
X104394000Y-91694000D02*
X105537509Y-92837509D01*
X105537509Y-92837509D02*
X105537509Y-101941532D01*
X91313000Y-90170000D02*
X90684383Y-90170000D01*
X90684383Y-90170000D02*
X90297000Y-90557383D01*
X90297000Y-90557383D02*
X90297000Y-105918029D01*
X90297000Y-105918029D02*
X92074971Y-107696000D01*
X92074971Y-107696000D02*
X101798954Y-107696000D01*
X101798954Y-107696000D02*
X107051383Y-112948429D01*
X107051383Y-112948429D02*
X107051383Y-113293617D01*
X104983274Y-109169221D02*
X105383273Y-109569220D01*
X97795053Y-101981000D02*
X104983274Y-109169221D01*
X91440000Y-101981000D02*
X97795053Y-101981000D01*
D26*
X105086199Y-117532199D02*
X100782414Y-117532199D01*
X100505015Y-117809598D02*
X100505015Y-118375283D01*
X107569000Y-120015000D02*
X105086199Y-117532199D01*
X107569000Y-122871480D02*
X107569000Y-120015000D01*
X105181969Y-125258511D02*
X107569000Y-122871480D01*
X100782414Y-117532199D02*
X100505015Y-117809598D01*
X108331000Y-123106245D02*
X105090994Y-126346251D01*
X105090994Y-126346251D02*
X105090994Y-126647361D01*
X107061000Y-118237000D02*
X108331000Y-119507000D01*
X108331000Y-119507000D02*
X108331000Y-123106245D01*
X104243485Y-127116759D02*
X104643484Y-127516758D01*
X106934000Y-122463374D02*
X104243485Y-125153889D01*
X106934000Y-120396000D02*
X106934000Y-122463374D01*
X104243485Y-125153889D02*
X104243485Y-127116759D01*
X104902000Y-118364000D02*
X106934000Y-120396000D01*
X106426000Y-120904004D02*
X104285995Y-118763999D01*
X106426000Y-121920000D02*
X106426000Y-120904004D01*
X104285995Y-118763999D02*
X103885996Y-118364000D01*
X103632000Y-127889000D02*
X103632000Y-124714000D01*
X103632000Y-124714000D02*
X106426000Y-121920000D01*
X100735328Y-127635000D02*
X100203000Y-127635000D01*
X102108000Y-124460000D02*
X102108000Y-126262328D01*
X104394000Y-122174000D02*
X102108000Y-124460000D01*
X104394000Y-120269000D02*
X104394000Y-122174000D01*
X102489000Y-118364000D02*
X104394000Y-120269000D01*
X102108000Y-126262328D02*
X100735328Y-127635000D01*
X100584000Y-124206000D02*
X100584000Y-126053315D01*
X103378000Y-121412000D02*
X100584000Y-124206000D01*
X100584000Y-126053315D02*
X100584000Y-126619000D01*
X92200000Y-127000000D02*
X92200000Y-127002000D01*
X90200000Y-127300000D02*
X91900000Y-127300000D01*
X93599000Y-125603000D02*
X92200000Y-127002000D01*
X91900000Y-127300000D02*
X92200000Y-127000000D01*
X97917000Y-125603000D02*
X93599000Y-125603000D01*
X98850000Y-126650000D02*
X97917000Y-125603000D01*
X88292526Y-124092526D02*
X88100000Y-123900000D01*
X88292526Y-129652290D02*
X88292526Y-124092526D01*
X104775000Y-132588000D02*
X105587811Y-131775189D01*
X105587811Y-131775189D02*
X105587811Y-129743189D01*
X105587811Y-129743189D02*
X113334811Y-121996189D01*
X113334811Y-121996189D02*
X113334811Y-112981729D01*
X113334811Y-112981729D02*
X113650001Y-112666539D01*
X113650001Y-112666539D02*
X114300000Y-112016540D01*
X101872999Y-128978581D02*
X104496075Y-128978581D01*
X112014000Y-121460656D02*
X112014000Y-110299500D01*
X104496075Y-128978581D02*
X112014000Y-121460656D01*
X101473000Y-128578582D02*
X101872999Y-128978581D01*
X112014000Y-110299500D02*
X113650001Y-108663499D01*
X113650001Y-108663499D02*
X114300000Y-108013500D01*
X103777991Y-131336999D02*
X103377992Y-130937000D01*
X105156000Y-130867685D02*
X104559674Y-131464011D01*
X112903000Y-121793000D02*
X105156000Y-129540000D01*
X112903000Y-112000434D02*
X112903000Y-121793000D01*
X115316000Y-107030520D02*
X115316000Y-110412126D01*
X105156000Y-129540000D02*
X105156000Y-130867685D01*
X114300000Y-106014520D02*
X115316000Y-107030520D01*
X103905003Y-131464011D02*
X103777991Y-131336999D01*
X104559674Y-131464011D02*
X103905003Y-131464011D01*
X114730126Y-110998000D02*
X113905434Y-110998000D01*
X115316000Y-110412126D02*
X114730126Y-110998000D01*
X113905434Y-110998000D02*
X112903000Y-112000434D01*
X100711000Y-129540000D02*
X104545328Y-129540000D01*
X104545328Y-129540000D02*
X112471189Y-121614139D01*
X112471189Y-121614139D02*
X112471189Y-110924593D01*
X112471189Y-110924593D02*
X113380762Y-110015020D01*
X113380762Y-110015020D02*
X114300000Y-110015020D01*
X100711000Y-129032000D02*
X100711000Y-129540000D01*
X100711000Y-129540000D02*
X103378000Y-132207000D01*
X103378000Y-132207000D02*
X103632000Y-132207000D01*
X102489000Y-128156220D02*
X102089001Y-127756221D01*
X102089001Y-127756221D02*
X101224779Y-127756221D01*
X100711000Y-128270000D02*
X100711000Y-129032000D01*
X101224779Y-127756221D02*
X100711000Y-128270000D01*
G36*
X92978086Y-110983914D02*
X93027942Y-111024866D01*
X93077371Y-111066342D01*
X93080589Y-111068111D01*
X93083428Y-111070443D01*
X93140288Y-111100931D01*
X93196832Y-111132016D01*
X93200334Y-111133127D01*
X93203570Y-111134862D01*
X93265244Y-111153717D01*
X93326774Y-111173236D01*
X93330426Y-111173646D01*
X93333937Y-111174719D01*
X93398114Y-111181238D01*
X93462247Y-111188432D01*
X93469425Y-111188482D01*
X93469562Y-111188496D01*
X93469690Y-111188484D01*
X93472000Y-111188500D01*
X95957930Y-111188500D01*
X94509790Y-112636641D01*
X94480024Y-112672879D01*
X94449842Y-112708848D01*
X94448554Y-112711190D01*
X94446860Y-112713253D01*
X94424690Y-112754600D01*
X94418975Y-112764995D01*
X94353260Y-112720670D01*
X94212065Y-112661318D01*
X94062032Y-112630520D01*
X93908873Y-112629451D01*
X93758424Y-112658151D01*
X93616415Y-112715526D01*
X93488254Y-112799392D01*
X93378824Y-112906554D01*
X93292293Y-113032930D01*
X93231956Y-113173706D01*
X93200112Y-113323522D01*
X93197973Y-113476669D01*
X93225622Y-113627314D01*
X93282005Y-113769721D01*
X93364974Y-113898464D01*
X93471369Y-114008639D01*
X93597138Y-114096051D01*
X93737490Y-114157369D01*
X93887079Y-114190258D01*
X94040207Y-114193466D01*
X94191043Y-114166870D01*
X94333839Y-114111483D01*
X94361000Y-114094246D01*
X94361000Y-117161920D01*
X91965076Y-119557844D01*
X91978591Y-119498359D01*
X91981034Y-119323419D01*
X91951284Y-119173174D01*
X91892919Y-119031569D01*
X91808160Y-118903997D01*
X91700237Y-118795317D01*
X91573260Y-118709670D01*
X91432065Y-118650318D01*
X91282032Y-118619520D01*
X91128873Y-118618451D01*
X90978424Y-118647151D01*
X90836415Y-118704526D01*
X90708254Y-118788392D01*
X90598824Y-118895554D01*
X90512293Y-119021930D01*
X90451956Y-119162706D01*
X90420112Y-119312522D01*
X90417973Y-119465669D01*
X90445622Y-119616314D01*
X90502005Y-119758721D01*
X90584974Y-119887464D01*
X90691369Y-119997639D01*
X90817138Y-120085051D01*
X90957490Y-120146369D01*
X91107079Y-120179258D01*
X91260207Y-120182466D01*
X91357632Y-120165288D01*
X88968829Y-122554091D01*
X87683909Y-122554091D01*
X87637201Y-122558671D01*
X87590462Y-122562760D01*
X87587897Y-122563505D01*
X87585238Y-122563766D01*
X87540341Y-122577321D01*
X87495254Y-122590420D01*
X87492880Y-122591651D01*
X87490325Y-122592422D01*
X87448932Y-122614431D01*
X87407232Y-122636046D01*
X87405143Y-122637714D01*
X87402786Y-122638967D01*
X87366431Y-122668618D01*
X87329750Y-122697900D01*
X87326034Y-122701565D01*
X87325955Y-122701629D01*
X87325895Y-122701702D01*
X87324699Y-122702881D01*
X86381790Y-123645790D01*
X86352024Y-123682028D01*
X86321842Y-123717997D01*
X86320554Y-123720339D01*
X86318860Y-123722402D01*
X86296690Y-123763749D01*
X86274079Y-123804878D01*
X86273272Y-123807423D01*
X86272009Y-123809778D01*
X86258284Y-123854670D01*
X86244101Y-123899381D01*
X86243803Y-123902034D01*
X86243022Y-123904590D01*
X86238276Y-123951313D01*
X86233050Y-123997907D01*
X86233013Y-124003127D01*
X86233003Y-124003227D01*
X86233012Y-124003321D01*
X86233000Y-124005000D01*
X86233000Y-124499309D01*
X86139824Y-124590554D01*
X86053293Y-124716930D01*
X85992956Y-124857706D01*
X85961112Y-125007522D01*
X85958973Y-125160669D01*
X85986622Y-125311314D01*
X86043005Y-125453721D01*
X86125974Y-125582464D01*
X86232369Y-125692639D01*
X86358138Y-125780051D01*
X86498490Y-125841369D01*
X86648079Y-125874258D01*
X86801207Y-125877466D01*
X86952043Y-125850870D01*
X87094839Y-125795483D01*
X87224158Y-125713414D01*
X87335074Y-125607791D01*
X87423361Y-125482635D01*
X87485658Y-125342715D01*
X87519591Y-125193359D01*
X87522034Y-125018419D01*
X87492284Y-124868174D01*
X87433919Y-124726569D01*
X87349160Y-124598997D01*
X87249000Y-124498134D01*
X87249000Y-124215420D01*
X87346327Y-124118093D01*
X87402005Y-124258721D01*
X87484974Y-124387464D01*
X87591369Y-124497639D01*
X87717138Y-124585051D01*
X87784526Y-124614492D01*
X87784526Y-129056599D01*
X87691350Y-129147844D01*
X87604819Y-129274220D01*
X87544482Y-129414996D01*
X87512638Y-129564812D01*
X87510499Y-129717959D01*
X87538148Y-129868604D01*
X87594531Y-130011011D01*
X87677500Y-130139754D01*
X87783895Y-130249929D01*
X87909664Y-130337341D01*
X88050016Y-130398659D01*
X88199605Y-130431548D01*
X88352733Y-130434756D01*
X88503569Y-130408160D01*
X88646365Y-130352773D01*
X88775684Y-130270704D01*
X88886600Y-130165081D01*
X88974887Y-130039925D01*
X89037184Y-129900005D01*
X89071117Y-129750649D01*
X89073560Y-129575709D01*
X89043810Y-129425464D01*
X88985445Y-129283859D01*
X88900686Y-129156287D01*
X88800526Y-129055424D01*
X88800526Y-128540266D01*
X92363970Y-132103710D01*
X92400208Y-132133476D01*
X92436177Y-132163658D01*
X92438519Y-132164946D01*
X92440582Y-132166640D01*
X92481929Y-132188810D01*
X92523058Y-132211421D01*
X92525603Y-132212228D01*
X92527958Y-132213491D01*
X92572850Y-132227216D01*
X92617561Y-132241399D01*
X92620214Y-132241697D01*
X92622770Y-132242478D01*
X92669498Y-132247224D01*
X92716087Y-132252450D01*
X92721305Y-132252487D01*
X92721406Y-132252497D01*
X92721500Y-132252488D01*
X92723180Y-132252500D01*
X92965144Y-132252500D01*
X92917605Y-132321930D01*
X92857268Y-132462706D01*
X92825424Y-132612522D01*
X92823285Y-132765669D01*
X92850934Y-132916314D01*
X92907317Y-133058721D01*
X92990286Y-133187464D01*
X93096681Y-133297639D01*
X93222450Y-133385051D01*
X93362802Y-133446369D01*
X93512391Y-133479258D01*
X93665519Y-133482466D01*
X93816355Y-133455870D01*
X93919999Y-133415669D01*
X96245973Y-133415669D01*
X96273622Y-133566314D01*
X96330005Y-133708721D01*
X96412974Y-133837464D01*
X96519369Y-133947639D01*
X96645138Y-134035051D01*
X96785490Y-134096369D01*
X96935079Y-134129258D01*
X97088207Y-134132466D01*
X97239043Y-134105870D01*
X97381839Y-134050483D01*
X97511158Y-133968414D01*
X97622074Y-133862791D01*
X97710361Y-133737635D01*
X97772658Y-133597715D01*
X97806591Y-133448359D01*
X97809034Y-133273419D01*
X97779284Y-133123174D01*
X97720919Y-132981569D01*
X97636160Y-132853997D01*
X97528237Y-132745317D01*
X97401260Y-132659670D01*
X97260065Y-132600318D01*
X97110032Y-132569520D01*
X96956873Y-132568451D01*
X96806424Y-132597151D01*
X96664415Y-132654526D01*
X96536254Y-132738392D01*
X96426824Y-132845554D01*
X96340293Y-132971930D01*
X96279956Y-133112706D01*
X96248112Y-133262522D01*
X96245973Y-133415669D01*
X93919999Y-133415669D01*
X93959151Y-133400483D01*
X94088470Y-133318414D01*
X94199386Y-133212791D01*
X94287673Y-133087635D01*
X94349970Y-132947715D01*
X94383903Y-132798359D01*
X94386346Y-132623419D01*
X94356596Y-132473174D01*
X94298231Y-132331569D01*
X94245697Y-132252500D01*
X98568391Y-132252500D01*
X98499293Y-132353415D01*
X98438956Y-132494191D01*
X98407112Y-132644007D01*
X98404973Y-132797154D01*
X98432622Y-132947799D01*
X98489005Y-133090206D01*
X98571974Y-133218949D01*
X98678369Y-133329124D01*
X98804138Y-133416536D01*
X98944490Y-133477854D01*
X99017559Y-133493919D01*
X99011340Y-133496432D01*
X98883179Y-133580298D01*
X98773749Y-133687460D01*
X98687218Y-133813836D01*
X98626881Y-133954612D01*
X98595037Y-134104428D01*
X98593401Y-134221582D01*
X89827896Y-134221582D01*
X88349409Y-132743095D01*
X88671419Y-132743095D01*
X88699068Y-132893740D01*
X88755451Y-133036147D01*
X88838420Y-133164890D01*
X88944815Y-133275065D01*
X89070584Y-133362477D01*
X89210936Y-133423795D01*
X89360525Y-133456684D01*
X89513653Y-133459892D01*
X89664489Y-133433296D01*
X89807285Y-133377909D01*
X89936604Y-133295840D01*
X90047520Y-133190217D01*
X90135807Y-133065061D01*
X90198104Y-132925141D01*
X90232037Y-132775785D01*
X90234480Y-132600845D01*
X90204730Y-132450600D01*
X90146365Y-132308995D01*
X90061606Y-132181423D01*
X89953683Y-132072743D01*
X89826706Y-131987096D01*
X89685511Y-131927744D01*
X89535478Y-131896946D01*
X89382319Y-131895877D01*
X89231870Y-131924577D01*
X89089861Y-131981952D01*
X88961700Y-132065818D01*
X88852270Y-132172980D01*
X88765739Y-132299356D01*
X88705402Y-132440132D01*
X88673558Y-132589948D01*
X88671419Y-132743095D01*
X88349409Y-132743095D01*
X83939461Y-128333147D01*
X85717973Y-128333147D01*
X85745622Y-128483792D01*
X85802005Y-128626199D01*
X85884974Y-128754942D01*
X85991369Y-128865117D01*
X86117138Y-128952529D01*
X86257490Y-129013847D01*
X86407079Y-129046736D01*
X86560207Y-129049944D01*
X86711043Y-129023348D01*
X86853839Y-128967961D01*
X86983158Y-128885892D01*
X87094074Y-128780269D01*
X87182361Y-128655113D01*
X87244658Y-128515193D01*
X87278591Y-128365837D01*
X87281034Y-128190897D01*
X87251284Y-128040652D01*
X87192919Y-127899047D01*
X87108160Y-127771475D01*
X87000237Y-127662795D01*
X86873260Y-127577148D01*
X86732065Y-127517796D01*
X86582032Y-127486998D01*
X86428873Y-127485929D01*
X86278424Y-127514629D01*
X86136415Y-127572004D01*
X86008254Y-127655870D01*
X85898824Y-127763032D01*
X85812293Y-127889408D01*
X85751956Y-128030184D01*
X85720112Y-128180000D01*
X85717973Y-128333147D01*
X83939461Y-128333147D01*
X83547104Y-127940790D01*
X83510866Y-127911024D01*
X83474897Y-127880842D01*
X83472555Y-127879554D01*
X83470492Y-127877860D01*
X83429145Y-127855690D01*
X83388016Y-127833079D01*
X83385471Y-127832272D01*
X83383116Y-127831009D01*
X83338224Y-127817284D01*
X83293513Y-127803101D01*
X83290860Y-127802803D01*
X83288304Y-127802022D01*
X83241581Y-127797276D01*
X83196460Y-127792215D01*
X83100237Y-127695317D01*
X82973260Y-127609670D01*
X82832065Y-127550318D01*
X82682032Y-127519520D01*
X82528873Y-127518451D01*
X82378424Y-127547151D01*
X82236415Y-127604526D01*
X82108254Y-127688392D01*
X81998824Y-127795554D01*
X81912293Y-127921930D01*
X81851956Y-128062706D01*
X81820112Y-128212522D01*
X81817973Y-128365669D01*
X81845622Y-128516314D01*
X81902005Y-128658721D01*
X81984974Y-128787464D01*
X82091369Y-128897639D01*
X82217138Y-128985051D01*
X82288628Y-129016284D01*
X82145291Y-129110081D01*
X82021849Y-129230964D01*
X81924238Y-129373521D01*
X81856176Y-129532323D01*
X81820254Y-129701321D01*
X81817842Y-129874077D01*
X81849031Y-130044012D01*
X81912633Y-130204652D01*
X82006225Y-130349879D01*
X82126243Y-130474162D01*
X82268116Y-130572766D01*
X82426439Y-130641935D01*
X82595181Y-130679036D01*
X82767917Y-130682654D01*
X82938065Y-130652652D01*
X83099145Y-130590173D01*
X83232273Y-130505688D01*
X83284974Y-130587464D01*
X83391369Y-130697639D01*
X83517138Y-130785051D01*
X83657490Y-130846369D01*
X83807079Y-130879258D01*
X83960207Y-130882466D01*
X84111043Y-130855870D01*
X84253839Y-130800483D01*
X84383158Y-130718414D01*
X84494074Y-130612791D01*
X84582361Y-130487635D01*
X84605389Y-130435915D01*
X89258266Y-135088792D01*
X89294504Y-135118558D01*
X89330473Y-135148740D01*
X89332815Y-135150028D01*
X89334878Y-135151722D01*
X89376225Y-135173892D01*
X89417354Y-135196503D01*
X89419899Y-135197310D01*
X89422254Y-135198573D01*
X89467146Y-135212298D01*
X89511857Y-135226481D01*
X89514510Y-135226779D01*
X89517066Y-135227560D01*
X89563789Y-135232306D01*
X89610383Y-135237532D01*
X89615603Y-135237569D01*
X89615703Y-135237579D01*
X89615797Y-135237570D01*
X89617476Y-135237582D01*
X98695641Y-135237582D01*
X101019341Y-137561282D01*
X100998824Y-137581374D01*
X100912293Y-137707750D01*
X100851956Y-137848526D01*
X100820112Y-137998342D01*
X100817973Y-138151489D01*
X100845622Y-138302134D01*
X100902005Y-138444541D01*
X100966102Y-138544000D01*
X84500000Y-138544000D01*
X84457272Y-138548189D01*
X84414554Y-138552077D01*
X84413022Y-138552528D01*
X84411429Y-138552684D01*
X84370337Y-138565091D01*
X84329179Y-138577204D01*
X84327761Y-138577945D01*
X84326232Y-138578407D01*
X84288388Y-138598529D01*
X84250311Y-138618435D01*
X84249063Y-138619438D01*
X84247653Y-138620188D01*
X84214431Y-138647284D01*
X84180954Y-138674200D01*
X84179925Y-138675426D01*
X84178687Y-138676436D01*
X84151358Y-138709471D01*
X84123748Y-138742375D01*
X84122977Y-138743777D01*
X84121959Y-138745008D01*
X84101566Y-138782723D01*
X84080874Y-138820362D01*
X84080390Y-138821887D01*
X84079630Y-138823293D01*
X84066940Y-138864289D01*
X84064177Y-138873000D01*
X78956000Y-138873000D01*
X78956000Y-128442559D01*
X79017138Y-128485051D01*
X79157490Y-128546369D01*
X79307079Y-128579258D01*
X79460207Y-128582466D01*
X79502000Y-128575097D01*
X79502000Y-133718000D01*
X79511159Y-133811407D01*
X79519338Y-133904895D01*
X79520829Y-133910026D01*
X79521350Y-133915342D01*
X79548469Y-134005166D01*
X79574658Y-134095310D01*
X79577117Y-134100054D01*
X79578661Y-134105168D01*
X79622732Y-134188053D01*
X79665911Y-134271353D01*
X79669242Y-134275526D01*
X79671752Y-134280246D01*
X79731074Y-134352982D01*
X79789618Y-134426319D01*
X79796949Y-134433752D01*
X79797076Y-134433908D01*
X79797220Y-134434027D01*
X79799580Y-134436420D01*
X81086460Y-135723301D01*
X81083197Y-137017552D01*
X81068968Y-137084493D01*
X81066144Y-137286709D01*
X81102652Y-137485624D01*
X81177100Y-137673659D01*
X81286653Y-137843652D01*
X81427139Y-137989129D01*
X81593205Y-138104548D01*
X81778527Y-138185513D01*
X81976046Y-138228941D01*
X82178239Y-138233176D01*
X82377403Y-138198058D01*
X82565953Y-138124924D01*
X82736707Y-138016560D01*
X82883161Y-137877094D01*
X82999737Y-137711837D01*
X83081994Y-137527085D01*
X83098471Y-137454561D01*
X83104172Y-137485624D01*
X83178620Y-137673659D01*
X83288173Y-137843652D01*
X83428659Y-137989129D01*
X83594725Y-138104548D01*
X83780047Y-138185513D01*
X83977566Y-138228941D01*
X84179759Y-138233176D01*
X84378923Y-138198058D01*
X84567473Y-138124924D01*
X84738227Y-138016560D01*
X84884681Y-137877094D01*
X85001257Y-137711837D01*
X85083514Y-137527085D01*
X85098586Y-137460745D01*
X85103152Y-137485624D01*
X85177600Y-137673659D01*
X85287153Y-137843652D01*
X85427639Y-137989129D01*
X85593705Y-138104548D01*
X85779027Y-138185513D01*
X85976546Y-138228941D01*
X86178739Y-138233176D01*
X86377903Y-138198058D01*
X86566453Y-138124924D01*
X86737207Y-138016560D01*
X86883661Y-137877094D01*
X87000237Y-137711837D01*
X87082494Y-137527085D01*
X87098971Y-137454561D01*
X87104672Y-137485624D01*
X87179120Y-137673659D01*
X87288673Y-137843652D01*
X87429159Y-137989129D01*
X87595225Y-138104548D01*
X87780547Y-138185513D01*
X87978066Y-138228941D01*
X88180259Y-138233176D01*
X88379423Y-138198058D01*
X88567973Y-138124924D01*
X88738727Y-138016560D01*
X88885181Y-137877094D01*
X89001757Y-137711837D01*
X89084014Y-137527085D01*
X89099086Y-137460745D01*
X89103652Y-137485624D01*
X89178100Y-137673659D01*
X89287653Y-137843652D01*
X89428139Y-137989129D01*
X89594205Y-138104548D01*
X89779527Y-138185513D01*
X89977046Y-138228941D01*
X90179239Y-138233176D01*
X90378403Y-138198058D01*
X90566953Y-138124924D01*
X90737707Y-138016560D01*
X90884161Y-137877094D01*
X90895997Y-137860314D01*
X91485847Y-137860314D01*
X91548171Y-138015279D01*
X91717852Y-138107516D01*
X91902267Y-138164878D01*
X92094329Y-138185160D01*
X92286658Y-138167582D01*
X92471862Y-138112821D01*
X92642823Y-138022980D01*
X92654349Y-138015279D01*
X92716672Y-137860316D01*
X92775003Y-137918647D01*
X92781813Y-137911837D01*
X92856974Y-138028464D01*
X92963369Y-138138639D01*
X93089138Y-138226051D01*
X93229490Y-138287369D01*
X93379079Y-138320258D01*
X93532207Y-138323466D01*
X93683043Y-138296870D01*
X93825839Y-138241483D01*
X93955158Y-138159414D01*
X94066074Y-138053791D01*
X94154361Y-137928635D01*
X94216658Y-137788715D01*
X94250591Y-137639359D01*
X94253034Y-137464419D01*
X94223284Y-137314174D01*
X94186806Y-137225669D01*
X94848973Y-137225669D01*
X94876622Y-137376314D01*
X94933005Y-137518721D01*
X95015974Y-137647464D01*
X95122369Y-137757639D01*
X95248138Y-137845051D01*
X95388490Y-137906369D01*
X95538079Y-137939258D01*
X95691207Y-137942466D01*
X95842043Y-137915870D01*
X95984839Y-137860483D01*
X96114158Y-137778414D01*
X96225074Y-137672791D01*
X96313361Y-137547635D01*
X96375658Y-137407715D01*
X96409591Y-137258359D01*
X96412034Y-137083419D01*
X96382284Y-136933174D01*
X96323919Y-136791569D01*
X96239160Y-136663997D01*
X96131237Y-136555317D01*
X96004260Y-136469670D01*
X95863065Y-136410318D01*
X95713032Y-136379520D01*
X95559873Y-136378451D01*
X95409424Y-136407151D01*
X95267415Y-136464526D01*
X95139254Y-136548392D01*
X95029824Y-136655554D01*
X94943293Y-136781930D01*
X94882956Y-136922706D01*
X94851112Y-137072522D01*
X94848973Y-137225669D01*
X94186806Y-137225669D01*
X94164919Y-137172569D01*
X94080160Y-137044997D01*
X93972237Y-136936317D01*
X93845260Y-136850670D01*
X93704065Y-136791318D01*
X93554032Y-136760520D01*
X93400873Y-136759451D01*
X93250424Y-136788151D01*
X93108415Y-136845526D01*
X93033370Y-136894634D01*
X93014081Y-136829398D01*
X92924240Y-136658437D01*
X92916539Y-136646911D01*
X92761574Y-136584587D01*
X92146161Y-137200000D01*
X92160304Y-137214143D01*
X92115403Y-137259044D01*
X92101260Y-137244901D01*
X91485847Y-137860314D01*
X90895997Y-137860314D01*
X91000737Y-137711837D01*
X91082994Y-137527085D01*
X91127799Y-137329874D01*
X91127906Y-137322239D01*
X91133678Y-137385398D01*
X91188439Y-137570602D01*
X91278280Y-137741563D01*
X91285981Y-137753089D01*
X91440946Y-137815413D01*
X92056359Y-137200000D01*
X91440946Y-136584587D01*
X91285981Y-136646911D01*
X91193744Y-136816592D01*
X91136382Y-137001007D01*
X91127778Y-137082487D01*
X91091743Y-136900497D01*
X91014677Y-136713519D01*
X90902761Y-136545072D01*
X90897413Y-136539686D01*
X91485847Y-136539686D01*
X92101260Y-137155099D01*
X92716673Y-136539686D01*
X92654349Y-136384721D01*
X92484668Y-136292484D01*
X92300253Y-136235122D01*
X92108191Y-136214840D01*
X91915862Y-136232418D01*
X91730658Y-136287179D01*
X91559697Y-136377020D01*
X91548171Y-136384721D01*
X91485847Y-136539686D01*
X90897413Y-136539686D01*
X90760258Y-136401571D01*
X90592596Y-136288482D01*
X90406162Y-136210112D01*
X90208056Y-136169447D01*
X90005824Y-136168035D01*
X89807169Y-136205930D01*
X89619659Y-136281689D01*
X89450434Y-136392427D01*
X89305942Y-136533924D01*
X89191685Y-136700792D01*
X89112015Y-136886675D01*
X89100631Y-136940233D01*
X89092763Y-136900497D01*
X89015697Y-136713519D01*
X88903781Y-136545072D01*
X88761278Y-136401571D01*
X88593616Y-136288482D01*
X88407182Y-136210112D01*
X88209076Y-136169447D01*
X88006844Y-136168035D01*
X87808189Y-136205930D01*
X87620679Y-136281689D01*
X87451454Y-136392427D01*
X87306962Y-136533924D01*
X87192705Y-136700792D01*
X87113035Y-136886675D01*
X87100336Y-136946420D01*
X87091243Y-136900497D01*
X87014177Y-136713519D01*
X86902261Y-136545072D01*
X86759758Y-136401571D01*
X86592096Y-136288482D01*
X86405662Y-136210112D01*
X86207556Y-136169447D01*
X86005324Y-136168035D01*
X85806669Y-136205930D01*
X85619159Y-136281689D01*
X85449934Y-136392427D01*
X85305442Y-136533924D01*
X85191185Y-136700792D01*
X85111515Y-136886675D01*
X85100131Y-136940233D01*
X85092263Y-136900497D01*
X85015197Y-136713519D01*
X84903281Y-136545072D01*
X84760778Y-136401571D01*
X84593116Y-136288482D01*
X84406682Y-136210112D01*
X84208576Y-136169447D01*
X84006344Y-136168035D01*
X83807689Y-136205930D01*
X83620179Y-136281689D01*
X83450954Y-136392427D01*
X83306462Y-136533924D01*
X83192205Y-136700792D01*
X83115551Y-136879637D01*
X83119519Y-135306225D01*
X83119505Y-135306080D01*
X83119522Y-135303663D01*
X83119522Y-135303522D01*
X83110363Y-135210110D01*
X83102184Y-135116628D01*
X83101031Y-135112661D01*
X83100666Y-135108835D01*
X83100318Y-135107673D01*
X83100172Y-135106180D01*
X83073049Y-135016344D01*
X83046864Y-134926212D01*
X83044896Y-134922416D01*
X83043834Y-134918865D01*
X83043333Y-134917917D01*
X83042861Y-134916354D01*
X82998790Y-134833469D01*
X82955611Y-134750169D01*
X82952861Y-134746724D01*
X82951185Y-134743553D01*
X82950592Y-134742823D01*
X82949770Y-134741276D01*
X82890448Y-134668540D01*
X82831904Y-134595203D01*
X82824569Y-134587765D01*
X82824446Y-134587614D01*
X82824306Y-134587498D01*
X82821943Y-134585102D01*
X81534000Y-133297160D01*
X81534000Y-132665669D01*
X84117973Y-132665669D01*
X84145622Y-132816314D01*
X84202005Y-132958721D01*
X84284974Y-133087464D01*
X84391369Y-133197639D01*
X84517138Y-133285051D01*
X84657490Y-133346369D01*
X84807079Y-133379258D01*
X84960207Y-133382466D01*
X85111043Y-133355870D01*
X85253839Y-133300483D01*
X85383158Y-133218414D01*
X85494074Y-133112791D01*
X85582361Y-132987635D01*
X85644658Y-132847715D01*
X85678591Y-132698359D01*
X85681034Y-132523419D01*
X85651284Y-132373174D01*
X85592919Y-132231569D01*
X85508160Y-132103997D01*
X85400237Y-131995317D01*
X85273260Y-131909670D01*
X85132065Y-131850318D01*
X84982032Y-131819520D01*
X84828873Y-131818451D01*
X84678424Y-131847151D01*
X84536415Y-131904526D01*
X84408254Y-131988392D01*
X84298824Y-132095554D01*
X84212293Y-132221930D01*
X84151956Y-132362706D01*
X84120112Y-132512522D01*
X84117973Y-132665669D01*
X81534000Y-132665669D01*
X81534000Y-125874077D01*
X81817842Y-125874077D01*
X81849031Y-126044012D01*
X81912633Y-126204652D01*
X82006225Y-126349879D01*
X82126243Y-126474162D01*
X82268116Y-126572766D01*
X82426439Y-126641935D01*
X82595181Y-126679036D01*
X82767917Y-126682654D01*
X82938065Y-126652652D01*
X83099145Y-126590173D01*
X83245022Y-126497597D01*
X83370140Y-126378449D01*
X83469732Y-126237268D01*
X83540005Y-126079432D01*
X83557447Y-126002661D01*
X83657490Y-126046369D01*
X83807079Y-126079258D01*
X83960207Y-126082466D01*
X84111043Y-126055870D01*
X84253839Y-126000483D01*
X84383158Y-125918414D01*
X84494074Y-125812791D01*
X84582361Y-125687635D01*
X84644658Y-125547715D01*
X84678591Y-125398359D01*
X84681034Y-125223419D01*
X84651284Y-125073174D01*
X84592919Y-124931569D01*
X84508160Y-124803997D01*
X84400237Y-124695317D01*
X84273260Y-124609670D01*
X84132065Y-124550318D01*
X83982032Y-124519520D01*
X83828873Y-124518451D01*
X83678424Y-124547151D01*
X83536415Y-124604526D01*
X83408254Y-124688392D01*
X83298824Y-124795554D01*
X83212293Y-124921930D01*
X83158799Y-125046740D01*
X83121053Y-125021280D01*
X82961779Y-124954327D01*
X82792535Y-124919587D01*
X82619766Y-124918380D01*
X82450054Y-124950755D01*
X82289861Y-125015477D01*
X82145291Y-125110081D01*
X82021849Y-125230964D01*
X81924238Y-125373521D01*
X81856176Y-125532323D01*
X81820254Y-125701321D01*
X81817842Y-125874077D01*
X81534000Y-125874077D01*
X81534000Y-124118840D01*
X86907841Y-118745000D01*
X88119658Y-118745000D01*
X88117973Y-118865669D01*
X88145622Y-119016314D01*
X88202005Y-119158721D01*
X88284974Y-119287464D01*
X88391369Y-119397639D01*
X88517138Y-119485051D01*
X88657490Y-119546369D01*
X88807079Y-119579258D01*
X88960207Y-119582466D01*
X89111043Y-119555870D01*
X89253839Y-119500483D01*
X89383158Y-119418414D01*
X89494074Y-119312791D01*
X89582361Y-119187635D01*
X89644658Y-119047715D01*
X89678591Y-118898359D01*
X89681034Y-118723419D01*
X89651284Y-118573174D01*
X89604365Y-118459339D01*
X89615908Y-118449924D01*
X89742302Y-118297140D01*
X89836613Y-118122716D01*
X89895248Y-117933295D01*
X89915975Y-117736093D01*
X89898004Y-117538621D01*
X89842019Y-117348400D01*
X89750153Y-117172676D01*
X89625904Y-117018142D01*
X89474006Y-116890685D01*
X89300245Y-116795158D01*
X89111238Y-116735202D01*
X88914186Y-116713099D01*
X88900000Y-116713000D01*
X86487000Y-116713000D01*
X86393593Y-116722159D01*
X86300105Y-116730338D01*
X86294974Y-116731829D01*
X86289658Y-116732350D01*
X86199834Y-116759469D01*
X86109690Y-116785658D01*
X86104946Y-116788117D01*
X86099832Y-116789661D01*
X86016947Y-116833732D01*
X85933647Y-116876911D01*
X85929474Y-116880242D01*
X85924754Y-116882752D01*
X85852018Y-116942074D01*
X85778681Y-117000618D01*
X85771243Y-117007953D01*
X85771092Y-117008076D01*
X85770976Y-117008216D01*
X85768580Y-117010579D01*
X79799580Y-122979580D01*
X79740023Y-123052086D01*
X79679685Y-123123994D01*
X79677111Y-123128675D01*
X79673720Y-123132804D01*
X79629372Y-123215512D01*
X79584158Y-123297755D01*
X79582542Y-123302848D01*
X79580018Y-123307556D01*
X79552572Y-123397327D01*
X79524202Y-123486762D01*
X79523607Y-123492068D01*
X79522044Y-123497180D01*
X79512557Y-123590581D01*
X79502099Y-123683814D01*
X79502026Y-123694255D01*
X79502006Y-123694453D01*
X79502023Y-123694638D01*
X79502000Y-123698000D01*
X79502000Y-127023619D01*
X79482032Y-127019520D01*
X79328873Y-127018451D01*
X79178424Y-127047151D01*
X79036415Y-127104526D01*
X78956000Y-127157148D01*
X78956000Y-119842580D01*
X79270170Y-119842580D01*
X79270170Y-120360242D01*
X79282859Y-120424036D01*
X79307751Y-120484128D01*
X79343887Y-120538210D01*
X79389880Y-120584203D01*
X79443962Y-120620340D01*
X79504054Y-120645231D01*
X79567848Y-120657920D01*
X80335700Y-120657920D01*
X80418250Y-120575370D01*
X80418250Y-119760030D01*
X80481750Y-119760030D01*
X80481750Y-120575370D01*
X80564300Y-120657920D01*
X81332152Y-120657920D01*
X81395946Y-120645231D01*
X81456038Y-120620340D01*
X81510120Y-120584203D01*
X81556113Y-120538210D01*
X81592249Y-120484128D01*
X81617141Y-120424036D01*
X81629830Y-120360242D01*
X81629830Y-119842580D01*
X81547280Y-119760030D01*
X80481750Y-119760030D01*
X80418250Y-119760030D01*
X79352720Y-119760030D01*
X79270170Y-119842580D01*
X78956000Y-119842580D01*
X78956000Y-119096318D01*
X79270170Y-119096318D01*
X79270170Y-119613980D01*
X79352720Y-119696530D01*
X80418250Y-119696530D01*
X80418250Y-118881190D01*
X80481750Y-118881190D01*
X80481750Y-119696530D01*
X81547280Y-119696530D01*
X81629830Y-119613980D01*
X81629830Y-119096318D01*
X81617141Y-119032524D01*
X81592249Y-118972432D01*
X81556113Y-118918350D01*
X81510120Y-118872357D01*
X81456038Y-118836220D01*
X81395946Y-118811329D01*
X81332152Y-118798640D01*
X80564300Y-118798640D01*
X80481750Y-118881190D01*
X80418250Y-118881190D01*
X80335700Y-118798640D01*
X79567848Y-118798640D01*
X79504054Y-118811329D01*
X79443962Y-118836220D01*
X79389880Y-118872357D01*
X79343887Y-118918350D01*
X79307751Y-118972432D01*
X79282859Y-119032524D01*
X79270170Y-119096318D01*
X78956000Y-119096318D01*
X78956000Y-117719915D01*
X79213440Y-117719915D01*
X79230782Y-117910476D01*
X79284808Y-118094039D01*
X79373459Y-118263613D01*
X79493358Y-118412738D01*
X79639940Y-118535734D01*
X79807620Y-118627917D01*
X79990011Y-118685775D01*
X80180167Y-118707104D01*
X80193856Y-118707200D01*
X80706144Y-118707200D01*
X80896579Y-118688528D01*
X81079761Y-118633222D01*
X81248711Y-118543389D01*
X81396996Y-118422452D01*
X81518966Y-118275015D01*
X81609976Y-118106696D01*
X81666559Y-117923905D01*
X81686560Y-117733605D01*
X81669218Y-117543044D01*
X81615192Y-117359481D01*
X81526541Y-117189907D01*
X81406642Y-117040782D01*
X81260060Y-116917786D01*
X81092380Y-116825603D01*
X80909989Y-116767745D01*
X80719833Y-116746416D01*
X80706144Y-116746320D01*
X80193856Y-116746320D01*
X80003421Y-116764992D01*
X79820239Y-116820298D01*
X79651289Y-116910131D01*
X79503004Y-117031068D01*
X79381034Y-117178505D01*
X79290024Y-117346824D01*
X79233441Y-117529615D01*
X79213440Y-117719915D01*
X78956000Y-117719915D01*
X78956000Y-115718395D01*
X79213440Y-115718395D01*
X79230782Y-115908956D01*
X79284808Y-116092519D01*
X79373459Y-116262093D01*
X79493358Y-116411218D01*
X79639940Y-116534214D01*
X79807620Y-116626397D01*
X79990011Y-116684255D01*
X80180167Y-116705584D01*
X80193856Y-116705680D01*
X80706144Y-116705680D01*
X80896579Y-116687008D01*
X81079761Y-116631702D01*
X81248711Y-116541869D01*
X81396996Y-116420932D01*
X81518966Y-116273495D01*
X81609976Y-116105176D01*
X81666559Y-115922385D01*
X81686560Y-115732085D01*
X81669218Y-115541524D01*
X81615192Y-115357961D01*
X81526541Y-115188387D01*
X81406642Y-115039262D01*
X81360649Y-115000669D01*
X85196973Y-115000669D01*
X85224622Y-115151314D01*
X85281005Y-115293721D01*
X85363974Y-115422464D01*
X85470369Y-115532639D01*
X85596138Y-115620051D01*
X85736490Y-115681369D01*
X85886079Y-115714258D01*
X86039207Y-115717466D01*
X86190043Y-115690870D01*
X86332839Y-115635483D01*
X86462158Y-115553414D01*
X86573074Y-115447791D01*
X86661361Y-115322635D01*
X86723658Y-115182715D01*
X86757591Y-115033359D01*
X86758047Y-115000669D01*
X90022973Y-115000669D01*
X90050622Y-115151314D01*
X90107005Y-115293721D01*
X90189974Y-115422464D01*
X90296369Y-115532639D01*
X90422138Y-115620051D01*
X90562490Y-115681369D01*
X90712079Y-115714258D01*
X90865207Y-115717466D01*
X91016043Y-115690870D01*
X91158839Y-115635483D01*
X91288158Y-115553414D01*
X91377381Y-115468449D01*
X91439369Y-115532639D01*
X91565138Y-115620051D01*
X91705490Y-115681369D01*
X91855079Y-115714258D01*
X92008207Y-115717466D01*
X92159043Y-115690870D01*
X92301839Y-115635483D01*
X92431158Y-115553414D01*
X92542074Y-115447791D01*
X92630361Y-115322635D01*
X92692658Y-115182715D01*
X92726591Y-115033359D01*
X92729034Y-114858419D01*
X92699284Y-114708174D01*
X92640919Y-114566569D01*
X92556160Y-114438997D01*
X92448237Y-114330317D01*
X92321260Y-114244670D01*
X92180065Y-114185318D01*
X92030032Y-114154520D01*
X91876873Y-114153451D01*
X91726424Y-114182151D01*
X91584415Y-114239526D01*
X91456254Y-114323392D01*
X91376205Y-114401782D01*
X91305237Y-114330317D01*
X91178260Y-114244670D01*
X91037065Y-114185318D01*
X90887032Y-114154520D01*
X90733873Y-114153451D01*
X90583424Y-114182151D01*
X90441415Y-114239526D01*
X90313254Y-114323392D01*
X90203824Y-114430554D01*
X90117293Y-114556930D01*
X90056956Y-114697706D01*
X90025112Y-114847522D01*
X90022973Y-115000669D01*
X86758047Y-115000669D01*
X86760034Y-114858419D01*
X86730284Y-114708174D01*
X86671919Y-114566569D01*
X86587160Y-114438997D01*
X86479237Y-114330317D01*
X86352260Y-114244670D01*
X86211065Y-114185318D01*
X86061032Y-114154520D01*
X85907873Y-114153451D01*
X85757424Y-114182151D01*
X85615415Y-114239526D01*
X85487254Y-114323392D01*
X85377824Y-114430554D01*
X85291293Y-114556930D01*
X85230956Y-114697706D01*
X85199112Y-114847522D01*
X85196973Y-115000669D01*
X81360649Y-115000669D01*
X81260060Y-114916266D01*
X81092380Y-114824083D01*
X80909989Y-114766225D01*
X80719833Y-114744896D01*
X80706144Y-114744800D01*
X80193856Y-114744800D01*
X80003421Y-114763472D01*
X79820239Y-114818778D01*
X79651289Y-114908611D01*
X79503004Y-115029548D01*
X79381034Y-115176985D01*
X79290024Y-115345304D01*
X79233441Y-115528095D01*
X79213440Y-115718395D01*
X78956000Y-115718395D01*
X78956000Y-113719415D01*
X79213440Y-113719415D01*
X79230782Y-113909976D01*
X79284808Y-114093539D01*
X79373459Y-114263113D01*
X79493358Y-114412238D01*
X79639940Y-114535234D01*
X79807620Y-114627417D01*
X79990011Y-114685275D01*
X80180167Y-114706604D01*
X80193856Y-114706700D01*
X80706144Y-114706700D01*
X80896579Y-114688028D01*
X81079761Y-114632722D01*
X81248711Y-114542889D01*
X81396996Y-114421952D01*
X81518966Y-114274515D01*
X81609976Y-114106196D01*
X81666559Y-113923405D01*
X81686560Y-113733105D01*
X81669218Y-113542544D01*
X81615192Y-113358981D01*
X81526541Y-113189407D01*
X81406642Y-113040282D01*
X81260060Y-112917286D01*
X81092380Y-112825103D01*
X80909989Y-112767245D01*
X80719833Y-112745916D01*
X80706144Y-112745820D01*
X80193856Y-112745820D01*
X80003421Y-112764492D01*
X79820239Y-112819798D01*
X79651289Y-112909631D01*
X79503004Y-113030568D01*
X79381034Y-113178005D01*
X79290024Y-113346324D01*
X79233441Y-113529115D01*
X79213440Y-113719415D01*
X78956000Y-113719415D01*
X78956000Y-111186959D01*
X78988479Y-111268991D01*
X79109905Y-111457407D01*
X79265615Y-111618650D01*
X79449679Y-111746577D01*
X79655085Y-111836317D01*
X79874009Y-111884451D01*
X80098114Y-111889145D01*
X80318862Y-111850221D01*
X80527846Y-111769162D01*
X80717106Y-111649054D01*
X80879432Y-111494473D01*
X80898118Y-111467983D01*
X81043615Y-111618650D01*
X81227679Y-111746577D01*
X81433085Y-111836317D01*
X81652009Y-111884451D01*
X81876114Y-111889145D01*
X82096862Y-111850221D01*
X82305846Y-111769162D01*
X82495106Y-111649054D01*
X82657432Y-111494473D01*
X82676118Y-111467983D01*
X82821615Y-111618650D01*
X83005679Y-111746577D01*
X83211085Y-111836317D01*
X83430009Y-111884451D01*
X83654114Y-111889145D01*
X83874862Y-111850221D01*
X84083846Y-111769162D01*
X84273106Y-111649054D01*
X84435432Y-111494473D01*
X84564641Y-111311307D01*
X84655813Y-111106532D01*
X84705473Y-110887949D01*
X84709049Y-110631923D01*
X84665510Y-110412038D01*
X84580092Y-110204798D01*
X84528403Y-110127000D01*
X92121172Y-110127000D01*
X92978086Y-110983914D01*
X92978086Y-110983914D01*
G37*
X92978086Y-110983914D02*
X93027942Y-111024866D01*
X93077371Y-111066342D01*
X93080589Y-111068111D01*
X93083428Y-111070443D01*
X93140288Y-111100931D01*
X93196832Y-111132016D01*
X93200334Y-111133127D01*
X93203570Y-111134862D01*
X93265244Y-111153717D01*
X93326774Y-111173236D01*
X93330426Y-111173646D01*
X93333937Y-111174719D01*
X93398114Y-111181238D01*
X93462247Y-111188432D01*
X93469425Y-111188482D01*
X93469562Y-111188496D01*
X93469690Y-111188484D01*
X93472000Y-111188500D01*
X95957930Y-111188500D01*
X94509790Y-112636641D01*
X94480024Y-112672879D01*
X94449842Y-112708848D01*
X94448554Y-112711190D01*
X94446860Y-112713253D01*
X94424690Y-112754600D01*
X94418975Y-112764995D01*
X94353260Y-112720670D01*
X94212065Y-112661318D01*
X94062032Y-112630520D01*
X93908873Y-112629451D01*
X93758424Y-112658151D01*
X93616415Y-112715526D01*
X93488254Y-112799392D01*
X93378824Y-112906554D01*
X93292293Y-113032930D01*
X93231956Y-113173706D01*
X93200112Y-113323522D01*
X93197973Y-113476669D01*
X93225622Y-113627314D01*
X93282005Y-113769721D01*
X93364974Y-113898464D01*
X93471369Y-114008639D01*
X93597138Y-114096051D01*
X93737490Y-114157369D01*
X93887079Y-114190258D01*
X94040207Y-114193466D01*
X94191043Y-114166870D01*
X94333839Y-114111483D01*
X94361000Y-114094246D01*
X94361000Y-117161920D01*
X91965076Y-119557844D01*
X91978591Y-119498359D01*
X91981034Y-119323419D01*
X91951284Y-119173174D01*
X91892919Y-119031569D01*
X91808160Y-118903997D01*
X91700237Y-118795317D01*
X91573260Y-118709670D01*
X91432065Y-118650318D01*
X91282032Y-118619520D01*
X91128873Y-118618451D01*
X90978424Y-118647151D01*
X90836415Y-118704526D01*
X90708254Y-118788392D01*
X90598824Y-118895554D01*
X90512293Y-119021930D01*
X90451956Y-119162706D01*
X90420112Y-119312522D01*
X90417973Y-119465669D01*
X90445622Y-119616314D01*
X90502005Y-119758721D01*
X90584974Y-119887464D01*
X90691369Y-119997639D01*
X90817138Y-120085051D01*
X90957490Y-120146369D01*
X91107079Y-120179258D01*
X91260207Y-120182466D01*
X91357632Y-120165288D01*
X88968829Y-122554091D01*
X87683909Y-122554091D01*
X87637201Y-122558671D01*
X87590462Y-122562760D01*
X87587897Y-122563505D01*
X87585238Y-122563766D01*
X87540341Y-122577321D01*
X87495254Y-122590420D01*
X87492880Y-122591651D01*
X87490325Y-122592422D01*
X87448932Y-122614431D01*
X87407232Y-122636046D01*
X87405143Y-122637714D01*
X87402786Y-122638967D01*
X87366431Y-122668618D01*
X87329750Y-122697900D01*
X87326034Y-122701565D01*
X87325955Y-122701629D01*
X87325895Y-122701702D01*
X87324699Y-122702881D01*
X86381790Y-123645790D01*
X86352024Y-123682028D01*
X86321842Y-123717997D01*
X86320554Y-123720339D01*
X86318860Y-123722402D01*
X86296690Y-123763749D01*
X86274079Y-123804878D01*
X86273272Y-123807423D01*
X86272009Y-123809778D01*
X86258284Y-123854670D01*
X86244101Y-123899381D01*
X86243803Y-123902034D01*
X86243022Y-123904590D01*
X86238276Y-123951313D01*
X86233050Y-123997907D01*
X86233013Y-124003127D01*
X86233003Y-124003227D01*
X86233012Y-124003321D01*
X86233000Y-124005000D01*
X86233000Y-124499309D01*
X86139824Y-124590554D01*
X86053293Y-124716930D01*
X85992956Y-124857706D01*
X85961112Y-125007522D01*
X85958973Y-125160669D01*
X85986622Y-125311314D01*
X86043005Y-125453721D01*
X86125974Y-125582464D01*
X86232369Y-125692639D01*
X86358138Y-125780051D01*
X86498490Y-125841369D01*
X86648079Y-125874258D01*
X86801207Y-125877466D01*
X86952043Y-125850870D01*
X87094839Y-125795483D01*
X87224158Y-125713414D01*
X87335074Y-125607791D01*
X87423361Y-125482635D01*
X87485658Y-125342715D01*
X87519591Y-125193359D01*
X87522034Y-125018419D01*
X87492284Y-124868174D01*
X87433919Y-124726569D01*
X87349160Y-124598997D01*
X87249000Y-124498134D01*
X87249000Y-124215420D01*
X87346327Y-124118093D01*
X87402005Y-124258721D01*
X87484974Y-124387464D01*
X87591369Y-124497639D01*
X87717138Y-124585051D01*
X87784526Y-124614492D01*
X87784526Y-129056599D01*
X87691350Y-129147844D01*
X87604819Y-129274220D01*
X87544482Y-129414996D01*
X87512638Y-129564812D01*
X87510499Y-129717959D01*
X87538148Y-129868604D01*
X87594531Y-130011011D01*
X87677500Y-130139754D01*
X87783895Y-130249929D01*
X87909664Y-130337341D01*
X88050016Y-130398659D01*
X88199605Y-130431548D01*
X88352733Y-130434756D01*
X88503569Y-130408160D01*
X88646365Y-130352773D01*
X88775684Y-130270704D01*
X88886600Y-130165081D01*
X88974887Y-130039925D01*
X89037184Y-129900005D01*
X89071117Y-129750649D01*
X89073560Y-129575709D01*
X89043810Y-129425464D01*
X88985445Y-129283859D01*
X88900686Y-129156287D01*
X88800526Y-129055424D01*
X88800526Y-128540266D01*
X92363970Y-132103710D01*
X92400208Y-132133476D01*
X92436177Y-132163658D01*
X92438519Y-132164946D01*
X92440582Y-132166640D01*
X92481929Y-132188810D01*
X92523058Y-132211421D01*
X92525603Y-132212228D01*
X92527958Y-132213491D01*
X92572850Y-132227216D01*
X92617561Y-132241399D01*
X92620214Y-132241697D01*
X92622770Y-132242478D01*
X92669498Y-132247224D01*
X92716087Y-132252450D01*
X92721305Y-132252487D01*
X92721406Y-132252497D01*
X92721500Y-132252488D01*
X92723180Y-132252500D01*
X92965144Y-132252500D01*
X92917605Y-132321930D01*
X92857268Y-132462706D01*
X92825424Y-132612522D01*
X92823285Y-132765669D01*
X92850934Y-132916314D01*
X92907317Y-133058721D01*
X92990286Y-133187464D01*
X93096681Y-133297639D01*
X93222450Y-133385051D01*
X93362802Y-133446369D01*
X93512391Y-133479258D01*
X93665519Y-133482466D01*
X93816355Y-133455870D01*
X93919999Y-133415669D01*
X96245973Y-133415669D01*
X96273622Y-133566314D01*
X96330005Y-133708721D01*
X96412974Y-133837464D01*
X96519369Y-133947639D01*
X96645138Y-134035051D01*
X96785490Y-134096369D01*
X96935079Y-134129258D01*
X97088207Y-134132466D01*
X97239043Y-134105870D01*
X97381839Y-134050483D01*
X97511158Y-133968414D01*
X97622074Y-133862791D01*
X97710361Y-133737635D01*
X97772658Y-133597715D01*
X97806591Y-133448359D01*
X97809034Y-133273419D01*
X97779284Y-133123174D01*
X97720919Y-132981569D01*
X97636160Y-132853997D01*
X97528237Y-132745317D01*
X97401260Y-132659670D01*
X97260065Y-132600318D01*
X97110032Y-132569520D01*
X96956873Y-132568451D01*
X96806424Y-132597151D01*
X96664415Y-132654526D01*
X96536254Y-132738392D01*
X96426824Y-132845554D01*
X96340293Y-132971930D01*
X96279956Y-133112706D01*
X96248112Y-133262522D01*
X96245973Y-133415669D01*
X93919999Y-133415669D01*
X93959151Y-133400483D01*
X94088470Y-133318414D01*
X94199386Y-133212791D01*
X94287673Y-133087635D01*
X94349970Y-132947715D01*
X94383903Y-132798359D01*
X94386346Y-132623419D01*
X94356596Y-132473174D01*
X94298231Y-132331569D01*
X94245697Y-132252500D01*
X98568391Y-132252500D01*
X98499293Y-132353415D01*
X98438956Y-132494191D01*
X98407112Y-132644007D01*
X98404973Y-132797154D01*
X98432622Y-132947799D01*
X98489005Y-133090206D01*
X98571974Y-133218949D01*
X98678369Y-133329124D01*
X98804138Y-133416536D01*
X98944490Y-133477854D01*
X99017559Y-133493919D01*
X99011340Y-133496432D01*
X98883179Y-133580298D01*
X98773749Y-133687460D01*
X98687218Y-133813836D01*
X98626881Y-133954612D01*
X98595037Y-134104428D01*
X98593401Y-134221582D01*
X89827896Y-134221582D01*
X88349409Y-132743095D01*
X88671419Y-132743095D01*
X88699068Y-132893740D01*
X88755451Y-133036147D01*
X88838420Y-133164890D01*
X88944815Y-133275065D01*
X89070584Y-133362477D01*
X89210936Y-133423795D01*
X89360525Y-133456684D01*
X89513653Y-133459892D01*
X89664489Y-133433296D01*
X89807285Y-133377909D01*
X89936604Y-133295840D01*
X90047520Y-133190217D01*
X90135807Y-133065061D01*
X90198104Y-132925141D01*
X90232037Y-132775785D01*
X90234480Y-132600845D01*
X90204730Y-132450600D01*
X90146365Y-132308995D01*
X90061606Y-132181423D01*
X89953683Y-132072743D01*
X89826706Y-131987096D01*
X89685511Y-131927744D01*
X89535478Y-131896946D01*
X89382319Y-131895877D01*
X89231870Y-131924577D01*
X89089861Y-131981952D01*
X88961700Y-132065818D01*
X88852270Y-132172980D01*
X88765739Y-132299356D01*
X88705402Y-132440132D01*
X88673558Y-132589948D01*
X88671419Y-132743095D01*
X88349409Y-132743095D01*
X83939461Y-128333147D01*
X85717973Y-128333147D01*
X85745622Y-128483792D01*
X85802005Y-128626199D01*
X85884974Y-128754942D01*
X85991369Y-128865117D01*
X86117138Y-128952529D01*
X86257490Y-129013847D01*
X86407079Y-129046736D01*
X86560207Y-129049944D01*
X86711043Y-129023348D01*
X86853839Y-128967961D01*
X86983158Y-128885892D01*
X87094074Y-128780269D01*
X87182361Y-128655113D01*
X87244658Y-128515193D01*
X87278591Y-128365837D01*
X87281034Y-128190897D01*
X87251284Y-128040652D01*
X87192919Y-127899047D01*
X87108160Y-127771475D01*
X87000237Y-127662795D01*
X86873260Y-127577148D01*
X86732065Y-127517796D01*
X86582032Y-127486998D01*
X86428873Y-127485929D01*
X86278424Y-127514629D01*
X86136415Y-127572004D01*
X86008254Y-127655870D01*
X85898824Y-127763032D01*
X85812293Y-127889408D01*
X85751956Y-128030184D01*
X85720112Y-128180000D01*
X85717973Y-128333147D01*
X83939461Y-128333147D01*
X83547104Y-127940790D01*
X83510866Y-127911024D01*
X83474897Y-127880842D01*
X83472555Y-127879554D01*
X83470492Y-127877860D01*
X83429145Y-127855690D01*
X83388016Y-127833079D01*
X83385471Y-127832272D01*
X83383116Y-127831009D01*
X83338224Y-127817284D01*
X83293513Y-127803101D01*
X83290860Y-127802803D01*
X83288304Y-127802022D01*
X83241581Y-127797276D01*
X83196460Y-127792215D01*
X83100237Y-127695317D01*
X82973260Y-127609670D01*
X82832065Y-127550318D01*
X82682032Y-127519520D01*
X82528873Y-127518451D01*
X82378424Y-127547151D01*
X82236415Y-127604526D01*
X82108254Y-127688392D01*
X81998824Y-127795554D01*
X81912293Y-127921930D01*
X81851956Y-128062706D01*
X81820112Y-128212522D01*
X81817973Y-128365669D01*
X81845622Y-128516314D01*
X81902005Y-128658721D01*
X81984974Y-128787464D01*
X82091369Y-128897639D01*
X82217138Y-128985051D01*
X82288628Y-129016284D01*
X82145291Y-129110081D01*
X82021849Y-129230964D01*
X81924238Y-129373521D01*
X81856176Y-129532323D01*
X81820254Y-129701321D01*
X81817842Y-129874077D01*
X81849031Y-130044012D01*
X81912633Y-130204652D01*
X82006225Y-130349879D01*
X82126243Y-130474162D01*
X82268116Y-130572766D01*
X82426439Y-130641935D01*
X82595181Y-130679036D01*
X82767917Y-130682654D01*
X82938065Y-130652652D01*
X83099145Y-130590173D01*
X83232273Y-130505688D01*
X83284974Y-130587464D01*
X83391369Y-130697639D01*
X83517138Y-130785051D01*
X83657490Y-130846369D01*
X83807079Y-130879258D01*
X83960207Y-130882466D01*
X84111043Y-130855870D01*
X84253839Y-130800483D01*
X84383158Y-130718414D01*
X84494074Y-130612791D01*
X84582361Y-130487635D01*
X84605389Y-130435915D01*
X89258266Y-135088792D01*
X89294504Y-135118558D01*
X89330473Y-135148740D01*
X89332815Y-135150028D01*
X89334878Y-135151722D01*
X89376225Y-135173892D01*
X89417354Y-135196503D01*
X89419899Y-135197310D01*
X89422254Y-135198573D01*
X89467146Y-135212298D01*
X89511857Y-135226481D01*
X89514510Y-135226779D01*
X89517066Y-135227560D01*
X89563789Y-135232306D01*
X89610383Y-135237532D01*
X89615603Y-135237569D01*
X89615703Y-135237579D01*
X89615797Y-135237570D01*
X89617476Y-135237582D01*
X98695641Y-135237582D01*
X101019341Y-137561282D01*
X100998824Y-137581374D01*
X100912293Y-137707750D01*
X100851956Y-137848526D01*
X100820112Y-137998342D01*
X100817973Y-138151489D01*
X100845622Y-138302134D01*
X100902005Y-138444541D01*
X100966102Y-138544000D01*
X84500000Y-138544000D01*
X84457272Y-138548189D01*
X84414554Y-138552077D01*
X84413022Y-138552528D01*
X84411429Y-138552684D01*
X84370337Y-138565091D01*
X84329179Y-138577204D01*
X84327761Y-138577945D01*
X84326232Y-138578407D01*
X84288388Y-138598529D01*
X84250311Y-138618435D01*
X84249063Y-138619438D01*
X84247653Y-138620188D01*
X84214431Y-138647284D01*
X84180954Y-138674200D01*
X84179925Y-138675426D01*
X84178687Y-138676436D01*
X84151358Y-138709471D01*
X84123748Y-138742375D01*
X84122977Y-138743777D01*
X84121959Y-138745008D01*
X84101566Y-138782723D01*
X84080874Y-138820362D01*
X84080390Y-138821887D01*
X84079630Y-138823293D01*
X84066940Y-138864289D01*
X84064177Y-138873000D01*
X78956000Y-138873000D01*
X78956000Y-128442559D01*
X79017138Y-128485051D01*
X79157490Y-128546369D01*
X79307079Y-128579258D01*
X79460207Y-128582466D01*
X79502000Y-128575097D01*
X79502000Y-133718000D01*
X79511159Y-133811407D01*
X79519338Y-133904895D01*
X79520829Y-133910026D01*
X79521350Y-133915342D01*
X79548469Y-134005166D01*
X79574658Y-134095310D01*
X79577117Y-134100054D01*
X79578661Y-134105168D01*
X79622732Y-134188053D01*
X79665911Y-134271353D01*
X79669242Y-134275526D01*
X79671752Y-134280246D01*
X79731074Y-134352982D01*
X79789618Y-134426319D01*
X79796949Y-134433752D01*
X79797076Y-134433908D01*
X79797220Y-134434027D01*
X79799580Y-134436420D01*
X81086460Y-135723301D01*
X81083197Y-137017552D01*
X81068968Y-137084493D01*
X81066144Y-137286709D01*
X81102652Y-137485624D01*
X81177100Y-137673659D01*
X81286653Y-137843652D01*
X81427139Y-137989129D01*
X81593205Y-138104548D01*
X81778527Y-138185513D01*
X81976046Y-138228941D01*
X82178239Y-138233176D01*
X82377403Y-138198058D01*
X82565953Y-138124924D01*
X82736707Y-138016560D01*
X82883161Y-137877094D01*
X82999737Y-137711837D01*
X83081994Y-137527085D01*
X83098471Y-137454561D01*
X83104172Y-137485624D01*
X83178620Y-137673659D01*
X83288173Y-137843652D01*
X83428659Y-137989129D01*
X83594725Y-138104548D01*
X83780047Y-138185513D01*
X83977566Y-138228941D01*
X84179759Y-138233176D01*
X84378923Y-138198058D01*
X84567473Y-138124924D01*
X84738227Y-138016560D01*
X84884681Y-137877094D01*
X85001257Y-137711837D01*
X85083514Y-137527085D01*
X85098586Y-137460745D01*
X85103152Y-137485624D01*
X85177600Y-137673659D01*
X85287153Y-137843652D01*
X85427639Y-137989129D01*
X85593705Y-138104548D01*
X85779027Y-138185513D01*
X85976546Y-138228941D01*
X86178739Y-138233176D01*
X86377903Y-138198058D01*
X86566453Y-138124924D01*
X86737207Y-138016560D01*
X86883661Y-137877094D01*
X87000237Y-137711837D01*
X87082494Y-137527085D01*
X87098971Y-137454561D01*
X87104672Y-137485624D01*
X87179120Y-137673659D01*
X87288673Y-137843652D01*
X87429159Y-137989129D01*
X87595225Y-138104548D01*
X87780547Y-138185513D01*
X87978066Y-138228941D01*
X88180259Y-138233176D01*
X88379423Y-138198058D01*
X88567973Y-138124924D01*
X88738727Y-138016560D01*
X88885181Y-137877094D01*
X89001757Y-137711837D01*
X89084014Y-137527085D01*
X89099086Y-137460745D01*
X89103652Y-137485624D01*
X89178100Y-137673659D01*
X89287653Y-137843652D01*
X89428139Y-137989129D01*
X89594205Y-138104548D01*
X89779527Y-138185513D01*
X89977046Y-138228941D01*
X90179239Y-138233176D01*
X90378403Y-138198058D01*
X90566953Y-138124924D01*
X90737707Y-138016560D01*
X90884161Y-137877094D01*
X90895997Y-137860314D01*
X91485847Y-137860314D01*
X91548171Y-138015279D01*
X91717852Y-138107516D01*
X91902267Y-138164878D01*
X92094329Y-138185160D01*
X92286658Y-138167582D01*
X92471862Y-138112821D01*
X92642823Y-138022980D01*
X92654349Y-138015279D01*
X92716672Y-137860316D01*
X92775003Y-137918647D01*
X92781813Y-137911837D01*
X92856974Y-138028464D01*
X92963369Y-138138639D01*
X93089138Y-138226051D01*
X93229490Y-138287369D01*
X93379079Y-138320258D01*
X93532207Y-138323466D01*
X93683043Y-138296870D01*
X93825839Y-138241483D01*
X93955158Y-138159414D01*
X94066074Y-138053791D01*
X94154361Y-137928635D01*
X94216658Y-137788715D01*
X94250591Y-137639359D01*
X94253034Y-137464419D01*
X94223284Y-137314174D01*
X94186806Y-137225669D01*
X94848973Y-137225669D01*
X94876622Y-137376314D01*
X94933005Y-137518721D01*
X95015974Y-137647464D01*
X95122369Y-137757639D01*
X95248138Y-137845051D01*
X95388490Y-137906369D01*
X95538079Y-137939258D01*
X95691207Y-137942466D01*
X95842043Y-137915870D01*
X95984839Y-137860483D01*
X96114158Y-137778414D01*
X96225074Y-137672791D01*
X96313361Y-137547635D01*
X96375658Y-137407715D01*
X96409591Y-137258359D01*
X96412034Y-137083419D01*
X96382284Y-136933174D01*
X96323919Y-136791569D01*
X96239160Y-136663997D01*
X96131237Y-136555317D01*
X96004260Y-136469670D01*
X95863065Y-136410318D01*
X95713032Y-136379520D01*
X95559873Y-136378451D01*
X95409424Y-136407151D01*
X95267415Y-136464526D01*
X95139254Y-136548392D01*
X95029824Y-136655554D01*
X94943293Y-136781930D01*
X94882956Y-136922706D01*
X94851112Y-137072522D01*
X94848973Y-137225669D01*
X94186806Y-137225669D01*
X94164919Y-137172569D01*
X94080160Y-137044997D01*
X93972237Y-136936317D01*
X93845260Y-136850670D01*
X93704065Y-136791318D01*
X93554032Y-136760520D01*
X93400873Y-136759451D01*
X93250424Y-136788151D01*
X93108415Y-136845526D01*
X93033370Y-136894634D01*
X93014081Y-136829398D01*
X92924240Y-136658437D01*
X92916539Y-136646911D01*
X92761574Y-136584587D01*
X92146161Y-137200000D01*
X92160304Y-137214143D01*
X92115403Y-137259044D01*
X92101260Y-137244901D01*
X91485847Y-137860314D01*
X90895997Y-137860314D01*
X91000737Y-137711837D01*
X91082994Y-137527085D01*
X91127799Y-137329874D01*
X91127906Y-137322239D01*
X91133678Y-137385398D01*
X91188439Y-137570602D01*
X91278280Y-137741563D01*
X91285981Y-137753089D01*
X91440946Y-137815413D01*
X92056359Y-137200000D01*
X91440946Y-136584587D01*
X91285981Y-136646911D01*
X91193744Y-136816592D01*
X91136382Y-137001007D01*
X91127778Y-137082487D01*
X91091743Y-136900497D01*
X91014677Y-136713519D01*
X90902761Y-136545072D01*
X90897413Y-136539686D01*
X91485847Y-136539686D01*
X92101260Y-137155099D01*
X92716673Y-136539686D01*
X92654349Y-136384721D01*
X92484668Y-136292484D01*
X92300253Y-136235122D01*
X92108191Y-136214840D01*
X91915862Y-136232418D01*
X91730658Y-136287179D01*
X91559697Y-136377020D01*
X91548171Y-136384721D01*
X91485847Y-136539686D01*
X90897413Y-136539686D01*
X90760258Y-136401571D01*
X90592596Y-136288482D01*
X90406162Y-136210112D01*
X90208056Y-136169447D01*
X90005824Y-136168035D01*
X89807169Y-136205930D01*
X89619659Y-136281689D01*
X89450434Y-136392427D01*
X89305942Y-136533924D01*
X89191685Y-136700792D01*
X89112015Y-136886675D01*
X89100631Y-136940233D01*
X89092763Y-136900497D01*
X89015697Y-136713519D01*
X88903781Y-136545072D01*
X88761278Y-136401571D01*
X88593616Y-136288482D01*
X88407182Y-136210112D01*
X88209076Y-136169447D01*
X88006844Y-136168035D01*
X87808189Y-136205930D01*
X87620679Y-136281689D01*
X87451454Y-136392427D01*
X87306962Y-136533924D01*
X87192705Y-136700792D01*
X87113035Y-136886675D01*
X87100336Y-136946420D01*
X87091243Y-136900497D01*
X87014177Y-136713519D01*
X86902261Y-136545072D01*
X86759758Y-136401571D01*
X86592096Y-136288482D01*
X86405662Y-136210112D01*
X86207556Y-136169447D01*
X86005324Y-136168035D01*
X85806669Y-136205930D01*
X85619159Y-136281689D01*
X85449934Y-136392427D01*
X85305442Y-136533924D01*
X85191185Y-136700792D01*
X85111515Y-136886675D01*
X85100131Y-136940233D01*
X85092263Y-136900497D01*
X85015197Y-136713519D01*
X84903281Y-136545072D01*
X84760778Y-136401571D01*
X84593116Y-136288482D01*
X84406682Y-136210112D01*
X84208576Y-136169447D01*
X84006344Y-136168035D01*
X83807689Y-136205930D01*
X83620179Y-136281689D01*
X83450954Y-136392427D01*
X83306462Y-136533924D01*
X83192205Y-136700792D01*
X83115551Y-136879637D01*
X83119519Y-135306225D01*
X83119505Y-135306080D01*
X83119522Y-135303663D01*
X83119522Y-135303522D01*
X83110363Y-135210110D01*
X83102184Y-135116628D01*
X83101031Y-135112661D01*
X83100666Y-135108835D01*
X83100318Y-135107673D01*
X83100172Y-135106180D01*
X83073049Y-135016344D01*
X83046864Y-134926212D01*
X83044896Y-134922416D01*
X83043834Y-134918865D01*
X83043333Y-134917917D01*
X83042861Y-134916354D01*
X82998790Y-134833469D01*
X82955611Y-134750169D01*
X82952861Y-134746724D01*
X82951185Y-134743553D01*
X82950592Y-134742823D01*
X82949770Y-134741276D01*
X82890448Y-134668540D01*
X82831904Y-134595203D01*
X82824569Y-134587765D01*
X82824446Y-134587614D01*
X82824306Y-134587498D01*
X82821943Y-134585102D01*
X81534000Y-133297160D01*
X81534000Y-132665669D01*
X84117973Y-132665669D01*
X84145622Y-132816314D01*
X84202005Y-132958721D01*
X84284974Y-133087464D01*
X84391369Y-133197639D01*
X84517138Y-133285051D01*
X84657490Y-133346369D01*
X84807079Y-133379258D01*
X84960207Y-133382466D01*
X85111043Y-133355870D01*
X85253839Y-133300483D01*
X85383158Y-133218414D01*
X85494074Y-133112791D01*
X85582361Y-132987635D01*
X85644658Y-132847715D01*
X85678591Y-132698359D01*
X85681034Y-132523419D01*
X85651284Y-132373174D01*
X85592919Y-132231569D01*
X85508160Y-132103997D01*
X85400237Y-131995317D01*
X85273260Y-131909670D01*
X85132065Y-131850318D01*
X84982032Y-131819520D01*
X84828873Y-131818451D01*
X84678424Y-131847151D01*
X84536415Y-131904526D01*
X84408254Y-131988392D01*
X84298824Y-132095554D01*
X84212293Y-132221930D01*
X84151956Y-132362706D01*
X84120112Y-132512522D01*
X84117973Y-132665669D01*
X81534000Y-132665669D01*
X81534000Y-125874077D01*
X81817842Y-125874077D01*
X81849031Y-126044012D01*
X81912633Y-126204652D01*
X82006225Y-126349879D01*
X82126243Y-126474162D01*
X82268116Y-126572766D01*
X82426439Y-126641935D01*
X82595181Y-126679036D01*
X82767917Y-126682654D01*
X82938065Y-126652652D01*
X83099145Y-126590173D01*
X83245022Y-126497597D01*
X83370140Y-126378449D01*
X83469732Y-126237268D01*
X83540005Y-126079432D01*
X83557447Y-126002661D01*
X83657490Y-126046369D01*
X83807079Y-126079258D01*
X83960207Y-126082466D01*
X84111043Y-126055870D01*
X84253839Y-126000483D01*
X84383158Y-125918414D01*
X84494074Y-125812791D01*
X84582361Y-125687635D01*
X84644658Y-125547715D01*
X84678591Y-125398359D01*
X84681034Y-125223419D01*
X84651284Y-125073174D01*
X84592919Y-124931569D01*
X84508160Y-124803997D01*
X84400237Y-124695317D01*
X84273260Y-124609670D01*
X84132065Y-124550318D01*
X83982032Y-124519520D01*
X83828873Y-124518451D01*
X83678424Y-124547151D01*
X83536415Y-124604526D01*
X83408254Y-124688392D01*
X83298824Y-124795554D01*
X83212293Y-124921930D01*
X83158799Y-125046740D01*
X83121053Y-125021280D01*
X82961779Y-124954327D01*
X82792535Y-124919587D01*
X82619766Y-124918380D01*
X82450054Y-124950755D01*
X82289861Y-125015477D01*
X82145291Y-125110081D01*
X82021849Y-125230964D01*
X81924238Y-125373521D01*
X81856176Y-125532323D01*
X81820254Y-125701321D01*
X81817842Y-125874077D01*
X81534000Y-125874077D01*
X81534000Y-124118840D01*
X86907841Y-118745000D01*
X88119658Y-118745000D01*
X88117973Y-118865669D01*
X88145622Y-119016314D01*
X88202005Y-119158721D01*
X88284974Y-119287464D01*
X88391369Y-119397639D01*
X88517138Y-119485051D01*
X88657490Y-119546369D01*
X88807079Y-119579258D01*
X88960207Y-119582466D01*
X89111043Y-119555870D01*
X89253839Y-119500483D01*
X89383158Y-119418414D01*
X89494074Y-119312791D01*
X89582361Y-119187635D01*
X89644658Y-119047715D01*
X89678591Y-118898359D01*
X89681034Y-118723419D01*
X89651284Y-118573174D01*
X89604365Y-118459339D01*
X89615908Y-118449924D01*
X89742302Y-118297140D01*
X89836613Y-118122716D01*
X89895248Y-117933295D01*
X89915975Y-117736093D01*
X89898004Y-117538621D01*
X89842019Y-117348400D01*
X89750153Y-117172676D01*
X89625904Y-117018142D01*
X89474006Y-116890685D01*
X89300245Y-116795158D01*
X89111238Y-116735202D01*
X88914186Y-116713099D01*
X88900000Y-116713000D01*
X86487000Y-116713000D01*
X86393593Y-116722159D01*
X86300105Y-116730338D01*
X86294974Y-116731829D01*
X86289658Y-116732350D01*
X86199834Y-116759469D01*
X86109690Y-116785658D01*
X86104946Y-116788117D01*
X86099832Y-116789661D01*
X86016947Y-116833732D01*
X85933647Y-116876911D01*
X85929474Y-116880242D01*
X85924754Y-116882752D01*
X85852018Y-116942074D01*
X85778681Y-117000618D01*
X85771243Y-117007953D01*
X85771092Y-117008076D01*
X85770976Y-117008216D01*
X85768580Y-117010579D01*
X79799580Y-122979580D01*
X79740023Y-123052086D01*
X79679685Y-123123994D01*
X79677111Y-123128675D01*
X79673720Y-123132804D01*
X79629372Y-123215512D01*
X79584158Y-123297755D01*
X79582542Y-123302848D01*
X79580018Y-123307556D01*
X79552572Y-123397327D01*
X79524202Y-123486762D01*
X79523607Y-123492068D01*
X79522044Y-123497180D01*
X79512557Y-123590581D01*
X79502099Y-123683814D01*
X79502026Y-123694255D01*
X79502006Y-123694453D01*
X79502023Y-123694638D01*
X79502000Y-123698000D01*
X79502000Y-127023619D01*
X79482032Y-127019520D01*
X79328873Y-127018451D01*
X79178424Y-127047151D01*
X79036415Y-127104526D01*
X78956000Y-127157148D01*
X78956000Y-119842580D01*
X79270170Y-119842580D01*
X79270170Y-120360242D01*
X79282859Y-120424036D01*
X79307751Y-120484128D01*
X79343887Y-120538210D01*
X79389880Y-120584203D01*
X79443962Y-120620340D01*
X79504054Y-120645231D01*
X79567848Y-120657920D01*
X80335700Y-120657920D01*
X80418250Y-120575370D01*
X80418250Y-119760030D01*
X80481750Y-119760030D01*
X80481750Y-120575370D01*
X80564300Y-120657920D01*
X81332152Y-120657920D01*
X81395946Y-120645231D01*
X81456038Y-120620340D01*
X81510120Y-120584203D01*
X81556113Y-120538210D01*
X81592249Y-120484128D01*
X81617141Y-120424036D01*
X81629830Y-120360242D01*
X81629830Y-119842580D01*
X81547280Y-119760030D01*
X80481750Y-119760030D01*
X80418250Y-119760030D01*
X79352720Y-119760030D01*
X79270170Y-119842580D01*
X78956000Y-119842580D01*
X78956000Y-119096318D01*
X79270170Y-119096318D01*
X79270170Y-119613980D01*
X79352720Y-119696530D01*
X80418250Y-119696530D01*
X80418250Y-118881190D01*
X80481750Y-118881190D01*
X80481750Y-119696530D01*
X81547280Y-119696530D01*
X81629830Y-119613980D01*
X81629830Y-119096318D01*
X81617141Y-119032524D01*
X81592249Y-118972432D01*
X81556113Y-118918350D01*
X81510120Y-118872357D01*
X81456038Y-118836220D01*
X81395946Y-118811329D01*
X81332152Y-118798640D01*
X80564300Y-118798640D01*
X80481750Y-118881190D01*
X80418250Y-118881190D01*
X80335700Y-118798640D01*
X79567848Y-118798640D01*
X79504054Y-118811329D01*
X79443962Y-118836220D01*
X79389880Y-118872357D01*
X79343887Y-118918350D01*
X79307751Y-118972432D01*
X79282859Y-119032524D01*
X79270170Y-119096318D01*
X78956000Y-119096318D01*
X78956000Y-117719915D01*
X79213440Y-117719915D01*
X79230782Y-117910476D01*
X79284808Y-118094039D01*
X79373459Y-118263613D01*
X79493358Y-118412738D01*
X79639940Y-118535734D01*
X79807620Y-118627917D01*
X79990011Y-118685775D01*
X80180167Y-118707104D01*
X80193856Y-118707200D01*
X80706144Y-118707200D01*
X80896579Y-118688528D01*
X81079761Y-118633222D01*
X81248711Y-118543389D01*
X81396996Y-118422452D01*
X81518966Y-118275015D01*
X81609976Y-118106696D01*
X81666559Y-117923905D01*
X81686560Y-117733605D01*
X81669218Y-117543044D01*
X81615192Y-117359481D01*
X81526541Y-117189907D01*
X81406642Y-117040782D01*
X81260060Y-116917786D01*
X81092380Y-116825603D01*
X80909989Y-116767745D01*
X80719833Y-116746416D01*
X80706144Y-116746320D01*
X80193856Y-116746320D01*
X80003421Y-116764992D01*
X79820239Y-116820298D01*
X79651289Y-116910131D01*
X79503004Y-117031068D01*
X79381034Y-117178505D01*
X79290024Y-117346824D01*
X79233441Y-117529615D01*
X79213440Y-117719915D01*
X78956000Y-117719915D01*
X78956000Y-115718395D01*
X79213440Y-115718395D01*
X79230782Y-115908956D01*
X79284808Y-116092519D01*
X79373459Y-116262093D01*
X79493358Y-116411218D01*
X79639940Y-116534214D01*
X79807620Y-116626397D01*
X79990011Y-116684255D01*
X80180167Y-116705584D01*
X80193856Y-116705680D01*
X80706144Y-116705680D01*
X80896579Y-116687008D01*
X81079761Y-116631702D01*
X81248711Y-116541869D01*
X81396996Y-116420932D01*
X81518966Y-116273495D01*
X81609976Y-116105176D01*
X81666559Y-115922385D01*
X81686560Y-115732085D01*
X81669218Y-115541524D01*
X81615192Y-115357961D01*
X81526541Y-115188387D01*
X81406642Y-115039262D01*
X81360649Y-115000669D01*
X85196973Y-115000669D01*
X85224622Y-115151314D01*
X85281005Y-115293721D01*
X85363974Y-115422464D01*
X85470369Y-115532639D01*
X85596138Y-115620051D01*
X85736490Y-115681369D01*
X85886079Y-115714258D01*
X86039207Y-115717466D01*
X86190043Y-115690870D01*
X86332839Y-115635483D01*
X86462158Y-115553414D01*
X86573074Y-115447791D01*
X86661361Y-115322635D01*
X86723658Y-115182715D01*
X86757591Y-115033359D01*
X86758047Y-115000669D01*
X90022973Y-115000669D01*
X90050622Y-115151314D01*
X90107005Y-115293721D01*
X90189974Y-115422464D01*
X90296369Y-115532639D01*
X90422138Y-115620051D01*
X90562490Y-115681369D01*
X90712079Y-115714258D01*
X90865207Y-115717466D01*
X91016043Y-115690870D01*
X91158839Y-115635483D01*
X91288158Y-115553414D01*
X91377381Y-115468449D01*
X91439369Y-115532639D01*
X91565138Y-115620051D01*
X91705490Y-115681369D01*
X91855079Y-115714258D01*
X92008207Y-115717466D01*
X92159043Y-115690870D01*
X92301839Y-115635483D01*
X92431158Y-115553414D01*
X92542074Y-115447791D01*
X92630361Y-115322635D01*
X92692658Y-115182715D01*
X92726591Y-115033359D01*
X92729034Y-114858419D01*
X92699284Y-114708174D01*
X92640919Y-114566569D01*
X92556160Y-114438997D01*
X92448237Y-114330317D01*
X92321260Y-114244670D01*
X92180065Y-114185318D01*
X92030032Y-114154520D01*
X91876873Y-114153451D01*
X91726424Y-114182151D01*
X91584415Y-114239526D01*
X91456254Y-114323392D01*
X91376205Y-114401782D01*
X91305237Y-114330317D01*
X91178260Y-114244670D01*
X91037065Y-114185318D01*
X90887032Y-114154520D01*
X90733873Y-114153451D01*
X90583424Y-114182151D01*
X90441415Y-114239526D01*
X90313254Y-114323392D01*
X90203824Y-114430554D01*
X90117293Y-114556930D01*
X90056956Y-114697706D01*
X90025112Y-114847522D01*
X90022973Y-115000669D01*
X86758047Y-115000669D01*
X86760034Y-114858419D01*
X86730284Y-114708174D01*
X86671919Y-114566569D01*
X86587160Y-114438997D01*
X86479237Y-114330317D01*
X86352260Y-114244670D01*
X86211065Y-114185318D01*
X86061032Y-114154520D01*
X85907873Y-114153451D01*
X85757424Y-114182151D01*
X85615415Y-114239526D01*
X85487254Y-114323392D01*
X85377824Y-114430554D01*
X85291293Y-114556930D01*
X85230956Y-114697706D01*
X85199112Y-114847522D01*
X85196973Y-115000669D01*
X81360649Y-115000669D01*
X81260060Y-114916266D01*
X81092380Y-114824083D01*
X80909989Y-114766225D01*
X80719833Y-114744896D01*
X80706144Y-114744800D01*
X80193856Y-114744800D01*
X80003421Y-114763472D01*
X79820239Y-114818778D01*
X79651289Y-114908611D01*
X79503004Y-115029548D01*
X79381034Y-115176985D01*
X79290024Y-115345304D01*
X79233441Y-115528095D01*
X79213440Y-115718395D01*
X78956000Y-115718395D01*
X78956000Y-113719415D01*
X79213440Y-113719415D01*
X79230782Y-113909976D01*
X79284808Y-114093539D01*
X79373459Y-114263113D01*
X79493358Y-114412238D01*
X79639940Y-114535234D01*
X79807620Y-114627417D01*
X79990011Y-114685275D01*
X80180167Y-114706604D01*
X80193856Y-114706700D01*
X80706144Y-114706700D01*
X80896579Y-114688028D01*
X81079761Y-114632722D01*
X81248711Y-114542889D01*
X81396996Y-114421952D01*
X81518966Y-114274515D01*
X81609976Y-114106196D01*
X81666559Y-113923405D01*
X81686560Y-113733105D01*
X81669218Y-113542544D01*
X81615192Y-113358981D01*
X81526541Y-113189407D01*
X81406642Y-113040282D01*
X81260060Y-112917286D01*
X81092380Y-112825103D01*
X80909989Y-112767245D01*
X80719833Y-112745916D01*
X80706144Y-112745820D01*
X80193856Y-112745820D01*
X80003421Y-112764492D01*
X79820239Y-112819798D01*
X79651289Y-112909631D01*
X79503004Y-113030568D01*
X79381034Y-113178005D01*
X79290024Y-113346324D01*
X79233441Y-113529115D01*
X79213440Y-113719415D01*
X78956000Y-113719415D01*
X78956000Y-111186959D01*
X78988479Y-111268991D01*
X79109905Y-111457407D01*
X79265615Y-111618650D01*
X79449679Y-111746577D01*
X79655085Y-111836317D01*
X79874009Y-111884451D01*
X80098114Y-111889145D01*
X80318862Y-111850221D01*
X80527846Y-111769162D01*
X80717106Y-111649054D01*
X80879432Y-111494473D01*
X80898118Y-111467983D01*
X81043615Y-111618650D01*
X81227679Y-111746577D01*
X81433085Y-111836317D01*
X81652009Y-111884451D01*
X81876114Y-111889145D01*
X82096862Y-111850221D01*
X82305846Y-111769162D01*
X82495106Y-111649054D01*
X82657432Y-111494473D01*
X82676118Y-111467983D01*
X82821615Y-111618650D01*
X83005679Y-111746577D01*
X83211085Y-111836317D01*
X83430009Y-111884451D01*
X83654114Y-111889145D01*
X83874862Y-111850221D01*
X84083846Y-111769162D01*
X84273106Y-111649054D01*
X84435432Y-111494473D01*
X84564641Y-111311307D01*
X84655813Y-111106532D01*
X84705473Y-110887949D01*
X84709049Y-110631923D01*
X84665510Y-110412038D01*
X84580092Y-110204798D01*
X84528403Y-110127000D01*
X92121172Y-110127000D01*
X92978086Y-110983914D01*
G36*
X113270228Y-124138753D02*
X113267404Y-124340969D01*
X113303912Y-124539884D01*
X113378360Y-124727919D01*
X113487913Y-124897912D01*
X113628399Y-125043389D01*
X113794465Y-125158808D01*
X113979787Y-125239773D01*
X114166788Y-125280888D01*
X114114602Y-125285658D01*
X113929398Y-125340419D01*
X113758437Y-125430260D01*
X113746911Y-125437961D01*
X113684587Y-125592926D01*
X114300000Y-126208339D01*
X114314143Y-126194197D01*
X114359044Y-126239098D01*
X114344901Y-126253240D01*
X114359044Y-126267383D01*
X114314143Y-126312284D01*
X114300000Y-126298141D01*
X113684587Y-126913554D01*
X113746911Y-127068519D01*
X113916592Y-127160756D01*
X114101007Y-127218118D01*
X114184424Y-127226927D01*
X114007429Y-127260690D01*
X113819919Y-127336449D01*
X113650694Y-127447187D01*
X113506202Y-127588684D01*
X113391945Y-127755552D01*
X113312275Y-127941435D01*
X113270228Y-128139253D01*
X113267404Y-128341469D01*
X113303912Y-128540384D01*
X113378360Y-128728419D01*
X113487913Y-128898412D01*
X113628399Y-129043889D01*
X113794465Y-129159308D01*
X113979787Y-129240273D01*
X114039866Y-129253482D01*
X114007429Y-129259670D01*
X113819919Y-129335429D01*
X113650694Y-129446167D01*
X113506202Y-129587664D01*
X113391945Y-129754532D01*
X113312275Y-129940415D01*
X113270228Y-130138233D01*
X113267404Y-130340449D01*
X113303912Y-130539364D01*
X113378360Y-130727399D01*
X113487913Y-130897392D01*
X113628399Y-131042869D01*
X113794465Y-131158288D01*
X113979787Y-131239253D01*
X114046052Y-131253822D01*
X114007429Y-131261190D01*
X113819919Y-131336949D01*
X113650694Y-131447687D01*
X113506202Y-131589184D01*
X113391945Y-131756052D01*
X113312275Y-131941935D01*
X113270228Y-132139753D01*
X113267404Y-132341969D01*
X113303912Y-132540884D01*
X113378360Y-132728919D01*
X113487913Y-132898912D01*
X113555596Y-132969000D01*
X112395000Y-132969000D01*
X112313296Y-132977011D01*
X112231467Y-132984170D01*
X112226975Y-132985475D01*
X112222326Y-132985931D01*
X112143716Y-133009665D01*
X112064854Y-133032577D01*
X112060706Y-133034727D01*
X112056228Y-133036079D01*
X111983691Y-133074647D01*
X111910816Y-133112422D01*
X111907163Y-133115338D01*
X111903035Y-133117533D01*
X111839389Y-133169442D01*
X111775220Y-133220667D01*
X111768712Y-133227084D01*
X111768580Y-133227192D01*
X111768479Y-133227315D01*
X111766382Y-133229382D01*
X110623382Y-134372382D01*
X110571268Y-134435827D01*
X110518474Y-134498744D01*
X110516221Y-134502842D01*
X110513255Y-134506453D01*
X110474449Y-134578825D01*
X110434889Y-134650786D01*
X110433476Y-134655240D01*
X110431266Y-134659362D01*
X110407249Y-134737917D01*
X110382427Y-134816167D01*
X110381906Y-134820812D01*
X110380539Y-134825283D01*
X110372408Y-134905335D01*
X110308895Y-134981026D01*
X110201428Y-135176507D01*
X110133977Y-135389140D01*
X110109111Y-135610824D01*
X110109000Y-135626783D01*
X110109000Y-137169217D01*
X110130768Y-137391227D01*
X110195244Y-137604780D01*
X110299971Y-137801744D01*
X110440961Y-137974614D01*
X110612843Y-138116807D01*
X110809070Y-138222907D01*
X111022168Y-138288872D01*
X111244020Y-138312189D01*
X111466177Y-138291971D01*
X111680175Y-138228988D01*
X111877865Y-138125639D01*
X112051715Y-137985859D01*
X112195105Y-137814974D01*
X112302572Y-137619493D01*
X112370023Y-137406860D01*
X112394889Y-137185176D01*
X112395000Y-137169217D01*
X112395000Y-136429750D01*
X112699800Y-136429750D01*
X112699800Y-137191750D01*
X112726980Y-137404218D01*
X112795089Y-137607301D01*
X112901508Y-137793194D01*
X113042149Y-137954754D01*
X113211606Y-138085772D01*
X113403367Y-138181213D01*
X113589855Y-138233330D01*
X113760250Y-138169151D01*
X113760250Y-136429750D01*
X113823750Y-136429750D01*
X113823750Y-138169151D01*
X113994145Y-138233330D01*
X114180633Y-138181213D01*
X114372394Y-138085772D01*
X114541851Y-137954754D01*
X114682492Y-137793194D01*
X114788911Y-137607301D01*
X114857020Y-137404218D01*
X114884200Y-137191750D01*
X114884200Y-136429750D01*
X113823750Y-136429750D01*
X113760250Y-136429750D01*
X112699800Y-136429750D01*
X112395000Y-136429750D01*
X112395000Y-135626783D01*
X112373232Y-135404773D01*
X112311135Y-135199101D01*
X112763236Y-134747000D01*
X113164046Y-134747000D01*
X113042149Y-134841246D01*
X112901508Y-135002806D01*
X112795089Y-135188699D01*
X112726980Y-135391782D01*
X112699800Y-135604250D01*
X112699800Y-136366250D01*
X113760250Y-136366250D01*
X113760250Y-136346250D01*
X113823750Y-136346250D01*
X113823750Y-136366250D01*
X114884200Y-136366250D01*
X114884200Y-135604250D01*
X114857020Y-135391782D01*
X114788911Y-135188699D01*
X114682492Y-135002806D01*
X114541851Y-134841246D01*
X114419954Y-134747000D01*
X114935000Y-134747000D01*
X115016704Y-134738989D01*
X115098533Y-134731830D01*
X115103025Y-134730525D01*
X115107674Y-134730069D01*
X115186284Y-134706335D01*
X115265146Y-134683423D01*
X115269294Y-134681273D01*
X115273772Y-134679921D01*
X115346309Y-134641353D01*
X115419184Y-134603578D01*
X115422837Y-134600662D01*
X115426965Y-134598467D01*
X115490611Y-134546558D01*
X115554780Y-134495333D01*
X115561288Y-134488916D01*
X115561420Y-134488808D01*
X115561521Y-134488685D01*
X115563618Y-134486618D01*
X116452618Y-133597618D01*
X116504732Y-133534173D01*
X116544000Y-133487376D01*
X116544000Y-138873000D01*
X111435713Y-138873000D01*
X111434909Y-138870337D01*
X111422796Y-138829179D01*
X111422055Y-138827761D01*
X111421593Y-138826232D01*
X111401471Y-138788388D01*
X111381565Y-138750311D01*
X111380562Y-138749063D01*
X111379812Y-138747653D01*
X111352716Y-138714431D01*
X111325800Y-138680954D01*
X111324574Y-138679925D01*
X111323564Y-138678687D01*
X111290529Y-138651358D01*
X111257625Y-138623748D01*
X111256223Y-138622977D01*
X111254992Y-138621959D01*
X111217277Y-138601566D01*
X111179638Y-138580874D01*
X111178113Y-138580390D01*
X111176707Y-138579630D01*
X111135711Y-138566940D01*
X111094808Y-138553965D01*
X111093219Y-138553787D01*
X111091692Y-138553314D01*
X111049044Y-138548831D01*
X111006367Y-138544044D01*
X111003295Y-138544023D01*
X111003183Y-138544011D01*
X111003071Y-138544021D01*
X111000000Y-138544000D01*
X104264597Y-138544000D01*
X104314361Y-138473455D01*
X104376658Y-138333535D01*
X104410591Y-138184179D01*
X104413034Y-138009239D01*
X104383284Y-137858994D01*
X104324919Y-137717389D01*
X104240160Y-137589817D01*
X104140000Y-137488954D01*
X104140000Y-136633331D01*
X104160231Y-136639749D01*
X104162889Y-136640047D01*
X104165440Y-136640827D01*
X104212073Y-136645564D01*
X104258757Y-136650800D01*
X104263986Y-136650837D01*
X104264076Y-136650846D01*
X104264160Y-136650838D01*
X104265850Y-136650850D01*
X105196955Y-136650850D01*
X105283519Y-136740489D01*
X105409288Y-136827901D01*
X105549640Y-136889219D01*
X105699229Y-136922108D01*
X105852357Y-136925316D01*
X106003193Y-136898720D01*
X106019679Y-136892326D01*
X106025280Y-136911606D01*
X106026511Y-136913980D01*
X106027282Y-136916535D01*
X106049291Y-136957928D01*
X106070906Y-136999628D01*
X106072574Y-137001717D01*
X106073827Y-137004074D01*
X106103503Y-137040460D01*
X106132761Y-137077110D01*
X106136424Y-137080825D01*
X106136489Y-137080905D01*
X106136563Y-137080966D01*
X106137741Y-137082161D01*
X106280754Y-137225174D01*
X106278973Y-137352669D01*
X106306622Y-137503314D01*
X106363005Y-137645721D01*
X106445974Y-137774464D01*
X106552369Y-137884639D01*
X106678138Y-137972051D01*
X106818490Y-138033369D01*
X106968079Y-138066258D01*
X107121207Y-138069466D01*
X107272043Y-138042870D01*
X107414839Y-137987483D01*
X107544158Y-137905414D01*
X107655074Y-137799791D01*
X107714295Y-137715839D01*
X107759971Y-137801744D01*
X107900961Y-137974614D01*
X108072843Y-138116807D01*
X108269070Y-138222907D01*
X108482168Y-138288872D01*
X108704020Y-138312189D01*
X108926177Y-138291971D01*
X109140175Y-138228988D01*
X109337865Y-138125639D01*
X109511715Y-137985859D01*
X109655105Y-137814974D01*
X109762572Y-137619493D01*
X109830023Y-137406860D01*
X109854889Y-137185176D01*
X109855000Y-137169217D01*
X109855000Y-135626783D01*
X109833232Y-135404773D01*
X109768756Y-135191220D01*
X109664029Y-134994256D01*
X109523039Y-134821386D01*
X109351157Y-134679193D01*
X109154930Y-134573093D01*
X108941832Y-134507128D01*
X108719980Y-134483811D01*
X108662351Y-134489056D01*
X111300007Y-131851400D01*
X111824322Y-131851400D01*
X111886357Y-131915639D01*
X112012126Y-132003051D01*
X112152478Y-132064369D01*
X112302067Y-132097258D01*
X112455195Y-132100466D01*
X112606031Y-132073870D01*
X112748827Y-132018483D01*
X112878146Y-131936414D01*
X112989062Y-131830791D01*
X113077349Y-131705635D01*
X113139646Y-131565715D01*
X113173579Y-131416359D01*
X113176022Y-131241419D01*
X113146272Y-131091174D01*
X113087907Y-130949569D01*
X113003148Y-130821997D01*
X112928388Y-130746713D01*
X112928388Y-130744988D01*
X112923584Y-130695997D01*
X112919286Y-130646868D01*
X112918502Y-130644171D01*
X112918229Y-130641383D01*
X112904003Y-130594263D01*
X112890243Y-130546901D01*
X112888951Y-130544409D01*
X112888141Y-130541725D01*
X112865014Y-130498229D01*
X112842335Y-130454478D01*
X112840585Y-130452286D01*
X112839268Y-130449809D01*
X112808126Y-130411625D01*
X112777388Y-130373120D01*
X112773537Y-130369215D01*
X112773473Y-130369136D01*
X112773400Y-130369076D01*
X112772159Y-130367817D01*
X109914729Y-127510387D01*
X109916151Y-127408536D01*
X109913241Y-127393841D01*
X111060773Y-126246309D01*
X113314840Y-126246309D01*
X113332418Y-126438638D01*
X113387179Y-126623842D01*
X113477020Y-126794803D01*
X113484721Y-126806329D01*
X113639686Y-126868653D01*
X114255099Y-126253240D01*
X113639686Y-125637827D01*
X113484721Y-125700151D01*
X113392484Y-125869832D01*
X113335122Y-126054247D01*
X113314840Y-126246309D01*
X111060773Y-126246309D01*
X113297734Y-124009348D01*
X113270228Y-124138753D01*
X113270228Y-124138753D01*
G37*
X113270228Y-124138753D02*
X113267404Y-124340969D01*
X113303912Y-124539884D01*
X113378360Y-124727919D01*
X113487913Y-124897912D01*
X113628399Y-125043389D01*
X113794465Y-125158808D01*
X113979787Y-125239773D01*
X114166788Y-125280888D01*
X114114602Y-125285658D01*
X113929398Y-125340419D01*
X113758437Y-125430260D01*
X113746911Y-125437961D01*
X113684587Y-125592926D01*
X114300000Y-126208339D01*
X114314143Y-126194197D01*
X114359044Y-126239098D01*
X114344901Y-126253240D01*
X114359044Y-126267383D01*
X114314143Y-126312284D01*
X114300000Y-126298141D01*
X113684587Y-126913554D01*
X113746911Y-127068519D01*
X113916592Y-127160756D01*
X114101007Y-127218118D01*
X114184424Y-127226927D01*
X114007429Y-127260690D01*
X113819919Y-127336449D01*
X113650694Y-127447187D01*
X113506202Y-127588684D01*
X113391945Y-127755552D01*
X113312275Y-127941435D01*
X113270228Y-128139253D01*
X113267404Y-128341469D01*
X113303912Y-128540384D01*
X113378360Y-128728419D01*
X113487913Y-128898412D01*
X113628399Y-129043889D01*
X113794465Y-129159308D01*
X113979787Y-129240273D01*
X114039866Y-129253482D01*
X114007429Y-129259670D01*
X113819919Y-129335429D01*
X113650694Y-129446167D01*
X113506202Y-129587664D01*
X113391945Y-129754532D01*
X113312275Y-129940415D01*
X113270228Y-130138233D01*
X113267404Y-130340449D01*
X113303912Y-130539364D01*
X113378360Y-130727399D01*
X113487913Y-130897392D01*
X113628399Y-131042869D01*
X113794465Y-131158288D01*
X113979787Y-131239253D01*
X114046052Y-131253822D01*
X114007429Y-131261190D01*
X113819919Y-131336949D01*
X113650694Y-131447687D01*
X113506202Y-131589184D01*
X113391945Y-131756052D01*
X113312275Y-131941935D01*
X113270228Y-132139753D01*
X113267404Y-132341969D01*
X113303912Y-132540884D01*
X113378360Y-132728919D01*
X113487913Y-132898912D01*
X113555596Y-132969000D01*
X112395000Y-132969000D01*
X112313296Y-132977011D01*
X112231467Y-132984170D01*
X112226975Y-132985475D01*
X112222326Y-132985931D01*
X112143716Y-133009665D01*
X112064854Y-133032577D01*
X112060706Y-133034727D01*
X112056228Y-133036079D01*
X111983691Y-133074647D01*
X111910816Y-133112422D01*
X111907163Y-133115338D01*
X111903035Y-133117533D01*
X111839389Y-133169442D01*
X111775220Y-133220667D01*
X111768712Y-133227084D01*
X111768580Y-133227192D01*
X111768479Y-133227315D01*
X111766382Y-133229382D01*
X110623382Y-134372382D01*
X110571268Y-134435827D01*
X110518474Y-134498744D01*
X110516221Y-134502842D01*
X110513255Y-134506453D01*
X110474449Y-134578825D01*
X110434889Y-134650786D01*
X110433476Y-134655240D01*
X110431266Y-134659362D01*
X110407249Y-134737917D01*
X110382427Y-134816167D01*
X110381906Y-134820812D01*
X110380539Y-134825283D01*
X110372408Y-134905335D01*
X110308895Y-134981026D01*
X110201428Y-135176507D01*
X110133977Y-135389140D01*
X110109111Y-135610824D01*
X110109000Y-135626783D01*
X110109000Y-137169217D01*
X110130768Y-137391227D01*
X110195244Y-137604780D01*
X110299971Y-137801744D01*
X110440961Y-137974614D01*
X110612843Y-138116807D01*
X110809070Y-138222907D01*
X111022168Y-138288872D01*
X111244020Y-138312189D01*
X111466177Y-138291971D01*
X111680175Y-138228988D01*
X111877865Y-138125639D01*
X112051715Y-137985859D01*
X112195105Y-137814974D01*
X112302572Y-137619493D01*
X112370023Y-137406860D01*
X112394889Y-137185176D01*
X112395000Y-137169217D01*
X112395000Y-136429750D01*
X112699800Y-136429750D01*
X112699800Y-137191750D01*
X112726980Y-137404218D01*
X112795089Y-137607301D01*
X112901508Y-137793194D01*
X113042149Y-137954754D01*
X113211606Y-138085772D01*
X113403367Y-138181213D01*
X113589855Y-138233330D01*
X113760250Y-138169151D01*
X113760250Y-136429750D01*
X113823750Y-136429750D01*
X113823750Y-138169151D01*
X113994145Y-138233330D01*
X114180633Y-138181213D01*
X114372394Y-138085772D01*
X114541851Y-137954754D01*
X114682492Y-137793194D01*
X114788911Y-137607301D01*
X114857020Y-137404218D01*
X114884200Y-137191750D01*
X114884200Y-136429750D01*
X113823750Y-136429750D01*
X113760250Y-136429750D01*
X112699800Y-136429750D01*
X112395000Y-136429750D01*
X112395000Y-135626783D01*
X112373232Y-135404773D01*
X112311135Y-135199101D01*
X112763236Y-134747000D01*
X113164046Y-134747000D01*
X113042149Y-134841246D01*
X112901508Y-135002806D01*
X112795089Y-135188699D01*
X112726980Y-135391782D01*
X112699800Y-135604250D01*
X112699800Y-136366250D01*
X113760250Y-136366250D01*
X113760250Y-136346250D01*
X113823750Y-136346250D01*
X113823750Y-136366250D01*
X114884200Y-136366250D01*
X114884200Y-135604250D01*
X114857020Y-135391782D01*
X114788911Y-135188699D01*
X114682492Y-135002806D01*
X114541851Y-134841246D01*
X114419954Y-134747000D01*
X114935000Y-134747000D01*
X115016704Y-134738989D01*
X115098533Y-134731830D01*
X115103025Y-134730525D01*
X115107674Y-134730069D01*
X115186284Y-134706335D01*
X115265146Y-134683423D01*
X115269294Y-134681273D01*
X115273772Y-134679921D01*
X115346309Y-134641353D01*
X115419184Y-134603578D01*
X115422837Y-134600662D01*
X115426965Y-134598467D01*
X115490611Y-134546558D01*
X115554780Y-134495333D01*
X115561288Y-134488916D01*
X115561420Y-134488808D01*
X115561521Y-134488685D01*
X115563618Y-134486618D01*
X116452618Y-133597618D01*
X116504732Y-133534173D01*
X116544000Y-133487376D01*
X116544000Y-138873000D01*
X111435713Y-138873000D01*
X111434909Y-138870337D01*
X111422796Y-138829179D01*
X111422055Y-138827761D01*
X111421593Y-138826232D01*
X111401471Y-138788388D01*
X111381565Y-138750311D01*
X111380562Y-138749063D01*
X111379812Y-138747653D01*
X111352716Y-138714431D01*
X111325800Y-138680954D01*
X111324574Y-138679925D01*
X111323564Y-138678687D01*
X111290529Y-138651358D01*
X111257625Y-138623748D01*
X111256223Y-138622977D01*
X111254992Y-138621959D01*
X111217277Y-138601566D01*
X111179638Y-138580874D01*
X111178113Y-138580390D01*
X111176707Y-138579630D01*
X111135711Y-138566940D01*
X111094808Y-138553965D01*
X111093219Y-138553787D01*
X111091692Y-138553314D01*
X111049044Y-138548831D01*
X111006367Y-138544044D01*
X111003295Y-138544023D01*
X111003183Y-138544011D01*
X111003071Y-138544021D01*
X111000000Y-138544000D01*
X104264597Y-138544000D01*
X104314361Y-138473455D01*
X104376658Y-138333535D01*
X104410591Y-138184179D01*
X104413034Y-138009239D01*
X104383284Y-137858994D01*
X104324919Y-137717389D01*
X104240160Y-137589817D01*
X104140000Y-137488954D01*
X104140000Y-136633331D01*
X104160231Y-136639749D01*
X104162889Y-136640047D01*
X104165440Y-136640827D01*
X104212073Y-136645564D01*
X104258757Y-136650800D01*
X104263986Y-136650837D01*
X104264076Y-136650846D01*
X104264160Y-136650838D01*
X104265850Y-136650850D01*
X105196955Y-136650850D01*
X105283519Y-136740489D01*
X105409288Y-136827901D01*
X105549640Y-136889219D01*
X105699229Y-136922108D01*
X105852357Y-136925316D01*
X106003193Y-136898720D01*
X106019679Y-136892326D01*
X106025280Y-136911606D01*
X106026511Y-136913980D01*
X106027282Y-136916535D01*
X106049291Y-136957928D01*
X106070906Y-136999628D01*
X106072574Y-137001717D01*
X106073827Y-137004074D01*
X106103503Y-137040460D01*
X106132761Y-137077110D01*
X106136424Y-137080825D01*
X106136489Y-137080905D01*
X106136563Y-137080966D01*
X106137741Y-137082161D01*
X106280754Y-137225174D01*
X106278973Y-137352669D01*
X106306622Y-137503314D01*
X106363005Y-137645721D01*
X106445974Y-137774464D01*
X106552369Y-137884639D01*
X106678138Y-137972051D01*
X106818490Y-138033369D01*
X106968079Y-138066258D01*
X107121207Y-138069466D01*
X107272043Y-138042870D01*
X107414839Y-137987483D01*
X107544158Y-137905414D01*
X107655074Y-137799791D01*
X107714295Y-137715839D01*
X107759971Y-137801744D01*
X107900961Y-137974614D01*
X108072843Y-138116807D01*
X108269070Y-138222907D01*
X108482168Y-138288872D01*
X108704020Y-138312189D01*
X108926177Y-138291971D01*
X109140175Y-138228988D01*
X109337865Y-138125639D01*
X109511715Y-137985859D01*
X109655105Y-137814974D01*
X109762572Y-137619493D01*
X109830023Y-137406860D01*
X109854889Y-137185176D01*
X109855000Y-137169217D01*
X109855000Y-135626783D01*
X109833232Y-135404773D01*
X109768756Y-135191220D01*
X109664029Y-134994256D01*
X109523039Y-134821386D01*
X109351157Y-134679193D01*
X109154930Y-134573093D01*
X108941832Y-134507128D01*
X108719980Y-134483811D01*
X108662351Y-134489056D01*
X111300007Y-131851400D01*
X111824322Y-131851400D01*
X111886357Y-131915639D01*
X112012126Y-132003051D01*
X112152478Y-132064369D01*
X112302067Y-132097258D01*
X112455195Y-132100466D01*
X112606031Y-132073870D01*
X112748827Y-132018483D01*
X112878146Y-131936414D01*
X112989062Y-131830791D01*
X113077349Y-131705635D01*
X113139646Y-131565715D01*
X113173579Y-131416359D01*
X113176022Y-131241419D01*
X113146272Y-131091174D01*
X113087907Y-130949569D01*
X113003148Y-130821997D01*
X112928388Y-130746713D01*
X112928388Y-130744988D01*
X112923584Y-130695997D01*
X112919286Y-130646868D01*
X112918502Y-130644171D01*
X112918229Y-130641383D01*
X112904003Y-130594263D01*
X112890243Y-130546901D01*
X112888951Y-130544409D01*
X112888141Y-130541725D01*
X112865014Y-130498229D01*
X112842335Y-130454478D01*
X112840585Y-130452286D01*
X112839268Y-130449809D01*
X112808126Y-130411625D01*
X112777388Y-130373120D01*
X112773537Y-130369215D01*
X112773473Y-130369136D01*
X112773400Y-130369076D01*
X112772159Y-130367817D01*
X109914729Y-127510387D01*
X109916151Y-127408536D01*
X109913241Y-127393841D01*
X111060773Y-126246309D01*
X113314840Y-126246309D01*
X113332418Y-126438638D01*
X113387179Y-126623842D01*
X113477020Y-126794803D01*
X113484721Y-126806329D01*
X113639686Y-126868653D01*
X114255099Y-126253240D01*
X113639686Y-125637827D01*
X113484721Y-125700151D01*
X113392484Y-125869832D01*
X113335122Y-126054247D01*
X113314840Y-126246309D01*
X111060773Y-126246309D01*
X113297734Y-124009348D01*
X113270228Y-124138753D01*
G36*
X109162554Y-128266896D02*
X109558584Y-128662926D01*
X109485649Y-128692393D01*
X109357488Y-128776259D01*
X109248058Y-128883421D01*
X109161527Y-129009797D01*
X109101190Y-129150573D01*
X109069346Y-129300389D01*
X109067207Y-129453536D01*
X109094856Y-129604181D01*
X109151239Y-129746588D01*
X109201064Y-129823902D01*
X109110415Y-129860526D01*
X108982254Y-129944392D01*
X108872824Y-130051554D01*
X108786293Y-130177930D01*
X108725956Y-130318706D01*
X108694112Y-130468522D01*
X108691973Y-130621669D01*
X108719622Y-130772314D01*
X108776005Y-130914721D01*
X108858974Y-131043464D01*
X108965369Y-131153639D01*
X109091138Y-131241051D01*
X109231490Y-131302369D01*
X109381079Y-131335258D01*
X109534207Y-131338466D01*
X109685043Y-131311870D01*
X109827839Y-131256483D01*
X109957158Y-131174414D01*
X110068074Y-131068791D01*
X110156361Y-130943635D01*
X110218658Y-130803715D01*
X110252591Y-130654359D01*
X110255034Y-130479419D01*
X110225284Y-130329174D01*
X110166919Y-130187569D01*
X110121913Y-130119830D01*
X110203073Y-130088350D01*
X110332392Y-130006281D01*
X110443308Y-129900658D01*
X110531595Y-129775502D01*
X110574591Y-129678933D01*
X111680258Y-130784600D01*
X111079065Y-130784600D01*
X111030074Y-130789404D01*
X110980945Y-130793702D01*
X110978248Y-130794486D01*
X110975460Y-130794759D01*
X110928340Y-130808985D01*
X110880978Y-130822745D01*
X110878486Y-130824037D01*
X110875802Y-130824847D01*
X110832306Y-130847974D01*
X110788555Y-130870653D01*
X110786363Y-130872403D01*
X110783886Y-130873720D01*
X110745702Y-130904862D01*
X110707197Y-130935600D01*
X110703292Y-130939451D01*
X110703213Y-130939515D01*
X110703153Y-130939588D01*
X110701894Y-130940829D01*
X106823330Y-134819393D01*
X106792067Y-134857455D01*
X106760385Y-134895211D01*
X106759032Y-134897673D01*
X106757254Y-134899837D01*
X106734007Y-134943193D01*
X106710234Y-134986435D01*
X106709385Y-134989112D01*
X106708061Y-134991581D01*
X106693675Y-135038635D01*
X106678757Y-135085664D01*
X106678444Y-135088456D01*
X106677625Y-135091134D01*
X106672648Y-135140130D01*
X106667153Y-135189117D01*
X106667137Y-135191396D01*
X106619483Y-135238063D01*
X106153131Y-134771711D01*
X106116893Y-134741945D01*
X106080924Y-134711763D01*
X106078582Y-134710475D01*
X106076519Y-134708781D01*
X106035172Y-134686611D01*
X105994043Y-134664000D01*
X105991498Y-134663193D01*
X105989143Y-134661930D01*
X105944251Y-134648205D01*
X105899540Y-134634022D01*
X105896887Y-134633724D01*
X105894331Y-134632943D01*
X105847608Y-134628197D01*
X105801014Y-134622971D01*
X105795794Y-134622934D01*
X105795694Y-134622924D01*
X105795600Y-134622933D01*
X105793921Y-134622921D01*
X104075012Y-134622921D01*
X99973769Y-130521678D01*
X99937531Y-130491912D01*
X99901562Y-130461730D01*
X99899220Y-130460442D01*
X99897157Y-130458748D01*
X99855810Y-130436578D01*
X99814681Y-130413967D01*
X99812136Y-130413160D01*
X99809781Y-130411897D01*
X99764889Y-130398172D01*
X99720178Y-130383989D01*
X99717525Y-130383691D01*
X99714969Y-130382910D01*
X99668246Y-130378164D01*
X99621652Y-130372938D01*
X99616432Y-130372901D01*
X99616332Y-130372891D01*
X99616238Y-130372900D01*
X99614559Y-130372888D01*
X97776152Y-130372888D01*
X99722970Y-128426070D01*
X99754252Y-128387986D01*
X99785915Y-128350252D01*
X99787267Y-128347793D01*
X99789046Y-128345627D01*
X99807478Y-128311252D01*
X99820138Y-128320051D01*
X99960490Y-128381369D01*
X100110079Y-128414258D01*
X100203000Y-128416205D01*
X100203000Y-129540000D01*
X100207579Y-129586704D01*
X100211669Y-129633448D01*
X100211917Y-129634302D01*
X100211998Y-129635190D01*
X100212501Y-129636900D01*
X100212675Y-129638671D01*
X100226227Y-129683556D01*
X100239329Y-129728655D01*
X100239740Y-129729449D01*
X100239991Y-129730300D01*
X100240816Y-129731878D01*
X100241331Y-129733584D01*
X100263340Y-129774977D01*
X100284955Y-129816677D01*
X100285513Y-129817376D01*
X100285924Y-129818162D01*
X100287039Y-129819549D01*
X100287876Y-129821123D01*
X100317552Y-129857509D01*
X100346810Y-129894159D01*
X100347985Y-129895351D01*
X100348048Y-129895429D01*
X100348130Y-129895498D01*
X100350473Y-129897874D01*
X100350538Y-129897954D01*
X100350612Y-129898015D01*
X100351790Y-129899210D01*
X102878755Y-132426176D01*
X102934005Y-132565721D01*
X103016974Y-132694464D01*
X103123369Y-132804639D01*
X103249138Y-132892051D01*
X103389490Y-132953369D01*
X103539079Y-132986258D01*
X103692207Y-132989466D01*
X103843043Y-132962870D01*
X103985839Y-132907483D01*
X104046282Y-132869124D01*
X104077005Y-132946721D01*
X104159974Y-133075464D01*
X104266369Y-133185639D01*
X104392138Y-133273051D01*
X104532490Y-133334369D01*
X104682079Y-133367258D01*
X104835207Y-133370466D01*
X104986043Y-133343870D01*
X105128839Y-133288483D01*
X105258158Y-133206414D01*
X105369074Y-133100791D01*
X105457361Y-132975635D01*
X105519658Y-132835715D01*
X105553591Y-132686359D01*
X105555836Y-132525584D01*
X105947021Y-132134399D01*
X105976787Y-132098161D01*
X106006969Y-132062192D01*
X106008257Y-132059850D01*
X106009951Y-132057787D01*
X106032102Y-132016475D01*
X106054732Y-131975311D01*
X106055541Y-131972761D01*
X106056801Y-131970411D01*
X106070512Y-131925565D01*
X106084710Y-131880808D01*
X106085008Y-131878155D01*
X106085789Y-131875599D01*
X106090535Y-131828871D01*
X106095761Y-131782282D01*
X106095798Y-131777064D01*
X106095808Y-131776963D01*
X106095799Y-131776869D01*
X106095811Y-131775189D01*
X106095811Y-129953609D01*
X107527868Y-128521553D01*
X107532492Y-128546749D01*
X107588875Y-128689156D01*
X107671844Y-128817899D01*
X107778239Y-128928074D01*
X107904008Y-129015486D01*
X108044360Y-129076804D01*
X108193949Y-129109693D01*
X108347077Y-129112901D01*
X108497913Y-129086305D01*
X108640709Y-129030918D01*
X108770028Y-128948849D01*
X108880944Y-128843226D01*
X108969231Y-128718070D01*
X109031528Y-128578150D01*
X109065461Y-128428794D01*
X109067750Y-128264910D01*
X109162554Y-128266896D01*
X109162554Y-128266896D01*
G37*
X109162554Y-128266896D02*
X109558584Y-128662926D01*
X109485649Y-128692393D01*
X109357488Y-128776259D01*
X109248058Y-128883421D01*
X109161527Y-129009797D01*
X109101190Y-129150573D01*
X109069346Y-129300389D01*
X109067207Y-129453536D01*
X109094856Y-129604181D01*
X109151239Y-129746588D01*
X109201064Y-129823902D01*
X109110415Y-129860526D01*
X108982254Y-129944392D01*
X108872824Y-130051554D01*
X108786293Y-130177930D01*
X108725956Y-130318706D01*
X108694112Y-130468522D01*
X108691973Y-130621669D01*
X108719622Y-130772314D01*
X108776005Y-130914721D01*
X108858974Y-131043464D01*
X108965369Y-131153639D01*
X109091138Y-131241051D01*
X109231490Y-131302369D01*
X109381079Y-131335258D01*
X109534207Y-131338466D01*
X109685043Y-131311870D01*
X109827839Y-131256483D01*
X109957158Y-131174414D01*
X110068074Y-131068791D01*
X110156361Y-130943635D01*
X110218658Y-130803715D01*
X110252591Y-130654359D01*
X110255034Y-130479419D01*
X110225284Y-130329174D01*
X110166919Y-130187569D01*
X110121913Y-130119830D01*
X110203073Y-130088350D01*
X110332392Y-130006281D01*
X110443308Y-129900658D01*
X110531595Y-129775502D01*
X110574591Y-129678933D01*
X111680258Y-130784600D01*
X111079065Y-130784600D01*
X111030074Y-130789404D01*
X110980945Y-130793702D01*
X110978248Y-130794486D01*
X110975460Y-130794759D01*
X110928340Y-130808985D01*
X110880978Y-130822745D01*
X110878486Y-130824037D01*
X110875802Y-130824847D01*
X110832306Y-130847974D01*
X110788555Y-130870653D01*
X110786363Y-130872403D01*
X110783886Y-130873720D01*
X110745702Y-130904862D01*
X110707197Y-130935600D01*
X110703292Y-130939451D01*
X110703213Y-130939515D01*
X110703153Y-130939588D01*
X110701894Y-130940829D01*
X106823330Y-134819393D01*
X106792067Y-134857455D01*
X106760385Y-134895211D01*
X106759032Y-134897673D01*
X106757254Y-134899837D01*
X106734007Y-134943193D01*
X106710234Y-134986435D01*
X106709385Y-134989112D01*
X106708061Y-134991581D01*
X106693675Y-135038635D01*
X106678757Y-135085664D01*
X106678444Y-135088456D01*
X106677625Y-135091134D01*
X106672648Y-135140130D01*
X106667153Y-135189117D01*
X106667137Y-135191396D01*
X106619483Y-135238063D01*
X106153131Y-134771711D01*
X106116893Y-134741945D01*
X106080924Y-134711763D01*
X106078582Y-134710475D01*
X106076519Y-134708781D01*
X106035172Y-134686611D01*
X105994043Y-134664000D01*
X105991498Y-134663193D01*
X105989143Y-134661930D01*
X105944251Y-134648205D01*
X105899540Y-134634022D01*
X105896887Y-134633724D01*
X105894331Y-134632943D01*
X105847608Y-134628197D01*
X105801014Y-134622971D01*
X105795794Y-134622934D01*
X105795694Y-134622924D01*
X105795600Y-134622933D01*
X105793921Y-134622921D01*
X104075012Y-134622921D01*
X99973769Y-130521678D01*
X99937531Y-130491912D01*
X99901562Y-130461730D01*
X99899220Y-130460442D01*
X99897157Y-130458748D01*
X99855810Y-130436578D01*
X99814681Y-130413967D01*
X99812136Y-130413160D01*
X99809781Y-130411897D01*
X99764889Y-130398172D01*
X99720178Y-130383989D01*
X99717525Y-130383691D01*
X99714969Y-130382910D01*
X99668246Y-130378164D01*
X99621652Y-130372938D01*
X99616432Y-130372901D01*
X99616332Y-130372891D01*
X99616238Y-130372900D01*
X99614559Y-130372888D01*
X97776152Y-130372888D01*
X99722970Y-128426070D01*
X99754252Y-128387986D01*
X99785915Y-128350252D01*
X99787267Y-128347793D01*
X99789046Y-128345627D01*
X99807478Y-128311252D01*
X99820138Y-128320051D01*
X99960490Y-128381369D01*
X100110079Y-128414258D01*
X100203000Y-128416205D01*
X100203000Y-129540000D01*
X100207579Y-129586704D01*
X100211669Y-129633448D01*
X100211917Y-129634302D01*
X100211998Y-129635190D01*
X100212501Y-129636900D01*
X100212675Y-129638671D01*
X100226227Y-129683556D01*
X100239329Y-129728655D01*
X100239740Y-129729449D01*
X100239991Y-129730300D01*
X100240816Y-129731878D01*
X100241331Y-129733584D01*
X100263340Y-129774977D01*
X100284955Y-129816677D01*
X100285513Y-129817376D01*
X100285924Y-129818162D01*
X100287039Y-129819549D01*
X100287876Y-129821123D01*
X100317552Y-129857509D01*
X100346810Y-129894159D01*
X100347985Y-129895351D01*
X100348048Y-129895429D01*
X100348130Y-129895498D01*
X100350473Y-129897874D01*
X100350538Y-129897954D01*
X100350612Y-129898015D01*
X100351790Y-129899210D01*
X102878755Y-132426176D01*
X102934005Y-132565721D01*
X103016974Y-132694464D01*
X103123369Y-132804639D01*
X103249138Y-132892051D01*
X103389490Y-132953369D01*
X103539079Y-132986258D01*
X103692207Y-132989466D01*
X103843043Y-132962870D01*
X103985839Y-132907483D01*
X104046282Y-132869124D01*
X104077005Y-132946721D01*
X104159974Y-133075464D01*
X104266369Y-133185639D01*
X104392138Y-133273051D01*
X104532490Y-133334369D01*
X104682079Y-133367258D01*
X104835207Y-133370466D01*
X104986043Y-133343870D01*
X105128839Y-133288483D01*
X105258158Y-133206414D01*
X105369074Y-133100791D01*
X105457361Y-132975635D01*
X105519658Y-132835715D01*
X105553591Y-132686359D01*
X105555836Y-132525584D01*
X105947021Y-132134399D01*
X105976787Y-132098161D01*
X106006969Y-132062192D01*
X106008257Y-132059850D01*
X106009951Y-132057787D01*
X106032102Y-132016475D01*
X106054732Y-131975311D01*
X106055541Y-131972761D01*
X106056801Y-131970411D01*
X106070512Y-131925565D01*
X106084710Y-131880808D01*
X106085008Y-131878155D01*
X106085789Y-131875599D01*
X106090535Y-131828871D01*
X106095761Y-131782282D01*
X106095798Y-131777064D01*
X106095808Y-131776963D01*
X106095799Y-131776869D01*
X106095811Y-131775189D01*
X106095811Y-129953609D01*
X107527868Y-128521553D01*
X107532492Y-128546749D01*
X107588875Y-128689156D01*
X107671844Y-128817899D01*
X107778239Y-128928074D01*
X107904008Y-129015486D01*
X108044360Y-129076804D01*
X108193949Y-129109693D01*
X108347077Y-129112901D01*
X108497913Y-129086305D01*
X108640709Y-129030918D01*
X108770028Y-128948849D01*
X108880944Y-128843226D01*
X108969231Y-128718070D01*
X109031528Y-128578150D01*
X109065461Y-128428794D01*
X109067750Y-128264910D01*
X109162554Y-128266896D01*
G36*
X96595622Y-126816314D02*
X96629651Y-126902261D01*
X96537415Y-126939526D01*
X96409254Y-127023392D01*
X96299824Y-127130554D01*
X96213293Y-127256930D01*
X96152956Y-127397706D01*
X96121112Y-127547522D01*
X96118973Y-127700669D01*
X96146622Y-127851314D01*
X96203005Y-127993721D01*
X96285974Y-128122464D01*
X96392369Y-128232639D01*
X96518138Y-128320051D01*
X96658490Y-128381369D01*
X96808079Y-128414258D01*
X96961207Y-128417466D01*
X97112043Y-128390870D01*
X97254839Y-128335483D01*
X97384158Y-128253414D01*
X97395247Y-128242854D01*
X97416622Y-128359314D01*
X97473005Y-128501721D01*
X97555974Y-128630464D01*
X97662369Y-128740639D01*
X97788138Y-128828051D01*
X97804957Y-128835399D01*
X97300993Y-129339363D01*
X97301034Y-129336419D01*
X97271284Y-129186174D01*
X97212919Y-129044569D01*
X97128160Y-128916997D01*
X97020237Y-128808317D01*
X96893260Y-128722670D01*
X96752065Y-128663318D01*
X96602032Y-128632520D01*
X96448873Y-128631451D01*
X96298424Y-128660151D01*
X96156415Y-128717526D01*
X96028254Y-128801392D01*
X95918824Y-128908554D01*
X95832293Y-129034930D01*
X95771956Y-129175706D01*
X95740112Y-129325522D01*
X95737973Y-129478669D01*
X95765622Y-129629314D01*
X95822005Y-129771721D01*
X95898410Y-129890279D01*
X94445118Y-129890279D01*
X94453472Y-129882324D01*
X94541759Y-129757168D01*
X94604056Y-129617248D01*
X94637989Y-129467892D01*
X94640432Y-129292952D01*
X94610682Y-129142707D01*
X94552317Y-129001102D01*
X94467558Y-128873530D01*
X94359635Y-128764850D01*
X94232658Y-128679203D01*
X94091463Y-128619851D01*
X93941430Y-128589053D01*
X93788271Y-128587984D01*
X93637822Y-128616684D01*
X93495813Y-128674059D01*
X93367652Y-128757925D01*
X93258222Y-128865087D01*
X93226294Y-128911717D01*
X93223260Y-128909670D01*
X93082065Y-128850318D01*
X92932032Y-128819520D01*
X92862400Y-128819034D01*
X92862400Y-128363942D01*
X93311942Y-127914400D01*
X94303315Y-127914400D01*
X94352306Y-127909596D01*
X94401435Y-127905298D01*
X94404132Y-127904514D01*
X94406920Y-127904241D01*
X94454040Y-127890015D01*
X94501402Y-127876255D01*
X94503894Y-127874963D01*
X94506578Y-127874153D01*
X94550053Y-127851037D01*
X94593826Y-127828347D01*
X94596020Y-127826595D01*
X94598494Y-127825280D01*
X94636656Y-127794156D01*
X94675183Y-127763400D01*
X94679088Y-127759549D01*
X94679167Y-127759485D01*
X94679227Y-127759412D01*
X94680486Y-127758171D01*
X95400158Y-127038499D01*
X95467138Y-127085051D01*
X95607490Y-127146369D01*
X95757079Y-127179258D01*
X95910207Y-127182466D01*
X96061043Y-127155870D01*
X96203839Y-127100483D01*
X96333158Y-127018414D01*
X96444074Y-126912791D01*
X96532361Y-126787635D01*
X96573429Y-126695396D01*
X96595622Y-126816314D01*
X96595622Y-126816314D01*
G37*
X96595622Y-126816314D02*
X96629651Y-126902261D01*
X96537415Y-126939526D01*
X96409254Y-127023392D01*
X96299824Y-127130554D01*
X96213293Y-127256930D01*
X96152956Y-127397706D01*
X96121112Y-127547522D01*
X96118973Y-127700669D01*
X96146622Y-127851314D01*
X96203005Y-127993721D01*
X96285974Y-128122464D01*
X96392369Y-128232639D01*
X96518138Y-128320051D01*
X96658490Y-128381369D01*
X96808079Y-128414258D01*
X96961207Y-128417466D01*
X97112043Y-128390870D01*
X97254839Y-128335483D01*
X97384158Y-128253414D01*
X97395247Y-128242854D01*
X97416622Y-128359314D01*
X97473005Y-128501721D01*
X97555974Y-128630464D01*
X97662369Y-128740639D01*
X97788138Y-128828051D01*
X97804957Y-128835399D01*
X97300993Y-129339363D01*
X97301034Y-129336419D01*
X97271284Y-129186174D01*
X97212919Y-129044569D01*
X97128160Y-128916997D01*
X97020237Y-128808317D01*
X96893260Y-128722670D01*
X96752065Y-128663318D01*
X96602032Y-128632520D01*
X96448873Y-128631451D01*
X96298424Y-128660151D01*
X96156415Y-128717526D01*
X96028254Y-128801392D01*
X95918824Y-128908554D01*
X95832293Y-129034930D01*
X95771956Y-129175706D01*
X95740112Y-129325522D01*
X95737973Y-129478669D01*
X95765622Y-129629314D01*
X95822005Y-129771721D01*
X95898410Y-129890279D01*
X94445118Y-129890279D01*
X94453472Y-129882324D01*
X94541759Y-129757168D01*
X94604056Y-129617248D01*
X94637989Y-129467892D01*
X94640432Y-129292952D01*
X94610682Y-129142707D01*
X94552317Y-129001102D01*
X94467558Y-128873530D01*
X94359635Y-128764850D01*
X94232658Y-128679203D01*
X94091463Y-128619851D01*
X93941430Y-128589053D01*
X93788271Y-128587984D01*
X93637822Y-128616684D01*
X93495813Y-128674059D01*
X93367652Y-128757925D01*
X93258222Y-128865087D01*
X93226294Y-128911717D01*
X93223260Y-128909670D01*
X93082065Y-128850318D01*
X92932032Y-128819520D01*
X92862400Y-128819034D01*
X92862400Y-128363942D01*
X93311942Y-127914400D01*
X94303315Y-127914400D01*
X94352306Y-127909596D01*
X94401435Y-127905298D01*
X94404132Y-127904514D01*
X94406920Y-127904241D01*
X94454040Y-127890015D01*
X94501402Y-127876255D01*
X94503894Y-127874963D01*
X94506578Y-127874153D01*
X94550053Y-127851037D01*
X94593826Y-127828347D01*
X94596020Y-127826595D01*
X94598494Y-127825280D01*
X94636656Y-127794156D01*
X94675183Y-127763400D01*
X94679088Y-127759549D01*
X94679167Y-127759485D01*
X94679227Y-127759412D01*
X94680486Y-127758171D01*
X95400158Y-127038499D01*
X95467138Y-127085051D01*
X95607490Y-127146369D01*
X95757079Y-127179258D01*
X95910207Y-127182466D01*
X96061043Y-127155870D01*
X96203839Y-127100483D01*
X96333158Y-127018414D01*
X96444074Y-126912791D01*
X96532361Y-126787635D01*
X96573429Y-126695396D01*
X96595622Y-126816314D01*
G36*
X95903117Y-114532784D02*
X96011834Y-114668001D01*
X96144744Y-114779526D01*
X96296786Y-114863111D01*
X96462167Y-114915573D01*
X96634588Y-114934913D01*
X96647000Y-114935000D01*
X97548764Y-114935000D01*
X99828382Y-117214618D01*
X99891827Y-117266732D01*
X99954744Y-117319526D01*
X99958842Y-117321779D01*
X99962453Y-117324745D01*
X100034825Y-117363551D01*
X100106786Y-117403111D01*
X100111240Y-117404524D01*
X100115362Y-117406734D01*
X100172109Y-117424083D01*
X100145805Y-117450388D01*
X100116039Y-117486626D01*
X100085857Y-117522595D01*
X100084569Y-117524937D01*
X100082875Y-117527000D01*
X100060705Y-117568347D01*
X100038094Y-117609476D01*
X100037287Y-117612021D01*
X100036024Y-117614376D01*
X100022299Y-117659268D01*
X100008116Y-117703979D01*
X100007818Y-117706632D01*
X100007037Y-117709188D01*
X100002291Y-117755911D01*
X99999958Y-117776710D01*
X99903839Y-117870837D01*
X99817308Y-117997213D01*
X99756971Y-118137989D01*
X99725127Y-118287805D01*
X99722988Y-118440952D01*
X99750637Y-118591597D01*
X99807020Y-118734004D01*
X99889989Y-118862747D01*
X99996384Y-118972922D01*
X100122153Y-119060334D01*
X100262505Y-119121652D01*
X100412094Y-119154541D01*
X100565222Y-119157749D01*
X100716058Y-119131153D01*
X100858854Y-119075766D01*
X100988173Y-118993697D01*
X101099089Y-118888074D01*
X101187376Y-118762918D01*
X101249673Y-118622998D01*
X101283606Y-118473642D01*
X101286049Y-118298702D01*
X101256299Y-118148457D01*
X101211679Y-118040199D01*
X101778033Y-118040199D01*
X101740956Y-118126706D01*
X101709112Y-118276522D01*
X101706973Y-118429669D01*
X101734622Y-118580314D01*
X101791005Y-118722721D01*
X101873974Y-118851464D01*
X101980369Y-118961639D01*
X102106138Y-119049051D01*
X102246490Y-119110369D01*
X102396079Y-119143258D01*
X102549207Y-119146466D01*
X102552471Y-119145891D01*
X103886000Y-120479420D01*
X103886000Y-120815134D01*
X103878237Y-120807317D01*
X103751260Y-120721670D01*
X103610065Y-120662318D01*
X103460032Y-120631520D01*
X103306873Y-120630451D01*
X103156424Y-120659151D01*
X103014415Y-120716526D01*
X102886254Y-120800392D01*
X102776824Y-120907554D01*
X102690293Y-121033930D01*
X102629956Y-121174706D01*
X102598112Y-121324522D01*
X102596002Y-121475578D01*
X101609497Y-122462083D01*
X101582982Y-122328174D01*
X101524617Y-122186569D01*
X101439858Y-122058997D01*
X101331935Y-121950317D01*
X101204958Y-121864670D01*
X101063763Y-121805318D01*
X100913730Y-121774520D01*
X100760571Y-121773451D01*
X100610122Y-121802151D01*
X100468113Y-121859526D01*
X100339952Y-121943392D01*
X100230522Y-122050554D01*
X100143991Y-122176930D01*
X100083654Y-122317706D01*
X100051810Y-122467522D01*
X100050592Y-122554709D01*
X99910655Y-122581404D01*
X99768646Y-122638779D01*
X99640485Y-122722645D01*
X99531055Y-122829807D01*
X99444524Y-122956183D01*
X99429918Y-122990261D01*
X99190487Y-122750830D01*
X99234361Y-122688635D01*
X99296658Y-122548715D01*
X99330591Y-122399359D01*
X99333034Y-122224419D01*
X99303284Y-122074174D01*
X99244919Y-121932569D01*
X99160160Y-121804997D01*
X99052237Y-121696317D01*
X98925260Y-121610670D01*
X98784065Y-121551318D01*
X98634032Y-121520520D01*
X98480873Y-121519451D01*
X98330424Y-121548151D01*
X98188415Y-121605526D01*
X98060254Y-121689392D01*
X97950824Y-121796554D01*
X97864293Y-121922930D01*
X97803956Y-122063706D01*
X97772112Y-122213522D01*
X97769973Y-122366669D01*
X97797622Y-122517314D01*
X97854005Y-122659721D01*
X97936974Y-122788464D01*
X98019288Y-122873703D01*
X98023404Y-122915676D01*
X98027702Y-122964805D01*
X98028486Y-122967502D01*
X98028759Y-122970290D01*
X98042985Y-123017410D01*
X98056745Y-123064772D01*
X98058037Y-123067264D01*
X98058847Y-123069948D01*
X98081963Y-123113423D01*
X98104653Y-123157196D01*
X98106405Y-123159390D01*
X98107720Y-123161864D01*
X98138824Y-123200001D01*
X98169600Y-123238553D01*
X98173451Y-123242458D01*
X98173515Y-123242537D01*
X98173588Y-123242597D01*
X98174829Y-123243856D01*
X99046801Y-124115828D01*
X99046801Y-125893079D01*
X98932032Y-125869520D01*
X98834327Y-125868838D01*
X98296264Y-125265031D01*
X98287458Y-125256906D01*
X98279952Y-125247571D01*
X98251090Y-125223352D01*
X98223396Y-125197802D01*
X98213181Y-125191544D01*
X98204003Y-125183842D01*
X98170983Y-125165689D01*
X98138857Y-125146006D01*
X98127620Y-125141850D01*
X98117122Y-125136079D01*
X98081210Y-125124687D01*
X98045868Y-125111617D01*
X98034037Y-125109723D01*
X98022619Y-125106101D01*
X97985179Y-125101902D01*
X97947970Y-125095945D01*
X97935996Y-125096385D01*
X97924093Y-125095050D01*
X97917000Y-125095000D01*
X93599000Y-125095000D01*
X93552296Y-125099579D01*
X93505552Y-125103669D01*
X93502986Y-125104414D01*
X93500329Y-125104675D01*
X93455444Y-125118227D01*
X93410345Y-125131329D01*
X93407971Y-125132560D01*
X93405416Y-125133331D01*
X93364023Y-125155340D01*
X93322323Y-125176955D01*
X93320234Y-125178623D01*
X93317877Y-125179876D01*
X93281522Y-125209527D01*
X93244841Y-125238809D01*
X93241125Y-125242474D01*
X93241046Y-125242538D01*
X93240986Y-125242611D01*
X93239790Y-125243790D01*
X91855405Y-126628175D01*
X91845841Y-126635810D01*
X91844649Y-126636985D01*
X91844571Y-126637048D01*
X91844502Y-126637130D01*
X91840790Y-126640790D01*
X91689580Y-126792000D01*
X91653379Y-126792000D01*
X91676658Y-126739715D01*
X91710591Y-126590359D01*
X91713034Y-126415419D01*
X91683284Y-126265174D01*
X91624919Y-126123569D01*
X91540160Y-125995997D01*
X91432237Y-125887317D01*
X91305260Y-125801670D01*
X91164065Y-125742318D01*
X91014032Y-125711520D01*
X90860873Y-125710451D01*
X90710424Y-125739151D01*
X90568415Y-125796526D01*
X90440254Y-125880392D01*
X90334453Y-125984000D01*
X90195735Y-125984000D01*
X90968966Y-125210769D01*
X91057138Y-125272051D01*
X91197490Y-125333369D01*
X91347079Y-125366258D01*
X91500207Y-125369466D01*
X91651043Y-125342870D01*
X91793839Y-125287483D01*
X91923158Y-125205414D01*
X92034074Y-125099791D01*
X92122361Y-124974635D01*
X92184658Y-124834715D01*
X92218591Y-124685359D01*
X92221034Y-124510419D01*
X92191284Y-124360174D01*
X92132919Y-124218569D01*
X92048160Y-124090997D01*
X91940237Y-123982317D01*
X91897549Y-123953523D01*
X91944658Y-123847715D01*
X91978591Y-123698359D01*
X91981034Y-123523419D01*
X91951284Y-123373174D01*
X91892919Y-123231569D01*
X91808160Y-123103997D01*
X91700237Y-122995317D01*
X91573260Y-122909670D01*
X91432065Y-122850318D01*
X91308001Y-122824851D01*
X91308001Y-122516419D01*
X93235751Y-120588669D01*
X93832973Y-120588669D01*
X93860622Y-120739314D01*
X93917005Y-120881721D01*
X93999974Y-121010464D01*
X94106369Y-121120639D01*
X94232138Y-121208051D01*
X94372490Y-121269369D01*
X94522079Y-121302258D01*
X94675207Y-121305466D01*
X94826043Y-121278870D01*
X94968839Y-121223483D01*
X95098158Y-121141414D01*
X95209074Y-121035791D01*
X95297361Y-120910635D01*
X95359658Y-120770715D01*
X95393591Y-120621359D01*
X95396034Y-120446419D01*
X95366284Y-120296174D01*
X95307919Y-120154569D01*
X95223160Y-120026997D01*
X95115237Y-119918317D01*
X94988260Y-119832670D01*
X94847065Y-119773318D01*
X94697032Y-119742520D01*
X94543873Y-119741451D01*
X94393424Y-119770151D01*
X94251415Y-119827526D01*
X94123254Y-119911392D01*
X94013824Y-120018554D01*
X93927293Y-120144930D01*
X93866956Y-120285706D01*
X93835112Y-120435522D01*
X93832973Y-120588669D01*
X93235751Y-120588669D01*
X95674297Y-118150123D01*
X95695622Y-118266314D01*
X95752005Y-118408721D01*
X95834974Y-118537464D01*
X95941369Y-118647639D01*
X96067138Y-118735051D01*
X96207490Y-118796369D01*
X96357079Y-118829258D01*
X96510207Y-118832466D01*
X96661043Y-118805870D01*
X96803839Y-118750483D01*
X96933158Y-118668414D01*
X97044074Y-118562791D01*
X97132361Y-118437635D01*
X97194658Y-118297715D01*
X97228591Y-118148359D01*
X97231034Y-117973419D01*
X97201284Y-117823174D01*
X97142919Y-117681569D01*
X97058160Y-117553997D01*
X96950237Y-117445317D01*
X96823260Y-117359670D01*
X96682065Y-117300318D01*
X96532032Y-117269520D01*
X96378873Y-117268451D01*
X96228424Y-117297151D01*
X96086415Y-117354526D01*
X95958254Y-117438392D01*
X95885000Y-117510128D01*
X95885000Y-114498129D01*
X95903117Y-114532784D01*
X95903117Y-114532784D01*
G37*
X95903117Y-114532784D02*
X96011834Y-114668001D01*
X96144744Y-114779526D01*
X96296786Y-114863111D01*
X96462167Y-114915573D01*
X96634588Y-114934913D01*
X96647000Y-114935000D01*
X97548764Y-114935000D01*
X99828382Y-117214618D01*
X99891827Y-117266732D01*
X99954744Y-117319526D01*
X99958842Y-117321779D01*
X99962453Y-117324745D01*
X100034825Y-117363551D01*
X100106786Y-117403111D01*
X100111240Y-117404524D01*
X100115362Y-117406734D01*
X100172109Y-117424083D01*
X100145805Y-117450388D01*
X100116039Y-117486626D01*
X100085857Y-117522595D01*
X100084569Y-117524937D01*
X100082875Y-117527000D01*
X100060705Y-117568347D01*
X100038094Y-117609476D01*
X100037287Y-117612021D01*
X100036024Y-117614376D01*
X100022299Y-117659268D01*
X100008116Y-117703979D01*
X100007818Y-117706632D01*
X100007037Y-117709188D01*
X100002291Y-117755911D01*
X99999958Y-117776710D01*
X99903839Y-117870837D01*
X99817308Y-117997213D01*
X99756971Y-118137989D01*
X99725127Y-118287805D01*
X99722988Y-118440952D01*
X99750637Y-118591597D01*
X99807020Y-118734004D01*
X99889989Y-118862747D01*
X99996384Y-118972922D01*
X100122153Y-119060334D01*
X100262505Y-119121652D01*
X100412094Y-119154541D01*
X100565222Y-119157749D01*
X100716058Y-119131153D01*
X100858854Y-119075766D01*
X100988173Y-118993697D01*
X101099089Y-118888074D01*
X101187376Y-118762918D01*
X101249673Y-118622998D01*
X101283606Y-118473642D01*
X101286049Y-118298702D01*
X101256299Y-118148457D01*
X101211679Y-118040199D01*
X101778033Y-118040199D01*
X101740956Y-118126706D01*
X101709112Y-118276522D01*
X101706973Y-118429669D01*
X101734622Y-118580314D01*
X101791005Y-118722721D01*
X101873974Y-118851464D01*
X101980369Y-118961639D01*
X102106138Y-119049051D01*
X102246490Y-119110369D01*
X102396079Y-119143258D01*
X102549207Y-119146466D01*
X102552471Y-119145891D01*
X103886000Y-120479420D01*
X103886000Y-120815134D01*
X103878237Y-120807317D01*
X103751260Y-120721670D01*
X103610065Y-120662318D01*
X103460032Y-120631520D01*
X103306873Y-120630451D01*
X103156424Y-120659151D01*
X103014415Y-120716526D01*
X102886254Y-120800392D01*
X102776824Y-120907554D01*
X102690293Y-121033930D01*
X102629956Y-121174706D01*
X102598112Y-121324522D01*
X102596002Y-121475578D01*
X101609497Y-122462083D01*
X101582982Y-122328174D01*
X101524617Y-122186569D01*
X101439858Y-122058997D01*
X101331935Y-121950317D01*
X101204958Y-121864670D01*
X101063763Y-121805318D01*
X100913730Y-121774520D01*
X100760571Y-121773451D01*
X100610122Y-121802151D01*
X100468113Y-121859526D01*
X100339952Y-121943392D01*
X100230522Y-122050554D01*
X100143991Y-122176930D01*
X100083654Y-122317706D01*
X100051810Y-122467522D01*
X100050592Y-122554709D01*
X99910655Y-122581404D01*
X99768646Y-122638779D01*
X99640485Y-122722645D01*
X99531055Y-122829807D01*
X99444524Y-122956183D01*
X99429918Y-122990261D01*
X99190487Y-122750830D01*
X99234361Y-122688635D01*
X99296658Y-122548715D01*
X99330591Y-122399359D01*
X99333034Y-122224419D01*
X99303284Y-122074174D01*
X99244919Y-121932569D01*
X99160160Y-121804997D01*
X99052237Y-121696317D01*
X98925260Y-121610670D01*
X98784065Y-121551318D01*
X98634032Y-121520520D01*
X98480873Y-121519451D01*
X98330424Y-121548151D01*
X98188415Y-121605526D01*
X98060254Y-121689392D01*
X97950824Y-121796554D01*
X97864293Y-121922930D01*
X97803956Y-122063706D01*
X97772112Y-122213522D01*
X97769973Y-122366669D01*
X97797622Y-122517314D01*
X97854005Y-122659721D01*
X97936974Y-122788464D01*
X98019288Y-122873703D01*
X98023404Y-122915676D01*
X98027702Y-122964805D01*
X98028486Y-122967502D01*
X98028759Y-122970290D01*
X98042985Y-123017410D01*
X98056745Y-123064772D01*
X98058037Y-123067264D01*
X98058847Y-123069948D01*
X98081963Y-123113423D01*
X98104653Y-123157196D01*
X98106405Y-123159390D01*
X98107720Y-123161864D01*
X98138824Y-123200001D01*
X98169600Y-123238553D01*
X98173451Y-123242458D01*
X98173515Y-123242537D01*
X98173588Y-123242597D01*
X98174829Y-123243856D01*
X99046801Y-124115828D01*
X99046801Y-125893079D01*
X98932032Y-125869520D01*
X98834327Y-125868838D01*
X98296264Y-125265031D01*
X98287458Y-125256906D01*
X98279952Y-125247571D01*
X98251090Y-125223352D01*
X98223396Y-125197802D01*
X98213181Y-125191544D01*
X98204003Y-125183842D01*
X98170983Y-125165689D01*
X98138857Y-125146006D01*
X98127620Y-125141850D01*
X98117122Y-125136079D01*
X98081210Y-125124687D01*
X98045868Y-125111617D01*
X98034037Y-125109723D01*
X98022619Y-125106101D01*
X97985179Y-125101902D01*
X97947970Y-125095945D01*
X97935996Y-125096385D01*
X97924093Y-125095050D01*
X97917000Y-125095000D01*
X93599000Y-125095000D01*
X93552296Y-125099579D01*
X93505552Y-125103669D01*
X93502986Y-125104414D01*
X93500329Y-125104675D01*
X93455444Y-125118227D01*
X93410345Y-125131329D01*
X93407971Y-125132560D01*
X93405416Y-125133331D01*
X93364023Y-125155340D01*
X93322323Y-125176955D01*
X93320234Y-125178623D01*
X93317877Y-125179876D01*
X93281522Y-125209527D01*
X93244841Y-125238809D01*
X93241125Y-125242474D01*
X93241046Y-125242538D01*
X93240986Y-125242611D01*
X93239790Y-125243790D01*
X91855405Y-126628175D01*
X91845841Y-126635810D01*
X91844649Y-126636985D01*
X91844571Y-126637048D01*
X91844502Y-126637130D01*
X91840790Y-126640790D01*
X91689580Y-126792000D01*
X91653379Y-126792000D01*
X91676658Y-126739715D01*
X91710591Y-126590359D01*
X91713034Y-126415419D01*
X91683284Y-126265174D01*
X91624919Y-126123569D01*
X91540160Y-125995997D01*
X91432237Y-125887317D01*
X91305260Y-125801670D01*
X91164065Y-125742318D01*
X91014032Y-125711520D01*
X90860873Y-125710451D01*
X90710424Y-125739151D01*
X90568415Y-125796526D01*
X90440254Y-125880392D01*
X90334453Y-125984000D01*
X90195735Y-125984000D01*
X90968966Y-125210769D01*
X91057138Y-125272051D01*
X91197490Y-125333369D01*
X91347079Y-125366258D01*
X91500207Y-125369466D01*
X91651043Y-125342870D01*
X91793839Y-125287483D01*
X91923158Y-125205414D01*
X92034074Y-125099791D01*
X92122361Y-124974635D01*
X92184658Y-124834715D01*
X92218591Y-124685359D01*
X92221034Y-124510419D01*
X92191284Y-124360174D01*
X92132919Y-124218569D01*
X92048160Y-124090997D01*
X91940237Y-123982317D01*
X91897549Y-123953523D01*
X91944658Y-123847715D01*
X91978591Y-123698359D01*
X91981034Y-123523419D01*
X91951284Y-123373174D01*
X91892919Y-123231569D01*
X91808160Y-123103997D01*
X91700237Y-122995317D01*
X91573260Y-122909670D01*
X91432065Y-122850318D01*
X91308001Y-122824851D01*
X91308001Y-122516419D01*
X93235751Y-120588669D01*
X93832973Y-120588669D01*
X93860622Y-120739314D01*
X93917005Y-120881721D01*
X93999974Y-121010464D01*
X94106369Y-121120639D01*
X94232138Y-121208051D01*
X94372490Y-121269369D01*
X94522079Y-121302258D01*
X94675207Y-121305466D01*
X94826043Y-121278870D01*
X94968839Y-121223483D01*
X95098158Y-121141414D01*
X95209074Y-121035791D01*
X95297361Y-120910635D01*
X95359658Y-120770715D01*
X95393591Y-120621359D01*
X95396034Y-120446419D01*
X95366284Y-120296174D01*
X95307919Y-120154569D01*
X95223160Y-120026997D01*
X95115237Y-119918317D01*
X94988260Y-119832670D01*
X94847065Y-119773318D01*
X94697032Y-119742520D01*
X94543873Y-119741451D01*
X94393424Y-119770151D01*
X94251415Y-119827526D01*
X94123254Y-119911392D01*
X94013824Y-120018554D01*
X93927293Y-120144930D01*
X93866956Y-120285706D01*
X93835112Y-120435522D01*
X93832973Y-120588669D01*
X93235751Y-120588669D01*
X95674297Y-118150123D01*
X95695622Y-118266314D01*
X95752005Y-118408721D01*
X95834974Y-118537464D01*
X95941369Y-118647639D01*
X96067138Y-118735051D01*
X96207490Y-118796369D01*
X96357079Y-118829258D01*
X96510207Y-118832466D01*
X96661043Y-118805870D01*
X96803839Y-118750483D01*
X96933158Y-118668414D01*
X97044074Y-118562791D01*
X97132361Y-118437635D01*
X97194658Y-118297715D01*
X97228591Y-118148359D01*
X97231034Y-117973419D01*
X97201284Y-117823174D01*
X97142919Y-117681569D01*
X97058160Y-117553997D01*
X96950237Y-117445317D01*
X96823260Y-117359670D01*
X96682065Y-117300318D01*
X96532032Y-117269520D01*
X96378873Y-117268451D01*
X96228424Y-117297151D01*
X96086415Y-117354526D01*
X95958254Y-117438392D01*
X95885000Y-117510128D01*
X95885000Y-114498129D01*
X95903117Y-114532784D01*
G36*
X111506000Y-121250235D02*
X106719496Y-126036740D01*
X106653156Y-125936890D01*
X106545233Y-125828210D01*
X106418256Y-125742563D01*
X106414628Y-125741038D01*
X108690210Y-123465456D01*
X108719997Y-123429193D01*
X108750158Y-123393248D01*
X108751446Y-123390906D01*
X108753140Y-123388843D01*
X108775291Y-123347531D01*
X108797921Y-123306367D01*
X108798730Y-123303817D01*
X108799990Y-123301467D01*
X108813701Y-123256621D01*
X108827899Y-123211864D01*
X108828197Y-123209211D01*
X108828978Y-123206655D01*
X108833724Y-123159927D01*
X108838950Y-123113338D01*
X108838987Y-123108120D01*
X108838997Y-123108019D01*
X108838988Y-123107925D01*
X108839000Y-123106245D01*
X108839000Y-119507000D01*
X108834421Y-119460300D01*
X108830331Y-119413552D01*
X108829586Y-119410986D01*
X108829325Y-119408329D01*
X108815763Y-119363411D01*
X108802670Y-119318344D01*
X108801441Y-119315973D01*
X108800669Y-119313416D01*
X108778630Y-119271966D01*
X108757044Y-119230323D01*
X108755379Y-119228237D01*
X108754124Y-119225877D01*
X108724446Y-119189488D01*
X108695190Y-119152840D01*
X108691526Y-119149125D01*
X108691462Y-119149046D01*
X108691389Y-119148986D01*
X108690210Y-119147790D01*
X107840117Y-118297697D01*
X107842034Y-118160419D01*
X107812284Y-118010174D01*
X107753919Y-117868569D01*
X107669160Y-117740997D01*
X107561237Y-117632317D01*
X107434260Y-117546670D01*
X107293065Y-117487318D01*
X107233058Y-117475000D01*
X108458000Y-117475000D01*
X108539704Y-117466989D01*
X108621533Y-117459830D01*
X108626025Y-117458525D01*
X108630674Y-117458069D01*
X108709284Y-117434335D01*
X108788146Y-117411423D01*
X108792294Y-117409273D01*
X108796772Y-117407921D01*
X108869309Y-117369353D01*
X108942184Y-117331578D01*
X108945837Y-117328662D01*
X108949965Y-117326467D01*
X109013611Y-117274558D01*
X109077780Y-117223333D01*
X109084288Y-117216916D01*
X109084420Y-117216808D01*
X109084521Y-117216685D01*
X109086618Y-117214618D01*
X111506000Y-114795236D01*
X111506000Y-121250235D01*
X111506000Y-121250235D01*
G37*
X111506000Y-121250235D02*
X106719496Y-126036740D01*
X106653156Y-125936890D01*
X106545233Y-125828210D01*
X106418256Y-125742563D01*
X106414628Y-125741038D01*
X108690210Y-123465456D01*
X108719997Y-123429193D01*
X108750158Y-123393248D01*
X108751446Y-123390906D01*
X108753140Y-123388843D01*
X108775291Y-123347531D01*
X108797921Y-123306367D01*
X108798730Y-123303817D01*
X108799990Y-123301467D01*
X108813701Y-123256621D01*
X108827899Y-123211864D01*
X108828197Y-123209211D01*
X108828978Y-123206655D01*
X108833724Y-123159927D01*
X108838950Y-123113338D01*
X108838987Y-123108120D01*
X108838997Y-123108019D01*
X108838988Y-123107925D01*
X108839000Y-123106245D01*
X108839000Y-119507000D01*
X108834421Y-119460300D01*
X108830331Y-119413552D01*
X108829586Y-119410986D01*
X108829325Y-119408329D01*
X108815763Y-119363411D01*
X108802670Y-119318344D01*
X108801441Y-119315973D01*
X108800669Y-119313416D01*
X108778630Y-119271966D01*
X108757044Y-119230323D01*
X108755379Y-119228237D01*
X108754124Y-119225877D01*
X108724446Y-119189488D01*
X108695190Y-119152840D01*
X108691526Y-119149125D01*
X108691462Y-119149046D01*
X108691389Y-119148986D01*
X108690210Y-119147790D01*
X107840117Y-118297697D01*
X107842034Y-118160419D01*
X107812284Y-118010174D01*
X107753919Y-117868569D01*
X107669160Y-117740997D01*
X107561237Y-117632317D01*
X107434260Y-117546670D01*
X107293065Y-117487318D01*
X107233058Y-117475000D01*
X108458000Y-117475000D01*
X108539704Y-117466989D01*
X108621533Y-117459830D01*
X108626025Y-117458525D01*
X108630674Y-117458069D01*
X108709284Y-117434335D01*
X108788146Y-117411423D01*
X108792294Y-117409273D01*
X108796772Y-117407921D01*
X108869309Y-117369353D01*
X108942184Y-117331578D01*
X108945837Y-117328662D01*
X108949965Y-117326467D01*
X109013611Y-117274558D01*
X109077780Y-117223333D01*
X109084288Y-117216916D01*
X109084420Y-117216808D01*
X109084521Y-117216685D01*
X109086618Y-117214618D01*
X111506000Y-114795236D01*
X111506000Y-121250235D01*
G36*
X116544000Y-120640940D02*
X116512554Y-120602383D01*
X116461333Y-120538220D01*
X116454916Y-120531712D01*
X116454808Y-120531580D01*
X116454685Y-120531479D01*
X116452618Y-120529382D01*
X115189000Y-119265764D01*
X115189000Y-118964998D01*
X115203535Y-118955420D01*
X115273415Y-118873430D01*
X115317686Y-118775218D01*
X115332843Y-118668560D01*
X115332843Y-117368560D01*
X115328005Y-117307887D01*
X115296136Y-117204980D01*
X115236860Y-117115025D01*
X115154870Y-117045145D01*
X115056658Y-117000874D01*
X114950000Y-116985717D01*
X114653748Y-116985717D01*
X114767104Y-116941749D01*
X114937819Y-116833410D01*
X115084239Y-116693977D01*
X115200787Y-116528758D01*
X115283025Y-116344049D01*
X115327820Y-116146884D01*
X115331045Y-115915945D01*
X115291772Y-115717606D01*
X115214724Y-115530673D01*
X115102834Y-115362265D01*
X114960364Y-115218797D01*
X114792741Y-115105734D01*
X114606350Y-115027382D01*
X114419015Y-114988928D01*
X114485357Y-114982864D01*
X114670515Y-114928115D01*
X114841434Y-114838295D01*
X114852948Y-114830603D01*
X114915242Y-114675664D01*
X114300000Y-114060421D01*
X114285858Y-114074564D01*
X114240956Y-114029662D01*
X114255099Y-114015520D01*
X114344901Y-114015520D01*
X114960144Y-114630762D01*
X115115083Y-114568468D01*
X115207296Y-114398828D01*
X115264643Y-114214458D01*
X115284918Y-114022443D01*
X115267344Y-113830163D01*
X115212595Y-113645005D01*
X115122775Y-113474086D01*
X115115083Y-113462572D01*
X114960144Y-113400278D01*
X114344901Y-114015520D01*
X114255099Y-114015520D01*
X114240956Y-114001378D01*
X114285858Y-113956476D01*
X114300000Y-113970619D01*
X114915242Y-113355376D01*
X114852948Y-113200437D01*
X114683308Y-113108224D01*
X114498938Y-113050877D01*
X114419253Y-113042463D01*
X114578598Y-113014366D01*
X114767104Y-112941249D01*
X114937819Y-112832910D01*
X115084239Y-112693477D01*
X115200787Y-112528258D01*
X115283025Y-112343549D01*
X115327820Y-112146384D01*
X115331045Y-111915445D01*
X115291772Y-111717106D01*
X115214724Y-111530173D01*
X115102834Y-111361765D01*
X115093839Y-111352707D01*
X115675210Y-110771336D01*
X115704976Y-110735098D01*
X115735158Y-110699129D01*
X115736446Y-110696787D01*
X115738140Y-110694724D01*
X115760310Y-110653377D01*
X115782921Y-110612248D01*
X115783728Y-110609703D01*
X115784991Y-110607348D01*
X115798716Y-110562456D01*
X115812899Y-110517745D01*
X115813197Y-110515092D01*
X115813978Y-110512536D01*
X115818724Y-110465813D01*
X115823950Y-110419219D01*
X115823987Y-110413999D01*
X115823997Y-110413899D01*
X115823988Y-110413805D01*
X115824000Y-110412126D01*
X115824000Y-110127000D01*
X116544000Y-110127000D01*
X116544000Y-120640940D01*
X116544000Y-120640940D01*
G37*
X116544000Y-120640940D02*
X116512554Y-120602383D01*
X116461333Y-120538220D01*
X116454916Y-120531712D01*
X116454808Y-120531580D01*
X116454685Y-120531479D01*
X116452618Y-120529382D01*
X115189000Y-119265764D01*
X115189000Y-118964998D01*
X115203535Y-118955420D01*
X115273415Y-118873430D01*
X115317686Y-118775218D01*
X115332843Y-118668560D01*
X115332843Y-117368560D01*
X115328005Y-117307887D01*
X115296136Y-117204980D01*
X115236860Y-117115025D01*
X115154870Y-117045145D01*
X115056658Y-117000874D01*
X114950000Y-116985717D01*
X114653748Y-116985717D01*
X114767104Y-116941749D01*
X114937819Y-116833410D01*
X115084239Y-116693977D01*
X115200787Y-116528758D01*
X115283025Y-116344049D01*
X115327820Y-116146884D01*
X115331045Y-115915945D01*
X115291772Y-115717606D01*
X115214724Y-115530673D01*
X115102834Y-115362265D01*
X114960364Y-115218797D01*
X114792741Y-115105734D01*
X114606350Y-115027382D01*
X114419015Y-114988928D01*
X114485357Y-114982864D01*
X114670515Y-114928115D01*
X114841434Y-114838295D01*
X114852948Y-114830603D01*
X114915242Y-114675664D01*
X114300000Y-114060421D01*
X114285858Y-114074564D01*
X114240956Y-114029662D01*
X114255099Y-114015520D01*
X114344901Y-114015520D01*
X114960144Y-114630762D01*
X115115083Y-114568468D01*
X115207296Y-114398828D01*
X115264643Y-114214458D01*
X115284918Y-114022443D01*
X115267344Y-113830163D01*
X115212595Y-113645005D01*
X115122775Y-113474086D01*
X115115083Y-113462572D01*
X114960144Y-113400278D01*
X114344901Y-114015520D01*
X114255099Y-114015520D01*
X114240956Y-114001378D01*
X114285858Y-113956476D01*
X114300000Y-113970619D01*
X114915242Y-113355376D01*
X114852948Y-113200437D01*
X114683308Y-113108224D01*
X114498938Y-113050877D01*
X114419253Y-113042463D01*
X114578598Y-113014366D01*
X114767104Y-112941249D01*
X114937819Y-112832910D01*
X115084239Y-112693477D01*
X115200787Y-112528258D01*
X115283025Y-112343549D01*
X115327820Y-112146384D01*
X115331045Y-111915445D01*
X115291772Y-111717106D01*
X115214724Y-111530173D01*
X115102834Y-111361765D01*
X115093839Y-111352707D01*
X115675210Y-110771336D01*
X115704976Y-110735098D01*
X115735158Y-110699129D01*
X115736446Y-110696787D01*
X115738140Y-110694724D01*
X115760310Y-110653377D01*
X115782921Y-110612248D01*
X115783728Y-110609703D01*
X115784991Y-110607348D01*
X115798716Y-110562456D01*
X115812899Y-110517745D01*
X115813197Y-110515092D01*
X115813978Y-110512536D01*
X115818724Y-110465813D01*
X115823950Y-110419219D01*
X115823987Y-110413999D01*
X115823997Y-110413899D01*
X115823988Y-110413805D01*
X115824000Y-110412126D01*
X115824000Y-110127000D01*
X116544000Y-110127000D01*
X116544000Y-120640940D01*
G36*
X104330500Y-113446328D02*
X104330500Y-113792000D01*
X104336796Y-113856209D01*
X104342420Y-113920490D01*
X104343444Y-113924016D01*
X104343803Y-113927673D01*
X104362454Y-113989447D01*
X104380453Y-114051401D01*
X104382144Y-114054663D01*
X104383205Y-114058178D01*
X104413485Y-114115125D01*
X104443189Y-114172431D01*
X104445482Y-114175303D01*
X104447205Y-114178544D01*
X104487964Y-114228520D01*
X104528238Y-114278970D01*
X104533280Y-114284082D01*
X104533365Y-114284187D01*
X104533462Y-114284267D01*
X104535086Y-114285914D01*
X105678086Y-115428914D01*
X105727942Y-115469866D01*
X105777371Y-115511342D01*
X105780589Y-115513111D01*
X105783428Y-115515443D01*
X105840288Y-115545931D01*
X105896832Y-115577016D01*
X105900334Y-115578127D01*
X105903570Y-115579862D01*
X105965244Y-115598717D01*
X106026774Y-115618236D01*
X106030426Y-115618646D01*
X106033937Y-115619719D01*
X106098114Y-115626238D01*
X106162247Y-115633432D01*
X106169425Y-115633482D01*
X106169562Y-115633496D01*
X106169690Y-115633484D01*
X106172000Y-115633500D01*
X107950000Y-115633500D01*
X108014209Y-115627204D01*
X108078490Y-115621580D01*
X108082016Y-115620556D01*
X108085673Y-115620197D01*
X108147447Y-115601546D01*
X108200685Y-115586079D01*
X108089764Y-115697000D01*
X100825236Y-115697000D01*
X99114664Y-113986428D01*
X99223334Y-113967267D01*
X99366130Y-113911880D01*
X99495449Y-113829811D01*
X99606365Y-113724188D01*
X99694652Y-113599032D01*
X99721669Y-113538351D01*
X99743735Y-113594082D01*
X99826704Y-113722825D01*
X99933099Y-113833000D01*
X100058868Y-113920412D01*
X100199220Y-113981730D01*
X100348809Y-114014619D01*
X100501937Y-114017827D01*
X100652773Y-113991231D01*
X100795569Y-113935844D01*
X100924888Y-113853775D01*
X100931438Y-113847538D01*
X100964369Y-113881639D01*
X101090138Y-113969051D01*
X101230490Y-114030369D01*
X101380079Y-114063258D01*
X101533207Y-114066466D01*
X101684043Y-114039870D01*
X101826839Y-113984483D01*
X101956158Y-113902414D01*
X102054794Y-113808485D01*
X102087970Y-113842840D01*
X102213739Y-113930252D01*
X102354091Y-113991570D01*
X102503680Y-114024459D01*
X102656808Y-114027667D01*
X102807644Y-114001071D01*
X102950440Y-113945684D01*
X103079759Y-113863615D01*
X103190675Y-113757992D01*
X103278962Y-113632836D01*
X103341259Y-113492916D01*
X103375192Y-113343560D01*
X103377635Y-113168620D01*
X103347885Y-113018375D01*
X103289520Y-112876770D01*
X103264758Y-112839500D01*
X103723672Y-112839500D01*
X104330500Y-113446328D01*
X104330500Y-113446328D01*
G37*
X104330500Y-113446328D02*
X104330500Y-113792000D01*
X104336796Y-113856209D01*
X104342420Y-113920490D01*
X104343444Y-113924016D01*
X104343803Y-113927673D01*
X104362454Y-113989447D01*
X104380453Y-114051401D01*
X104382144Y-114054663D01*
X104383205Y-114058178D01*
X104413485Y-114115125D01*
X104443189Y-114172431D01*
X104445482Y-114175303D01*
X104447205Y-114178544D01*
X104487964Y-114228520D01*
X104528238Y-114278970D01*
X104533280Y-114284082D01*
X104533365Y-114284187D01*
X104533462Y-114284267D01*
X104535086Y-114285914D01*
X105678086Y-115428914D01*
X105727942Y-115469866D01*
X105777371Y-115511342D01*
X105780589Y-115513111D01*
X105783428Y-115515443D01*
X105840288Y-115545931D01*
X105896832Y-115577016D01*
X105900334Y-115578127D01*
X105903570Y-115579862D01*
X105965244Y-115598717D01*
X106026774Y-115618236D01*
X106030426Y-115618646D01*
X106033937Y-115619719D01*
X106098114Y-115626238D01*
X106162247Y-115633432D01*
X106169425Y-115633482D01*
X106169562Y-115633496D01*
X106169690Y-115633484D01*
X106172000Y-115633500D01*
X107950000Y-115633500D01*
X108014209Y-115627204D01*
X108078490Y-115621580D01*
X108082016Y-115620556D01*
X108085673Y-115620197D01*
X108147447Y-115601546D01*
X108200685Y-115586079D01*
X108089764Y-115697000D01*
X100825236Y-115697000D01*
X99114664Y-113986428D01*
X99223334Y-113967267D01*
X99366130Y-113911880D01*
X99495449Y-113829811D01*
X99606365Y-113724188D01*
X99694652Y-113599032D01*
X99721669Y-113538351D01*
X99743735Y-113594082D01*
X99826704Y-113722825D01*
X99933099Y-113833000D01*
X100058868Y-113920412D01*
X100199220Y-113981730D01*
X100348809Y-114014619D01*
X100501937Y-114017827D01*
X100652773Y-113991231D01*
X100795569Y-113935844D01*
X100924888Y-113853775D01*
X100931438Y-113847538D01*
X100964369Y-113881639D01*
X101090138Y-113969051D01*
X101230490Y-114030369D01*
X101380079Y-114063258D01*
X101533207Y-114066466D01*
X101684043Y-114039870D01*
X101826839Y-113984483D01*
X101956158Y-113902414D01*
X102054794Y-113808485D01*
X102087970Y-113842840D01*
X102213739Y-113930252D01*
X102354091Y-113991570D01*
X102503680Y-114024459D01*
X102656808Y-114027667D01*
X102807644Y-114001071D01*
X102950440Y-113945684D01*
X103079759Y-113863615D01*
X103190675Y-113757992D01*
X103278962Y-113632836D01*
X103341259Y-113492916D01*
X103375192Y-113343560D01*
X103377635Y-113168620D01*
X103347885Y-113018375D01*
X103289520Y-112876770D01*
X103264758Y-112839500D01*
X103723672Y-112839500D01*
X104330500Y-113446328D01*
G36*
X88265000Y-85725000D02*
X88270028Y-85760381D01*
X88284714Y-85792961D01*
X88307895Y-85820160D01*
X88337736Y-85839823D01*
X88371873Y-85850395D01*
X88392000Y-85852000D01*
X89660172Y-85852000D01*
X88660086Y-86852086D01*
X88619134Y-86901942D01*
X88577658Y-86951371D01*
X88575889Y-86954589D01*
X88573557Y-86957428D01*
X88543069Y-87014288D01*
X88511984Y-87070832D01*
X88510873Y-87074334D01*
X88509138Y-87077570D01*
X88490283Y-87139244D01*
X88470764Y-87200774D01*
X88470354Y-87204426D01*
X88469281Y-87207937D01*
X88462762Y-87272114D01*
X88455568Y-87336247D01*
X88455518Y-87343425D01*
X88455504Y-87343562D01*
X88455516Y-87343690D01*
X88455500Y-87346000D01*
X88455500Y-99373000D01*
X78956000Y-99373000D01*
X78956000Y-80456000D01*
X88265000Y-80456000D01*
X88265000Y-85725000D01*
X88265000Y-85725000D01*
G37*
X88265000Y-85725000D02*
X88270028Y-85760381D01*
X88284714Y-85792961D01*
X88307895Y-85820160D01*
X88337736Y-85839823D01*
X88371873Y-85850395D01*
X88392000Y-85852000D01*
X89660172Y-85852000D01*
X88660086Y-86852086D01*
X88619134Y-86901942D01*
X88577658Y-86951371D01*
X88575889Y-86954589D01*
X88573557Y-86957428D01*
X88543069Y-87014288D01*
X88511984Y-87070832D01*
X88510873Y-87074334D01*
X88509138Y-87077570D01*
X88490283Y-87139244D01*
X88470764Y-87200774D01*
X88470354Y-87204426D01*
X88469281Y-87207937D01*
X88462762Y-87272114D01*
X88455568Y-87336247D01*
X88455518Y-87343425D01*
X88455504Y-87343562D01*
X88455516Y-87343690D01*
X88455500Y-87346000D01*
X88455500Y-99373000D01*
X78956000Y-99373000D01*
X78956000Y-80456000D01*
X88265000Y-80456000D01*
X88265000Y-85725000D01*
G36*
X104140000Y-90906254D02*
X104009699Y-90958899D01*
X103874236Y-91047544D01*
X103758571Y-91160812D01*
X103667109Y-91294388D01*
X103603334Y-91443186D01*
X103569675Y-91601537D01*
X103567415Y-91763410D01*
X103596639Y-91922640D01*
X103656234Y-92073160D01*
X103743931Y-92209238D01*
X103856388Y-92325691D01*
X103989323Y-92418084D01*
X104137672Y-92482896D01*
X104140000Y-92483408D01*
X104140000Y-96266000D01*
X98933000Y-96266000D01*
X98897619Y-96271028D01*
X98852029Y-96295160D01*
X95894826Y-98742500D01*
X94396328Y-98742500D01*
X93281500Y-97627672D01*
X93281500Y-88011000D01*
X93275205Y-87946796D01*
X93269580Y-87882509D01*
X93268555Y-87878982D01*
X93268197Y-87875327D01*
X93249550Y-87813565D01*
X93231547Y-87751599D01*
X93229856Y-87748337D01*
X93228795Y-87744822D01*
X93198515Y-87687875D01*
X93168811Y-87630569D01*
X93166518Y-87627697D01*
X93164795Y-87624456D01*
X93124036Y-87574480D01*
X93083762Y-87524030D01*
X93078720Y-87518918D01*
X93078635Y-87518813D01*
X93078538Y-87518733D01*
X93076914Y-87517086D01*
X92245451Y-86685623D01*
X92234091Y-86628250D01*
X92172400Y-86478576D01*
X92125842Y-86408500D01*
X104140000Y-86408500D01*
X104140000Y-90906254D01*
X104140000Y-90906254D01*
G37*
X104140000Y-90906254D02*
X104009699Y-90958899D01*
X103874236Y-91047544D01*
X103758571Y-91160812D01*
X103667109Y-91294388D01*
X103603334Y-91443186D01*
X103569675Y-91601537D01*
X103567415Y-91763410D01*
X103596639Y-91922640D01*
X103656234Y-92073160D01*
X103743931Y-92209238D01*
X103856388Y-92325691D01*
X103989323Y-92418084D01*
X104137672Y-92482896D01*
X104140000Y-92483408D01*
X104140000Y-96266000D01*
X98933000Y-96266000D01*
X98897619Y-96271028D01*
X98852029Y-96295160D01*
X95894826Y-98742500D01*
X94396328Y-98742500D01*
X93281500Y-97627672D01*
X93281500Y-88011000D01*
X93275205Y-87946796D01*
X93269580Y-87882509D01*
X93268555Y-87878982D01*
X93268197Y-87875327D01*
X93249550Y-87813565D01*
X93231547Y-87751599D01*
X93229856Y-87748337D01*
X93228795Y-87744822D01*
X93198515Y-87687875D01*
X93168811Y-87630569D01*
X93166518Y-87627697D01*
X93164795Y-87624456D01*
X93124036Y-87574480D01*
X93083762Y-87524030D01*
X93078720Y-87518918D01*
X93078635Y-87518813D01*
X93078538Y-87518733D01*
X93076914Y-87517086D01*
X92245451Y-86685623D01*
X92234091Y-86628250D01*
X92172400Y-86478576D01*
X92125842Y-86408500D01*
X104140000Y-86408500D01*
X104140000Y-90906254D01*
G36*
X100457000Y-85011500D02*
X94996000Y-85011500D01*
X94996000Y-80456000D01*
X100457000Y-80456000D01*
X100457000Y-85011500D01*
X100457000Y-85011500D01*
G37*
X100457000Y-85011500D02*
X94996000Y-85011500D01*
X94996000Y-80456000D01*
X100457000Y-80456000D01*
X100457000Y-85011500D01*
G36*
X116544000Y-98560158D02*
X116422501Y-98494464D01*
X116256758Y-98443158D01*
X116084206Y-98425022D01*
X115911418Y-98440747D01*
X115744975Y-98489734D01*
X115591216Y-98570117D01*
X115506500Y-98638230D01*
X115506500Y-82356959D01*
X115529241Y-82324722D01*
X115595087Y-82176829D01*
X115630953Y-82018963D01*
X115633535Y-81834056D01*
X115602091Y-81675250D01*
X115540400Y-81525576D01*
X115450812Y-81390735D01*
X115336739Y-81275864D01*
X115202527Y-81185337D01*
X115053288Y-81122602D01*
X114894706Y-81090050D01*
X114732821Y-81088920D01*
X114573799Y-81119255D01*
X114423699Y-81179899D01*
X114288236Y-81268544D01*
X114172571Y-81381812D01*
X114081109Y-81515388D01*
X114017334Y-81664186D01*
X113983675Y-81822537D01*
X113981415Y-81984410D01*
X114010639Y-82143640D01*
X114070234Y-82294160D01*
X114109500Y-82355088D01*
X114109500Y-98411031D01*
X113535449Y-98985082D01*
X110962616Y-96305048D01*
X110934486Y-96283007D01*
X110901329Y-96269675D01*
X110871000Y-96266000D01*
X107798500Y-96266000D01*
X107798500Y-92622000D01*
X107792204Y-92557791D01*
X107786580Y-92493510D01*
X107785556Y-92489984D01*
X107785197Y-92486327D01*
X107766546Y-92424553D01*
X107748547Y-92362599D01*
X107746856Y-92359338D01*
X107745795Y-92355822D01*
X107715504Y-92298854D01*
X107685811Y-92241570D01*
X107683520Y-92238700D01*
X107681795Y-92235456D01*
X107641043Y-92185488D01*
X107600763Y-92135030D01*
X107595719Y-92129916D01*
X107595635Y-92129813D01*
X107595539Y-92129734D01*
X107593914Y-92128086D01*
X104775000Y-89309172D01*
X104775000Y-85852000D01*
X106680000Y-85852000D01*
X106715381Y-85846972D01*
X106747961Y-85832286D01*
X106775160Y-85809105D01*
X106794823Y-85779264D01*
X106805395Y-85745127D01*
X106807000Y-85725000D01*
X106807000Y-80456000D01*
X116544000Y-80456000D01*
X116544000Y-98560158D01*
X116544000Y-98560158D01*
G37*
X116544000Y-98560158D02*
X116422501Y-98494464D01*
X116256758Y-98443158D01*
X116084206Y-98425022D01*
X115911418Y-98440747D01*
X115744975Y-98489734D01*
X115591216Y-98570117D01*
X115506500Y-98638230D01*
X115506500Y-82356959D01*
X115529241Y-82324722D01*
X115595087Y-82176829D01*
X115630953Y-82018963D01*
X115633535Y-81834056D01*
X115602091Y-81675250D01*
X115540400Y-81525576D01*
X115450812Y-81390735D01*
X115336739Y-81275864D01*
X115202527Y-81185337D01*
X115053288Y-81122602D01*
X114894706Y-81090050D01*
X114732821Y-81088920D01*
X114573799Y-81119255D01*
X114423699Y-81179899D01*
X114288236Y-81268544D01*
X114172571Y-81381812D01*
X114081109Y-81515388D01*
X114017334Y-81664186D01*
X113983675Y-81822537D01*
X113981415Y-81984410D01*
X114010639Y-82143640D01*
X114070234Y-82294160D01*
X114109500Y-82355088D01*
X114109500Y-98411031D01*
X113535449Y-98985082D01*
X110962616Y-96305048D01*
X110934486Y-96283007D01*
X110901329Y-96269675D01*
X110871000Y-96266000D01*
X107798500Y-96266000D01*
X107798500Y-92622000D01*
X107792204Y-92557791D01*
X107786580Y-92493510D01*
X107785556Y-92489984D01*
X107785197Y-92486327D01*
X107766546Y-92424553D01*
X107748547Y-92362599D01*
X107746856Y-92359338D01*
X107745795Y-92355822D01*
X107715504Y-92298854D01*
X107685811Y-92241570D01*
X107683520Y-92238700D01*
X107681795Y-92235456D01*
X107641043Y-92185488D01*
X107600763Y-92135030D01*
X107595719Y-92129916D01*
X107595635Y-92129813D01*
X107595539Y-92129734D01*
X107593914Y-92128086D01*
X104775000Y-89309172D01*
X104775000Y-85852000D01*
X106680000Y-85852000D01*
X106715381Y-85846972D01*
X106747961Y-85832286D01*
X106775160Y-85809105D01*
X106794823Y-85779264D01*
X106805395Y-85745127D01*
X106807000Y-85725000D01*
X106807000Y-80456000D01*
X116544000Y-80456000D01*
X116544000Y-98560158D01*
G36*
X95631000Y-106743500D02*
X92837000Y-106743500D01*
X92837000Y-102933500D01*
X95631000Y-102933500D01*
X95631000Y-106743500D01*
X95631000Y-106743500D01*
G37*
X95631000Y-106743500D02*
X92837000Y-106743500D01*
X92837000Y-102933500D01*
X95631000Y-102933500D01*
X95631000Y-106743500D01*
M02*
