M48
METRIC,TZ
T1C0.500
T2C0.762
T3C0.800
T4C1.016
T5C3.048
%
G90
G05
T1
X79.4Y-127.8
X80.6Y-121.9
X81.8Y-112.8
X82.6Y-128.3
X83.9Y-125.3
X83.9Y-130.1
X84.9Y-132.6
X84.928Y-131.104
X85.979Y-114.935
X86.3Y-126.2
X86.5Y-128.267
X86.741Y-125.095
X88.1Y-123.9
X88.138Y-131.699
X88.293Y-129.652
X88.9Y-117.729
X88.9Y-118.8
X89.453Y-132.677
X89.789Y-108.458
X90.2Y-127.3
X90.255Y-131.671
X90.424Y-109.22
X90.551Y-110.49
X90.805Y-114.935
X90.932Y-126.492
X91.2Y-119.4
X91.2Y-123.6
X91.3Y-128.25
X91.313Y-90.17
X91.44Y-86.868
X91.44Y-91.313
X91.44Y-101.981
X91.44Y-124.587
X91.823Y-122.684
X91.948Y-114.935
X92.85Y-129.6
X93.321Y-128.553
X93.472Y-137.541
X93.605Y-132.7
X93.859Y-129.37
X93.98Y-113.411
X94.615Y-120.523
X95.631Y-137.16
X95.85Y-126.4
X96.45Y-118.05
X96.52Y-129.413
X96.647Y-114.046
X96.901Y-127.635
X97.028Y-123.063
X97.028Y-133.35
X97.35Y-126.6
X98.171Y-128.143
X98.513Y-135.587
X98.552Y-116.84
X98.552Y-122.301
X98.85Y-126.65
X99.012Y-113.211
X99.187Y-132.731
X99.314Y-117.475
X99.375Y-134.192
X100.203Y-110.49
X100.203Y-127.635
X100.442Y-113.235
X100.457Y-122.936
X100.584Y-118.364
X100.584Y-126.619
X100.965Y-121.539
X101.473Y-113.284
X101.473Y-128.579
X101.6Y-138.086
X102.489Y-118.364
X102.489Y-128.156
X102.597Y-113.245
X102.87Y-132.842
X103.378Y-130.937
X103.378Y-121.412
X103.632Y-127.889
X103.632Y-132.207
X103.632Y-138.086
X103.709Y-113.222
X103.759Y-115.189
X103.886Y-118.364
X103.938Y-101.968
X104.311Y-130.644
X104.394Y-91.694
X104.5Y-104.
X104.643Y-127.517
X104.775Y-132.588
X104.902Y-118.364
X105.091Y-126.647
X105.182Y-125.259
X105.264Y-105.869
X105.266Y-104.826
X105.291Y-106.846
X105.383Y-109.569
X105.41Y-103.632
X105.537Y-121.539
X105.538Y-102.507
X105.792Y-136.143
X106.045Y-126.433
X107.051Y-113.294
X107.061Y-118.237
X107.061Y-137.287
X107.201Y-135.762
X107.817Y-124.617
X108.003Y-103.725
X108.287Y-128.33
X109.135Y-127.485
X109.474Y-130.556
X109.782Y-122.456
X109.849Y-129.388
X110.871Y-118.364
X110.871Y-119.38
X111.03Y-106.547
X111.125Y-113.411
X111.506Y-104.902
X112.395Y-131.318
X112.483Y-104.117
X114.808Y-81.915
X116.078Y-100.33
X116.1Y-101.3
T2
X80.01Y-105.41
X80.01Y-107.188
X80.01Y-108.966
X80.01Y-110.744
X81.026Y-87.122
X81.026Y-89.154
X81.026Y-90.932
X81.788Y-105.41
X81.788Y-107.188
X81.788Y-108.966
X81.788Y-110.744
X82.804Y-87.122
X82.804Y-89.154
X82.804Y-90.932
X83.312Y-81.534
X83.566Y-105.41
X83.566Y-107.188
X83.566Y-108.966
X83.566Y-110.744
X84.582Y-87.122
X84.582Y-89.154
X84.582Y-90.932
X85.09Y-81.534
X86.36Y-87.122
X86.36Y-89.154
X86.36Y-90.932
X86.868Y-81.534
X93.472Y-103.251
X93.472Y-104.775
X93.472Y-106.299
X93.98Y-87.122
X93.98Y-88.9
X93.98Y-90.678
X94.996Y-103.251
X94.996Y-104.775
X94.996Y-106.299
X95.758Y-87.122
X95.758Y-88.9
X95.758Y-90.678
X96.139Y-81.534
X97.79Y-81.534
X97.79Y-87.122
X97.79Y-88.9
X97.79Y-90.678
X99.441Y-81.534
X99.822Y-87.122
X99.822Y-88.9
X99.822Y-90.678
X106.934Y-86.868
X106.934Y-88.646
X106.934Y-90.424
X107.696Y-81.534
X108.966Y-86.868
X108.966Y-88.646
X108.966Y-90.424
X109.474Y-81.534
X110.744Y-86.868
X110.744Y-88.646
X110.744Y-90.424
X111.252Y-81.534
X112.522Y-86.868
X112.522Y-88.646
X112.522Y-90.424
T3
X80.45Y-113.726
X80.45Y-115.725
X80.45Y-117.727
X80.45Y-119.728
X82.099Y-137.2
X84.1Y-137.2
X86.099Y-137.2
X88.101Y-137.2
X90.1Y-137.2
X92.101Y-137.2
X114.3Y-106.015
X114.3Y-108.013
X114.3Y-110.015
X114.3Y-112.017
X114.3Y-114.016
X114.3Y-116.017
X114.3Y-118.019
X114.3Y-122.253
X114.3Y-124.254
X114.3Y-126.253
X114.3Y-128.255
X114.3Y-130.254
X114.3Y-132.255
T4
X108.712Y-136.398
X111.252Y-136.398
X113.792Y-136.398
T5
X81.5Y-142.
X92.Y-83.
X103.5Y-83.
X114.Y-142.
T0
M30
