%FSLAX46Y46*%
G04 Gerber Fmt 4.6, Leading zero omitted, Abs format (unit mm)*
G04 Created by KiCad (PCBNEW (2014-08-29 BZR 5106)-product) date tor  8 jan 2015 14:28:26*
%MOMM*%
G01*
G04 APERTURE LIST*
%ADD10C,0.150000*%
%ADD11C,0.152400*%
%ADD12C,0.127000*%
%ADD13C,0.200660*%
%ADD14C,0.203200*%
%ADD15C,0.002540*%
%ADD16C,0.119380*%
%ADD17C,0.099060*%
%ADD18C,0.066040*%
%ADD19C,0.101600*%
%ADD20C,0.381000*%
%ADD21C,0.190500*%
%ADD22C,0.114300*%
%ADD23C,0.109220*%
%ADD24C,0.250000*%
%ADD25C,0.304800*%
%ADD26R,2.540000X1.699260*%
%ADD27R,1.800860X1.198880*%
%ADD28R,1.699260X1.198880*%
%ADD29O,1.699260X1.198880*%
%ADD30O,1.524000X3.048000*%
%ADD31R,2.032000X3.657600*%
%ADD32R,2.032000X1.016000*%
%ADD33C,4.064000*%
%ADD34R,1.524000X2.032000*%
%ADD35R,2.032000X1.524000*%
%ADD36R,1.143000X0.635000*%
%ADD37R,0.635000X1.143000*%
%ADD38R,0.889000X1.397000*%
%ADD39R,2.499360X1.950720*%
%ADD40R,5.499100X1.849120*%
%ADD41R,0.797560X0.797560*%
%ADD42R,3.500120X1.800860*%
%ADD43C,1.300480*%
%ADD44R,4.000000X5.000000*%
%ADD45R,10.800080X8.150860*%
%ADD46R,0.899160X3.200400*%
%ADD47R,2.438400X5.588000*%
%ADD48R,2.438400X0.889000*%
%ADD49C,0.900000*%
%ADD50C,0.254000*%
G04 APERTURE END LIST*
D10*
X116051000Y-111271143D02*
X116051000Y-111556857D01*
X116222429Y-111214000D02*
X115622429Y-111414000D01*
X116222429Y-111614000D01*
X116222429Y-111814000D02*
X115622429Y-111814000D01*
X115622429Y-111956857D01*
X115651000Y-112042572D01*
X115708143Y-112099714D01*
X115765286Y-112128286D01*
X115879571Y-112156857D01*
X115965286Y-112156857D01*
X116079571Y-112128286D01*
X116136714Y-112099714D01*
X116193857Y-112042572D01*
X116222429Y-111956857D01*
X116222429Y-111814000D01*
X116165286Y-112756857D02*
X116193857Y-112728286D01*
X116222429Y-112642572D01*
X116222429Y-112585429D01*
X116193857Y-112499714D01*
X116136714Y-112442572D01*
X116079571Y-112414000D01*
X115965286Y-112385429D01*
X115879571Y-112385429D01*
X115765286Y-112414000D01*
X115708143Y-112442572D01*
X115651000Y-112499714D01*
X115622429Y-112585429D01*
X115622429Y-112642572D01*
X115651000Y-112728286D01*
X115679571Y-112756857D01*
D11*
X87993808Y-81327857D02*
X87691427Y-82174524D01*
X87389047Y-81327857D01*
X86421428Y-82114048D02*
X86542380Y-82174524D01*
X86784285Y-82174524D01*
X86905237Y-82114048D01*
X86965713Y-81993095D01*
X86965713Y-81509286D01*
X86905237Y-81388333D01*
X86784285Y-81327857D01*
X86542380Y-81327857D01*
X86421428Y-81388333D01*
X86360951Y-81509286D01*
X86360951Y-81630238D01*
X86965713Y-81751190D01*
X85272380Y-82174524D02*
X85272380Y-80904524D01*
X85272380Y-82114048D02*
X85393333Y-82174524D01*
X85635237Y-82174524D01*
X85756190Y-82114048D01*
X85816666Y-82053571D01*
X85877142Y-81932619D01*
X85877142Y-81569762D01*
X85816666Y-81448810D01*
X85756190Y-81388333D01*
X85635237Y-81327857D01*
X85393333Y-81327857D01*
X85272380Y-81388333D01*
X84123332Y-82174524D02*
X84123332Y-80904524D01*
X84123332Y-82114048D02*
X84244285Y-82174524D01*
X84486189Y-82174524D01*
X84607142Y-82114048D01*
X84667618Y-82053571D01*
X84728094Y-81932619D01*
X84728094Y-81569762D01*
X84667618Y-81448810D01*
X84607142Y-81388333D01*
X84486189Y-81327857D01*
X84244285Y-81327857D01*
X84123332Y-81388333D01*
X83034761Y-82114048D02*
X83155713Y-82174524D01*
X83397618Y-82174524D01*
X83518570Y-82114048D01*
X83579046Y-81993095D01*
X83579046Y-81509286D01*
X83518570Y-81388333D01*
X83397618Y-81327857D01*
X83155713Y-81327857D01*
X83034761Y-81388333D01*
X82974284Y-81509286D01*
X82974284Y-81630238D01*
X83579046Y-81751190D01*
X82429999Y-82174524D02*
X82429999Y-81327857D01*
X82429999Y-81569762D02*
X82369523Y-81448810D01*
X82309047Y-81388333D01*
X82188094Y-81327857D01*
X82067142Y-81327857D01*
X81643809Y-82053571D02*
X81583333Y-82114048D01*
X81643809Y-82174524D01*
X81704285Y-82114048D01*
X81643809Y-82053571D01*
X81643809Y-82174524D01*
X81099523Y-82114048D02*
X80978571Y-82174524D01*
X80736666Y-82174524D01*
X80615714Y-82114048D01*
X80555238Y-81993095D01*
X80555238Y-81932619D01*
X80615714Y-81811667D01*
X80736666Y-81751190D01*
X80918095Y-81751190D01*
X81039047Y-81690714D01*
X81099523Y-81569762D01*
X81099523Y-81509286D01*
X81039047Y-81388333D01*
X80918095Y-81327857D01*
X80736666Y-81327857D01*
X80615714Y-81388333D01*
X79527143Y-82114048D02*
X79648095Y-82174524D01*
X79890000Y-82174524D01*
X80010952Y-82114048D01*
X80071428Y-81993095D01*
X80071428Y-81509286D01*
X80010952Y-81388333D01*
X79890000Y-81327857D01*
X79648095Y-81327857D01*
X79527143Y-81388333D01*
X79466666Y-81509286D01*
X79466666Y-81630238D01*
X80071428Y-81751190D01*
D10*
X115700000Y-113542858D02*
X115671429Y-113485715D01*
X115671429Y-113400001D01*
X115700000Y-113314286D01*
X115757143Y-113257144D01*
X115814286Y-113228572D01*
X115928571Y-113200001D01*
X116014286Y-113200001D01*
X116128571Y-113228572D01*
X116185714Y-113257144D01*
X116242857Y-113314286D01*
X116271429Y-113400001D01*
X116271429Y-113457144D01*
X116242857Y-113542858D01*
X116214286Y-113571429D01*
X116014286Y-113571429D01*
X116014286Y-113457144D01*
X116271429Y-113828572D02*
X115671429Y-113828572D01*
X116271429Y-114171429D01*
X115671429Y-114171429D01*
X116271429Y-114457143D02*
X115671429Y-114457143D01*
X115671429Y-114600000D01*
X115700000Y-114685715D01*
X115757143Y-114742857D01*
X115814286Y-114771429D01*
X115928571Y-114800000D01*
X116014286Y-114800000D01*
X116128571Y-114771429D01*
X116185714Y-114742857D01*
X116242857Y-114685715D01*
X116271429Y-114600000D01*
X116271429Y-114457143D01*
X115671429Y-115214285D02*
X115671429Y-115585714D01*
X115900000Y-115385714D01*
X115900000Y-115471428D01*
X115928571Y-115528571D01*
X115957143Y-115557142D01*
X116014286Y-115585714D01*
X116157143Y-115585714D01*
X116214286Y-115557142D01*
X116242857Y-115528571D01*
X116271429Y-115471428D01*
X116271429Y-115300000D01*
X116242857Y-115242857D01*
X116214286Y-115214285D01*
X116214286Y-115842857D02*
X116242857Y-115871429D01*
X116271429Y-115842857D01*
X116242857Y-115814286D01*
X116214286Y-115842857D01*
X116271429Y-115842857D01*
X115671429Y-116071428D02*
X115671429Y-116442857D01*
X115900000Y-116242857D01*
X115900000Y-116328571D01*
X115928571Y-116385714D01*
X115957143Y-116414285D01*
X116014286Y-116442857D01*
X116157143Y-116442857D01*
X116214286Y-116414285D01*
X116242857Y-116385714D01*
X116271429Y-116328571D01*
X116271429Y-116157143D01*
X116242857Y-116100000D01*
X116214286Y-116071428D01*
X115671429Y-116614286D02*
X116271429Y-116814286D01*
X115671429Y-117014286D01*
X115671429Y-117914285D02*
X115671429Y-117628571D01*
X115957143Y-117600000D01*
X115928571Y-117628571D01*
X115900000Y-117685714D01*
X115900000Y-117828571D01*
X115928571Y-117885714D01*
X115957143Y-117914285D01*
X116014286Y-117942857D01*
X116157143Y-117942857D01*
X116214286Y-117914285D01*
X116242857Y-117885714D01*
X116271429Y-117828571D01*
X116271429Y-117685714D01*
X116242857Y-117628571D01*
X116214286Y-117600000D01*
X115871429Y-118142857D02*
X116271429Y-118285714D01*
X115871429Y-118428572D01*
X116271429Y-129871428D02*
X115985714Y-129671428D01*
X116271429Y-129528571D02*
X115671429Y-129528571D01*
X115671429Y-129757143D01*
X115700000Y-129814285D01*
X115728571Y-129842857D01*
X115785714Y-129871428D01*
X115871429Y-129871428D01*
X115928571Y-129842857D01*
X115957143Y-129814285D01*
X115985714Y-129757143D01*
X115985714Y-129528571D01*
X116242857Y-130100000D02*
X116271429Y-130185714D01*
X116271429Y-130328571D01*
X116242857Y-130385714D01*
X116214286Y-130414285D01*
X116157143Y-130442857D01*
X116100000Y-130442857D01*
X116042857Y-130414285D01*
X116014286Y-130385714D01*
X115985714Y-130328571D01*
X115957143Y-130214285D01*
X115928571Y-130157143D01*
X115900000Y-130128571D01*
X115842857Y-130100000D01*
X115785714Y-130100000D01*
X115728571Y-130128571D01*
X115700000Y-130157143D01*
X115671429Y-130214285D01*
X115671429Y-130357143D01*
X115700000Y-130442857D01*
X115671429Y-130614286D02*
X115671429Y-130957143D01*
X116271429Y-130785714D02*
X115671429Y-130785714D01*
X116271429Y-127585715D02*
X115671429Y-127585715D01*
X115671429Y-127728572D01*
X115700000Y-127814287D01*
X115757143Y-127871429D01*
X115814286Y-127900001D01*
X115928571Y-127928572D01*
X116014286Y-127928572D01*
X116128571Y-127900001D01*
X116185714Y-127871429D01*
X116242857Y-127814287D01*
X116271429Y-127728572D01*
X116271429Y-127585715D01*
X116271429Y-128185715D02*
X115671429Y-128185715D01*
X115671429Y-128585715D02*
X115671429Y-128700001D01*
X115700000Y-128757143D01*
X115757143Y-128814286D01*
X115871429Y-128842858D01*
X116071429Y-128842858D01*
X116185714Y-128814286D01*
X116242857Y-128757143D01*
X116271429Y-128700001D01*
X116271429Y-128585715D01*
X116242857Y-128528572D01*
X116185714Y-128471429D01*
X116071429Y-128442858D01*
X115871429Y-128442858D01*
X115757143Y-128471429D01*
X115700000Y-128528572D01*
X115671429Y-128585715D01*
X115700000Y-125742858D02*
X115671429Y-125685715D01*
X115671429Y-125600001D01*
X115700000Y-125514286D01*
X115757143Y-125457144D01*
X115814286Y-125428572D01*
X115928571Y-125400001D01*
X116014286Y-125400001D01*
X116128571Y-125428572D01*
X116185714Y-125457144D01*
X116242857Y-125514286D01*
X116271429Y-125600001D01*
X116271429Y-125657144D01*
X116242857Y-125742858D01*
X116214286Y-125771429D01*
X116014286Y-125771429D01*
X116014286Y-125657144D01*
X116271429Y-126028572D02*
X115671429Y-126028572D01*
X116271429Y-126371429D01*
X115671429Y-126371429D01*
X116271429Y-126657143D02*
X115671429Y-126657143D01*
X115671429Y-126800000D01*
X115700000Y-126885715D01*
X115757143Y-126942857D01*
X115814286Y-126971429D01*
X115928571Y-127000000D01*
X116014286Y-127000000D01*
X116128571Y-126971429D01*
X116185714Y-126942857D01*
X116242857Y-126885715D01*
X116271429Y-126800000D01*
X116271429Y-126657143D01*
X116214286Y-123842857D02*
X116242857Y-123814286D01*
X116271429Y-123728572D01*
X116271429Y-123671429D01*
X116242857Y-123585714D01*
X116185714Y-123528572D01*
X116128571Y-123500000D01*
X116014286Y-123471429D01*
X115928571Y-123471429D01*
X115814286Y-123500000D01*
X115757143Y-123528572D01*
X115700000Y-123585714D01*
X115671429Y-123671429D01*
X115671429Y-123728572D01*
X115700000Y-123814286D01*
X115728571Y-123842857D01*
X116271429Y-124385714D02*
X116271429Y-124100000D01*
X115671429Y-124100000D01*
X116271429Y-124585714D02*
X115671429Y-124585714D01*
X116271429Y-124928571D02*
X115928571Y-124671428D01*
X115671429Y-124928571D02*
X116014286Y-124585714D01*
X115671429Y-121342857D02*
X115671429Y-121714286D01*
X115900000Y-121514286D01*
X115900000Y-121600000D01*
X115928571Y-121657143D01*
X115957143Y-121685714D01*
X116014286Y-121714286D01*
X116157143Y-121714286D01*
X116214286Y-121685714D01*
X116242857Y-121657143D01*
X116271429Y-121600000D01*
X116271429Y-121428572D01*
X116242857Y-121371429D01*
X116214286Y-121342857D01*
X116214286Y-121971429D02*
X116242857Y-122000001D01*
X116271429Y-121971429D01*
X116242857Y-121942858D01*
X116214286Y-121971429D01*
X116271429Y-121971429D01*
X115671429Y-122200000D02*
X115671429Y-122571429D01*
X115900000Y-122371429D01*
X115900000Y-122457143D01*
X115928571Y-122514286D01*
X115957143Y-122542857D01*
X116014286Y-122571429D01*
X116157143Y-122571429D01*
X116214286Y-122542857D01*
X116242857Y-122514286D01*
X116271429Y-122457143D01*
X116271429Y-122285715D01*
X116242857Y-122228572D01*
X116214286Y-122200000D01*
X115871429Y-122771429D02*
X116271429Y-122914286D01*
X115871429Y-123057144D01*
X87896191Y-84018381D02*
X87896191Y-83018381D01*
X87629524Y-83732667D01*
X87362857Y-83018381D01*
X87362857Y-84018381D01*
X86981905Y-84018381D02*
X86981905Y-83351714D01*
X86981905Y-83542190D02*
X86943810Y-83446952D01*
X86905714Y-83399333D01*
X86829524Y-83351714D01*
X86753333Y-83351714D01*
X86486667Y-84018381D02*
X86486667Y-83018381D01*
X86410476Y-83637429D02*
X86181905Y-84018381D01*
X86181905Y-83351714D02*
X86486667Y-83732667D01*
X85229524Y-84018381D02*
X85229524Y-83018381D01*
X84848572Y-83351714D02*
X84848572Y-84018381D01*
X84848572Y-83446952D02*
X84810477Y-83399333D01*
X84734286Y-83351714D01*
X84620000Y-83351714D01*
X84543810Y-83399333D01*
X84505715Y-83494571D01*
X84505715Y-84018381D01*
X83781905Y-84018381D02*
X83781905Y-83018381D01*
X83781905Y-83970762D02*
X83858095Y-84018381D01*
X84010476Y-84018381D01*
X84086667Y-83970762D01*
X84124762Y-83923143D01*
X84162857Y-83827905D01*
X84162857Y-83542190D01*
X84124762Y-83446952D01*
X84086667Y-83399333D01*
X84010476Y-83351714D01*
X83858095Y-83351714D01*
X83781905Y-83399333D01*
X83058095Y-83351714D02*
X83058095Y-84018381D01*
X83400952Y-83351714D02*
X83400952Y-83875524D01*
X83362857Y-83970762D01*
X83286666Y-84018381D01*
X83172380Y-84018381D01*
X83096190Y-83970762D01*
X83058095Y-83923143D01*
X82715237Y-83970762D02*
X82639047Y-84018381D01*
X82486666Y-84018381D01*
X82410475Y-83970762D01*
X82372380Y-83875524D01*
X82372380Y-83827905D01*
X82410475Y-83732667D01*
X82486666Y-83685048D01*
X82600951Y-83685048D01*
X82677142Y-83637429D01*
X82715237Y-83542190D01*
X82715237Y-83494571D01*
X82677142Y-83399333D01*
X82600951Y-83351714D01*
X82486666Y-83351714D01*
X82410475Y-83399333D01*
X82143809Y-83351714D02*
X81839047Y-83351714D01*
X82029523Y-83018381D02*
X82029523Y-83875524D01*
X81991428Y-83970762D01*
X81915237Y-84018381D01*
X81839047Y-84018381D01*
X81572380Y-84018381D02*
X81572380Y-83351714D01*
X81572380Y-83542190D02*
X81534285Y-83446952D01*
X81496189Y-83399333D01*
X81419999Y-83351714D01*
X81343808Y-83351714D01*
X81077142Y-84018381D02*
X81077142Y-83351714D01*
X81077142Y-83018381D02*
X81115237Y-83066000D01*
X81077142Y-83113619D01*
X81039047Y-83066000D01*
X81077142Y-83018381D01*
X81077142Y-83113619D01*
X80391428Y-83970762D02*
X80467618Y-84018381D01*
X80619999Y-84018381D01*
X80696190Y-83970762D01*
X80734285Y-83875524D01*
X80734285Y-83494571D01*
X80696190Y-83399333D01*
X80619999Y-83351714D01*
X80467618Y-83351714D01*
X80391428Y-83399333D01*
X80353333Y-83494571D01*
X80353333Y-83589810D01*
X80734285Y-83685048D01*
X80048571Y-83970762D02*
X79972381Y-84018381D01*
X79820000Y-84018381D01*
X79743809Y-83970762D01*
X79705714Y-83875524D01*
X79705714Y-83827905D01*
X79743809Y-83732667D01*
X79820000Y-83685048D01*
X79934285Y-83685048D01*
X80010476Y-83637429D01*
X80048571Y-83542190D01*
X80048571Y-83494571D01*
X80010476Y-83399333D01*
X79934285Y-83351714D01*
X79820000Y-83351714D01*
X79743809Y-83399333D01*
X82185715Y-138171429D02*
X82471429Y-138171429D01*
X82500000Y-138457143D01*
X82471429Y-138428571D01*
X82414286Y-138400000D01*
X82271429Y-138400000D01*
X82214286Y-138428571D01*
X82185715Y-138457143D01*
X82157143Y-138514286D01*
X82157143Y-138657143D01*
X82185715Y-138714286D01*
X82214286Y-138742857D01*
X82271429Y-138771429D01*
X82414286Y-138771429D01*
X82471429Y-138742857D01*
X82500000Y-138714286D01*
X81957143Y-138371429D02*
X81814286Y-138771429D01*
X81671428Y-138371429D01*
X85185714Y-138171429D02*
X84842857Y-138171429D01*
X85014286Y-138771429D02*
X85014286Y-138171429D01*
X84642857Y-138457143D02*
X84442857Y-138457143D01*
X84357143Y-138771429D02*
X84642857Y-138771429D01*
X84642857Y-138171429D01*
X84357143Y-138171429D01*
X84100000Y-138771429D02*
X84100000Y-138171429D01*
X83900000Y-138600000D01*
X83700000Y-138171429D01*
X83700000Y-138771429D01*
X83414286Y-138771429D02*
X83414286Y-138171429D01*
X83185714Y-138171429D01*
X83128572Y-138200000D01*
X83100000Y-138228571D01*
X83071429Y-138285714D01*
X83071429Y-138371429D01*
X83100000Y-138428571D01*
X83128572Y-138457143D01*
X83185714Y-138485714D01*
X83414286Y-138485714D01*
X86557143Y-138771429D02*
X86557143Y-138171429D01*
X86557143Y-138457143D02*
X86214286Y-138457143D01*
X86214286Y-138771429D02*
X86214286Y-138171429D01*
X85614286Y-138771429D02*
X85957143Y-138771429D01*
X85785715Y-138771429D02*
X85785715Y-138171429D01*
X85842858Y-138257143D01*
X85900000Y-138314286D01*
X85957143Y-138342857D01*
X88557143Y-138771429D02*
X88557143Y-138171429D01*
X88557143Y-138457143D02*
X88214286Y-138457143D01*
X88214286Y-138771429D02*
X88214286Y-138171429D01*
X87957143Y-138228571D02*
X87928572Y-138200000D01*
X87871429Y-138171429D01*
X87728572Y-138171429D01*
X87671429Y-138200000D01*
X87642858Y-138228571D01*
X87614286Y-138285714D01*
X87614286Y-138342857D01*
X87642858Y-138428571D01*
X87985715Y-138771429D01*
X87614286Y-138771429D01*
X90557143Y-138771429D02*
X90557143Y-138171429D01*
X90557143Y-138457143D02*
X90214286Y-138457143D01*
X90214286Y-138771429D02*
X90214286Y-138171429D01*
X89985715Y-138171429D02*
X89614286Y-138171429D01*
X89814286Y-138400000D01*
X89728572Y-138400000D01*
X89671429Y-138428571D01*
X89642858Y-138457143D01*
X89614286Y-138514286D01*
X89614286Y-138657143D01*
X89642858Y-138714286D01*
X89671429Y-138742857D01*
X89728572Y-138771429D01*
X89900000Y-138771429D01*
X89957143Y-138742857D01*
X89985715Y-138714286D01*
X92557142Y-138200000D02*
X92614285Y-138171429D01*
X92699999Y-138171429D01*
X92785714Y-138200000D01*
X92842856Y-138257143D01*
X92871428Y-138314286D01*
X92899999Y-138428571D01*
X92899999Y-138514286D01*
X92871428Y-138628571D01*
X92842856Y-138685714D01*
X92785714Y-138742857D01*
X92699999Y-138771429D01*
X92642856Y-138771429D01*
X92557142Y-138742857D01*
X92528571Y-138714286D01*
X92528571Y-138514286D01*
X92642856Y-138514286D01*
X92271428Y-138771429D02*
X92271428Y-138171429D01*
X91928571Y-138771429D01*
X91928571Y-138171429D01*
X91642857Y-138771429D02*
X91642857Y-138171429D01*
X91500000Y-138171429D01*
X91414285Y-138200000D01*
X91357143Y-138257143D01*
X91328571Y-138314286D01*
X91300000Y-138428571D01*
X91300000Y-138514286D01*
X91328571Y-138628571D01*
X91357143Y-138685714D01*
X91414285Y-138742857D01*
X91500000Y-138771429D01*
X91642857Y-138771429D01*
D12*
X108262420Y-134495540D02*
X108262420Y-131696460D01*
X108364020Y-131696460D02*
X108364020Y-134495540D01*
X108463080Y-134495540D02*
X108463080Y-131696460D01*
X108562140Y-131696460D02*
X108562140Y-134495540D01*
X108663740Y-131696460D02*
X108663740Y-134495540D01*
X108163360Y-131696460D02*
X112562640Y-131696460D01*
X112562640Y-131696460D02*
X112562640Y-134495540D01*
X112562640Y-134495540D02*
X108163360Y-134495540D01*
X108163360Y-134495540D02*
X108163360Y-131696460D01*
D13*
X96433640Y-135204200D02*
X101432360Y-135204200D01*
X101432360Y-135204200D02*
X101432360Y-132003800D01*
X101432360Y-132003800D02*
X96433640Y-132003800D01*
X96433640Y-132003800D02*
X96433640Y-135204200D01*
D14*
X87376000Y-121920000D02*
X84328000Y-121920000D01*
X84328000Y-121920000D02*
X84328000Y-114808000D01*
X84328000Y-114808000D02*
X87376000Y-114808000D01*
X90424000Y-121920000D02*
X91186000Y-121920000D01*
X91186000Y-121920000D02*
X93472000Y-120396000D01*
X93472000Y-120396000D02*
X93472000Y-116332000D01*
X93472000Y-116332000D02*
X91186000Y-114808000D01*
X91186000Y-114808000D02*
X90424000Y-114808000D01*
D15*
G36*
X115463320Y-85166200D02*
X115445540Y-85158580D01*
X115412520Y-85135720D01*
X115361720Y-85102700D01*
X115303300Y-85064600D01*
X115242340Y-85023960D01*
X115194080Y-84990940D01*
X115158520Y-84968080D01*
X115145820Y-84960460D01*
X115138200Y-84963000D01*
X115110260Y-84978240D01*
X115069620Y-84998560D01*
X115044220Y-85011260D01*
X115006120Y-85026500D01*
X114988340Y-85031580D01*
X114985800Y-85026500D01*
X114970560Y-84996020D01*
X114950240Y-84947760D01*
X114922300Y-84881720D01*
X114889280Y-84805520D01*
X114853720Y-84724240D01*
X114820700Y-84640420D01*
X114787680Y-84561680D01*
X114757200Y-84488020D01*
X114734340Y-84429600D01*
X114719100Y-84388960D01*
X114711480Y-84371180D01*
X114714020Y-84368640D01*
X114731800Y-84350860D01*
X114764820Y-84325460D01*
X114835940Y-84267040D01*
X114907060Y-84180680D01*
X114950240Y-84081620D01*
X114962940Y-83969860D01*
X114952780Y-83868260D01*
X114912140Y-83771740D01*
X114843560Y-83682840D01*
X114759740Y-83616800D01*
X114663220Y-83576160D01*
X114554000Y-83563460D01*
X114449860Y-83573620D01*
X114350800Y-83614260D01*
X114261900Y-83680300D01*
X114223800Y-83723480D01*
X114173000Y-83814920D01*
X114142520Y-83908900D01*
X114139980Y-83931760D01*
X114145060Y-84038440D01*
X114175540Y-84140040D01*
X114231420Y-84228940D01*
X114307620Y-84302600D01*
X114317780Y-84310220D01*
X114353340Y-84338160D01*
X114378740Y-84355940D01*
X114396520Y-84371180D01*
X114261900Y-84693760D01*
X114241580Y-84744560D01*
X114203480Y-84833460D01*
X114173000Y-84909660D01*
X114145060Y-84970620D01*
X114127280Y-85011260D01*
X114119660Y-85026500D01*
X114119660Y-85026500D01*
X114106960Y-85029040D01*
X114084100Y-85021420D01*
X114038380Y-84998560D01*
X114007900Y-84983320D01*
X113974880Y-84968080D01*
X113959640Y-84960460D01*
X113944400Y-84968080D01*
X113911380Y-84988400D01*
X113865660Y-85021420D01*
X113807240Y-85059520D01*
X113751360Y-85097620D01*
X113700560Y-85130640D01*
X113665000Y-85156040D01*
X113647220Y-85163660D01*
X113644680Y-85163660D01*
X113626900Y-85156040D01*
X113598960Y-85130640D01*
X113555780Y-85090000D01*
X113492280Y-85029040D01*
X113482120Y-85018880D01*
X113431320Y-84968080D01*
X113390680Y-84922360D01*
X113362740Y-84891880D01*
X113352580Y-84879180D01*
X113352580Y-84879180D01*
X113362740Y-84861400D01*
X113385600Y-84823300D01*
X113418620Y-84772500D01*
X113459260Y-84711540D01*
X113565940Y-84556600D01*
X113507520Y-84411820D01*
X113489740Y-84366100D01*
X113466880Y-84310220D01*
X113449100Y-84272120D01*
X113441480Y-84254340D01*
X113423700Y-84249260D01*
X113385600Y-84239100D01*
X113327180Y-84228940D01*
X113256060Y-84216240D01*
X113190020Y-84203540D01*
X113131600Y-84190840D01*
X113088420Y-84183220D01*
X113068100Y-84180680D01*
X113063020Y-84175600D01*
X113060480Y-84167980D01*
X113057940Y-84147660D01*
X113055400Y-84109560D01*
X113055400Y-84053680D01*
X113055400Y-83969860D01*
X113055400Y-83962240D01*
X113055400Y-83883500D01*
X113057940Y-83820000D01*
X113060480Y-83781900D01*
X113063020Y-83764120D01*
X113063020Y-83764120D01*
X113080800Y-83759040D01*
X113123980Y-83751420D01*
X113182400Y-83738720D01*
X113253520Y-83726020D01*
X113258600Y-83726020D01*
X113329720Y-83710780D01*
X113388140Y-83698080D01*
X113431320Y-83690460D01*
X113449100Y-83682840D01*
X113451640Y-83677760D01*
X113466880Y-83649820D01*
X113487200Y-83606640D01*
X113510060Y-83553300D01*
X113532920Y-83497420D01*
X113553240Y-83446620D01*
X113565940Y-83411060D01*
X113571020Y-83393280D01*
X113571020Y-83393280D01*
X113560860Y-83375500D01*
X113535460Y-83339940D01*
X113499900Y-83289140D01*
X113459260Y-83228180D01*
X113456720Y-83223100D01*
X113416080Y-83162140D01*
X113383060Y-83111340D01*
X113360200Y-83075780D01*
X113352580Y-83060540D01*
X113352580Y-83058000D01*
X113365280Y-83040220D01*
X113395760Y-83007200D01*
X113441480Y-82961480D01*
X113492280Y-82908140D01*
X113510060Y-82892900D01*
X113568480Y-82834480D01*
X113609120Y-82798920D01*
X113634520Y-82778600D01*
X113644680Y-82773520D01*
X113647220Y-82773520D01*
X113665000Y-82783680D01*
X113703100Y-82809080D01*
X113753900Y-82844640D01*
X113814860Y-82885280D01*
X113817400Y-82887820D01*
X113878360Y-82928460D01*
X113929160Y-82964020D01*
X113964720Y-82986880D01*
X113979960Y-82994500D01*
X113982500Y-82994500D01*
X114005360Y-82989420D01*
X114048540Y-82974180D01*
X114101880Y-82953860D01*
X114157760Y-82931000D01*
X114208560Y-82910680D01*
X114244120Y-82892900D01*
X114261900Y-82882740D01*
X114264440Y-82882740D01*
X114269520Y-82859880D01*
X114279680Y-82814160D01*
X114292380Y-82753200D01*
X114307620Y-82679540D01*
X114310160Y-82669380D01*
X114322860Y-82595720D01*
X114333020Y-82537300D01*
X114343180Y-82496660D01*
X114345720Y-82478880D01*
X114355880Y-82478880D01*
X114391440Y-82476340D01*
X114444780Y-82473800D01*
X114510820Y-82473800D01*
X114576860Y-82473800D01*
X114642900Y-82473800D01*
X114698780Y-82476340D01*
X114739420Y-82478880D01*
X114757200Y-82483960D01*
X114757200Y-82483960D01*
X114762280Y-82506820D01*
X114772440Y-82550000D01*
X114785140Y-82613500D01*
X114800380Y-82687160D01*
X114802920Y-82699860D01*
X114815620Y-82770980D01*
X114828320Y-82829400D01*
X114835940Y-82870040D01*
X114841020Y-82885280D01*
X114846100Y-82887820D01*
X114876580Y-82903060D01*
X114924840Y-82920840D01*
X114983260Y-82946240D01*
X115120420Y-83002120D01*
X115288060Y-82885280D01*
X115303300Y-82875120D01*
X115364260Y-82834480D01*
X115415060Y-82801460D01*
X115450620Y-82778600D01*
X115463320Y-82770980D01*
X115465860Y-82770980D01*
X115481100Y-82786220D01*
X115514120Y-82816700D01*
X115559840Y-82862420D01*
X115613180Y-82913220D01*
X115653820Y-82953860D01*
X115699540Y-82999580D01*
X115727480Y-83032600D01*
X115745260Y-83052920D01*
X115750340Y-83065620D01*
X115747800Y-83073240D01*
X115737640Y-83091020D01*
X115712240Y-83126580D01*
X115679220Y-83179920D01*
X115638580Y-83238340D01*
X115603020Y-83289140D01*
X115567460Y-83345020D01*
X115544600Y-83385660D01*
X115534440Y-83403440D01*
X115536980Y-83413600D01*
X115549680Y-83446620D01*
X115570000Y-83494880D01*
X115595400Y-83555840D01*
X115653820Y-83687920D01*
X115740180Y-83705700D01*
X115793520Y-83715860D01*
X115867180Y-83728560D01*
X115938300Y-83743800D01*
X116050060Y-83764120D01*
X116052600Y-84167980D01*
X116034820Y-84175600D01*
X116019580Y-84180680D01*
X115978940Y-84190840D01*
X115920520Y-84201000D01*
X115851940Y-84213700D01*
X115790980Y-84226400D01*
X115732560Y-84236560D01*
X115689380Y-84244180D01*
X115671600Y-84249260D01*
X115666520Y-84254340D01*
X115651280Y-84284820D01*
X115630960Y-84330540D01*
X115608100Y-84383880D01*
X115582700Y-84442300D01*
X115562380Y-84493100D01*
X115547140Y-84533740D01*
X115542060Y-84554060D01*
X115549680Y-84569300D01*
X115572540Y-84604860D01*
X115605560Y-84655660D01*
X115646200Y-84714080D01*
X115686840Y-84772500D01*
X115719860Y-84823300D01*
X115745260Y-84858860D01*
X115752880Y-84876640D01*
X115747800Y-84886800D01*
X115724940Y-84914740D01*
X115681760Y-84960460D01*
X115615720Y-85026500D01*
X115603020Y-85036660D01*
X115552220Y-85087460D01*
X115506500Y-85128100D01*
X115476020Y-85156040D01*
X115463320Y-85166200D01*
X115463320Y-85166200D01*
G37*
X115463320Y-85166200D02*
X115445540Y-85158580D01*
X115412520Y-85135720D01*
X115361720Y-85102700D01*
X115303300Y-85064600D01*
X115242340Y-85023960D01*
X115194080Y-84990940D01*
X115158520Y-84968080D01*
X115145820Y-84960460D01*
X115138200Y-84963000D01*
X115110260Y-84978240D01*
X115069620Y-84998560D01*
X115044220Y-85011260D01*
X115006120Y-85026500D01*
X114988340Y-85031580D01*
X114985800Y-85026500D01*
X114970560Y-84996020D01*
X114950240Y-84947760D01*
X114922300Y-84881720D01*
X114889280Y-84805520D01*
X114853720Y-84724240D01*
X114820700Y-84640420D01*
X114787680Y-84561680D01*
X114757200Y-84488020D01*
X114734340Y-84429600D01*
X114719100Y-84388960D01*
X114711480Y-84371180D01*
X114714020Y-84368640D01*
X114731800Y-84350860D01*
X114764820Y-84325460D01*
X114835940Y-84267040D01*
X114907060Y-84180680D01*
X114950240Y-84081620D01*
X114962940Y-83969860D01*
X114952780Y-83868260D01*
X114912140Y-83771740D01*
X114843560Y-83682840D01*
X114759740Y-83616800D01*
X114663220Y-83576160D01*
X114554000Y-83563460D01*
X114449860Y-83573620D01*
X114350800Y-83614260D01*
X114261900Y-83680300D01*
X114223800Y-83723480D01*
X114173000Y-83814920D01*
X114142520Y-83908900D01*
X114139980Y-83931760D01*
X114145060Y-84038440D01*
X114175540Y-84140040D01*
X114231420Y-84228940D01*
X114307620Y-84302600D01*
X114317780Y-84310220D01*
X114353340Y-84338160D01*
X114378740Y-84355940D01*
X114396520Y-84371180D01*
X114261900Y-84693760D01*
X114241580Y-84744560D01*
X114203480Y-84833460D01*
X114173000Y-84909660D01*
X114145060Y-84970620D01*
X114127280Y-85011260D01*
X114119660Y-85026500D01*
X114119660Y-85026500D01*
X114106960Y-85029040D01*
X114084100Y-85021420D01*
X114038380Y-84998560D01*
X114007900Y-84983320D01*
X113974880Y-84968080D01*
X113959640Y-84960460D01*
X113944400Y-84968080D01*
X113911380Y-84988400D01*
X113865660Y-85021420D01*
X113807240Y-85059520D01*
X113751360Y-85097620D01*
X113700560Y-85130640D01*
X113665000Y-85156040D01*
X113647220Y-85163660D01*
X113644680Y-85163660D01*
X113626900Y-85156040D01*
X113598960Y-85130640D01*
X113555780Y-85090000D01*
X113492280Y-85029040D01*
X113482120Y-85018880D01*
X113431320Y-84968080D01*
X113390680Y-84922360D01*
X113362740Y-84891880D01*
X113352580Y-84879180D01*
X113352580Y-84879180D01*
X113362740Y-84861400D01*
X113385600Y-84823300D01*
X113418620Y-84772500D01*
X113459260Y-84711540D01*
X113565940Y-84556600D01*
X113507520Y-84411820D01*
X113489740Y-84366100D01*
X113466880Y-84310220D01*
X113449100Y-84272120D01*
X113441480Y-84254340D01*
X113423700Y-84249260D01*
X113385600Y-84239100D01*
X113327180Y-84228940D01*
X113256060Y-84216240D01*
X113190020Y-84203540D01*
X113131600Y-84190840D01*
X113088420Y-84183220D01*
X113068100Y-84180680D01*
X113063020Y-84175600D01*
X113060480Y-84167980D01*
X113057940Y-84147660D01*
X113055400Y-84109560D01*
X113055400Y-84053680D01*
X113055400Y-83969860D01*
X113055400Y-83962240D01*
X113055400Y-83883500D01*
X113057940Y-83820000D01*
X113060480Y-83781900D01*
X113063020Y-83764120D01*
X113063020Y-83764120D01*
X113080800Y-83759040D01*
X113123980Y-83751420D01*
X113182400Y-83738720D01*
X113253520Y-83726020D01*
X113258600Y-83726020D01*
X113329720Y-83710780D01*
X113388140Y-83698080D01*
X113431320Y-83690460D01*
X113449100Y-83682840D01*
X113451640Y-83677760D01*
X113466880Y-83649820D01*
X113487200Y-83606640D01*
X113510060Y-83553300D01*
X113532920Y-83497420D01*
X113553240Y-83446620D01*
X113565940Y-83411060D01*
X113571020Y-83393280D01*
X113571020Y-83393280D01*
X113560860Y-83375500D01*
X113535460Y-83339940D01*
X113499900Y-83289140D01*
X113459260Y-83228180D01*
X113456720Y-83223100D01*
X113416080Y-83162140D01*
X113383060Y-83111340D01*
X113360200Y-83075780D01*
X113352580Y-83060540D01*
X113352580Y-83058000D01*
X113365280Y-83040220D01*
X113395760Y-83007200D01*
X113441480Y-82961480D01*
X113492280Y-82908140D01*
X113510060Y-82892900D01*
X113568480Y-82834480D01*
X113609120Y-82798920D01*
X113634520Y-82778600D01*
X113644680Y-82773520D01*
X113647220Y-82773520D01*
X113665000Y-82783680D01*
X113703100Y-82809080D01*
X113753900Y-82844640D01*
X113814860Y-82885280D01*
X113817400Y-82887820D01*
X113878360Y-82928460D01*
X113929160Y-82964020D01*
X113964720Y-82986880D01*
X113979960Y-82994500D01*
X113982500Y-82994500D01*
X114005360Y-82989420D01*
X114048540Y-82974180D01*
X114101880Y-82953860D01*
X114157760Y-82931000D01*
X114208560Y-82910680D01*
X114244120Y-82892900D01*
X114261900Y-82882740D01*
X114264440Y-82882740D01*
X114269520Y-82859880D01*
X114279680Y-82814160D01*
X114292380Y-82753200D01*
X114307620Y-82679540D01*
X114310160Y-82669380D01*
X114322860Y-82595720D01*
X114333020Y-82537300D01*
X114343180Y-82496660D01*
X114345720Y-82478880D01*
X114355880Y-82478880D01*
X114391440Y-82476340D01*
X114444780Y-82473800D01*
X114510820Y-82473800D01*
X114576860Y-82473800D01*
X114642900Y-82473800D01*
X114698780Y-82476340D01*
X114739420Y-82478880D01*
X114757200Y-82483960D01*
X114757200Y-82483960D01*
X114762280Y-82506820D01*
X114772440Y-82550000D01*
X114785140Y-82613500D01*
X114800380Y-82687160D01*
X114802920Y-82699860D01*
X114815620Y-82770980D01*
X114828320Y-82829400D01*
X114835940Y-82870040D01*
X114841020Y-82885280D01*
X114846100Y-82887820D01*
X114876580Y-82903060D01*
X114924840Y-82920840D01*
X114983260Y-82946240D01*
X115120420Y-83002120D01*
X115288060Y-82885280D01*
X115303300Y-82875120D01*
X115364260Y-82834480D01*
X115415060Y-82801460D01*
X115450620Y-82778600D01*
X115463320Y-82770980D01*
X115465860Y-82770980D01*
X115481100Y-82786220D01*
X115514120Y-82816700D01*
X115559840Y-82862420D01*
X115613180Y-82913220D01*
X115653820Y-82953860D01*
X115699540Y-82999580D01*
X115727480Y-83032600D01*
X115745260Y-83052920D01*
X115750340Y-83065620D01*
X115747800Y-83073240D01*
X115737640Y-83091020D01*
X115712240Y-83126580D01*
X115679220Y-83179920D01*
X115638580Y-83238340D01*
X115603020Y-83289140D01*
X115567460Y-83345020D01*
X115544600Y-83385660D01*
X115534440Y-83403440D01*
X115536980Y-83413600D01*
X115549680Y-83446620D01*
X115570000Y-83494880D01*
X115595400Y-83555840D01*
X115653820Y-83687920D01*
X115740180Y-83705700D01*
X115793520Y-83715860D01*
X115867180Y-83728560D01*
X115938300Y-83743800D01*
X116050060Y-83764120D01*
X116052600Y-84167980D01*
X116034820Y-84175600D01*
X116019580Y-84180680D01*
X115978940Y-84190840D01*
X115920520Y-84201000D01*
X115851940Y-84213700D01*
X115790980Y-84226400D01*
X115732560Y-84236560D01*
X115689380Y-84244180D01*
X115671600Y-84249260D01*
X115666520Y-84254340D01*
X115651280Y-84284820D01*
X115630960Y-84330540D01*
X115608100Y-84383880D01*
X115582700Y-84442300D01*
X115562380Y-84493100D01*
X115547140Y-84533740D01*
X115542060Y-84554060D01*
X115549680Y-84569300D01*
X115572540Y-84604860D01*
X115605560Y-84655660D01*
X115646200Y-84714080D01*
X115686840Y-84772500D01*
X115719860Y-84823300D01*
X115745260Y-84858860D01*
X115752880Y-84876640D01*
X115747800Y-84886800D01*
X115724940Y-84914740D01*
X115681760Y-84960460D01*
X115615720Y-85026500D01*
X115603020Y-85036660D01*
X115552220Y-85087460D01*
X115506500Y-85128100D01*
X115476020Y-85156040D01*
X115463320Y-85166200D01*
D12*
X104648000Y-112903000D02*
X104648000Y-110617000D01*
X104648000Y-110617000D02*
X106299000Y-110617000D01*
X108077000Y-112903000D02*
X109728000Y-112903000D01*
X109728000Y-112903000D02*
X109728000Y-110617000D01*
X109728000Y-110617000D02*
X108077000Y-110617000D01*
X106299000Y-112903000D02*
X104648000Y-112903000D01*
X113411000Y-112522000D02*
X111125000Y-112522000D01*
X111125000Y-112522000D02*
X111125000Y-110871000D01*
X113411000Y-109093000D02*
X113411000Y-107442000D01*
X113411000Y-107442000D02*
X111125000Y-107442000D01*
X111125000Y-107442000D02*
X111125000Y-109093000D01*
X113411000Y-110871000D02*
X113411000Y-112522000D01*
X101660000Y-117443000D02*
X101660000Y-115157000D01*
X101660000Y-115157000D02*
X103311000Y-115157000D01*
X105089000Y-117443000D02*
X106740000Y-117443000D01*
X106740000Y-117443000D02*
X106740000Y-115157000D01*
X106740000Y-115157000D02*
X105089000Y-115157000D01*
X103311000Y-117443000D02*
X101660000Y-117443000D01*
D16*
X84350240Y-128100380D02*
X84350240Y-128798880D01*
X84350240Y-127099620D02*
X84350240Y-126401120D01*
X83049760Y-128100380D02*
X83049760Y-128798880D01*
X83049760Y-126401120D02*
X83049760Y-127099620D01*
X83065000Y-128798880D02*
X84335000Y-128798880D01*
X84335000Y-126401120D02*
X83065000Y-126401120D01*
X112119967Y-130099611D02*
X111626053Y-130593525D01*
X112827611Y-129391967D02*
X113321525Y-128898053D01*
X111200389Y-129180033D02*
X110706475Y-129673947D01*
X112401947Y-127978475D02*
X111908033Y-128472389D01*
X110717251Y-129684723D02*
X111615277Y-130582749D01*
X113310749Y-128887277D02*
X112412723Y-127989251D01*
X82438240Y-134866380D02*
X82438240Y-135564880D01*
X82438240Y-133865620D02*
X82438240Y-133167120D01*
X81137760Y-134866380D02*
X81137760Y-135564880D01*
X81137760Y-133167120D02*
X81137760Y-133865620D01*
X81153000Y-135564880D02*
X82423000Y-135564880D01*
X82423000Y-133167120D02*
X81153000Y-133167120D01*
X91805760Y-131325620D02*
X91805760Y-130627120D01*
X91805760Y-132326380D02*
X91805760Y-133024880D01*
X93106240Y-131325620D02*
X93106240Y-130627120D01*
X93106240Y-133024880D02*
X93106240Y-132326380D01*
X93091000Y-130627120D02*
X91821000Y-130627120D01*
X91821000Y-133024880D02*
X93091000Y-133024880D01*
X90249760Y-131299620D02*
X90249760Y-130601120D01*
X90249760Y-132300380D02*
X90249760Y-132998880D01*
X91550240Y-131299620D02*
X91550240Y-130601120D01*
X91550240Y-132998880D02*
X91550240Y-132300380D01*
X91535000Y-130601120D02*
X90265000Y-130601120D01*
X90265000Y-132998880D02*
X91535000Y-132998880D01*
X85699760Y-131299620D02*
X85699760Y-130601120D01*
X85699760Y-132300380D02*
X85699760Y-132998880D01*
X87000240Y-131299620D02*
X87000240Y-130601120D01*
X87000240Y-132998880D02*
X87000240Y-132300380D01*
X86985000Y-130601120D02*
X85715000Y-130601120D01*
X85715000Y-132998880D02*
X86985000Y-132998880D01*
X96662240Y-125341380D02*
X96662240Y-126039880D01*
X96662240Y-124340620D02*
X96662240Y-123642120D01*
X95361760Y-125341380D02*
X95361760Y-126039880D01*
X95361760Y-123642120D02*
X95361760Y-124340620D01*
X95377000Y-126039880D02*
X96647000Y-126039880D01*
X96647000Y-123642120D02*
X95377000Y-123642120D01*
X98036380Y-130159760D02*
X98734880Y-130159760D01*
X97035620Y-130159760D02*
X96337120Y-130159760D01*
X98036380Y-131460240D02*
X98734880Y-131460240D01*
X96337120Y-131460240D02*
X97035620Y-131460240D01*
X98734880Y-131445000D02*
X98734880Y-130175000D01*
X96337120Y-130175000D02*
X96337120Y-131445000D01*
X106949760Y-125499620D02*
X106949760Y-124801120D01*
X106949760Y-126500380D02*
X106949760Y-127198880D01*
X108250240Y-125499620D02*
X108250240Y-124801120D01*
X108250240Y-127198880D02*
X108250240Y-126500380D01*
X108235000Y-124801120D02*
X106965000Y-124801120D01*
X106965000Y-127198880D02*
X108235000Y-127198880D01*
X97012760Y-124340620D02*
X97012760Y-123642120D01*
X97012760Y-125341380D02*
X97012760Y-126039880D01*
X98313240Y-124340620D02*
X98313240Y-123642120D01*
X98313240Y-126039880D02*
X98313240Y-125341380D01*
X98298000Y-123642120D02*
X97028000Y-123642120D01*
X97028000Y-126039880D02*
X98298000Y-126039880D01*
D17*
X99441000Y-119380000D02*
G75*
G03X99441000Y-119380000I-127000J0D01*
G74*
G01*
X100457000Y-119380000D02*
X99441000Y-119380000D01*
X99441000Y-119380000D02*
X99441000Y-120904000D01*
X99441000Y-120904000D02*
X100457000Y-120904000D01*
X101473000Y-120904000D02*
X102489000Y-120904000D01*
X102489000Y-120904000D02*
X102489000Y-119380000D01*
X102489000Y-119380000D02*
X101473000Y-119380000D01*
D16*
X105267760Y-122308620D02*
X105267760Y-121610120D01*
X105267760Y-123309380D02*
X105267760Y-124007880D01*
X106568240Y-122308620D02*
X106568240Y-121610120D01*
X106568240Y-124007880D02*
X106568240Y-123309380D01*
X106553000Y-121610120D02*
X105283000Y-121610120D01*
X105283000Y-124007880D02*
X106553000Y-124007880D01*
X84439760Y-122435620D02*
X84439760Y-121737120D01*
X84439760Y-123436380D02*
X84439760Y-124134880D01*
X85740240Y-122435620D02*
X85740240Y-121737120D01*
X85740240Y-124134880D02*
X85740240Y-123436380D01*
X85725000Y-121737120D02*
X84455000Y-121737120D01*
X84455000Y-124134880D02*
X85725000Y-124134880D01*
D12*
X79153000Y-124856500D02*
X81947000Y-124856500D01*
X79153000Y-125428000D02*
X79153000Y-121872000D01*
X79153000Y-121872000D02*
X81947000Y-121872000D01*
X81947000Y-121872000D02*
X81947000Y-125428000D01*
X81947000Y-125428000D02*
X79153000Y-125428000D01*
D16*
X104513380Y-133207760D02*
X105211880Y-133207760D01*
X103512620Y-133207760D02*
X102814120Y-133207760D01*
X104513380Y-134508240D02*
X105211880Y-134508240D01*
X102814120Y-134508240D02*
X103512620Y-134508240D01*
X105211880Y-134493000D02*
X105211880Y-133223000D01*
X102814120Y-133223000D02*
X102814120Y-134493000D01*
X93987620Y-136413240D02*
X93289120Y-136413240D01*
X94988380Y-136413240D02*
X95686880Y-136413240D01*
X93987620Y-135112760D02*
X93289120Y-135112760D01*
X95686880Y-135112760D02*
X94988380Y-135112760D01*
X93289120Y-135128000D02*
X93289120Y-136398000D01*
X95686880Y-136398000D02*
X95686880Y-135128000D01*
D12*
X84397000Y-117093500D02*
X81603000Y-117093500D01*
X84397000Y-116522000D02*
X84397000Y-120078000D01*
X84397000Y-120078000D02*
X81603000Y-120078000D01*
X81603000Y-120078000D02*
X81603000Y-116522000D01*
X81603000Y-116522000D02*
X84397000Y-116522000D01*
D16*
X99829620Y-131460240D02*
X99131120Y-131460240D01*
X100830380Y-131460240D02*
X101528880Y-131460240D01*
X99829620Y-130159760D02*
X99131120Y-130159760D01*
X101528880Y-130159760D02*
X100830380Y-130159760D01*
X99131120Y-130175000D02*
X99131120Y-131445000D01*
X101528880Y-131445000D02*
X101528880Y-130175000D01*
D12*
X91440000Y-113411000D02*
X91440000Y-111125000D01*
X91440000Y-111125000D02*
X93091000Y-111125000D01*
X94869000Y-113411000D02*
X96520000Y-113411000D01*
X96520000Y-113411000D02*
X96520000Y-111125000D01*
X96520000Y-111125000D02*
X94869000Y-111125000D01*
X93091000Y-113411000D02*
X91440000Y-113411000D01*
X93599000Y-117348000D02*
X93599000Y-115062000D01*
X93599000Y-115062000D02*
X95250000Y-115062000D01*
X97028000Y-117348000D02*
X98679000Y-117348000D01*
X98679000Y-117348000D02*
X98679000Y-115062000D01*
X98679000Y-115062000D02*
X97028000Y-115062000D01*
X95250000Y-117348000D02*
X93599000Y-117348000D01*
X93599000Y-119761000D02*
X93599000Y-117475000D01*
X93599000Y-117475000D02*
X95250000Y-117475000D01*
X97028000Y-119761000D02*
X98679000Y-119761000D01*
X98679000Y-119761000D02*
X98679000Y-117475000D01*
X98679000Y-117475000D02*
X97028000Y-117475000D01*
X95250000Y-119761000D02*
X93599000Y-119761000D01*
X107950000Y-120015000D02*
X113030000Y-120015000D01*
X107950000Y-115697000D02*
X113030000Y-115697000D01*
X107950000Y-115062000D02*
X107950000Y-120650000D01*
X107950000Y-120650000D02*
X113030000Y-120650000D01*
X113030000Y-120650000D02*
X113030000Y-115062000D01*
X113030000Y-115062000D02*
X107950000Y-115062000D01*
D16*
X106791760Y-122308620D02*
X106791760Y-121610120D01*
X106791760Y-123309380D02*
X106791760Y-124007880D01*
X108092240Y-122308620D02*
X108092240Y-121610120D01*
X108092240Y-124007880D02*
X108092240Y-123309380D01*
X108077000Y-121610120D02*
X106807000Y-121610120D01*
X106807000Y-124007880D02*
X108077000Y-124007880D01*
D18*
X112336580Y-122740420D02*
X111437420Y-122740420D01*
X111437420Y-122740420D02*
X111437420Y-122341640D01*
X112336580Y-122341640D02*
X111437420Y-122341640D01*
X112336580Y-122740420D02*
X112336580Y-122341640D01*
X112336580Y-124038360D02*
X111437420Y-124038360D01*
X111437420Y-124038360D02*
X111437420Y-123639580D01*
X112336580Y-123639580D02*
X111437420Y-123639580D01*
X112336580Y-124038360D02*
X112336580Y-123639580D01*
X112336580Y-123190000D02*
X112186720Y-123190000D01*
X112186720Y-123190000D02*
X112186720Y-122890280D01*
X112336580Y-122890280D02*
X112186720Y-122890280D01*
X112336580Y-123190000D02*
X112336580Y-122890280D01*
X111587280Y-123190000D02*
X111437420Y-123190000D01*
X111437420Y-123190000D02*
X111437420Y-122890280D01*
X111587280Y-122890280D02*
X111437420Y-122890280D01*
X111587280Y-123190000D02*
X111587280Y-122890280D01*
X112036860Y-123190000D02*
X111737140Y-123190000D01*
X111737140Y-123190000D02*
X111737140Y-122890280D01*
X112036860Y-122890280D02*
X111737140Y-122890280D01*
X112036860Y-123190000D02*
X112036860Y-122890280D01*
D19*
X112285780Y-122740420D02*
X112285780Y-123639580D01*
X111488220Y-122740420D02*
X111488220Y-123639580D01*
D18*
X110899580Y-122750420D02*
X110000420Y-122750420D01*
X110000420Y-122750420D02*
X110000420Y-122351640D01*
X110899580Y-122351640D02*
X110000420Y-122351640D01*
X110899580Y-122750420D02*
X110899580Y-122351640D01*
X110899580Y-124048360D02*
X110000420Y-124048360D01*
X110000420Y-124048360D02*
X110000420Y-123649580D01*
X110899580Y-123649580D02*
X110000420Y-123649580D01*
X110899580Y-124048360D02*
X110899580Y-123649580D01*
X110899580Y-123200000D02*
X110749720Y-123200000D01*
X110749720Y-123200000D02*
X110749720Y-122900280D01*
X110899580Y-122900280D02*
X110749720Y-122900280D01*
X110899580Y-123200000D02*
X110899580Y-122900280D01*
X110150280Y-123200000D02*
X110000420Y-123200000D01*
X110000420Y-123200000D02*
X110000420Y-122900280D01*
X110150280Y-122900280D02*
X110000420Y-122900280D01*
X110150280Y-123200000D02*
X110150280Y-122900280D01*
X110599860Y-123200000D02*
X110300140Y-123200000D01*
X110300140Y-123200000D02*
X110300140Y-122900280D01*
X110599860Y-122900280D02*
X110300140Y-122900280D01*
X110599860Y-123200000D02*
X110599860Y-122900280D01*
D19*
X110848780Y-122750420D02*
X110848780Y-123649580D01*
X110051220Y-122750420D02*
X110051220Y-123649580D01*
D18*
X109499580Y-122750420D02*
X108600420Y-122750420D01*
X108600420Y-122750420D02*
X108600420Y-122351640D01*
X109499580Y-122351640D02*
X108600420Y-122351640D01*
X109499580Y-122750420D02*
X109499580Y-122351640D01*
X109499580Y-124048360D02*
X108600420Y-124048360D01*
X108600420Y-124048360D02*
X108600420Y-123649580D01*
X109499580Y-123649580D02*
X108600420Y-123649580D01*
X109499580Y-124048360D02*
X109499580Y-123649580D01*
X109499580Y-123200000D02*
X109349720Y-123200000D01*
X109349720Y-123200000D02*
X109349720Y-122900280D01*
X109499580Y-122900280D02*
X109349720Y-122900280D01*
X109499580Y-123200000D02*
X109499580Y-122900280D01*
X108750280Y-123200000D02*
X108600420Y-123200000D01*
X108600420Y-123200000D02*
X108600420Y-122900280D01*
X108750280Y-122900280D02*
X108600420Y-122900280D01*
X108750280Y-123200000D02*
X108750280Y-122900280D01*
X109199860Y-123200000D02*
X108900140Y-123200000D01*
X108900140Y-123200000D02*
X108900140Y-122900280D01*
X109199860Y-122900280D02*
X108900140Y-122900280D01*
X109199860Y-123200000D02*
X109199860Y-122900280D01*
D19*
X109448780Y-122750420D02*
X109448780Y-123649580D01*
X108651220Y-122750420D02*
X108651220Y-123649580D01*
D20*
X87195660Y-113680240D02*
X87195660Y-112379760D01*
X87195660Y-113030000D02*
X86794340Y-112781080D01*
X87195660Y-113030000D02*
X86794340Y-113329720D01*
X88795860Y-111279940D02*
X88795860Y-111630460D01*
X88795860Y-114780060D02*
X88795860Y-114429540D01*
X89245440Y-111279940D02*
X89245440Y-111630460D01*
X84744560Y-111279940D02*
X84744560Y-111630460D01*
X84744560Y-114780060D02*
X84744560Y-114429540D01*
X89245440Y-114780060D02*
X89245440Y-114429540D01*
X84744560Y-111279940D02*
X89245440Y-111279940D01*
X84744560Y-114780060D02*
X89245440Y-114780060D01*
D10*
X79361000Y-110877000D02*
X83961000Y-110877000D01*
X83961000Y-110877000D02*
X83961000Y-105277000D01*
X83961000Y-105277000D02*
X79361000Y-105277000D01*
X79361000Y-105277000D02*
X79361000Y-110877000D01*
X95236000Y-108464000D02*
X99836000Y-108464000D01*
X99836000Y-108464000D02*
X99836000Y-102864000D01*
X99836000Y-102864000D02*
X95236000Y-102864000D01*
X95236000Y-102864000D02*
X95236000Y-108464000D01*
D20*
X105544620Y-95183960D02*
X115943380Y-95183960D01*
X115943380Y-95183960D02*
X115943380Y-87386160D01*
X115943380Y-87386160D02*
X113543080Y-86085680D01*
X113543080Y-86085680D02*
X107944920Y-86085680D01*
X107944920Y-86085680D02*
X105544620Y-87386160D01*
X105544620Y-87386160D02*
X105544620Y-95183960D01*
X92717620Y-95183960D02*
X103116380Y-95183960D01*
X103116380Y-95183960D02*
X103116380Y-87386160D01*
X103116380Y-87386160D02*
X100716080Y-86085680D01*
X100716080Y-86085680D02*
X95117920Y-86085680D01*
X95117920Y-86085680D02*
X92717620Y-87386160D01*
X92717620Y-87386160D02*
X92717620Y-95183960D01*
X79636620Y-95183960D02*
X90035380Y-95183960D01*
X90035380Y-95183960D02*
X90035380Y-87386160D01*
X90035380Y-87386160D02*
X87635080Y-86085680D01*
X87635080Y-86085680D02*
X82036920Y-86085680D01*
X82036920Y-86085680D02*
X79636620Y-87386160D01*
X79636620Y-87386160D02*
X79636620Y-95183960D01*
D12*
X84501500Y-125599620D02*
X84501500Y-124893500D01*
X84501500Y-124893500D02*
X85898500Y-124893500D01*
X85898500Y-124893500D02*
X85898500Y-125599620D01*
X84501500Y-127306500D02*
X84501500Y-126600380D01*
X84501500Y-127306500D02*
X85898500Y-127306500D01*
X85898500Y-127306500D02*
X85898500Y-126600380D01*
X85898500Y-129500380D02*
X85898500Y-130206500D01*
X85898500Y-130206500D02*
X84501500Y-130206500D01*
X84501500Y-130206500D02*
X84501500Y-129500380D01*
X85898500Y-127793500D02*
X85898500Y-128499620D01*
X85898500Y-127793500D02*
X84501500Y-127793500D01*
X84501500Y-127793500D02*
X84501500Y-128499620D01*
X105727500Y-131833620D02*
X105727500Y-131127500D01*
X105727500Y-131127500D02*
X107124500Y-131127500D01*
X107124500Y-131127500D02*
X107124500Y-131833620D01*
X105727500Y-133540500D02*
X105727500Y-132834380D01*
X105727500Y-133540500D02*
X107124500Y-133540500D01*
X107124500Y-133540500D02*
X107124500Y-132834380D01*
X80750380Y-128601500D02*
X81456500Y-128601500D01*
X81456500Y-128601500D02*
X81456500Y-129998500D01*
X81456500Y-129998500D02*
X80750380Y-129998500D01*
X79043500Y-128601500D02*
X79749620Y-128601500D01*
X79043500Y-128601500D02*
X79043500Y-129998500D01*
X79043500Y-129998500D02*
X79749620Y-129998500D01*
X84010500Y-134866380D02*
X84010500Y-135572500D01*
X84010500Y-135572500D02*
X82613500Y-135572500D01*
X82613500Y-135572500D02*
X82613500Y-134866380D01*
X84010500Y-133159500D02*
X84010500Y-133865620D01*
X84010500Y-133159500D02*
X82613500Y-133159500D01*
X82613500Y-133159500D02*
X82613500Y-133865620D01*
X87058500Y-134866380D02*
X87058500Y-135572500D01*
X87058500Y-135572500D02*
X85661500Y-135572500D01*
X85661500Y-135572500D02*
X85661500Y-134866380D01*
X87058500Y-133159500D02*
X87058500Y-133865620D01*
X87058500Y-133159500D02*
X85661500Y-133159500D01*
X85661500Y-133159500D02*
X85661500Y-133865620D01*
X90106500Y-134866380D02*
X90106500Y-135572500D01*
X90106500Y-135572500D02*
X88709500Y-135572500D01*
X88709500Y-135572500D02*
X88709500Y-134866380D01*
X90106500Y-133159500D02*
X90106500Y-133865620D01*
X90106500Y-133159500D02*
X88709500Y-133159500D01*
X88709500Y-133159500D02*
X88709500Y-133865620D01*
X93154500Y-134866380D02*
X93154500Y-135572500D01*
X93154500Y-135572500D02*
X91757500Y-135572500D01*
X91757500Y-135572500D02*
X91757500Y-134866380D01*
X93154500Y-133159500D02*
X93154500Y-133865620D01*
X93154500Y-133159500D02*
X91757500Y-133159500D01*
X91757500Y-133159500D02*
X91757500Y-133865620D01*
X91630500Y-134866380D02*
X91630500Y-135572500D01*
X91630500Y-135572500D02*
X90233500Y-135572500D01*
X90233500Y-135572500D02*
X90233500Y-134866380D01*
X91630500Y-133159500D02*
X91630500Y-133865620D01*
X91630500Y-133159500D02*
X90233500Y-133159500D01*
X90233500Y-133159500D02*
X90233500Y-133865620D01*
X88582500Y-134866380D02*
X88582500Y-135572500D01*
X88582500Y-135572500D02*
X87185500Y-135572500D01*
X87185500Y-135572500D02*
X87185500Y-134866380D01*
X88582500Y-133159500D02*
X88582500Y-133865620D01*
X88582500Y-133159500D02*
X87185500Y-133159500D01*
X87185500Y-133159500D02*
X87185500Y-133865620D01*
X85534500Y-134866380D02*
X85534500Y-135572500D01*
X85534500Y-135572500D02*
X84137500Y-135572500D01*
X84137500Y-135572500D02*
X84137500Y-134866380D01*
X85534500Y-133159500D02*
X85534500Y-133865620D01*
X85534500Y-133159500D02*
X84137500Y-133159500D01*
X84137500Y-133159500D02*
X84137500Y-133865620D01*
X104005380Y-122364500D02*
X104711500Y-122364500D01*
X104711500Y-122364500D02*
X104711500Y-123761500D01*
X104711500Y-123761500D02*
X104005380Y-123761500D01*
X102298500Y-122364500D02*
X103004620Y-122364500D01*
X102298500Y-122364500D02*
X102298500Y-123761500D01*
X102298500Y-123761500D02*
X103004620Y-123761500D01*
X98417380Y-120078500D02*
X99123500Y-120078500D01*
X99123500Y-120078500D02*
X99123500Y-121475500D01*
X99123500Y-121475500D02*
X98417380Y-121475500D01*
X96710500Y-120078500D02*
X97416620Y-120078500D01*
X96710500Y-120078500D02*
X96710500Y-121475500D01*
X96710500Y-121475500D02*
X97416620Y-121475500D01*
X93733620Y-122364500D02*
X93027500Y-122364500D01*
X93027500Y-122364500D02*
X93027500Y-120967500D01*
X93027500Y-120967500D02*
X93733620Y-120967500D01*
X95440500Y-122364500D02*
X94734380Y-122364500D01*
X95440500Y-122364500D02*
X95440500Y-120967500D01*
X95440500Y-120967500D02*
X94734380Y-120967500D01*
X108401500Y-125499620D02*
X108401500Y-124793500D01*
X108401500Y-124793500D02*
X109798500Y-124793500D01*
X109798500Y-124793500D02*
X109798500Y-125499620D01*
X108401500Y-127206500D02*
X108401500Y-126500380D01*
X108401500Y-127206500D02*
X109798500Y-127206500D01*
X109798500Y-127206500D02*
X109798500Y-126500380D01*
X87764620Y-129222500D02*
X87058500Y-129222500D01*
X87058500Y-129222500D02*
X87058500Y-127825500D01*
X87058500Y-127825500D02*
X87764620Y-127825500D01*
X89471500Y-129222500D02*
X88765380Y-129222500D01*
X89471500Y-129222500D02*
X89471500Y-127825500D01*
X89471500Y-127825500D02*
X88765380Y-127825500D01*
X93200380Y-127351500D02*
X93906500Y-127351500D01*
X93906500Y-127351500D02*
X93906500Y-128748500D01*
X93906500Y-128748500D02*
X93200380Y-128748500D01*
X91493500Y-127351500D02*
X92199620Y-127351500D01*
X91493500Y-127351500D02*
X91493500Y-128748500D01*
X91493500Y-128748500D02*
X92199620Y-128748500D01*
X87764620Y-127698500D02*
X87058500Y-127698500D01*
X87058500Y-127698500D02*
X87058500Y-126301500D01*
X87058500Y-126301500D02*
X87764620Y-126301500D01*
X89471500Y-127698500D02*
X88765380Y-127698500D01*
X89471500Y-127698500D02*
X89471500Y-126301500D01*
X89471500Y-126301500D02*
X88765380Y-126301500D01*
X93200380Y-125851500D02*
X93906500Y-125851500D01*
X93906500Y-125851500D02*
X93906500Y-127248500D01*
X93906500Y-127248500D02*
X93200380Y-127248500D01*
X91493500Y-125851500D02*
X92199620Y-125851500D01*
X91493500Y-125851500D02*
X91493500Y-127248500D01*
X91493500Y-127248500D02*
X92199620Y-127248500D01*
X114546380Y-102425500D02*
X115252500Y-102425500D01*
X115252500Y-102425500D02*
X115252500Y-103822500D01*
X115252500Y-103822500D02*
X114546380Y-103822500D01*
X112839500Y-102425500D02*
X113545620Y-102425500D01*
X112839500Y-102425500D02*
X112839500Y-103822500D01*
X112839500Y-103822500D02*
X113545620Y-103822500D01*
X105092500Y-96639380D02*
X105092500Y-97345500D01*
X105092500Y-97345500D02*
X103695500Y-97345500D01*
X103695500Y-97345500D02*
X103695500Y-96639380D01*
X105092500Y-94932500D02*
X105092500Y-95638620D01*
X105092500Y-94932500D02*
X103695500Y-94932500D01*
X103695500Y-94932500D02*
X103695500Y-95638620D01*
X87749620Y-126148500D02*
X87043500Y-126148500D01*
X87043500Y-126148500D02*
X87043500Y-124751500D01*
X87043500Y-124751500D02*
X87749620Y-124751500D01*
X89456500Y-126148500D02*
X88750380Y-126148500D01*
X89456500Y-126148500D02*
X89456500Y-124751500D01*
X89456500Y-124751500D02*
X88750380Y-124751500D01*
X93200380Y-124351500D02*
X93906500Y-124351500D01*
X93906500Y-124351500D02*
X93906500Y-125748500D01*
X93906500Y-125748500D02*
X93200380Y-125748500D01*
X91493500Y-124351500D02*
X92199620Y-124351500D01*
X91493500Y-124351500D02*
X91493500Y-125748500D01*
X91493500Y-125748500D02*
X92199620Y-125748500D01*
X103695500Y-100845620D02*
X103695500Y-100139500D01*
X103695500Y-100139500D02*
X105092500Y-100139500D01*
X105092500Y-100139500D02*
X105092500Y-100845620D01*
X103695500Y-102552500D02*
X103695500Y-101846380D01*
X103695500Y-102552500D02*
X105092500Y-102552500D01*
X105092500Y-102552500D02*
X105092500Y-101846380D01*
X103695500Y-98305620D02*
X103695500Y-97599500D01*
X103695500Y-97599500D02*
X105092500Y-97599500D01*
X105092500Y-97599500D02*
X105092500Y-98305620D01*
X103695500Y-100012500D02*
X103695500Y-99306380D01*
X103695500Y-100012500D02*
X105092500Y-100012500D01*
X105092500Y-100012500D02*
X105092500Y-99306380D01*
X111401500Y-125499620D02*
X111401500Y-124793500D01*
X111401500Y-124793500D02*
X112798500Y-124793500D01*
X112798500Y-124793500D02*
X112798500Y-125499620D01*
X111401500Y-127206500D02*
X111401500Y-126500380D01*
X111401500Y-127206500D02*
X112798500Y-127206500D01*
X112798500Y-127206500D02*
X112798500Y-126500380D01*
X109901500Y-125499620D02*
X109901500Y-124793500D01*
X109901500Y-124793500D02*
X111298500Y-124793500D01*
X111298500Y-124793500D02*
X111298500Y-125499620D01*
X109901500Y-127206500D02*
X109901500Y-126500380D01*
X109901500Y-127206500D02*
X111298500Y-127206500D01*
X111298500Y-127206500D02*
X111298500Y-126500380D01*
X90487500Y-100337620D02*
X90487500Y-99631500D01*
X90487500Y-99631500D02*
X91884500Y-99631500D01*
X91884500Y-99631500D02*
X91884500Y-100337620D01*
X90487500Y-102044500D02*
X90487500Y-101338380D01*
X90487500Y-102044500D02*
X91884500Y-102044500D01*
X91884500Y-102044500D02*
X91884500Y-101338380D01*
X90487500Y-97543620D02*
X90487500Y-96837500D01*
X90487500Y-96837500D02*
X91884500Y-96837500D01*
X91884500Y-96837500D02*
X91884500Y-97543620D01*
X90487500Y-99250500D02*
X90487500Y-98544380D01*
X90487500Y-99250500D02*
X91884500Y-99250500D01*
X91884500Y-99250500D02*
X91884500Y-98544380D01*
D20*
X101473000Y-110109000D02*
X101473000Y-103505000D01*
X101473000Y-103505000D02*
X108331000Y-103505000D01*
X108331000Y-103505000D02*
X108331000Y-110109000D01*
X108331000Y-110109000D02*
X101473000Y-110109000D01*
X86741000Y-109855000D02*
X86741000Y-103251000D01*
X86741000Y-103251000D02*
X93599000Y-103251000D01*
X93599000Y-103251000D02*
X93599000Y-109855000D01*
X93599000Y-109855000D02*
X86741000Y-109855000D01*
D12*
X84748500Y-132300380D02*
X84748500Y-133006500D01*
X84748500Y-133006500D02*
X83351500Y-133006500D01*
X83351500Y-133006500D02*
X83351500Y-132300380D01*
X84748500Y-130593500D02*
X84748500Y-131299620D01*
X84748500Y-130593500D02*
X83351500Y-130593500D01*
X83351500Y-130593500D02*
X83351500Y-131299620D01*
D16*
X110732328Y-131353862D02*
X110732328Y-130853482D01*
X110613190Y-130853482D01*
X110541707Y-130877310D01*
X110494052Y-130924965D01*
X110470224Y-130972620D01*
X110446396Y-131067931D01*
X110446396Y-131139414D01*
X110470224Y-131234724D01*
X110494052Y-131282380D01*
X110541707Y-131330035D01*
X110613190Y-131353862D01*
X110732328Y-131353862D01*
X109993672Y-130853482D02*
X110231948Y-130853482D01*
X110255776Y-131091759D01*
X110231948Y-131067931D01*
X110184293Y-131044103D01*
X110065155Y-131044103D01*
X110017499Y-131067931D01*
X109993672Y-131091759D01*
X109969844Y-131139414D01*
X109969844Y-131258552D01*
X109993672Y-131306207D01*
X110017499Y-131330035D01*
X110065155Y-131353862D01*
X110184293Y-131353862D01*
X110231948Y-131330035D01*
X110255776Y-131306207D01*
D21*
X101516857Y-135732714D02*
X101008857Y-136494714D01*
X101008857Y-135732714D02*
X101516857Y-136494714D01*
X100754857Y-135805286D02*
X100718571Y-135769000D01*
X100646000Y-135732714D01*
X100464571Y-135732714D01*
X100392000Y-135769000D01*
X100355714Y-135805286D01*
X100319429Y-135877857D01*
X100319429Y-135950429D01*
X100355714Y-136059286D01*
X100791143Y-136494714D01*
X100319429Y-136494714D01*
D14*
X89974095Y-121943619D02*
X89974095Y-122766095D01*
X89925714Y-122862857D01*
X89877333Y-122911238D01*
X89780571Y-122959619D01*
X89587048Y-122959619D01*
X89490286Y-122911238D01*
X89441905Y-122862857D01*
X89393524Y-122766095D01*
X89393524Y-121943619D01*
X88958095Y-122040381D02*
X88909714Y-121992000D01*
X88812952Y-121943619D01*
X88571048Y-121943619D01*
X88474286Y-121992000D01*
X88425905Y-122040381D01*
X88377524Y-122137143D01*
X88377524Y-122233905D01*
X88425905Y-122379048D01*
X89006476Y-122959619D01*
X88377524Y-122959619D01*
D12*
X103830857Y-111919143D02*
X103867143Y-111955429D01*
X103976000Y-111991714D01*
X104048571Y-111991714D01*
X104157428Y-111955429D01*
X104230000Y-111882857D01*
X104266285Y-111810286D01*
X104302571Y-111665143D01*
X104302571Y-111556286D01*
X104266285Y-111411143D01*
X104230000Y-111338571D01*
X104157428Y-111266000D01*
X104048571Y-111229714D01*
X103976000Y-111229714D01*
X103867143Y-111266000D01*
X103830857Y-111302286D01*
X103177714Y-111483714D02*
X103177714Y-111991714D01*
X103359143Y-111193429D02*
X103540571Y-111737714D01*
X103068857Y-111737714D01*
X102633429Y-111229714D02*
X102560857Y-111229714D01*
X102488286Y-111266000D01*
X102452000Y-111302286D01*
X102415714Y-111374857D01*
X102379429Y-111520000D01*
X102379429Y-111701429D01*
X102415714Y-111846571D01*
X102452000Y-111919143D01*
X102488286Y-111955429D01*
X102560857Y-111991714D01*
X102633429Y-111991714D01*
X102706000Y-111955429D01*
X102742286Y-111919143D01*
X102778571Y-111846571D01*
X102814857Y-111701429D01*
X102814857Y-111520000D01*
X102778571Y-111374857D01*
X102742286Y-111302286D01*
X102706000Y-111266000D01*
X102633429Y-111229714D01*
X112367143Y-113321000D02*
X112403429Y-113284714D01*
X112439714Y-113175857D01*
X112439714Y-113103286D01*
X112403429Y-112994429D01*
X112330857Y-112921857D01*
X112258286Y-112885572D01*
X112113143Y-112849286D01*
X112004286Y-112849286D01*
X111859143Y-112885572D01*
X111786571Y-112921857D01*
X111714000Y-112994429D01*
X111677714Y-113103286D01*
X111677714Y-113175857D01*
X111714000Y-113284714D01*
X111750286Y-113321000D01*
X112004286Y-113756429D02*
X111968000Y-113683857D01*
X111931714Y-113647572D01*
X111859143Y-113611286D01*
X111822857Y-113611286D01*
X111750286Y-113647572D01*
X111714000Y-113683857D01*
X111677714Y-113756429D01*
X111677714Y-113901572D01*
X111714000Y-113974143D01*
X111750286Y-114010429D01*
X111822857Y-114046714D01*
X111859143Y-114046714D01*
X111931714Y-114010429D01*
X111968000Y-113974143D01*
X112004286Y-113901572D01*
X112004286Y-113756429D01*
X112040571Y-113683857D01*
X112076857Y-113647572D01*
X112149429Y-113611286D01*
X112294571Y-113611286D01*
X112367143Y-113647572D01*
X112403429Y-113683857D01*
X112439714Y-113756429D01*
X112439714Y-113901572D01*
X112403429Y-113974143D01*
X112367143Y-114010429D01*
X112294571Y-114046714D01*
X112149429Y-114046714D01*
X112076857Y-114010429D01*
X112040571Y-113974143D01*
X112004286Y-113901572D01*
X104394000Y-114699143D02*
X104430286Y-114735429D01*
X104539143Y-114771714D01*
X104611714Y-114771714D01*
X104720571Y-114735429D01*
X104793143Y-114662857D01*
X104829428Y-114590286D01*
X104865714Y-114445143D01*
X104865714Y-114336286D01*
X104829428Y-114191143D01*
X104793143Y-114118571D01*
X104720571Y-114046000D01*
X104611714Y-114009714D01*
X104539143Y-114009714D01*
X104430286Y-114046000D01*
X104394000Y-114082286D01*
X104031143Y-114771714D02*
X103886000Y-114771714D01*
X103813428Y-114735429D01*
X103777143Y-114699143D01*
X103704571Y-114590286D01*
X103668286Y-114445143D01*
X103668286Y-114154857D01*
X103704571Y-114082286D01*
X103740857Y-114046000D01*
X103813428Y-114009714D01*
X103958571Y-114009714D01*
X104031143Y-114046000D01*
X104067428Y-114082286D01*
X104103714Y-114154857D01*
X104103714Y-114336286D01*
X104067428Y-114408857D01*
X104031143Y-114445143D01*
X103958571Y-114481429D01*
X103813428Y-114481429D01*
X103740857Y-114445143D01*
X103704571Y-114408857D01*
X103668286Y-114336286D01*
D22*
X82223429Y-127558800D02*
X82247619Y-127537029D01*
X82271810Y-127471715D01*
X82271810Y-127428172D01*
X82247619Y-127362857D01*
X82199238Y-127319315D01*
X82150857Y-127297543D01*
X82054095Y-127275772D01*
X81981524Y-127275772D01*
X81884762Y-127297543D01*
X81836381Y-127319315D01*
X81788000Y-127362857D01*
X81763810Y-127428172D01*
X81763810Y-127471715D01*
X81788000Y-127537029D01*
X81812190Y-127558800D01*
X81812190Y-127732972D02*
X81788000Y-127754743D01*
X81763810Y-127798286D01*
X81763810Y-127907143D01*
X81788000Y-127950686D01*
X81812190Y-127972457D01*
X81860571Y-127994229D01*
X81908952Y-127994229D01*
X81981524Y-127972457D01*
X82271810Y-127711200D01*
X82271810Y-127994229D01*
X112958171Y-130376408D02*
X112990671Y-130378119D01*
X113053960Y-130349040D01*
X113084750Y-130318251D01*
X113113829Y-130254960D01*
X113110407Y-130189961D01*
X113091592Y-130140355D01*
X113038565Y-130056540D01*
X112987250Y-130005224D01*
X112903434Y-129952198D01*
X112853828Y-129933382D01*
X112788829Y-129929961D01*
X112725539Y-129959040D01*
X112694750Y-129989830D01*
X112665671Y-130053119D01*
X112667381Y-130085618D01*
X112525408Y-130159172D02*
X112325277Y-130359303D01*
X112569881Y-130388382D01*
X112523697Y-130434566D01*
X112510013Y-130482461D01*
X112511724Y-130514960D01*
X112530539Y-130564566D01*
X112616066Y-130650092D01*
X112665672Y-130668908D01*
X112698171Y-130670618D01*
X112746066Y-130656934D01*
X112838434Y-130564566D01*
X112852118Y-130516671D01*
X112850408Y-130484171D01*
X81876200Y-136181429D02*
X81897971Y-136205619D01*
X81963285Y-136229810D01*
X82006828Y-136229810D01*
X82072143Y-136205619D01*
X82115685Y-136157238D01*
X82137457Y-136108857D01*
X82159228Y-136012095D01*
X82159228Y-135939524D01*
X82137457Y-135842762D01*
X82115685Y-135794381D01*
X82072143Y-135746000D01*
X82006828Y-135721810D01*
X81963285Y-135721810D01*
X81897971Y-135746000D01*
X81876200Y-135770190D01*
X81484314Y-135891143D02*
X81484314Y-136229810D01*
X81593171Y-135697619D02*
X81702028Y-136060476D01*
X81419000Y-136060476D01*
X93781429Y-131723800D02*
X93805619Y-131702029D01*
X93829810Y-131636715D01*
X93829810Y-131593172D01*
X93805619Y-131527857D01*
X93757238Y-131484315D01*
X93708857Y-131462543D01*
X93612095Y-131440772D01*
X93539524Y-131440772D01*
X93442762Y-131462543D01*
X93394381Y-131484315D01*
X93346000Y-131527857D01*
X93321810Y-131593172D01*
X93321810Y-131636715D01*
X93346000Y-131702029D01*
X93370190Y-131723800D01*
X93321810Y-132137457D02*
X93321810Y-131919743D01*
X93563714Y-131897972D01*
X93539524Y-131919743D01*
X93515333Y-131963286D01*
X93515333Y-132072143D01*
X93539524Y-132115686D01*
X93563714Y-132137457D01*
X93612095Y-132159229D01*
X93733048Y-132159229D01*
X93781429Y-132137457D01*
X93805619Y-132115686D01*
X93829810Y-132072143D01*
X93829810Y-131963286D01*
X93805619Y-131919743D01*
X93781429Y-131897972D01*
X90976200Y-130481429D02*
X90997971Y-130505619D01*
X91063285Y-130529810D01*
X91106828Y-130529810D01*
X91172143Y-130505619D01*
X91215685Y-130457238D01*
X91237457Y-130408857D01*
X91259228Y-130312095D01*
X91259228Y-130239524D01*
X91237457Y-130142762D01*
X91215685Y-130094381D01*
X91172143Y-130046000D01*
X91106828Y-130021810D01*
X91063285Y-130021810D01*
X90997971Y-130046000D01*
X90976200Y-130070190D01*
X90584314Y-130021810D02*
X90671400Y-130021810D01*
X90714943Y-130046000D01*
X90736714Y-130070190D01*
X90780257Y-130142762D01*
X90802028Y-130239524D01*
X90802028Y-130433048D01*
X90780257Y-130481429D01*
X90758485Y-130505619D01*
X90714943Y-130529810D01*
X90627857Y-130529810D01*
X90584314Y-130505619D01*
X90562543Y-130481429D01*
X90540771Y-130433048D01*
X90540771Y-130312095D01*
X90562543Y-130263714D01*
X90584314Y-130239524D01*
X90627857Y-130215333D01*
X90714943Y-130215333D01*
X90758485Y-130239524D01*
X90780257Y-130263714D01*
X90802028Y-130312095D01*
X87681429Y-131723800D02*
X87705619Y-131702029D01*
X87729810Y-131636715D01*
X87729810Y-131593172D01*
X87705619Y-131527857D01*
X87657238Y-131484315D01*
X87608857Y-131462543D01*
X87512095Y-131440772D01*
X87439524Y-131440772D01*
X87342762Y-131462543D01*
X87294381Y-131484315D01*
X87246000Y-131527857D01*
X87221810Y-131593172D01*
X87221810Y-131636715D01*
X87246000Y-131702029D01*
X87270190Y-131723800D01*
X87221810Y-131876200D02*
X87221810Y-132181000D01*
X87729810Y-131985057D01*
X96178915Y-123371429D02*
X96200686Y-123395619D01*
X96266000Y-123419810D01*
X96309543Y-123419810D01*
X96374858Y-123395619D01*
X96418400Y-123347238D01*
X96440172Y-123298857D01*
X96461943Y-123202095D01*
X96461943Y-123129524D01*
X96440172Y-123032762D01*
X96418400Y-122984381D01*
X96374858Y-122936000D01*
X96309543Y-122911810D01*
X96266000Y-122911810D01*
X96200686Y-122936000D01*
X96178915Y-122960190D01*
X95743486Y-123419810D02*
X96004743Y-123419810D01*
X95874115Y-123419810D02*
X95874115Y-122911810D01*
X95917658Y-122984381D01*
X95961200Y-123032762D01*
X96004743Y-123056952D01*
X95351600Y-123081143D02*
X95351600Y-123419810D01*
X95460457Y-122887619D02*
X95569314Y-123250476D01*
X95286286Y-123250476D01*
X98083915Y-129848429D02*
X98105686Y-129872619D01*
X98171000Y-129896810D01*
X98214543Y-129896810D01*
X98279858Y-129872619D01*
X98323400Y-129824238D01*
X98345172Y-129775857D01*
X98366943Y-129679095D01*
X98366943Y-129606524D01*
X98345172Y-129509762D01*
X98323400Y-129461381D01*
X98279858Y-129413000D01*
X98214543Y-129388810D01*
X98171000Y-129388810D01*
X98105686Y-129413000D01*
X98083915Y-129437190D01*
X97648486Y-129896810D02*
X97909743Y-129896810D01*
X97779115Y-129896810D02*
X97779115Y-129388810D01*
X97822658Y-129461381D01*
X97866200Y-129509762D01*
X97909743Y-129533952D01*
X97234829Y-129388810D02*
X97452543Y-129388810D01*
X97474314Y-129630714D01*
X97452543Y-129606524D01*
X97409000Y-129582333D01*
X97300143Y-129582333D01*
X97256600Y-129606524D01*
X97234829Y-129630714D01*
X97213057Y-129679095D01*
X97213057Y-129800048D01*
X97234829Y-129848429D01*
X97256600Y-129872619D01*
X97300143Y-129896810D01*
X97409000Y-129896810D01*
X97452543Y-129872619D01*
X97474314Y-129848429D01*
X107893915Y-127781429D02*
X107915686Y-127805619D01*
X107981000Y-127829810D01*
X108024543Y-127829810D01*
X108089858Y-127805619D01*
X108133400Y-127757238D01*
X108155172Y-127708857D01*
X108176943Y-127612095D01*
X108176943Y-127539524D01*
X108155172Y-127442762D01*
X108133400Y-127394381D01*
X108089858Y-127346000D01*
X108024543Y-127321810D01*
X107981000Y-127321810D01*
X107915686Y-127346000D01*
X107893915Y-127370190D01*
X107458486Y-127829810D02*
X107719743Y-127829810D01*
X107589115Y-127829810D02*
X107589115Y-127321810D01*
X107632658Y-127394381D01*
X107676200Y-127442762D01*
X107719743Y-127466952D01*
X107066600Y-127321810D02*
X107153686Y-127321810D01*
X107197229Y-127346000D01*
X107219000Y-127370190D01*
X107262543Y-127442762D01*
X107284314Y-127539524D01*
X107284314Y-127733048D01*
X107262543Y-127781429D01*
X107240771Y-127805619D01*
X107197229Y-127829810D01*
X107110143Y-127829810D01*
X107066600Y-127805619D01*
X107044829Y-127781429D01*
X107023057Y-127733048D01*
X107023057Y-127612095D01*
X107044829Y-127563714D01*
X107066600Y-127539524D01*
X107110143Y-127515333D01*
X107197229Y-127515333D01*
X107240771Y-127539524D01*
X107262543Y-127563714D01*
X107284314Y-127612095D01*
X98981429Y-124606085D02*
X99005619Y-124584314D01*
X99029810Y-124519000D01*
X99029810Y-124475457D01*
X99005619Y-124410142D01*
X98957238Y-124366600D01*
X98908857Y-124344828D01*
X98812095Y-124323057D01*
X98739524Y-124323057D01*
X98642762Y-124344828D01*
X98594381Y-124366600D01*
X98546000Y-124410142D01*
X98521810Y-124475457D01*
X98521810Y-124519000D01*
X98546000Y-124584314D01*
X98570190Y-124606085D01*
X99029810Y-125041514D02*
X99029810Y-124780257D01*
X99029810Y-124910885D02*
X98521810Y-124910885D01*
X98594381Y-124867342D01*
X98642762Y-124823800D01*
X98666952Y-124780257D01*
X98521810Y-125193914D02*
X98521810Y-125498714D01*
X99029810Y-125302771D01*
D23*
X101321672Y-119278707D02*
X101345500Y-119302535D01*
X101416983Y-119326362D01*
X101464638Y-119326362D01*
X101536121Y-119302535D01*
X101583776Y-119254880D01*
X101607604Y-119207224D01*
X101631432Y-119111914D01*
X101631432Y-119040431D01*
X101607604Y-118945120D01*
X101583776Y-118897465D01*
X101536121Y-118849810D01*
X101464638Y-118825982D01*
X101416983Y-118825982D01*
X101345500Y-118849810D01*
X101321672Y-118873638D01*
X100845120Y-119326362D02*
X101131052Y-119326362D01*
X100988086Y-119326362D02*
X100988086Y-118825982D01*
X101035741Y-118897465D01*
X101083396Y-118945120D01*
X101131052Y-118968948D01*
X100559189Y-119040431D02*
X100606844Y-119016603D01*
X100630672Y-118992776D01*
X100654500Y-118945120D01*
X100654500Y-118921293D01*
X100630672Y-118873638D01*
X100606844Y-118849810D01*
X100559189Y-118825982D01*
X100463879Y-118825982D01*
X100416223Y-118849810D01*
X100392396Y-118873638D01*
X100368568Y-118921293D01*
X100368568Y-118945120D01*
X100392396Y-118992776D01*
X100416223Y-119016603D01*
X100463879Y-119040431D01*
X100559189Y-119040431D01*
X100606844Y-119064259D01*
X100630672Y-119088086D01*
X100654500Y-119135741D01*
X100654500Y-119231052D01*
X100630672Y-119278707D01*
X100606844Y-119302535D01*
X100559189Y-119326362D01*
X100463879Y-119326362D01*
X100416223Y-119302535D01*
X100392396Y-119278707D01*
X100368568Y-119231052D01*
X100368568Y-119135741D01*
X100392396Y-119088086D01*
X100416223Y-119064259D01*
X100463879Y-119040431D01*
D22*
X106193915Y-124481429D02*
X106215686Y-124505619D01*
X106281000Y-124529810D01*
X106324543Y-124529810D01*
X106389858Y-124505619D01*
X106433400Y-124457238D01*
X106455172Y-124408857D01*
X106476943Y-124312095D01*
X106476943Y-124239524D01*
X106455172Y-124142762D01*
X106433400Y-124094381D01*
X106389858Y-124046000D01*
X106324543Y-124021810D01*
X106281000Y-124021810D01*
X106215686Y-124046000D01*
X106193915Y-124070190D01*
X106019743Y-124070190D02*
X105997972Y-124046000D01*
X105954429Y-124021810D01*
X105845572Y-124021810D01*
X105802029Y-124046000D01*
X105780258Y-124070190D01*
X105758486Y-124118571D01*
X105758486Y-124166952D01*
X105780258Y-124239524D01*
X106041515Y-124529810D01*
X105758486Y-124529810D01*
X105475457Y-124021810D02*
X105431914Y-124021810D01*
X105388371Y-124046000D01*
X105366600Y-124070190D01*
X105344829Y-124118571D01*
X105323057Y-124215333D01*
X105323057Y-124336286D01*
X105344829Y-124433048D01*
X105366600Y-124481429D01*
X105388371Y-124505619D01*
X105431914Y-124529810D01*
X105475457Y-124529810D01*
X105519000Y-124505619D01*
X105540771Y-124481429D01*
X105562543Y-124433048D01*
X105584314Y-124336286D01*
X105584314Y-124215333D01*
X105562543Y-124118571D01*
X105540771Y-124070190D01*
X105519000Y-124046000D01*
X105475457Y-124021810D01*
X86381429Y-122606085D02*
X86405619Y-122584314D01*
X86429810Y-122519000D01*
X86429810Y-122475457D01*
X86405619Y-122410142D01*
X86357238Y-122366600D01*
X86308857Y-122344828D01*
X86212095Y-122323057D01*
X86139524Y-122323057D01*
X86042762Y-122344828D01*
X85994381Y-122366600D01*
X85946000Y-122410142D01*
X85921810Y-122475457D01*
X85921810Y-122519000D01*
X85946000Y-122584314D01*
X85970190Y-122606085D01*
X85970190Y-122780257D02*
X85946000Y-122802028D01*
X85921810Y-122845571D01*
X85921810Y-122954428D01*
X85946000Y-122997971D01*
X85970190Y-123019742D01*
X86018571Y-123041514D01*
X86066952Y-123041514D01*
X86139524Y-123019742D01*
X86429810Y-122758485D01*
X86429810Y-123041514D01*
X86091143Y-123433400D02*
X86429810Y-123433400D01*
X85897619Y-123324543D02*
X86260476Y-123215686D01*
X86260476Y-123498714D01*
D16*
X82982707Y-123249328D02*
X83006535Y-123225500D01*
X83030362Y-123154017D01*
X83030362Y-123106362D01*
X83006535Y-123034879D01*
X82958880Y-122987224D01*
X82911224Y-122963396D01*
X82815914Y-122939568D01*
X82744431Y-122939568D01*
X82649120Y-122963396D01*
X82601465Y-122987224D01*
X82553810Y-123034879D01*
X82529982Y-123106362D01*
X82529982Y-123154017D01*
X82553810Y-123225500D01*
X82577638Y-123249328D01*
X82577638Y-123439948D02*
X82553810Y-123463776D01*
X82529982Y-123511431D01*
X82529982Y-123630569D01*
X82553810Y-123678225D01*
X82577638Y-123702052D01*
X82625293Y-123725880D01*
X82672948Y-123725880D01*
X82744431Y-123702052D01*
X83030362Y-123416121D01*
X83030362Y-123725880D01*
X82529982Y-124178604D02*
X82529982Y-123940328D01*
X82768259Y-123916500D01*
X82744431Y-123940328D01*
X82720603Y-123987983D01*
X82720603Y-124107121D01*
X82744431Y-124154777D01*
X82768259Y-124178604D01*
X82815914Y-124202432D01*
X82935052Y-124202432D01*
X82982707Y-124178604D01*
X83006535Y-124154777D01*
X83030362Y-124107121D01*
X83030362Y-123987983D01*
X83006535Y-123940328D01*
X82982707Y-123916500D01*
D22*
X104306915Y-135309429D02*
X104328686Y-135333619D01*
X104394000Y-135357810D01*
X104437543Y-135357810D01*
X104502858Y-135333619D01*
X104546400Y-135285238D01*
X104568172Y-135236857D01*
X104589943Y-135140095D01*
X104589943Y-135067524D01*
X104568172Y-134970762D01*
X104546400Y-134922381D01*
X104502858Y-134874000D01*
X104437543Y-134849810D01*
X104394000Y-134849810D01*
X104328686Y-134874000D01*
X104306915Y-134898190D01*
X104154515Y-134849810D02*
X103871486Y-134849810D01*
X104023886Y-135043333D01*
X103958572Y-135043333D01*
X103915029Y-135067524D01*
X103893258Y-135091714D01*
X103871486Y-135140095D01*
X103871486Y-135261048D01*
X103893258Y-135309429D01*
X103915029Y-135333619D01*
X103958572Y-135357810D01*
X104089200Y-135357810D01*
X104132743Y-135333619D01*
X104154515Y-135309429D01*
X103436057Y-135357810D02*
X103697314Y-135357810D01*
X103566686Y-135357810D02*
X103566686Y-134849810D01*
X103610229Y-134922381D01*
X103653771Y-134970762D01*
X103697314Y-134994952D01*
X94783915Y-134795429D02*
X94805686Y-134819619D01*
X94871000Y-134843810D01*
X94914543Y-134843810D01*
X94979858Y-134819619D01*
X95023400Y-134771238D01*
X95045172Y-134722857D01*
X95066943Y-134626095D01*
X95066943Y-134553524D01*
X95045172Y-134456762D01*
X95023400Y-134408381D01*
X94979858Y-134360000D01*
X94914543Y-134335810D01*
X94871000Y-134335810D01*
X94805686Y-134360000D01*
X94783915Y-134384190D01*
X94631515Y-134335810D02*
X94348486Y-134335810D01*
X94500886Y-134529333D01*
X94435572Y-134529333D01*
X94392029Y-134553524D01*
X94370258Y-134577714D01*
X94348486Y-134626095D01*
X94348486Y-134747048D01*
X94370258Y-134795429D01*
X94392029Y-134819619D01*
X94435572Y-134843810D01*
X94566200Y-134843810D01*
X94609743Y-134819619D01*
X94631515Y-134795429D01*
X94174314Y-134384190D02*
X94152543Y-134360000D01*
X94109000Y-134335810D01*
X94000143Y-134335810D01*
X93956600Y-134360000D01*
X93934829Y-134384190D01*
X93913057Y-134432571D01*
X93913057Y-134480952D01*
X93934829Y-134553524D01*
X94196086Y-134843810D01*
X93913057Y-134843810D01*
D16*
X82347707Y-114359328D02*
X82371535Y-114335500D01*
X82395362Y-114264017D01*
X82395362Y-114216362D01*
X82371535Y-114144879D01*
X82323880Y-114097224D01*
X82276224Y-114073396D01*
X82180914Y-114049568D01*
X82109431Y-114049568D01*
X82014120Y-114073396D01*
X81966465Y-114097224D01*
X81918810Y-114144879D01*
X81894982Y-114216362D01*
X81894982Y-114264017D01*
X81918810Y-114335500D01*
X81942638Y-114359328D01*
X81894982Y-114526121D02*
X81894982Y-114835880D01*
X82085603Y-114669087D01*
X82085603Y-114740569D01*
X82109431Y-114788225D01*
X82133259Y-114812052D01*
X82180914Y-114835880D01*
X82300052Y-114835880D01*
X82347707Y-114812052D01*
X82371535Y-114788225D01*
X82395362Y-114740569D01*
X82395362Y-114597604D01*
X82371535Y-114549948D01*
X82347707Y-114526121D01*
X81894982Y-115002673D02*
X81894982Y-115312432D01*
X82085603Y-115145639D01*
X82085603Y-115217121D01*
X82109431Y-115264777D01*
X82133259Y-115288604D01*
X82180914Y-115312432D01*
X82300052Y-115312432D01*
X82347707Y-115288604D01*
X82371535Y-115264777D01*
X82395362Y-115217121D01*
X82395362Y-115074156D01*
X82371535Y-115026500D01*
X82347707Y-115002673D01*
D22*
X100623915Y-129848429D02*
X100645686Y-129872619D01*
X100711000Y-129896810D01*
X100754543Y-129896810D01*
X100819858Y-129872619D01*
X100863400Y-129824238D01*
X100885172Y-129775857D01*
X100906943Y-129679095D01*
X100906943Y-129606524D01*
X100885172Y-129509762D01*
X100863400Y-129461381D01*
X100819858Y-129413000D01*
X100754543Y-129388810D01*
X100711000Y-129388810D01*
X100645686Y-129413000D01*
X100623915Y-129437190D01*
X100471515Y-129388810D02*
X100188486Y-129388810D01*
X100340886Y-129582333D01*
X100275572Y-129582333D01*
X100232029Y-129606524D01*
X100210258Y-129630714D01*
X100188486Y-129679095D01*
X100188486Y-129800048D01*
X100210258Y-129848429D01*
X100232029Y-129872619D01*
X100275572Y-129896810D01*
X100406200Y-129896810D01*
X100449743Y-129872619D01*
X100471515Y-129848429D01*
X99927229Y-129606524D02*
X99970771Y-129582333D01*
X99992543Y-129558143D01*
X100014314Y-129509762D01*
X100014314Y-129485571D01*
X99992543Y-129437190D01*
X99970771Y-129413000D01*
X99927229Y-129388810D01*
X99840143Y-129388810D01*
X99796600Y-129413000D01*
X99774829Y-129437190D01*
X99753057Y-129485571D01*
X99753057Y-129509762D01*
X99774829Y-129558143D01*
X99796600Y-129582333D01*
X99840143Y-129606524D01*
X99927229Y-129606524D01*
X99970771Y-129630714D01*
X99992543Y-129654905D01*
X100014314Y-129703286D01*
X100014314Y-129800048D01*
X99992543Y-129848429D01*
X99970771Y-129872619D01*
X99927229Y-129896810D01*
X99840143Y-129896810D01*
X99796600Y-129872619D01*
X99774829Y-129848429D01*
X99753057Y-129800048D01*
X99753057Y-129703286D01*
X99774829Y-129654905D01*
X99796600Y-129630714D01*
X99840143Y-129606524D01*
D12*
X96539857Y-110872143D02*
X96576143Y-110908429D01*
X96685000Y-110944714D01*
X96757571Y-110944714D01*
X96866428Y-110908429D01*
X96939000Y-110835857D01*
X96975285Y-110763286D01*
X97011571Y-110618143D01*
X97011571Y-110509286D01*
X96975285Y-110364143D01*
X96939000Y-110291571D01*
X96866428Y-110219000D01*
X96757571Y-110182714D01*
X96685000Y-110182714D01*
X96576143Y-110219000D01*
X96539857Y-110255286D01*
X95886714Y-110436714D02*
X95886714Y-110944714D01*
X96068143Y-110146429D02*
X96249571Y-110690714D01*
X95777857Y-110690714D01*
X95560143Y-110182714D02*
X95088429Y-110182714D01*
X95342429Y-110473000D01*
X95233571Y-110473000D01*
X95161000Y-110509286D01*
X95124714Y-110545571D01*
X95088429Y-110618143D01*
X95088429Y-110799571D01*
X95124714Y-110872143D01*
X95161000Y-110908429D01*
X95233571Y-110944714D01*
X95451286Y-110944714D01*
X95523857Y-110908429D01*
X95560143Y-110872143D01*
X95689857Y-114772143D02*
X95726143Y-114808429D01*
X95835000Y-114844714D01*
X95907571Y-114844714D01*
X96016428Y-114808429D01*
X96089000Y-114735857D01*
X96125285Y-114663286D01*
X96161571Y-114518143D01*
X96161571Y-114409286D01*
X96125285Y-114264143D01*
X96089000Y-114191571D01*
X96016428Y-114119000D01*
X95907571Y-114082714D01*
X95835000Y-114082714D01*
X95726143Y-114119000D01*
X95689857Y-114155286D01*
X95036714Y-114336714D02*
X95036714Y-114844714D01*
X95218143Y-114046429D02*
X95399571Y-114590714D01*
X94927857Y-114590714D01*
X94311000Y-114336714D02*
X94311000Y-114844714D01*
X94492429Y-114046429D02*
X94673857Y-114590714D01*
X94202143Y-114590714D01*
X99472143Y-118110143D02*
X99508429Y-118073857D01*
X99544714Y-117965000D01*
X99544714Y-117892429D01*
X99508429Y-117783572D01*
X99435857Y-117711000D01*
X99363286Y-117674715D01*
X99218143Y-117638429D01*
X99109286Y-117638429D01*
X98964143Y-117674715D01*
X98891571Y-117711000D01*
X98819000Y-117783572D01*
X98782714Y-117892429D01*
X98782714Y-117965000D01*
X98819000Y-118073857D01*
X98855286Y-118110143D01*
X99036714Y-118763286D02*
X99544714Y-118763286D01*
X98746429Y-118581857D02*
X99290714Y-118400429D01*
X99290714Y-118872143D01*
X99544714Y-119198714D02*
X99544714Y-119343857D01*
X99508429Y-119416429D01*
X99472143Y-119452714D01*
X99363286Y-119525286D01*
X99218143Y-119561571D01*
X98927857Y-119561571D01*
X98855286Y-119525286D01*
X98819000Y-119489000D01*
X98782714Y-119416429D01*
X98782714Y-119271286D01*
X98819000Y-119198714D01*
X98855286Y-119162429D01*
X98927857Y-119126143D01*
X99109286Y-119126143D01*
X99181857Y-119162429D01*
X99218143Y-119198714D01*
X99254429Y-119271286D01*
X99254429Y-119416429D01*
X99218143Y-119489000D01*
X99181857Y-119525286D01*
X99109286Y-119561571D01*
D16*
X107378707Y-119178328D02*
X107402535Y-119154500D01*
X107426362Y-119083017D01*
X107426362Y-119035362D01*
X107402535Y-118963879D01*
X107354880Y-118916224D01*
X107307224Y-118892396D01*
X107211914Y-118868568D01*
X107140431Y-118868568D01*
X107045120Y-118892396D01*
X106997465Y-118916224D01*
X106949810Y-118963879D01*
X106925982Y-119035362D01*
X106925982Y-119083017D01*
X106949810Y-119154500D01*
X106973638Y-119178328D01*
X106925982Y-119631052D02*
X106925982Y-119392776D01*
X107164259Y-119368948D01*
X107140431Y-119392776D01*
X107116603Y-119440431D01*
X107116603Y-119559569D01*
X107140431Y-119607225D01*
X107164259Y-119631052D01*
X107211914Y-119654880D01*
X107331052Y-119654880D01*
X107378707Y-119631052D01*
X107402535Y-119607225D01*
X107426362Y-119559569D01*
X107426362Y-119440431D01*
X107402535Y-119392776D01*
X107378707Y-119368948D01*
X107426362Y-120131432D02*
X107426362Y-119845500D01*
X107426362Y-119988466D02*
X106925982Y-119988466D01*
X106997465Y-119940811D01*
X107045120Y-119893156D01*
X107068948Y-119845500D01*
D22*
X107493915Y-121481429D02*
X107515686Y-121505619D01*
X107581000Y-121529810D01*
X107624543Y-121529810D01*
X107689858Y-121505619D01*
X107733400Y-121457238D01*
X107755172Y-121408857D01*
X107776943Y-121312095D01*
X107776943Y-121239524D01*
X107755172Y-121142762D01*
X107733400Y-121094381D01*
X107689858Y-121046000D01*
X107624543Y-121021810D01*
X107581000Y-121021810D01*
X107515686Y-121046000D01*
X107493915Y-121070190D01*
X107080258Y-121021810D02*
X107297972Y-121021810D01*
X107319743Y-121263714D01*
X107297972Y-121239524D01*
X107254429Y-121215333D01*
X107145572Y-121215333D01*
X107102029Y-121239524D01*
X107080258Y-121263714D01*
X107058486Y-121312095D01*
X107058486Y-121433048D01*
X107080258Y-121481429D01*
X107102029Y-121505619D01*
X107145572Y-121529810D01*
X107254429Y-121529810D01*
X107297972Y-121505619D01*
X107319743Y-121481429D01*
X106884314Y-121070190D02*
X106862543Y-121046000D01*
X106819000Y-121021810D01*
X106710143Y-121021810D01*
X106666600Y-121046000D01*
X106644829Y-121070190D01*
X106623057Y-121118571D01*
X106623057Y-121166952D01*
X106644829Y-121239524D01*
X106906086Y-121529810D01*
X106623057Y-121529810D01*
D12*
X112174953Y-122029810D02*
X112174953Y-121521810D01*
X112054000Y-121521810D01*
X111981429Y-121546000D01*
X111933048Y-121594381D01*
X111908857Y-121642762D01*
X111884667Y-121739524D01*
X111884667Y-121812095D01*
X111908857Y-121908857D01*
X111933048Y-121957238D01*
X111981429Y-122005619D01*
X112054000Y-122029810D01*
X112174953Y-122029810D01*
X111400857Y-122029810D02*
X111691143Y-122029810D01*
X111546000Y-122029810D02*
X111546000Y-121521810D01*
X111594381Y-121594381D01*
X111642762Y-121642762D01*
X111691143Y-121666952D01*
X110861953Y-122039810D02*
X110861953Y-121531810D01*
X110741000Y-121531810D01*
X110668429Y-121556000D01*
X110620048Y-121604381D01*
X110595857Y-121652762D01*
X110571667Y-121749524D01*
X110571667Y-121822095D01*
X110595857Y-121918857D01*
X110620048Y-121967238D01*
X110668429Y-122015619D01*
X110741000Y-122039810D01*
X110861953Y-122039810D01*
X110378143Y-121580190D02*
X110353953Y-121556000D01*
X110305572Y-121531810D01*
X110184619Y-121531810D01*
X110136238Y-121556000D01*
X110112048Y-121580190D01*
X110087857Y-121628571D01*
X110087857Y-121676952D01*
X110112048Y-121749524D01*
X110402334Y-122039810D01*
X110087857Y-122039810D01*
X109474953Y-122029810D02*
X109474953Y-121521810D01*
X109354000Y-121521810D01*
X109281429Y-121546000D01*
X109233048Y-121594381D01*
X109208857Y-121642762D01*
X109184667Y-121739524D01*
X109184667Y-121812095D01*
X109208857Y-121908857D01*
X109233048Y-121957238D01*
X109281429Y-122005619D01*
X109354000Y-122029810D01*
X109474953Y-122029810D01*
X109015334Y-121521810D02*
X108700857Y-121521810D01*
X108870191Y-121715333D01*
X108797619Y-121715333D01*
X108749238Y-121739524D01*
X108725048Y-121763714D01*
X108700857Y-121812095D01*
X108700857Y-121933048D01*
X108725048Y-121981429D01*
X108749238Y-122005619D01*
X108797619Y-122029810D01*
X108942762Y-122029810D01*
X108991143Y-122005619D01*
X109015334Y-121981429D01*
D14*
X87649904Y-111059619D02*
X87649904Y-110043619D01*
X87407999Y-110043619D01*
X87262857Y-110092000D01*
X87166095Y-110188762D01*
X87117714Y-110285524D01*
X87069333Y-110479048D01*
X87069333Y-110624190D01*
X87117714Y-110817714D01*
X87166095Y-110914476D01*
X87262857Y-111011238D01*
X87407999Y-111059619D01*
X87649904Y-111059619D01*
X86198476Y-110382286D02*
X86198476Y-111059619D01*
X86440380Y-109995238D02*
X86682285Y-110720952D01*
X86053333Y-110720952D01*
D17*
X83814678Y-114713597D02*
X83576401Y-114713597D01*
X83862333Y-114856562D02*
X83695539Y-114356182D01*
X83528746Y-114856562D01*
X90125792Y-114955622D02*
X90125792Y-114455242D01*
X89839860Y-114955622D02*
X90054309Y-114669691D01*
X89839860Y-114455242D02*
X90125792Y-114741174D01*
D14*
X85422619Y-107454096D02*
X84406619Y-107454096D01*
X84406619Y-107841143D01*
X84455000Y-107937905D01*
X84503381Y-107986286D01*
X84600143Y-108034667D01*
X84745286Y-108034667D01*
X84842048Y-107986286D01*
X84890429Y-107937905D01*
X84938810Y-107841143D01*
X84938810Y-107454096D01*
X84745286Y-108905524D02*
X85422619Y-108905524D01*
X84358238Y-108663620D02*
X85083952Y-108421715D01*
X85083952Y-109050667D01*
D24*
X99802381Y-108661905D02*
X98802381Y-108661905D01*
X98802381Y-109042858D01*
X98850000Y-109138096D01*
X98897619Y-109185715D01*
X98992857Y-109233334D01*
X99135714Y-109233334D01*
X99230952Y-109185715D01*
X99278571Y-109138096D01*
X99326190Y-109042858D01*
X99326190Y-108661905D01*
X98802381Y-110138096D02*
X98802381Y-109661905D01*
X99278571Y-109614286D01*
X99230952Y-109661905D01*
X99183333Y-109757143D01*
X99183333Y-109995239D01*
X99230952Y-110090477D01*
X99278571Y-110138096D01*
X99373810Y-110185715D01*
X99611905Y-110185715D01*
X99707143Y-110138096D01*
X99754762Y-110090477D01*
X99802381Y-109995239D01*
X99802381Y-109757143D01*
X99754762Y-109661905D01*
X99707143Y-109614286D01*
D22*
X86586362Y-125526800D02*
X86348086Y-125374400D01*
X86586362Y-125265543D02*
X86085982Y-125265543D01*
X86085982Y-125439715D01*
X86109810Y-125483257D01*
X86133638Y-125505029D01*
X86181293Y-125526800D01*
X86252776Y-125526800D01*
X86300431Y-125505029D01*
X86324259Y-125483257D01*
X86348086Y-125439715D01*
X86348086Y-125265543D01*
X86085982Y-125679200D02*
X86085982Y-125962229D01*
X86276603Y-125809829D01*
X86276603Y-125875143D01*
X86300431Y-125918686D01*
X86324259Y-125940457D01*
X86371914Y-125962229D01*
X86491052Y-125962229D01*
X86538707Y-125940457D01*
X86562535Y-125918686D01*
X86586362Y-125875143D01*
X86586362Y-125744515D01*
X86562535Y-125700972D01*
X86538707Y-125679200D01*
X86713362Y-129336800D02*
X86475086Y-129184400D01*
X86713362Y-129075543D02*
X86212982Y-129075543D01*
X86212982Y-129249715D01*
X86236810Y-129293257D01*
X86260638Y-129315029D01*
X86308293Y-129336800D01*
X86379776Y-129336800D01*
X86427431Y-129315029D01*
X86451259Y-129293257D01*
X86475086Y-129249715D01*
X86475086Y-129075543D01*
X86379776Y-129728686D02*
X86713362Y-129728686D01*
X86189155Y-129619829D02*
X86546569Y-129510972D01*
X86546569Y-129794000D01*
X106502200Y-134338362D02*
X106654600Y-134100086D01*
X106763457Y-134338362D02*
X106763457Y-133837982D01*
X106589285Y-133837982D01*
X106545743Y-133861810D01*
X106523971Y-133885638D01*
X106502200Y-133933293D01*
X106502200Y-134004776D01*
X106523971Y-134052431D01*
X106545743Y-134076259D01*
X106589285Y-134100086D01*
X106763457Y-134100086D01*
X106088543Y-133837982D02*
X106306257Y-133837982D01*
X106328028Y-134076259D01*
X106306257Y-134052431D01*
X106262714Y-134028603D01*
X106153857Y-134028603D01*
X106110314Y-134052431D01*
X106088543Y-134076259D01*
X106066771Y-134123914D01*
X106066771Y-134243052D01*
X106088543Y-134290707D01*
X106110314Y-134314535D01*
X106153857Y-134338362D01*
X106262714Y-134338362D01*
X106306257Y-134314535D01*
X106328028Y-134290707D01*
X80376200Y-128426362D02*
X80528600Y-128188086D01*
X80637457Y-128426362D02*
X80637457Y-127925982D01*
X80463285Y-127925982D01*
X80419743Y-127949810D01*
X80397971Y-127973638D01*
X80376200Y-128021293D01*
X80376200Y-128092776D01*
X80397971Y-128140431D01*
X80419743Y-128164259D01*
X80463285Y-128188086D01*
X80637457Y-128188086D01*
X79984314Y-127925982D02*
X80071400Y-127925982D01*
X80114943Y-127949810D01*
X80136714Y-127973638D01*
X80180257Y-128045120D01*
X80202028Y-128140431D01*
X80202028Y-128331052D01*
X80180257Y-128378707D01*
X80158485Y-128402535D01*
X80114943Y-128426362D01*
X80027857Y-128426362D01*
X79984314Y-128402535D01*
X79962543Y-128378707D01*
X79940771Y-128331052D01*
X79940771Y-128211914D01*
X79962543Y-128164259D01*
X79984314Y-128140431D01*
X80027857Y-128116603D01*
X80114943Y-128116603D01*
X80158485Y-128140431D01*
X80180257Y-128164259D01*
X80202028Y-128211914D01*
X83376200Y-136226362D02*
X83528600Y-135988086D01*
X83637457Y-136226362D02*
X83637457Y-135725982D01*
X83463285Y-135725982D01*
X83419743Y-135749810D01*
X83397971Y-135773638D01*
X83376200Y-135821293D01*
X83376200Y-135892776D01*
X83397971Y-135940431D01*
X83419743Y-135964259D01*
X83463285Y-135988086D01*
X83637457Y-135988086D01*
X83223800Y-135725982D02*
X82919000Y-135725982D01*
X83114943Y-136226362D01*
X86476200Y-136226362D02*
X86628600Y-135988086D01*
X86737457Y-136226362D02*
X86737457Y-135725982D01*
X86563285Y-135725982D01*
X86519743Y-135749810D01*
X86497971Y-135773638D01*
X86476200Y-135821293D01*
X86476200Y-135892776D01*
X86497971Y-135940431D01*
X86519743Y-135964259D01*
X86563285Y-135988086D01*
X86737457Y-135988086D01*
X86214943Y-135940431D02*
X86258485Y-135916603D01*
X86280257Y-135892776D01*
X86302028Y-135845120D01*
X86302028Y-135821293D01*
X86280257Y-135773638D01*
X86258485Y-135749810D01*
X86214943Y-135725982D01*
X86127857Y-135725982D01*
X86084314Y-135749810D01*
X86062543Y-135773638D01*
X86040771Y-135821293D01*
X86040771Y-135845120D01*
X86062543Y-135892776D01*
X86084314Y-135916603D01*
X86127857Y-135940431D01*
X86214943Y-135940431D01*
X86258485Y-135964259D01*
X86280257Y-135988086D01*
X86302028Y-136035741D01*
X86302028Y-136131052D01*
X86280257Y-136178707D01*
X86258485Y-136202535D01*
X86214943Y-136226362D01*
X86127857Y-136226362D01*
X86084314Y-136202535D01*
X86062543Y-136178707D01*
X86040771Y-136131052D01*
X86040771Y-136035741D01*
X86062543Y-135988086D01*
X86084314Y-135964259D01*
X86127857Y-135940431D01*
X89476200Y-136226362D02*
X89628600Y-135988086D01*
X89737457Y-136226362D02*
X89737457Y-135725982D01*
X89563285Y-135725982D01*
X89519743Y-135749810D01*
X89497971Y-135773638D01*
X89476200Y-135821293D01*
X89476200Y-135892776D01*
X89497971Y-135940431D01*
X89519743Y-135964259D01*
X89563285Y-135988086D01*
X89737457Y-135988086D01*
X89258485Y-136226362D02*
X89171400Y-136226362D01*
X89127857Y-136202535D01*
X89106085Y-136178707D01*
X89062543Y-136107224D01*
X89040771Y-136011914D01*
X89040771Y-135821293D01*
X89062543Y-135773638D01*
X89084314Y-135749810D01*
X89127857Y-135725982D01*
X89214943Y-135725982D01*
X89258485Y-135749810D01*
X89280257Y-135773638D01*
X89302028Y-135821293D01*
X89302028Y-135940431D01*
X89280257Y-135988086D01*
X89258485Y-136011914D01*
X89214943Y-136035741D01*
X89127857Y-136035741D01*
X89084314Y-136011914D01*
X89062543Y-135988086D01*
X89040771Y-135940431D01*
X92793915Y-136226362D02*
X92946315Y-135988086D01*
X93055172Y-136226362D02*
X93055172Y-135725982D01*
X92881000Y-135725982D01*
X92837458Y-135749810D01*
X92815686Y-135773638D01*
X92793915Y-135821293D01*
X92793915Y-135892776D01*
X92815686Y-135940431D01*
X92837458Y-135964259D01*
X92881000Y-135988086D01*
X93055172Y-135988086D01*
X92358486Y-136226362D02*
X92619743Y-136226362D01*
X92489115Y-136226362D02*
X92489115Y-135725982D01*
X92532658Y-135797465D01*
X92576200Y-135845120D01*
X92619743Y-135868948D01*
X92075457Y-135725982D02*
X92031914Y-135725982D01*
X91988371Y-135749810D01*
X91966600Y-135773638D01*
X91944829Y-135821293D01*
X91923057Y-135916603D01*
X91923057Y-136035741D01*
X91944829Y-136131052D01*
X91966600Y-136178707D01*
X91988371Y-136202535D01*
X92031914Y-136226362D01*
X92075457Y-136226362D01*
X92119000Y-136202535D01*
X92140771Y-136178707D01*
X92162543Y-136131052D01*
X92184314Y-136035741D01*
X92184314Y-135916603D01*
X92162543Y-135821293D01*
X92140771Y-135773638D01*
X92119000Y-135749810D01*
X92075457Y-135725982D01*
X91293915Y-136226362D02*
X91446315Y-135988086D01*
X91555172Y-136226362D02*
X91555172Y-135725982D01*
X91381000Y-135725982D01*
X91337458Y-135749810D01*
X91315686Y-135773638D01*
X91293915Y-135821293D01*
X91293915Y-135892776D01*
X91315686Y-135940431D01*
X91337458Y-135964259D01*
X91381000Y-135988086D01*
X91555172Y-135988086D01*
X90858486Y-136226362D02*
X91119743Y-136226362D01*
X90989115Y-136226362D02*
X90989115Y-135725982D01*
X91032658Y-135797465D01*
X91076200Y-135845120D01*
X91119743Y-135868948D01*
X90423057Y-136226362D02*
X90684314Y-136226362D01*
X90553686Y-136226362D02*
X90553686Y-135725982D01*
X90597229Y-135797465D01*
X90640771Y-135845120D01*
X90684314Y-135868948D01*
X88193915Y-136226362D02*
X88346315Y-135988086D01*
X88455172Y-136226362D02*
X88455172Y-135725982D01*
X88281000Y-135725982D01*
X88237458Y-135749810D01*
X88215686Y-135773638D01*
X88193915Y-135821293D01*
X88193915Y-135892776D01*
X88215686Y-135940431D01*
X88237458Y-135964259D01*
X88281000Y-135988086D01*
X88455172Y-135988086D01*
X87758486Y-136226362D02*
X88019743Y-136226362D01*
X87889115Y-136226362D02*
X87889115Y-135725982D01*
X87932658Y-135797465D01*
X87976200Y-135845120D01*
X88019743Y-135868948D01*
X87584314Y-135773638D02*
X87562543Y-135749810D01*
X87519000Y-135725982D01*
X87410143Y-135725982D01*
X87366600Y-135749810D01*
X87344829Y-135773638D01*
X87323057Y-135821293D01*
X87323057Y-135868948D01*
X87344829Y-135940431D01*
X87606086Y-136226362D01*
X87323057Y-136226362D01*
X85093915Y-136226362D02*
X85246315Y-135988086D01*
X85355172Y-136226362D02*
X85355172Y-135725982D01*
X85181000Y-135725982D01*
X85137458Y-135749810D01*
X85115686Y-135773638D01*
X85093915Y-135821293D01*
X85093915Y-135892776D01*
X85115686Y-135940431D01*
X85137458Y-135964259D01*
X85181000Y-135988086D01*
X85355172Y-135988086D01*
X84658486Y-136226362D02*
X84919743Y-136226362D01*
X84789115Y-136226362D02*
X84789115Y-135725982D01*
X84832658Y-135797465D01*
X84876200Y-135845120D01*
X84919743Y-135868948D01*
X84506086Y-135725982D02*
X84223057Y-135725982D01*
X84375457Y-135916603D01*
X84310143Y-135916603D01*
X84266600Y-135940431D01*
X84244829Y-135964259D01*
X84223057Y-136011914D01*
X84223057Y-136131052D01*
X84244829Y-136178707D01*
X84266600Y-136202535D01*
X84310143Y-136226362D01*
X84440771Y-136226362D01*
X84484314Y-136202535D01*
X84506086Y-136178707D01*
X103798915Y-124559362D02*
X103951315Y-124321086D01*
X104060172Y-124559362D02*
X104060172Y-124058982D01*
X103886000Y-124058982D01*
X103842458Y-124082810D01*
X103820686Y-124106638D01*
X103798915Y-124154293D01*
X103798915Y-124225776D01*
X103820686Y-124273431D01*
X103842458Y-124297259D01*
X103886000Y-124321086D01*
X104060172Y-124321086D01*
X103363486Y-124559362D02*
X103624743Y-124559362D01*
X103494115Y-124559362D02*
X103494115Y-124058982D01*
X103537658Y-124130465D01*
X103581200Y-124178120D01*
X103624743Y-124201948D01*
X102949829Y-124058982D02*
X103167543Y-124058982D01*
X103189314Y-124297259D01*
X103167543Y-124273431D01*
X103124000Y-124249603D01*
X103015143Y-124249603D01*
X102971600Y-124273431D01*
X102949829Y-124297259D01*
X102928057Y-124344914D01*
X102928057Y-124464052D01*
X102949829Y-124511707D01*
X102971600Y-124535535D01*
X103015143Y-124559362D01*
X103124000Y-124559362D01*
X103167543Y-124535535D01*
X103189314Y-124511707D01*
X96526362Y-120406085D02*
X96288086Y-120253685D01*
X96526362Y-120144828D02*
X96025982Y-120144828D01*
X96025982Y-120319000D01*
X96049810Y-120362542D01*
X96073638Y-120384314D01*
X96121293Y-120406085D01*
X96192776Y-120406085D01*
X96240431Y-120384314D01*
X96264259Y-120362542D01*
X96288086Y-120319000D01*
X96288086Y-120144828D01*
X96526362Y-120841514D02*
X96526362Y-120580257D01*
X96526362Y-120710885D02*
X96025982Y-120710885D01*
X96097465Y-120667342D01*
X96145120Y-120623800D01*
X96168948Y-120580257D01*
X96025982Y-121233400D02*
X96025982Y-121146314D01*
X96049810Y-121102771D01*
X96073638Y-121081000D01*
X96145120Y-121037457D01*
X96240431Y-121015686D01*
X96431052Y-121015686D01*
X96478707Y-121037457D01*
X96502535Y-121059229D01*
X96526362Y-121102771D01*
X96526362Y-121189857D01*
X96502535Y-121233400D01*
X96478707Y-121255171D01*
X96431052Y-121276943D01*
X96311914Y-121276943D01*
X96264259Y-121255171D01*
X96240431Y-121233400D01*
X96216603Y-121189857D01*
X96216603Y-121102771D01*
X96240431Y-121059229D01*
X96264259Y-121037457D01*
X96311914Y-121015686D01*
X94493915Y-123026362D02*
X94646315Y-122788086D01*
X94755172Y-123026362D02*
X94755172Y-122525982D01*
X94581000Y-122525982D01*
X94537458Y-122549810D01*
X94515686Y-122573638D01*
X94493915Y-122621293D01*
X94493915Y-122692776D01*
X94515686Y-122740431D01*
X94537458Y-122764259D01*
X94581000Y-122788086D01*
X94755172Y-122788086D01*
X94319743Y-122573638D02*
X94297972Y-122549810D01*
X94254429Y-122525982D01*
X94145572Y-122525982D01*
X94102029Y-122549810D01*
X94080258Y-122573638D01*
X94058486Y-122621293D01*
X94058486Y-122668948D01*
X94080258Y-122740431D01*
X94341515Y-123026362D01*
X94058486Y-123026362D01*
X93623057Y-123026362D02*
X93884314Y-123026362D01*
X93753686Y-123026362D02*
X93753686Y-122525982D01*
X93797229Y-122597465D01*
X93840771Y-122645120D01*
X93884314Y-122668948D01*
X109393915Y-127826362D02*
X109546315Y-127588086D01*
X109655172Y-127826362D02*
X109655172Y-127325982D01*
X109481000Y-127325982D01*
X109437458Y-127349810D01*
X109415686Y-127373638D01*
X109393915Y-127421293D01*
X109393915Y-127492776D01*
X109415686Y-127540431D01*
X109437458Y-127564259D01*
X109481000Y-127588086D01*
X109655172Y-127588086D01*
X109219743Y-127373638D02*
X109197972Y-127349810D01*
X109154429Y-127325982D01*
X109045572Y-127325982D01*
X109002029Y-127349810D01*
X108980258Y-127373638D01*
X108958486Y-127421293D01*
X108958486Y-127468948D01*
X108980258Y-127540431D01*
X109241515Y-127826362D01*
X108958486Y-127826362D01*
X108784314Y-127373638D02*
X108762543Y-127349810D01*
X108719000Y-127325982D01*
X108610143Y-127325982D01*
X108566600Y-127349810D01*
X108544829Y-127373638D01*
X108523057Y-127421293D01*
X108523057Y-127468948D01*
X108544829Y-127540431D01*
X108806086Y-127826362D01*
X108523057Y-127826362D01*
X90126362Y-128206085D02*
X89888086Y-128053685D01*
X90126362Y-127944828D02*
X89625982Y-127944828D01*
X89625982Y-128119000D01*
X89649810Y-128162542D01*
X89673638Y-128184314D01*
X89721293Y-128206085D01*
X89792776Y-128206085D01*
X89840431Y-128184314D01*
X89864259Y-128162542D01*
X89888086Y-128119000D01*
X89888086Y-127944828D01*
X89673638Y-128380257D02*
X89649810Y-128402028D01*
X89625982Y-128445571D01*
X89625982Y-128554428D01*
X89649810Y-128597971D01*
X89673638Y-128619742D01*
X89721293Y-128641514D01*
X89768948Y-128641514D01*
X89840431Y-128619742D01*
X90126362Y-128358485D01*
X90126362Y-128641514D01*
X89625982Y-128793914D02*
X89625982Y-129076943D01*
X89816603Y-128924543D01*
X89816603Y-128989857D01*
X89840431Y-129033400D01*
X89864259Y-129055171D01*
X89911914Y-129076943D01*
X90031052Y-129076943D01*
X90078707Y-129055171D01*
X90102535Y-129033400D01*
X90126362Y-128989857D01*
X90126362Y-128859229D01*
X90102535Y-128815686D01*
X90078707Y-128793914D01*
X94577362Y-127756085D02*
X94339086Y-127603685D01*
X94577362Y-127494828D02*
X94076982Y-127494828D01*
X94076982Y-127669000D01*
X94100810Y-127712542D01*
X94124638Y-127734314D01*
X94172293Y-127756085D01*
X94243776Y-127756085D01*
X94291431Y-127734314D01*
X94315259Y-127712542D01*
X94339086Y-127669000D01*
X94339086Y-127494828D01*
X94124638Y-127930257D02*
X94100810Y-127952028D01*
X94076982Y-127995571D01*
X94076982Y-128104428D01*
X94100810Y-128147971D01*
X94124638Y-128169742D01*
X94172293Y-128191514D01*
X94219948Y-128191514D01*
X94291431Y-128169742D01*
X94577362Y-127908485D01*
X94577362Y-128191514D01*
X94243776Y-128583400D02*
X94577362Y-128583400D01*
X94053155Y-128474543D02*
X94410569Y-128365686D01*
X94410569Y-128648714D01*
X86840362Y-126706085D02*
X86602086Y-126553685D01*
X86840362Y-126444828D02*
X86339982Y-126444828D01*
X86339982Y-126619000D01*
X86363810Y-126662542D01*
X86387638Y-126684314D01*
X86435293Y-126706085D01*
X86506776Y-126706085D01*
X86554431Y-126684314D01*
X86578259Y-126662542D01*
X86602086Y-126619000D01*
X86602086Y-126444828D01*
X86387638Y-126880257D02*
X86363810Y-126902028D01*
X86339982Y-126945571D01*
X86339982Y-127054428D01*
X86363810Y-127097971D01*
X86387638Y-127119742D01*
X86435293Y-127141514D01*
X86482948Y-127141514D01*
X86554431Y-127119742D01*
X86840362Y-126858485D01*
X86840362Y-127141514D01*
X86339982Y-127533400D02*
X86339982Y-127446314D01*
X86363810Y-127402771D01*
X86387638Y-127381000D01*
X86459120Y-127337457D01*
X86554431Y-127315686D01*
X86745052Y-127315686D01*
X86792707Y-127337457D01*
X86816535Y-127359229D01*
X86840362Y-127402771D01*
X86840362Y-127489857D01*
X86816535Y-127533400D01*
X86792707Y-127555171D01*
X86745052Y-127576943D01*
X86625914Y-127576943D01*
X86578259Y-127555171D01*
X86554431Y-127533400D01*
X86530603Y-127489857D01*
X86530603Y-127402771D01*
X86554431Y-127359229D01*
X86578259Y-127337457D01*
X86625914Y-127315686D01*
X94577362Y-126256085D02*
X94339086Y-126103685D01*
X94577362Y-125994828D02*
X94076982Y-125994828D01*
X94076982Y-126169000D01*
X94100810Y-126212542D01*
X94124638Y-126234314D01*
X94172293Y-126256085D01*
X94243776Y-126256085D01*
X94291431Y-126234314D01*
X94315259Y-126212542D01*
X94339086Y-126169000D01*
X94339086Y-125994828D01*
X94124638Y-126430257D02*
X94100810Y-126452028D01*
X94076982Y-126495571D01*
X94076982Y-126604428D01*
X94100810Y-126647971D01*
X94124638Y-126669742D01*
X94172293Y-126691514D01*
X94219948Y-126691514D01*
X94291431Y-126669742D01*
X94577362Y-126408485D01*
X94577362Y-126691514D01*
X94076982Y-126843914D02*
X94076982Y-127148714D01*
X94577362Y-126952771D01*
X116126362Y-102779085D02*
X115888086Y-102626685D01*
X116126362Y-102517828D02*
X115625982Y-102517828D01*
X115625982Y-102692000D01*
X115649810Y-102735542D01*
X115673638Y-102757314D01*
X115721293Y-102779085D01*
X115792776Y-102779085D01*
X115840431Y-102757314D01*
X115864259Y-102735542D01*
X115888086Y-102692000D01*
X115888086Y-102517828D01*
X115673638Y-102953257D02*
X115649810Y-102975028D01*
X115625982Y-103018571D01*
X115625982Y-103127428D01*
X115649810Y-103170971D01*
X115673638Y-103192742D01*
X115721293Y-103214514D01*
X115768948Y-103214514D01*
X115840431Y-103192742D01*
X116126362Y-102931485D01*
X116126362Y-103214514D01*
X116126362Y-103432229D02*
X116126362Y-103519314D01*
X116102535Y-103562857D01*
X116078707Y-103584629D01*
X116007224Y-103628171D01*
X115911914Y-103649943D01*
X115721293Y-103649943D01*
X115673638Y-103628171D01*
X115649810Y-103606400D01*
X115625982Y-103562857D01*
X115625982Y-103475771D01*
X115649810Y-103432229D01*
X115673638Y-103410457D01*
X115721293Y-103388686D01*
X115840431Y-103388686D01*
X115888086Y-103410457D01*
X115911914Y-103432229D01*
X115935741Y-103475771D01*
X115935741Y-103562857D01*
X115911914Y-103606400D01*
X115888086Y-103628171D01*
X115840431Y-103649943D01*
X104747362Y-93813085D02*
X104509086Y-93660685D01*
X104747362Y-93551828D02*
X104246982Y-93551828D01*
X104246982Y-93726000D01*
X104270810Y-93769542D01*
X104294638Y-93791314D01*
X104342293Y-93813085D01*
X104413776Y-93813085D01*
X104461431Y-93791314D01*
X104485259Y-93769542D01*
X104509086Y-93726000D01*
X104509086Y-93551828D01*
X104246982Y-93965485D02*
X104246982Y-94248514D01*
X104437603Y-94096114D01*
X104437603Y-94161428D01*
X104461431Y-94204971D01*
X104485259Y-94226742D01*
X104532914Y-94248514D01*
X104652052Y-94248514D01*
X104699707Y-94226742D01*
X104723535Y-94204971D01*
X104747362Y-94161428D01*
X104747362Y-94030800D01*
X104723535Y-93987257D01*
X104699707Y-93965485D01*
X104246982Y-94531543D02*
X104246982Y-94575086D01*
X104270810Y-94618629D01*
X104294638Y-94640400D01*
X104342293Y-94662171D01*
X104437603Y-94683943D01*
X104556741Y-94683943D01*
X104652052Y-94662171D01*
X104699707Y-94640400D01*
X104723535Y-94618629D01*
X104747362Y-94575086D01*
X104747362Y-94531543D01*
X104723535Y-94488000D01*
X104699707Y-94466229D01*
X104652052Y-94444457D01*
X104556741Y-94422686D01*
X104437603Y-94422686D01*
X104342293Y-94444457D01*
X104294638Y-94466229D01*
X104270810Y-94488000D01*
X104246982Y-94531543D01*
X90126362Y-125106085D02*
X89888086Y-124953685D01*
X90126362Y-124844828D02*
X89625982Y-124844828D01*
X89625982Y-125019000D01*
X89649810Y-125062542D01*
X89673638Y-125084314D01*
X89721293Y-125106085D01*
X89792776Y-125106085D01*
X89840431Y-125084314D01*
X89864259Y-125062542D01*
X89888086Y-125019000D01*
X89888086Y-124844828D01*
X89625982Y-125258485D02*
X89625982Y-125541514D01*
X89816603Y-125389114D01*
X89816603Y-125454428D01*
X89840431Y-125497971D01*
X89864259Y-125519742D01*
X89911914Y-125541514D01*
X90031052Y-125541514D01*
X90078707Y-125519742D01*
X90102535Y-125497971D01*
X90126362Y-125454428D01*
X90126362Y-125323800D01*
X90102535Y-125280257D01*
X90078707Y-125258485D01*
X89673638Y-125715686D02*
X89649810Y-125737457D01*
X89625982Y-125781000D01*
X89625982Y-125889857D01*
X89649810Y-125933400D01*
X89673638Y-125955171D01*
X89721293Y-125976943D01*
X89768948Y-125976943D01*
X89840431Y-125955171D01*
X90126362Y-125693914D01*
X90126362Y-125976943D01*
X94577362Y-124756085D02*
X94339086Y-124603685D01*
X94577362Y-124494828D02*
X94076982Y-124494828D01*
X94076982Y-124669000D01*
X94100810Y-124712542D01*
X94124638Y-124734314D01*
X94172293Y-124756085D01*
X94243776Y-124756085D01*
X94291431Y-124734314D01*
X94315259Y-124712542D01*
X94339086Y-124669000D01*
X94339086Y-124494828D01*
X94076982Y-124908485D02*
X94076982Y-125191514D01*
X94267603Y-125039114D01*
X94267603Y-125104428D01*
X94291431Y-125147971D01*
X94315259Y-125169742D01*
X94362914Y-125191514D01*
X94482052Y-125191514D01*
X94529707Y-125169742D01*
X94553535Y-125147971D01*
X94577362Y-125104428D01*
X94577362Y-124973800D01*
X94553535Y-124930257D01*
X94529707Y-124908485D01*
X94076982Y-125343914D02*
X94076982Y-125626943D01*
X94267603Y-125474543D01*
X94267603Y-125539857D01*
X94291431Y-125583400D01*
X94315259Y-125605171D01*
X94362914Y-125626943D01*
X94482052Y-125626943D01*
X94529707Y-125605171D01*
X94553535Y-125583400D01*
X94577362Y-125539857D01*
X94577362Y-125409229D01*
X94553535Y-125365686D01*
X94529707Y-125343914D01*
X103526362Y-101006085D02*
X103288086Y-100853685D01*
X103526362Y-100744828D02*
X103025982Y-100744828D01*
X103025982Y-100919000D01*
X103049810Y-100962542D01*
X103073638Y-100984314D01*
X103121293Y-101006085D01*
X103192776Y-101006085D01*
X103240431Y-100984314D01*
X103264259Y-100962542D01*
X103288086Y-100919000D01*
X103288086Y-100744828D01*
X103025982Y-101158485D02*
X103025982Y-101441514D01*
X103216603Y-101289114D01*
X103216603Y-101354428D01*
X103240431Y-101397971D01*
X103264259Y-101419742D01*
X103311914Y-101441514D01*
X103431052Y-101441514D01*
X103478707Y-101419742D01*
X103502535Y-101397971D01*
X103526362Y-101354428D01*
X103526362Y-101223800D01*
X103502535Y-101180257D01*
X103478707Y-101158485D01*
X103025982Y-101855171D02*
X103025982Y-101637457D01*
X103264259Y-101615686D01*
X103240431Y-101637457D01*
X103216603Y-101681000D01*
X103216603Y-101789857D01*
X103240431Y-101833400D01*
X103264259Y-101855171D01*
X103311914Y-101876943D01*
X103431052Y-101876943D01*
X103478707Y-101855171D01*
X103502535Y-101833400D01*
X103526362Y-101789857D01*
X103526362Y-101681000D01*
X103502535Y-101637457D01*
X103478707Y-101615686D01*
X103526362Y-98506085D02*
X103288086Y-98353685D01*
X103526362Y-98244828D02*
X103025982Y-98244828D01*
X103025982Y-98419000D01*
X103049810Y-98462542D01*
X103073638Y-98484314D01*
X103121293Y-98506085D01*
X103192776Y-98506085D01*
X103240431Y-98484314D01*
X103264259Y-98462542D01*
X103288086Y-98419000D01*
X103288086Y-98244828D01*
X103025982Y-98658485D02*
X103025982Y-98941514D01*
X103216603Y-98789114D01*
X103216603Y-98854428D01*
X103240431Y-98897971D01*
X103264259Y-98919742D01*
X103311914Y-98941514D01*
X103431052Y-98941514D01*
X103478707Y-98919742D01*
X103502535Y-98897971D01*
X103526362Y-98854428D01*
X103526362Y-98723800D01*
X103502535Y-98680257D01*
X103478707Y-98658485D01*
X103025982Y-99333400D02*
X103025982Y-99246314D01*
X103049810Y-99202771D01*
X103073638Y-99181000D01*
X103145120Y-99137457D01*
X103240431Y-99115686D01*
X103431052Y-99115686D01*
X103478707Y-99137457D01*
X103502535Y-99159229D01*
X103526362Y-99202771D01*
X103526362Y-99289857D01*
X103502535Y-99333400D01*
X103478707Y-99355171D01*
X103431052Y-99376943D01*
X103311914Y-99376943D01*
X103264259Y-99355171D01*
X103240431Y-99333400D01*
X103216603Y-99289857D01*
X103216603Y-99202771D01*
X103240431Y-99159229D01*
X103264259Y-99137457D01*
X103311914Y-99115686D01*
X112293915Y-127826362D02*
X112446315Y-127588086D01*
X112555172Y-127826362D02*
X112555172Y-127325982D01*
X112381000Y-127325982D01*
X112337458Y-127349810D01*
X112315686Y-127373638D01*
X112293915Y-127421293D01*
X112293915Y-127492776D01*
X112315686Y-127540431D01*
X112337458Y-127564259D01*
X112381000Y-127588086D01*
X112555172Y-127588086D01*
X112141515Y-127325982D02*
X111858486Y-127325982D01*
X112010886Y-127516603D01*
X111945572Y-127516603D01*
X111902029Y-127540431D01*
X111880258Y-127564259D01*
X111858486Y-127611914D01*
X111858486Y-127731052D01*
X111880258Y-127778707D01*
X111902029Y-127802535D01*
X111945572Y-127826362D01*
X112076200Y-127826362D01*
X112119743Y-127802535D01*
X112141515Y-127778707D01*
X111706086Y-127325982D02*
X111401286Y-127325982D01*
X111597229Y-127826362D01*
X110893915Y-127826362D02*
X111046315Y-127588086D01*
X111155172Y-127826362D02*
X111155172Y-127325982D01*
X110981000Y-127325982D01*
X110937458Y-127349810D01*
X110915686Y-127373638D01*
X110893915Y-127421293D01*
X110893915Y-127492776D01*
X110915686Y-127540431D01*
X110937458Y-127564259D01*
X110981000Y-127588086D01*
X111155172Y-127588086D01*
X110741515Y-127325982D02*
X110458486Y-127325982D01*
X110610886Y-127516603D01*
X110545572Y-127516603D01*
X110502029Y-127540431D01*
X110480258Y-127564259D01*
X110458486Y-127611914D01*
X110458486Y-127731052D01*
X110480258Y-127778707D01*
X110502029Y-127802535D01*
X110545572Y-127826362D01*
X110676200Y-127826362D01*
X110719743Y-127802535D01*
X110741515Y-127778707D01*
X110197229Y-127540431D02*
X110240771Y-127516603D01*
X110262543Y-127492776D01*
X110284314Y-127445120D01*
X110284314Y-127421293D01*
X110262543Y-127373638D01*
X110240771Y-127349810D01*
X110197229Y-127325982D01*
X110110143Y-127325982D01*
X110066600Y-127349810D01*
X110044829Y-127373638D01*
X110023057Y-127421293D01*
X110023057Y-127445120D01*
X110044829Y-127492776D01*
X110066600Y-127516603D01*
X110110143Y-127540431D01*
X110197229Y-127540431D01*
X110240771Y-127564259D01*
X110262543Y-127588086D01*
X110284314Y-127635741D01*
X110284314Y-127731052D01*
X110262543Y-127778707D01*
X110240771Y-127802535D01*
X110197229Y-127826362D01*
X110110143Y-127826362D01*
X110066600Y-127802535D01*
X110044829Y-127778707D01*
X110023057Y-127731052D01*
X110023057Y-127635741D01*
X110044829Y-127588086D01*
X110066600Y-127564259D01*
X110110143Y-127540431D01*
X90326362Y-100506085D02*
X90088086Y-100353685D01*
X90326362Y-100244828D02*
X89825982Y-100244828D01*
X89825982Y-100419000D01*
X89849810Y-100462542D01*
X89873638Y-100484314D01*
X89921293Y-100506085D01*
X89992776Y-100506085D01*
X90040431Y-100484314D01*
X90064259Y-100462542D01*
X90088086Y-100419000D01*
X90088086Y-100244828D01*
X89992776Y-100897971D02*
X90326362Y-100897971D01*
X89802155Y-100789114D02*
X90159569Y-100680257D01*
X90159569Y-100963285D01*
X89825982Y-101093914D02*
X89825982Y-101376943D01*
X90016603Y-101224543D01*
X90016603Y-101289857D01*
X90040431Y-101333400D01*
X90064259Y-101355171D01*
X90111914Y-101376943D01*
X90231052Y-101376943D01*
X90278707Y-101355171D01*
X90302535Y-101333400D01*
X90326362Y-101289857D01*
X90326362Y-101159229D01*
X90302535Y-101115686D01*
X90278707Y-101093914D01*
X90326362Y-97806085D02*
X90088086Y-97653685D01*
X90326362Y-97544828D02*
X89825982Y-97544828D01*
X89825982Y-97719000D01*
X89849810Y-97762542D01*
X89873638Y-97784314D01*
X89921293Y-97806085D01*
X89992776Y-97806085D01*
X90040431Y-97784314D01*
X90064259Y-97762542D01*
X90088086Y-97719000D01*
X90088086Y-97544828D01*
X89992776Y-98197971D02*
X90326362Y-98197971D01*
X89802155Y-98089114D02*
X90159569Y-97980257D01*
X90159569Y-98263285D01*
X89825982Y-98633400D02*
X89825982Y-98546314D01*
X89849810Y-98502771D01*
X89873638Y-98481000D01*
X89945120Y-98437457D01*
X90040431Y-98415686D01*
X90231052Y-98415686D01*
X90278707Y-98437457D01*
X90302535Y-98459229D01*
X90326362Y-98502771D01*
X90326362Y-98589857D01*
X90302535Y-98633400D01*
X90278707Y-98655171D01*
X90231052Y-98676943D01*
X90111914Y-98676943D01*
X90064259Y-98655171D01*
X90040431Y-98633400D01*
X90016603Y-98589857D01*
X90016603Y-98502771D01*
X90040431Y-98459229D01*
X90064259Y-98437457D01*
X90111914Y-98415686D01*
D25*
X105591429Y-105192285D02*
X104865714Y-104684285D01*
X105591429Y-104321428D02*
X104067429Y-104321428D01*
X104067429Y-104902000D01*
X104140000Y-105047142D01*
X104212571Y-105119714D01*
X104357714Y-105192285D01*
X104575429Y-105192285D01*
X104720571Y-105119714D01*
X104793143Y-105047142D01*
X104865714Y-104902000D01*
X104865714Y-104321428D01*
X104067429Y-106571142D02*
X104067429Y-105845428D01*
X104793143Y-105772857D01*
X104720571Y-105845428D01*
X104648000Y-105990571D01*
X104648000Y-106353428D01*
X104720571Y-106498571D01*
X104793143Y-106571142D01*
X104938286Y-106643714D01*
X105301143Y-106643714D01*
X105446286Y-106571142D01*
X105518857Y-106498571D01*
X105591429Y-106353428D01*
X105591429Y-105990571D01*
X105518857Y-105845428D01*
X105446286Y-105772857D01*
X104067429Y-107151714D02*
X104067429Y-108095143D01*
X104648000Y-107587143D01*
X104648000Y-107804857D01*
X104720571Y-107950000D01*
X104793143Y-108022571D01*
X104938286Y-108095143D01*
X105301143Y-108095143D01*
X105446286Y-108022571D01*
X105518857Y-107950000D01*
X105591429Y-107804857D01*
X105591429Y-107369429D01*
X105518857Y-107224286D01*
X105446286Y-107151714D01*
X90859429Y-104938285D02*
X90133714Y-104430285D01*
X90859429Y-104067428D02*
X89335429Y-104067428D01*
X89335429Y-104648000D01*
X89408000Y-104793142D01*
X89480571Y-104865714D01*
X89625714Y-104938285D01*
X89843429Y-104938285D01*
X89988571Y-104865714D01*
X90061143Y-104793142D01*
X90133714Y-104648000D01*
X90133714Y-104067428D01*
X89335429Y-106317142D02*
X89335429Y-105591428D01*
X90061143Y-105518857D01*
X89988571Y-105591428D01*
X89916000Y-105736571D01*
X89916000Y-106099428D01*
X89988571Y-106244571D01*
X90061143Y-106317142D01*
X90206286Y-106389714D01*
X90569143Y-106389714D01*
X90714286Y-106317142D01*
X90786857Y-106244571D01*
X90859429Y-106099428D01*
X90859429Y-105736571D01*
X90786857Y-105591428D01*
X90714286Y-105518857D01*
X89843429Y-107696000D02*
X90859429Y-107696000D01*
X89262857Y-107333143D02*
X90351429Y-106970286D01*
X90351429Y-107913714D01*
D22*
X83226362Y-131288371D02*
X82988086Y-131135971D01*
X83226362Y-131027114D02*
X82725982Y-131027114D01*
X82725982Y-131201286D01*
X82749810Y-131244828D01*
X82773638Y-131266600D01*
X82821293Y-131288371D01*
X82892776Y-131288371D01*
X82940431Y-131266600D01*
X82964259Y-131244828D01*
X82988086Y-131201286D01*
X82988086Y-131027114D01*
X82892776Y-131680257D02*
X83226362Y-131680257D01*
X82702155Y-131571400D02*
X83059569Y-131462543D01*
X83059569Y-131745571D01*
X82725982Y-132006829D02*
X82725982Y-132050372D01*
X82749810Y-132093915D01*
X82773638Y-132115686D01*
X82821293Y-132137457D01*
X82916603Y-132159229D01*
X83035741Y-132159229D01*
X83131052Y-132137457D01*
X83178707Y-132115686D01*
X83202535Y-132093915D01*
X83226362Y-132050372D01*
X83226362Y-132006829D01*
X83202535Y-131963286D01*
X83178707Y-131941515D01*
X83131052Y-131919743D01*
X83035741Y-131897972D01*
X82916603Y-131897972D01*
X82821293Y-131919743D01*
X82773638Y-131941515D01*
X82749810Y-131963286D01*
X82725982Y-132006829D01*
X82773638Y-132333401D02*
X82749810Y-132355172D01*
X82725982Y-132398715D01*
X82725982Y-132507572D01*
X82749810Y-132551115D01*
X82773638Y-132572886D01*
X82821293Y-132594658D01*
X82868948Y-132594658D01*
X82940431Y-132572886D01*
X83226362Y-132311629D01*
X83226362Y-132594658D01*
%LPC*%
D26*
X108633260Y-133096000D03*
X112092740Y-133096000D03*
D27*
X97033080Y-134853680D03*
X97033080Y-132354320D03*
X100832920Y-132354320D03*
X100832920Y-134853680D03*
D28*
X80450000Y-119728280D03*
D29*
X80450000Y-115725240D03*
X80450000Y-117726760D03*
X80450000Y-113726260D03*
D30*
X108712000Y-136398000D03*
X111252000Y-136398000D03*
X113792000Y-136398000D03*
D31*
X92202000Y-118364000D03*
D32*
X85598000Y-118364000D03*
X85598000Y-116078000D03*
X85598000Y-120650000D03*
D33*
X92000000Y-83000000D03*
X103500000Y-83000000D03*
D34*
X105537000Y-111760000D03*
X108839000Y-111760000D03*
D35*
X112268000Y-111633000D03*
X112268000Y-108331000D03*
D34*
X102549000Y-116300000D03*
X105851000Y-116300000D03*
D36*
X83700000Y-126838000D03*
X83700000Y-128362000D03*
D10*
G36*
X112373210Y-128118567D02*
X113181433Y-128926790D01*
X112732420Y-129375803D01*
X111924197Y-128567580D01*
X112373210Y-128118567D01*
X112373210Y-128118567D01*
G37*
G36*
X111295580Y-129196197D02*
X112103803Y-130004420D01*
X111654790Y-130453433D01*
X110846567Y-129645210D01*
X111295580Y-129196197D01*
X111295580Y-129196197D01*
G37*
D36*
X81788000Y-133604000D03*
X81788000Y-135128000D03*
X92456000Y-132588000D03*
X92456000Y-131064000D03*
X90900000Y-132562000D03*
X90900000Y-131038000D03*
X86350000Y-132562000D03*
X86350000Y-131038000D03*
X96012000Y-124079000D03*
X96012000Y-125603000D03*
D37*
X96774000Y-130810000D03*
X98298000Y-130810000D03*
D36*
X107600000Y-126762000D03*
X107600000Y-125238000D03*
X97663000Y-125603000D03*
X97663000Y-124079000D03*
D38*
X100012500Y-120142000D03*
X101917500Y-120142000D03*
D36*
X105918000Y-123571000D03*
X105918000Y-122047000D03*
X85090000Y-123698000D03*
X85090000Y-122174000D03*
D39*
X80550000Y-125174000D03*
X80550000Y-122126000D03*
D37*
X103251000Y-133858000D03*
X104775000Y-133858000D03*
X95250000Y-135763000D03*
X93726000Y-135763000D03*
D39*
X83000000Y-116776000D03*
X83000000Y-119824000D03*
D37*
X101092000Y-130810000D03*
X99568000Y-130810000D03*
D34*
X92329000Y-112268000D03*
X95631000Y-112268000D03*
X94488000Y-116205000D03*
X97790000Y-116205000D03*
X94488000Y-118618000D03*
X97790000Y-118618000D03*
D40*
X110490000Y-120431560D03*
X110490000Y-115280440D03*
D36*
X107442000Y-123571000D03*
X107442000Y-122047000D03*
D41*
X111887000Y-123939300D03*
X111887000Y-122440700D03*
X110450000Y-123949300D03*
X110450000Y-122450700D03*
X109050000Y-123949300D03*
X109050000Y-122450700D03*
D42*
X84495640Y-113030000D03*
X89494360Y-113030000D03*
D43*
X86099240Y-137200000D03*
X88100760Y-137200000D03*
X90099740Y-137200000D03*
X92101260Y-137200000D03*
X84100260Y-137200000D03*
X82098740Y-137200000D03*
X114300000Y-126253240D03*
X114300000Y-128254760D03*
X114300000Y-130253740D03*
X114300000Y-132255260D03*
X114300000Y-124254260D03*
X114300000Y-122252740D03*
X114300000Y-112029240D03*
X114300000Y-114030760D03*
X114300000Y-116029740D03*
X114300000Y-118031260D03*
X114300000Y-110030260D03*
X114300000Y-108028740D03*
D44*
X81661000Y-108077000D03*
X97536000Y-105664000D03*
D45*
X110744000Y-89984580D03*
D46*
X114554000Y-100586540D03*
X113284000Y-100586540D03*
X112014000Y-100586540D03*
X109474000Y-100586540D03*
X108204000Y-100586540D03*
X106934000Y-100586540D03*
D45*
X97917000Y-89984580D03*
D46*
X101727000Y-100586540D03*
X100457000Y-100586540D03*
X99187000Y-100586540D03*
X96647000Y-100586540D03*
X95377000Y-100586540D03*
X94107000Y-100586540D03*
D45*
X84836000Y-89984580D03*
D46*
X88646000Y-100586540D03*
X87376000Y-100586540D03*
X86106000Y-100586540D03*
X83566000Y-100586540D03*
X82296000Y-100586540D03*
X81026000Y-100586540D03*
D36*
X85200000Y-125338000D03*
X85200000Y-126862000D03*
X85200000Y-129762000D03*
X85200000Y-128238000D03*
X106426000Y-131572000D03*
X106426000Y-133096000D03*
D37*
X81012000Y-129300000D03*
X79488000Y-129300000D03*
D36*
X83312000Y-135128000D03*
X83312000Y-133604000D03*
X86360000Y-135128000D03*
X86360000Y-133604000D03*
X89408000Y-135128000D03*
X89408000Y-133604000D03*
X92456000Y-135128000D03*
X92456000Y-133604000D03*
X90932000Y-135128000D03*
X90932000Y-133604000D03*
X87884000Y-135128000D03*
X87884000Y-133604000D03*
X84836000Y-135128000D03*
X84836000Y-133604000D03*
D37*
X104267000Y-123063000D03*
X102743000Y-123063000D03*
X98679000Y-120777000D03*
X97155000Y-120777000D03*
X93472000Y-121666000D03*
X94996000Y-121666000D03*
D36*
X109100000Y-125238000D03*
X109100000Y-126762000D03*
D37*
X87503000Y-128524000D03*
X89027000Y-128524000D03*
X93462000Y-128050000D03*
X91938000Y-128050000D03*
X87503000Y-127000000D03*
X89027000Y-127000000D03*
X93462000Y-126550000D03*
X91938000Y-126550000D03*
X114808000Y-103124000D03*
X113284000Y-103124000D03*
D36*
X104394000Y-96901000D03*
X104394000Y-95377000D03*
D37*
X87488000Y-125450000D03*
X89012000Y-125450000D03*
X93462000Y-125050000D03*
X91938000Y-125050000D03*
D36*
X104394000Y-100584000D03*
X104394000Y-102108000D03*
X104394000Y-98044000D03*
X104394000Y-99568000D03*
X112100000Y-125238000D03*
X112100000Y-126762000D03*
X110600000Y-125238000D03*
X110600000Y-126762000D03*
X91186000Y-100076000D03*
X91186000Y-101600000D03*
X91186000Y-97282000D03*
X91186000Y-98806000D03*
D47*
X101663500Y-105664000D03*
X108140500Y-105664000D03*
D48*
X101663500Y-109791500D03*
X108140500Y-109791500D03*
D47*
X86931500Y-105410000D03*
X93408500Y-105410000D03*
D48*
X86931500Y-109537500D03*
X93408500Y-109537500D03*
D49*
X82700000Y-125800000D03*
X82700000Y-129800000D03*
D36*
X84050000Y-132562000D03*
X84050000Y-131038000D03*
D33*
X114000000Y-142000000D03*
X81500000Y-142000000D03*
D50*
G36*
X100711000Y-103759000D02*
X93980000Y-103759000D01*
X93980000Y-99187000D01*
X100711000Y-99187000D01*
X100711000Y-103759000D01*
X100711000Y-103759000D01*
G37*
X100711000Y-103759000D02*
X93980000Y-103759000D01*
X93980000Y-99187000D01*
X100711000Y-99187000D01*
X100711000Y-103759000D01*
G36*
X87503000Y-105537000D02*
X85904605Y-105537000D01*
X83618605Y-103251000D01*
X80391000Y-103251000D01*
X80391000Y-98933000D01*
X87503000Y-98933000D01*
X87503000Y-105537000D01*
X87503000Y-105537000D01*
G37*
X87503000Y-105537000D02*
X85904605Y-105537000D01*
X83618605Y-103251000D01*
X80391000Y-103251000D01*
X80391000Y-98933000D01*
X87503000Y-98933000D01*
X87503000Y-105537000D01*
G36*
X113157000Y-101981000D02*
X111834395Y-101981000D01*
X110236000Y-103579395D01*
X110236000Y-104722395D01*
X109167395Y-105791000D01*
X107315000Y-105791000D01*
X107315000Y-102055395D01*
X106299000Y-101039395D01*
X106299000Y-98858605D01*
X107494605Y-97663000D01*
X112215395Y-97663000D01*
X113157000Y-98604605D01*
X113157000Y-101981000D01*
X113157000Y-101981000D01*
G37*
X113157000Y-101981000D02*
X111834395Y-101981000D01*
X110236000Y-103579395D01*
X110236000Y-104722395D01*
X109167395Y-105791000D01*
X107315000Y-105791000D01*
X107315000Y-102055395D01*
X106299000Y-101039395D01*
X106299000Y-98858605D01*
X107494605Y-97663000D01*
X112215395Y-97663000D01*
X113157000Y-98604605D01*
X113157000Y-101981000D01*
M02*
