%FSLAX46Y46*%
G04 Gerber Fmt 4.6, Leading zero omitted, Abs format (unit mm)*
G04 Created by KiCad (PCBNEW (2014-08-29 BZR 5106)-product) date tor  8 jan 2015 14:28:26*
%MOMM*%
G01*
G04 APERTURE LIST*
%ADD10C,0.150000*%
%ADD11R,2.540000X1.699260*%
%ADD12R,1.800860X1.198880*%
%ADD13R,1.699260X1.198880*%
%ADD14O,1.699260X1.198880*%
%ADD15O,1.524000X3.048000*%
%ADD16R,2.032000X3.657600*%
%ADD17R,2.032000X1.016000*%
%ADD18C,4.064000*%
%ADD19R,1.524000X2.032000*%
%ADD20R,2.032000X1.524000*%
%ADD21R,1.143000X0.635000*%
%ADD22R,0.635000X1.143000*%
%ADD23R,0.889000X1.397000*%
%ADD24R,2.499360X1.950720*%
%ADD25R,5.499100X1.849120*%
%ADD26R,0.797560X0.797560*%
%ADD27R,3.500120X1.800860*%
%ADD28C,1.300480*%
%ADD29R,4.000000X5.000000*%
%ADD30R,10.800080X8.150860*%
%ADD31R,0.899160X3.200400*%
%ADD32R,2.438400X5.588000*%
%ADD33R,2.438400X0.889000*%
%ADD34C,0.900000*%
%ADD35C,0.254000*%
G04 APERTURE END LIST*
D10*
D11*
X108633260Y-133096000D03*
X112092740Y-133096000D03*
D12*
X97033080Y-134853680D03*
X97033080Y-132354320D03*
X100832920Y-132354320D03*
X100832920Y-134853680D03*
D13*
X80450000Y-119728280D03*
D14*
X80450000Y-115725240D03*
X80450000Y-117726760D03*
X80450000Y-113726260D03*
D15*
X108712000Y-136398000D03*
X111252000Y-136398000D03*
X113792000Y-136398000D03*
D16*
X92202000Y-118364000D03*
D17*
X85598000Y-118364000D03*
X85598000Y-116078000D03*
X85598000Y-120650000D03*
D18*
X92000000Y-83000000D03*
X103500000Y-83000000D03*
D19*
X105537000Y-111760000D03*
X108839000Y-111760000D03*
D20*
X112268000Y-111633000D03*
X112268000Y-108331000D03*
D19*
X102549000Y-116300000D03*
X105851000Y-116300000D03*
D21*
X83700000Y-126838000D03*
X83700000Y-128362000D03*
D10*
G36*
X112373210Y-128118567D02*
X113181433Y-128926790D01*
X112732420Y-129375803D01*
X111924197Y-128567580D01*
X112373210Y-128118567D01*
X112373210Y-128118567D01*
G37*
G36*
X111295580Y-129196197D02*
X112103803Y-130004420D01*
X111654790Y-130453433D01*
X110846567Y-129645210D01*
X111295580Y-129196197D01*
X111295580Y-129196197D01*
G37*
D21*
X81788000Y-133604000D03*
X81788000Y-135128000D03*
X92456000Y-132588000D03*
X92456000Y-131064000D03*
X90900000Y-132562000D03*
X90900000Y-131038000D03*
X86350000Y-132562000D03*
X86350000Y-131038000D03*
X96012000Y-124079000D03*
X96012000Y-125603000D03*
D22*
X96774000Y-130810000D03*
X98298000Y-130810000D03*
D21*
X107600000Y-126762000D03*
X107600000Y-125238000D03*
X97663000Y-125603000D03*
X97663000Y-124079000D03*
D23*
X100012500Y-120142000D03*
X101917500Y-120142000D03*
D21*
X105918000Y-123571000D03*
X105918000Y-122047000D03*
X85090000Y-123698000D03*
X85090000Y-122174000D03*
D24*
X80550000Y-125174000D03*
X80550000Y-122126000D03*
D22*
X103251000Y-133858000D03*
X104775000Y-133858000D03*
X95250000Y-135763000D03*
X93726000Y-135763000D03*
D24*
X83000000Y-116776000D03*
X83000000Y-119824000D03*
D22*
X101092000Y-130810000D03*
X99568000Y-130810000D03*
D19*
X92329000Y-112268000D03*
X95631000Y-112268000D03*
X94488000Y-116205000D03*
X97790000Y-116205000D03*
X94488000Y-118618000D03*
X97790000Y-118618000D03*
D25*
X110490000Y-120431560D03*
X110490000Y-115280440D03*
D21*
X107442000Y-123571000D03*
X107442000Y-122047000D03*
D26*
X111887000Y-123939300D03*
X111887000Y-122440700D03*
X110450000Y-123949300D03*
X110450000Y-122450700D03*
X109050000Y-123949300D03*
X109050000Y-122450700D03*
D27*
X84495640Y-113030000D03*
X89494360Y-113030000D03*
D28*
X86099240Y-137200000D03*
X88100760Y-137200000D03*
X90099740Y-137200000D03*
X92101260Y-137200000D03*
X84100260Y-137200000D03*
X82098740Y-137200000D03*
X114300000Y-126253240D03*
X114300000Y-128254760D03*
X114300000Y-130253740D03*
X114300000Y-132255260D03*
X114300000Y-124254260D03*
X114300000Y-122252740D03*
X114300000Y-112029240D03*
X114300000Y-114030760D03*
X114300000Y-116029740D03*
X114300000Y-118031260D03*
X114300000Y-110030260D03*
X114300000Y-108028740D03*
D29*
X81661000Y-108077000D03*
X97536000Y-105664000D03*
D30*
X110744000Y-89984580D03*
D31*
X114554000Y-100586540D03*
X113284000Y-100586540D03*
X112014000Y-100586540D03*
X109474000Y-100586540D03*
X108204000Y-100586540D03*
X106934000Y-100586540D03*
D30*
X97917000Y-89984580D03*
D31*
X101727000Y-100586540D03*
X100457000Y-100586540D03*
X99187000Y-100586540D03*
X96647000Y-100586540D03*
X95377000Y-100586540D03*
X94107000Y-100586540D03*
D30*
X84836000Y-89984580D03*
D31*
X88646000Y-100586540D03*
X87376000Y-100586540D03*
X86106000Y-100586540D03*
X83566000Y-100586540D03*
X82296000Y-100586540D03*
X81026000Y-100586540D03*
D21*
X85200000Y-125338000D03*
X85200000Y-126862000D03*
X85200000Y-129762000D03*
X85200000Y-128238000D03*
X106426000Y-131572000D03*
X106426000Y-133096000D03*
D22*
X81012000Y-129300000D03*
X79488000Y-129300000D03*
D21*
X83312000Y-135128000D03*
X83312000Y-133604000D03*
X86360000Y-135128000D03*
X86360000Y-133604000D03*
X89408000Y-135128000D03*
X89408000Y-133604000D03*
X92456000Y-135128000D03*
X92456000Y-133604000D03*
X90932000Y-135128000D03*
X90932000Y-133604000D03*
X87884000Y-135128000D03*
X87884000Y-133604000D03*
X84836000Y-135128000D03*
X84836000Y-133604000D03*
D22*
X104267000Y-123063000D03*
X102743000Y-123063000D03*
X98679000Y-120777000D03*
X97155000Y-120777000D03*
X93472000Y-121666000D03*
X94996000Y-121666000D03*
D21*
X109100000Y-125238000D03*
X109100000Y-126762000D03*
D22*
X87503000Y-128524000D03*
X89027000Y-128524000D03*
X93462000Y-128050000D03*
X91938000Y-128050000D03*
X87503000Y-127000000D03*
X89027000Y-127000000D03*
X93462000Y-126550000D03*
X91938000Y-126550000D03*
X114808000Y-103124000D03*
X113284000Y-103124000D03*
D21*
X104394000Y-96901000D03*
X104394000Y-95377000D03*
D22*
X87488000Y-125450000D03*
X89012000Y-125450000D03*
X93462000Y-125050000D03*
X91938000Y-125050000D03*
D21*
X104394000Y-100584000D03*
X104394000Y-102108000D03*
X104394000Y-98044000D03*
X104394000Y-99568000D03*
X112100000Y-125238000D03*
X112100000Y-126762000D03*
X110600000Y-125238000D03*
X110600000Y-126762000D03*
X91186000Y-100076000D03*
X91186000Y-101600000D03*
X91186000Y-97282000D03*
X91186000Y-98806000D03*
D32*
X101663500Y-105664000D03*
X108140500Y-105664000D03*
D33*
X101663500Y-109791500D03*
X108140500Y-109791500D03*
D32*
X86931500Y-105410000D03*
X93408500Y-105410000D03*
D33*
X86931500Y-109537500D03*
X93408500Y-109537500D03*
D34*
X82700000Y-125800000D03*
X82700000Y-129800000D03*
D21*
X84050000Y-132562000D03*
X84050000Y-131038000D03*
D18*
X114000000Y-142000000D03*
X81500000Y-142000000D03*
D35*
G36*
X100711000Y-103759000D02*
X93980000Y-103759000D01*
X93980000Y-99187000D01*
X100711000Y-99187000D01*
X100711000Y-103759000D01*
X100711000Y-103759000D01*
G37*
X100711000Y-103759000D02*
X93980000Y-103759000D01*
X93980000Y-99187000D01*
X100711000Y-99187000D01*
X100711000Y-103759000D01*
G36*
X87503000Y-105537000D02*
X85904605Y-105537000D01*
X83618605Y-103251000D01*
X80391000Y-103251000D01*
X80391000Y-98933000D01*
X87503000Y-98933000D01*
X87503000Y-105537000D01*
X87503000Y-105537000D01*
G37*
X87503000Y-105537000D02*
X85904605Y-105537000D01*
X83618605Y-103251000D01*
X80391000Y-103251000D01*
X80391000Y-98933000D01*
X87503000Y-98933000D01*
X87503000Y-105537000D01*
G36*
X113157000Y-101981000D02*
X111834395Y-101981000D01*
X110236000Y-103579395D01*
X110236000Y-104722395D01*
X109167395Y-105791000D01*
X107315000Y-105791000D01*
X107315000Y-102055395D01*
X106299000Y-101039395D01*
X106299000Y-98858605D01*
X107494605Y-97663000D01*
X112215395Y-97663000D01*
X113157000Y-98604605D01*
X113157000Y-101981000D01*
X113157000Y-101981000D01*
G37*
X113157000Y-101981000D02*
X111834395Y-101981000D01*
X110236000Y-103579395D01*
X110236000Y-104722395D01*
X109167395Y-105791000D01*
X107315000Y-105791000D01*
X107315000Y-102055395D01*
X106299000Y-101039395D01*
X106299000Y-98858605D01*
X107494605Y-97663000D01*
X112215395Y-97663000D01*
X113157000Y-98604605D01*
X113157000Y-101981000D01*
M02*
