M48
INCH,TZ
T1C0.020
T2C0.030
T3C0.031
T4C0.039
T5C0.040
T6C0.120
%
G90
G05
T1
X3.126Y-5.0315
X3.1732Y-4.7992
X3.2205Y-4.4409
X3.252Y-5.0512
X3.3031Y-4.9331
X3.3031Y-5.122
X3.3425Y-5.2205
X3.3436Y-5.1616
X3.385Y-4.525
X3.3976Y-4.9685
X3.4055Y-5.0499
X3.415Y-4.925
X3.4685Y-4.878
X3.47Y-5.185
X3.4761Y-5.1044
X3.5Y-4.635
X3.5Y-4.6772
X3.505Y-4.35
X3.5218Y-5.2235
X3.54Y-4.27
X3.5512Y-5.0118
X3.5534Y-5.1839
X3.575Y-4.31
X3.575Y-4.525
X3.58Y-4.98
X3.5906Y-4.7008
X3.5906Y-4.8661
X3.5945Y-5.0492
X3.595Y-3.55
X3.6Y-3.42
X3.6Y-3.595
X3.6Y-4.015
X3.6Y-4.905
X3.6151Y-4.8301
X3.62Y-4.525
X3.6555Y-5.1024
X3.6741Y-5.0612
X3.68Y-5.415
X3.6852Y-5.2244
X3.6953Y-5.0933
X3.7Y-4.465
X3.725Y-4.745
X3.765Y-5.4
X3.7736Y-4.9764
X3.7972Y-4.6476
X3.8Y-5.095
X3.805Y-4.49
X3.815Y-5.025
X3.82Y-4.845
X3.82Y-5.25
X3.8327Y-4.9843
X3.865Y-5.045
X3.8784Y-5.3381
X3.88Y-4.6
X3.88Y-4.815
X3.8917Y-4.9862
X3.8981Y-4.4571
X3.905Y-5.2256
X3.91Y-4.625
X3.9124Y-5.2831
X3.925Y-4.3
X3.94Y-5.05
X3.9544Y-4.4581
X3.955Y-4.84
X3.96Y-4.66
X3.9646Y-4.9843
X3.975Y-4.785
X3.99Y-5.06
X3.995Y-4.46
X4.Y-5.4364
X4.0248Y-4.664
X4.035Y-5.035
X4.04Y-4.46
X4.065Y-5.23
X4.07Y-4.78
X4.08Y-5.035
X4.08Y-5.4364
X4.085Y-4.664
X4.0866Y-4.5256
X4.09Y-4.4551
X4.0913Y-4.0191
X4.1065Y-5.1435
X4.11Y-3.61
X4.12Y-4.11
X4.12Y-5.02
X4.13Y-4.29
X4.1311Y-4.6629
X4.135Y-5.18
X4.145Y-4.935
X4.145Y-4.985
X4.145Y-5.135
X4.15Y-4.175
X4.155Y-4.05
X4.155Y-4.13
X4.155Y-4.785
X4.165Y-5.36
X4.187Y-4.9843
X4.205Y-4.47
X4.21Y-4.655
X4.215Y-5.405
X4.2205Y-5.345
X4.2421Y-4.9035
X4.2521Y-4.0837
X4.26Y-5.045
X4.26Y-5.14
X4.285Y-5.105
X4.2953Y-5.0177
X4.3221Y-4.8211
X4.355Y-4.19
X4.365Y-4.66
X4.365Y-4.7
X4.37Y-4.1
X4.375Y-4.465
X4.395Y-4.19
X4.4Y-4.125
X4.405Y-4.06
X4.44Y-5.17
X4.52Y-3.225
X4.57Y-3.95
X4.5709Y-3.9882
T2
X3.15Y-4.15
X3.15Y-4.22
X3.15Y-4.29
X3.15Y-4.36
X3.19Y-3.43
X3.19Y-3.51
X3.19Y-3.58
X3.22Y-4.15
X3.22Y-4.22
X3.22Y-4.29
X3.22Y-4.36
X3.26Y-3.43
X3.26Y-3.51
X3.26Y-3.58
X3.28Y-3.21
X3.29Y-4.15
X3.29Y-4.22
X3.29Y-4.29
X3.29Y-4.36
X3.33Y-3.43
X3.33Y-3.51
X3.33Y-3.58
X3.35Y-3.21
X3.4Y-3.43
X3.4Y-3.51
X3.4Y-3.58
X3.42Y-3.21
X3.68Y-4.065
X3.68Y-4.125
X3.68Y-4.185
X3.7Y-3.43
X3.7Y-3.5
X3.7Y-3.57
X3.74Y-4.065
X3.74Y-4.125
X3.74Y-4.185
X3.77Y-3.43
X3.77Y-3.5
X3.77Y-3.57
X3.785Y-3.21
X3.85Y-3.21
X3.85Y-3.43
X3.85Y-3.5
X3.85Y-3.57
X3.915Y-3.21
X3.93Y-3.43
X3.93Y-3.5
X3.93Y-3.57
X4.21Y-3.42
X4.21Y-3.49
X4.21Y-3.56
X4.24Y-3.21
X4.29Y-3.42
X4.29Y-3.49
X4.29Y-3.56
X4.31Y-3.21
X4.36Y-3.42
X4.36Y-3.49
X4.36Y-3.56
X4.38Y-3.21
X4.43Y-3.42
X4.43Y-3.49
X4.43Y-3.56
T3
X3.1673Y-4.4774
X3.1673Y-4.5561
X3.1673Y-4.6349
X3.1673Y-4.7137
X3.2322Y-5.4016
X3.311Y-5.4016
X3.3897Y-5.4016
X3.4685Y-5.4016
X3.5472Y-5.4016
X3.626Y-5.4016
X4.5Y-4.1738
X4.5Y-4.2525
X4.5Y-4.3313
X4.5Y-4.4101
X4.5Y-4.4888
X4.5Y-4.5676
X4.5Y-4.6464
X4.5Y-4.8131
X4.5Y-4.8919
X4.5Y-4.9706
X4.5Y-5.0494
X4.5Y-5.1281
X4.5Y-5.2069
T4
X3.2559Y-4.9528
X3.2559Y-5.1102
T5
X4.28Y-5.37
X4.38Y-5.37
X4.48Y-5.37
T6
X3.2087Y-5.5906
X3.622Y-3.2677
X4.0748Y-3.2677
X4.4882Y-5.5906
T0
M30
