G04 #@! TF.FileFunction,Paste,Top*
%FSLAX46Y46*%
G04 Gerber Fmt 4.6, Leading zero omitted, Abs format (unit mm)*
G04 Created by KiCad (PCBNEW (2015-08-21 BZR 6112)-product) date ons  3 feb 2016 15:49:01*
%MOMM*%
G01*
G04 APERTURE LIST*
%ADD10C,0.150000*%
%ADD11R,10.800080X8.150860*%
%ADD12R,0.899160X3.200400*%
%ADD13R,1.849120X5.499100*%
%ADD14R,2.997200X7.498080*%
%ADD15R,5.000000X4.000000*%
%ADD16R,0.300000X1.300480*%
%ADD17R,1.300480X0.300000*%
%ADD18R,0.299720X1.501140*%
%ADD19R,7.000240X3.599180*%
%ADD20R,1.524000X2.032000*%
%ADD21R,1.143000X0.635000*%
%ADD22R,0.635000X1.143000*%
%ADD23R,2.032000X1.524000*%
%ADD24R,1.399540X0.599440*%
%ADD25R,1.500000X0.500000*%
%ADD26R,2.200000X2.400000*%
%ADD27R,2.200000X2.000000*%
G04 APERTURE END LIST*
D10*
D11*
X84709000Y-97848420D03*
D12*
X88519000Y-87246460D03*
X87249000Y-87246460D03*
X85979000Y-87246460D03*
X83439000Y-87246460D03*
X82169000Y-87246460D03*
X80899000Y-87246460D03*
D13*
X93380560Y-105918000D03*
X88229440Y-105918000D03*
D14*
X91399360Y-115062000D03*
X86400640Y-115062000D03*
D15*
X85090000Y-82804000D03*
X97790000Y-82804000D03*
X109474000Y-82804000D03*
D11*
X110744000Y-97848420D03*
D12*
X114554000Y-87246460D03*
X113284000Y-87246460D03*
X112014000Y-87246460D03*
X109474000Y-87246460D03*
X108204000Y-87246460D03*
X106934000Y-87246460D03*
D11*
X97917000Y-97848420D03*
D12*
X101727000Y-87246460D03*
X100457000Y-87246460D03*
X99187000Y-87246460D03*
X96647000Y-87246460D03*
X95377000Y-87246460D03*
X94107000Y-87246460D03*
D16*
X98587560Y-136814560D03*
X99087940Y-136814560D03*
X99588320Y-136814560D03*
X100088700Y-136814560D03*
X100589080Y-136814560D03*
X97088960Y-136814560D03*
X97586800Y-136814560D03*
X98087180Y-136814560D03*
D17*
X106588560Y-134813040D03*
X106588560Y-134315200D03*
X106588560Y-133814820D03*
X106588560Y-133314440D03*
X106588560Y-132814060D03*
X106588560Y-132313680D03*
X106588560Y-131813300D03*
X106588560Y-131312920D03*
D16*
X104587040Y-125313440D03*
X104089200Y-125313440D03*
X103588820Y-125313440D03*
X103088440Y-125313440D03*
X102588060Y-125313440D03*
X102087680Y-125313440D03*
X101587300Y-125313440D03*
X101086920Y-125313440D03*
D17*
X95087440Y-127314960D03*
X95087440Y-127812800D03*
X95087440Y-128313180D03*
X95087440Y-128813560D03*
X95087440Y-129313940D03*
X95087440Y-129814320D03*
X95087440Y-130314700D03*
X95087440Y-130815080D03*
D16*
X101086920Y-136814560D03*
X101587300Y-136814560D03*
X102087680Y-136814560D03*
D17*
X106588560Y-130815080D03*
X106588560Y-130314700D03*
X106588560Y-129814320D03*
D16*
X100589080Y-125313440D03*
X100088700Y-125313440D03*
X99588320Y-125313440D03*
D17*
X95087440Y-131312920D03*
X95087440Y-131813300D03*
X95087440Y-132313680D03*
D16*
X102588060Y-136814560D03*
X103088440Y-136814560D03*
X103588820Y-136814560D03*
X104089200Y-136814560D03*
X104587040Y-136814560D03*
D17*
X106588560Y-129313940D03*
X106588560Y-128813560D03*
X106588560Y-128313180D03*
X106588560Y-127812800D03*
X106588560Y-127314960D03*
D16*
X99087940Y-125313440D03*
X98587560Y-125313440D03*
X98087180Y-125313440D03*
X97586800Y-125313440D03*
X97088960Y-125313440D03*
D17*
X95087440Y-132814060D03*
X95087440Y-133314440D03*
X95087440Y-133814820D03*
X95087440Y-134315200D03*
X95087440Y-134813040D03*
D18*
X104157780Y-111823500D03*
X103657400Y-111823500D03*
X103157020Y-111823500D03*
X102656640Y-111823500D03*
X102156260Y-111823500D03*
X101658420Y-111823500D03*
X101158040Y-111823500D03*
X100657660Y-111823500D03*
X100157280Y-111823500D03*
X99656900Y-111823500D03*
X99156520Y-111823500D03*
X108656120Y-111823500D03*
X108158280Y-111823500D03*
X107657900Y-111823500D03*
X103157020Y-119824500D03*
X106657140Y-111823500D03*
X106156760Y-111823500D03*
X105656380Y-111823500D03*
X105158540Y-111823500D03*
X104658160Y-111823500D03*
X100657660Y-119824500D03*
X101158040Y-119824500D03*
X101658420Y-119824500D03*
X102156260Y-119824500D03*
X102656640Y-119824500D03*
X107157520Y-111823500D03*
X103657400Y-119824500D03*
X104157780Y-119824500D03*
X104658160Y-119824500D03*
X105158540Y-119824500D03*
X105656380Y-119824500D03*
X106156760Y-119824500D03*
X106657140Y-119824500D03*
X95158560Y-119824500D03*
X95656400Y-119824500D03*
X96156780Y-119824500D03*
X96657160Y-119824500D03*
X97157540Y-119824500D03*
X97657920Y-119824500D03*
X98158300Y-119824500D03*
X98656140Y-119824500D03*
X99156520Y-119824500D03*
X99656900Y-119824500D03*
X100157280Y-119824500D03*
X107157520Y-119824500D03*
X107657900Y-119824500D03*
X108158280Y-119824500D03*
X108656120Y-119824500D03*
X98656140Y-111823500D03*
X98158300Y-111823500D03*
X97657920Y-111823500D03*
X97157540Y-111823500D03*
X96657160Y-111823500D03*
X96156780Y-111823500D03*
X95656400Y-111823500D03*
X95158560Y-111823500D03*
D19*
X101854000Y-115824000D03*
D20*
X95885000Y-106045000D03*
X99187000Y-106045000D03*
X95885000Y-103505000D03*
X99187000Y-103505000D03*
D21*
X108331000Y-125349000D03*
X108331000Y-126873000D03*
D10*
G36*
X110765790Y-133755433D02*
X109957567Y-132947210D01*
X110406580Y-132498197D01*
X111214803Y-133306420D01*
X110765790Y-133755433D01*
X110765790Y-133755433D01*
G37*
G36*
X111843420Y-132677803D02*
X111035197Y-131869580D01*
X111484210Y-131420567D01*
X112292433Y-132228790D01*
X111843420Y-132677803D01*
X111843420Y-132677803D01*
G37*
D21*
X98552000Y-123444000D03*
X98552000Y-121920000D03*
X93091000Y-128016000D03*
X93091000Y-126492000D03*
D22*
X94234000Y-122174000D03*
X95758000Y-122174000D03*
D21*
X92964000Y-122174000D03*
X92964000Y-123698000D03*
D22*
X101727000Y-122682000D03*
X103251000Y-122682000D03*
X110363000Y-121920000D03*
X108839000Y-121920000D03*
X97155000Y-109474000D03*
X95631000Y-109474000D03*
X100203000Y-108204000D03*
X98679000Y-108204000D03*
X102489000Y-105410000D03*
X100965000Y-105410000D03*
X104902000Y-108077000D03*
X103378000Y-108077000D03*
X106934000Y-108712000D03*
X108458000Y-108712000D03*
X94615000Y-137160000D03*
X96139000Y-137160000D03*
X109728000Y-108712000D03*
X111252000Y-108712000D03*
D23*
X110998000Y-117348000D03*
X110998000Y-114046000D03*
D21*
X111760000Y-125730000D03*
X111760000Y-127254000D03*
X93000000Y-130188000D03*
X93000000Y-131712000D03*
D22*
X114300000Y-102870000D03*
X115824000Y-102870000D03*
D21*
X111760000Y-129794000D03*
X111760000Y-128270000D03*
D22*
X86360000Y-120396000D03*
X87884000Y-120396000D03*
X88900000Y-120396000D03*
X90424000Y-120396000D03*
X94234000Y-123698000D03*
X95758000Y-123698000D03*
D21*
X97028000Y-121920000D03*
X97028000Y-123444000D03*
D22*
X92329000Y-110236000D03*
X93853000Y-110236000D03*
D21*
X114808000Y-84582000D03*
X114808000Y-83058000D03*
X104394000Y-89154000D03*
X104394000Y-90678000D03*
X91440000Y-88011000D03*
X91440000Y-89535000D03*
X106807000Y-105918000D03*
X106807000Y-107442000D03*
X108331000Y-105918000D03*
X108331000Y-107442000D03*
X109855000Y-105918000D03*
X109855000Y-107442000D03*
X111379000Y-105918000D03*
X111379000Y-107442000D03*
D22*
X89162000Y-127550000D03*
X87638000Y-127550000D03*
X89162000Y-126000000D03*
X87638000Y-126000000D03*
X86762000Y-122500000D03*
X85238000Y-122500000D03*
D24*
X86133000Y-132955000D03*
X91467000Y-132955000D03*
X86133000Y-131685000D03*
X86133000Y-130415000D03*
X86133000Y-129145000D03*
X91467000Y-131685000D03*
X91467000Y-130415000D03*
X91467000Y-129145000D03*
D25*
X84200000Y-129400000D03*
X84200000Y-128600000D03*
X84200000Y-127800000D03*
X84200000Y-127000000D03*
X84200000Y-126200000D03*
D26*
X83000000Y-123250000D03*
X83000000Y-132350000D03*
D27*
X79925000Y-123450000D03*
X79925000Y-132150000D03*
M02*
