%FSLAX46Y46*%
G04 Gerber Fmt 4.6, Leading zero omitted, Abs format (unit mm)*
G04 Created by KiCad (PCBNEW (2014-08-24 BZR 5093)-product) date Thu 04 Sep 2014 06:20:05 PM ART*
%MOMM*%
G01*
G04 APERTURE LIST*
%ADD10C,0.150000*%
%ADD11C,0.200660*%
%ADD12C,0.203200*%
%ADD13C,0.002540*%
%ADD14C,0.127000*%
%ADD15C,0.119380*%
%ADD16C,0.099060*%
%ADD17C,0.066040*%
%ADD18C,0.101600*%
%ADD19C,0.381000*%
%ADD20C,0.190500*%
%ADD21C,0.114300*%
%ADD22C,0.109220*%
%ADD23C,0.250000*%
%ADD24C,0.304800*%
%ADD25R,1.800860X1.198880*%
%ADD26R,1.699260X1.198880*%
%ADD27O,1.699260X1.198880*%
%ADD28O,1.524000X3.048000*%
%ADD29R,2.032000X3.657600*%
%ADD30R,2.032000X1.016000*%
%ADD31C,4.064000*%
%ADD32R,1.524000X2.032000*%
%ADD33R,2.032000X1.524000*%
%ADD34R,1.143000X0.635000*%
%ADD35R,0.635000X1.143000*%
%ADD36R,0.889000X1.397000*%
%ADD37R,2.499360X1.950720*%
%ADD38R,5.499100X1.849120*%
%ADD39R,0.797560X0.797560*%
%ADD40R,3.500120X1.800860*%
%ADD41C,1.300480*%
%ADD42R,4.000000X5.000000*%
%ADD43R,10.800080X8.150860*%
%ADD44R,0.899160X3.200400*%
%ADD45R,2.438400X5.588000*%
%ADD46R,2.438400X0.889000*%
%ADD47C,0.900000*%
%ADD48C,0.254000*%
G04 APERTURE END LIST*
D10*
X115700000Y-113542858D02*
X115671429Y-113485715D01*
X115671429Y-113400001D01*
X115700000Y-113314286D01*
X115757143Y-113257144D01*
X115814286Y-113228572D01*
X115928571Y-113200001D01*
X116014286Y-113200001D01*
X116128571Y-113228572D01*
X116185714Y-113257144D01*
X116242857Y-113314286D01*
X116271429Y-113400001D01*
X116271429Y-113457144D01*
X116242857Y-113542858D01*
X116214286Y-113571429D01*
X116014286Y-113571429D01*
X116014286Y-113457144D01*
X116271429Y-113828572D02*
X115671429Y-113828572D01*
X116271429Y-114171429D01*
X115671429Y-114171429D01*
X116271429Y-114457143D02*
X115671429Y-114457143D01*
X115671429Y-114600000D01*
X115700000Y-114685715D01*
X115757143Y-114742857D01*
X115814286Y-114771429D01*
X115928571Y-114800000D01*
X116014286Y-114800000D01*
X116128571Y-114771429D01*
X116185714Y-114742857D01*
X116242857Y-114685715D01*
X116271429Y-114600000D01*
X116271429Y-114457143D01*
X115671429Y-115214285D02*
X115671429Y-115585714D01*
X115900000Y-115385714D01*
X115900000Y-115471428D01*
X115928571Y-115528571D01*
X115957143Y-115557142D01*
X116014286Y-115585714D01*
X116157143Y-115585714D01*
X116214286Y-115557142D01*
X116242857Y-115528571D01*
X116271429Y-115471428D01*
X116271429Y-115300000D01*
X116242857Y-115242857D01*
X116214286Y-115214285D01*
X116214286Y-115842857D02*
X116242857Y-115871429D01*
X116271429Y-115842857D01*
X116242857Y-115814286D01*
X116214286Y-115842857D01*
X116271429Y-115842857D01*
X115671429Y-116071428D02*
X115671429Y-116442857D01*
X115900000Y-116242857D01*
X115900000Y-116328571D01*
X115928571Y-116385714D01*
X115957143Y-116414285D01*
X116014286Y-116442857D01*
X116157143Y-116442857D01*
X116214286Y-116414285D01*
X116242857Y-116385714D01*
X116271429Y-116328571D01*
X116271429Y-116157143D01*
X116242857Y-116100000D01*
X116214286Y-116071428D01*
X115671429Y-116614286D02*
X116271429Y-116814286D01*
X115671429Y-117014286D01*
X115671429Y-117914285D02*
X115671429Y-117628571D01*
X115957143Y-117600000D01*
X115928571Y-117628571D01*
X115900000Y-117685714D01*
X115900000Y-117828571D01*
X115928571Y-117885714D01*
X115957143Y-117914285D01*
X116014286Y-117942857D01*
X116157143Y-117942857D01*
X116214286Y-117914285D01*
X116242857Y-117885714D01*
X116271429Y-117828571D01*
X116271429Y-117685714D01*
X116242857Y-117628571D01*
X116214286Y-117600000D01*
X115871429Y-118142857D02*
X116271429Y-118285714D01*
X115871429Y-118428572D01*
X116271429Y-129871428D02*
X115985714Y-129671428D01*
X116271429Y-129528571D02*
X115671429Y-129528571D01*
X115671429Y-129757143D01*
X115700000Y-129814285D01*
X115728571Y-129842857D01*
X115785714Y-129871428D01*
X115871429Y-129871428D01*
X115928571Y-129842857D01*
X115957143Y-129814285D01*
X115985714Y-129757143D01*
X115985714Y-129528571D01*
X116242857Y-130100000D02*
X116271429Y-130185714D01*
X116271429Y-130328571D01*
X116242857Y-130385714D01*
X116214286Y-130414285D01*
X116157143Y-130442857D01*
X116100000Y-130442857D01*
X116042857Y-130414285D01*
X116014286Y-130385714D01*
X115985714Y-130328571D01*
X115957143Y-130214285D01*
X115928571Y-130157143D01*
X115900000Y-130128571D01*
X115842857Y-130100000D01*
X115785714Y-130100000D01*
X115728571Y-130128571D01*
X115700000Y-130157143D01*
X115671429Y-130214285D01*
X115671429Y-130357143D01*
X115700000Y-130442857D01*
X115671429Y-130614286D02*
X115671429Y-130957143D01*
X116271429Y-130785714D02*
X115671429Y-130785714D01*
X116271429Y-127585715D02*
X115671429Y-127585715D01*
X115671429Y-127728572D01*
X115700000Y-127814287D01*
X115757143Y-127871429D01*
X115814286Y-127900001D01*
X115928571Y-127928572D01*
X116014286Y-127928572D01*
X116128571Y-127900001D01*
X116185714Y-127871429D01*
X116242857Y-127814287D01*
X116271429Y-127728572D01*
X116271429Y-127585715D01*
X116271429Y-128185715D02*
X115671429Y-128185715D01*
X115671429Y-128585715D02*
X115671429Y-128700001D01*
X115700000Y-128757143D01*
X115757143Y-128814286D01*
X115871429Y-128842858D01*
X116071429Y-128842858D01*
X116185714Y-128814286D01*
X116242857Y-128757143D01*
X116271429Y-128700001D01*
X116271429Y-128585715D01*
X116242857Y-128528572D01*
X116185714Y-128471429D01*
X116071429Y-128442858D01*
X115871429Y-128442858D01*
X115757143Y-128471429D01*
X115700000Y-128528572D01*
X115671429Y-128585715D01*
X115700000Y-125742858D02*
X115671429Y-125685715D01*
X115671429Y-125600001D01*
X115700000Y-125514286D01*
X115757143Y-125457144D01*
X115814286Y-125428572D01*
X115928571Y-125400001D01*
X116014286Y-125400001D01*
X116128571Y-125428572D01*
X116185714Y-125457144D01*
X116242857Y-125514286D01*
X116271429Y-125600001D01*
X116271429Y-125657144D01*
X116242857Y-125742858D01*
X116214286Y-125771429D01*
X116014286Y-125771429D01*
X116014286Y-125657144D01*
X116271429Y-126028572D02*
X115671429Y-126028572D01*
X116271429Y-126371429D01*
X115671429Y-126371429D01*
X116271429Y-126657143D02*
X115671429Y-126657143D01*
X115671429Y-126800000D01*
X115700000Y-126885715D01*
X115757143Y-126942857D01*
X115814286Y-126971429D01*
X115928571Y-127000000D01*
X116014286Y-127000000D01*
X116128571Y-126971429D01*
X116185714Y-126942857D01*
X116242857Y-126885715D01*
X116271429Y-126800000D01*
X116271429Y-126657143D01*
X116214286Y-123842857D02*
X116242857Y-123814286D01*
X116271429Y-123728572D01*
X116271429Y-123671429D01*
X116242857Y-123585714D01*
X116185714Y-123528572D01*
X116128571Y-123500000D01*
X116014286Y-123471429D01*
X115928571Y-123471429D01*
X115814286Y-123500000D01*
X115757143Y-123528572D01*
X115700000Y-123585714D01*
X115671429Y-123671429D01*
X115671429Y-123728572D01*
X115700000Y-123814286D01*
X115728571Y-123842857D01*
X116271429Y-124385714D02*
X116271429Y-124100000D01*
X115671429Y-124100000D01*
X116271429Y-124585714D02*
X115671429Y-124585714D01*
X116271429Y-124928571D02*
X115928571Y-124671428D01*
X115671429Y-124928571D02*
X116014286Y-124585714D01*
X115671429Y-121342857D02*
X115671429Y-121714286D01*
X115900000Y-121514286D01*
X115900000Y-121600000D01*
X115928571Y-121657143D01*
X115957143Y-121685714D01*
X116014286Y-121714286D01*
X116157143Y-121714286D01*
X116214286Y-121685714D01*
X116242857Y-121657143D01*
X116271429Y-121600000D01*
X116271429Y-121428572D01*
X116242857Y-121371429D01*
X116214286Y-121342857D01*
X116214286Y-121971429D02*
X116242857Y-122000001D01*
X116271429Y-121971429D01*
X116242857Y-121942858D01*
X116214286Y-121971429D01*
X116271429Y-121971429D01*
X115671429Y-122200000D02*
X115671429Y-122571429D01*
X115900000Y-122371429D01*
X115900000Y-122457143D01*
X115928571Y-122514286D01*
X115957143Y-122542857D01*
X116014286Y-122571429D01*
X116157143Y-122571429D01*
X116214286Y-122542857D01*
X116242857Y-122514286D01*
X116271429Y-122457143D01*
X116271429Y-122285715D01*
X116242857Y-122228572D01*
X116214286Y-122200000D01*
X115871429Y-122771429D02*
X116271429Y-122914286D01*
X115871429Y-123057144D01*
X82185715Y-138171429D02*
X82471429Y-138171429D01*
X82500000Y-138457143D01*
X82471429Y-138428571D01*
X82414286Y-138400000D01*
X82271429Y-138400000D01*
X82214286Y-138428571D01*
X82185715Y-138457143D01*
X82157143Y-138514286D01*
X82157143Y-138657143D01*
X82185715Y-138714286D01*
X82214286Y-138742857D01*
X82271429Y-138771429D01*
X82414286Y-138771429D01*
X82471429Y-138742857D01*
X82500000Y-138714286D01*
X81957143Y-138371429D02*
X81814286Y-138771429D01*
X81671428Y-138371429D01*
X85185714Y-138171429D02*
X84842857Y-138171429D01*
X85014286Y-138771429D02*
X85014286Y-138171429D01*
X84642857Y-138457143D02*
X84442857Y-138457143D01*
X84357143Y-138771429D02*
X84642857Y-138771429D01*
X84642857Y-138171429D01*
X84357143Y-138171429D01*
X84100000Y-138771429D02*
X84100000Y-138171429D01*
X83900000Y-138600000D01*
X83700000Y-138171429D01*
X83700000Y-138771429D01*
X83414286Y-138771429D02*
X83414286Y-138171429D01*
X83185714Y-138171429D01*
X83128572Y-138200000D01*
X83100000Y-138228571D01*
X83071429Y-138285714D01*
X83071429Y-138371429D01*
X83100000Y-138428571D01*
X83128572Y-138457143D01*
X83185714Y-138485714D01*
X83414286Y-138485714D01*
X86557143Y-138771429D02*
X86557143Y-138171429D01*
X86557143Y-138457143D02*
X86214286Y-138457143D01*
X86214286Y-138771429D02*
X86214286Y-138171429D01*
X85614286Y-138771429D02*
X85957143Y-138771429D01*
X85785715Y-138771429D02*
X85785715Y-138171429D01*
X85842858Y-138257143D01*
X85900000Y-138314286D01*
X85957143Y-138342857D01*
X88557143Y-138771429D02*
X88557143Y-138171429D01*
X88557143Y-138457143D02*
X88214286Y-138457143D01*
X88214286Y-138771429D02*
X88214286Y-138171429D01*
X87957143Y-138228571D02*
X87928572Y-138200000D01*
X87871429Y-138171429D01*
X87728572Y-138171429D01*
X87671429Y-138200000D01*
X87642858Y-138228571D01*
X87614286Y-138285714D01*
X87614286Y-138342857D01*
X87642858Y-138428571D01*
X87985715Y-138771429D01*
X87614286Y-138771429D01*
X90557143Y-138771429D02*
X90557143Y-138171429D01*
X90557143Y-138457143D02*
X90214286Y-138457143D01*
X90214286Y-138771429D02*
X90214286Y-138171429D01*
X89985715Y-138171429D02*
X89614286Y-138171429D01*
X89814286Y-138400000D01*
X89728572Y-138400000D01*
X89671429Y-138428571D01*
X89642858Y-138457143D01*
X89614286Y-138514286D01*
X89614286Y-138657143D01*
X89642858Y-138714286D01*
X89671429Y-138742857D01*
X89728572Y-138771429D01*
X89900000Y-138771429D01*
X89957143Y-138742857D01*
X89985715Y-138714286D01*
X92557142Y-138200000D02*
X92614285Y-138171429D01*
X92699999Y-138171429D01*
X92785714Y-138200000D01*
X92842856Y-138257143D01*
X92871428Y-138314286D01*
X92899999Y-138428571D01*
X92899999Y-138514286D01*
X92871428Y-138628571D01*
X92842856Y-138685714D01*
X92785714Y-138742857D01*
X92699999Y-138771429D01*
X92642856Y-138771429D01*
X92557142Y-138742857D01*
X92528571Y-138714286D01*
X92528571Y-138514286D01*
X92642856Y-138514286D01*
X92271428Y-138771429D02*
X92271428Y-138171429D01*
X91928571Y-138771429D01*
X91928571Y-138171429D01*
X91642857Y-138771429D02*
X91642857Y-138171429D01*
X91500000Y-138171429D01*
X91414285Y-138200000D01*
X91357143Y-138257143D01*
X91328571Y-138314286D01*
X91300000Y-138428571D01*
X91300000Y-138514286D01*
X91328571Y-138628571D01*
X91357143Y-138685714D01*
X91414285Y-138742857D01*
X91500000Y-138771429D01*
X91642857Y-138771429D01*
D11*
X96433640Y-135204200D02*
X101432360Y-135204200D01*
X101432360Y-135204200D02*
X101432360Y-132003800D01*
X101432360Y-132003800D02*
X96433640Y-132003800D01*
X96433640Y-132003800D02*
X96433640Y-135204200D01*
D12*
X87376000Y-121920000D02*
X84328000Y-121920000D01*
X84328000Y-121920000D02*
X84328000Y-114808000D01*
X84328000Y-114808000D02*
X87376000Y-114808000D01*
X90424000Y-121920000D02*
X91186000Y-121920000D01*
X91186000Y-121920000D02*
X93472000Y-120396000D01*
X93472000Y-120396000D02*
X93472000Y-116332000D01*
X93472000Y-116332000D02*
X91186000Y-114808000D01*
X91186000Y-114808000D02*
X90424000Y-114808000D01*
D13*
G36*
X115463320Y-85166200D02*
X115445540Y-85158580D01*
X115412520Y-85135720D01*
X115361720Y-85102700D01*
X115303300Y-85064600D01*
X115242340Y-85023960D01*
X115194080Y-84990940D01*
X115158520Y-84968080D01*
X115145820Y-84960460D01*
X115138200Y-84963000D01*
X115110260Y-84978240D01*
X115069620Y-84998560D01*
X115044220Y-85011260D01*
X115006120Y-85026500D01*
X114988340Y-85031580D01*
X114985800Y-85026500D01*
X114970560Y-84996020D01*
X114950240Y-84947760D01*
X114922300Y-84881720D01*
X114889280Y-84805520D01*
X114853720Y-84724240D01*
X114820700Y-84640420D01*
X114787680Y-84561680D01*
X114757200Y-84488020D01*
X114734340Y-84429600D01*
X114719100Y-84388960D01*
X114711480Y-84371180D01*
X114714020Y-84368640D01*
X114731800Y-84350860D01*
X114764820Y-84325460D01*
X114835940Y-84267040D01*
X114907060Y-84180680D01*
X114950240Y-84081620D01*
X114962940Y-83969860D01*
X114952780Y-83868260D01*
X114912140Y-83771740D01*
X114843560Y-83682840D01*
X114759740Y-83616800D01*
X114663220Y-83576160D01*
X114554000Y-83563460D01*
X114449860Y-83573620D01*
X114350800Y-83614260D01*
X114261900Y-83680300D01*
X114223800Y-83723480D01*
X114173000Y-83814920D01*
X114142520Y-83908900D01*
X114139980Y-83931760D01*
X114145060Y-84038440D01*
X114175540Y-84140040D01*
X114231420Y-84228940D01*
X114307620Y-84302600D01*
X114317780Y-84310220D01*
X114353340Y-84338160D01*
X114378740Y-84355940D01*
X114396520Y-84371180D01*
X114261900Y-84693760D01*
X114241580Y-84744560D01*
X114203480Y-84833460D01*
X114173000Y-84909660D01*
X114145060Y-84970620D01*
X114127280Y-85011260D01*
X114119660Y-85026500D01*
X114119660Y-85026500D01*
X114106960Y-85029040D01*
X114084100Y-85021420D01*
X114038380Y-84998560D01*
X114007900Y-84983320D01*
X113974880Y-84968080D01*
X113959640Y-84960460D01*
X113944400Y-84968080D01*
X113911380Y-84988400D01*
X113865660Y-85021420D01*
X113807240Y-85059520D01*
X113751360Y-85097620D01*
X113700560Y-85130640D01*
X113665000Y-85156040D01*
X113647220Y-85163660D01*
X113644680Y-85163660D01*
X113626900Y-85156040D01*
X113598960Y-85130640D01*
X113555780Y-85090000D01*
X113492280Y-85029040D01*
X113482120Y-85018880D01*
X113431320Y-84968080D01*
X113390680Y-84922360D01*
X113362740Y-84891880D01*
X113352580Y-84879180D01*
X113352580Y-84879180D01*
X113362740Y-84861400D01*
X113385600Y-84823300D01*
X113418620Y-84772500D01*
X113459260Y-84711540D01*
X113565940Y-84556600D01*
X113507520Y-84411820D01*
X113489740Y-84366100D01*
X113466880Y-84310220D01*
X113449100Y-84272120D01*
X113441480Y-84254340D01*
X113423700Y-84249260D01*
X113385600Y-84239100D01*
X113327180Y-84228940D01*
X113256060Y-84216240D01*
X113190020Y-84203540D01*
X113131600Y-84190840D01*
X113088420Y-84183220D01*
X113068100Y-84180680D01*
X113063020Y-84175600D01*
X113060480Y-84167980D01*
X113057940Y-84147660D01*
X113055400Y-84109560D01*
X113055400Y-84053680D01*
X113055400Y-83969860D01*
X113055400Y-83962240D01*
X113055400Y-83883500D01*
X113057940Y-83820000D01*
X113060480Y-83781900D01*
X113063020Y-83764120D01*
X113063020Y-83764120D01*
X113080800Y-83759040D01*
X113123980Y-83751420D01*
X113182400Y-83738720D01*
X113253520Y-83726020D01*
X113258600Y-83726020D01*
X113329720Y-83710780D01*
X113388140Y-83698080D01*
X113431320Y-83690460D01*
X113449100Y-83682840D01*
X113451640Y-83677760D01*
X113466880Y-83649820D01*
X113487200Y-83606640D01*
X113510060Y-83553300D01*
X113532920Y-83497420D01*
X113553240Y-83446620D01*
X113565940Y-83411060D01*
X113571020Y-83393280D01*
X113571020Y-83393280D01*
X113560860Y-83375500D01*
X113535460Y-83339940D01*
X113499900Y-83289140D01*
X113459260Y-83228180D01*
X113456720Y-83223100D01*
X113416080Y-83162140D01*
X113383060Y-83111340D01*
X113360200Y-83075780D01*
X113352580Y-83060540D01*
X113352580Y-83058000D01*
X113365280Y-83040220D01*
X113395760Y-83007200D01*
X113441480Y-82961480D01*
X113492280Y-82908140D01*
X113510060Y-82892900D01*
X113568480Y-82834480D01*
X113609120Y-82798920D01*
X113634520Y-82778600D01*
X113644680Y-82773520D01*
X113647220Y-82773520D01*
X113665000Y-82783680D01*
X113703100Y-82809080D01*
X113753900Y-82844640D01*
X113814860Y-82885280D01*
X113817400Y-82887820D01*
X113878360Y-82928460D01*
X113929160Y-82964020D01*
X113964720Y-82986880D01*
X113979960Y-82994500D01*
X113982500Y-82994500D01*
X114005360Y-82989420D01*
X114048540Y-82974180D01*
X114101880Y-82953860D01*
X114157760Y-82931000D01*
X114208560Y-82910680D01*
X114244120Y-82892900D01*
X114261900Y-82882740D01*
X114264440Y-82882740D01*
X114269520Y-82859880D01*
X114279680Y-82814160D01*
X114292380Y-82753200D01*
X114307620Y-82679540D01*
X114310160Y-82669380D01*
X114322860Y-82595720D01*
X114333020Y-82537300D01*
X114343180Y-82496660D01*
X114345720Y-82478880D01*
X114355880Y-82478880D01*
X114391440Y-82476340D01*
X114444780Y-82473800D01*
X114510820Y-82473800D01*
X114576860Y-82473800D01*
X114642900Y-82473800D01*
X114698780Y-82476340D01*
X114739420Y-82478880D01*
X114757200Y-82483960D01*
X114757200Y-82483960D01*
X114762280Y-82506820D01*
X114772440Y-82550000D01*
X114785140Y-82613500D01*
X114800380Y-82687160D01*
X114802920Y-82699860D01*
X114815620Y-82770980D01*
X114828320Y-82829400D01*
X114835940Y-82870040D01*
X114841020Y-82885280D01*
X114846100Y-82887820D01*
X114876580Y-82903060D01*
X114924840Y-82920840D01*
X114983260Y-82946240D01*
X115120420Y-83002120D01*
X115288060Y-82885280D01*
X115303300Y-82875120D01*
X115364260Y-82834480D01*
X115415060Y-82801460D01*
X115450620Y-82778600D01*
X115463320Y-82770980D01*
X115465860Y-82770980D01*
X115481100Y-82786220D01*
X115514120Y-82816700D01*
X115559840Y-82862420D01*
X115613180Y-82913220D01*
X115653820Y-82953860D01*
X115699540Y-82999580D01*
X115727480Y-83032600D01*
X115745260Y-83052920D01*
X115750340Y-83065620D01*
X115747800Y-83073240D01*
X115737640Y-83091020D01*
X115712240Y-83126580D01*
X115679220Y-83179920D01*
X115638580Y-83238340D01*
X115603020Y-83289140D01*
X115567460Y-83345020D01*
X115544600Y-83385660D01*
X115534440Y-83403440D01*
X115536980Y-83413600D01*
X115549680Y-83446620D01*
X115570000Y-83494880D01*
X115595400Y-83555840D01*
X115653820Y-83687920D01*
X115740180Y-83705700D01*
X115793520Y-83715860D01*
X115867180Y-83728560D01*
X115938300Y-83743800D01*
X116050060Y-83764120D01*
X116052600Y-84167980D01*
X116034820Y-84175600D01*
X116019580Y-84180680D01*
X115978940Y-84190840D01*
X115920520Y-84201000D01*
X115851940Y-84213700D01*
X115790980Y-84226400D01*
X115732560Y-84236560D01*
X115689380Y-84244180D01*
X115671600Y-84249260D01*
X115666520Y-84254340D01*
X115651280Y-84284820D01*
X115630960Y-84330540D01*
X115608100Y-84383880D01*
X115582700Y-84442300D01*
X115562380Y-84493100D01*
X115547140Y-84533740D01*
X115542060Y-84554060D01*
X115549680Y-84569300D01*
X115572540Y-84604860D01*
X115605560Y-84655660D01*
X115646200Y-84714080D01*
X115686840Y-84772500D01*
X115719860Y-84823300D01*
X115745260Y-84858860D01*
X115752880Y-84876640D01*
X115747800Y-84886800D01*
X115724940Y-84914740D01*
X115681760Y-84960460D01*
X115615720Y-85026500D01*
X115603020Y-85036660D01*
X115552220Y-85087460D01*
X115506500Y-85128100D01*
X115476020Y-85156040D01*
X115463320Y-85166200D01*
X115463320Y-85166200D01*
G37*
X115463320Y-85166200D02*
X115445540Y-85158580D01*
X115412520Y-85135720D01*
X115361720Y-85102700D01*
X115303300Y-85064600D01*
X115242340Y-85023960D01*
X115194080Y-84990940D01*
X115158520Y-84968080D01*
X115145820Y-84960460D01*
X115138200Y-84963000D01*
X115110260Y-84978240D01*
X115069620Y-84998560D01*
X115044220Y-85011260D01*
X115006120Y-85026500D01*
X114988340Y-85031580D01*
X114985800Y-85026500D01*
X114970560Y-84996020D01*
X114950240Y-84947760D01*
X114922300Y-84881720D01*
X114889280Y-84805520D01*
X114853720Y-84724240D01*
X114820700Y-84640420D01*
X114787680Y-84561680D01*
X114757200Y-84488020D01*
X114734340Y-84429600D01*
X114719100Y-84388960D01*
X114711480Y-84371180D01*
X114714020Y-84368640D01*
X114731800Y-84350860D01*
X114764820Y-84325460D01*
X114835940Y-84267040D01*
X114907060Y-84180680D01*
X114950240Y-84081620D01*
X114962940Y-83969860D01*
X114952780Y-83868260D01*
X114912140Y-83771740D01*
X114843560Y-83682840D01*
X114759740Y-83616800D01*
X114663220Y-83576160D01*
X114554000Y-83563460D01*
X114449860Y-83573620D01*
X114350800Y-83614260D01*
X114261900Y-83680300D01*
X114223800Y-83723480D01*
X114173000Y-83814920D01*
X114142520Y-83908900D01*
X114139980Y-83931760D01*
X114145060Y-84038440D01*
X114175540Y-84140040D01*
X114231420Y-84228940D01*
X114307620Y-84302600D01*
X114317780Y-84310220D01*
X114353340Y-84338160D01*
X114378740Y-84355940D01*
X114396520Y-84371180D01*
X114261900Y-84693760D01*
X114241580Y-84744560D01*
X114203480Y-84833460D01*
X114173000Y-84909660D01*
X114145060Y-84970620D01*
X114127280Y-85011260D01*
X114119660Y-85026500D01*
X114119660Y-85026500D01*
X114106960Y-85029040D01*
X114084100Y-85021420D01*
X114038380Y-84998560D01*
X114007900Y-84983320D01*
X113974880Y-84968080D01*
X113959640Y-84960460D01*
X113944400Y-84968080D01*
X113911380Y-84988400D01*
X113865660Y-85021420D01*
X113807240Y-85059520D01*
X113751360Y-85097620D01*
X113700560Y-85130640D01*
X113665000Y-85156040D01*
X113647220Y-85163660D01*
X113644680Y-85163660D01*
X113626900Y-85156040D01*
X113598960Y-85130640D01*
X113555780Y-85090000D01*
X113492280Y-85029040D01*
X113482120Y-85018880D01*
X113431320Y-84968080D01*
X113390680Y-84922360D01*
X113362740Y-84891880D01*
X113352580Y-84879180D01*
X113352580Y-84879180D01*
X113362740Y-84861400D01*
X113385600Y-84823300D01*
X113418620Y-84772500D01*
X113459260Y-84711540D01*
X113565940Y-84556600D01*
X113507520Y-84411820D01*
X113489740Y-84366100D01*
X113466880Y-84310220D01*
X113449100Y-84272120D01*
X113441480Y-84254340D01*
X113423700Y-84249260D01*
X113385600Y-84239100D01*
X113327180Y-84228940D01*
X113256060Y-84216240D01*
X113190020Y-84203540D01*
X113131600Y-84190840D01*
X113088420Y-84183220D01*
X113068100Y-84180680D01*
X113063020Y-84175600D01*
X113060480Y-84167980D01*
X113057940Y-84147660D01*
X113055400Y-84109560D01*
X113055400Y-84053680D01*
X113055400Y-83969860D01*
X113055400Y-83962240D01*
X113055400Y-83883500D01*
X113057940Y-83820000D01*
X113060480Y-83781900D01*
X113063020Y-83764120D01*
X113063020Y-83764120D01*
X113080800Y-83759040D01*
X113123980Y-83751420D01*
X113182400Y-83738720D01*
X113253520Y-83726020D01*
X113258600Y-83726020D01*
X113329720Y-83710780D01*
X113388140Y-83698080D01*
X113431320Y-83690460D01*
X113449100Y-83682840D01*
X113451640Y-83677760D01*
X113466880Y-83649820D01*
X113487200Y-83606640D01*
X113510060Y-83553300D01*
X113532920Y-83497420D01*
X113553240Y-83446620D01*
X113565940Y-83411060D01*
X113571020Y-83393280D01*
X113571020Y-83393280D01*
X113560860Y-83375500D01*
X113535460Y-83339940D01*
X113499900Y-83289140D01*
X113459260Y-83228180D01*
X113456720Y-83223100D01*
X113416080Y-83162140D01*
X113383060Y-83111340D01*
X113360200Y-83075780D01*
X113352580Y-83060540D01*
X113352580Y-83058000D01*
X113365280Y-83040220D01*
X113395760Y-83007200D01*
X113441480Y-82961480D01*
X113492280Y-82908140D01*
X113510060Y-82892900D01*
X113568480Y-82834480D01*
X113609120Y-82798920D01*
X113634520Y-82778600D01*
X113644680Y-82773520D01*
X113647220Y-82773520D01*
X113665000Y-82783680D01*
X113703100Y-82809080D01*
X113753900Y-82844640D01*
X113814860Y-82885280D01*
X113817400Y-82887820D01*
X113878360Y-82928460D01*
X113929160Y-82964020D01*
X113964720Y-82986880D01*
X113979960Y-82994500D01*
X113982500Y-82994500D01*
X114005360Y-82989420D01*
X114048540Y-82974180D01*
X114101880Y-82953860D01*
X114157760Y-82931000D01*
X114208560Y-82910680D01*
X114244120Y-82892900D01*
X114261900Y-82882740D01*
X114264440Y-82882740D01*
X114269520Y-82859880D01*
X114279680Y-82814160D01*
X114292380Y-82753200D01*
X114307620Y-82679540D01*
X114310160Y-82669380D01*
X114322860Y-82595720D01*
X114333020Y-82537300D01*
X114343180Y-82496660D01*
X114345720Y-82478880D01*
X114355880Y-82478880D01*
X114391440Y-82476340D01*
X114444780Y-82473800D01*
X114510820Y-82473800D01*
X114576860Y-82473800D01*
X114642900Y-82473800D01*
X114698780Y-82476340D01*
X114739420Y-82478880D01*
X114757200Y-82483960D01*
X114757200Y-82483960D01*
X114762280Y-82506820D01*
X114772440Y-82550000D01*
X114785140Y-82613500D01*
X114800380Y-82687160D01*
X114802920Y-82699860D01*
X114815620Y-82770980D01*
X114828320Y-82829400D01*
X114835940Y-82870040D01*
X114841020Y-82885280D01*
X114846100Y-82887820D01*
X114876580Y-82903060D01*
X114924840Y-82920840D01*
X114983260Y-82946240D01*
X115120420Y-83002120D01*
X115288060Y-82885280D01*
X115303300Y-82875120D01*
X115364260Y-82834480D01*
X115415060Y-82801460D01*
X115450620Y-82778600D01*
X115463320Y-82770980D01*
X115465860Y-82770980D01*
X115481100Y-82786220D01*
X115514120Y-82816700D01*
X115559840Y-82862420D01*
X115613180Y-82913220D01*
X115653820Y-82953860D01*
X115699540Y-82999580D01*
X115727480Y-83032600D01*
X115745260Y-83052920D01*
X115750340Y-83065620D01*
X115747800Y-83073240D01*
X115737640Y-83091020D01*
X115712240Y-83126580D01*
X115679220Y-83179920D01*
X115638580Y-83238340D01*
X115603020Y-83289140D01*
X115567460Y-83345020D01*
X115544600Y-83385660D01*
X115534440Y-83403440D01*
X115536980Y-83413600D01*
X115549680Y-83446620D01*
X115570000Y-83494880D01*
X115595400Y-83555840D01*
X115653820Y-83687920D01*
X115740180Y-83705700D01*
X115793520Y-83715860D01*
X115867180Y-83728560D01*
X115938300Y-83743800D01*
X116050060Y-83764120D01*
X116052600Y-84167980D01*
X116034820Y-84175600D01*
X116019580Y-84180680D01*
X115978940Y-84190840D01*
X115920520Y-84201000D01*
X115851940Y-84213700D01*
X115790980Y-84226400D01*
X115732560Y-84236560D01*
X115689380Y-84244180D01*
X115671600Y-84249260D01*
X115666520Y-84254340D01*
X115651280Y-84284820D01*
X115630960Y-84330540D01*
X115608100Y-84383880D01*
X115582700Y-84442300D01*
X115562380Y-84493100D01*
X115547140Y-84533740D01*
X115542060Y-84554060D01*
X115549680Y-84569300D01*
X115572540Y-84604860D01*
X115605560Y-84655660D01*
X115646200Y-84714080D01*
X115686840Y-84772500D01*
X115719860Y-84823300D01*
X115745260Y-84858860D01*
X115752880Y-84876640D01*
X115747800Y-84886800D01*
X115724940Y-84914740D01*
X115681760Y-84960460D01*
X115615720Y-85026500D01*
X115603020Y-85036660D01*
X115552220Y-85087460D01*
X115506500Y-85128100D01*
X115476020Y-85156040D01*
X115463320Y-85166200D01*
D14*
X104648000Y-112903000D02*
X104648000Y-110617000D01*
X104648000Y-110617000D02*
X106299000Y-110617000D01*
X108077000Y-112903000D02*
X109728000Y-112903000D01*
X109728000Y-112903000D02*
X109728000Y-110617000D01*
X109728000Y-110617000D02*
X108077000Y-110617000D01*
X106299000Y-112903000D02*
X104648000Y-112903000D01*
X113411000Y-112522000D02*
X111125000Y-112522000D01*
X111125000Y-112522000D02*
X111125000Y-110871000D01*
X113411000Y-109093000D02*
X113411000Y-107442000D01*
X113411000Y-107442000D02*
X111125000Y-107442000D01*
X111125000Y-107442000D02*
X111125000Y-109093000D01*
X113411000Y-110871000D02*
X113411000Y-112522000D01*
X101660000Y-117443000D02*
X101660000Y-115157000D01*
X101660000Y-115157000D02*
X103311000Y-115157000D01*
X105089000Y-117443000D02*
X106740000Y-117443000D01*
X106740000Y-117443000D02*
X106740000Y-115157000D01*
X106740000Y-115157000D02*
X105089000Y-115157000D01*
X103311000Y-117443000D02*
X101660000Y-117443000D01*
D15*
X84350240Y-128100380D02*
X84350240Y-128798880D01*
X84350240Y-127099620D02*
X84350240Y-126401120D01*
X83049760Y-128100380D02*
X83049760Y-128798880D01*
X83049760Y-126401120D02*
X83049760Y-127099620D01*
X83065000Y-128798880D02*
X84335000Y-128798880D01*
X84335000Y-126401120D02*
X83065000Y-126401120D01*
X111767620Y-134254240D02*
X111069120Y-134254240D01*
X112768380Y-134254240D02*
X113466880Y-134254240D01*
X111767620Y-132953760D02*
X111069120Y-132953760D01*
X113466880Y-132953760D02*
X112768380Y-132953760D01*
X111069120Y-132969000D02*
X111069120Y-134239000D01*
X113466880Y-134239000D02*
X113466880Y-132969000D01*
X82438240Y-134866380D02*
X82438240Y-135564880D01*
X82438240Y-133865620D02*
X82438240Y-133167120D01*
X81137760Y-134866380D02*
X81137760Y-135564880D01*
X81137760Y-133167120D02*
X81137760Y-133865620D01*
X81153000Y-135564880D02*
X82423000Y-135564880D01*
X82423000Y-133167120D02*
X81153000Y-133167120D01*
X91805760Y-131325620D02*
X91805760Y-130627120D01*
X91805760Y-132326380D02*
X91805760Y-133024880D01*
X93106240Y-131325620D02*
X93106240Y-130627120D01*
X93106240Y-133024880D02*
X93106240Y-132326380D01*
X93091000Y-130627120D02*
X91821000Y-130627120D01*
X91821000Y-133024880D02*
X93091000Y-133024880D01*
X90249760Y-131299620D02*
X90249760Y-130601120D01*
X90249760Y-132300380D02*
X90249760Y-132998880D01*
X91550240Y-131299620D02*
X91550240Y-130601120D01*
X91550240Y-132998880D02*
X91550240Y-132300380D01*
X91535000Y-130601120D02*
X90265000Y-130601120D01*
X90265000Y-132998880D02*
X91535000Y-132998880D01*
X85699760Y-131299620D02*
X85699760Y-130601120D01*
X85699760Y-132300380D02*
X85699760Y-132998880D01*
X87000240Y-131299620D02*
X87000240Y-130601120D01*
X87000240Y-132998880D02*
X87000240Y-132300380D01*
X86985000Y-130601120D02*
X85715000Y-130601120D01*
X85715000Y-132998880D02*
X86985000Y-132998880D01*
X96662240Y-125341380D02*
X96662240Y-126039880D01*
X96662240Y-124340620D02*
X96662240Y-123642120D01*
X95361760Y-125341380D02*
X95361760Y-126039880D01*
X95361760Y-123642120D02*
X95361760Y-124340620D01*
X95377000Y-126039880D02*
X96647000Y-126039880D01*
X96647000Y-123642120D02*
X95377000Y-123642120D01*
X98036380Y-130159760D02*
X98734880Y-130159760D01*
X97035620Y-130159760D02*
X96337120Y-130159760D01*
X98036380Y-131460240D02*
X98734880Y-131460240D01*
X96337120Y-131460240D02*
X97035620Y-131460240D01*
X98734880Y-131445000D02*
X98734880Y-130175000D01*
X96337120Y-130175000D02*
X96337120Y-131445000D01*
X106949760Y-125499620D02*
X106949760Y-124801120D01*
X106949760Y-126500380D02*
X106949760Y-127198880D01*
X108250240Y-125499620D02*
X108250240Y-124801120D01*
X108250240Y-127198880D02*
X108250240Y-126500380D01*
X108235000Y-124801120D02*
X106965000Y-124801120D01*
X106965000Y-127198880D02*
X108235000Y-127198880D01*
X97012760Y-124340620D02*
X97012760Y-123642120D01*
X97012760Y-125341380D02*
X97012760Y-126039880D01*
X98313240Y-124340620D02*
X98313240Y-123642120D01*
X98313240Y-126039880D02*
X98313240Y-125341380D01*
X98298000Y-123642120D02*
X97028000Y-123642120D01*
X97028000Y-126039880D02*
X98298000Y-126039880D01*
D16*
X99441000Y-119380000D02*
G75*
G03X99441000Y-119380000I-127000J0D01*
G74*
G01*
X100457000Y-119380000D02*
X99441000Y-119380000D01*
X99441000Y-119380000D02*
X99441000Y-120904000D01*
X99441000Y-120904000D02*
X100457000Y-120904000D01*
X101473000Y-120904000D02*
X102489000Y-120904000D01*
X102489000Y-120904000D02*
X102489000Y-119380000D01*
X102489000Y-119380000D02*
X101473000Y-119380000D01*
D15*
X105267760Y-122308620D02*
X105267760Y-121610120D01*
X105267760Y-123309380D02*
X105267760Y-124007880D01*
X106568240Y-122308620D02*
X106568240Y-121610120D01*
X106568240Y-124007880D02*
X106568240Y-123309380D01*
X106553000Y-121610120D02*
X105283000Y-121610120D01*
X105283000Y-124007880D02*
X106553000Y-124007880D01*
X84439760Y-122435620D02*
X84439760Y-121737120D01*
X84439760Y-123436380D02*
X84439760Y-124134880D01*
X85740240Y-122435620D02*
X85740240Y-121737120D01*
X85740240Y-124134880D02*
X85740240Y-123436380D01*
X85725000Y-121737120D02*
X84455000Y-121737120D01*
X84455000Y-124134880D02*
X85725000Y-124134880D01*
D14*
X79153000Y-124856500D02*
X81947000Y-124856500D01*
X79153000Y-125428000D02*
X79153000Y-121872000D01*
X79153000Y-121872000D02*
X81947000Y-121872000D01*
X81947000Y-121872000D02*
X81947000Y-125428000D01*
X81947000Y-125428000D02*
X79153000Y-125428000D01*
D15*
X104513380Y-133207760D02*
X105211880Y-133207760D01*
X103512620Y-133207760D02*
X102814120Y-133207760D01*
X104513380Y-134508240D02*
X105211880Y-134508240D01*
X102814120Y-134508240D02*
X103512620Y-134508240D01*
X105211880Y-134493000D02*
X105211880Y-133223000D01*
X102814120Y-133223000D02*
X102814120Y-134493000D01*
X99350240Y-137750380D02*
X99350240Y-138448880D01*
X99350240Y-136749620D02*
X99350240Y-136051120D01*
X98049760Y-137750380D02*
X98049760Y-138448880D01*
X98049760Y-136051120D02*
X98049760Y-136749620D01*
X98065000Y-138448880D02*
X99335000Y-138448880D01*
X99335000Y-136051120D02*
X98065000Y-136051120D01*
D14*
X84397000Y-117093500D02*
X81603000Y-117093500D01*
X84397000Y-116522000D02*
X84397000Y-120078000D01*
X84397000Y-120078000D02*
X81603000Y-120078000D01*
X81603000Y-120078000D02*
X81603000Y-116522000D01*
X81603000Y-116522000D02*
X84397000Y-116522000D01*
D15*
X99829620Y-131460240D02*
X99131120Y-131460240D01*
X100830380Y-131460240D02*
X101528880Y-131460240D01*
X99829620Y-130159760D02*
X99131120Y-130159760D01*
X101528880Y-130159760D02*
X100830380Y-130159760D01*
X99131120Y-130175000D02*
X99131120Y-131445000D01*
X101528880Y-131445000D02*
X101528880Y-130175000D01*
D14*
X91440000Y-113411000D02*
X91440000Y-111125000D01*
X91440000Y-111125000D02*
X93091000Y-111125000D01*
X94869000Y-113411000D02*
X96520000Y-113411000D01*
X96520000Y-113411000D02*
X96520000Y-111125000D01*
X96520000Y-111125000D02*
X94869000Y-111125000D01*
X93091000Y-113411000D02*
X91440000Y-113411000D01*
X93599000Y-117348000D02*
X93599000Y-115062000D01*
X93599000Y-115062000D02*
X95250000Y-115062000D01*
X97028000Y-117348000D02*
X98679000Y-117348000D01*
X98679000Y-117348000D02*
X98679000Y-115062000D01*
X98679000Y-115062000D02*
X97028000Y-115062000D01*
X95250000Y-117348000D02*
X93599000Y-117348000D01*
X93599000Y-119761000D02*
X93599000Y-117475000D01*
X93599000Y-117475000D02*
X95250000Y-117475000D01*
X97028000Y-119761000D02*
X98679000Y-119761000D01*
X98679000Y-119761000D02*
X98679000Y-117475000D01*
X98679000Y-117475000D02*
X97028000Y-117475000D01*
X95250000Y-119761000D02*
X93599000Y-119761000D01*
X107950000Y-120015000D02*
X113030000Y-120015000D01*
X107950000Y-115697000D02*
X113030000Y-115697000D01*
X107950000Y-115062000D02*
X107950000Y-120650000D01*
X107950000Y-120650000D02*
X113030000Y-120650000D01*
X113030000Y-120650000D02*
X113030000Y-115062000D01*
X113030000Y-115062000D02*
X107950000Y-115062000D01*
D15*
X106791760Y-122308620D02*
X106791760Y-121610120D01*
X106791760Y-123309380D02*
X106791760Y-124007880D01*
X108092240Y-122308620D02*
X108092240Y-121610120D01*
X108092240Y-124007880D02*
X108092240Y-123309380D01*
X108077000Y-121610120D02*
X106807000Y-121610120D01*
X106807000Y-124007880D02*
X108077000Y-124007880D01*
D17*
X112336580Y-122740420D02*
X111437420Y-122740420D01*
X111437420Y-122740420D02*
X111437420Y-122341640D01*
X112336580Y-122341640D02*
X111437420Y-122341640D01*
X112336580Y-122740420D02*
X112336580Y-122341640D01*
X112336580Y-124038360D02*
X111437420Y-124038360D01*
X111437420Y-124038360D02*
X111437420Y-123639580D01*
X112336580Y-123639580D02*
X111437420Y-123639580D01*
X112336580Y-124038360D02*
X112336580Y-123639580D01*
X112336580Y-123190000D02*
X112186720Y-123190000D01*
X112186720Y-123190000D02*
X112186720Y-122890280D01*
X112336580Y-122890280D02*
X112186720Y-122890280D01*
X112336580Y-123190000D02*
X112336580Y-122890280D01*
X111587280Y-123190000D02*
X111437420Y-123190000D01*
X111437420Y-123190000D02*
X111437420Y-122890280D01*
X111587280Y-122890280D02*
X111437420Y-122890280D01*
X111587280Y-123190000D02*
X111587280Y-122890280D01*
X112036860Y-123190000D02*
X111737140Y-123190000D01*
X111737140Y-123190000D02*
X111737140Y-122890280D01*
X112036860Y-122890280D02*
X111737140Y-122890280D01*
X112036860Y-123190000D02*
X112036860Y-122890280D01*
D18*
X112285780Y-122740420D02*
X112285780Y-123639580D01*
X111488220Y-122740420D02*
X111488220Y-123639580D01*
D17*
X110899580Y-122750420D02*
X110000420Y-122750420D01*
X110000420Y-122750420D02*
X110000420Y-122351640D01*
X110899580Y-122351640D02*
X110000420Y-122351640D01*
X110899580Y-122750420D02*
X110899580Y-122351640D01*
X110899580Y-124048360D02*
X110000420Y-124048360D01*
X110000420Y-124048360D02*
X110000420Y-123649580D01*
X110899580Y-123649580D02*
X110000420Y-123649580D01*
X110899580Y-124048360D02*
X110899580Y-123649580D01*
X110899580Y-123200000D02*
X110749720Y-123200000D01*
X110749720Y-123200000D02*
X110749720Y-122900280D01*
X110899580Y-122900280D02*
X110749720Y-122900280D01*
X110899580Y-123200000D02*
X110899580Y-122900280D01*
X110150280Y-123200000D02*
X110000420Y-123200000D01*
X110000420Y-123200000D02*
X110000420Y-122900280D01*
X110150280Y-122900280D02*
X110000420Y-122900280D01*
X110150280Y-123200000D02*
X110150280Y-122900280D01*
X110599860Y-123200000D02*
X110300140Y-123200000D01*
X110300140Y-123200000D02*
X110300140Y-122900280D01*
X110599860Y-122900280D02*
X110300140Y-122900280D01*
X110599860Y-123200000D02*
X110599860Y-122900280D01*
D18*
X110848780Y-122750420D02*
X110848780Y-123649580D01*
X110051220Y-122750420D02*
X110051220Y-123649580D01*
D17*
X109499580Y-122750420D02*
X108600420Y-122750420D01*
X108600420Y-122750420D02*
X108600420Y-122351640D01*
X109499580Y-122351640D02*
X108600420Y-122351640D01*
X109499580Y-122750420D02*
X109499580Y-122351640D01*
X109499580Y-124048360D02*
X108600420Y-124048360D01*
X108600420Y-124048360D02*
X108600420Y-123649580D01*
X109499580Y-123649580D02*
X108600420Y-123649580D01*
X109499580Y-124048360D02*
X109499580Y-123649580D01*
X109499580Y-123200000D02*
X109349720Y-123200000D01*
X109349720Y-123200000D02*
X109349720Y-122900280D01*
X109499580Y-122900280D02*
X109349720Y-122900280D01*
X109499580Y-123200000D02*
X109499580Y-122900280D01*
X108750280Y-123200000D02*
X108600420Y-123200000D01*
X108600420Y-123200000D02*
X108600420Y-122900280D01*
X108750280Y-122900280D02*
X108600420Y-122900280D01*
X108750280Y-123200000D02*
X108750280Y-122900280D01*
X109199860Y-123200000D02*
X108900140Y-123200000D01*
X108900140Y-123200000D02*
X108900140Y-122900280D01*
X109199860Y-122900280D02*
X108900140Y-122900280D01*
X109199860Y-123200000D02*
X109199860Y-122900280D01*
D18*
X109448780Y-122750420D02*
X109448780Y-123649580D01*
X108651220Y-122750420D02*
X108651220Y-123649580D01*
D19*
X87195660Y-113680240D02*
X87195660Y-112379760D01*
X87195660Y-113030000D02*
X86794340Y-112781080D01*
X87195660Y-113030000D02*
X86794340Y-113329720D01*
X88795860Y-111279940D02*
X88795860Y-111630460D01*
X88795860Y-114780060D02*
X88795860Y-114429540D01*
X89245440Y-111279940D02*
X89245440Y-111630460D01*
X84744560Y-111279940D02*
X84744560Y-111630460D01*
X84744560Y-114780060D02*
X84744560Y-114429540D01*
X89245440Y-114780060D02*
X89245440Y-114429540D01*
X84744560Y-111279940D02*
X89245440Y-111279940D01*
X84744560Y-114780060D02*
X89245440Y-114780060D01*
D10*
X79361000Y-110877000D02*
X83961000Y-110877000D01*
X83961000Y-110877000D02*
X83961000Y-105277000D01*
X83961000Y-105277000D02*
X79361000Y-105277000D01*
X79361000Y-105277000D02*
X79361000Y-110877000D01*
X95236000Y-108464000D02*
X99836000Y-108464000D01*
X99836000Y-108464000D02*
X99836000Y-102864000D01*
X99836000Y-102864000D02*
X95236000Y-102864000D01*
X95236000Y-102864000D02*
X95236000Y-108464000D01*
D19*
X105544620Y-95183960D02*
X115943380Y-95183960D01*
X115943380Y-95183960D02*
X115943380Y-87386160D01*
X115943380Y-87386160D02*
X113543080Y-86085680D01*
X113543080Y-86085680D02*
X107944920Y-86085680D01*
X107944920Y-86085680D02*
X105544620Y-87386160D01*
X105544620Y-87386160D02*
X105544620Y-95183960D01*
X92717620Y-95183960D02*
X103116380Y-95183960D01*
X103116380Y-95183960D02*
X103116380Y-87386160D01*
X103116380Y-87386160D02*
X100716080Y-86085680D01*
X100716080Y-86085680D02*
X95117920Y-86085680D01*
X95117920Y-86085680D02*
X92717620Y-87386160D01*
X92717620Y-87386160D02*
X92717620Y-95183960D01*
X79636620Y-95183960D02*
X90035380Y-95183960D01*
X90035380Y-95183960D02*
X90035380Y-87386160D01*
X90035380Y-87386160D02*
X87635080Y-86085680D01*
X87635080Y-86085680D02*
X82036920Y-86085680D01*
X82036920Y-86085680D02*
X79636620Y-87386160D01*
X79636620Y-87386160D02*
X79636620Y-95183960D01*
D14*
X84501500Y-125599620D02*
X84501500Y-124893500D01*
X84501500Y-124893500D02*
X85898500Y-124893500D01*
X85898500Y-124893500D02*
X85898500Y-125599620D01*
X84501500Y-127306500D02*
X84501500Y-126600380D01*
X84501500Y-127306500D02*
X85898500Y-127306500D01*
X85898500Y-127306500D02*
X85898500Y-126600380D01*
X85898500Y-129500380D02*
X85898500Y-130206500D01*
X85898500Y-130206500D02*
X84501500Y-130206500D01*
X84501500Y-130206500D02*
X84501500Y-129500380D01*
X85898500Y-127793500D02*
X85898500Y-128499620D01*
X85898500Y-127793500D02*
X84501500Y-127793500D01*
X84501500Y-127793500D02*
X84501500Y-128499620D01*
X109974380Y-132905500D02*
X110680500Y-132905500D01*
X110680500Y-132905500D02*
X110680500Y-134302500D01*
X110680500Y-134302500D02*
X109974380Y-134302500D01*
X108267500Y-132905500D02*
X108973620Y-132905500D01*
X108267500Y-132905500D02*
X108267500Y-134302500D01*
X108267500Y-134302500D02*
X108973620Y-134302500D01*
X80750380Y-128601500D02*
X81456500Y-128601500D01*
X81456500Y-128601500D02*
X81456500Y-129998500D01*
X81456500Y-129998500D02*
X80750380Y-129998500D01*
X79043500Y-128601500D02*
X79749620Y-128601500D01*
X79043500Y-128601500D02*
X79043500Y-129998500D01*
X79043500Y-129998500D02*
X79749620Y-129998500D01*
X84010500Y-134866380D02*
X84010500Y-135572500D01*
X84010500Y-135572500D02*
X82613500Y-135572500D01*
X82613500Y-135572500D02*
X82613500Y-134866380D01*
X84010500Y-133159500D02*
X84010500Y-133865620D01*
X84010500Y-133159500D02*
X82613500Y-133159500D01*
X82613500Y-133159500D02*
X82613500Y-133865620D01*
X87058500Y-134866380D02*
X87058500Y-135572500D01*
X87058500Y-135572500D02*
X85661500Y-135572500D01*
X85661500Y-135572500D02*
X85661500Y-134866380D01*
X87058500Y-133159500D02*
X87058500Y-133865620D01*
X87058500Y-133159500D02*
X85661500Y-133159500D01*
X85661500Y-133159500D02*
X85661500Y-133865620D01*
X90106500Y-134866380D02*
X90106500Y-135572500D01*
X90106500Y-135572500D02*
X88709500Y-135572500D01*
X88709500Y-135572500D02*
X88709500Y-134866380D01*
X90106500Y-133159500D02*
X90106500Y-133865620D01*
X90106500Y-133159500D02*
X88709500Y-133159500D01*
X88709500Y-133159500D02*
X88709500Y-133865620D01*
X93154500Y-134866380D02*
X93154500Y-135572500D01*
X93154500Y-135572500D02*
X91757500Y-135572500D01*
X91757500Y-135572500D02*
X91757500Y-134866380D01*
X93154500Y-133159500D02*
X93154500Y-133865620D01*
X93154500Y-133159500D02*
X91757500Y-133159500D01*
X91757500Y-133159500D02*
X91757500Y-133865620D01*
X91630500Y-134866380D02*
X91630500Y-135572500D01*
X91630500Y-135572500D02*
X90233500Y-135572500D01*
X90233500Y-135572500D02*
X90233500Y-134866380D01*
X91630500Y-133159500D02*
X91630500Y-133865620D01*
X91630500Y-133159500D02*
X90233500Y-133159500D01*
X90233500Y-133159500D02*
X90233500Y-133865620D01*
X88582500Y-134866380D02*
X88582500Y-135572500D01*
X88582500Y-135572500D02*
X87185500Y-135572500D01*
X87185500Y-135572500D02*
X87185500Y-134866380D01*
X88582500Y-133159500D02*
X88582500Y-133865620D01*
X88582500Y-133159500D02*
X87185500Y-133159500D01*
X87185500Y-133159500D02*
X87185500Y-133865620D01*
X85534500Y-134866380D02*
X85534500Y-135572500D01*
X85534500Y-135572500D02*
X84137500Y-135572500D01*
X84137500Y-135572500D02*
X84137500Y-134866380D01*
X85534500Y-133159500D02*
X85534500Y-133865620D01*
X85534500Y-133159500D02*
X84137500Y-133159500D01*
X84137500Y-133159500D02*
X84137500Y-133865620D01*
X101084380Y-122999500D02*
X101790500Y-122999500D01*
X101790500Y-122999500D02*
X101790500Y-124396500D01*
X101790500Y-124396500D02*
X101084380Y-124396500D01*
X99377500Y-122999500D02*
X100083620Y-122999500D01*
X99377500Y-122999500D02*
X99377500Y-124396500D01*
X99377500Y-124396500D02*
X100083620Y-124396500D01*
X98417380Y-120078500D02*
X99123500Y-120078500D01*
X99123500Y-120078500D02*
X99123500Y-121475500D01*
X99123500Y-121475500D02*
X98417380Y-121475500D01*
X96710500Y-120078500D02*
X97416620Y-120078500D01*
X96710500Y-120078500D02*
X96710500Y-121475500D01*
X96710500Y-121475500D02*
X97416620Y-121475500D01*
X93733620Y-122364500D02*
X93027500Y-122364500D01*
X93027500Y-122364500D02*
X93027500Y-120967500D01*
X93027500Y-120967500D02*
X93733620Y-120967500D01*
X95440500Y-122364500D02*
X94734380Y-122364500D01*
X95440500Y-122364500D02*
X95440500Y-120967500D01*
X95440500Y-120967500D02*
X94734380Y-120967500D01*
X108401500Y-125499620D02*
X108401500Y-124793500D01*
X108401500Y-124793500D02*
X109798500Y-124793500D01*
X109798500Y-124793500D02*
X109798500Y-125499620D01*
X108401500Y-127206500D02*
X108401500Y-126500380D01*
X108401500Y-127206500D02*
X109798500Y-127206500D01*
X109798500Y-127206500D02*
X109798500Y-126500380D01*
X87764620Y-129222500D02*
X87058500Y-129222500D01*
X87058500Y-129222500D02*
X87058500Y-127825500D01*
X87058500Y-127825500D02*
X87764620Y-127825500D01*
X89471500Y-129222500D02*
X88765380Y-129222500D01*
X89471500Y-129222500D02*
X89471500Y-127825500D01*
X89471500Y-127825500D02*
X88765380Y-127825500D01*
X93200380Y-127351500D02*
X93906500Y-127351500D01*
X93906500Y-127351500D02*
X93906500Y-128748500D01*
X93906500Y-128748500D02*
X93200380Y-128748500D01*
X91493500Y-127351500D02*
X92199620Y-127351500D01*
X91493500Y-127351500D02*
X91493500Y-128748500D01*
X91493500Y-128748500D02*
X92199620Y-128748500D01*
X87764620Y-127698500D02*
X87058500Y-127698500D01*
X87058500Y-127698500D02*
X87058500Y-126301500D01*
X87058500Y-126301500D02*
X87764620Y-126301500D01*
X89471500Y-127698500D02*
X88765380Y-127698500D01*
X89471500Y-127698500D02*
X89471500Y-126301500D01*
X89471500Y-126301500D02*
X88765380Y-126301500D01*
X93200380Y-125851500D02*
X93906500Y-125851500D01*
X93906500Y-125851500D02*
X93906500Y-127248500D01*
X93906500Y-127248500D02*
X93200380Y-127248500D01*
X91493500Y-125851500D02*
X92199620Y-125851500D01*
X91493500Y-125851500D02*
X91493500Y-127248500D01*
X91493500Y-127248500D02*
X92199620Y-127248500D01*
X114546380Y-102425500D02*
X115252500Y-102425500D01*
X115252500Y-102425500D02*
X115252500Y-103822500D01*
X115252500Y-103822500D02*
X114546380Y-103822500D01*
X112839500Y-102425500D02*
X113545620Y-102425500D01*
X112839500Y-102425500D02*
X112839500Y-103822500D01*
X112839500Y-103822500D02*
X113545620Y-103822500D01*
X112190092Y-105747736D02*
X111690790Y-106247038D01*
X111690790Y-106247038D02*
X110702962Y-105259210D01*
X110702962Y-105259210D02*
X111202264Y-104759908D01*
X113397038Y-104540790D02*
X112897736Y-105040092D01*
X113397038Y-104540790D02*
X112409210Y-103552962D01*
X112409210Y-103552962D02*
X111909908Y-104052264D01*
X87749620Y-126148500D02*
X87043500Y-126148500D01*
X87043500Y-126148500D02*
X87043500Y-124751500D01*
X87043500Y-124751500D02*
X87749620Y-124751500D01*
X89456500Y-126148500D02*
X88750380Y-126148500D01*
X89456500Y-126148500D02*
X89456500Y-124751500D01*
X89456500Y-124751500D02*
X88750380Y-124751500D01*
X93200380Y-124351500D02*
X93906500Y-124351500D01*
X93906500Y-124351500D02*
X93906500Y-125748500D01*
X93906500Y-125748500D02*
X93200380Y-125748500D01*
X91493500Y-124351500D02*
X92199620Y-124351500D01*
X91493500Y-124351500D02*
X91493500Y-125748500D01*
X91493500Y-125748500D02*
X92199620Y-125748500D01*
X103695500Y-100845620D02*
X103695500Y-100139500D01*
X103695500Y-100139500D02*
X105092500Y-100139500D01*
X105092500Y-100139500D02*
X105092500Y-100845620D01*
X103695500Y-102552500D02*
X103695500Y-101846380D01*
X103695500Y-102552500D02*
X105092500Y-102552500D01*
X105092500Y-102552500D02*
X105092500Y-101846380D01*
X103695500Y-98305620D02*
X103695500Y-97599500D01*
X103695500Y-97599500D02*
X105092500Y-97599500D01*
X105092500Y-97599500D02*
X105092500Y-98305620D01*
X103695500Y-100012500D02*
X103695500Y-99306380D01*
X103695500Y-100012500D02*
X105092500Y-100012500D01*
X105092500Y-100012500D02*
X105092500Y-99306380D01*
X111401500Y-125499620D02*
X111401500Y-124793500D01*
X111401500Y-124793500D02*
X112798500Y-124793500D01*
X112798500Y-124793500D02*
X112798500Y-125499620D01*
X111401500Y-127206500D02*
X111401500Y-126500380D01*
X111401500Y-127206500D02*
X112798500Y-127206500D01*
X112798500Y-127206500D02*
X112798500Y-126500380D01*
X109901500Y-125499620D02*
X109901500Y-124793500D01*
X109901500Y-124793500D02*
X111298500Y-124793500D01*
X111298500Y-124793500D02*
X111298500Y-125499620D01*
X109901500Y-127206500D02*
X109901500Y-126500380D01*
X109901500Y-127206500D02*
X111298500Y-127206500D01*
X111298500Y-127206500D02*
X111298500Y-126500380D01*
X90487500Y-100337620D02*
X90487500Y-99631500D01*
X90487500Y-99631500D02*
X91884500Y-99631500D01*
X91884500Y-99631500D02*
X91884500Y-100337620D01*
X90487500Y-102044500D02*
X90487500Y-101338380D01*
X90487500Y-102044500D02*
X91884500Y-102044500D01*
X91884500Y-102044500D02*
X91884500Y-101338380D01*
X90487500Y-97543620D02*
X90487500Y-96837500D01*
X90487500Y-96837500D02*
X91884500Y-96837500D01*
X91884500Y-96837500D02*
X91884500Y-97543620D01*
X90487500Y-99250500D02*
X90487500Y-98544380D01*
X90487500Y-99250500D02*
X91884500Y-99250500D01*
X91884500Y-99250500D02*
X91884500Y-98544380D01*
D19*
X101473000Y-110109000D02*
X101473000Y-103505000D01*
X101473000Y-103505000D02*
X108331000Y-103505000D01*
X108331000Y-103505000D02*
X108331000Y-110109000D01*
X108331000Y-110109000D02*
X101473000Y-110109000D01*
X86741000Y-109855000D02*
X86741000Y-103251000D01*
X86741000Y-103251000D02*
X93599000Y-103251000D01*
X93599000Y-103251000D02*
X93599000Y-109855000D01*
X93599000Y-109855000D02*
X86741000Y-109855000D01*
D14*
X115301500Y-110599620D02*
X115301500Y-109893500D01*
X115301500Y-109893500D02*
X116698500Y-109893500D01*
X116698500Y-109893500D02*
X116698500Y-110599620D01*
X115301500Y-112306500D02*
X115301500Y-111600380D01*
X115301500Y-112306500D02*
X116698500Y-112306500D01*
X116698500Y-112306500D02*
X116698500Y-111600380D01*
X116698500Y-109000380D02*
X116698500Y-109706500D01*
X116698500Y-109706500D02*
X115301500Y-109706500D01*
X115301500Y-109706500D02*
X115301500Y-109000380D01*
X116698500Y-107293500D02*
X116698500Y-107999620D01*
X116698500Y-107293500D02*
X115301500Y-107293500D01*
X115301500Y-107293500D02*
X115301500Y-107999620D01*
X84748500Y-132300380D02*
X84748500Y-133006500D01*
X84748500Y-133006500D02*
X83351500Y-133006500D01*
X83351500Y-133006500D02*
X83351500Y-132300380D01*
X84748500Y-130593500D02*
X84748500Y-131299620D01*
X84748500Y-130593500D02*
X83351500Y-130593500D01*
X83351500Y-130593500D02*
X83351500Y-131299620D01*
D20*
X99516857Y-135582714D02*
X99008857Y-136344714D01*
X99008857Y-135582714D02*
X99516857Y-136344714D01*
X98754857Y-135655286D02*
X98718571Y-135619000D01*
X98646000Y-135582714D01*
X98464571Y-135582714D01*
X98392000Y-135619000D01*
X98355714Y-135655286D01*
X98319429Y-135727857D01*
X98319429Y-135800429D01*
X98355714Y-135909286D01*
X98791143Y-136344714D01*
X98319429Y-136344714D01*
D12*
X89974095Y-121943619D02*
X89974095Y-122766095D01*
X89925714Y-122862857D01*
X89877333Y-122911238D01*
X89780571Y-122959619D01*
X89587048Y-122959619D01*
X89490286Y-122911238D01*
X89441905Y-122862857D01*
X89393524Y-122766095D01*
X89393524Y-121943619D01*
X88958095Y-122040381D02*
X88909714Y-121992000D01*
X88812952Y-121943619D01*
X88571048Y-121943619D01*
X88474286Y-121992000D01*
X88425905Y-122040381D01*
X88377524Y-122137143D01*
X88377524Y-122233905D01*
X88425905Y-122379048D01*
X89006476Y-122959619D01*
X88377524Y-122959619D01*
D14*
X103830857Y-111919143D02*
X103867143Y-111955429D01*
X103976000Y-111991714D01*
X104048571Y-111991714D01*
X104157428Y-111955429D01*
X104230000Y-111882857D01*
X104266285Y-111810286D01*
X104302571Y-111665143D01*
X104302571Y-111556286D01*
X104266285Y-111411143D01*
X104230000Y-111338571D01*
X104157428Y-111266000D01*
X104048571Y-111229714D01*
X103976000Y-111229714D01*
X103867143Y-111266000D01*
X103830857Y-111302286D01*
X103177714Y-111483714D02*
X103177714Y-111991714D01*
X103359143Y-111193429D02*
X103540571Y-111737714D01*
X103068857Y-111737714D01*
X102633429Y-111229714D02*
X102560857Y-111229714D01*
X102488286Y-111266000D01*
X102452000Y-111302286D01*
X102415714Y-111374857D01*
X102379429Y-111520000D01*
X102379429Y-111701429D01*
X102415714Y-111846571D01*
X102452000Y-111919143D01*
X102488286Y-111955429D01*
X102560857Y-111991714D01*
X102633429Y-111991714D01*
X102706000Y-111955429D01*
X102742286Y-111919143D01*
X102778571Y-111846571D01*
X102814857Y-111701429D01*
X102814857Y-111520000D01*
X102778571Y-111374857D01*
X102742286Y-111302286D01*
X102706000Y-111266000D01*
X102633429Y-111229714D01*
X112367143Y-113321000D02*
X112403429Y-113284714D01*
X112439714Y-113175857D01*
X112439714Y-113103286D01*
X112403429Y-112994429D01*
X112330857Y-112921857D01*
X112258286Y-112885572D01*
X112113143Y-112849286D01*
X112004286Y-112849286D01*
X111859143Y-112885572D01*
X111786571Y-112921857D01*
X111714000Y-112994429D01*
X111677714Y-113103286D01*
X111677714Y-113175857D01*
X111714000Y-113284714D01*
X111750286Y-113321000D01*
X112004286Y-113756429D02*
X111968000Y-113683857D01*
X111931714Y-113647572D01*
X111859143Y-113611286D01*
X111822857Y-113611286D01*
X111750286Y-113647572D01*
X111714000Y-113683857D01*
X111677714Y-113756429D01*
X111677714Y-113901572D01*
X111714000Y-113974143D01*
X111750286Y-114010429D01*
X111822857Y-114046714D01*
X111859143Y-114046714D01*
X111931714Y-114010429D01*
X111968000Y-113974143D01*
X112004286Y-113901572D01*
X112004286Y-113756429D01*
X112040571Y-113683857D01*
X112076857Y-113647572D01*
X112149429Y-113611286D01*
X112294571Y-113611286D01*
X112367143Y-113647572D01*
X112403429Y-113683857D01*
X112439714Y-113756429D01*
X112439714Y-113901572D01*
X112403429Y-113974143D01*
X112367143Y-114010429D01*
X112294571Y-114046714D01*
X112149429Y-114046714D01*
X112076857Y-114010429D01*
X112040571Y-113974143D01*
X112004286Y-113901572D01*
X104394000Y-114699143D02*
X104430286Y-114735429D01*
X104539143Y-114771714D01*
X104611714Y-114771714D01*
X104720571Y-114735429D01*
X104793143Y-114662857D01*
X104829428Y-114590286D01*
X104865714Y-114445143D01*
X104865714Y-114336286D01*
X104829428Y-114191143D01*
X104793143Y-114118571D01*
X104720571Y-114046000D01*
X104611714Y-114009714D01*
X104539143Y-114009714D01*
X104430286Y-114046000D01*
X104394000Y-114082286D01*
X104031143Y-114771714D02*
X103886000Y-114771714D01*
X103813428Y-114735429D01*
X103777143Y-114699143D01*
X103704571Y-114590286D01*
X103668286Y-114445143D01*
X103668286Y-114154857D01*
X103704571Y-114082286D01*
X103740857Y-114046000D01*
X103813428Y-114009714D01*
X103958571Y-114009714D01*
X104031143Y-114046000D01*
X104067428Y-114082286D01*
X104103714Y-114154857D01*
X104103714Y-114336286D01*
X104067428Y-114408857D01*
X104031143Y-114445143D01*
X103958571Y-114481429D01*
X103813428Y-114481429D01*
X103740857Y-114445143D01*
X103704571Y-114408857D01*
X103668286Y-114336286D01*
D21*
X82781429Y-127423800D02*
X82805619Y-127402029D01*
X82829810Y-127336715D01*
X82829810Y-127293172D01*
X82805619Y-127227857D01*
X82757238Y-127184315D01*
X82708857Y-127162543D01*
X82612095Y-127140772D01*
X82539524Y-127140772D01*
X82442762Y-127162543D01*
X82394381Y-127184315D01*
X82346000Y-127227857D01*
X82321810Y-127293172D01*
X82321810Y-127336715D01*
X82346000Y-127402029D01*
X82370190Y-127423800D01*
X82370190Y-127597972D02*
X82346000Y-127619743D01*
X82321810Y-127663286D01*
X82321810Y-127772143D01*
X82346000Y-127815686D01*
X82370190Y-127837457D01*
X82418571Y-127859229D01*
X82466952Y-127859229D01*
X82539524Y-127837457D01*
X82829810Y-127576200D01*
X82829810Y-127859229D01*
X112090200Y-132642429D02*
X112111971Y-132666619D01*
X112177285Y-132690810D01*
X112220828Y-132690810D01*
X112286143Y-132666619D01*
X112329685Y-132618238D01*
X112351457Y-132569857D01*
X112373228Y-132473095D01*
X112373228Y-132400524D01*
X112351457Y-132303762D01*
X112329685Y-132255381D01*
X112286143Y-132207000D01*
X112220828Y-132182810D01*
X112177285Y-132182810D01*
X112111971Y-132207000D01*
X112090200Y-132231190D01*
X111937800Y-132182810D02*
X111654771Y-132182810D01*
X111807171Y-132376333D01*
X111741857Y-132376333D01*
X111698314Y-132400524D01*
X111676543Y-132424714D01*
X111654771Y-132473095D01*
X111654771Y-132594048D01*
X111676543Y-132642429D01*
X111698314Y-132666619D01*
X111741857Y-132690810D01*
X111872485Y-132690810D01*
X111916028Y-132666619D01*
X111937800Y-132642429D01*
X81876200Y-136181429D02*
X81897971Y-136205619D01*
X81963285Y-136229810D01*
X82006828Y-136229810D01*
X82072143Y-136205619D01*
X82115685Y-136157238D01*
X82137457Y-136108857D01*
X82159228Y-136012095D01*
X82159228Y-135939524D01*
X82137457Y-135842762D01*
X82115685Y-135794381D01*
X82072143Y-135746000D01*
X82006828Y-135721810D01*
X81963285Y-135721810D01*
X81897971Y-135746000D01*
X81876200Y-135770190D01*
X81484314Y-135891143D02*
X81484314Y-136229810D01*
X81593171Y-135697619D02*
X81702028Y-136060476D01*
X81419000Y-136060476D01*
X93781429Y-131723800D02*
X93805619Y-131702029D01*
X93829810Y-131636715D01*
X93829810Y-131593172D01*
X93805619Y-131527857D01*
X93757238Y-131484315D01*
X93708857Y-131462543D01*
X93612095Y-131440772D01*
X93539524Y-131440772D01*
X93442762Y-131462543D01*
X93394381Y-131484315D01*
X93346000Y-131527857D01*
X93321810Y-131593172D01*
X93321810Y-131636715D01*
X93346000Y-131702029D01*
X93370190Y-131723800D01*
X93321810Y-132137457D02*
X93321810Y-131919743D01*
X93563714Y-131897972D01*
X93539524Y-131919743D01*
X93515333Y-131963286D01*
X93515333Y-132072143D01*
X93539524Y-132115686D01*
X93563714Y-132137457D01*
X93612095Y-132159229D01*
X93733048Y-132159229D01*
X93781429Y-132137457D01*
X93805619Y-132115686D01*
X93829810Y-132072143D01*
X93829810Y-131963286D01*
X93805619Y-131919743D01*
X93781429Y-131897972D01*
X90976200Y-130481429D02*
X90997971Y-130505619D01*
X91063285Y-130529810D01*
X91106828Y-130529810D01*
X91172143Y-130505619D01*
X91215685Y-130457238D01*
X91237457Y-130408857D01*
X91259228Y-130312095D01*
X91259228Y-130239524D01*
X91237457Y-130142762D01*
X91215685Y-130094381D01*
X91172143Y-130046000D01*
X91106828Y-130021810D01*
X91063285Y-130021810D01*
X90997971Y-130046000D01*
X90976200Y-130070190D01*
X90584314Y-130021810D02*
X90671400Y-130021810D01*
X90714943Y-130046000D01*
X90736714Y-130070190D01*
X90780257Y-130142762D01*
X90802028Y-130239524D01*
X90802028Y-130433048D01*
X90780257Y-130481429D01*
X90758485Y-130505619D01*
X90714943Y-130529810D01*
X90627857Y-130529810D01*
X90584314Y-130505619D01*
X90562543Y-130481429D01*
X90540771Y-130433048D01*
X90540771Y-130312095D01*
X90562543Y-130263714D01*
X90584314Y-130239524D01*
X90627857Y-130215333D01*
X90714943Y-130215333D01*
X90758485Y-130239524D01*
X90780257Y-130263714D01*
X90802028Y-130312095D01*
X87681429Y-131723800D02*
X87705619Y-131702029D01*
X87729810Y-131636715D01*
X87729810Y-131593172D01*
X87705619Y-131527857D01*
X87657238Y-131484315D01*
X87608857Y-131462543D01*
X87512095Y-131440772D01*
X87439524Y-131440772D01*
X87342762Y-131462543D01*
X87294381Y-131484315D01*
X87246000Y-131527857D01*
X87221810Y-131593172D01*
X87221810Y-131636715D01*
X87246000Y-131702029D01*
X87270190Y-131723800D01*
X87221810Y-131876200D02*
X87221810Y-132181000D01*
X87729810Y-131985057D01*
X96178915Y-123371429D02*
X96200686Y-123395619D01*
X96266000Y-123419810D01*
X96309543Y-123419810D01*
X96374858Y-123395619D01*
X96418400Y-123347238D01*
X96440172Y-123298857D01*
X96461943Y-123202095D01*
X96461943Y-123129524D01*
X96440172Y-123032762D01*
X96418400Y-122984381D01*
X96374858Y-122936000D01*
X96309543Y-122911810D01*
X96266000Y-122911810D01*
X96200686Y-122936000D01*
X96178915Y-122960190D01*
X95743486Y-123419810D02*
X96004743Y-123419810D01*
X95874115Y-123419810D02*
X95874115Y-122911810D01*
X95917658Y-122984381D01*
X95961200Y-123032762D01*
X96004743Y-123056952D01*
X95351600Y-123081143D02*
X95351600Y-123419810D01*
X95460457Y-122887619D02*
X95569314Y-123250476D01*
X95286286Y-123250476D01*
X98083915Y-129848429D02*
X98105686Y-129872619D01*
X98171000Y-129896810D01*
X98214543Y-129896810D01*
X98279858Y-129872619D01*
X98323400Y-129824238D01*
X98345172Y-129775857D01*
X98366943Y-129679095D01*
X98366943Y-129606524D01*
X98345172Y-129509762D01*
X98323400Y-129461381D01*
X98279858Y-129413000D01*
X98214543Y-129388810D01*
X98171000Y-129388810D01*
X98105686Y-129413000D01*
X98083915Y-129437190D01*
X97648486Y-129896810D02*
X97909743Y-129896810D01*
X97779115Y-129896810D02*
X97779115Y-129388810D01*
X97822658Y-129461381D01*
X97866200Y-129509762D01*
X97909743Y-129533952D01*
X97234829Y-129388810D02*
X97452543Y-129388810D01*
X97474314Y-129630714D01*
X97452543Y-129606524D01*
X97409000Y-129582333D01*
X97300143Y-129582333D01*
X97256600Y-129606524D01*
X97234829Y-129630714D01*
X97213057Y-129679095D01*
X97213057Y-129800048D01*
X97234829Y-129848429D01*
X97256600Y-129872619D01*
X97300143Y-129896810D01*
X97409000Y-129896810D01*
X97452543Y-129872619D01*
X97474314Y-129848429D01*
X107893915Y-127781429D02*
X107915686Y-127805619D01*
X107981000Y-127829810D01*
X108024543Y-127829810D01*
X108089858Y-127805619D01*
X108133400Y-127757238D01*
X108155172Y-127708857D01*
X108176943Y-127612095D01*
X108176943Y-127539524D01*
X108155172Y-127442762D01*
X108133400Y-127394381D01*
X108089858Y-127346000D01*
X108024543Y-127321810D01*
X107981000Y-127321810D01*
X107915686Y-127346000D01*
X107893915Y-127370190D01*
X107458486Y-127829810D02*
X107719743Y-127829810D01*
X107589115Y-127829810D02*
X107589115Y-127321810D01*
X107632658Y-127394381D01*
X107676200Y-127442762D01*
X107719743Y-127466952D01*
X107066600Y-127321810D02*
X107153686Y-127321810D01*
X107197229Y-127346000D01*
X107219000Y-127370190D01*
X107262543Y-127442762D01*
X107284314Y-127539524D01*
X107284314Y-127733048D01*
X107262543Y-127781429D01*
X107240771Y-127805619D01*
X107197229Y-127829810D01*
X107110143Y-127829810D01*
X107066600Y-127805619D01*
X107044829Y-127781429D01*
X107023057Y-127733048D01*
X107023057Y-127612095D01*
X107044829Y-127563714D01*
X107066600Y-127539524D01*
X107110143Y-127515333D01*
X107197229Y-127515333D01*
X107240771Y-127539524D01*
X107262543Y-127563714D01*
X107284314Y-127612095D01*
X98981429Y-124606085D02*
X99005619Y-124584314D01*
X99029810Y-124519000D01*
X99029810Y-124475457D01*
X99005619Y-124410142D01*
X98957238Y-124366600D01*
X98908857Y-124344828D01*
X98812095Y-124323057D01*
X98739524Y-124323057D01*
X98642762Y-124344828D01*
X98594381Y-124366600D01*
X98546000Y-124410142D01*
X98521810Y-124475457D01*
X98521810Y-124519000D01*
X98546000Y-124584314D01*
X98570190Y-124606085D01*
X99029810Y-125041514D02*
X99029810Y-124780257D01*
X99029810Y-124910885D02*
X98521810Y-124910885D01*
X98594381Y-124867342D01*
X98642762Y-124823800D01*
X98666952Y-124780257D01*
X98521810Y-125193914D02*
X98521810Y-125498714D01*
X99029810Y-125302771D01*
D22*
X101321672Y-119278707D02*
X101345500Y-119302535D01*
X101416983Y-119326362D01*
X101464638Y-119326362D01*
X101536121Y-119302535D01*
X101583776Y-119254880D01*
X101607604Y-119207224D01*
X101631432Y-119111914D01*
X101631432Y-119040431D01*
X101607604Y-118945120D01*
X101583776Y-118897465D01*
X101536121Y-118849810D01*
X101464638Y-118825982D01*
X101416983Y-118825982D01*
X101345500Y-118849810D01*
X101321672Y-118873638D01*
X100845120Y-119326362D02*
X101131052Y-119326362D01*
X100988086Y-119326362D02*
X100988086Y-118825982D01*
X101035741Y-118897465D01*
X101083396Y-118945120D01*
X101131052Y-118968948D01*
X100559189Y-119040431D02*
X100606844Y-119016603D01*
X100630672Y-118992776D01*
X100654500Y-118945120D01*
X100654500Y-118921293D01*
X100630672Y-118873638D01*
X100606844Y-118849810D01*
X100559189Y-118825982D01*
X100463879Y-118825982D01*
X100416223Y-118849810D01*
X100392396Y-118873638D01*
X100368568Y-118921293D01*
X100368568Y-118945120D01*
X100392396Y-118992776D01*
X100416223Y-119016603D01*
X100463879Y-119040431D01*
X100559189Y-119040431D01*
X100606844Y-119064259D01*
X100630672Y-119088086D01*
X100654500Y-119135741D01*
X100654500Y-119231052D01*
X100630672Y-119278707D01*
X100606844Y-119302535D01*
X100559189Y-119326362D01*
X100463879Y-119326362D01*
X100416223Y-119302535D01*
X100392396Y-119278707D01*
X100368568Y-119231052D01*
X100368568Y-119135741D01*
X100392396Y-119088086D01*
X100416223Y-119064259D01*
X100463879Y-119040431D01*
D21*
X106193915Y-124481429D02*
X106215686Y-124505619D01*
X106281000Y-124529810D01*
X106324543Y-124529810D01*
X106389858Y-124505619D01*
X106433400Y-124457238D01*
X106455172Y-124408857D01*
X106476943Y-124312095D01*
X106476943Y-124239524D01*
X106455172Y-124142762D01*
X106433400Y-124094381D01*
X106389858Y-124046000D01*
X106324543Y-124021810D01*
X106281000Y-124021810D01*
X106215686Y-124046000D01*
X106193915Y-124070190D01*
X106019743Y-124070190D02*
X105997972Y-124046000D01*
X105954429Y-124021810D01*
X105845572Y-124021810D01*
X105802029Y-124046000D01*
X105780258Y-124070190D01*
X105758486Y-124118571D01*
X105758486Y-124166952D01*
X105780258Y-124239524D01*
X106041515Y-124529810D01*
X105758486Y-124529810D01*
X105475457Y-124021810D02*
X105431914Y-124021810D01*
X105388371Y-124046000D01*
X105366600Y-124070190D01*
X105344829Y-124118571D01*
X105323057Y-124215333D01*
X105323057Y-124336286D01*
X105344829Y-124433048D01*
X105366600Y-124481429D01*
X105388371Y-124505619D01*
X105431914Y-124529810D01*
X105475457Y-124529810D01*
X105519000Y-124505619D01*
X105540771Y-124481429D01*
X105562543Y-124433048D01*
X105584314Y-124336286D01*
X105584314Y-124215333D01*
X105562543Y-124118571D01*
X105540771Y-124070190D01*
X105519000Y-124046000D01*
X105475457Y-124021810D01*
X86381429Y-122606085D02*
X86405619Y-122584314D01*
X86429810Y-122519000D01*
X86429810Y-122475457D01*
X86405619Y-122410142D01*
X86357238Y-122366600D01*
X86308857Y-122344828D01*
X86212095Y-122323057D01*
X86139524Y-122323057D01*
X86042762Y-122344828D01*
X85994381Y-122366600D01*
X85946000Y-122410142D01*
X85921810Y-122475457D01*
X85921810Y-122519000D01*
X85946000Y-122584314D01*
X85970190Y-122606085D01*
X85970190Y-122780257D02*
X85946000Y-122802028D01*
X85921810Y-122845571D01*
X85921810Y-122954428D01*
X85946000Y-122997971D01*
X85970190Y-123019742D01*
X86018571Y-123041514D01*
X86066952Y-123041514D01*
X86139524Y-123019742D01*
X86429810Y-122758485D01*
X86429810Y-123041514D01*
X86091143Y-123433400D02*
X86429810Y-123433400D01*
X85897619Y-123324543D02*
X86260476Y-123215686D01*
X86260476Y-123498714D01*
D15*
X78760207Y-123328328D02*
X78784035Y-123304500D01*
X78807862Y-123233017D01*
X78807862Y-123185362D01*
X78784035Y-123113879D01*
X78736380Y-123066224D01*
X78688724Y-123042396D01*
X78593414Y-123018568D01*
X78521931Y-123018568D01*
X78426620Y-123042396D01*
X78378965Y-123066224D01*
X78331310Y-123113879D01*
X78307482Y-123185362D01*
X78307482Y-123233017D01*
X78331310Y-123304500D01*
X78355138Y-123328328D01*
X78355138Y-123518948D02*
X78331310Y-123542776D01*
X78307482Y-123590431D01*
X78307482Y-123709569D01*
X78331310Y-123757225D01*
X78355138Y-123781052D01*
X78402793Y-123804880D01*
X78450448Y-123804880D01*
X78521931Y-123781052D01*
X78807862Y-123495121D01*
X78807862Y-123804880D01*
X78307482Y-124257604D02*
X78307482Y-124019328D01*
X78545759Y-123995500D01*
X78521931Y-124019328D01*
X78498103Y-124066983D01*
X78498103Y-124186121D01*
X78521931Y-124233777D01*
X78545759Y-124257604D01*
X78593414Y-124281432D01*
X78712552Y-124281432D01*
X78760207Y-124257604D01*
X78784035Y-124233777D01*
X78807862Y-124186121D01*
X78807862Y-124066983D01*
X78784035Y-124019328D01*
X78760207Y-123995500D01*
D21*
X105972429Y-133437085D02*
X105996619Y-133415314D01*
X106020810Y-133350000D01*
X106020810Y-133306457D01*
X105996619Y-133241142D01*
X105948238Y-133197600D01*
X105899857Y-133175828D01*
X105803095Y-133154057D01*
X105730524Y-133154057D01*
X105633762Y-133175828D01*
X105585381Y-133197600D01*
X105537000Y-133241142D01*
X105512810Y-133306457D01*
X105512810Y-133350000D01*
X105537000Y-133415314D01*
X105561190Y-133437085D01*
X105512810Y-133589485D02*
X105512810Y-133872514D01*
X105706333Y-133720114D01*
X105706333Y-133785428D01*
X105730524Y-133828971D01*
X105754714Y-133850742D01*
X105803095Y-133872514D01*
X105924048Y-133872514D01*
X105972429Y-133850742D01*
X105996619Y-133828971D01*
X106020810Y-133785428D01*
X106020810Y-133654800D01*
X105996619Y-133611257D01*
X105972429Y-133589485D01*
X106020810Y-134307943D02*
X106020810Y-134046686D01*
X106020810Y-134177314D02*
X105512810Y-134177314D01*
X105585381Y-134133771D01*
X105633762Y-134090229D01*
X105657952Y-134046686D01*
X97732429Y-136954085D02*
X97756619Y-136932314D01*
X97780810Y-136867000D01*
X97780810Y-136823457D01*
X97756619Y-136758142D01*
X97708238Y-136714600D01*
X97659857Y-136692828D01*
X97563095Y-136671057D01*
X97490524Y-136671057D01*
X97393762Y-136692828D01*
X97345381Y-136714600D01*
X97297000Y-136758142D01*
X97272810Y-136823457D01*
X97272810Y-136867000D01*
X97297000Y-136932314D01*
X97321190Y-136954085D01*
X97272810Y-137106485D02*
X97272810Y-137389514D01*
X97466333Y-137237114D01*
X97466333Y-137302428D01*
X97490524Y-137345971D01*
X97514714Y-137367742D01*
X97563095Y-137389514D01*
X97684048Y-137389514D01*
X97732429Y-137367742D01*
X97756619Y-137345971D01*
X97780810Y-137302428D01*
X97780810Y-137171800D01*
X97756619Y-137128257D01*
X97732429Y-137106485D01*
X97321190Y-137563686D02*
X97297000Y-137585457D01*
X97272810Y-137629000D01*
X97272810Y-137737857D01*
X97297000Y-137781400D01*
X97321190Y-137803171D01*
X97369571Y-137824943D01*
X97417952Y-137824943D01*
X97490524Y-137803171D01*
X97780810Y-137541914D01*
X97780810Y-137824943D01*
D15*
X85147207Y-117978328D02*
X85171035Y-117954500D01*
X85194862Y-117883017D01*
X85194862Y-117835362D01*
X85171035Y-117763879D01*
X85123380Y-117716224D01*
X85075724Y-117692396D01*
X84980414Y-117668568D01*
X84908931Y-117668568D01*
X84813620Y-117692396D01*
X84765965Y-117716224D01*
X84718310Y-117763879D01*
X84694482Y-117835362D01*
X84694482Y-117883017D01*
X84718310Y-117954500D01*
X84742138Y-117978328D01*
X84694482Y-118145121D02*
X84694482Y-118454880D01*
X84885103Y-118288087D01*
X84885103Y-118359569D01*
X84908931Y-118407225D01*
X84932759Y-118431052D01*
X84980414Y-118454880D01*
X85099552Y-118454880D01*
X85147207Y-118431052D01*
X85171035Y-118407225D01*
X85194862Y-118359569D01*
X85194862Y-118216604D01*
X85171035Y-118168948D01*
X85147207Y-118145121D01*
X84694482Y-118621673D02*
X84694482Y-118931432D01*
X84885103Y-118764639D01*
X84885103Y-118836121D01*
X84908931Y-118883777D01*
X84932759Y-118907604D01*
X84980414Y-118931432D01*
X85099552Y-118931432D01*
X85147207Y-118907604D01*
X85171035Y-118883777D01*
X85194862Y-118836121D01*
X85194862Y-118693156D01*
X85171035Y-118645500D01*
X85147207Y-118621673D01*
D21*
X100623915Y-129848429D02*
X100645686Y-129872619D01*
X100711000Y-129896810D01*
X100754543Y-129896810D01*
X100819858Y-129872619D01*
X100863400Y-129824238D01*
X100885172Y-129775857D01*
X100906943Y-129679095D01*
X100906943Y-129606524D01*
X100885172Y-129509762D01*
X100863400Y-129461381D01*
X100819858Y-129413000D01*
X100754543Y-129388810D01*
X100711000Y-129388810D01*
X100645686Y-129413000D01*
X100623915Y-129437190D01*
X100471515Y-129388810D02*
X100188486Y-129388810D01*
X100340886Y-129582333D01*
X100275572Y-129582333D01*
X100232029Y-129606524D01*
X100210258Y-129630714D01*
X100188486Y-129679095D01*
X100188486Y-129800048D01*
X100210258Y-129848429D01*
X100232029Y-129872619D01*
X100275572Y-129896810D01*
X100406200Y-129896810D01*
X100449743Y-129872619D01*
X100471515Y-129848429D01*
X99927229Y-129606524D02*
X99970771Y-129582333D01*
X99992543Y-129558143D01*
X100014314Y-129509762D01*
X100014314Y-129485571D01*
X99992543Y-129437190D01*
X99970771Y-129413000D01*
X99927229Y-129388810D01*
X99840143Y-129388810D01*
X99796600Y-129413000D01*
X99774829Y-129437190D01*
X99753057Y-129485571D01*
X99753057Y-129509762D01*
X99774829Y-129558143D01*
X99796600Y-129582333D01*
X99840143Y-129606524D01*
X99927229Y-129606524D01*
X99970771Y-129630714D01*
X99992543Y-129654905D01*
X100014314Y-129703286D01*
X100014314Y-129800048D01*
X99992543Y-129848429D01*
X99970771Y-129872619D01*
X99927229Y-129896810D01*
X99840143Y-129896810D01*
X99796600Y-129872619D01*
X99774829Y-129848429D01*
X99753057Y-129800048D01*
X99753057Y-129703286D01*
X99774829Y-129654905D01*
X99796600Y-129630714D01*
X99840143Y-129606524D01*
D14*
X92089857Y-110972143D02*
X92126143Y-111008429D01*
X92235000Y-111044714D01*
X92307571Y-111044714D01*
X92416428Y-111008429D01*
X92489000Y-110935857D01*
X92525285Y-110863286D01*
X92561571Y-110718143D01*
X92561571Y-110609286D01*
X92525285Y-110464143D01*
X92489000Y-110391571D01*
X92416428Y-110319000D01*
X92307571Y-110282714D01*
X92235000Y-110282714D01*
X92126143Y-110319000D01*
X92089857Y-110355286D01*
X91436714Y-110536714D02*
X91436714Y-111044714D01*
X91618143Y-110246429D02*
X91799571Y-110790714D01*
X91327857Y-110790714D01*
X91110143Y-110282714D02*
X90638429Y-110282714D01*
X90892429Y-110573000D01*
X90783571Y-110573000D01*
X90711000Y-110609286D01*
X90674714Y-110645571D01*
X90638429Y-110718143D01*
X90638429Y-110899571D01*
X90674714Y-110972143D01*
X90711000Y-111008429D01*
X90783571Y-111044714D01*
X91001286Y-111044714D01*
X91073857Y-111008429D01*
X91110143Y-110972143D01*
X95689857Y-114772143D02*
X95726143Y-114808429D01*
X95835000Y-114844714D01*
X95907571Y-114844714D01*
X96016428Y-114808429D01*
X96089000Y-114735857D01*
X96125285Y-114663286D01*
X96161571Y-114518143D01*
X96161571Y-114409286D01*
X96125285Y-114264143D01*
X96089000Y-114191571D01*
X96016428Y-114119000D01*
X95907571Y-114082714D01*
X95835000Y-114082714D01*
X95726143Y-114119000D01*
X95689857Y-114155286D01*
X95036714Y-114336714D02*
X95036714Y-114844714D01*
X95218143Y-114046429D02*
X95399571Y-114590714D01*
X94927857Y-114590714D01*
X94311000Y-114336714D02*
X94311000Y-114844714D01*
X94492429Y-114046429D02*
X94673857Y-114590714D01*
X94202143Y-114590714D01*
X99472143Y-118110143D02*
X99508429Y-118073857D01*
X99544714Y-117965000D01*
X99544714Y-117892429D01*
X99508429Y-117783572D01*
X99435857Y-117711000D01*
X99363286Y-117674715D01*
X99218143Y-117638429D01*
X99109286Y-117638429D01*
X98964143Y-117674715D01*
X98891571Y-117711000D01*
X98819000Y-117783572D01*
X98782714Y-117892429D01*
X98782714Y-117965000D01*
X98819000Y-118073857D01*
X98855286Y-118110143D01*
X99036714Y-118763286D02*
X99544714Y-118763286D01*
X98746429Y-118581857D02*
X99290714Y-118400429D01*
X99290714Y-118872143D01*
X99544714Y-119198714D02*
X99544714Y-119343857D01*
X99508429Y-119416429D01*
X99472143Y-119452714D01*
X99363286Y-119525286D01*
X99218143Y-119561571D01*
X98927857Y-119561571D01*
X98855286Y-119525286D01*
X98819000Y-119489000D01*
X98782714Y-119416429D01*
X98782714Y-119271286D01*
X98819000Y-119198714D01*
X98855286Y-119162429D01*
X98927857Y-119126143D01*
X99109286Y-119126143D01*
X99181857Y-119162429D01*
X99218143Y-119198714D01*
X99254429Y-119271286D01*
X99254429Y-119416429D01*
X99218143Y-119489000D01*
X99181857Y-119525286D01*
X99109286Y-119561571D01*
D15*
X107378707Y-119178328D02*
X107402535Y-119154500D01*
X107426362Y-119083017D01*
X107426362Y-119035362D01*
X107402535Y-118963879D01*
X107354880Y-118916224D01*
X107307224Y-118892396D01*
X107211914Y-118868568D01*
X107140431Y-118868568D01*
X107045120Y-118892396D01*
X106997465Y-118916224D01*
X106949810Y-118963879D01*
X106925982Y-119035362D01*
X106925982Y-119083017D01*
X106949810Y-119154500D01*
X106973638Y-119178328D01*
X106925982Y-119631052D02*
X106925982Y-119392776D01*
X107164259Y-119368948D01*
X107140431Y-119392776D01*
X107116603Y-119440431D01*
X107116603Y-119559569D01*
X107140431Y-119607225D01*
X107164259Y-119631052D01*
X107211914Y-119654880D01*
X107331052Y-119654880D01*
X107378707Y-119631052D01*
X107402535Y-119607225D01*
X107426362Y-119559569D01*
X107426362Y-119440431D01*
X107402535Y-119392776D01*
X107378707Y-119368948D01*
X107426362Y-120131432D02*
X107426362Y-119845500D01*
X107426362Y-119988466D02*
X106925982Y-119988466D01*
X106997465Y-119940811D01*
X107045120Y-119893156D01*
X107068948Y-119845500D01*
D21*
X107493915Y-121481429D02*
X107515686Y-121505619D01*
X107581000Y-121529810D01*
X107624543Y-121529810D01*
X107689858Y-121505619D01*
X107733400Y-121457238D01*
X107755172Y-121408857D01*
X107776943Y-121312095D01*
X107776943Y-121239524D01*
X107755172Y-121142762D01*
X107733400Y-121094381D01*
X107689858Y-121046000D01*
X107624543Y-121021810D01*
X107581000Y-121021810D01*
X107515686Y-121046000D01*
X107493915Y-121070190D01*
X107080258Y-121021810D02*
X107297972Y-121021810D01*
X107319743Y-121263714D01*
X107297972Y-121239524D01*
X107254429Y-121215333D01*
X107145572Y-121215333D01*
X107102029Y-121239524D01*
X107080258Y-121263714D01*
X107058486Y-121312095D01*
X107058486Y-121433048D01*
X107080258Y-121481429D01*
X107102029Y-121505619D01*
X107145572Y-121529810D01*
X107254429Y-121529810D01*
X107297972Y-121505619D01*
X107319743Y-121481429D01*
X106884314Y-121070190D02*
X106862543Y-121046000D01*
X106819000Y-121021810D01*
X106710143Y-121021810D01*
X106666600Y-121046000D01*
X106644829Y-121070190D01*
X106623057Y-121118571D01*
X106623057Y-121166952D01*
X106644829Y-121239524D01*
X106906086Y-121529810D01*
X106623057Y-121529810D01*
D14*
X112174953Y-122029810D02*
X112174953Y-121521810D01*
X112054000Y-121521810D01*
X111981429Y-121546000D01*
X111933048Y-121594381D01*
X111908857Y-121642762D01*
X111884667Y-121739524D01*
X111884667Y-121812095D01*
X111908857Y-121908857D01*
X111933048Y-121957238D01*
X111981429Y-122005619D01*
X112054000Y-122029810D01*
X112174953Y-122029810D01*
X111400857Y-122029810D02*
X111691143Y-122029810D01*
X111546000Y-122029810D02*
X111546000Y-121521810D01*
X111594381Y-121594381D01*
X111642762Y-121642762D01*
X111691143Y-121666952D01*
X110861953Y-122039810D02*
X110861953Y-121531810D01*
X110741000Y-121531810D01*
X110668429Y-121556000D01*
X110620048Y-121604381D01*
X110595857Y-121652762D01*
X110571667Y-121749524D01*
X110571667Y-121822095D01*
X110595857Y-121918857D01*
X110620048Y-121967238D01*
X110668429Y-122015619D01*
X110741000Y-122039810D01*
X110861953Y-122039810D01*
X110378143Y-121580190D02*
X110353953Y-121556000D01*
X110305572Y-121531810D01*
X110184619Y-121531810D01*
X110136238Y-121556000D01*
X110112048Y-121580190D01*
X110087857Y-121628571D01*
X110087857Y-121676952D01*
X110112048Y-121749524D01*
X110402334Y-122039810D01*
X110087857Y-122039810D01*
X109474953Y-122029810D02*
X109474953Y-121521810D01*
X109354000Y-121521810D01*
X109281429Y-121546000D01*
X109233048Y-121594381D01*
X109208857Y-121642762D01*
X109184667Y-121739524D01*
X109184667Y-121812095D01*
X109208857Y-121908857D01*
X109233048Y-121957238D01*
X109281429Y-122005619D01*
X109354000Y-122029810D01*
X109474953Y-122029810D01*
X109015334Y-121521810D02*
X108700857Y-121521810D01*
X108870191Y-121715333D01*
X108797619Y-121715333D01*
X108749238Y-121739524D01*
X108725048Y-121763714D01*
X108700857Y-121812095D01*
X108700857Y-121933048D01*
X108725048Y-121981429D01*
X108749238Y-122005619D01*
X108797619Y-122029810D01*
X108942762Y-122029810D01*
X108991143Y-122005619D01*
X109015334Y-121981429D01*
D12*
X87649904Y-111059619D02*
X87649904Y-110043619D01*
X87407999Y-110043619D01*
X87262857Y-110092000D01*
X87166095Y-110188762D01*
X87117714Y-110285524D01*
X87069333Y-110479048D01*
X87069333Y-110624190D01*
X87117714Y-110817714D01*
X87166095Y-110914476D01*
X87262857Y-111011238D01*
X87407999Y-111059619D01*
X87649904Y-111059619D01*
X86198476Y-110382286D02*
X86198476Y-111059619D01*
X86440380Y-109995238D02*
X86682285Y-110720952D01*
X86053333Y-110720952D01*
D16*
X83814678Y-114713597D02*
X83576401Y-114713597D01*
X83862333Y-114856562D02*
X83695539Y-114356182D01*
X83528746Y-114856562D01*
X90125792Y-114955622D02*
X90125792Y-114455242D01*
X89839860Y-114955622D02*
X90054309Y-114669691D01*
X89839860Y-114455242D02*
X90125792Y-114741174D01*
D12*
X85422619Y-107454096D02*
X84406619Y-107454096D01*
X84406619Y-107841143D01*
X84455000Y-107937905D01*
X84503381Y-107986286D01*
X84600143Y-108034667D01*
X84745286Y-108034667D01*
X84842048Y-107986286D01*
X84890429Y-107937905D01*
X84938810Y-107841143D01*
X84938810Y-107454096D01*
X84745286Y-108905524D02*
X85422619Y-108905524D01*
X84358238Y-108663620D02*
X85083952Y-108421715D01*
X85083952Y-109050667D01*
D23*
X100252381Y-108561905D02*
X99252381Y-108561905D01*
X99252381Y-108942858D01*
X99300000Y-109038096D01*
X99347619Y-109085715D01*
X99442857Y-109133334D01*
X99585714Y-109133334D01*
X99680952Y-109085715D01*
X99728571Y-109038096D01*
X99776190Y-108942858D01*
X99776190Y-108561905D01*
X99252381Y-110038096D02*
X99252381Y-109561905D01*
X99728571Y-109514286D01*
X99680952Y-109561905D01*
X99633333Y-109657143D01*
X99633333Y-109895239D01*
X99680952Y-109990477D01*
X99728571Y-110038096D01*
X99823810Y-110085715D01*
X100061905Y-110085715D01*
X100157143Y-110038096D01*
X100204762Y-109990477D01*
X100252381Y-109895239D01*
X100252381Y-109657143D01*
X100204762Y-109561905D01*
X100157143Y-109514286D01*
D21*
X86696362Y-126023800D02*
X86458086Y-125871400D01*
X86696362Y-125762543D02*
X86195982Y-125762543D01*
X86195982Y-125936715D01*
X86219810Y-125980257D01*
X86243638Y-126002029D01*
X86291293Y-126023800D01*
X86362776Y-126023800D01*
X86410431Y-126002029D01*
X86434259Y-125980257D01*
X86458086Y-125936715D01*
X86458086Y-125762543D01*
X86195982Y-126176200D02*
X86195982Y-126459229D01*
X86386603Y-126306829D01*
X86386603Y-126372143D01*
X86410431Y-126415686D01*
X86434259Y-126437457D01*
X86481914Y-126459229D01*
X86601052Y-126459229D01*
X86648707Y-126437457D01*
X86672535Y-126415686D01*
X86696362Y-126372143D01*
X86696362Y-126241515D01*
X86672535Y-126197972D01*
X86648707Y-126176200D01*
X86526362Y-129623800D02*
X86288086Y-129471400D01*
X86526362Y-129362543D02*
X86025982Y-129362543D01*
X86025982Y-129536715D01*
X86049810Y-129580257D01*
X86073638Y-129602029D01*
X86121293Y-129623800D01*
X86192776Y-129623800D01*
X86240431Y-129602029D01*
X86264259Y-129580257D01*
X86288086Y-129536715D01*
X86288086Y-129362543D01*
X86192776Y-130015686D02*
X86526362Y-130015686D01*
X86002155Y-129906829D02*
X86359569Y-129797972D01*
X86359569Y-130081000D01*
X107922362Y-133527800D02*
X107684086Y-133375400D01*
X107922362Y-133266543D02*
X107421982Y-133266543D01*
X107421982Y-133440715D01*
X107445810Y-133484257D01*
X107469638Y-133506029D01*
X107517293Y-133527800D01*
X107588776Y-133527800D01*
X107636431Y-133506029D01*
X107660259Y-133484257D01*
X107684086Y-133440715D01*
X107684086Y-133266543D01*
X107421982Y-133941457D02*
X107421982Y-133723743D01*
X107660259Y-133701972D01*
X107636431Y-133723743D01*
X107612603Y-133767286D01*
X107612603Y-133876143D01*
X107636431Y-133919686D01*
X107660259Y-133941457D01*
X107707914Y-133963229D01*
X107827052Y-133963229D01*
X107874707Y-133941457D01*
X107898535Y-133919686D01*
X107922362Y-133876143D01*
X107922362Y-133767286D01*
X107898535Y-133723743D01*
X107874707Y-133701972D01*
X80376200Y-128426362D02*
X80528600Y-128188086D01*
X80637457Y-128426362D02*
X80637457Y-127925982D01*
X80463285Y-127925982D01*
X80419743Y-127949810D01*
X80397971Y-127973638D01*
X80376200Y-128021293D01*
X80376200Y-128092776D01*
X80397971Y-128140431D01*
X80419743Y-128164259D01*
X80463285Y-128188086D01*
X80637457Y-128188086D01*
X79984314Y-127925982D02*
X80071400Y-127925982D01*
X80114943Y-127949810D01*
X80136714Y-127973638D01*
X80180257Y-128045120D01*
X80202028Y-128140431D01*
X80202028Y-128331052D01*
X80180257Y-128378707D01*
X80158485Y-128402535D01*
X80114943Y-128426362D01*
X80027857Y-128426362D01*
X79984314Y-128402535D01*
X79962543Y-128378707D01*
X79940771Y-128331052D01*
X79940771Y-128211914D01*
X79962543Y-128164259D01*
X79984314Y-128140431D01*
X80027857Y-128116603D01*
X80114943Y-128116603D01*
X80158485Y-128140431D01*
X80180257Y-128164259D01*
X80202028Y-128211914D01*
X83376200Y-136226362D02*
X83528600Y-135988086D01*
X83637457Y-136226362D02*
X83637457Y-135725982D01*
X83463285Y-135725982D01*
X83419743Y-135749810D01*
X83397971Y-135773638D01*
X83376200Y-135821293D01*
X83376200Y-135892776D01*
X83397971Y-135940431D01*
X83419743Y-135964259D01*
X83463285Y-135988086D01*
X83637457Y-135988086D01*
X83223800Y-135725982D02*
X82919000Y-135725982D01*
X83114943Y-136226362D01*
X86476200Y-136226362D02*
X86628600Y-135988086D01*
X86737457Y-136226362D02*
X86737457Y-135725982D01*
X86563285Y-135725982D01*
X86519743Y-135749810D01*
X86497971Y-135773638D01*
X86476200Y-135821293D01*
X86476200Y-135892776D01*
X86497971Y-135940431D01*
X86519743Y-135964259D01*
X86563285Y-135988086D01*
X86737457Y-135988086D01*
X86214943Y-135940431D02*
X86258485Y-135916603D01*
X86280257Y-135892776D01*
X86302028Y-135845120D01*
X86302028Y-135821293D01*
X86280257Y-135773638D01*
X86258485Y-135749810D01*
X86214943Y-135725982D01*
X86127857Y-135725982D01*
X86084314Y-135749810D01*
X86062543Y-135773638D01*
X86040771Y-135821293D01*
X86040771Y-135845120D01*
X86062543Y-135892776D01*
X86084314Y-135916603D01*
X86127857Y-135940431D01*
X86214943Y-135940431D01*
X86258485Y-135964259D01*
X86280257Y-135988086D01*
X86302028Y-136035741D01*
X86302028Y-136131052D01*
X86280257Y-136178707D01*
X86258485Y-136202535D01*
X86214943Y-136226362D01*
X86127857Y-136226362D01*
X86084314Y-136202535D01*
X86062543Y-136178707D01*
X86040771Y-136131052D01*
X86040771Y-136035741D01*
X86062543Y-135988086D01*
X86084314Y-135964259D01*
X86127857Y-135940431D01*
X89476200Y-136226362D02*
X89628600Y-135988086D01*
X89737457Y-136226362D02*
X89737457Y-135725982D01*
X89563285Y-135725982D01*
X89519743Y-135749810D01*
X89497971Y-135773638D01*
X89476200Y-135821293D01*
X89476200Y-135892776D01*
X89497971Y-135940431D01*
X89519743Y-135964259D01*
X89563285Y-135988086D01*
X89737457Y-135988086D01*
X89258485Y-136226362D02*
X89171400Y-136226362D01*
X89127857Y-136202535D01*
X89106085Y-136178707D01*
X89062543Y-136107224D01*
X89040771Y-136011914D01*
X89040771Y-135821293D01*
X89062543Y-135773638D01*
X89084314Y-135749810D01*
X89127857Y-135725982D01*
X89214943Y-135725982D01*
X89258485Y-135749810D01*
X89280257Y-135773638D01*
X89302028Y-135821293D01*
X89302028Y-135940431D01*
X89280257Y-135988086D01*
X89258485Y-136011914D01*
X89214943Y-136035741D01*
X89127857Y-136035741D01*
X89084314Y-136011914D01*
X89062543Y-135988086D01*
X89040771Y-135940431D01*
X92793915Y-136226362D02*
X92946315Y-135988086D01*
X93055172Y-136226362D02*
X93055172Y-135725982D01*
X92881000Y-135725982D01*
X92837458Y-135749810D01*
X92815686Y-135773638D01*
X92793915Y-135821293D01*
X92793915Y-135892776D01*
X92815686Y-135940431D01*
X92837458Y-135964259D01*
X92881000Y-135988086D01*
X93055172Y-135988086D01*
X92358486Y-136226362D02*
X92619743Y-136226362D01*
X92489115Y-136226362D02*
X92489115Y-135725982D01*
X92532658Y-135797465D01*
X92576200Y-135845120D01*
X92619743Y-135868948D01*
X92075457Y-135725982D02*
X92031914Y-135725982D01*
X91988371Y-135749810D01*
X91966600Y-135773638D01*
X91944829Y-135821293D01*
X91923057Y-135916603D01*
X91923057Y-136035741D01*
X91944829Y-136131052D01*
X91966600Y-136178707D01*
X91988371Y-136202535D01*
X92031914Y-136226362D01*
X92075457Y-136226362D01*
X92119000Y-136202535D01*
X92140771Y-136178707D01*
X92162543Y-136131052D01*
X92184314Y-136035741D01*
X92184314Y-135916603D01*
X92162543Y-135821293D01*
X92140771Y-135773638D01*
X92119000Y-135749810D01*
X92075457Y-135725982D01*
X91293915Y-136226362D02*
X91446315Y-135988086D01*
X91555172Y-136226362D02*
X91555172Y-135725982D01*
X91381000Y-135725982D01*
X91337458Y-135749810D01*
X91315686Y-135773638D01*
X91293915Y-135821293D01*
X91293915Y-135892776D01*
X91315686Y-135940431D01*
X91337458Y-135964259D01*
X91381000Y-135988086D01*
X91555172Y-135988086D01*
X90858486Y-136226362D02*
X91119743Y-136226362D01*
X90989115Y-136226362D02*
X90989115Y-135725982D01*
X91032658Y-135797465D01*
X91076200Y-135845120D01*
X91119743Y-135868948D01*
X90423057Y-136226362D02*
X90684314Y-136226362D01*
X90553686Y-136226362D02*
X90553686Y-135725982D01*
X90597229Y-135797465D01*
X90640771Y-135845120D01*
X90684314Y-135868948D01*
X88193915Y-136226362D02*
X88346315Y-135988086D01*
X88455172Y-136226362D02*
X88455172Y-135725982D01*
X88281000Y-135725982D01*
X88237458Y-135749810D01*
X88215686Y-135773638D01*
X88193915Y-135821293D01*
X88193915Y-135892776D01*
X88215686Y-135940431D01*
X88237458Y-135964259D01*
X88281000Y-135988086D01*
X88455172Y-135988086D01*
X87758486Y-136226362D02*
X88019743Y-136226362D01*
X87889115Y-136226362D02*
X87889115Y-135725982D01*
X87932658Y-135797465D01*
X87976200Y-135845120D01*
X88019743Y-135868948D01*
X87584314Y-135773638D02*
X87562543Y-135749810D01*
X87519000Y-135725982D01*
X87410143Y-135725982D01*
X87366600Y-135749810D01*
X87344829Y-135773638D01*
X87323057Y-135821293D01*
X87323057Y-135868948D01*
X87344829Y-135940431D01*
X87606086Y-136226362D01*
X87323057Y-136226362D01*
X85093915Y-136226362D02*
X85246315Y-135988086D01*
X85355172Y-136226362D02*
X85355172Y-135725982D01*
X85181000Y-135725982D01*
X85137458Y-135749810D01*
X85115686Y-135773638D01*
X85093915Y-135821293D01*
X85093915Y-135892776D01*
X85115686Y-135940431D01*
X85137458Y-135964259D01*
X85181000Y-135988086D01*
X85355172Y-135988086D01*
X84658486Y-136226362D02*
X84919743Y-136226362D01*
X84789115Y-136226362D02*
X84789115Y-135725982D01*
X84832658Y-135797465D01*
X84876200Y-135845120D01*
X84919743Y-135868948D01*
X84506086Y-135725982D02*
X84223057Y-135725982D01*
X84375457Y-135916603D01*
X84310143Y-135916603D01*
X84266600Y-135940431D01*
X84244829Y-135964259D01*
X84223057Y-136011914D01*
X84223057Y-136131052D01*
X84244829Y-136178707D01*
X84266600Y-136202535D01*
X84310143Y-136226362D01*
X84440771Y-136226362D01*
X84484314Y-136202535D01*
X84506086Y-136178707D01*
X102588362Y-123404085D02*
X102350086Y-123251685D01*
X102588362Y-123142828D02*
X102087982Y-123142828D01*
X102087982Y-123317000D01*
X102111810Y-123360542D01*
X102135638Y-123382314D01*
X102183293Y-123404085D01*
X102254776Y-123404085D01*
X102302431Y-123382314D01*
X102326259Y-123360542D01*
X102350086Y-123317000D01*
X102350086Y-123142828D01*
X102588362Y-123839514D02*
X102588362Y-123578257D01*
X102588362Y-123708885D02*
X102087982Y-123708885D01*
X102159465Y-123665342D01*
X102207120Y-123621800D01*
X102230948Y-123578257D01*
X102087982Y-124253171D02*
X102087982Y-124035457D01*
X102326259Y-124013686D01*
X102302431Y-124035457D01*
X102278603Y-124079000D01*
X102278603Y-124187857D01*
X102302431Y-124231400D01*
X102326259Y-124253171D01*
X102373914Y-124274943D01*
X102493052Y-124274943D01*
X102540707Y-124253171D01*
X102564535Y-124231400D01*
X102588362Y-124187857D01*
X102588362Y-124079000D01*
X102564535Y-124035457D01*
X102540707Y-124013686D01*
X96526362Y-120406085D02*
X96288086Y-120253685D01*
X96526362Y-120144828D02*
X96025982Y-120144828D01*
X96025982Y-120319000D01*
X96049810Y-120362542D01*
X96073638Y-120384314D01*
X96121293Y-120406085D01*
X96192776Y-120406085D01*
X96240431Y-120384314D01*
X96264259Y-120362542D01*
X96288086Y-120319000D01*
X96288086Y-120144828D01*
X96526362Y-120841514D02*
X96526362Y-120580257D01*
X96526362Y-120710885D02*
X96025982Y-120710885D01*
X96097465Y-120667342D01*
X96145120Y-120623800D01*
X96168948Y-120580257D01*
X96025982Y-121233400D02*
X96025982Y-121146314D01*
X96049810Y-121102771D01*
X96073638Y-121081000D01*
X96145120Y-121037457D01*
X96240431Y-121015686D01*
X96431052Y-121015686D01*
X96478707Y-121037457D01*
X96502535Y-121059229D01*
X96526362Y-121102771D01*
X96526362Y-121189857D01*
X96502535Y-121233400D01*
X96478707Y-121255171D01*
X96431052Y-121276943D01*
X96311914Y-121276943D01*
X96264259Y-121255171D01*
X96240431Y-121233400D01*
X96216603Y-121189857D01*
X96216603Y-121102771D01*
X96240431Y-121059229D01*
X96264259Y-121037457D01*
X96311914Y-121015686D01*
X94493915Y-123026362D02*
X94646315Y-122788086D01*
X94755172Y-123026362D02*
X94755172Y-122525982D01*
X94581000Y-122525982D01*
X94537458Y-122549810D01*
X94515686Y-122573638D01*
X94493915Y-122621293D01*
X94493915Y-122692776D01*
X94515686Y-122740431D01*
X94537458Y-122764259D01*
X94581000Y-122788086D01*
X94755172Y-122788086D01*
X94319743Y-122573638D02*
X94297972Y-122549810D01*
X94254429Y-122525982D01*
X94145572Y-122525982D01*
X94102029Y-122549810D01*
X94080258Y-122573638D01*
X94058486Y-122621293D01*
X94058486Y-122668948D01*
X94080258Y-122740431D01*
X94341515Y-123026362D01*
X94058486Y-123026362D01*
X93623057Y-123026362D02*
X93884314Y-123026362D01*
X93753686Y-123026362D02*
X93753686Y-122525982D01*
X93797229Y-122597465D01*
X93840771Y-122645120D01*
X93884314Y-122668948D01*
X109393915Y-127826362D02*
X109546315Y-127588086D01*
X109655172Y-127826362D02*
X109655172Y-127325982D01*
X109481000Y-127325982D01*
X109437458Y-127349810D01*
X109415686Y-127373638D01*
X109393915Y-127421293D01*
X109393915Y-127492776D01*
X109415686Y-127540431D01*
X109437458Y-127564259D01*
X109481000Y-127588086D01*
X109655172Y-127588086D01*
X109219743Y-127373638D02*
X109197972Y-127349810D01*
X109154429Y-127325982D01*
X109045572Y-127325982D01*
X109002029Y-127349810D01*
X108980258Y-127373638D01*
X108958486Y-127421293D01*
X108958486Y-127468948D01*
X108980258Y-127540431D01*
X109241515Y-127826362D01*
X108958486Y-127826362D01*
X108784314Y-127373638D02*
X108762543Y-127349810D01*
X108719000Y-127325982D01*
X108610143Y-127325982D01*
X108566600Y-127349810D01*
X108544829Y-127373638D01*
X108523057Y-127421293D01*
X108523057Y-127468948D01*
X108544829Y-127540431D01*
X108806086Y-127826362D01*
X108523057Y-127826362D01*
X90126362Y-128206085D02*
X89888086Y-128053685D01*
X90126362Y-127944828D02*
X89625982Y-127944828D01*
X89625982Y-128119000D01*
X89649810Y-128162542D01*
X89673638Y-128184314D01*
X89721293Y-128206085D01*
X89792776Y-128206085D01*
X89840431Y-128184314D01*
X89864259Y-128162542D01*
X89888086Y-128119000D01*
X89888086Y-127944828D01*
X89673638Y-128380257D02*
X89649810Y-128402028D01*
X89625982Y-128445571D01*
X89625982Y-128554428D01*
X89649810Y-128597971D01*
X89673638Y-128619742D01*
X89721293Y-128641514D01*
X89768948Y-128641514D01*
X89840431Y-128619742D01*
X90126362Y-128358485D01*
X90126362Y-128641514D01*
X89625982Y-128793914D02*
X89625982Y-129076943D01*
X89816603Y-128924543D01*
X89816603Y-128989857D01*
X89840431Y-129033400D01*
X89864259Y-129055171D01*
X89911914Y-129076943D01*
X90031052Y-129076943D01*
X90078707Y-129055171D01*
X90102535Y-129033400D01*
X90126362Y-128989857D01*
X90126362Y-128859229D01*
X90102535Y-128815686D01*
X90078707Y-128793914D01*
X94577362Y-127756085D02*
X94339086Y-127603685D01*
X94577362Y-127494828D02*
X94076982Y-127494828D01*
X94076982Y-127669000D01*
X94100810Y-127712542D01*
X94124638Y-127734314D01*
X94172293Y-127756085D01*
X94243776Y-127756085D01*
X94291431Y-127734314D01*
X94315259Y-127712542D01*
X94339086Y-127669000D01*
X94339086Y-127494828D01*
X94124638Y-127930257D02*
X94100810Y-127952028D01*
X94076982Y-127995571D01*
X94076982Y-128104428D01*
X94100810Y-128147971D01*
X94124638Y-128169742D01*
X94172293Y-128191514D01*
X94219948Y-128191514D01*
X94291431Y-128169742D01*
X94577362Y-127908485D01*
X94577362Y-128191514D01*
X94243776Y-128583400D02*
X94577362Y-128583400D01*
X94053155Y-128474543D02*
X94410569Y-128365686D01*
X94410569Y-128648714D01*
X86713362Y-126579085D02*
X86475086Y-126426685D01*
X86713362Y-126317828D02*
X86212982Y-126317828D01*
X86212982Y-126492000D01*
X86236810Y-126535542D01*
X86260638Y-126557314D01*
X86308293Y-126579085D01*
X86379776Y-126579085D01*
X86427431Y-126557314D01*
X86451259Y-126535542D01*
X86475086Y-126492000D01*
X86475086Y-126317828D01*
X86260638Y-126753257D02*
X86236810Y-126775028D01*
X86212982Y-126818571D01*
X86212982Y-126927428D01*
X86236810Y-126970971D01*
X86260638Y-126992742D01*
X86308293Y-127014514D01*
X86355948Y-127014514D01*
X86427431Y-126992742D01*
X86713362Y-126731485D01*
X86713362Y-127014514D01*
X86212982Y-127406400D02*
X86212982Y-127319314D01*
X86236810Y-127275771D01*
X86260638Y-127254000D01*
X86332120Y-127210457D01*
X86427431Y-127188686D01*
X86618052Y-127188686D01*
X86665707Y-127210457D01*
X86689535Y-127232229D01*
X86713362Y-127275771D01*
X86713362Y-127362857D01*
X86689535Y-127406400D01*
X86665707Y-127428171D01*
X86618052Y-127449943D01*
X86498914Y-127449943D01*
X86451259Y-127428171D01*
X86427431Y-127406400D01*
X86403603Y-127362857D01*
X86403603Y-127275771D01*
X86427431Y-127232229D01*
X86451259Y-127210457D01*
X86498914Y-127188686D01*
X94577362Y-126256085D02*
X94339086Y-126103685D01*
X94577362Y-125994828D02*
X94076982Y-125994828D01*
X94076982Y-126169000D01*
X94100810Y-126212542D01*
X94124638Y-126234314D01*
X94172293Y-126256085D01*
X94243776Y-126256085D01*
X94291431Y-126234314D01*
X94315259Y-126212542D01*
X94339086Y-126169000D01*
X94339086Y-125994828D01*
X94124638Y-126430257D02*
X94100810Y-126452028D01*
X94076982Y-126495571D01*
X94076982Y-126604428D01*
X94100810Y-126647971D01*
X94124638Y-126669742D01*
X94172293Y-126691514D01*
X94219948Y-126691514D01*
X94291431Y-126669742D01*
X94577362Y-126408485D01*
X94577362Y-126691514D01*
X94076982Y-126843914D02*
X94076982Y-127148714D01*
X94577362Y-126952771D01*
X116126362Y-102779085D02*
X115888086Y-102626685D01*
X116126362Y-102517828D02*
X115625982Y-102517828D01*
X115625982Y-102692000D01*
X115649810Y-102735542D01*
X115673638Y-102757314D01*
X115721293Y-102779085D01*
X115792776Y-102779085D01*
X115840431Y-102757314D01*
X115864259Y-102735542D01*
X115888086Y-102692000D01*
X115888086Y-102517828D01*
X115673638Y-102953257D02*
X115649810Y-102975028D01*
X115625982Y-103018571D01*
X115625982Y-103127428D01*
X115649810Y-103170971D01*
X115673638Y-103192742D01*
X115721293Y-103214514D01*
X115768948Y-103214514D01*
X115840431Y-103192742D01*
X116126362Y-102931485D01*
X116126362Y-103214514D01*
X116126362Y-103432229D02*
X116126362Y-103519314D01*
X116102535Y-103562857D01*
X116078707Y-103584629D01*
X116007224Y-103628171D01*
X115911914Y-103649943D01*
X115721293Y-103649943D01*
X115673638Y-103628171D01*
X115649810Y-103606400D01*
X115625982Y-103562857D01*
X115625982Y-103475771D01*
X115649810Y-103432229D01*
X115673638Y-103410457D01*
X115721293Y-103388686D01*
X115840431Y-103388686D01*
X115888086Y-103410457D01*
X115911914Y-103432229D01*
X115935741Y-103475771D01*
X115935741Y-103562857D01*
X115911914Y-103606400D01*
X115888086Y-103628171D01*
X115840431Y-103649943D01*
X110947767Y-106367891D02*
X111224017Y-106307168D01*
X111132504Y-106552628D02*
X111486326Y-106198806D01*
X111363168Y-106075648D01*
X111315530Y-106061708D01*
X111283286Y-106063162D01*
X111234194Y-106081464D01*
X111183648Y-106132010D01*
X111165345Y-106181102D01*
X111163892Y-106213346D01*
X111177832Y-106260983D01*
X111300990Y-106384141D01*
X111193826Y-105906306D02*
X110993694Y-105706175D01*
X110966668Y-105948727D01*
X110920484Y-105902543D01*
X110872846Y-105888602D01*
X110840602Y-105890057D01*
X110791510Y-105908359D01*
X110707267Y-105992602D01*
X110688965Y-106041695D01*
X110687510Y-106073938D01*
X110701451Y-106121576D01*
X110793819Y-106213944D01*
X110841457Y-106227885D01*
X110873701Y-106226431D01*
X110793563Y-105506043D02*
X110762773Y-105475253D01*
X110715135Y-105461313D01*
X110682891Y-105462767D01*
X110633800Y-105481070D01*
X110551010Y-105533069D01*
X110466767Y-105617312D01*
X110414767Y-105700103D01*
X110396464Y-105749194D01*
X110395010Y-105781438D01*
X110408951Y-105829075D01*
X110439741Y-105859865D01*
X110487378Y-105873806D01*
X110519622Y-105872352D01*
X110568714Y-105854050D01*
X110651504Y-105802049D01*
X110735747Y-105717806D01*
X110787747Y-105635017D01*
X110806049Y-105585925D01*
X110807503Y-105553681D01*
X110793563Y-105506043D01*
X90126362Y-125106085D02*
X89888086Y-124953685D01*
X90126362Y-124844828D02*
X89625982Y-124844828D01*
X89625982Y-125019000D01*
X89649810Y-125062542D01*
X89673638Y-125084314D01*
X89721293Y-125106085D01*
X89792776Y-125106085D01*
X89840431Y-125084314D01*
X89864259Y-125062542D01*
X89888086Y-125019000D01*
X89888086Y-124844828D01*
X89625982Y-125258485D02*
X89625982Y-125541514D01*
X89816603Y-125389114D01*
X89816603Y-125454428D01*
X89840431Y-125497971D01*
X89864259Y-125519742D01*
X89911914Y-125541514D01*
X90031052Y-125541514D01*
X90078707Y-125519742D01*
X90102535Y-125497971D01*
X90126362Y-125454428D01*
X90126362Y-125323800D01*
X90102535Y-125280257D01*
X90078707Y-125258485D01*
X89673638Y-125715686D02*
X89649810Y-125737457D01*
X89625982Y-125781000D01*
X89625982Y-125889857D01*
X89649810Y-125933400D01*
X89673638Y-125955171D01*
X89721293Y-125976943D01*
X89768948Y-125976943D01*
X89840431Y-125955171D01*
X90126362Y-125693914D01*
X90126362Y-125976943D01*
X94577362Y-124756085D02*
X94339086Y-124603685D01*
X94577362Y-124494828D02*
X94076982Y-124494828D01*
X94076982Y-124669000D01*
X94100810Y-124712542D01*
X94124638Y-124734314D01*
X94172293Y-124756085D01*
X94243776Y-124756085D01*
X94291431Y-124734314D01*
X94315259Y-124712542D01*
X94339086Y-124669000D01*
X94339086Y-124494828D01*
X94076982Y-124908485D02*
X94076982Y-125191514D01*
X94267603Y-125039114D01*
X94267603Y-125104428D01*
X94291431Y-125147971D01*
X94315259Y-125169742D01*
X94362914Y-125191514D01*
X94482052Y-125191514D01*
X94529707Y-125169742D01*
X94553535Y-125147971D01*
X94577362Y-125104428D01*
X94577362Y-124973800D01*
X94553535Y-124930257D01*
X94529707Y-124908485D01*
X94076982Y-125343914D02*
X94076982Y-125626943D01*
X94267603Y-125474543D01*
X94267603Y-125539857D01*
X94291431Y-125583400D01*
X94315259Y-125605171D01*
X94362914Y-125626943D01*
X94482052Y-125626943D01*
X94529707Y-125605171D01*
X94553535Y-125583400D01*
X94577362Y-125539857D01*
X94577362Y-125409229D01*
X94553535Y-125365686D01*
X94529707Y-125343914D01*
X103526362Y-101006085D02*
X103288086Y-100853685D01*
X103526362Y-100744828D02*
X103025982Y-100744828D01*
X103025982Y-100919000D01*
X103049810Y-100962542D01*
X103073638Y-100984314D01*
X103121293Y-101006085D01*
X103192776Y-101006085D01*
X103240431Y-100984314D01*
X103264259Y-100962542D01*
X103288086Y-100919000D01*
X103288086Y-100744828D01*
X103025982Y-101158485D02*
X103025982Y-101441514D01*
X103216603Y-101289114D01*
X103216603Y-101354428D01*
X103240431Y-101397971D01*
X103264259Y-101419742D01*
X103311914Y-101441514D01*
X103431052Y-101441514D01*
X103478707Y-101419742D01*
X103502535Y-101397971D01*
X103526362Y-101354428D01*
X103526362Y-101223800D01*
X103502535Y-101180257D01*
X103478707Y-101158485D01*
X103025982Y-101855171D02*
X103025982Y-101637457D01*
X103264259Y-101615686D01*
X103240431Y-101637457D01*
X103216603Y-101681000D01*
X103216603Y-101789857D01*
X103240431Y-101833400D01*
X103264259Y-101855171D01*
X103311914Y-101876943D01*
X103431052Y-101876943D01*
X103478707Y-101855171D01*
X103502535Y-101833400D01*
X103526362Y-101789857D01*
X103526362Y-101681000D01*
X103502535Y-101637457D01*
X103478707Y-101615686D01*
X103526362Y-98506085D02*
X103288086Y-98353685D01*
X103526362Y-98244828D02*
X103025982Y-98244828D01*
X103025982Y-98419000D01*
X103049810Y-98462542D01*
X103073638Y-98484314D01*
X103121293Y-98506085D01*
X103192776Y-98506085D01*
X103240431Y-98484314D01*
X103264259Y-98462542D01*
X103288086Y-98419000D01*
X103288086Y-98244828D01*
X103025982Y-98658485D02*
X103025982Y-98941514D01*
X103216603Y-98789114D01*
X103216603Y-98854428D01*
X103240431Y-98897971D01*
X103264259Y-98919742D01*
X103311914Y-98941514D01*
X103431052Y-98941514D01*
X103478707Y-98919742D01*
X103502535Y-98897971D01*
X103526362Y-98854428D01*
X103526362Y-98723800D01*
X103502535Y-98680257D01*
X103478707Y-98658485D01*
X103025982Y-99333400D02*
X103025982Y-99246314D01*
X103049810Y-99202771D01*
X103073638Y-99181000D01*
X103145120Y-99137457D01*
X103240431Y-99115686D01*
X103431052Y-99115686D01*
X103478707Y-99137457D01*
X103502535Y-99159229D01*
X103526362Y-99202771D01*
X103526362Y-99289857D01*
X103502535Y-99333400D01*
X103478707Y-99355171D01*
X103431052Y-99376943D01*
X103311914Y-99376943D01*
X103264259Y-99355171D01*
X103240431Y-99333400D01*
X103216603Y-99289857D01*
X103216603Y-99202771D01*
X103240431Y-99159229D01*
X103264259Y-99137457D01*
X103311914Y-99115686D01*
X112293915Y-127826362D02*
X112446315Y-127588086D01*
X112555172Y-127826362D02*
X112555172Y-127325982D01*
X112381000Y-127325982D01*
X112337458Y-127349810D01*
X112315686Y-127373638D01*
X112293915Y-127421293D01*
X112293915Y-127492776D01*
X112315686Y-127540431D01*
X112337458Y-127564259D01*
X112381000Y-127588086D01*
X112555172Y-127588086D01*
X112141515Y-127325982D02*
X111858486Y-127325982D01*
X112010886Y-127516603D01*
X111945572Y-127516603D01*
X111902029Y-127540431D01*
X111880258Y-127564259D01*
X111858486Y-127611914D01*
X111858486Y-127731052D01*
X111880258Y-127778707D01*
X111902029Y-127802535D01*
X111945572Y-127826362D01*
X112076200Y-127826362D01*
X112119743Y-127802535D01*
X112141515Y-127778707D01*
X111706086Y-127325982D02*
X111401286Y-127325982D01*
X111597229Y-127826362D01*
X110893915Y-127826362D02*
X111046315Y-127588086D01*
X111155172Y-127826362D02*
X111155172Y-127325982D01*
X110981000Y-127325982D01*
X110937458Y-127349810D01*
X110915686Y-127373638D01*
X110893915Y-127421293D01*
X110893915Y-127492776D01*
X110915686Y-127540431D01*
X110937458Y-127564259D01*
X110981000Y-127588086D01*
X111155172Y-127588086D01*
X110741515Y-127325982D02*
X110458486Y-127325982D01*
X110610886Y-127516603D01*
X110545572Y-127516603D01*
X110502029Y-127540431D01*
X110480258Y-127564259D01*
X110458486Y-127611914D01*
X110458486Y-127731052D01*
X110480258Y-127778707D01*
X110502029Y-127802535D01*
X110545572Y-127826362D01*
X110676200Y-127826362D01*
X110719743Y-127802535D01*
X110741515Y-127778707D01*
X110197229Y-127540431D02*
X110240771Y-127516603D01*
X110262543Y-127492776D01*
X110284314Y-127445120D01*
X110284314Y-127421293D01*
X110262543Y-127373638D01*
X110240771Y-127349810D01*
X110197229Y-127325982D01*
X110110143Y-127325982D01*
X110066600Y-127349810D01*
X110044829Y-127373638D01*
X110023057Y-127421293D01*
X110023057Y-127445120D01*
X110044829Y-127492776D01*
X110066600Y-127516603D01*
X110110143Y-127540431D01*
X110197229Y-127540431D01*
X110240771Y-127564259D01*
X110262543Y-127588086D01*
X110284314Y-127635741D01*
X110284314Y-127731052D01*
X110262543Y-127778707D01*
X110240771Y-127802535D01*
X110197229Y-127826362D01*
X110110143Y-127826362D01*
X110066600Y-127802535D01*
X110044829Y-127778707D01*
X110023057Y-127731052D01*
X110023057Y-127635741D01*
X110044829Y-127588086D01*
X110066600Y-127564259D01*
X110110143Y-127540431D01*
X90326362Y-100506085D02*
X90088086Y-100353685D01*
X90326362Y-100244828D02*
X89825982Y-100244828D01*
X89825982Y-100419000D01*
X89849810Y-100462542D01*
X89873638Y-100484314D01*
X89921293Y-100506085D01*
X89992776Y-100506085D01*
X90040431Y-100484314D01*
X90064259Y-100462542D01*
X90088086Y-100419000D01*
X90088086Y-100244828D01*
X89992776Y-100897971D02*
X90326362Y-100897971D01*
X89802155Y-100789114D02*
X90159569Y-100680257D01*
X90159569Y-100963285D01*
X89825982Y-101093914D02*
X89825982Y-101376943D01*
X90016603Y-101224543D01*
X90016603Y-101289857D01*
X90040431Y-101333400D01*
X90064259Y-101355171D01*
X90111914Y-101376943D01*
X90231052Y-101376943D01*
X90278707Y-101355171D01*
X90302535Y-101333400D01*
X90326362Y-101289857D01*
X90326362Y-101159229D01*
X90302535Y-101115686D01*
X90278707Y-101093914D01*
X90326362Y-97806085D02*
X90088086Y-97653685D01*
X90326362Y-97544828D02*
X89825982Y-97544828D01*
X89825982Y-97719000D01*
X89849810Y-97762542D01*
X89873638Y-97784314D01*
X89921293Y-97806085D01*
X89992776Y-97806085D01*
X90040431Y-97784314D01*
X90064259Y-97762542D01*
X90088086Y-97719000D01*
X90088086Y-97544828D01*
X89992776Y-98197971D02*
X90326362Y-98197971D01*
X89802155Y-98089114D02*
X90159569Y-97980257D01*
X90159569Y-98263285D01*
X89825982Y-98633400D02*
X89825982Y-98546314D01*
X89849810Y-98502771D01*
X89873638Y-98481000D01*
X89945120Y-98437457D01*
X90040431Y-98415686D01*
X90231052Y-98415686D01*
X90278707Y-98437457D01*
X90302535Y-98459229D01*
X90326362Y-98502771D01*
X90326362Y-98589857D01*
X90302535Y-98633400D01*
X90278707Y-98655171D01*
X90231052Y-98676943D01*
X90111914Y-98676943D01*
X90064259Y-98655171D01*
X90040431Y-98633400D01*
X90016603Y-98589857D01*
X90016603Y-98502771D01*
X90040431Y-98459229D01*
X90064259Y-98437457D01*
X90111914Y-98415686D01*
D24*
X105591429Y-105192285D02*
X104865714Y-104684285D01*
X105591429Y-104321428D02*
X104067429Y-104321428D01*
X104067429Y-104902000D01*
X104140000Y-105047142D01*
X104212571Y-105119714D01*
X104357714Y-105192285D01*
X104575429Y-105192285D01*
X104720571Y-105119714D01*
X104793143Y-105047142D01*
X104865714Y-104902000D01*
X104865714Y-104321428D01*
X104067429Y-106571142D02*
X104067429Y-105845428D01*
X104793143Y-105772857D01*
X104720571Y-105845428D01*
X104648000Y-105990571D01*
X104648000Y-106353428D01*
X104720571Y-106498571D01*
X104793143Y-106571142D01*
X104938286Y-106643714D01*
X105301143Y-106643714D01*
X105446286Y-106571142D01*
X105518857Y-106498571D01*
X105591429Y-106353428D01*
X105591429Y-105990571D01*
X105518857Y-105845428D01*
X105446286Y-105772857D01*
X104067429Y-107151714D02*
X104067429Y-108095143D01*
X104648000Y-107587143D01*
X104648000Y-107804857D01*
X104720571Y-107950000D01*
X104793143Y-108022571D01*
X104938286Y-108095143D01*
X105301143Y-108095143D01*
X105446286Y-108022571D01*
X105518857Y-107950000D01*
X105591429Y-107804857D01*
X105591429Y-107369429D01*
X105518857Y-107224286D01*
X105446286Y-107151714D01*
X90859429Y-104938285D02*
X90133714Y-104430285D01*
X90859429Y-104067428D02*
X89335429Y-104067428D01*
X89335429Y-104648000D01*
X89408000Y-104793142D01*
X89480571Y-104865714D01*
X89625714Y-104938285D01*
X89843429Y-104938285D01*
X89988571Y-104865714D01*
X90061143Y-104793142D01*
X90133714Y-104648000D01*
X90133714Y-104067428D01*
X89335429Y-106317142D02*
X89335429Y-105591428D01*
X90061143Y-105518857D01*
X89988571Y-105591428D01*
X89916000Y-105736571D01*
X89916000Y-106099428D01*
X89988571Y-106244571D01*
X90061143Y-106317142D01*
X90206286Y-106389714D01*
X90569143Y-106389714D01*
X90714286Y-106317142D01*
X90786857Y-106244571D01*
X90859429Y-106099428D01*
X90859429Y-105736571D01*
X90786857Y-105591428D01*
X90714286Y-105518857D01*
X89843429Y-107696000D02*
X90859429Y-107696000D01*
X89262857Y-107333143D02*
X90351429Y-106970286D01*
X90351429Y-107913714D01*
D21*
X116511629Y-112926362D02*
X116664029Y-112688086D01*
X116772886Y-112926362D02*
X116772886Y-112425982D01*
X116598714Y-112425982D01*
X116555172Y-112449810D01*
X116533400Y-112473638D01*
X116511629Y-112521293D01*
X116511629Y-112592776D01*
X116533400Y-112640431D01*
X116555172Y-112664259D01*
X116598714Y-112688086D01*
X116772886Y-112688086D01*
X116076200Y-112926362D02*
X116337457Y-112926362D01*
X116206829Y-112926362D02*
X116206829Y-112425982D01*
X116250372Y-112497465D01*
X116293914Y-112545120D01*
X116337457Y-112568948D01*
X115793171Y-112425982D02*
X115749628Y-112425982D01*
X115706085Y-112449810D01*
X115684314Y-112473638D01*
X115662543Y-112521293D01*
X115640771Y-112616603D01*
X115640771Y-112735741D01*
X115662543Y-112831052D01*
X115684314Y-112878707D01*
X115706085Y-112902535D01*
X115749628Y-112926362D01*
X115793171Y-112926362D01*
X115836714Y-112902535D01*
X115858485Y-112878707D01*
X115880257Y-112831052D01*
X115902028Y-112735741D01*
X115902028Y-112616603D01*
X115880257Y-112521293D01*
X115858485Y-112473638D01*
X115836714Y-112449810D01*
X115793171Y-112425982D01*
X115205342Y-112926362D02*
X115466599Y-112926362D01*
X115335971Y-112926362D02*
X115335971Y-112425982D01*
X115379514Y-112497465D01*
X115423056Y-112545120D01*
X115466599Y-112568948D01*
X116626362Y-105888371D02*
X116388086Y-105735971D01*
X116626362Y-105627114D02*
X116125982Y-105627114D01*
X116125982Y-105801286D01*
X116149810Y-105844828D01*
X116173638Y-105866600D01*
X116221293Y-105888371D01*
X116292776Y-105888371D01*
X116340431Y-105866600D01*
X116364259Y-105844828D01*
X116388086Y-105801286D01*
X116388086Y-105627114D01*
X116626362Y-106323800D02*
X116626362Y-106062543D01*
X116626362Y-106193171D02*
X116125982Y-106193171D01*
X116197465Y-106149628D01*
X116245120Y-106106086D01*
X116268948Y-106062543D01*
X116125982Y-106606829D02*
X116125982Y-106650372D01*
X116149810Y-106693915D01*
X116173638Y-106715686D01*
X116221293Y-106737457D01*
X116316603Y-106759229D01*
X116435741Y-106759229D01*
X116531052Y-106737457D01*
X116578707Y-106715686D01*
X116602535Y-106693915D01*
X116626362Y-106650372D01*
X116626362Y-106606829D01*
X116602535Y-106563286D01*
X116578707Y-106541515D01*
X116531052Y-106519743D01*
X116435741Y-106497972D01*
X116316603Y-106497972D01*
X116221293Y-106519743D01*
X116173638Y-106541515D01*
X116149810Y-106563286D01*
X116125982Y-106606829D01*
X116173638Y-106933401D02*
X116149810Y-106955172D01*
X116125982Y-106998715D01*
X116125982Y-107107572D01*
X116149810Y-107151115D01*
X116173638Y-107172886D01*
X116221293Y-107194658D01*
X116268948Y-107194658D01*
X116340431Y-107172886D01*
X116626362Y-106911629D01*
X116626362Y-107194658D01*
X83226362Y-131288371D02*
X82988086Y-131135971D01*
X83226362Y-131027114D02*
X82725982Y-131027114D01*
X82725982Y-131201286D01*
X82749810Y-131244828D01*
X82773638Y-131266600D01*
X82821293Y-131288371D01*
X82892776Y-131288371D01*
X82940431Y-131266600D01*
X82964259Y-131244828D01*
X82988086Y-131201286D01*
X82988086Y-131027114D01*
X82892776Y-131680257D02*
X83226362Y-131680257D01*
X82702155Y-131571400D02*
X83059569Y-131462543D01*
X83059569Y-131745571D01*
X82725982Y-132006829D02*
X82725982Y-132050372D01*
X82749810Y-132093915D01*
X82773638Y-132115686D01*
X82821293Y-132137457D01*
X82916603Y-132159229D01*
X83035741Y-132159229D01*
X83131052Y-132137457D01*
X83178707Y-132115686D01*
X83202535Y-132093915D01*
X83226362Y-132050372D01*
X83226362Y-132006829D01*
X83202535Y-131963286D01*
X83178707Y-131941515D01*
X83131052Y-131919743D01*
X83035741Y-131897972D01*
X82916603Y-131897972D01*
X82821293Y-131919743D01*
X82773638Y-131941515D01*
X82749810Y-131963286D01*
X82725982Y-132006829D01*
X82773638Y-132333401D02*
X82749810Y-132355172D01*
X82725982Y-132398715D01*
X82725982Y-132507572D01*
X82749810Y-132551115D01*
X82773638Y-132572886D01*
X82821293Y-132594658D01*
X82868948Y-132594658D01*
X82940431Y-132572886D01*
X83226362Y-132311629D01*
X83226362Y-132594658D01*
%LPC*%
D25*
X97033080Y-134853680D03*
X97033080Y-132354320D03*
X100832920Y-132354320D03*
X100832920Y-134853680D03*
D26*
X80450000Y-119728280D03*
D27*
X80450000Y-115725240D03*
X80450000Y-117726760D03*
X80450000Y-113726260D03*
D28*
X108712000Y-136398000D03*
X111252000Y-136398000D03*
X113792000Y-136398000D03*
D29*
X92202000Y-118364000D03*
D30*
X85598000Y-118364000D03*
X85598000Y-116078000D03*
X85598000Y-120650000D03*
D31*
X92000000Y-83000000D03*
X103500000Y-83000000D03*
D32*
X105537000Y-111760000D03*
X108839000Y-111760000D03*
D33*
X112268000Y-111633000D03*
X112268000Y-108331000D03*
D32*
X102549000Y-116300000D03*
X105851000Y-116300000D03*
D34*
X83700000Y-126838000D03*
X83700000Y-128362000D03*
D35*
X113030000Y-133604000D03*
X111506000Y-133604000D03*
D34*
X81788000Y-133604000D03*
X81788000Y-135128000D03*
X92456000Y-132588000D03*
X92456000Y-131064000D03*
X90900000Y-132562000D03*
X90900000Y-131038000D03*
X86350000Y-132562000D03*
X86350000Y-131038000D03*
X96012000Y-124079000D03*
X96012000Y-125603000D03*
D35*
X96774000Y-130810000D03*
X98298000Y-130810000D03*
D34*
X107600000Y-126762000D03*
X107600000Y-125238000D03*
X97663000Y-125603000D03*
X97663000Y-124079000D03*
D36*
X100012500Y-120142000D03*
X101917500Y-120142000D03*
D34*
X105918000Y-123571000D03*
X105918000Y-122047000D03*
X85090000Y-123698000D03*
X85090000Y-122174000D03*
D37*
X80550000Y-125174000D03*
X80550000Y-122126000D03*
D35*
X103251000Y-133858000D03*
X104775000Y-133858000D03*
D34*
X98700000Y-136488000D03*
X98700000Y-138012000D03*
D37*
X83000000Y-116776000D03*
X83000000Y-119824000D03*
D35*
X101092000Y-130810000D03*
X99568000Y-130810000D03*
D32*
X92329000Y-112268000D03*
X95631000Y-112268000D03*
X94488000Y-116205000D03*
X97790000Y-116205000D03*
X94488000Y-118618000D03*
X97790000Y-118618000D03*
D38*
X110490000Y-120431560D03*
X110490000Y-115280440D03*
D34*
X107442000Y-123571000D03*
X107442000Y-122047000D03*
D39*
X111887000Y-123939300D03*
X111887000Y-122440700D03*
X110450000Y-123949300D03*
X110450000Y-122450700D03*
X109050000Y-123949300D03*
X109050000Y-122450700D03*
D40*
X84495640Y-113030000D03*
X89494360Y-113030000D03*
D41*
X86099240Y-137200000D03*
X88100760Y-137200000D03*
X90099740Y-137200000D03*
X92101260Y-137200000D03*
X84100260Y-137200000D03*
X82098740Y-137200000D03*
X114300000Y-126253240D03*
X114300000Y-128254760D03*
X114300000Y-130253740D03*
X114300000Y-132255260D03*
X114300000Y-124254260D03*
X114300000Y-122252740D03*
X114300000Y-112029240D03*
X114300000Y-114030760D03*
X114300000Y-116029740D03*
X114300000Y-118031260D03*
X114300000Y-110030260D03*
X114300000Y-108028740D03*
D42*
X81661000Y-108077000D03*
X97536000Y-105664000D03*
D43*
X110744000Y-89984580D03*
D44*
X114554000Y-100586540D03*
X113284000Y-100586540D03*
X112014000Y-100586540D03*
X109474000Y-100586540D03*
X108204000Y-100586540D03*
X106934000Y-100586540D03*
D43*
X97917000Y-89984580D03*
D44*
X101727000Y-100586540D03*
X100457000Y-100586540D03*
X99187000Y-100586540D03*
X96647000Y-100586540D03*
X95377000Y-100586540D03*
X94107000Y-100586540D03*
D43*
X84836000Y-89984580D03*
D44*
X88646000Y-100586540D03*
X87376000Y-100586540D03*
X86106000Y-100586540D03*
X83566000Y-100586540D03*
X82296000Y-100586540D03*
X81026000Y-100586540D03*
D34*
X85200000Y-125338000D03*
X85200000Y-126862000D03*
X85200000Y-129762000D03*
X85200000Y-128238000D03*
D35*
X110236000Y-133604000D03*
X108712000Y-133604000D03*
X81012000Y-129300000D03*
X79488000Y-129300000D03*
D34*
X83312000Y-135128000D03*
X83312000Y-133604000D03*
X86360000Y-135128000D03*
X86360000Y-133604000D03*
X89408000Y-135128000D03*
X89408000Y-133604000D03*
X92456000Y-135128000D03*
X92456000Y-133604000D03*
X90932000Y-135128000D03*
X90932000Y-133604000D03*
X87884000Y-135128000D03*
X87884000Y-133604000D03*
X84836000Y-135128000D03*
X84836000Y-133604000D03*
D35*
X101346000Y-123698000D03*
X99822000Y-123698000D03*
X98679000Y-120777000D03*
X97155000Y-120777000D03*
X93472000Y-121666000D03*
X94996000Y-121666000D03*
D34*
X109100000Y-125238000D03*
X109100000Y-126762000D03*
D35*
X87503000Y-128524000D03*
X89027000Y-128524000D03*
X93462000Y-128050000D03*
X91938000Y-128050000D03*
X87503000Y-127000000D03*
X89027000Y-127000000D03*
X93462000Y-126550000D03*
X91938000Y-126550000D03*
X114808000Y-103124000D03*
X113284000Y-103124000D03*
D10*
G36*
X111690790Y-106067433D02*
X110882567Y-105259210D01*
X111331580Y-104810197D01*
X112139803Y-105618420D01*
X111690790Y-106067433D01*
X111690790Y-106067433D01*
G37*
G36*
X112768420Y-104989803D02*
X111960197Y-104181580D01*
X112409210Y-103732567D01*
X113217433Y-104540790D01*
X112768420Y-104989803D01*
X112768420Y-104989803D01*
G37*
D35*
X87488000Y-125450000D03*
X89012000Y-125450000D03*
X93462000Y-125050000D03*
X91938000Y-125050000D03*
D34*
X104394000Y-100584000D03*
X104394000Y-102108000D03*
X104394000Y-98044000D03*
X104394000Y-99568000D03*
X112100000Y-125238000D03*
X112100000Y-126762000D03*
X110600000Y-125238000D03*
X110600000Y-126762000D03*
X91186000Y-100076000D03*
X91186000Y-101600000D03*
X91186000Y-97282000D03*
X91186000Y-98806000D03*
D45*
X101663500Y-105664000D03*
X108140500Y-105664000D03*
D46*
X101663500Y-109791500D03*
X108140500Y-109791500D03*
D45*
X86931500Y-105410000D03*
X93408500Y-105410000D03*
D46*
X86931500Y-109537500D03*
X93408500Y-109537500D03*
D47*
X82700000Y-125800000D03*
X82700000Y-129800000D03*
D34*
X116000000Y-110338000D03*
X116000000Y-111862000D03*
X116000000Y-109262000D03*
X116000000Y-107738000D03*
X84050000Y-132562000D03*
X84050000Y-131038000D03*
D48*
G36*
X100711000Y-103759000D02*
X93980000Y-103759000D01*
X93980000Y-99187000D01*
X100711000Y-99187000D01*
X100711000Y-103759000D01*
X100711000Y-103759000D01*
G37*
X100711000Y-103759000D02*
X93980000Y-103759000D01*
X93980000Y-99187000D01*
X100711000Y-99187000D01*
X100711000Y-103759000D01*
G36*
X87503000Y-105537000D02*
X85904605Y-105537000D01*
X83618605Y-103251000D01*
X80391000Y-103251000D01*
X80391000Y-98933000D01*
X87503000Y-98933000D01*
X87503000Y-105537000D01*
X87503000Y-105537000D01*
G37*
X87503000Y-105537000D02*
X85904605Y-105537000D01*
X83618605Y-103251000D01*
X80391000Y-103251000D01*
X80391000Y-98933000D01*
X87503000Y-98933000D01*
X87503000Y-105537000D01*
G36*
X113157000Y-101981000D02*
X111834395Y-101981000D01*
X110236000Y-103579395D01*
X110236000Y-104722395D01*
X109167395Y-105791000D01*
X107315000Y-105791000D01*
X107315000Y-102055395D01*
X106299000Y-101039395D01*
X106299000Y-98858605D01*
X107494605Y-97663000D01*
X112215395Y-97663000D01*
X113157000Y-98604605D01*
X113157000Y-101981000D01*
X113157000Y-101981000D01*
G37*
X113157000Y-101981000D02*
X111834395Y-101981000D01*
X110236000Y-103579395D01*
X110236000Y-104722395D01*
X109167395Y-105791000D01*
X107315000Y-105791000D01*
X107315000Y-102055395D01*
X106299000Y-101039395D01*
X106299000Y-98858605D01*
X107494605Y-97663000D01*
X112215395Y-97663000D01*
X113157000Y-98604605D01*
X113157000Y-101981000D01*
M02*
