%FSLAX46Y46*%
G04 Gerber Fmt 4.6, Leading zero omitted, Abs format (unit mm)*
G04 Created by KiCad (PCBNEW (2014-08-29 BZR 5106)-product) date tis  2 sep 2014 21:56:50*
%MOMM*%
G01*
G04 APERTURE LIST*
%ADD10C,0.150000*%
%ADD11R,2.032000X3.657600*%
%ADD12R,2.032000X1.016000*%
%ADD13R,1.524000X2.032000*%
%ADD14R,2.032000X1.524000*%
%ADD15R,0.889000X1.397000*%
%ADD16R,1.143000X0.635000*%
%ADD17R,0.635000X1.143000*%
%ADD18R,2.499360X1.950720*%
%ADD19R,5.499100X1.849120*%
%ADD20R,0.797560X0.797560*%
%ADD21R,3.500120X1.800860*%
%ADD22R,4.000000X5.000000*%
%ADD23R,10.800080X8.150860*%
%ADD24R,0.899160X3.200400*%
%ADD25R,2.438400X5.588000*%
%ADD26R,2.438400X0.889000*%
%ADD27R,1.800860X1.198880*%
G04 APERTURE END LIST*
D10*
D11*
X92202000Y-118364000D03*
D12*
X85598000Y-118364000D03*
X85598000Y-116078000D03*
X85598000Y-120650000D03*
D13*
X105537000Y-111760000D03*
X108839000Y-111760000D03*
D14*
X112268000Y-111633000D03*
X112268000Y-108331000D03*
D13*
X102549000Y-116300000D03*
X105851000Y-116300000D03*
D15*
X98361500Y-109474000D03*
X96456500Y-109474000D03*
D16*
X83700000Y-126838000D03*
X83700000Y-128362000D03*
D17*
X113030000Y-133604000D03*
X111506000Y-133604000D03*
D16*
X81788000Y-133604000D03*
X81788000Y-135128000D03*
X92456000Y-132588000D03*
X92456000Y-131064000D03*
X90900000Y-132562000D03*
X90900000Y-131038000D03*
X86350000Y-132562000D03*
X86350000Y-131038000D03*
X96012000Y-124079000D03*
X96012000Y-125603000D03*
D17*
X96774000Y-130810000D03*
X98298000Y-130810000D03*
D16*
X107600000Y-126762000D03*
X107600000Y-125238000D03*
X97663000Y-125603000D03*
X97663000Y-124079000D03*
D15*
X100012500Y-120142000D03*
X101917500Y-120142000D03*
D16*
X105918000Y-123571000D03*
X105918000Y-122047000D03*
X85090000Y-123698000D03*
X85090000Y-122174000D03*
D18*
X80550000Y-125174000D03*
X80550000Y-122126000D03*
D17*
X103251000Y-133858000D03*
X104775000Y-133858000D03*
D16*
X112649000Y-129540000D03*
X112649000Y-131064000D03*
D18*
X83000000Y-116776000D03*
X83000000Y-119824000D03*
D17*
X101092000Y-130810000D03*
X99568000Y-130810000D03*
D13*
X92329000Y-112268000D03*
X95631000Y-112268000D03*
X94488000Y-116205000D03*
X97790000Y-116205000D03*
X94488000Y-118618000D03*
X97790000Y-118618000D03*
D19*
X110490000Y-120431560D03*
X110490000Y-115280440D03*
D16*
X107442000Y-123571000D03*
X107442000Y-122047000D03*
D20*
X111887000Y-123939300D03*
X111887000Y-122440700D03*
X110363000Y-123939300D03*
X110363000Y-122440700D03*
X109050000Y-123949300D03*
X109050000Y-122450700D03*
D21*
X84495640Y-113030000D03*
X89494360Y-113030000D03*
D22*
X81661000Y-108077000D03*
X97536000Y-105664000D03*
D23*
X110744000Y-89984580D03*
D24*
X114554000Y-100586540D03*
X113284000Y-100586540D03*
X112014000Y-100586540D03*
X109474000Y-100586540D03*
X108204000Y-100586540D03*
X106934000Y-100586540D03*
D23*
X97917000Y-89984580D03*
D24*
X101727000Y-100586540D03*
X100457000Y-100586540D03*
X99187000Y-100586540D03*
X96647000Y-100586540D03*
X95377000Y-100586540D03*
X94107000Y-100586540D03*
D23*
X84836000Y-89984580D03*
D24*
X88646000Y-100586540D03*
X87376000Y-100586540D03*
X86106000Y-100586540D03*
X83566000Y-100586540D03*
X82296000Y-100586540D03*
X81026000Y-100586540D03*
D16*
X85200000Y-125338000D03*
X85200000Y-126862000D03*
X85200000Y-129762000D03*
X85200000Y-128238000D03*
D17*
X110236000Y-133604000D03*
X108712000Y-133604000D03*
X81012000Y-129300000D03*
X79488000Y-129300000D03*
D16*
X83312000Y-135128000D03*
X83312000Y-133604000D03*
X86360000Y-135128000D03*
X86360000Y-133604000D03*
X89408000Y-135128000D03*
X89408000Y-133604000D03*
X92456000Y-135128000D03*
X92456000Y-133604000D03*
X90932000Y-135128000D03*
X90932000Y-133604000D03*
X87884000Y-135128000D03*
X87884000Y-133604000D03*
X84836000Y-135128000D03*
X84836000Y-133604000D03*
D17*
X101346000Y-123698000D03*
X99822000Y-123698000D03*
X98679000Y-120777000D03*
X97155000Y-120777000D03*
X93472000Y-121666000D03*
X94996000Y-121666000D03*
D16*
X109100000Y-125238000D03*
X109100000Y-126762000D03*
D17*
X87503000Y-128524000D03*
X89027000Y-128524000D03*
X93462000Y-128050000D03*
X91938000Y-128050000D03*
X87503000Y-127000000D03*
X89027000Y-127000000D03*
X93462000Y-126550000D03*
X91938000Y-126550000D03*
X114808000Y-103124000D03*
X113284000Y-103124000D03*
D10*
G36*
X111690790Y-106067433D02*
X110882567Y-105259210D01*
X111331580Y-104810197D01*
X112139803Y-105618420D01*
X111690790Y-106067433D01*
X111690790Y-106067433D01*
G37*
G36*
X112768420Y-104989803D02*
X111960197Y-104181580D01*
X112409210Y-103732567D01*
X113217433Y-104540790D01*
X112768420Y-104989803D01*
X112768420Y-104989803D01*
G37*
D17*
X87488000Y-125450000D03*
X89012000Y-125450000D03*
X93462000Y-125050000D03*
X91938000Y-125050000D03*
D16*
X104394000Y-100584000D03*
X104394000Y-102108000D03*
X104394000Y-98044000D03*
X104394000Y-99568000D03*
X112100000Y-125238000D03*
X112100000Y-126762000D03*
X110600000Y-125238000D03*
X110600000Y-126762000D03*
X91186000Y-100076000D03*
X91186000Y-101600000D03*
X91186000Y-97282000D03*
X91186000Y-98806000D03*
D25*
X101663500Y-105664000D03*
X108140500Y-105664000D03*
D26*
X101663500Y-109791500D03*
X108140500Y-109791500D03*
D25*
X86931500Y-105410000D03*
X93408500Y-105410000D03*
D26*
X86931500Y-109537500D03*
X93408500Y-109537500D03*
D27*
X97033080Y-134853680D03*
X97033080Y-132354320D03*
X100832920Y-132354320D03*
X100832920Y-134853680D03*
D16*
X116000000Y-110338000D03*
X116000000Y-111862000D03*
X116000000Y-109262000D03*
X116000000Y-107738000D03*
X84050000Y-132562000D03*
X84050000Y-131038000D03*
M02*
