M48
;DRILL file {kicad (2014-08-24 BZR 5093)-product} date Thu 04 Sep 2014 06:20:10 PM ART
;FORMAT={2:4/ absolute / inch / keep zeros}
FMAT,2
INCH,TZ
T1C0.020
T2C0.028
T3C0.030
T4C0.040
T5C0.120
%
G90
G05
M72
T1
X031122Y-051496
X031220Y-049862
X031260Y-050315
X031732Y-047992
X032205Y-044409
X032520Y-050512
X032539Y-050000
X033031Y-049331
X033031Y-051220
X033425Y-052205
X033436Y-051616
X033850Y-045250
X033976Y-049685
X034055Y-050499
X034150Y-049250
X034685Y-048780
X034700Y-051850
X034724Y-047992
X034761Y-051044
X034850Y-043150
X035000Y-046350
X035000Y-046772
X035218Y-052235
X035351Y-043135
X035354Y-047087
X035512Y-050118
X035534Y-051839
X035750Y-045250
X035791Y-043085
X035800Y-049800
X035906Y-047008
X035906Y-048661
X035945Y-050492
X035950Y-035500
X036000Y-034200
X036000Y-035950
X036000Y-049050
X036005Y-040233
X036151Y-048301
X036200Y-045250
X036549Y-049154
X036555Y-051024
X036741Y-050612
X036775Y-041500
X036852Y-052244
X036870Y-047579
X036953Y-050933
X037000Y-044650
X037178Y-044252
X037250Y-047450
X037650Y-054000
X037736Y-049764
X037972Y-046043
X037972Y-046476
X038000Y-050950
X038050Y-044900
X038150Y-050250
X038200Y-048450
X038200Y-052500
X038327Y-049843
X038650Y-050450
X038760Y-051220
X038785Y-053381
X038800Y-046000
X038800Y-048150
X038917Y-049862
X038981Y-044571
X039050Y-052256
X039100Y-046250
X039124Y-052831
X039250Y-043000
X039324Y-054340
X039400Y-050500
X039544Y-044581
X039550Y-048250
X039600Y-046600
X039646Y-049843
X039650Y-043300
X039750Y-047850
X039900Y-050600
X039950Y-044600
X040000Y-054364
X040248Y-046640
X040350Y-050350
X040400Y-044600
X040650Y-052300
X040700Y-047800
X040800Y-050350
X040800Y-054364
X040850Y-046640
X040866Y-045256
X040900Y-044551
X040913Y-040191
X041065Y-051435
X041083Y-052205
X041100Y-036100
X041200Y-041100
X041200Y-050200
X041311Y-046629
X041350Y-051800
X041450Y-042900
X041450Y-049350
X041450Y-049850
X041450Y-051350
X041550Y-047850
X041650Y-041750
X041650Y-053600
X041700Y-040450
X041700Y-041200
X041870Y-049843
X042050Y-044700
X042100Y-046550
X042150Y-054050
X042205Y-053450
X042421Y-049035
X042500Y-051500
X042521Y-040837
X042600Y-050450
X042953Y-050177
X043221Y-048211
X043287Y-053169
X043550Y-041900
X043650Y-046600
X043650Y-047000
X043661Y-052126
X043723Y-040973
X043750Y-044650
X044000Y-040600
X044250Y-043300
X044311Y-053228
X044500Y-041650
X044500Y-041650
X044547Y-050827
X044650Y-043750
X045200Y-032250
X045250Y-041052
X045709Y-039882
X045748Y-043661
T2
X031673Y-044774
X031673Y-045561
X031673Y-046349
X031673Y-047137
X032322Y-054016
X033110Y-054016
X033897Y-054016
X034685Y-054016
X035472Y-054016
X036260Y-054016
X045000Y-042531
X045000Y-043319
X045000Y-044106
X045000Y-044894
X045000Y-045681
X045000Y-046469
X045000Y-048131
X045000Y-048919
X045000Y-049706
X045000Y-050494
X045000Y-051281
X045000Y-052069
T3
X031500Y-041500
X031500Y-042200
X031500Y-042900
X031500Y-043600
X031900Y-034300
X031900Y-035100
X031900Y-035800
X032200Y-041500
X032200Y-042200
X032200Y-042900
X032200Y-043600
X032600Y-034300
X032600Y-035100
X032600Y-035800
X032900Y-041500
X032900Y-042200
X032900Y-042900
X032900Y-043600
X033300Y-034300
X033300Y-035100
X033300Y-035800
X034000Y-034300
X034000Y-035100
X034000Y-035800
X036221Y-041555
X036248Y-040884
X037000Y-034300
X037000Y-035000
X037000Y-035700
X037700Y-034300
X037700Y-035000
X037700Y-035700
X038500Y-034300
X038500Y-035000
X038500Y-035700
X039300Y-034300
X039300Y-035000
X039300Y-035700
X042100Y-034200
X042100Y-034900
X042100Y-035600
X042900Y-034200
X042900Y-034900
X042900Y-035600
X043600Y-034200
X043600Y-034900
X043600Y-035600
X044300Y-034200
X044300Y-034900
X044300Y-035600
T4
X042800Y-053700
X043800Y-053700
X044800Y-053700
T5
X036220Y-032677
X040748Y-032677
T0
M30
