<?xml version="1.0" standalone="no"?>
 <!DOCTYPE svg PUBLIC "-//W3C//DTD SVG 1.1//EN" 
 "http://www.w3.org/Graphics/SVG/1.1/DTD/svg11.dtd"> 
<svg xmlns="http://www.w3.org/2000/svg" version="1.1" 
    width="29.7002cm" height="21.0007cm" viewBox="0 0 116930 82680 ">
<title>SVG Picture created as CAN-CAN bus transceiver.svg date 2015/05/20 12:11:11 </title>
  <desc>Picture generated by Eeschema-SVG </desc>
<g style="fill:#000000; fill-opacity:1;stroke:#000000; stroke-opacity:1;
stroke-linecap:round; stroke-linejoin:round; "
 transform="translate(0 0) scale(1 1)">
</g>
<g style="fill:#840000; fill-opacity:0.0; 
stroke:#840000; stroke-width:100; stroke-opacity:1; 
stroke-linecap:round; stroke-linejoin:round;">
</g>
<g style="fill:#840000; fill-opacity:0.0; 
stroke:#840000; stroke-width:60; stroke-opacity:1; 
stroke-linecap:round; stroke-linejoin:round;">
<rect x="69690" y="65360" width="42520" height="12600" rx="0" />
</g>
<g style="fill:#840000; fill-opacity:0.0; 
stroke:#840000; stroke-width:100; stroke-opacity:1; 
stroke-linecap:round; stroke-linejoin:round;">
</g>
<g style="fill:#840000; fill-opacity:0.0; 
stroke:#840000; stroke-width:60; stroke-opacity:1; 
stroke-linecap:round; stroke-linejoin:round;">
<rect x="3940" y="3940" width="109050" height="74800" rx="0" />
</g>
<g style="fill:#840000; fill-opacity:0.0; 
stroke:#840000; stroke-width:100; stroke-opacity:1; 
stroke-linecap:round; stroke-linejoin:round;">
</g>
<g style="fill:#840000; fill-opacity:0.0; 
stroke:#840000; stroke-width:60; stroke-opacity:1; 
stroke-linecap:round; stroke-linejoin:round;">
<rect x="4720" y="4720" width="107490" height="73240" rx="0" />
</g>
<g style="fill:#840000; fill-opacity:0.0; 
stroke:#840000; stroke-width:100; stroke-opacity:1; 
stroke-linecap:round; stroke-linejoin:round;">
</g>
<g style="fill:#840000; fill-opacity:0.0; 
stroke:#840000; stroke-width:60; stroke-opacity:1; 
stroke-linecap:round; stroke-linejoin:round;">
<path d="M23620 4720
L23620 3940
" />
</g>
<g style="fill:#840000; fill-opacity:0.0; 
stroke:#840000; stroke-width:100; stroke-opacity:1; 
stroke-linecap:round; stroke-linejoin:round;">
</g>
<g style="fill:#840000; fill-opacity:0.0; 
stroke:#840000; stroke-width:60; stroke-opacity:1; 
stroke-linecap:round; stroke-linejoin:round;">
<path d="M43310 4720
L43310 3940
" />
</g>
<g style="fill:#840000; fill-opacity:0.0; 
stroke:#840000; stroke-width:100; stroke-opacity:1; 
stroke-linecap:round; stroke-linejoin:round;">
</g>
<g style="fill:#840000; fill-opacity:0.0; 
stroke:#840000; stroke-width:60; stroke-opacity:1; 
stroke-linecap:round; stroke-linejoin:round;">
<path d="M62990 4720
L62990 3940
" />
</g>
<g style="fill:#840000; fill-opacity:0.0; 
stroke:#840000; stroke-width:100; stroke-opacity:1; 
stroke-linecap:round; stroke-linejoin:round;">
</g>
<g style="fill:#840000; fill-opacity:0.0; 
stroke:#840000; stroke-width:60; stroke-opacity:1; 
stroke-linecap:round; stroke-linejoin:round;">
<path d="M82680 4720
L82680 3940
" />
</g>
<g style="fill:#840000; fill-opacity:0.0; 
stroke:#840000; stroke-width:100; stroke-opacity:1; 
stroke-linecap:round; stroke-linejoin:round;">
</g>
<g style="fill:#840000; fill-opacity:0.0; 
stroke:#840000; stroke-width:60; stroke-opacity:1; 
stroke-linecap:round; stroke-linejoin:round;">
<path d="M102360 4720
L102360 3940
" />
</g>
<g style="fill:#840000; fill-opacity:0.0; 
stroke:#840000; stroke-width:100; stroke-opacity:1; 
stroke-linecap:round; stroke-linejoin:round;">
</g>
<g style="fill:#840000; fill-opacity:0.0; 
stroke:#840000; stroke-width:60; stroke-opacity:1; 
stroke-linecap:round; stroke-linejoin:round;">
<path d="M14170 4560
L13880 4560
" />
<path d="M14020 4560
L14020 4050
L13970 4120
L13930 4170
L13880 4190
" />
</g>
<g style="fill:#840000; fill-opacity:0.0; 
stroke:#840000; stroke-width:100; stroke-opacity:1; 
stroke-linecap:round; stroke-linejoin:round;">
</g>
<g style="fill:#840000; fill-opacity:0.0; 
stroke:#840000; stroke-width:60; stroke-opacity:1; 
stroke-linecap:round; stroke-linejoin:round;">
<path d="M33560 4090
L33580 4070
L33630 4050
L33750 4050
L33800 4070
L33820 4090
L33850 4140
L33850 4190
L33820 4260
L33530 4560
L33850 4560
" />
</g>
<g style="fill:#840000; fill-opacity:0.0; 
stroke:#840000; stroke-width:100; stroke-opacity:1; 
stroke-linecap:round; stroke-linejoin:round;">
</g>
<g style="fill:#840000; fill-opacity:0.0; 
stroke:#840000; stroke-width:60; stroke-opacity:1; 
stroke-linecap:round; stroke-linejoin:round;">
<path d="M53220 4050
L53540 4050
L53370 4240
L53440 4240
L53490 4260
L53510 4290
L53540 4340
L53540 4460
L53510 4510
L53490 4530
L53440 4560
L53300 4560
L53250 4530
L53220 4510
" />
</g>
<g style="fill:#840000; fill-opacity:0.0; 
stroke:#840000; stroke-width:100; stroke-opacity:1; 
stroke-linecap:round; stroke-linejoin:round;">
</g>
<g style="fill:#840000; fill-opacity:0.0; 
stroke:#840000; stroke-width:60; stroke-opacity:1; 
stroke-linecap:round; stroke-linejoin:round;">
<path d="M73170 4220
L73170 4560
" />
<path d="M73050 4020
L72930 4390
L73240 4390
" />
</g>
<g style="fill:#840000; fill-opacity:0.0; 
stroke:#840000; stroke-width:100; stroke-opacity:1; 
stroke-linecap:round; stroke-linejoin:round;">
</g>
<g style="fill:#840000; fill-opacity:0.0; 
stroke:#840000; stroke-width:60; stroke-opacity:1; 
stroke-linecap:round; stroke-linejoin:round;">
<path d="M92880 4050
L92640 4050
L92620 4290
L92640 4260
L92690 4240
L92810 4240
L92860 4260
L92880 4290
L92910 4340
L92910 4460
L92880 4510
L92860 4530
L92810 4560
L92690 4560
L92640 4530
L92620 4510
" />
</g>
<g style="fill:#840000; fill-opacity:0.0; 
stroke:#840000; stroke-width:100; stroke-opacity:1; 
stroke-linecap:round; stroke-linejoin:round;">
</g>
<g style="fill:#840000; fill-opacity:0.0; 
stroke:#840000; stroke-width:60; stroke-opacity:1; 
stroke-linecap:round; stroke-linejoin:round;">
<path d="M112540 4050
L112440 4050
L112390 4070
L112370 4090
L112320 4170
L112300 4260
L112300 4460
L112320 4510
L112350 4530
L112390 4560
L112490 4560
L112540 4530
L112560 4510
L112590 4460
L112590 4340
L112560 4290
L112540 4260
L112490 4240
L112390 4240
L112350 4260
L112320 4290
L112300 4340
" />
</g>
<g style="fill:#840000; fill-opacity:0.0; 
stroke:#840000; stroke-width:100; stroke-opacity:1; 
stroke-linecap:round; stroke-linejoin:round;">
</g>
<g style="fill:#840000; fill-opacity:0.0; 
stroke:#840000; stroke-width:60; stroke-opacity:1; 
stroke-linecap:round; stroke-linejoin:round;">
<path d="M23620 77960
L23620 78740
" />
</g>
<g style="fill:#840000; fill-opacity:0.0; 
stroke:#840000; stroke-width:100; stroke-opacity:1; 
stroke-linecap:round; stroke-linejoin:round;">
</g>
<g style="fill:#840000; fill-opacity:0.0; 
stroke:#840000; stroke-width:60; stroke-opacity:1; 
stroke-linecap:round; stroke-linejoin:round;">
<path d="M43310 77960
L43310 78740
" />
</g>
<g style="fill:#840000; fill-opacity:0.0; 
stroke:#840000; stroke-width:100; stroke-opacity:1; 
stroke-linecap:round; stroke-linejoin:round;">
</g>
<g style="fill:#840000; fill-opacity:0.0; 
stroke:#840000; stroke-width:60; stroke-opacity:1; 
stroke-linecap:round; stroke-linejoin:round;">
<path d="M62990 77960
L62990 78740
" />
</g>
<g style="fill:#840000; fill-opacity:0.0; 
stroke:#840000; stroke-width:100; stroke-opacity:1; 
stroke-linecap:round; stroke-linejoin:round;">
</g>
<g style="fill:#840000; fill-opacity:0.0; 
stroke:#840000; stroke-width:60; stroke-opacity:1; 
stroke-linecap:round; stroke-linejoin:round;">
<path d="M82680 77960
L82680 78740
" />
</g>
<g style="fill:#840000; fill-opacity:0.0; 
stroke:#840000; stroke-width:100; stroke-opacity:1; 
stroke-linecap:round; stroke-linejoin:round;">
</g>
<g style="fill:#840000; fill-opacity:0.0; 
stroke:#840000; stroke-width:60; stroke-opacity:1; 
stroke-linecap:round; stroke-linejoin:round;">
<path d="M102360 77960
L102360 78740
" />
</g>
<g style="fill:#840000; fill-opacity:0.0; 
stroke:#840000; stroke-width:100; stroke-opacity:1; 
stroke-linecap:round; stroke-linejoin:round;">
</g>
<g style="fill:#840000; fill-opacity:0.0; 
stroke:#840000; stroke-width:60; stroke-opacity:1; 
stroke-linecap:round; stroke-linejoin:round;">
<path d="M14170 78580
L13880 78580
" />
<path d="M14020 78580
L14020 78070
L13970 78140
L13930 78190
L13880 78210
" />
</g>
<g style="fill:#840000; fill-opacity:0.0; 
stroke:#840000; stroke-width:100; stroke-opacity:1; 
stroke-linecap:round; stroke-linejoin:round;">
</g>
<g style="fill:#840000; fill-opacity:0.0; 
stroke:#840000; stroke-width:60; stroke-opacity:1; 
stroke-linecap:round; stroke-linejoin:round;">
<path d="M33560 78110
L33580 78090
L33630 78070
L33750 78070
L33800 78090
L33820 78110
L33850 78160
L33850 78210
L33820 78280
L33530 78580
L33850 78580
" />
</g>
<g style="fill:#840000; fill-opacity:0.0; 
stroke:#840000; stroke-width:100; stroke-opacity:1; 
stroke-linecap:round; stroke-linejoin:round;">
</g>
<g style="fill:#840000; fill-opacity:0.0; 
stroke:#840000; stroke-width:60; stroke-opacity:1; 
stroke-linecap:round; stroke-linejoin:round;">
<path d="M53220 78070
L53540 78070
L53370 78260
L53440 78260
L53490 78280
L53510 78310
L53540 78360
L53540 78480
L53510 78530
L53490 78550
L53440 78580
L53300 78580
L53250 78550
L53220 78530
" />
</g>
<g style="fill:#840000; fill-opacity:0.0; 
stroke:#840000; stroke-width:100; stroke-opacity:1; 
stroke-linecap:round; stroke-linejoin:round;">
</g>
<g style="fill:#840000; fill-opacity:0.0; 
stroke:#840000; stroke-width:60; stroke-opacity:1; 
stroke-linecap:round; stroke-linejoin:round;">
<path d="M73170 78240
L73170 78580
" />
<path d="M73050 78040
L72930 78410
L73240 78410
" />
</g>
<g style="fill:#840000; fill-opacity:0.0; 
stroke:#840000; stroke-width:100; stroke-opacity:1; 
stroke-linecap:round; stroke-linejoin:round;">
</g>
<g style="fill:#840000; fill-opacity:0.0; 
stroke:#840000; stroke-width:60; stroke-opacity:1; 
stroke-linecap:round; stroke-linejoin:round;">
<path d="M92880 78070
L92640 78070
L92620 78310
L92640 78280
L92690 78260
L92810 78260
L92860 78280
L92880 78310
L92910 78360
L92910 78480
L92880 78530
L92860 78550
L92810 78580
L92690 78580
L92640 78550
L92620 78530
" />
</g>
<g style="fill:#840000; fill-opacity:0.0; 
stroke:#840000; stroke-width:100; stroke-opacity:1; 
stroke-linecap:round; stroke-linejoin:round;">
</g>
<g style="fill:#840000; fill-opacity:0.0; 
stroke:#840000; stroke-width:60; stroke-opacity:1; 
stroke-linecap:round; stroke-linejoin:round;">
<path d="M112540 78070
L112440 78070
L112390 78090
L112370 78110
L112320 78190
L112300 78280
L112300 78480
L112320 78530
L112350 78550
L112390 78580
L112490 78580
L112540 78550
L112560 78530
L112590 78480
L112590 78360
L112560 78310
L112540 78280
L112490 78260
L112390 78260
L112350 78280
L112320 78310
L112300 78360
" />
</g>
<g style="fill:#840000; fill-opacity:0.0; 
stroke:#840000; stroke-width:100; stroke-opacity:1; 
stroke-linecap:round; stroke-linejoin:round;">
</g>
<g style="fill:#840000; fill-opacity:0.0; 
stroke:#840000; stroke-width:60; stroke-opacity:1; 
stroke-linecap:round; stroke-linejoin:round;">
<path d="M3940 23620
L4720 23620
" />
</g>
<g style="fill:#840000; fill-opacity:0.0; 
stroke:#840000; stroke-width:100; stroke-opacity:1; 
stroke-linecap:round; stroke-linejoin:round;">
</g>
<g style="fill:#840000; fill-opacity:0.0; 
stroke:#840000; stroke-width:60; stroke-opacity:1; 
stroke-linecap:round; stroke-linejoin:round;">
<path d="M3940 43310
L4720 43310
" />
</g>
<g style="fill:#840000; fill-opacity:0.0; 
stroke:#840000; stroke-width:100; stroke-opacity:1; 
stroke-linecap:round; stroke-linejoin:round;">
</g>
<g style="fill:#840000; fill-opacity:0.0; 
stroke:#840000; stroke-width:60; stroke-opacity:1; 
stroke-linecap:round; stroke-linejoin:round;">
<path d="M3940 62990
L4720 62990
" />
</g>
<g style="fill:#840000; fill-opacity:0.0; 
stroke:#840000; stroke-width:100; stroke-opacity:1; 
stroke-linecap:round; stroke-linejoin:round;">
</g>
<g style="fill:#840000; fill-opacity:0.0; 
stroke:#840000; stroke-width:60; stroke-opacity:1; 
stroke-linecap:round; stroke-linejoin:round;">
<path d="M4210 13860
L4450 13860
" />
<path d="M4160 14010
L4330 13500
L4500 14010
" />
</g>
<g style="fill:#840000; fill-opacity:0.0; 
stroke:#840000; stroke-width:100; stroke-opacity:1; 
stroke-linecap:round; stroke-linejoin:round;">
</g>
<g style="fill:#840000; fill-opacity:0.0; 
stroke:#840000; stroke-width:60; stroke-opacity:1; 
stroke-linecap:round; stroke-linejoin:round;">
<path d="M4370 33420
L4440 33440
L4470 33470
L4490 33520
L4490 33590
L4470 33640
L4440 33660
L4400 33690
L4200 33690
L4200 33180
L4370 33180
L4420 33200
L4440 33220
L4470 33270
L4470 33320
L4440 33370
L4420 33390
L4370 33420
L4200 33420
" />
</g>
<g style="fill:#840000; fill-opacity:0.0; 
stroke:#840000; stroke-width:100; stroke-opacity:1; 
stroke-linecap:round; stroke-linejoin:round;">
</g>
<g style="fill:#840000; fill-opacity:0.0; 
stroke:#840000; stroke-width:60; stroke-opacity:1; 
stroke-linecap:round; stroke-linejoin:round;">
<path d="M4490 53330
L4470 53350
L4400 53380
L4350 53380
L4270 53350
L4230 53300
L4200 53250
L4180 53160
L4180 53080
L4200 52990
L4230 52940
L4270 52890
L4350 52870
L4400 52870
L4470 52890
L4490 52910
" />
</g>
<g style="fill:#840000; fill-opacity:0.0; 
stroke:#840000; stroke-width:100; stroke-opacity:1; 
stroke-linecap:round; stroke-linejoin:round;">
</g>
<g style="fill:#840000; fill-opacity:0.0; 
stroke:#840000; stroke-width:60; stroke-opacity:1; 
stroke-linecap:round; stroke-linejoin:round;">
<path d="M4200 73060
L4200 72550
L4320 72550
L4400 72570
L4440 72620
L4470 72670
L4490 72760
L4490 72840
L4470 72930
L4440 72980
L4400 73030
L4320 73060
L4200 73060
" />
</g>
<g style="fill:#840000; fill-opacity:0.0; 
stroke:#840000; stroke-width:100; stroke-opacity:1; 
stroke-linecap:round; stroke-linejoin:round;">
</g>
<g style="fill:#840000; fill-opacity:0.0; 
stroke:#840000; stroke-width:60; stroke-opacity:1; 
stroke-linecap:round; stroke-linejoin:round;">
<path d="M112990 23620
L112210 23620
" />
</g>
<g style="fill:#840000; fill-opacity:0.0; 
stroke:#840000; stroke-width:100; stroke-opacity:1; 
stroke-linecap:round; stroke-linejoin:round;">
</g>
<g style="fill:#840000; fill-opacity:0.0; 
stroke:#840000; stroke-width:60; stroke-opacity:1; 
stroke-linecap:round; stroke-linejoin:round;">
<path d="M112990 43310
L112210 43310
" />
</g>
<g style="fill:#840000; fill-opacity:0.0; 
stroke:#840000; stroke-width:100; stroke-opacity:1; 
stroke-linecap:round; stroke-linejoin:round;">
</g>
<g style="fill:#840000; fill-opacity:0.0; 
stroke:#840000; stroke-width:60; stroke-opacity:1; 
stroke-linecap:round; stroke-linejoin:round;">
<path d="M112990 62990
L112210 62990
" />
</g>
<g style="fill:#840000; fill-opacity:0.0; 
stroke:#840000; stroke-width:100; stroke-opacity:1; 
stroke-linecap:round; stroke-linejoin:round;">
</g>
<g style="fill:#840000; fill-opacity:0.0; 
stroke:#840000; stroke-width:60; stroke-opacity:1; 
stroke-linecap:round; stroke-linejoin:round;">
<path d="M112480 13860
L112720 13860
" />
<path d="M112430 14010
L112600 13500
L112770 14010
" />
</g>
<g style="fill:#840000; fill-opacity:0.0; 
stroke:#840000; stroke-width:100; stroke-opacity:1; 
stroke-linecap:round; stroke-linejoin:round;">
</g>
<g style="fill:#840000; fill-opacity:0.0; 
stroke:#840000; stroke-width:60; stroke-opacity:1; 
stroke-linecap:round; stroke-linejoin:round;">
<path d="M112640 33420
L112710 33440
L112740 33470
L112760 33520
L112760 33590
L112740 33640
L112710 33660
L112670 33690
L112470 33690
L112470 33180
L112640 33180
L112690 33200
L112710 33220
L112740 33270
L112740 33320
L112710 33370
L112690 33390
L112640 33420
L112470 33420
" />
</g>
<g style="fill:#840000; fill-opacity:0.0; 
stroke:#840000; stroke-width:100; stroke-opacity:1; 
stroke-linecap:round; stroke-linejoin:round;">
</g>
<g style="fill:#840000; fill-opacity:0.0; 
stroke:#840000; stroke-width:60; stroke-opacity:1; 
stroke-linecap:round; stroke-linejoin:round;">
<path d="M112760 53330
L112740 53350
L112670 53380
L112620 53380
L112540 53350
L112500 53300
L112470 53250
L112450 53160
L112450 53080
L112470 52990
L112500 52940
L112540 52890
L112620 52870
L112670 52870
L112740 52890
L112760 52910
" />
</g>
<g style="fill:#840000; fill-opacity:0.0; 
stroke:#840000; stroke-width:100; stroke-opacity:1; 
stroke-linecap:round; stroke-linejoin:round;">
</g>
<g style="fill:#840000; fill-opacity:0.0; 
stroke:#840000; stroke-width:60; stroke-opacity:1; 
stroke-linecap:round; stroke-linejoin:round;">
<path d="M112470 73060
L112470 72550
L112590 72550
L112670 72570
L112710 72620
L112740 72670
L112760 72760
L112760 72840
L112740 72930
L112710 72980
L112670 73030
L112590 73060
L112470 73060
" />
</g>
<g style="fill:#840000; fill-opacity:0.0; 
stroke:#840000; stroke-width:100; stroke-opacity:1; 
stroke-linecap:round; stroke-linejoin:round;">
</g>
<g style="fill:#840000; fill-opacity:0.0; 
stroke:#840000; stroke-width:60; stroke-opacity:1; 
stroke-linecap:round; stroke-linejoin:round;">
<path d="M78880 76290
L78880 75700
L79020 75700
L79110 75730
L79160 75790
L79190 75840
L79220 75950
L79220 76040
L79190 76150
L79160 76210
L79110 76260
L79020 76290
L78880 76290
" />
<path d="M79720 76290
L79720 75980
L79700 75930
L79640 75900
L79530 75900
L79470 75930
" />
<path d="M79720 76260
L79670 76290
L79530 76290
L79470 76260
L79440 76210
L79440 76150
L79470 76100
L79530 76070
L79670 76070
L79720 76040
" />
<path d="M79920 75900
L80140 75900
" />
<path d="M80000 75700
L80000 76210
L80030 76260
L80080 76290
L80140 76290
" />
<path d="M80570 76260
L80510 76290
L80400 76290
L80340 76260
L80310 76210
L80310 75980
L80340 75930
L80400 75900
L80510 75900
L80570 75930
L80590 75980
L80590 76040
L80310 76100
" />
<path d="M80850 76240
L80880 76260
L80850 76290
L80820 76260
L80850 76240
L80850 76290
" />
<path d="M80850 75930
L80880 75950
L80850 75980
L80820 75950
L80850 75930
L80850 75980
" />
<path d="M81550 75760
L81580 75730
L81640 75700
L81780 75700
L81830 75730
L81860 75760
L81890 75810
L81890 75870
L81860 75950
L81520 76290
L81890 76290
" />
<path d="M82420 75700
L82140 75700
L82110 75980
L82140 75950
L82200 75930
L82340 75930
L82390 75950
L82420 75980
L82450 76040
L82450 76180
L82420 76240
L82390 76260
L82340 76290
L82200 76290
L82140 76260
L82110 76240
" />
<path d="M83120 76120
L83400 76120
" />
<path d="M83070 76290
L83260 75700
L83460 76290
" />
<path d="M83910 75900
L83910 76290
" />
<path d="M83660 75900
L83660 76210
L83690 76260
L83740 76290
L83830 76290
L83890 76260
L83910 76240
" />
<path d="M84440 75900
L84440 76380
L84420 76430
L84390 76460
L84330 76490
L84250 76490
L84190 76460
" />
<path d="M84440 76260
L84390 76290
L84270 76290
L84220 76260
L84190 76240
L84160 76180
L84160 76010
L84190 75950
L84220 75930
L84270 75900
L84390 75900
L84440 75930
" />
<path d="M85140 75760
L85170 75730
L85230 75700
L85370 75700
L85420 75730
L85450 75760
L85480 75810
L85480 75870
L85450 75950
L85110 76290
L85480 76290
" />
<path d="M85840 75700
L85900 75700
L85960 75730
L85980 75760
L86010 75810
L86040 75930
L86040 76070
L86010 76180
L85980 76240
L85960 76260
L85900 76290
L85840 76290
L85790 76260
L85760 76240
L85730 76180
L85700 76070
L85700 75930
L85730 75810
L85760 75760
L85790 75730
L85840 75700
" />
<path d="M86600 76290
L86260 76290
" />
<path d="M86430 76290
L86430 75700
L86370 75790
L86320 75840
L86260 75870
" />
<path d="M87100 75900
L87100 76290
" />
<path d="M86960 75670
L86820 76100
L87190 76100
" />
</g>
<g style="fill:#840000; fill-opacity:0.0; 
stroke:#840000; stroke-width:100; stroke-opacity:1; 
stroke-linecap:round; stroke-linejoin:round;">
</g>
<g style="fill:#840000; fill-opacity:0.0; 
stroke:#840000; stroke-width:60; stroke-opacity:1; 
stroke-linecap:round; stroke-linejoin:round;">
<path d="M69690 76580
L112210 76580
" />
</g>
<g style="fill:#840000; fill-opacity:0.0; 
stroke:#840000; stroke-width:100; stroke-opacity:1; 
stroke-linecap:round; stroke-linejoin:round;">
</g>
<g style="fill:#840000; fill-opacity:0.0; 
stroke:#840000; stroke-width:60; stroke-opacity:1; 
stroke-linecap:round; stroke-linejoin:round;">
<path d="M70220 77390
L70220 76800
" />
<path d="M70560 77390
L70300 77050
" />
<path d="M70560 76800
L70220 77140
" />
<path d="M70810 77390
L70810 77000
" />
<path d="M70810 76800
L70780 76830
L70810 76860
L70840 76830
L70810 76800
L70810 76860
" />
<path d="M71430 77340
L71400 77360
L71320 77390
L71260 77390
L71170 77360
L71120 77310
L71090 77250
L71060 77140
L71060 77050
L71090 76940
L71120 76890
L71170 76830
L71260 76800
L71320 76800
L71400 76830
L71430 76860
" />
<path d="M71930 77390
L71930 77080
L71910 77030
L71850 77000
L71740 77000
L71680 77030
" />
<path d="M71930 77360
L71880 77390
L71740 77390
L71680 77360
L71650 77310
L71650 77250
L71680 77200
L71740 77170
L71880 77170
L71930 77140
" />
<path d="M72460 77390
L72460 76800
" />
<path d="M72460 77360
L72410 77390
L72290 77390
L72240 77360
L72210 77340
L72180 77280
L72180 77110
L72210 77050
L72240 77030
L72290 77000
L72410 77000
L72460 77030
" />
<path d="M73190 77080
L73390 77080
" />
<path d="M73470 77390
L73190 77390
L73190 76800
L73470 76800
" />
<path d="M73720 77340
L73750 77360
L73720 77390
L73690 77360
L73720 77340
L73720 77390
" />
<path d="M74000 77390
L74000 76800
L74140 76800
L74230 76830
L74280 76890
L74310 76940
L74340 77050
L74340 77140
L74310 77250
L74280 77310
L74230 77360
L74140 77390
L74000 77390
" />
<path d="M74590 77340
L74620 77360
L74590 77390
L74560 77360
L74590 77340
L74590 77390
" />
<path d="M74840 77220
L75120 77220
" />
<path d="M74790 77390
L74980 76800
L75180 77390
" />
<path d="M75380 77340
L75410 77360
L75380 77390
L75350 77360
L75380 77340
L75380 77390
" />
<path d="M76560 77390
L76560 76800
" />
<path d="M76620 77170
L76790 77390
" />
<path d="M76790 77000
L76560 77220
" />
<path d="M77040 77390
L77040 77000
" />
<path d="M77040 76800
L77010 76830
L77040 76860
L77070 76830
L77040 76800
L77040 76860
" />
<path d="M77570 77360
L77520 77390
L77400 77390
L77350 77360
L77320 77340
L77290 77280
L77290 77110
L77320 77050
L77350 77030
L77400 77000
L77520 77000
L77570 77030
" />
<path d="M78080 77390
L78080 77080
L78060 77030
L78000 77000
L77890 77000
L77830 77030
" />
<path d="M78080 77360
L78030 77390
L77890 77390
L77830 77360
L77800 77310
L77800 77250
L77830 77200
L77890 77170
L78030 77170
L78080 77140
" />
<path d="M78610 77390
L78610 76800
" />
<path d="M78610 77360
L78560 77390
L78440 77390
L78390 77360
L78360 77340
L78330 77280
L78330 77110
L78360 77050
L78390 77030
L78440 77000
L78560 77000
L78610 77030
" />
<path d="M79510 77620
L79480 77590
L79420 77500
L79400 77450
L79370 77360
L79340 77220
L79340 77110
L79370 76970
L79400 76890
L79420 76830
L79480 76750
L79510 76720
" />
<path d="M79700 76860
L79730 76830
L79790 76800
L79930 76800
L79980 76830
L80010 76860
L80040 76910
L80040 76970
L80010 77050
L79670 77390
L80040 77390
" />
<path d="M80400 76800
L80460 76800
L80520 76830
L80540 76860
L80570 76910
L80600 77030
L80600 77170
L80570 77280
L80540 77340
L80520 77360
L80460 77390
L80400 77390
L80350 77360
L80320 77340
L80290 77280
L80260 77170
L80260 77030
L80290 76910
L80320 76860
L80350 76830
L80400 76800
" />
<path d="M81160 77390
L80820 77390
" />
<path d="M80990 77390
L80990 76800
L80930 76890
L80880 76940
L80820 76970
" />
<path d="M81690 76800
L81410 76800
L81380 77080
L81410 77050
L81470 77030
L81610 77030
L81660 77050
L81690 77080
L81720 77140
L81720 77280
L81690 77340
L81660 77360
L81610 77390
L81470 77390
L81410 77360
L81380 77340
" />
<path d="M81970 77170
L82420 77170
" />
<path d="M82810 76800
L82870 76800
L82930 76830
L82950 76860
L82980 76910
L83010 77030
L83010 77170
L82980 77280
L82950 77340
L82930 77360
L82870 77390
L82810 77390
L82760 77360
L82730 77340
L82700 77280
L82670 77170
L82670 77030
L82700 76910
L82730 76860
L82760 76830
L82810 76800
" />
<path d="M83540 76800
L83260 76800
L83230 77080
L83260 77050
L83320 77030
L83460 77030
L83510 77050
L83540 77080
L83570 77140
L83570 77280
L83540 77340
L83510 77360
L83460 77390
L83320 77390
L83260 77360
L83230 77340
" />
<path d="M83820 77170
L84270 77170
" />
<path d="M84860 77390
L84520 77390
" />
<path d="M84690 77390
L84690 76800
L84630 76890
L84580 76940
L84520 76970
" />
<path d="M85190 77050
L85140 77030
L85110 77000
L85080 76940
L85080 76910
L85110 76860
L85140 76830
L85190 76800
L85310 76800
L85360 76830
L85390 76860
L85420 76910
L85420 76940
L85390 77000
L85360 77030
L85310 77050
L85190 77050
L85140 77080
L85110 77110
L85080 77170
L85080 77280
L85110 77340
L85140 77360
L85190 77390
L85310 77390
L85360 77360
L85390 77340
L85420 77280
L85420 77170
L85390 77110
L85360 77080
L85310 77050
" />
<path d="M86320 77080
L86400 77110
L86430 77140
L86460 77200
L86460 77280
L86430 77340
L86400 77360
L86350 77390
L86120 77390
L86120 76800
L86320 76800
L86370 76830
L86400 76860
L86430 76910
L86430 76970
L86400 77030
L86370 77050
L86320 77080
L86120 77080
" />
<path d="M86650 76800
L87050 76800
L86650 77390
L87050 77390
" />
<path d="M87610 77390
L87410 77110
" />
<path d="M87270 77390
L87270 76800
L87500 76800
L87550 76830
L87580 76860
L87610 76910
L87610 77000
L87580 77050
L87550 77080
L87500 77110
L87270 77110
" />
<path d="M88590 76800
L88310 76800
L88280 77080
L88310 77050
L88370 77030
L88510 77030
L88560 77050
L88590 77080
L88620 77140
L88620 77280
L88590 77340
L88560 77360
L88510 77390
L88370 77390
L88310 77360
L88280 77340
" />
<path d="M89120 76800
L89010 76800
L88950 76830
L88930 76860
L88870 76940
L88840 77050
L88840 77280
L88870 77340
L88900 77360
L88950 77390
L89070 77390
L89120 77360
L89150 77340
L89180 77280
L89180 77140
L89150 77080
L89120 77050
L89070 77030
L88950 77030
L88900 77050
L88870 77080
L88840 77140
" />
<path d="M89680 76800
L89570 76800
L89510 76830
L89490 76860
L89430 76940
L89400 77050
L89400 77280
L89430 77340
L89460 77360
L89510 77390
L89630 77390
L89680 77360
L89710 77340
L89740 77280
L89740 77140
L89710 77080
L89680 77050
L89630 77030
L89510 77030
L89460 77050
L89430 77080
L89400 77140
" />
<path d="M90070 77050
L90020 77030
L89990 77000
L89960 76940
L89960 76910
L89990 76860
L90020 76830
L90070 76800
L90190 76800
L90240 76830
L90270 76860
L90300 76910
L90300 76940
L90270 77000
L90240 77030
L90190 77050
L90070 77050
L90020 77080
L89990 77110
L89960 77170
L89960 77280
L89990 77340
L90020 77360
L90070 77390
L90190 77390
L90240 77360
L90270 77340
L90300 77280
L90300 77170
L90270 77110
L90240 77080
L90190 77050
" />
<path d="M90490 77620
L90520 77590
L90580 77500
L90610 77450
L90630 77360
L90660 77220
L90660 77110
L90630 76970
L90610 76890
L90580 76830
L90520 76750
L90490 76720
" />
<path d="M90940 77170
L91390 77170
" />
<path d="M91670 77000
L91670 77590
" />
<path d="M91670 77030
L91730 77000
L91840 77000
L91900 77030
L91920 77050
L91950 77110
L91950 77280
L91920 77340
L91900 77360
L91840 77390
L91730 77390
L91670 77360
" />
<path d="M92200 77390
L92200 77000
" />
<path d="M92200 77110
L92230 77050
L92260 77030
L92310 77000
L92370 77000
" />
<path d="M92650 77390
L92600 77360
L92570 77340
L92540 77280
L92540 77110
L92570 77050
L92600 77030
L92650 77000
L92740 77000
L92800 77030
L92820 77050
L92850 77110
L92850 77280
L92820 77340
L92800 77360
L92740 77390
L92650 77390
" />
<path d="M93350 77390
L93350 76800
" />
<path d="M93350 77360
L93300 77390
L93180 77390
L93130 77360
L93100 77340
L93070 77280
L93070 77110
L93100 77050
L93130 77030
L93180 77000
L93300 77000
L93350 77030
" />
<path d="M93880 77000
L93880 77390
" />
<path d="M93630 77000
L93630 77310
L93660 77360
L93710 77390
L93800 77390
L93860 77360
L93880 77340
" />
<path d="M94410 77360
L94360 77390
L94240 77390
L94190 77360
L94160 77340
L94130 77280
L94130 77110
L94160 77050
L94190 77030
L94240 77000
L94360 77000
L94410 77030
" />
<path d="M94590 77000
L94810 77000
" />
<path d="M94670 76800
L94670 77310
L94700 77360
L94750 77390
L94810 77390
" />
</g>
<g style="fill:#840000; fill-opacity:0.0; 
stroke:#840000; stroke-width:100; stroke-opacity:1; 
stroke-linecap:round; stroke-linejoin:round;">
</g>
<g style="fill:#840000; fill-opacity:0.0; 
stroke:#840000; stroke-width:60; stroke-opacity:1; 
stroke-linecap:round; stroke-linejoin:round;">
<path d="M69690 75400
L112210 75400
" />
</g>
<g style="fill:#840000; fill-opacity:0.0; 
stroke:#840000; stroke-width:100; stroke-opacity:1; 
stroke-linecap:round; stroke-linejoin:round;">
</g>
<g style="fill:#840000; fill-opacity:0.0; 
stroke:#840000; stroke-width:120; stroke-opacity:1; 
stroke-linecap:round; stroke-linejoin:round;">
<path d="M104020 76290
L103820 76010
" />
<path d="M103680 76290
L103680 75700
L103910 75700
L103960 75730
L103990 75760
L104020 75810
L104020 75900
L103990 75950
L103960 75980
L103910 76010
L103680 76010
" />
<path d="M104500 76260
L104440 76290
L104330 76290
L104270 76260
L104240 76210
L104240 75980
L104270 75930
L104330 75900
L104440 75900
L104500 75930
L104520 75980
L104520 76040
L104240 76100
" />
<path d="M104720 75900
L104860 76290
L105010 75900
" />
<path d="M105230 76240
L105260 76260
L105230 76290
L105200 76260
L105230 76240
L105230 76290
" />
<path d="M105230 75930
L105260 75950
L105230 75980
L105200 75950
L105230 75930
L105230 75980
" />
</g>
<g style="fill:#840000; fill-opacity:0.0; 
stroke:#840000; stroke-width:100; stroke-opacity:1; 
stroke-linecap:round; stroke-linejoin:round;">
</g>
<g style="fill:#840000; fill-opacity:0.0; 
stroke:#840000; stroke-width:60; stroke-opacity:1; 
stroke-linecap:round; stroke-linejoin:round;">
<path d="M70190 76260
L70280 76290
L70420 76290
L70470 76260
L70500 76240
L70530 76180
L70530 76120
L70500 76070
L70470 76040
L70420 76010
L70300 75980
L70250 75950
L70220 75930
L70190 75870
L70190 75810
L70220 75760
L70250 75730
L70300 75700
L70450 75700
L70530 75730
" />
<path d="M70780 76290
L70780 75900
" />
<path d="M70780 75700
L70750 75730
L70780 75760
L70810 75730
L70780 75700
L70780 75760
" />
<path d="M71000 75900
L71310 75900
L71000 76290
L71310 76290
" />
<path d="M71770 76260
L71710 76290
L71600 76290
L71540 76260
L71510 76210
L71510 75980
L71540 75930
L71600 75900
L71710 75900
L71770 75930
L71790 75980
L71790 76040
L71510 76100
" />
<path d="M72050 76240
L72080 76260
L72050 76290
L72020 76260
L72050 76240
L72050 76290
" />
<path d="M72050 75930
L72080 75950
L72050 75980
L72020 75950
L72050 75930
L72050 75980
" />
<path d="M72750 76120
L73030 76120
" />
<path d="M72700 76290
L72890 75700
L73090 76290
" />
<path d="M73540 75900
L73540 76290
" />
<path d="M73400 75670
L73260 76100
L73630 76100
" />
</g>
<g style="fill:#840000; fill-opacity:0.0; 
stroke:#840000; stroke-width:100; stroke-opacity:1; 
stroke-linecap:round; stroke-linejoin:round;">
</g>
<g style="fill:#840000; fill-opacity:0.0; 
stroke:#840000; stroke-width:60; stroke-opacity:1; 
stroke-linecap:round; stroke-linejoin:round;">
<path d="M103680 77390
L103680 76800
" />
<path d="M104210 77390
L104210 76800
" />
<path d="M104210 77360
L104160 77390
L104040 77390
L103990 77360
L103960 77340
L103930 77280
L103930 77110
L103960 77050
L103990 77030
L104040 77000
L104160 77000
L104210 77030
" />
<path d="M104490 77340
L104520 77360
L104490 77390
L104460 77360
L104490 77340
L104490 77390
" />
<path d="M104490 77030
L104520 77050
L104490 77080
L104460 77050
L104490 77030
L104490 77080
" />
<path d="M105470 77000
L105470 77390
" />
<path d="M105330 76770
L105190 77200
L105560 77200
" />
<path d="M106200 76770
L105700 77530
" />
<path d="M106340 76800
L106740 76800
L106480 77390
" />
</g>
<g style="fill:#840000; fill-opacity:0.0; 
stroke:#840000; stroke-width:100; stroke-opacity:1; 
stroke-linecap:round; stroke-linejoin:round;">
</g>
<g style="fill:#840000; fill-opacity:0.0; 
stroke:#840000; stroke-width:60; stroke-opacity:1; 
stroke-linecap:round; stroke-linejoin:round;">
<path d="M69690 73820
L112210 73820
" />
</g>
<g style="fill:#840000; fill-opacity:0.0; 
stroke:#840000; stroke-width:100; stroke-opacity:1; 
stroke-linecap:round; stroke-linejoin:round;">
</g>
<g style="fill:#840000; fill-opacity:0.0; 
stroke:#840000; stroke-width:160; stroke-opacity:1; 
stroke-linecap:round; stroke-linejoin:round;">
<path d="M70260 74090
L70710 74090
" />
<path d="M70390 74880
L70480 74090
" />
<path d="M70880 74880
L70940 74360
" />
<path d="M70970 74090
L70930 74130
L70960 74170
L71010 74130
L70970 74090
L70960 74170
" />
<path d="M71210 74360
L71510 74360
" />
<path d="M71350 74090
L71270 74770
L71300 74840
L71370 74880
L71450 74880
" />
<path d="M71820 74880
L71750 74840
L71720 74770
L71800 74090
" />
<path d="M72420 74840
L72340 74880
L72190 74880
L72120 74840
L72090 74770
L72130 74470
L72180 74390
L72250 74360
L72400 74360
L72480 74390
L72510 74470
L72500 74540
L72110 74620
" />
<path d="M72800 74810
L72840 74840
L72800 74880
L72760 74840
L72800 74810
L72800 74880
" />
<path d="M72860 74390
L72890 74430
L72850 74470
L72810 74430
L72860 74390
L72850 74470
" />
<path d="M74230 74810
L74190 74840
L74080 74880
L74000 74880
L73890 74840
L73830 74770
L73800 74690
L73780 74540
L73790 74430
L73850 74280
L73900 74210
L73980 74130
L74090 74090
L74170 74090
L74280 74130
L74310 74170
" />
<path d="M74550 74660
L74930 74660
" />
<path d="M74460 74880
L74810 74090
L74980 74880
" />
<path d="M75250 74880
L75340 74090
L75700 74880
L75790 74090
" />
<path d="M76990 74470
L77090 74510
L77130 74540
L77160 74620
L77140 74730
L77090 74810
L77050 74840
L76980 74880
L76680 74880
L76770 74090
L77030 74090
L77110 74130
L77130 74170
L77170 74240
L77160 74320
L77110 74390
L77070 74430
L76990 74470
L76730 74470
" />
<path d="M77560 74090
L77480 74730
L77510 74810
L77540 74840
L77620 74880
L77770 74880
L77840 74840
L77880 74810
L77930 74730
L78010 74090
" />
<path d="M78260 74840
L78370 74880
L78560 74880
L78640 74840
L78670 74810
L78720 74730
L78730 74660
L78700 74580
L78680 74540
L78600 74510
L78460 74470
L78390 74430
L78360 74390
L78330 74320
L78340 74240
L78380 74170
L78430 74130
L78500 74090
L78690 74090
L78800 74130
" />
<path d="M79600 74360
L79900 74360
" />
<path d="M79740 74090
L79660 74770
L79690 74840
L79760 74880
L79840 74880
" />
<path d="M80100 74880
L80160 74360
" />
<path d="M80140 74510
L80190 74430
L80230 74390
L80310 74360
L80380 74360
" />
<path d="M80930 74880
L80980 74470
L80950 74390
L80870 74360
L80720 74360
L80650 74390
" />
<path d="M80930 74840
L80850 74880
L80660 74880
L80590 74840
L80560 74770
L80570 74690
L80620 74620
L80690 74580
L80880 74580
L80970 74540
" />
<path d="M81360 74360
L81300 74880
" />
<path d="M81350 74430
L81400 74390
L81470 74360
L81580 74360
L81660 74390
L81690 74470
L81640 74880
" />
<path d="M81970 74840
L82050 74880
L82200 74880
L82270 74840
L82320 74770
L82320 74730
L82290 74660
L82230 74620
L82110 74620
L82040 74580
L82010 74510
L82020 74470
L82070 74390
L82140 74360
L82260 74360
L82330 74390
" />
<path d="M82990 74840
L82910 74880
L82760 74880
L82690 74840
L82650 74810
L82620 74730
L82650 74510
L82700 74430
L82750 74390
L82820 74360
L82970 74360
L83050 74390
" />
<path d="M83630 74840
L83550 74880
L83400 74880
L83330 74840
L83300 74770
L83340 74470
L83390 74390
L83460 74360
L83610 74360
L83690 74390
L83720 74470
L83710 74540
L83320 74620
" />
<path d="M84010 74880
L84070 74360
" />
<path d="M84100 74090
L84060 74130
L84090 74170
L84140 74130
L84100 74090
L84090 74170
" />
<path d="M84370 74360
L84500 74880
L84750 74360
" />
<path d="M85290 74840
L85210 74880
L85060 74880
L84990 74840
L84960 74770
L85000 74470
L85050 74390
L85120 74360
L85270 74360
L85350 74390
L85380 74470
L85370 74540
L84980 74620
" />
<path d="M85670 74880
L85730 74360
" />
<path d="M85710 74510
L85760 74430
L85800 74390
L85880 74360
L85950 74360
" />
</g>
<g style="fill:#840000; fill-opacity:0.0; 
stroke:#840000; stroke-width:100; stroke-opacity:1; 
stroke-linecap:round; stroke-linejoin:round;">
</g>
<g style="fill:#840000; fill-opacity:0.0; 
stroke:#840000; stroke-width:60; stroke-opacity:1; 
stroke-linecap:round; stroke-linejoin:round;">
<path d="M70420 73060
L70220 73060
" />
<path d="M70220 73370
L70220 72780
L70500 72780
" />
<path d="M70730 73370
L70730 72980
" />
<path d="M70730 72780
L70700 72810
L70730 72840
L70760 72810
L70730 72780
L70730 72840
" />
<path d="M71090 73370
L71040 73340
L71010 73290
L71010 72780
" />
<path d="M71550 73340
L71490 73370
L71380 73370
L71320 73340
L71290 73290
L71290 73060
L71320 73010
L71380 72980
L71490 72980
L71550 73010
L71570 73060
L71570 73120
L71290 73180
" />
<path d="M71830 73320
L71860 73340
L71830 73370
L71800 73340
L71830 73320
L71830 73370
" />
<path d="M71830 73010
L71860 73030
L71830 73060
L71800 73030
L71830 73010
L71830 73060
" />
<path d="M72900 73320
L72870 73340
L72790 73370
L72730 73370
L72640 73340
L72590 73290
L72560 73230
L72530 73120
L72530 73030
L72560 72920
L72590 72870
L72640 72810
L72730 72780
L72790 72780
L72870 72810
L72900 72840
" />
<path d="M73120 73200
L73400 73200
" />
<path d="M73070 73370
L73260 72780
L73460 73370
" />
<path d="M73660 73370
L73660 72780
L74000 73370
L74000 72780
" />
<path d="M74280 73320
L74310 73340
L74280 73370
L74250 73340
L74280 73320
L74280 73370
" />
<path d="M74530 73340
L74590 73370
L74700 73370
L74760 73340
L74790 73290
L74790 73260
L74760 73200
L74700 73180
L74620 73180
L74560 73150
L74530 73090
L74530 73060
L74560 73010
L74620 72980
L74700 72980
L74760 73010
" />
<path d="M75290 73340
L75240 73370
L75120 73370
L75070 73340
L75040 73320
L75010 73260
L75010 73090
L75040 73030
L75070 73010
L75120 72980
L75240 72980
L75290 73010
" />
<path d="M75550 73370
L75550 72780
" />
<path d="M75800 73370
L75800 73060
L75780 73010
L75720 72980
L75630 72980
L75580 73010
L75550 73030
" />
</g>
<g style="fill:#840000; fill-opacity:0.0; 
stroke:#840000; stroke-width:100; stroke-opacity:1; 
stroke-linecap:round; stroke-linejoin:round;">
</g>
<g style="fill:#840000; fill-opacity:0.0; 
stroke:#840000; stroke-width:60; stroke-opacity:1; 
stroke-linecap:round; stroke-linejoin:round;">
<path d="M69690 71460
L112210 71460
" />
</g>
<g style="fill:#840000; fill-opacity:0.0; 
stroke:#840000; stroke-width:100; stroke-opacity:1; 
stroke-linecap:round; stroke-linejoin:round;">
</g>
<g style="fill:#840000; fill-opacity:0.0; 
stroke:#840000; stroke-width:60; stroke-opacity:1; 
stroke-linecap:round; stroke-linejoin:round;">
<path d="M70190 72280
L70280 72310
L70420 72310
L70470 72280
L70500 72260
L70530 72200
L70530 72140
L70500 72090
L70470 72060
L70420 72030
L70300 72000
L70250 71970
L70220 71950
L70190 71890
L70190 71830
L70220 71780
L70250 71750
L70300 71720
L70450 71720
L70530 71750
" />
<path d="M70780 72310
L70780 71720
" />
<path d="M71030 72310
L71030 72000
L71010 71950
L70950 71920
L70860 71920
L70810 71950
L70780 71970
" />
<path d="M71540 72280
L71480 72310
L71370 72310
L71310 72280
L71280 72230
L71280 72000
L71310 71950
L71370 71920
L71480 71920
L71540 71950
L71560 72000
L71560 72060
L71280 72120
" />
<path d="M72050 72280
L71990 72310
L71880 72310
L71820 72280
L71790 72230
L71790 72000
L71820 71950
L71880 71920
L71990 71920
L72050 71950
L72070 72000
L72070 72060
L71790 72120
" />
<path d="M72250 71920
L72470 71920
" />
<path d="M72330 71720
L72330 72230
L72360 72280
L72410 72310
L72470 72310
" />
<path d="M72670 72260
L72700 72280
L72670 72310
L72640 72280
L72670 72260
L72670 72310
" />
<path d="M72670 71950
L72700 71970
L72670 72000
L72640 71970
L72670 71950
L72670 72000
" />
<path d="M73820 71690
L73320 72450
" />
<path d="M74360 72260
L74330 72280
L74250 72310
L74190 72310
L74100 72280
L74050 72230
L74020 72170
L73990 72060
L73990 71970
L74020 71860
L74050 71810
L74100 71750
L74190 71720
L74250 71720
L74330 71750
L74360 71780
" />
<path d="M74580 72140
L74860 72140
" />
<path d="M74530 72310
L74720 71720
L74920 72310
" />
<path d="M75120 72310
L75120 71720
L75460 72310
L75460 71720
" />
<path d="M76190 72310
L76190 71720
" />
<path d="M76190 71950
L76250 71920
L76360 71920
L76420 71950
L76440 71970
L76470 72030
L76470 72200
L76440 72260
L76420 72280
L76360 72310
L76250 72310
L76190 72280
" />
<path d="M76970 71920
L76970 72310
" />
<path d="M76720 71920
L76720 72230
L76750 72280
L76800 72310
L76890 72310
L76950 72280
L76970 72260
" />
<path d="M77220 72280
L77280 72310
L77390 72310
L77450 72280
L77480 72230
L77480 72200
L77450 72140
L77390 72120
L77310 72120
L77250 72090
L77220 72030
L77220 72000
L77250 71950
L77310 71920
L77390 71920
L77450 71950
" />
<path d="M78100 71920
L78320 71920
" />
<path d="M78180 71720
L78180 72230
L78210 72280
L78260 72310
L78320 72310
" />
<path d="M78520 72310
L78520 71920
" />
<path d="M78520 72030
L78550 71970
L78580 71950
L78630 71920
L78690 71920
" />
<path d="M79140 72310
L79140 72000
L79120 71950
L79060 71920
L78950 71920
L78890 71950
" />
<path d="M79140 72280
L79090 72310
L78950 72310
L78890 72280
L78860 72230
L78860 72170
L78890 72120
L78950 72090
L79090 72090
L79140 72060
" />
<path d="M79420 71920
L79420 72310
" />
<path d="M79420 71970
L79450 71950
L79500 71920
L79590 71920
L79650 71950
L79670 72000
L79670 72310
" />
<path d="M79920 72280
L79980 72310
L80090 72310
L80150 72280
L80180 72230
L80180 72200
L80150 72140
L80090 72120
L80010 72120
L79950 72090
L79920 72030
L79920 72000
L79950 71950
L80010 71920
L80090 71920
L80150 71950
" />
<path d="M80680 72280
L80630 72310
L80510 72310
L80460 72280
L80430 72260
L80400 72200
L80400 72030
L80430 71970
L80460 71950
L80510 71920
L80630 71920
L80680 71950
" />
<path d="M81170 72280
L81110 72310
L81000 72310
L80940 72280
L80910 72230
L80910 72000
L80940 71950
L81000 71920
L81110 71920
L81170 71950
L81190 72000
L81190 72060
L80910 72120
" />
<path d="M81450 72310
L81450 71920
" />
<path d="M81450 71720
L81420 71750
L81450 71780
L81480 71750
L81450 71720
L81450 71780
" />
<path d="M81670 71920
L81810 72310
L81960 71920
" />
<path d="M82410 72280
L82350 72310
L82240 72310
L82180 72280
L82150 72230
L82150 72000
L82180 71950
L82240 71920
L82350 71920
L82410 71950
L82430 72000
L82430 72060
L82150 72120
" />
<path d="M82690 72310
L82690 71920
" />
<path d="M82690 72030
L82720 71970
L82750 71950
L82800 71920
L82860 71920
" />
<path d="M83480 71690
L82980 72450
" />
</g>
<g style="fill:#840000; fill-opacity:0.0; 
stroke:#840000; stroke-width:100; stroke-opacity:1; 
stroke-linecap:round; stroke-linejoin:round;">
</g>
<g style="fill:#840000; fill-opacity:0.0; 
stroke:#840000; stroke-width:120; stroke-opacity:1; 
stroke-linecap:round; stroke-linejoin:round;">
<path d="M70220 71130
L70220 70540
L70420 70960
L70610 70540
L70610 71130
" />
<path d="M70890 71130
L70890 70740
" />
<path d="M70890 70850
L70920 70790
L70950 70770
L71000 70740
L71060 70740
" />
<path d="M71260 71130
L71260 70540
" />
<path d="M71320 70910
L71490 71130
" />
<path d="M71490 70740
L71260 70960
" />
<path d="M72190 71130
L72190 70540
" />
<path d="M72470 70740
L72470 71130
" />
<path d="M72470 70790
L72500 70770
L72550 70740
L72640 70740
L72700 70770
L72720 70820
L72720 71130
" />
<path d="M73250 71130
L73250 70540
" />
<path d="M73250 71100
L73200 71130
L73080 71130
L73030 71100
L73000 71080
L72970 71020
L72970 70850
L73000 70790
L73030 70770
L73080 70740
L73200 70740
L73250 70770
" />
<path d="M73780 70740
L73780 71130
" />
<path d="M73530 70740
L73530 71050
L73560 71100
L73610 71130
L73700 71130
L73760 71100
L73780 71080
" />
<path d="M74030 71100
L74090 71130
L74200 71130
L74260 71100
L74290 71050
L74290 71020
L74260 70960
L74200 70940
L74120 70940
L74060 70910
L74030 70850
L74030 70820
L74060 70770
L74120 70740
L74200 70740
L74260 70770
" />
<path d="M74460 70740
L74680 70740
" />
<path d="M74540 70540
L74540 71050
L74570 71100
L74620 71130
L74680 71130
" />
<path d="M74880 71130
L74880 70740
" />
<path d="M74880 70850
L74910 70790
L74940 70770
L74990 70740
L75050 70740
" />
<path d="M75250 71130
L75250 70740
" />
<path d="M75250 70540
L75220 70570
L75250 70600
L75280 70570
L75250 70540
L75250 70600
" />
<path d="M75760 71100
L75700 71130
L75590 71130
L75530 71100
L75500 71050
L75500 70820
L75530 70770
L75590 70740
L75700 70740
L75760 70770
L75780 70820
L75780 70880
L75500 70940
" />
<path d="M76010 71100
L76070 71130
L76180 71130
L76240 71100
L76270 71050
L76270 71020
L76240 70960
L76180 70940
L76100 70940
L76040 70910
L76010 70850
L76010 70820
L76040 70770
L76100 70740
L76180 70740
L76240 70770
" />
</g>
<g style="fill:#840000; fill-opacity:0.0; 
stroke:#840000; stroke-width:100; stroke-opacity:1; 
stroke-linecap:round; stroke-linejoin:round;">
</g>
<g style="fill:#840000; fill-opacity:0.0; 
stroke:#840000; stroke-width:60; stroke-opacity:1; 
stroke-linecap:round; stroke-linejoin:round;">
<path d="M77560 75400
L77560 76580
" />
</g>
<g style="fill:#840000; fill-opacity:0.0; 
stroke:#840000; stroke-width:100; stroke-opacity:1; 
stroke-linecap:round; stroke-linejoin:round;">
</g>
<g style="fill:#840000; fill-opacity:0.0; 
stroke:#840000; stroke-width:60; stroke-opacity:1; 
stroke-linecap:round; stroke-linejoin:round;">
<path d="M102760 75400
L102760 77960
" />
</g>
<g style="fill:#840000; fill-opacity:0.0; 
stroke:#840000; stroke-width:0; stroke-opacity:1; 
stroke-linecap:round; stroke-linejoin:round;">
</g>
<g style="fill:#FFFFC2; fill-opacity:0.6; 
stroke:#FFFFC2; stroke-width:0; stroke-opacity:1; 
stroke-linecap:round; stroke-linejoin:round;">
<rect x="55500" y="38000" width="6000" height="5000" rx="0" />
</g>
<g style="fill:#840000; fill-opacity:0.0; 
stroke:#840000; stroke-width:100; stroke-opacity:1; 
stroke-linecap:round; stroke-linejoin:round;">
<rect x="55500" y="38000" width="6000" height="5000" rx="0" />
</g>
<g style="fill:#840000; fill-opacity:0.0; 
stroke:#840000; stroke-width:60; stroke-opacity:1; 
stroke-linecap:round; stroke-linejoin:round;">
<path d="M61500 39500
L63000 39500
" />
</g>
<g style="fill:#008484; fill-opacity:0.0; 
stroke:#008484; stroke-width:60; stroke-opacity:1; 
stroke-linecap:round; stroke-linejoin:round;">
<path d="M60060 39280
L60290 39280
" />
<path d="M60170 39680
L60170 39280
" />
<path d="M60380 39280
L60640 39680
" />
<path d="M60640 39280
L60380 39680
" />
<path d="M60800 39680
L60800 39280
L60890 39280
L60950 39300
L60990 39340
L61000 39380
L61020 39450
L61020 39510
L61000 39590
L60990 39620
L60950 39660
L60890 39680
L60800 39680
" />
</g>
<g style="fill:#840000; fill-opacity:0.0; 
stroke:#840000; stroke-width:60; stroke-opacity:1; 
stroke-linecap:round; stroke-linejoin:round;">
<path d="M62360 39380
L62140 39380
" />
<path d="M62250 39380
L62250 38980
L62210 39040
L62170 39080
L62140 39100
" />
<path d="M58500 43000
L58500 44500
" />
</g>
<g style="fill:#008484; fill-opacity:0.0; 
stroke:#008484; stroke-width:60; stroke-opacity:1; 
stroke-linecap:round; stroke-linejoin:round;">
<path d="M58280 42560
L58680 42430
L58280 42300
" />
<path d="M58660 42180
L58680 42130
L58680 42030
L58660 41990
L58640 41970
L58600 41960
L58570 41960
L58530 41970
L58510 41990
L58490 42030
L58470 42110
L58450 42150
L58430 42160
L58400 42180
L58360 42180
L58320 42160
L58300 42150
L58280 42110
L58280 42010
L58300 41960
" />
<path d="M58660 41800
L58680 41750
L58680 41650
L58660 41610
L58640 41590
L58600 41580
L58570 41580
L58530 41590
L58510 41610
L58490 41650
L58470 41730
L58450 41770
L58430 41780
L58400 41800
L58360 41800
L58320 41780
L58300 41770
L58280 41730
L58280 41630
L58300 41580
" />
</g>
<g style="fill:#840000; fill-opacity:0.0; 
stroke:#840000; stroke-width:60; stroke-opacity:1; 
stroke-linecap:round; stroke-linejoin:round;">
<path d="M58020 43860
L58000 43840
L57980 43810
L57980 43710
L58000 43670
L58020 43650
L58060 43640
L58100 43640
L58150 43650
L58380 43880
L58380 43640
" />
<path d="M58500 38000
L58500 36500
" />
</g>
<g style="fill:#008484; fill-opacity:0.0; 
stroke:#008484; stroke-width:60; stroke-opacity:1; 
stroke-linecap:round; stroke-linejoin:round;">
<path d="M58280 39500
L58680 39370
L58280 39240
" />
<path d="M58680 39100
L58280 39100
L58280 39010
L58300 38950
L58340 38910
L58380 38900
L58450 38880
L58510 38880
L58590 38900
L58620 38910
L58660 38950
L58680 39010
L58680 39100
" />
<path d="M58680 38700
L58280 38700
L58280 38610
L58300 38550
L58340 38510
L58380 38500
L58450 38480
L58510 38480
L58590 38500
L58620 38510
L58660 38550
L58680 38610
L58680 38700
" />
</g>
<g style="fill:#840000; fill-opacity:0.0; 
stroke:#840000; stroke-width:60; stroke-opacity:1; 
stroke-linecap:round; stroke-linejoin:round;">
<path d="M57980 37380
L57980 37140
L58130 37270
L58130 37210
L58150 37170
L58170 37150
L58210 37140
L58300 37140
L58340 37150
L58360 37170
L58380 37210
L58380 37330
L58360 37360
L58340 37380
" />
<path d="M61500 38500
L63000 38500
" />
</g>
<g style="fill:#008484; fill-opacity:0.0; 
stroke:#008484; stroke-width:60; stroke-opacity:1; 
stroke-linecap:round; stroke-linejoin:round;">
<path d="M60240 38680
L60110 38490
" />
<path d="M60020 38680
L60020 38280
L60170 38280
L60210 38300
L60220 38320
L60240 38360
L60240 38410
L60220 38450
L60210 38470
L60170 38490
L60020 38490
" />
<path d="M60380 38280
L60640 38680
" />
<path d="M60640 38280
L60380 38680
" />
<path d="M60800 38680
L60800 38280
L60890 38280
L60950 38300
L60990 38340
L61000 38380
L61020 38450
L61020 38510
L61000 38590
L60990 38620
L60950 38660
L60890 38680
L60800 38680
" />
</g>
<g style="fill:#840000; fill-opacity:0.0; 
stroke:#840000; stroke-width:60; stroke-opacity:1; 
stroke-linecap:round; stroke-linejoin:round;">
<path d="M62330 38110
L62330 38380
" />
<path d="M62230 37960
L62140 38250
L62380 38250
" />
<path d="M61500 41000
L63000 41000
" />
</g>
<g style="fill:#008484; fill-opacity:0.0; 
stroke:#008484; stroke-width:60; stroke-opacity:1; 
stroke-linecap:round; stroke-linejoin:round;">
<path d="M59980 40780
L60110 41180
L60240 40780
" />
<path d="M60380 41180
L60380 40910
" />
<path d="M60380 40990
L60390 40950
L60410 40930
L60450 40910
L60490 40910
" />
<path d="M60780 41160
L60740 41180
L60660 41180
L60630 41160
L60610 41120
L60610 40970
L60630 40930
L60660 40910
L60740 40910
L60780 40930
L60800 40970
L60800 41010
L60610 41050
" />
<path d="M60910 40910
L61060 40910
" />
<path d="M60970 41180
L60970 40840
L60980 40800
L61020 40780
L61060 40780
" />
</g>
<g style="fill:#840000; fill-opacity:0.0; 
stroke:#840000; stroke-width:60; stroke-opacity:1; 
stroke-linecap:round; stroke-linejoin:round;">
<path d="M62350 40480
L62160 40480
L62140 40670
L62160 40650
L62190 40630
L62290 40630
L62330 40650
L62350 40670
L62360 40710
L62360 40800
L62350 40840
L62330 40860
L62290 40880
L62190 40880
L62160 40860
L62140 40840
" />
<path d="M55500 41500
L54000 41500
" />
</g>
<g style="fill:#008484; fill-opacity:0.0; 
stroke:#008484; stroke-width:60; stroke-opacity:1; 
stroke-linecap:round; stroke-linejoin:round;">
<path d="M56220 41640
L56200 41660
L56150 41680
L56110 41680
L56050 41660
L56010 41620
L56000 41590
L55980 41510
L55980 41450
L56000 41380
L56010 41340
L56050 41300
L56110 41280
L56150 41280
L56200 41300
L56220 41320
" />
<path d="M56380 41570
L56570 41570
" />
<path d="M56340 41680
L56470 41280
L56600 41680
" />
<path d="M56740 41680
L56740 41280
L56960 41680
L56960 41280
" />
<path d="M57350 41680
L57160 41680
L57160 41280
" />
</g>
<g style="fill:#840000; fill-opacity:0.0; 
stroke:#840000; stroke-width:60; stroke-opacity:1; 
stroke-linecap:round; stroke-linejoin:round;">
<path d="M54830 40980
L54750 40980
L54710 41000
L54690 41020
L54660 41080
L54640 41150
L54640 41300
L54660 41340
L54670 41360
L54710 41380
L54790 41380
L54830 41360
L54850 41340
L54860 41300
L54860 41210
L54850 41170
L54830 41150
L54790 41130
L54710 41130
L54670 41150
L54660 41170
L54640 41210
" />
<path d="M55500 39500
L54000 39500
" />
</g>
<g style="fill:#008484; fill-opacity:0.0; 
stroke:#008484; stroke-width:60; stroke-opacity:1; 
stroke-linecap:round; stroke-linejoin:round;">
<path d="M56220 39640
L56200 39660
L56150 39680
L56110 39680
L56050 39660
L56010 39620
L56000 39590
L55980 39510
L55980 39450
L56000 39380
L56010 39340
L56050 39300
L56110 39280
L56150 39280
L56200 39300
L56220 39320
" />
<path d="M56380 39570
L56570 39570
" />
<path d="M56340 39680
L56470 39280
L56600 39680
" />
<path d="M56740 39680
L56740 39280
L56960 39680
L56960 39280
" />
<path d="M57160 39680
L57160 39280
" />
<path d="M57160 39470
L57380 39470
" />
<path d="M57380 39680
L57380 39280
" />
</g>
<g style="fill:#840000; fill-opacity:0.0; 
stroke:#840000; stroke-width:60; stroke-opacity:1; 
stroke-linecap:round; stroke-linejoin:round;">
<path d="M54620 38980
L54880 38980
L54710 39380
" />
<path d="M61500 42500
L63000 42500
" />
</g>
<g style="fill:#008484; fill-opacity:0.0; 
stroke:#008484; stroke-width:60; stroke-opacity:1; 
stroke-linecap:round; stroke-linejoin:round;">
<path d="M60700 42680
L60570 42490
" />
<path d="M60480 42680
L60480 42280
L60630 42280
L60670 42300
L60680 42320
L60700 42360
L60700 42410
L60680 42450
L60670 42470
L60630 42490
L60480 42490
" />
<path d="M60860 42660
L60890 42680
L60970 42680
L61010 42660
L61030 42620
L61030 42600
L61010 42570
L60970 42550
L60910 42550
L60880 42530
L60860 42490
L60860 42470
L60880 42430
L60910 42410
L60970 42410
L61010 42430
" />
</g>
<g style="fill:#840000; fill-opacity:0.0; 
stroke:#840000; stroke-width:60; stroke-opacity:1; 
stroke-linecap:round; stroke-linejoin:round;">
<path d="M62210 42150
L62170 42130
L62160 42110
L62140 42080
L62140 42060
L62160 42020
L62170 42000
L62210 41980
L62290 41980
L62330 42000
L62350 42020
L62360 42060
L62360 42080
L62350 42110
L62330 42130
L62290 42150
L62210 42150
L62170 42170
L62160 42190
L62140 42230
L62140 42300
L62160 42340
L62170 42360
L62210 42380
L62290 42380
L62330 42360
L62350 42340
L62360 42300
L62360 42230
L62350 42190
L62330 42170
L62290 42150
" />
</g>
<g style="fill:#008484; fill-opacity:0.0; 
stroke:#008484; stroke-width:60; stroke-opacity:1; 
stroke-linecap:round; stroke-linejoin:round;">
<path d="M60320 37250
L60320 37570
L60330 37610
L60350 37630
L60390 37650
L60470 37650
L60510 37630
L60520 37610
L60540 37570
L60540 37250
" />
<path d="M60910 37380
L60910 37650
" />
<path d="M60810 37230
L60720 37520
L60960 37520
" />
<path d="M61190 37250
L61230 37250
L61270 37270
L61290 37290
L61310 37330
L61320 37400
L61320 37500
L61310 37570
L61290 37610
L61270 37630
L61230 37650
L61190 37650
L61150 37630
L61130 37610
L61120 37570
L61100 37500
L61100 37400
L61120 37330
L61130 37290
L61150 37270
L61190 37250
" />
<path d="M61700 37650
L61480 37650
" />
<path d="M61590 37650
L61590 37250
L61550 37310
L61510 37350
L61480 37370
" />
<path d="M54150 43630
L54200 43650
L54300 43650
L54340 43630
L54360 43610
L54370 43570
L54370 43540
L54360 43500
L54340 43480
L54300 43460
L54220 43440
L54180 43420
L54170 43400
L54150 43370
L54150 43330
L54170 43290
L54180 43270
L54220 43250
L54320 43250
L54370 43270
" />
<path d="M54550 43650
L54550 43250
L54770 43650
L54770 43250
" />
<path d="M55140 43250
L55060 43250
L55020 43270
L55000 43290
L54970 43350
L54950 43420
L54950 43570
L54970 43610
L54980 43630
L55020 43650
L55100 43650
L55140 43630
L55160 43610
L55170 43570
L55170 43480
L55160 43440
L55140 43420
L55100 43400
L55020 43400
L54980 43420
L54970 43440
L54950 43480
" />
<path d="M55540 43250
L55350 43250
L55330 43440
L55350 43420
L55380 43400
L55480 43400
L55520 43420
L55540 43440
L55550 43480
L55550 43570
L55540 43610
L55520 43630
L55480 43650
L55380 43650
L55350 43630
L55330 43610
" />
<path d="M55730 43650
L55730 43250
" />
<path d="M55730 43440
L55950 43440
" />
<path d="M55950 43650
L55950 43250
" />
<path d="M56090 43250
L56220 43650
L56350 43250
" />
<path d="M56490 43650
L56490 43250
L56580 43250
L56640 43270
L56680 43310
L56690 43350
L56710 43420
L56710 43480
L56690 43560
L56680 43590
L56640 43630
L56580 43650
L56490 43650
" />
<path d="M56870 43290
L56890 43270
L56920 43250
L57020 43250
L57060 43270
L57080 43290
L57090 43330
L57090 43370
L57080 43420
L56850 43650
L57090 43650
" />
<path d="M57230 43250
L57470 43250
L57340 43400
L57400 43400
L57440 43420
L57460 43440
L57470 43480
L57470 43570
L57460 43610
L57440 43630
L57400 43650
L57280 43650
L57250 43630
L57230 43610
" />
<path d="M57630 43290
L57650 43270
L57680 43250
L57780 43250
L57820 43270
L57840 43290
L57850 43330
L57850 43370
L57840 43420
L57610 43650
L57850 43650
" />
</g>
<g style="fill:#008484; fill-opacity:0.0; 
stroke:#008484; stroke-width:0; stroke-opacity:1; 
stroke-linecap:round; stroke-linejoin:round;">
</g>
<g style="fill:#840000; fill-opacity:0.0; 
stroke:#840000; stroke-width:60; stroke-opacity:1; 
stroke-linecap:round; stroke-linejoin:round;">
<polyline fill="none;"
points="58000,44500
58500,45000
59000,44500
58000,44500
" /> 
</g>
<g style="fill:#840000; fill-opacity:0.0; 
stroke:#840000; stroke-width:0; stroke-opacity:1; 
stroke-linecap:round; stroke-linejoin:round;">
</g>
<g style="fill:#840000; fill-opacity:0.0; 
stroke:#840000; stroke-width:60; stroke-opacity:1; 
stroke-linecap:round; stroke-linejoin:round;">
<circle cx="58500" cy="35750" r="250" /> 
<polyline fill="none;"
points="58500,36500
58500,36000
" /> 
</g>
<g style="fill:#008484; fill-opacity:0.0; 
stroke:#008484; stroke-width:50; stroke-opacity:1; 
stroke-linecap:round; stroke-linejoin:round;">
<path d="M58100 35320
L58200 35620
L58300 35320
" />
<path d="M58570 35590
L58560 35600
L58520 35620
L58490 35620
L58440 35600
L58420 35570
L58400 35540
L58390 35490
L58390 35440
L58400 35390
L58420 35360
L58440 35330
L58490 35320
L58520 35320
L58560 35330
L58570 35340
" />
<path d="M58870 35590
L58860 35600
L58820 35620
L58790 35620
L58740 35600
L58720 35570
L58700 35540
L58690 35490
L58690 35440
L58700 35390
L58720 35360
L58740 35330
L58790 35320
L58820 35320
L58860 35330
L58870 35340
" />
</g>
<g style="fill:#008484; fill-opacity:0.0; 
stroke:#008484; stroke-width:0; stroke-opacity:1; 
stroke-linecap:round; stroke-linejoin:round;">
</g>
<g style="fill:#840000; fill-opacity:0.0; 
stroke:#840000; stroke-width:200; stroke-opacity:1; 
stroke-linecap:round; stroke-linejoin:round;">
<polyline fill="none;"
points="60700,34300
62300,34300
" /> 
<polyline fill="none;"
points="60700,33700
62300,33700
" /> 
</g>
<g style="fill:#840000; fill-opacity:0.0; 
stroke:#840000; stroke-width:60; stroke-opacity:1; 
stroke-linecap:round; stroke-linejoin:round;">
<path d="M61500 33700
L61500 32000
" />
</g>
<g style="fill:#008484; fill-opacity:0.0; 
stroke:#008484; stroke-width:60; stroke-opacity:1; 
stroke-linecap:round; stroke-linejoin:round;">
<path d="M61500 34300
L61500 36000
" />
</g>
<g style="fill:#008484; fill-opacity:0.0; 
stroke:#008484; stroke-width:60; stroke-opacity:1; 
stroke-linecap:round; stroke-linejoin:round;">
<path d="M61820 33110
L61800 33130
L61750 33150
L61710 33150
L61650 33130
L61610 33090
L61600 33060
L61580 32980
L61580 32920
L61600 32850
L61610 32810
L61650 32770
L61710 32750
L61750 32750
L61800 32770
L61820 32790
" />
<path d="M62170 32880
L62170 33150
" />
<path d="M62070 32730
L61980 33020
L62220 33020
" />
<path d="M62450 32750
L62490 32750
L62530 32770
L62550 32790
L62570 32830
L62580 32900
L62580 33000
L62570 33070
L62550 33110
L62530 33130
L62490 33150
L62450 33150
L62410 33130
L62390 33110
L62380 33070
L62360 33000
L62360 32900
L62380 32830
L62390 32790
L62410 32770
L62450 32750
" />
<path d="M62960 33150
L62740 33150
" />
<path d="M62850 33150
L62850 32750
L62810 32810
L62770 32850
L62740 32870
" />
<path d="M61640 34640
L61660 34620
L61690 34600
L61790 34600
L61830 34620
L61850 34640
L61860 34680
L61860 34720
L61850 34770
L61620 35000
L61860 35000
" />
<path d="M62040 34960
L62050 34980
L62040 35000
L62020 34980
L62040 34960
L62040 35000
" />
<path d="M62210 34640
L62230 34620
L62260 34600
L62360 34600
L62400 34620
L62420 34640
L62430 34680
L62430 34720
L62420 34770
L62190 35000
L62430 35000
" />
<path d="M62780 34730
L62780 35000
" />
<path d="M62610 34730
L62610 34940
L62620 34980
L62660 35000
L62720 35000
L62760 34980
L62780 34960
" />
</g>
<g style="fill:#008484; fill-opacity:0.0; 
stroke:#008484; stroke-width:0; stroke-opacity:1; 
stroke-linecap:round; stroke-linejoin:round;">
</g>
<g style="fill:#840000; fill-opacity:0.0; 
stroke:#840000; stroke-width:60; stroke-opacity:1; 
stroke-linecap:round; stroke-linejoin:round;">
<circle cx="61500" cy="31250" r="250" /> 
<polyline fill="none;"
points="61500,32000
61500,31500
" /> 
</g>
<g style="fill:#008484; fill-opacity:0.0; 
stroke:#008484; stroke-width:50; stroke-opacity:1; 
stroke-linecap:round; stroke-linejoin:round;">
<path d="M61100 30820
L61200 31120
L61300 30820
" />
<path d="M61570 31090
L61560 31100
L61520 31120
L61490 31120
L61440 31100
L61420 31070
L61400 31040
L61390 30990
L61390 30940
L61400 30890
L61420 30860
L61440 30830
L61490 30820
L61520 30820
L61560 30830
L61570 30840
" />
<path d="M61870 31090
L61860 31100
L61820 31120
L61790 31120
L61740 31100
L61720 31070
L61700 31040
L61690 30990
L61690 30940
L61700 30890
L61720 30860
L61740 30830
L61790 30820
L61820 30820
L61860 30830
L61870 30840
" />
</g>
<g style="fill:#008484; fill-opacity:0.0; 
stroke:#008484; stroke-width:0; stroke-opacity:1; 
stroke-linecap:round; stroke-linejoin:round;">
</g>
<g style="fill:#840000; fill-opacity:0.0; 
stroke:#840000; stroke-width:60; stroke-opacity:1; 
stroke-linecap:round; stroke-linejoin:round;">
<polyline fill="none;"
points="61000,36000
61500,36500
62000,36000
61000,36000
" /> 
</g>
<g style="fill:#840000; fill-opacity:0.0; 
stroke:#840000; stroke-width:0; stroke-opacity:1; 
stroke-linecap:round; stroke-linejoin:round;">
</g>
<g style="fill:#0000C2; fill-opacity:0.0; 
stroke:#0000C2; stroke-width:0; stroke-opacity:1; 
stroke-linecap:round; stroke-linejoin:round;">
</g>
<g style="fill:#0000C2; fill-opacity:0.0; 
stroke:#0000C2; stroke-width:100; stroke-opacity:1; 
stroke-linecap:round; stroke-linejoin:round;">
<rect x="81890" y="41400" width="13230" height="13200" rx="0" />
</g>
<g style="fill:#0000C2; fill-opacity:0.0; 
stroke:#0000C2; stroke-width:60; stroke-opacity:1; 
stroke-linecap:round; stroke-linejoin:round;">
</g>
<g style="fill:#848400; fill-opacity:0.0; 
stroke:#848400; stroke-width:60; stroke-opacity:1; 
stroke-linecap:round; stroke-linejoin:round;">
<path d="M64250 38710
L64220 38740
L64130 38770
L64070 38770
L63990 38740
L63930 38690
L63900 38630
L63870 38510
L63870 38430
L63900 38310
L63930 38260
L63990 38200
L64070 38170
L64130 38170
L64220 38200
L64250 38230
" />
<path d="M64470 38600
L64760 38600
" />
<path d="M64420 38770
L64620 38170
L64820 38770
" />
<path d="M65010 38770
L65010 38170
L65360 38770
L65360 38170
" />
<path d="M65500 38830
L65960 38830
" />
<path d="M66450 38770
L66250 38490
" />
<path d="M66100 38770
L66100 38170
L66330 38170
L66390 38200
L66420 38230
L66450 38290
L66450 38370
L66420 38430
L66390 38460
L66330 38490
L66100 38490
" />
<path d="M66650 38170
L67050 38770
" />
<path d="M67050 38170
L66650 38770
" />
</g>
<g style="fill:#848400; fill-opacity:0.0; 
stroke:#848400; stroke-width:100; stroke-opacity:1; 
stroke-linecap:round; stroke-linejoin:round;">
<polyline fill="none;"
points="63600,38500
63300,38200
63000,38200
63000,38800
63300,38800
63600,38500
" /> 
</g>
<g style="fill:#848400; fill-opacity:0.0; 
stroke:#848400; stroke-width:60; stroke-opacity:1; 
stroke-linecap:round; stroke-linejoin:round;">
<path d="M64250 39710
L64220 39740
L64130 39770
L64070 39770
L63990 39740
L63930 39690
L63900 39630
L63870 39510
L63870 39430
L63900 39310
L63930 39260
L63990 39200
L64070 39170
L64130 39170
L64220 39200
L64250 39230
" />
<path d="M64470 39600
L64760 39600
" />
<path d="M64420 39770
L64620 39170
L64820 39770
" />
<path d="M65010 39770
L65010 39170
L65360 39770
L65360 39170
" />
<path d="M65500 39830
L65960 39830
" />
<path d="M66020 39170
L66360 39170
" />
<path d="M66190 39770
L66190 39170
" />
<path d="M66510 39170
L66910 39770
" />
<path d="M66910 39170
L66510 39770
" />
</g>
<g style="fill:#848400; fill-opacity:0.0; 
stroke:#848400; stroke-width:100; stroke-opacity:1; 
stroke-linecap:round; stroke-linejoin:round;">
<polyline fill="none;"
points="63000,39500
63300,39800
63600,39800
63600,39200
63300,39200
63000,39500
" /> 
</g>
<g style="fill:#848400; fill-opacity:0.0; 
stroke:#848400; stroke-width:0; stroke-opacity:1; 
stroke-linecap:round; stroke-linejoin:round;">
</g>
<g style="fill:#840000; fill-opacity:0.0; 
stroke:#840000; stroke-width:120; stroke-opacity:1; 
stroke-linecap:round; stroke-linejoin:round;">
<rect x="48600" y="39000" width="800" height="3000" rx="0" />
</g>
<g style="fill:#840000; fill-opacity:0.0; 
stroke:#840000; stroke-width:60; stroke-opacity:1; 
stroke-linecap:round; stroke-linejoin:round;">
<path d="M49000 39000
L49000 38000
" />
</g>
<g style="fill:#008484; fill-opacity:0.0; 
stroke:#008484; stroke-width:60; stroke-opacity:1; 
stroke-linecap:round; stroke-linejoin:round;">
<path d="M49000 42000
L49000 43000
" />
</g>
<g style="fill:#008484; fill-opacity:0.0; 
stroke:#008484; stroke-width:60; stroke-opacity:1; 
stroke-linecap:round; stroke-linejoin:round;">
<path d="M49950 40950
L49760 41080
" />
<path d="M49950 41170
L49550 41170
L49550 41020
L49570 40980
L49590 40970
L49630 40950
L49680 40950
L49720 40970
L49740 40980
L49760 41020
L49760 41170
" />
<path d="M49680 40600
L49950 40600
" />
<path d="M49530 40700
L49820 40790
L49820 40550
" />
<path d="M49550 40320
L49550 40280
L49570 40240
L49590 40220
L49630 40200
L49700 40190
L49800 40190
L49870 40200
L49910 40220
L49930 40240
L49950 40280
L49950 40320
L49930 40360
L49910 40380
L49870 40390
L49800 40410
L49700 40410
L49630 40390
L49590 40380
L49570 40360
L49550 40320
" />
<path d="M49950 39810
L49950 40030
" />
<path d="M49950 39920
L49550 39920
L49610 39960
L49650 40000
L49670 40030
" />
<path d="M49220 40680
L48820 40680
L49220 40460
L48820 40460
" />
<path d="M49220 40260
L48820 40260
" />
</g>
<g style="fill:#848400; fill-opacity:0.0; 
stroke:#848400; stroke-width:60; stroke-opacity:1; 
stroke-linecap:round; stroke-linejoin:round;">
<path d="M43860 38210
L43830 38240
L43740 38270
L43680 38270
L43600 38240
L43540 38190
L43510 38130
L43480 38010
L43480 37930
L43510 37810
L43540 37760
L43600 37700
L43680 37670
L43740 37670
L43830 37700
L43860 37730
" />
<path d="M44080 38100
L44370 38100
" />
<path d="M44030 38270
L44230 37670
L44430 38270
" />
<path d="M44620 38270
L44620 37670
L44970 38270
L44970 37670
" />
<path d="M45250 38270
L45250 37670
" />
<path d="M45250 37960
L45600 37960
" />
<path d="M45600 38270
L45600 37670
" />
</g>
<g style="fill:#848400; fill-opacity:0.0; 
stroke:#848400; stroke-width:100; stroke-opacity:1; 
stroke-linecap:round; stroke-linejoin:round;">
<polyline fill="none;"
points="46500,38000
46200,37700
45900,37700
45900,38300
46200,38300
46500,38000
" /> 
</g>
<g style="fill:#848400; fill-opacity:0.0; 
stroke:#848400; stroke-width:60; stroke-opacity:1; 
stroke-linecap:round; stroke-linejoin:round;">
<path d="M44000 43210
L43970 43240
L43880 43270
L43820 43270
L43740 43240
L43680 43190
L43650 43130
L43620 43010
L43620 42930
L43650 42810
L43680 42760
L43740 42700
L43820 42670
L43880 42670
L43970 42700
L44000 42730
" />
<path d="M44220 43100
L44510 43100
" />
<path d="M44170 43270
L44370 42670
L44570 43270
" />
<path d="M44760 43270
L44760 42670
L45110 43270
L45110 42670
" />
<path d="M45680 43270
L45390 43270
L45390 42670
" />
</g>
<g style="fill:#848400; fill-opacity:0.0; 
stroke:#848400; stroke-width:100; stroke-opacity:1; 
stroke-linecap:round; stroke-linejoin:round;">
<polyline fill="none;"
points="46500,43000
46200,42700
45900,42700
45900,43300
46200,43300
46500,43000
" /> 
</g>
<g style="fill:#848400; fill-opacity:0.0; 
stroke:#848400; stroke-width:60; stroke-opacity:1; 
stroke-linecap:round; stroke-linejoin:round;">
</g>
<g style="fill:#008400; fill-opacity:0.0; 
stroke:#008400; stroke-width:60; stroke-opacity:1; 
stroke-linecap:round; stroke-linejoin:round;">
<path d="M46500 43000
L51500 43000
" />
<path d="M51500 43000
L51500 41500
" />
<path d="M51500 41500
L54000 41500
" />
</g>
<g style="fill:#008400; fill-opacity:0.0; 
stroke:#008400; stroke-width:0; stroke-opacity:1; 
stroke-linecap:round; stroke-linejoin:round;">
</g>
<g style="fill:#008400; fill-opacity:1.0; 
stroke:#008400; stroke-width:100; stroke-opacity:1; 
stroke-linecap:round; stroke-linejoin:round;">
<circle cx="49000" cy="43000" r="200" /> 
</g>
<g style="fill:#008400; fill-opacity:1.0; 
stroke:#008400; stroke-width:60; stroke-opacity:1; 
stroke-linecap:round; stroke-linejoin:round;">
</g>
<g style="fill:#008400; fill-opacity:0.0; 
stroke:#008400; stroke-width:60; stroke-opacity:1; 
stroke-linecap:round; stroke-linejoin:round;">
<path d="M54000 39500
L51500 39500
" />
<path d="M51500 39500
L51500 38000
" />
<path d="M51500 38000
L46500 38000
" />
</g>
<g style="fill:#008400; fill-opacity:0.0; 
stroke:#008400; stroke-width:0; stroke-opacity:1; 
stroke-linecap:round; stroke-linejoin:round;">
</g>
<g style="fill:#008400; fill-opacity:1.0; 
stroke:#008400; stroke-width:100; stroke-opacity:1; 
stroke-linecap:round; stroke-linejoin:round;">
<circle cx="49000" cy="38000" r="200" /> 
</g>
<g style="fill:#008400; fill-opacity:1.0; 
stroke:#008400; stroke-width:60; stroke-opacity:1; 
stroke-linecap:round; stroke-linejoin:round;">
</g>
<g style="fill:#000084; fill-opacity:0.0; 
stroke:#000084; stroke-width:60; stroke-opacity:1; 
stroke-linecap:round; stroke-linejoin:round;">
<path d="M62760 40760
L63240 41240
" />
<path d="M63240 40760
L62760 41240
" />
</g>
<g style="fill:#000084; fill-opacity:0.0; 
stroke:#000084; stroke-width:0; stroke-opacity:1; 
stroke-linecap:round; stroke-linejoin:round;">
</g>
<g style="fill:#840000; fill-opacity:0.0; 
stroke:#840000; stroke-width:120; stroke-opacity:1; 
stroke-linecap:round; stroke-linejoin:round;">
<rect x="63600" y="44500" width="800" height="3000" rx="0" />
</g>
<g style="fill:#840000; fill-opacity:0.0; 
stroke:#840000; stroke-width:60; stroke-opacity:1; 
stroke-linecap:round; stroke-linejoin:round;">
<path d="M64000 44500
L64000 43500
" />
</g>
<g style="fill:#008484; fill-opacity:0.0; 
stroke:#008484; stroke-width:60; stroke-opacity:1; 
stroke-linecap:round; stroke-linejoin:round;">
<path d="M64000 47500
L64000 48500
" />
</g>
<g style="fill:#008484; fill-opacity:0.0; 
stroke:#008484; stroke-width:60; stroke-opacity:1; 
stroke-linecap:round; stroke-linejoin:round;">
<path d="M65050 46150
L64920 45960
" />
<path d="M64830 46150
L64830 45750
L64980 45750
L65020 45770
L65030 45790
L65050 45830
L65050 45880
L65030 45920
L65020 45940
L64980 45960
L64830 45960
" />
<path d="M65400 45880
L65400 46150
" />
<path d="M65300 45730
L65210 46020
L65450 46020
" />
<path d="M65680 45750
L65720 45750
L65760 45770
L65780 45790
L65800 45830
L65810 45900
L65810 46000
L65800 46070
L65780 46110
L65760 46130
L65720 46150
L65680 46150
L65640 46130
L65620 46110
L65610 46070
L65590 46000
L65590 45900
L65610 45830
L65620 45790
L65640 45770
L65680 45750
" />
<path d="M65970 45790
L65990 45770
L66020 45750
L66120 45750
L66160 45770
L66180 45790
L66190 45830
L66190 45870
L66180 45920
L65950 46150
L66190 46150
" />
<path d="M64220 46230
L64220 46450
" />
<path d="M64220 46340
L63820 46340
L63880 46380
L63920 46420
L63940 46450
" />
<path d="M63820 45980
L63820 45940
L63840 45900
L63860 45880
L63900 45860
L63970 45850
L64070 45850
L64140 45860
L64180 45880
L64200 45900
L64220 45940
L64220 45980
L64200 46020
L64180 46040
L64140 46050
L64070 46070
L63970 46070
L63900 46050
L63860 46040
L63840 46020
L63820 45980
" />
<path d="M64220 45670
L63820 45670
" />
<path d="M64070 45640
L64220 45520
" />
<path d="M63950 45520
L64110 45670
" />
</g>
<g style="fill:#008400; fill-opacity:0.0; 
stroke:#008400; stroke-width:60; stroke-opacity:1; 
stroke-linecap:round; stroke-linejoin:round;">
<path d="M64000 43500
L64000 42500
" />
<path d="M64000 42500
L63000 42500
" />
</g>
<g style="fill:#008400; fill-opacity:0.0; 
stroke:#008400; stroke-width:0; stroke-opacity:1; 
stroke-linecap:round; stroke-linejoin:round;">
</g>
<g style="fill:#840000; fill-opacity:0.0; 
stroke:#840000; stroke-width:60; stroke-opacity:1; 
stroke-linecap:round; stroke-linejoin:round;">
<polyline fill="none;"
points="63500,48500
64000,49000
64500,48500
63500,48500
" /> 
</g>
<g style="fill:#0000C2; fill-opacity:0.0; 
stroke:#0000C2; stroke-width:60; stroke-opacity:1; 
stroke-linecap:round; stroke-linejoin:round;">
<path d="M64600 46920
L64600 46520
L64750 46520
L64790 46540
L64800 46560
L64820 46600
L64820 46650
L64800 46690
L64790 46710
L64750 46730
L64600 46730
" />
<path d="M65000 46920
L65000 46650
" />
<path d="M65000 46730
L65010 46690
L65030 46670
L65070 46650
L65110 46650
" />
<path d="M65300 46920
L65260 46900
L65250 46880
L65230 46840
L65230 46730
L65250 46690
L65260 46670
L65300 46650
L65360 46650
L65400 46670
L65420 46690
L65440 46730
L65440 46840
L65420 46880
L65400 46900
L65360 46920
L65300 46920
" />
<path d="M65610 46650
L65610 47050
" />
<path d="M65610 46670
L65640 46650
L65720 46650
L65760 46670
L65780 46690
L65800 46730
L65800 46840
L65780 46880
L65760 46900
L65720 46920
L65640 46920
L65610 46900
" />
<path d="M66140 46920
L66140 46710
L66120 46670
L66080 46650
L66000 46650
L65970 46670
" />
<path d="M66140 46900
L66100 46920
L66000 46920
L65970 46900
L65950 46860
L65950 46830
L65970 46790
L66000 46770
L66100 46770
L66140 46750
" />
<path d="M66500 46650
L66500 46980
L66480 47020
L66460 47040
L66420 47050
L66360 47050
L66330 47040
" />
<path d="M66500 46900
L66460 46920
L66380 46920
L66340 46900
L66330 46880
L66310 46840
L66310 46730
L66330 46690
L66340 46670
L66380 46650
L66460 46650
L66500 46670
" />
<path d="M66860 46920
L66860 46710
L66840 46670
L66800 46650
L66720 46650
L66690 46670
" />
<path d="M66860 46900
L66820 46920
L66720 46920
L66690 46900
L66670 46860
L66670 46830
L66690 46790
L66720 46770
L66820 46770
L66860 46750
" />
<path d="M66990 46650
L67140 46650
" />
<path d="M67050 46520
L67050 46860
L67060 46900
L67100 46920
L67140 46920
" />
<path d="M67280 46920
L67280 46650
" />
<path d="M67280 46520
L67260 46540
L67280 46560
L67290 46540
L67280 46520
L67280 46560
" />
<path d="M67520 46920
L67480 46900
L67470 46880
L67450 46840
L67450 46730
L67470 46690
L67480 46670
L67520 46650
L67580 46650
L67620 46670
L67640 46690
L67660 46730
L67660 46840
L67640 46880
L67620 46900
L67580 46920
L67520 46920
" />
<path d="M67830 46650
L67830 46920
" />
<path d="M67830 46690
L67840 46670
L67880 46650
L67940 46650
L67980 46670
L68000 46710
L68000 46920
" />
<path d="M68660 46920
L68660 46520
" />
<path d="M68660 46900
L68620 46920
L68540 46920
L68500 46900
L68490 46880
L68470 46840
L68470 46730
L68490 46690
L68500 46670
L68540 46650
L68620 46650
L68660 46670
" />
<path d="M69000 46900
L68960 46920
L68880 46920
L68850 46900
L68830 46860
L68830 46710
L68850 46670
L68880 46650
L68960 46650
L69000 46670
L69020 46710
L69020 46750
L68830 46790
" />
<path d="M69240 46920
L69200 46900
L69190 46860
L69190 46520
" />
<path d="M69570 46920
L69570 46710
L69550 46670
L69510 46650
L69430 46650
L69400 46670
" />
<path d="M69570 46900
L69530 46920
L69430 46920
L69400 46900
L69380 46860
L69380 46830
L69400 46790
L69430 46770
L69530 46770
L69570 46750
" />
<path d="M69720 46650
L69810 46920
" />
<path d="M69910 46650
L69810 46920
L69770 47020
L69760 47040
L69720 47050
" />
<path d="M64600 47480
L64600 47210
" />
<path d="M64600 47290
L64610 47250
L64630 47230
L64670 47210
L64710 47210
" />
<path d="M65000 47460
L64960 47480
L64880 47480
L64850 47460
L64830 47420
L64830 47270
L64850 47230
L64880 47210
L64960 47210
L65000 47230
L65020 47270
L65020 47310
L64830 47350
" />
<path d="M65170 47460
L65200 47480
L65280 47480
L65320 47460
L65340 47420
L65340 47400
L65320 47370
L65280 47350
L65220 47350
L65190 47330
L65170 47290
L65170 47270
L65190 47230
L65220 47210
L65280 47210
L65320 47230
" />
<path d="M65510 47480
L65510 47210
" />
<path d="M65510 47080
L65490 47100
L65510 47120
L65520 47100
L65510 47080
L65510 47120
" />
<path d="M65680 47460
L65710 47480
L65790 47480
L65830 47460
L65850 47420
L65850 47400
L65830 47370
L65790 47350
L65730 47350
L65700 47330
L65680 47290
L65680 47270
L65700 47230
L65730 47210
L65790 47210
L65830 47230
" />
<path d="M65960 47210
L66110 47210
" />
<path d="M66020 47080
L66020 47420
L66030 47460
L66070 47480
L66110 47480
" />
<path d="M66300 47480
L66260 47460
L66250 47440
L66230 47400
L66230 47290
L66250 47250
L66260 47230
L66300 47210
L66360 47210
L66400 47230
L66420 47250
L66440 47290
L66440 47400
L66420 47440
L66400 47460
L66360 47480
L66300 47480
" />
<path d="M66610 47480
L66610 47210
" />
<path d="M66610 47290
L66620 47250
L66640 47230
L66680 47210
L66720 47210
" />
</g> 
</svg>
