<?xml version="1.0" standalone="no"?>
 <!DOCTYPE svg PUBLIC "-//W3C//DTD SVG 1.1//EN" 
 "http://www.w3.org/Graphics/SVG/1.1/DTD/svg11.dtd"> 
<svg xmlns="http://www.w3.org/2000/svg" version="1.1" 
    width="29.7002cm" height="21.0007cm" viewBox="0 0 116930 82680 ">
<title>SVG Picture created as hall_filters-Filters.svg date 2015/05/20 12:11:11 </title>
  <desc>Picture generated by Eeschema-SVG </desc>
<g style="fill:#000000; fill-opacity:1;stroke:#000000; stroke-opacity:1;
stroke-linecap:round; stroke-linejoin:round; "
 transform="translate(0 0) scale(1 1)">
</g>
<g style="fill:#840000; fill-opacity:0.0; 
stroke:#840000; stroke-width:100; stroke-opacity:1; 
stroke-linecap:round; stroke-linejoin:round;">
</g>
<g style="fill:#840000; fill-opacity:0.0; 
stroke:#840000; stroke-width:60; stroke-opacity:1; 
stroke-linecap:round; stroke-linejoin:round;">
<rect x="69690" y="65360" width="42520" height="12600" rx="0" />
</g>
<g style="fill:#840000; fill-opacity:0.0; 
stroke:#840000; stroke-width:100; stroke-opacity:1; 
stroke-linecap:round; stroke-linejoin:round;">
</g>
<g style="fill:#840000; fill-opacity:0.0; 
stroke:#840000; stroke-width:60; stroke-opacity:1; 
stroke-linecap:round; stroke-linejoin:round;">
<rect x="3940" y="3940" width="109050" height="74800" rx="0" />
</g>
<g style="fill:#840000; fill-opacity:0.0; 
stroke:#840000; stroke-width:100; stroke-opacity:1; 
stroke-linecap:round; stroke-linejoin:round;">
</g>
<g style="fill:#840000; fill-opacity:0.0; 
stroke:#840000; stroke-width:60; stroke-opacity:1; 
stroke-linecap:round; stroke-linejoin:round;">
<rect x="4720" y="4720" width="107490" height="73240" rx="0" />
</g>
<g style="fill:#840000; fill-opacity:0.0; 
stroke:#840000; stroke-width:100; stroke-opacity:1; 
stroke-linecap:round; stroke-linejoin:round;">
</g>
<g style="fill:#840000; fill-opacity:0.0; 
stroke:#840000; stroke-width:60; stroke-opacity:1; 
stroke-linecap:round; stroke-linejoin:round;">
<path d="M23620 4720
L23620 3940
" />
</g>
<g style="fill:#840000; fill-opacity:0.0; 
stroke:#840000; stroke-width:100; stroke-opacity:1; 
stroke-linecap:round; stroke-linejoin:round;">
</g>
<g style="fill:#840000; fill-opacity:0.0; 
stroke:#840000; stroke-width:60; stroke-opacity:1; 
stroke-linecap:round; stroke-linejoin:round;">
<path d="M43310 4720
L43310 3940
" />
</g>
<g style="fill:#840000; fill-opacity:0.0; 
stroke:#840000; stroke-width:100; stroke-opacity:1; 
stroke-linecap:round; stroke-linejoin:round;">
</g>
<g style="fill:#840000; fill-opacity:0.0; 
stroke:#840000; stroke-width:60; stroke-opacity:1; 
stroke-linecap:round; stroke-linejoin:round;">
<path d="M62990 4720
L62990 3940
" />
</g>
<g style="fill:#840000; fill-opacity:0.0; 
stroke:#840000; stroke-width:100; stroke-opacity:1; 
stroke-linecap:round; stroke-linejoin:round;">
</g>
<g style="fill:#840000; fill-opacity:0.0; 
stroke:#840000; stroke-width:60; stroke-opacity:1; 
stroke-linecap:round; stroke-linejoin:round;">
<path d="M82680 4720
L82680 3940
" />
</g>
<g style="fill:#840000; fill-opacity:0.0; 
stroke:#840000; stroke-width:100; stroke-opacity:1; 
stroke-linecap:round; stroke-linejoin:round;">
</g>
<g style="fill:#840000; fill-opacity:0.0; 
stroke:#840000; stroke-width:60; stroke-opacity:1; 
stroke-linecap:round; stroke-linejoin:round;">
<path d="M102360 4720
L102360 3940
" />
</g>
<g style="fill:#840000; fill-opacity:0.0; 
stroke:#840000; stroke-width:100; stroke-opacity:1; 
stroke-linecap:round; stroke-linejoin:round;">
</g>
<g style="fill:#840000; fill-opacity:0.0; 
stroke:#840000; stroke-width:60; stroke-opacity:1; 
stroke-linecap:round; stroke-linejoin:round;">
<path d="M14170 4560
L13880 4560
" />
<path d="M14020 4560
L14020 4050
L13970 4120
L13930 4170
L13880 4190
" />
</g>
<g style="fill:#840000; fill-opacity:0.0; 
stroke:#840000; stroke-width:100; stroke-opacity:1; 
stroke-linecap:round; stroke-linejoin:round;">
</g>
<g style="fill:#840000; fill-opacity:0.0; 
stroke:#840000; stroke-width:60; stroke-opacity:1; 
stroke-linecap:round; stroke-linejoin:round;">
<path d="M33560 4090
L33580 4070
L33630 4050
L33750 4050
L33800 4070
L33820 4090
L33850 4140
L33850 4190
L33820 4260
L33530 4560
L33850 4560
" />
</g>
<g style="fill:#840000; fill-opacity:0.0; 
stroke:#840000; stroke-width:100; stroke-opacity:1; 
stroke-linecap:round; stroke-linejoin:round;">
</g>
<g style="fill:#840000; fill-opacity:0.0; 
stroke:#840000; stroke-width:60; stroke-opacity:1; 
stroke-linecap:round; stroke-linejoin:round;">
<path d="M53220 4050
L53540 4050
L53370 4240
L53440 4240
L53490 4260
L53510 4290
L53540 4340
L53540 4460
L53510 4510
L53490 4530
L53440 4560
L53300 4560
L53250 4530
L53220 4510
" />
</g>
<g style="fill:#840000; fill-opacity:0.0; 
stroke:#840000; stroke-width:100; stroke-opacity:1; 
stroke-linecap:round; stroke-linejoin:round;">
</g>
<g style="fill:#840000; fill-opacity:0.0; 
stroke:#840000; stroke-width:60; stroke-opacity:1; 
stroke-linecap:round; stroke-linejoin:round;">
<path d="M73170 4220
L73170 4560
" />
<path d="M73050 4020
L72930 4390
L73240 4390
" />
</g>
<g style="fill:#840000; fill-opacity:0.0; 
stroke:#840000; stroke-width:100; stroke-opacity:1; 
stroke-linecap:round; stroke-linejoin:round;">
</g>
<g style="fill:#840000; fill-opacity:0.0; 
stroke:#840000; stroke-width:60; stroke-opacity:1; 
stroke-linecap:round; stroke-linejoin:round;">
<path d="M92880 4050
L92640 4050
L92620 4290
L92640 4260
L92690 4240
L92810 4240
L92860 4260
L92880 4290
L92910 4340
L92910 4460
L92880 4510
L92860 4530
L92810 4560
L92690 4560
L92640 4530
L92620 4510
" />
</g>
<g style="fill:#840000; fill-opacity:0.0; 
stroke:#840000; stroke-width:100; stroke-opacity:1; 
stroke-linecap:round; stroke-linejoin:round;">
</g>
<g style="fill:#840000; fill-opacity:0.0; 
stroke:#840000; stroke-width:60; stroke-opacity:1; 
stroke-linecap:round; stroke-linejoin:round;">
<path d="M112540 4050
L112440 4050
L112390 4070
L112370 4090
L112320 4170
L112300 4260
L112300 4460
L112320 4510
L112350 4530
L112390 4560
L112490 4560
L112540 4530
L112560 4510
L112590 4460
L112590 4340
L112560 4290
L112540 4260
L112490 4240
L112390 4240
L112350 4260
L112320 4290
L112300 4340
" />
</g>
<g style="fill:#840000; fill-opacity:0.0; 
stroke:#840000; stroke-width:100; stroke-opacity:1; 
stroke-linecap:round; stroke-linejoin:round;">
</g>
<g style="fill:#840000; fill-opacity:0.0; 
stroke:#840000; stroke-width:60; stroke-opacity:1; 
stroke-linecap:round; stroke-linejoin:round;">
<path d="M23620 77960
L23620 78740
" />
</g>
<g style="fill:#840000; fill-opacity:0.0; 
stroke:#840000; stroke-width:100; stroke-opacity:1; 
stroke-linecap:round; stroke-linejoin:round;">
</g>
<g style="fill:#840000; fill-opacity:0.0; 
stroke:#840000; stroke-width:60; stroke-opacity:1; 
stroke-linecap:round; stroke-linejoin:round;">
<path d="M43310 77960
L43310 78740
" />
</g>
<g style="fill:#840000; fill-opacity:0.0; 
stroke:#840000; stroke-width:100; stroke-opacity:1; 
stroke-linecap:round; stroke-linejoin:round;">
</g>
<g style="fill:#840000; fill-opacity:0.0; 
stroke:#840000; stroke-width:60; stroke-opacity:1; 
stroke-linecap:round; stroke-linejoin:round;">
<path d="M62990 77960
L62990 78740
" />
</g>
<g style="fill:#840000; fill-opacity:0.0; 
stroke:#840000; stroke-width:100; stroke-opacity:1; 
stroke-linecap:round; stroke-linejoin:round;">
</g>
<g style="fill:#840000; fill-opacity:0.0; 
stroke:#840000; stroke-width:60; stroke-opacity:1; 
stroke-linecap:round; stroke-linejoin:round;">
<path d="M82680 77960
L82680 78740
" />
</g>
<g style="fill:#840000; fill-opacity:0.0; 
stroke:#840000; stroke-width:100; stroke-opacity:1; 
stroke-linecap:round; stroke-linejoin:round;">
</g>
<g style="fill:#840000; fill-opacity:0.0; 
stroke:#840000; stroke-width:60; stroke-opacity:1; 
stroke-linecap:round; stroke-linejoin:round;">
<path d="M102360 77960
L102360 78740
" />
</g>
<g style="fill:#840000; fill-opacity:0.0; 
stroke:#840000; stroke-width:100; stroke-opacity:1; 
stroke-linecap:round; stroke-linejoin:round;">
</g>
<g style="fill:#840000; fill-opacity:0.0; 
stroke:#840000; stroke-width:60; stroke-opacity:1; 
stroke-linecap:round; stroke-linejoin:round;">
<path d="M14170 78580
L13880 78580
" />
<path d="M14020 78580
L14020 78070
L13970 78140
L13930 78190
L13880 78210
" />
</g>
<g style="fill:#840000; fill-opacity:0.0; 
stroke:#840000; stroke-width:100; stroke-opacity:1; 
stroke-linecap:round; stroke-linejoin:round;">
</g>
<g style="fill:#840000; fill-opacity:0.0; 
stroke:#840000; stroke-width:60; stroke-opacity:1; 
stroke-linecap:round; stroke-linejoin:round;">
<path d="M33560 78110
L33580 78090
L33630 78070
L33750 78070
L33800 78090
L33820 78110
L33850 78160
L33850 78210
L33820 78280
L33530 78580
L33850 78580
" />
</g>
<g style="fill:#840000; fill-opacity:0.0; 
stroke:#840000; stroke-width:100; stroke-opacity:1; 
stroke-linecap:round; stroke-linejoin:round;">
</g>
<g style="fill:#840000; fill-opacity:0.0; 
stroke:#840000; stroke-width:60; stroke-opacity:1; 
stroke-linecap:round; stroke-linejoin:round;">
<path d="M53220 78070
L53540 78070
L53370 78260
L53440 78260
L53490 78280
L53510 78310
L53540 78360
L53540 78480
L53510 78530
L53490 78550
L53440 78580
L53300 78580
L53250 78550
L53220 78530
" />
</g>
<g style="fill:#840000; fill-opacity:0.0; 
stroke:#840000; stroke-width:100; stroke-opacity:1; 
stroke-linecap:round; stroke-linejoin:round;">
</g>
<g style="fill:#840000; fill-opacity:0.0; 
stroke:#840000; stroke-width:60; stroke-opacity:1; 
stroke-linecap:round; stroke-linejoin:round;">
<path d="M73170 78240
L73170 78580
" />
<path d="M73050 78040
L72930 78410
L73240 78410
" />
</g>
<g style="fill:#840000; fill-opacity:0.0; 
stroke:#840000; stroke-width:100; stroke-opacity:1; 
stroke-linecap:round; stroke-linejoin:round;">
</g>
<g style="fill:#840000; fill-opacity:0.0; 
stroke:#840000; stroke-width:60; stroke-opacity:1; 
stroke-linecap:round; stroke-linejoin:round;">
<path d="M92880 78070
L92640 78070
L92620 78310
L92640 78280
L92690 78260
L92810 78260
L92860 78280
L92880 78310
L92910 78360
L92910 78480
L92880 78530
L92860 78550
L92810 78580
L92690 78580
L92640 78550
L92620 78530
" />
</g>
<g style="fill:#840000; fill-opacity:0.0; 
stroke:#840000; stroke-width:100; stroke-opacity:1; 
stroke-linecap:round; stroke-linejoin:round;">
</g>
<g style="fill:#840000; fill-opacity:0.0; 
stroke:#840000; stroke-width:60; stroke-opacity:1; 
stroke-linecap:round; stroke-linejoin:round;">
<path d="M112540 78070
L112440 78070
L112390 78090
L112370 78110
L112320 78190
L112300 78280
L112300 78480
L112320 78530
L112350 78550
L112390 78580
L112490 78580
L112540 78550
L112560 78530
L112590 78480
L112590 78360
L112560 78310
L112540 78280
L112490 78260
L112390 78260
L112350 78280
L112320 78310
L112300 78360
" />
</g>
<g style="fill:#840000; fill-opacity:0.0; 
stroke:#840000; stroke-width:100; stroke-opacity:1; 
stroke-linecap:round; stroke-linejoin:round;">
</g>
<g style="fill:#840000; fill-opacity:0.0; 
stroke:#840000; stroke-width:60; stroke-opacity:1; 
stroke-linecap:round; stroke-linejoin:round;">
<path d="M3940 23620
L4720 23620
" />
</g>
<g style="fill:#840000; fill-opacity:0.0; 
stroke:#840000; stroke-width:100; stroke-opacity:1; 
stroke-linecap:round; stroke-linejoin:round;">
</g>
<g style="fill:#840000; fill-opacity:0.0; 
stroke:#840000; stroke-width:60; stroke-opacity:1; 
stroke-linecap:round; stroke-linejoin:round;">
<path d="M3940 43310
L4720 43310
" />
</g>
<g style="fill:#840000; fill-opacity:0.0; 
stroke:#840000; stroke-width:100; stroke-opacity:1; 
stroke-linecap:round; stroke-linejoin:round;">
</g>
<g style="fill:#840000; fill-opacity:0.0; 
stroke:#840000; stroke-width:60; stroke-opacity:1; 
stroke-linecap:round; stroke-linejoin:round;">
<path d="M3940 62990
L4720 62990
" />
</g>
<g style="fill:#840000; fill-opacity:0.0; 
stroke:#840000; stroke-width:100; stroke-opacity:1; 
stroke-linecap:round; stroke-linejoin:round;">
</g>
<g style="fill:#840000; fill-opacity:0.0; 
stroke:#840000; stroke-width:60; stroke-opacity:1; 
stroke-linecap:round; stroke-linejoin:round;">
<path d="M4210 13860
L4450 13860
" />
<path d="M4160 14010
L4330 13500
L4500 14010
" />
</g>
<g style="fill:#840000; fill-opacity:0.0; 
stroke:#840000; stroke-width:100; stroke-opacity:1; 
stroke-linecap:round; stroke-linejoin:round;">
</g>
<g style="fill:#840000; fill-opacity:0.0; 
stroke:#840000; stroke-width:60; stroke-opacity:1; 
stroke-linecap:round; stroke-linejoin:round;">
<path d="M4370 33420
L4440 33440
L4470 33470
L4490 33520
L4490 33590
L4470 33640
L4440 33660
L4400 33690
L4200 33690
L4200 33180
L4370 33180
L4420 33200
L4440 33220
L4470 33270
L4470 33320
L4440 33370
L4420 33390
L4370 33420
L4200 33420
" />
</g>
<g style="fill:#840000; fill-opacity:0.0; 
stroke:#840000; stroke-width:100; stroke-opacity:1; 
stroke-linecap:round; stroke-linejoin:round;">
</g>
<g style="fill:#840000; fill-opacity:0.0; 
stroke:#840000; stroke-width:60; stroke-opacity:1; 
stroke-linecap:round; stroke-linejoin:round;">
<path d="M4490 53330
L4470 53350
L4400 53380
L4350 53380
L4270 53350
L4230 53300
L4200 53250
L4180 53160
L4180 53080
L4200 52990
L4230 52940
L4270 52890
L4350 52870
L4400 52870
L4470 52890
L4490 52910
" />
</g>
<g style="fill:#840000; fill-opacity:0.0; 
stroke:#840000; stroke-width:100; stroke-opacity:1; 
stroke-linecap:round; stroke-linejoin:round;">
</g>
<g style="fill:#840000; fill-opacity:0.0; 
stroke:#840000; stroke-width:60; stroke-opacity:1; 
stroke-linecap:round; stroke-linejoin:round;">
<path d="M4200 73060
L4200 72550
L4320 72550
L4400 72570
L4440 72620
L4470 72670
L4490 72760
L4490 72840
L4470 72930
L4440 72980
L4400 73030
L4320 73060
L4200 73060
" />
</g>
<g style="fill:#840000; fill-opacity:0.0; 
stroke:#840000; stroke-width:100; stroke-opacity:1; 
stroke-linecap:round; stroke-linejoin:round;">
</g>
<g style="fill:#840000; fill-opacity:0.0; 
stroke:#840000; stroke-width:60; stroke-opacity:1; 
stroke-linecap:round; stroke-linejoin:round;">
<path d="M112990 23620
L112210 23620
" />
</g>
<g style="fill:#840000; fill-opacity:0.0; 
stroke:#840000; stroke-width:100; stroke-opacity:1; 
stroke-linecap:round; stroke-linejoin:round;">
</g>
<g style="fill:#840000; fill-opacity:0.0; 
stroke:#840000; stroke-width:60; stroke-opacity:1; 
stroke-linecap:round; stroke-linejoin:round;">
<path d="M112990 43310
L112210 43310
" />
</g>
<g style="fill:#840000; fill-opacity:0.0; 
stroke:#840000; stroke-width:100; stroke-opacity:1; 
stroke-linecap:round; stroke-linejoin:round;">
</g>
<g style="fill:#840000; fill-opacity:0.0; 
stroke:#840000; stroke-width:60; stroke-opacity:1; 
stroke-linecap:round; stroke-linejoin:round;">
<path d="M112990 62990
L112210 62990
" />
</g>
<g style="fill:#840000; fill-opacity:0.0; 
stroke:#840000; stroke-width:100; stroke-opacity:1; 
stroke-linecap:round; stroke-linejoin:round;">
</g>
<g style="fill:#840000; fill-opacity:0.0; 
stroke:#840000; stroke-width:60; stroke-opacity:1; 
stroke-linecap:round; stroke-linejoin:round;">
<path d="M112480 13860
L112720 13860
" />
<path d="M112430 14010
L112600 13500
L112770 14010
" />
</g>
<g style="fill:#840000; fill-opacity:0.0; 
stroke:#840000; stroke-width:100; stroke-opacity:1; 
stroke-linecap:round; stroke-linejoin:round;">
</g>
<g style="fill:#840000; fill-opacity:0.0; 
stroke:#840000; stroke-width:60; stroke-opacity:1; 
stroke-linecap:round; stroke-linejoin:round;">
<path d="M112640 33420
L112710 33440
L112740 33470
L112760 33520
L112760 33590
L112740 33640
L112710 33660
L112670 33690
L112470 33690
L112470 33180
L112640 33180
L112690 33200
L112710 33220
L112740 33270
L112740 33320
L112710 33370
L112690 33390
L112640 33420
L112470 33420
" />
</g>
<g style="fill:#840000; fill-opacity:0.0; 
stroke:#840000; stroke-width:100; stroke-opacity:1; 
stroke-linecap:round; stroke-linejoin:round;">
</g>
<g style="fill:#840000; fill-opacity:0.0; 
stroke:#840000; stroke-width:60; stroke-opacity:1; 
stroke-linecap:round; stroke-linejoin:round;">
<path d="M112760 53330
L112740 53350
L112670 53380
L112620 53380
L112540 53350
L112500 53300
L112470 53250
L112450 53160
L112450 53080
L112470 52990
L112500 52940
L112540 52890
L112620 52870
L112670 52870
L112740 52890
L112760 52910
" />
</g>
<g style="fill:#840000; fill-opacity:0.0; 
stroke:#840000; stroke-width:100; stroke-opacity:1; 
stroke-linecap:round; stroke-linejoin:round;">
</g>
<g style="fill:#840000; fill-opacity:0.0; 
stroke:#840000; stroke-width:60; stroke-opacity:1; 
stroke-linecap:round; stroke-linejoin:round;">
<path d="M112470 73060
L112470 72550
L112590 72550
L112670 72570
L112710 72620
L112740 72670
L112760 72760
L112760 72840
L112740 72930
L112710 72980
L112670 73030
L112590 73060
L112470 73060
" />
</g>
<g style="fill:#840000; fill-opacity:0.0; 
stroke:#840000; stroke-width:100; stroke-opacity:1; 
stroke-linecap:round; stroke-linejoin:round;">
</g>
<g style="fill:#840000; fill-opacity:0.0; 
stroke:#840000; stroke-width:60; stroke-opacity:1; 
stroke-linecap:round; stroke-linejoin:round;">
<path d="M78880 76290
L78880 75700
L79020 75700
L79110 75730
L79160 75790
L79190 75840
L79220 75950
L79220 76040
L79190 76150
L79160 76210
L79110 76260
L79020 76290
L78880 76290
" />
<path d="M79720 76290
L79720 75980
L79700 75930
L79640 75900
L79530 75900
L79470 75930
" />
<path d="M79720 76260
L79670 76290
L79530 76290
L79470 76260
L79440 76210
L79440 76150
L79470 76100
L79530 76070
L79670 76070
L79720 76040
" />
<path d="M79920 75900
L80140 75900
" />
<path d="M80000 75700
L80000 76210
L80030 76260
L80080 76290
L80140 76290
" />
<path d="M80570 76260
L80510 76290
L80400 76290
L80340 76260
L80310 76210
L80310 75980
L80340 75930
L80400 75900
L80510 75900
L80570 75930
L80590 75980
L80590 76040
L80310 76100
" />
<path d="M80850 76240
L80880 76260
L80850 76290
L80820 76260
L80850 76240
L80850 76290
" />
<path d="M80850 75930
L80880 75950
L80850 75980
L80820 75950
L80850 75930
L80850 75980
" />
<path d="M81550 75760
L81580 75730
L81640 75700
L81780 75700
L81830 75730
L81860 75760
L81890 75810
L81890 75870
L81860 75950
L81520 76290
L81890 76290
" />
<path d="M82420 75700
L82140 75700
L82110 75980
L82140 75950
L82200 75930
L82340 75930
L82390 75950
L82420 75980
L82450 76040
L82450 76180
L82420 76240
L82390 76260
L82340 76290
L82200 76290
L82140 76260
L82110 76240
" />
<path d="M83120 76120
L83400 76120
" />
<path d="M83070 76290
L83260 75700
L83460 76290
" />
<path d="M83910 75900
L83910 76290
" />
<path d="M83660 75900
L83660 76210
L83690 76260
L83740 76290
L83830 76290
L83890 76260
L83910 76240
" />
<path d="M84440 75900
L84440 76380
L84420 76430
L84390 76460
L84330 76490
L84250 76490
L84190 76460
" />
<path d="M84440 76260
L84390 76290
L84270 76290
L84220 76260
L84190 76240
L84160 76180
L84160 76010
L84190 75950
L84220 75930
L84270 75900
L84390 75900
L84440 75930
" />
<path d="M85140 75760
L85170 75730
L85230 75700
L85370 75700
L85420 75730
L85450 75760
L85480 75810
L85480 75870
L85450 75950
L85110 76290
L85480 76290
" />
<path d="M85840 75700
L85900 75700
L85960 75730
L85980 75760
L86010 75810
L86040 75930
L86040 76070
L86010 76180
L85980 76240
L85960 76260
L85900 76290
L85840 76290
L85790 76260
L85760 76240
L85730 76180
L85700 76070
L85700 75930
L85730 75810
L85760 75760
L85790 75730
L85840 75700
" />
<path d="M86600 76290
L86260 76290
" />
<path d="M86430 76290
L86430 75700
L86370 75790
L86320 75840
L86260 75870
" />
<path d="M87100 75900
L87100 76290
" />
<path d="M86960 75670
L86820 76100
L87190 76100
" />
</g>
<g style="fill:#840000; fill-opacity:0.0; 
stroke:#840000; stroke-width:100; stroke-opacity:1; 
stroke-linecap:round; stroke-linejoin:round;">
</g>
<g style="fill:#840000; fill-opacity:0.0; 
stroke:#840000; stroke-width:60; stroke-opacity:1; 
stroke-linecap:round; stroke-linejoin:round;">
<path d="M69690 76580
L112210 76580
" />
</g>
<g style="fill:#840000; fill-opacity:0.0; 
stroke:#840000; stroke-width:100; stroke-opacity:1; 
stroke-linecap:round; stroke-linejoin:round;">
</g>
<g style="fill:#840000; fill-opacity:0.0; 
stroke:#840000; stroke-width:60; stroke-opacity:1; 
stroke-linecap:round; stroke-linejoin:round;">
<path d="M70220 77390
L70220 76800
" />
<path d="M70560 77390
L70300 77050
" />
<path d="M70560 76800
L70220 77140
" />
<path d="M70810 77390
L70810 77000
" />
<path d="M70810 76800
L70780 76830
L70810 76860
L70840 76830
L70810 76800
L70810 76860
" />
<path d="M71430 77340
L71400 77360
L71320 77390
L71260 77390
L71170 77360
L71120 77310
L71090 77250
L71060 77140
L71060 77050
L71090 76940
L71120 76890
L71170 76830
L71260 76800
L71320 76800
L71400 76830
L71430 76860
" />
<path d="M71930 77390
L71930 77080
L71910 77030
L71850 77000
L71740 77000
L71680 77030
" />
<path d="M71930 77360
L71880 77390
L71740 77390
L71680 77360
L71650 77310
L71650 77250
L71680 77200
L71740 77170
L71880 77170
L71930 77140
" />
<path d="M72460 77390
L72460 76800
" />
<path d="M72460 77360
L72410 77390
L72290 77390
L72240 77360
L72210 77340
L72180 77280
L72180 77110
L72210 77050
L72240 77030
L72290 77000
L72410 77000
L72460 77030
" />
<path d="M73190 77080
L73390 77080
" />
<path d="M73470 77390
L73190 77390
L73190 76800
L73470 76800
" />
<path d="M73720 77340
L73750 77360
L73720 77390
L73690 77360
L73720 77340
L73720 77390
" />
<path d="M74000 77390
L74000 76800
L74140 76800
L74230 76830
L74280 76890
L74310 76940
L74340 77050
L74340 77140
L74310 77250
L74280 77310
L74230 77360
L74140 77390
L74000 77390
" />
<path d="M74590 77340
L74620 77360
L74590 77390
L74560 77360
L74590 77340
L74590 77390
" />
<path d="M74840 77220
L75120 77220
" />
<path d="M74790 77390
L74980 76800
L75180 77390
" />
<path d="M75380 77340
L75410 77360
L75380 77390
L75350 77360
L75380 77340
L75380 77390
" />
<path d="M76560 77390
L76560 76800
" />
<path d="M76620 77170
L76790 77390
" />
<path d="M76790 77000
L76560 77220
" />
<path d="M77040 77390
L77040 77000
" />
<path d="M77040 76800
L77010 76830
L77040 76860
L77070 76830
L77040 76800
L77040 76860
" />
<path d="M77570 77360
L77520 77390
L77400 77390
L77350 77360
L77320 77340
L77290 77280
L77290 77110
L77320 77050
L77350 77030
L77400 77000
L77520 77000
L77570 77030
" />
<path d="M78080 77390
L78080 77080
L78060 77030
L78000 77000
L77890 77000
L77830 77030
" />
<path d="M78080 77360
L78030 77390
L77890 77390
L77830 77360
L77800 77310
L77800 77250
L77830 77200
L77890 77170
L78030 77170
L78080 77140
" />
<path d="M78610 77390
L78610 76800
" />
<path d="M78610 77360
L78560 77390
L78440 77390
L78390 77360
L78360 77340
L78330 77280
L78330 77110
L78360 77050
L78390 77030
L78440 77000
L78560 77000
L78610 77030
" />
<path d="M79510 77620
L79480 77590
L79420 77500
L79400 77450
L79370 77360
L79340 77220
L79340 77110
L79370 76970
L79400 76890
L79420 76830
L79480 76750
L79510 76720
" />
<path d="M79700 76860
L79730 76830
L79790 76800
L79930 76800
L79980 76830
L80010 76860
L80040 76910
L80040 76970
L80010 77050
L79670 77390
L80040 77390
" />
<path d="M80400 76800
L80460 76800
L80520 76830
L80540 76860
L80570 76910
L80600 77030
L80600 77170
L80570 77280
L80540 77340
L80520 77360
L80460 77390
L80400 77390
L80350 77360
L80320 77340
L80290 77280
L80260 77170
L80260 77030
L80290 76910
L80320 76860
L80350 76830
L80400 76800
" />
<path d="M81160 77390
L80820 77390
" />
<path d="M80990 77390
L80990 76800
L80930 76890
L80880 76940
L80820 76970
" />
<path d="M81690 76800
L81410 76800
L81380 77080
L81410 77050
L81470 77030
L81610 77030
L81660 77050
L81690 77080
L81720 77140
L81720 77280
L81690 77340
L81660 77360
L81610 77390
L81470 77390
L81410 77360
L81380 77340
" />
<path d="M81970 77170
L82420 77170
" />
<path d="M82810 76800
L82870 76800
L82930 76830
L82950 76860
L82980 76910
L83010 77030
L83010 77170
L82980 77280
L82950 77340
L82930 77360
L82870 77390
L82810 77390
L82760 77360
L82730 77340
L82700 77280
L82670 77170
L82670 77030
L82700 76910
L82730 76860
L82760 76830
L82810 76800
" />
<path d="M83540 76800
L83260 76800
L83230 77080
L83260 77050
L83320 77030
L83460 77030
L83510 77050
L83540 77080
L83570 77140
L83570 77280
L83540 77340
L83510 77360
L83460 77390
L83320 77390
L83260 77360
L83230 77340
" />
<path d="M83820 77170
L84270 77170
" />
<path d="M84860 77390
L84520 77390
" />
<path d="M84690 77390
L84690 76800
L84630 76890
L84580 76940
L84520 76970
" />
<path d="M85190 77050
L85140 77030
L85110 77000
L85080 76940
L85080 76910
L85110 76860
L85140 76830
L85190 76800
L85310 76800
L85360 76830
L85390 76860
L85420 76910
L85420 76940
L85390 77000
L85360 77030
L85310 77050
L85190 77050
L85140 77080
L85110 77110
L85080 77170
L85080 77280
L85110 77340
L85140 77360
L85190 77390
L85310 77390
L85360 77360
L85390 77340
L85420 77280
L85420 77170
L85390 77110
L85360 77080
L85310 77050
" />
<path d="M86320 77080
L86400 77110
L86430 77140
L86460 77200
L86460 77280
L86430 77340
L86400 77360
L86350 77390
L86120 77390
L86120 76800
L86320 76800
L86370 76830
L86400 76860
L86430 76910
L86430 76970
L86400 77030
L86370 77050
L86320 77080
L86120 77080
" />
<path d="M86650 76800
L87050 76800
L86650 77390
L87050 77390
" />
<path d="M87610 77390
L87410 77110
" />
<path d="M87270 77390
L87270 76800
L87500 76800
L87550 76830
L87580 76860
L87610 76910
L87610 77000
L87580 77050
L87550 77080
L87500 77110
L87270 77110
" />
<path d="M88590 76800
L88310 76800
L88280 77080
L88310 77050
L88370 77030
L88510 77030
L88560 77050
L88590 77080
L88620 77140
L88620 77280
L88590 77340
L88560 77360
L88510 77390
L88370 77390
L88310 77360
L88280 77340
" />
<path d="M89120 76800
L89010 76800
L88950 76830
L88930 76860
L88870 76940
L88840 77050
L88840 77280
L88870 77340
L88900 77360
L88950 77390
L89070 77390
L89120 77360
L89150 77340
L89180 77280
L89180 77140
L89150 77080
L89120 77050
L89070 77030
L88950 77030
L88900 77050
L88870 77080
L88840 77140
" />
<path d="M89680 76800
L89570 76800
L89510 76830
L89490 76860
L89430 76940
L89400 77050
L89400 77280
L89430 77340
L89460 77360
L89510 77390
L89630 77390
L89680 77360
L89710 77340
L89740 77280
L89740 77140
L89710 77080
L89680 77050
L89630 77030
L89510 77030
L89460 77050
L89430 77080
L89400 77140
" />
<path d="M90070 77050
L90020 77030
L89990 77000
L89960 76940
L89960 76910
L89990 76860
L90020 76830
L90070 76800
L90190 76800
L90240 76830
L90270 76860
L90300 76910
L90300 76940
L90270 77000
L90240 77030
L90190 77050
L90070 77050
L90020 77080
L89990 77110
L89960 77170
L89960 77280
L89990 77340
L90020 77360
L90070 77390
L90190 77390
L90240 77360
L90270 77340
L90300 77280
L90300 77170
L90270 77110
L90240 77080
L90190 77050
" />
<path d="M90490 77620
L90520 77590
L90580 77500
L90610 77450
L90630 77360
L90660 77220
L90660 77110
L90630 76970
L90610 76890
L90580 76830
L90520 76750
L90490 76720
" />
<path d="M90940 77170
L91390 77170
" />
<path d="M91670 77000
L91670 77590
" />
<path d="M91670 77030
L91730 77000
L91840 77000
L91900 77030
L91920 77050
L91950 77110
L91950 77280
L91920 77340
L91900 77360
L91840 77390
L91730 77390
L91670 77360
" />
<path d="M92200 77390
L92200 77000
" />
<path d="M92200 77110
L92230 77050
L92260 77030
L92310 77000
L92370 77000
" />
<path d="M92650 77390
L92600 77360
L92570 77340
L92540 77280
L92540 77110
L92570 77050
L92600 77030
L92650 77000
L92740 77000
L92800 77030
L92820 77050
L92850 77110
L92850 77280
L92820 77340
L92800 77360
L92740 77390
L92650 77390
" />
<path d="M93350 77390
L93350 76800
" />
<path d="M93350 77360
L93300 77390
L93180 77390
L93130 77360
L93100 77340
L93070 77280
L93070 77110
L93100 77050
L93130 77030
L93180 77000
L93300 77000
L93350 77030
" />
<path d="M93880 77000
L93880 77390
" />
<path d="M93630 77000
L93630 77310
L93660 77360
L93710 77390
L93800 77390
L93860 77360
L93880 77340
" />
<path d="M94410 77360
L94360 77390
L94240 77390
L94190 77360
L94160 77340
L94130 77280
L94130 77110
L94160 77050
L94190 77030
L94240 77000
L94360 77000
L94410 77030
" />
<path d="M94590 77000
L94810 77000
" />
<path d="M94670 76800
L94670 77310
L94700 77360
L94750 77390
L94810 77390
" />
</g>
<g style="fill:#840000; fill-opacity:0.0; 
stroke:#840000; stroke-width:100; stroke-opacity:1; 
stroke-linecap:round; stroke-linejoin:round;">
</g>
<g style="fill:#840000; fill-opacity:0.0; 
stroke:#840000; stroke-width:60; stroke-opacity:1; 
stroke-linecap:round; stroke-linejoin:round;">
<path d="M69690 75400
L112210 75400
" />
</g>
<g style="fill:#840000; fill-opacity:0.0; 
stroke:#840000; stroke-width:100; stroke-opacity:1; 
stroke-linecap:round; stroke-linejoin:round;">
</g>
<g style="fill:#840000; fill-opacity:0.0; 
stroke:#840000; stroke-width:120; stroke-opacity:1; 
stroke-linecap:round; stroke-linejoin:round;">
<path d="M104020 76290
L103820 76010
" />
<path d="M103680 76290
L103680 75700
L103910 75700
L103960 75730
L103990 75760
L104020 75810
L104020 75900
L103990 75950
L103960 75980
L103910 76010
L103680 76010
" />
<path d="M104500 76260
L104440 76290
L104330 76290
L104270 76260
L104240 76210
L104240 75980
L104270 75930
L104330 75900
L104440 75900
L104500 75930
L104520 75980
L104520 76040
L104240 76100
" />
<path d="M104720 75900
L104860 76290
L105010 75900
" />
<path d="M105230 76240
L105260 76260
L105230 76290
L105200 76260
L105230 76240
L105230 76290
" />
<path d="M105230 75930
L105260 75950
L105230 75980
L105200 75950
L105230 75930
L105230 75980
" />
</g>
<g style="fill:#840000; fill-opacity:0.0; 
stroke:#840000; stroke-width:100; stroke-opacity:1; 
stroke-linecap:round; stroke-linejoin:round;">
</g>
<g style="fill:#840000; fill-opacity:0.0; 
stroke:#840000; stroke-width:60; stroke-opacity:1; 
stroke-linecap:round; stroke-linejoin:round;">
<path d="M70190 76260
L70280 76290
L70420 76290
L70470 76260
L70500 76240
L70530 76180
L70530 76120
L70500 76070
L70470 76040
L70420 76010
L70300 75980
L70250 75950
L70220 75930
L70190 75870
L70190 75810
L70220 75760
L70250 75730
L70300 75700
L70450 75700
L70530 75730
" />
<path d="M70780 76290
L70780 75900
" />
<path d="M70780 75700
L70750 75730
L70780 75760
L70810 75730
L70780 75700
L70780 75760
" />
<path d="M71000 75900
L71310 75900
L71000 76290
L71310 76290
" />
<path d="M71770 76260
L71710 76290
L71600 76290
L71540 76260
L71510 76210
L71510 75980
L71540 75930
L71600 75900
L71710 75900
L71770 75930
L71790 75980
L71790 76040
L71510 76100
" />
<path d="M72050 76240
L72080 76260
L72050 76290
L72020 76260
L72050 76240
L72050 76290
" />
<path d="M72050 75930
L72080 75950
L72050 75980
L72020 75950
L72050 75930
L72050 75980
" />
<path d="M72750 76120
L73030 76120
" />
<path d="M72700 76290
L72890 75700
L73090 76290
" />
<path d="M73540 75900
L73540 76290
" />
<path d="M73400 75670
L73260 76100
L73630 76100
" />
</g>
<g style="fill:#840000; fill-opacity:0.0; 
stroke:#840000; stroke-width:100; stroke-opacity:1; 
stroke-linecap:round; stroke-linejoin:round;">
</g>
<g style="fill:#840000; fill-opacity:0.0; 
stroke:#840000; stroke-width:60; stroke-opacity:1; 
stroke-linecap:round; stroke-linejoin:round;">
<path d="M103680 77390
L103680 76800
" />
<path d="M104210 77390
L104210 76800
" />
<path d="M104210 77360
L104160 77390
L104040 77390
L103990 77360
L103960 77340
L103930 77280
L103930 77110
L103960 77050
L103990 77030
L104040 77000
L104160 77000
L104210 77030
" />
<path d="M104490 77340
L104520 77360
L104490 77390
L104460 77360
L104490 77340
L104490 77390
" />
<path d="M104490 77030
L104520 77050
L104490 77080
L104460 77050
L104490 77030
L104490 77080
" />
<path d="M105500 76800
L105220 76800
L105190 77080
L105220 77050
L105280 77030
L105420 77030
L105470 77050
L105500 77080
L105530 77140
L105530 77280
L105500 77340
L105470 77360
L105420 77390
L105280 77390
L105220 77360
L105190 77340
" />
<path d="M106200 76770
L105700 77530
" />
<path d="M106340 76800
L106740 76800
L106480 77390
" />
</g>
<g style="fill:#840000; fill-opacity:0.0; 
stroke:#840000; stroke-width:100; stroke-opacity:1; 
stroke-linecap:round; stroke-linejoin:round;">
</g>
<g style="fill:#840000; fill-opacity:0.0; 
stroke:#840000; stroke-width:60; stroke-opacity:1; 
stroke-linecap:round; stroke-linejoin:round;">
<path d="M69690 73820
L112210 73820
" />
</g>
<g style="fill:#840000; fill-opacity:0.0; 
stroke:#840000; stroke-width:100; stroke-opacity:1; 
stroke-linecap:round; stroke-linejoin:round;">
</g>
<g style="fill:#840000; fill-opacity:0.0; 
stroke:#840000; stroke-width:160; stroke-opacity:1; 
stroke-linecap:round; stroke-linejoin:round;">
<path d="M70260 74090
L70710 74090
" />
<path d="M70390 74880
L70480 74090
" />
<path d="M70880 74880
L70940 74360
" />
<path d="M70970 74090
L70930 74130
L70960 74170
L71010 74130
L70970 74090
L70960 74170
" />
<path d="M71210 74360
L71510 74360
" />
<path d="M71350 74090
L71270 74770
L71300 74840
L71370 74880
L71450 74880
" />
<path d="M71820 74880
L71750 74840
L71720 74770
L71800 74090
" />
<path d="M72420 74840
L72340 74880
L72190 74880
L72120 74840
L72090 74770
L72130 74470
L72180 74390
L72250 74360
L72400 74360
L72480 74390
L72510 74470
L72500 74540
L72110 74620
" />
<path d="M72800 74810
L72840 74840
L72800 74880
L72760 74840
L72800 74810
L72800 74880
" />
<path d="M72860 74390
L72890 74430
L72850 74470
L72810 74430
L72860 74390
L72850 74470
" />
</g>
<g style="fill:#840000; fill-opacity:0.0; 
stroke:#840000; stroke-width:100; stroke-opacity:1; 
stroke-linecap:round; stroke-linejoin:round;">
</g>
<g style="fill:#840000; fill-opacity:0.0; 
stroke:#840000; stroke-width:60; stroke-opacity:1; 
stroke-linecap:round; stroke-linejoin:round;">
<path d="M70420 73060
L70220 73060
" />
<path d="M70220 73370
L70220 72780
L70500 72780
" />
<path d="M70730 73370
L70730 72980
" />
<path d="M70730 72780
L70700 72810
L70730 72840
L70760 72810
L70730 72780
L70730 72840
" />
<path d="M71090 73370
L71040 73340
L71010 73290
L71010 72780
" />
<path d="M71550 73340
L71490 73370
L71380 73370
L71320 73340
L71290 73290
L71290 73060
L71320 73010
L71380 72980
L71490 72980
L71550 73010
L71570 73060
L71570 73120
L71290 73180
" />
<path d="M71830 73320
L71860 73340
L71830 73370
L71800 73340
L71830 73320
L71830 73370
" />
<path d="M71830 73010
L71860 73030
L71830 73060
L71800 73030
L71830 73010
L71830 73060
" />
<path d="M72560 73370
L72560 72780
" />
<path d="M72810 73370
L72810 73060
L72790 73010
L72730 72980
L72640 72980
L72590 73010
L72560 73030
" />
<path d="M73340 73370
L73340 73060
L73320 73010
L73260 72980
L73150 72980
L73090 73010
" />
<path d="M73340 73340
L73290 73370
L73150 73370
L73090 73340
L73060 73290
L73060 73230
L73090 73180
L73150 73150
L73290 73150
L73340 73120
" />
<path d="M73700 73370
L73650 73340
L73620 73290
L73620 72780
" />
<path d="M74010 73370
L73960 73340
L73930 73290
L73930 72780
" />
<path d="M74100 73430
L74550 73430
" />
<path d="M74610 72980
L74830 72980
" />
<path d="M74690 73370
L74690 72870
L74720 72810
L74770 72780
L74830 72780
" />
<path d="M75030 73370
L75030 72980
" />
<path d="M75030 72780
L75000 72810
L75030 72840
L75060 72810
L75030 72780
L75030 72840
" />
<path d="M75390 73370
L75340 73340
L75310 73290
L75310 72780
" />
<path d="M75540 72980
L75760 72980
" />
<path d="M75620 72780
L75620 73290
L75650 73340
L75700 73370
L75760 73370
" />
<path d="M76190 73340
L76130 73370
L76020 73370
L75960 73340
L75930 73290
L75930 73060
L75960 73010
L76020 72980
L76130 72980
L76190 73010
L76210 73060
L76210 73120
L75930 73180
" />
<path d="M76470 73370
L76470 72980
" />
<path d="M76470 73090
L76500 73030
L76530 73010
L76580 72980
L76640 72980
" />
<path d="M76810 73340
L76870 73370
L76980 73370
L77040 73340
L77070 73290
L77070 73260
L77040 73200
L76980 73180
L76900 73180
L76840 73150
L76810 73090
L76810 73060
L76840 73010
L76900 72980
L76980 72980
L77040 73010
" />
<path d="M77320 73320
L77350 73340
L77320 73370
L77290 73340
L77320 73320
L77320 73370
" />
<path d="M77570 73340
L77630 73370
L77740 73370
L77800 73340
L77830 73290
L77830 73260
L77800 73200
L77740 73180
L77660 73180
L77600 73150
L77570 73090
L77570 73060
L77600 73010
L77660 72980
L77740 72980
L77800 73010
" />
<path d="M78330 73340
L78280 73370
L78160 73370
L78110 73340
L78080 73320
L78050 73260
L78050 73090
L78080 73030
L78110 73010
L78160 72980
L78280 72980
L78330 73010
" />
<path d="M78590 73370
L78590 72780
" />
<path d="M78840 73370
L78840 73060
L78820 73010
L78760 72980
L78670 72980
L78620 73010
L78590 73030
" />
</g>
<g style="fill:#840000; fill-opacity:0.0; 
stroke:#840000; stroke-width:100; stroke-opacity:1; 
stroke-linecap:round; stroke-linejoin:round;">
</g>
<g style="fill:#840000; fill-opacity:0.0; 
stroke:#840000; stroke-width:60; stroke-opacity:1; 
stroke-linecap:round; stroke-linejoin:round;">
<path d="M69690 71460
L112210 71460
" />
</g>
<g style="fill:#840000; fill-opacity:0.0; 
stroke:#840000; stroke-width:100; stroke-opacity:1; 
stroke-linecap:round; stroke-linejoin:round;">
</g>
<g style="fill:#840000; fill-opacity:0.0; 
stroke:#840000; stroke-width:60; stroke-opacity:1; 
stroke-linecap:round; stroke-linejoin:round;">
<path d="M70190 72280
L70280 72310
L70420 72310
L70470 72280
L70500 72260
L70530 72200
L70530 72140
L70500 72090
L70470 72060
L70420 72030
L70300 72000
L70250 71970
L70220 71950
L70190 71890
L70190 71830
L70220 71780
L70250 71750
L70300 71720
L70450 71720
L70530 71750
" />
<path d="M70780 72310
L70780 71720
" />
<path d="M71030 72310
L71030 72000
L71010 71950
L70950 71920
L70860 71920
L70810 71950
L70780 71970
" />
<path d="M71540 72280
L71480 72310
L71370 72310
L71310 72280
L71280 72230
L71280 72000
L71310 71950
L71370 71920
L71480 71920
L71540 71950
L71560 72000
L71560 72060
L71280 72120
" />
<path d="M72050 72280
L71990 72310
L71880 72310
L71820 72280
L71790 72230
L71790 72000
L71820 71950
L71880 71920
L71990 71920
L72050 71950
L72070 72000
L72070 72060
L71790 72120
" />
<path d="M72250 71920
L72470 71920
" />
<path d="M72330 71720
L72330 72230
L72360 72280
L72410 72310
L72470 72310
" />
<path d="M72670 72260
L72700 72280
L72670 72310
L72640 72280
L72670 72260
L72670 72310
" />
<path d="M72670 71950
L72700 71970
L72670 72000
L72640 71970
L72670 71950
L72670 72000
" />
<path d="M73820 71690
L73320 72450
" />
<path d="M74220 72000
L74020 72000
" />
<path d="M74020 72310
L74020 71720
L74300 71720
" />
<path d="M74530 72310
L74530 71920
" />
<path d="M74530 71720
L74500 71750
L74530 71780
L74560 71750
L74530 71720
L74530 71780
" />
<path d="M74890 72310
L74840 72280
L74810 72230
L74810 71720
" />
<path d="M75040 71920
L75260 71920
" />
<path d="M75120 71720
L75120 72230
L75150 72280
L75200 72310
L75260 72310
" />
<path d="M75690 72280
L75630 72310
L75520 72310
L75460 72280
L75430 72230
L75430 72000
L75460 71950
L75520 71920
L75630 71920
L75690 71950
L75710 72000
L75710 72060
L75430 72120
" />
<path d="M75970 72310
L75970 71920
" />
<path d="M75970 72030
L76000 71970
L76030 71950
L76080 71920
L76140 71920
" />
<path d="M76310 72280
L76370 72310
L76480 72310
L76540 72280
L76570 72230
L76570 72200
L76540 72140
L76480 72120
L76400 72120
L76340 72090
L76310 72030
L76310 72000
L76340 71950
L76400 71920
L76480 71920
L76540 71950
" />
<path d="M77240 71690
L76740 72450
" />
</g>
<g style="fill:#840000; fill-opacity:0.0; 
stroke:#840000; stroke-width:100; stroke-opacity:1; 
stroke-linecap:round; stroke-linejoin:round;">
</g>
<g style="fill:#840000; fill-opacity:0.0; 
stroke:#840000; stroke-width:60; stroke-opacity:1; 
stroke-linecap:round; stroke-linejoin:round;">
<path d="M77560 75400
L77560 76580
" />
</g>
<g style="fill:#840000; fill-opacity:0.0; 
stroke:#840000; stroke-width:100; stroke-opacity:1; 
stroke-linecap:round; stroke-linejoin:round;">
</g>
<g style="fill:#840000; fill-opacity:0.0; 
stroke:#840000; stroke-width:60; stroke-opacity:1; 
stroke-linecap:round; stroke-linejoin:round;">
<path d="M102760 75400
L102760 77960
" />
</g>
<g style="fill:#840000; fill-opacity:0.0; 
stroke:#840000; stroke-width:0; stroke-opacity:1; 
stroke-linecap:round; stroke-linejoin:round;">
</g>
<g style="fill:#840000; fill-opacity:0.0; 
stroke:#840000; stroke-width:120; stroke-opacity:1; 
stroke-linecap:round; stroke-linejoin:round;">
<rect x="48600" y="30500" width="800" height="3000" rx="0" />
</g>
<g style="fill:#840000; fill-opacity:0.0; 
stroke:#840000; stroke-width:60; stroke-opacity:1; 
stroke-linecap:round; stroke-linejoin:round;">
<path d="M49000 33500
L49000 34500
" />
</g>
<g style="fill:#008484; fill-opacity:0.0; 
stroke:#008484; stroke-width:60; stroke-opacity:1; 
stroke-linecap:round; stroke-linejoin:round;">
<path d="M49000 30500
L49000 29500
" />
</g>
<g style="fill:#008484; fill-opacity:0.0; 
stroke:#008484; stroke-width:60; stroke-opacity:1; 
stroke-linecap:round; stroke-linejoin:round;">
<path d="M49760 34090
L49520 34250
" />
<path d="M49760 34370
L49260 34370
L49260 34180
L49280 34130
L49300 34110
L49350 34090
L49420 34090
L49470 34110
L49490 34130
L49520 34180
L49520 34370
" />
<path d="M49260 33920
L49260 33590
L49760 33800
" />
<path d="M49260 32300
L49260 32580
" />
<path d="M49260 32440
L48760 32440
L48830 32490
L48880 32540
L48900 32580
" />
<path d="M48760 31990
L48760 31940
L48780 31890
L48800 31870
L48850 31840
L48950 31820
L49070 31820
L49160 31840
L49210 31870
L49230 31890
L49260 31940
L49260 31990
L49230 32030
L49210 32060
L49160 32080
L49070 32100
L48950 32100
L48850 32080
L48800 32060
L48780 32030
L48760 31990
" />
<path d="M49260 31600
L48760 31600
" />
<path d="M49070 31550
L49260 31410
" />
<path d="M48920 31410
L49110 31600
" />
</g>
<g style="fill:#008484; fill-opacity:0.0; 
stroke:#008484; stroke-width:0; stroke-opacity:1; 
stroke-linecap:round; stroke-linejoin:round;">
</g>
<g style="fill:#840000; fill-opacity:0.0; 
stroke:#840000; stroke-width:120; stroke-opacity:1; 
stroke-linecap:round; stroke-linejoin:round;">
<rect x="54000" y="37100" width="3000" height="800" rx="0" />
</g>
<g style="fill:#840000; fill-opacity:0.0; 
stroke:#840000; stroke-width:60; stroke-opacity:1; 
stroke-linecap:round; stroke-linejoin:round;">
<path d="M54000 37500
L53000 37500
" />
</g>
<g style="fill:#008484; fill-opacity:0.0; 
stroke:#008484; stroke-width:60; stroke-opacity:1; 
stroke-linecap:round; stroke-linejoin:round;">
<path d="M57000 37500
L58000 37500
" />
</g>
<g style="fill:#008484; fill-opacity:0.0; 
stroke:#008484; stroke-width:60; stroke-opacity:1; 
stroke-linecap:round; stroke-linejoin:round;">
<path d="M53410 38260
L53250 38020
" />
<path d="M53130 38260
L53130 37760
L53320 37760
L53370 37780
L53390 37800
L53410 37850
L53410 37920
L53390 37970
L53370 37990
L53320 38020
L53130 38020
" />
<path d="M53700 37970
L53650 37950
L53630 37920
L53610 37880
L53610 37850
L53630 37800
L53650 37780
L53700 37760
L53800 37760
L53840 37780
L53870 37800
L53890 37850
L53890 37880
L53870 37920
L53840 37950
L53800 37970
L53700 37970
L53650 37990
L53630 38020
L53610 38070
L53610 38160
L53630 38210
L53650 38230
L53700 38260
L53800 38260
L53840 38230
L53870 38210
L53890 38160
L53890 38070
L53870 38020
L53840 37990
L53800 37970
" />
<path d="M55200 37760
L54920 37760
" />
<path d="M55060 37760
L55060 37260
L55010 37330
L54960 37380
L54920 37400
" />
<path d="M55510 37260
L55560 37260
L55610 37280
L55630 37300
L55660 37350
L55680 37450
L55680 37570
L55660 37660
L55630 37710
L55610 37730
L55560 37760
L55510 37760
L55470 37730
L55440 37710
L55420 37660
L55400 37570
L55400 37450
L55420 37350
L55440 37300
L55470 37280
L55510 37260
" />
<path d="M55900 37760
L55900 37260
" />
<path d="M55950 37570
L56090 37760
" />
<path d="M56090 37420
L55900 37610
" />
</g>
<g style="fill:#008484; fill-opacity:0.0; 
stroke:#008484; stroke-width:0; stroke-opacity:1; 
stroke-linecap:round; stroke-linejoin:round;">
</g>
<g style="fill:#840000; fill-opacity:0.0; 
stroke:#840000; stroke-width:120; stroke-opacity:1; 
stroke-linecap:round; stroke-linejoin:round;">
<rect x="54000" y="36100" width="3000" height="800" rx="0" />
</g>
<g style="fill:#840000; fill-opacity:0.0; 
stroke:#840000; stroke-width:60; stroke-opacity:1; 
stroke-linecap:round; stroke-linejoin:round;">
<path d="M54000 36500
L53000 36500
" />
</g>
<g style="fill:#008484; fill-opacity:0.0; 
stroke:#008484; stroke-width:60; stroke-opacity:1; 
stroke-linecap:round; stroke-linejoin:round;">
<path d="M57000 36500
L58000 36500
" />
</g>
<g style="fill:#008484; fill-opacity:0.0; 
stroke:#008484; stroke-width:60; stroke-opacity:1; 
stroke-linecap:round; stroke-linejoin:round;">
<path d="M53410 37260
L53250 37020
" />
<path d="M53130 37260
L53130 36760
L53320 36760
L53370 36780
L53390 36800
L53410 36850
L53410 36920
L53390 36970
L53370 36990
L53320 37020
L53130 37020
" />
<path d="M53650 37260
L53750 37260
L53800 37230
L53820 37210
L53870 37140
L53890 37040
L53890 36850
L53870 36800
L53840 36780
L53800 36760
L53700 36760
L53650 36780
L53630 36800
L53610 36850
L53610 36970
L53630 37020
L53650 37040
L53700 37070
L53800 37070
L53840 37040
L53870 37020
L53890 36970
" />
<path d="M55200 36760
L54920 36760
" />
<path d="M55060 36760
L55060 36260
L55010 36330
L54960 36380
L54920 36400
" />
<path d="M55510 36260
L55560 36260
L55610 36280
L55630 36300
L55660 36350
L55680 36450
L55680 36570
L55660 36660
L55630 36710
L55610 36730
L55560 36760
L55510 36760
L55470 36730
L55440 36710
L55420 36660
L55400 36570
L55400 36450
L55420 36350
L55440 36300
L55470 36280
L55510 36260
" />
<path d="M55900 36760
L55900 36260
" />
<path d="M55950 36570
L56090 36760
" />
<path d="M56090 36420
L55900 36610
" />
</g>
<g style="fill:#008484; fill-opacity:0.0; 
stroke:#008484; stroke-width:0; stroke-opacity:1; 
stroke-linecap:round; stroke-linejoin:round;">
</g>
<g style="fill:#840000; fill-opacity:0.0; 
stroke:#840000; stroke-width:120; stroke-opacity:1; 
stroke-linecap:round; stroke-linejoin:round;">
<rect x="54000" y="35100" width="3000" height="800" rx="0" />
</g>
<g style="fill:#840000; fill-opacity:0.0; 
stroke:#840000; stroke-width:60; stroke-opacity:1; 
stroke-linecap:round; stroke-linejoin:round;">
<path d="M54000 35500
L53000 35500
" />
</g>
<g style="fill:#008484; fill-opacity:0.0; 
stroke:#008484; stroke-width:60; stroke-opacity:1; 
stroke-linecap:round; stroke-linejoin:round;">
<path d="M57000 35500
L58000 35500
" />
</g>
<g style="fill:#008484; fill-opacity:0.0; 
stroke:#008484; stroke-width:60; stroke-opacity:1; 
stroke-linecap:round; stroke-linejoin:round;">
<path d="M53170 36260
L53010 36020
" />
<path d="M52890 36260
L52890 35760
L53080 35760
L53130 35780
L53150 35800
L53170 35850
L53170 35920
L53150 35970
L53130 35990
L53080 36020
L52890 36020
" />
<path d="M53650 36260
L53370 36260
" />
<path d="M53510 36260
L53510 35760
L53460 35830
L53410 35880
L53370 35900
" />
<path d="M53960 35760
L54010 35760
L54060 35780
L54080 35800
L54110 35850
L54130 35950
L54130 36070
L54110 36160
L54080 36210
L54060 36230
L54010 36260
L53960 36260
L53920 36230
L53890 36210
L53870 36160
L53850 36070
L53850 35950
L53870 35850
L53890 35800
L53920 35780
L53960 35760
" />
<path d="M55200 35760
L54920 35760
" />
<path d="M55060 35760
L55060 35260
L55010 35330
L54960 35380
L54920 35400
" />
<path d="M55510 35260
L55560 35260
L55610 35280
L55630 35300
L55660 35350
L55680 35450
L55680 35570
L55660 35660
L55630 35710
L55610 35730
L55560 35760
L55510 35760
L55470 35730
L55440 35710
L55420 35660
L55400 35570
L55400 35450
L55420 35350
L55440 35300
L55470 35280
L55510 35260
" />
<path d="M55900 35760
L55900 35260
" />
<path d="M55950 35570
L56090 35760
" />
<path d="M56090 35420
L55900 35610
" />
</g>
<g style="fill:#008484; fill-opacity:0.0; 
stroke:#008484; stroke-width:0; stroke-opacity:1; 
stroke-linecap:round; stroke-linejoin:round;">
</g>
<g style="fill:#840000; fill-opacity:0.0; 
stroke:#840000; stroke-width:200; stroke-opacity:1; 
stroke-linecap:round; stroke-linejoin:round;">
<polyline fill="none;"
points="58700,42800
60300,42800
" /> 
<polyline fill="none;"
points="58700,42200
60300,42200
" /> 
</g>
<g style="fill:#840000; fill-opacity:0.0; 
stroke:#840000; stroke-width:60; stroke-opacity:1; 
stroke-linecap:round; stroke-linejoin:round;">
<path d="M59500 42200
L59500 40500
" />
</g>
<g style="fill:#008484; fill-opacity:0.0; 
stroke:#008484; stroke-width:60; stroke-opacity:1; 
stroke-linecap:round; stroke-linejoin:round;">
<path d="M59500 42800
L59500 44500
" />
</g>
<g style="fill:#008484; fill-opacity:0.0; 
stroke:#008484; stroke-width:60; stroke-opacity:1; 
stroke-linecap:round; stroke-linejoin:round;">
<path d="M60400 41650
L60380 41670
L60310 41700
L60260 41700
L60190 41670
L60140 41620
L60120 41580
L60100 41480
L60100 41410
L60120 41320
L60140 41270
L60190 41220
L60260 41200
L60310 41200
L60380 41220
L60400 41240
" />
<path d="M60860 41200
L60620 41200
L60600 41430
L60620 41410
L60670 41390
L60790 41390
L60830 41410
L60860 41430
L60880 41480
L60880 41600
L60860 41650
L60830 41670
L60790 41700
L60670 41700
L60620 41670
L60600 41650
" />
<path d="M60330 43360
L60330 43700
" />
<path d="M60210 43170
L60100 43530
L60400 43530
" />
<path d="M60600 43360
L60600 43700
" />
<path d="M60600 43410
L60620 43390
L60670 43360
L60740 43360
L60790 43390
L60810 43430
L60810 43700
" />
<path d="M61000 43200
L61330 43200
L61120 43700
" />
</g>
<g style="fill:#008484; fill-opacity:0.0; 
stroke:#008484; stroke-width:0; stroke-opacity:1; 
stroke-linecap:round; stroke-linejoin:round;">
</g>
<g style="fill:#840000; fill-opacity:0.0; 
stroke:#840000; stroke-width:200; stroke-opacity:1; 
stroke-linecap:round; stroke-linejoin:round;">
<polyline fill="none;"
points="61200,42800
62800,42800
" /> 
<polyline fill="none;"
points="61200,42200
62800,42200
" /> 
</g>
<g style="fill:#840000; fill-opacity:0.0; 
stroke:#840000; stroke-width:60; stroke-opacity:1; 
stroke-linecap:round; stroke-linejoin:round;">
<path d="M62000 42200
L62000 40500
" />
</g>
<g style="fill:#008484; fill-opacity:0.0; 
stroke:#008484; stroke-width:60; stroke-opacity:1; 
stroke-linecap:round; stroke-linejoin:round;">
<path d="M62000 42800
L62000 44500
" />
</g>
<g style="fill:#008484; fill-opacity:0.0; 
stroke:#008484; stroke-width:60; stroke-opacity:1; 
stroke-linecap:round; stroke-linejoin:round;">
<path d="M62900 41650
L62880 41670
L62810 41700
L62760 41700
L62690 41670
L62640 41620
L62620 41580
L62600 41480
L62600 41410
L62620 41320
L62640 41270
L62690 41220
L62760 41200
L62810 41200
L62880 41220
L62900 41240
" />
<path d="M63330 41200
L63240 41200
L63190 41220
L63170 41240
L63120 41320
L63100 41410
L63100 41600
L63120 41650
L63140 41670
L63190 41700
L63290 41700
L63330 41670
L63360 41650
L63380 41600
L63380 41480
L63360 41430
L63330 41410
L63290 41390
L63190 41390
L63140 41410
L63120 41430
L63100 41480
" />
<path d="M62830 43360
L62830 43700
" />
<path d="M62710 43170
L62600 43530
L62900 43530
" />
<path d="M63100 43360
L63100 43700
" />
<path d="M63100 43410
L63120 43390
L63170 43360
L63240 43360
L63290 43390
L63310 43430
L63310 43700
" />
<path d="M63500 43200
L63830 43200
L63620 43700
" />
</g>
<g style="fill:#008484; fill-opacity:0.0; 
stroke:#008484; stroke-width:0; stroke-opacity:1; 
stroke-linecap:round; stroke-linejoin:round;">
</g>
<g style="fill:#840000; fill-opacity:0.0; 
stroke:#840000; stroke-width:200; stroke-opacity:1; 
stroke-linecap:round; stroke-linejoin:round;">
<polyline fill="none;"
points="63700,42800
65300,42800
" /> 
<polyline fill="none;"
points="63700,42200
65300,42200
" /> 
</g>
<g style="fill:#840000; fill-opacity:0.0; 
stroke:#840000; stroke-width:60; stroke-opacity:1; 
stroke-linecap:round; stroke-linejoin:round;">
<path d="M64500 42200
L64500 40500
" />
</g>
<g style="fill:#008484; fill-opacity:0.0; 
stroke:#008484; stroke-width:60; stroke-opacity:1; 
stroke-linecap:round; stroke-linejoin:round;">
<path d="M64500 42800
L64500 44500
" />
</g>
<g style="fill:#008484; fill-opacity:0.0; 
stroke:#008484; stroke-width:60; stroke-opacity:1; 
stroke-linecap:round; stroke-linejoin:round;">
<path d="M65400 41650
L65380 41670
L65310 41700
L65260 41700
L65190 41670
L65140 41620
L65120 41580
L65100 41480
L65100 41410
L65120 41320
L65140 41270
L65190 41220
L65260 41200
L65310 41200
L65380 41220
L65400 41240
" />
<path d="M65570 41200
L65900 41200
L65690 41700
" />
<path d="M65330 43360
L65330 43700
" />
<path d="M65210 43170
L65100 43530
L65400 43530
" />
<path d="M65600 43360
L65600 43700
" />
<path d="M65600 43410
L65620 43390
L65670 43360
L65740 43360
L65790 43390
L65810 43430
L65810 43700
" />
<path d="M66000 43200
L66330 43200
L66120 43700
" />
</g>
<g style="fill:#008484; fill-opacity:0.0; 
stroke:#008484; stroke-width:0; stroke-opacity:1; 
stroke-linecap:round; stroke-linejoin:round;">
</g>
<g style="fill:#840000; fill-opacity:0.0; 
stroke:#840000; stroke-width:60; stroke-opacity:1; 
stroke-linecap:round; stroke-linejoin:round;">
<polyline fill="none;"
points="59000,44500
59500,45000
60000,44500
59000,44500
" /> 
</g>
<g style="fill:#840000; fill-opacity:0.0; 
stroke:#840000; stroke-width:0; stroke-opacity:1; 
stroke-linecap:round; stroke-linejoin:round;">
</g>
<g style="fill:#840000; fill-opacity:0.0; 
stroke:#840000; stroke-width:120; stroke-opacity:1; 
stroke-linecap:round; stroke-linejoin:round;">
<rect x="49600" y="30500" width="800" height="3000" rx="0" />
</g>
<g style="fill:#840000; fill-opacity:0.0; 
stroke:#840000; stroke-width:60; stroke-opacity:1; 
stroke-linecap:round; stroke-linejoin:round;">
<path d="M50000 33500
L50000 34500
" />
</g>
<g style="fill:#008484; fill-opacity:0.0; 
stroke:#008484; stroke-width:60; stroke-opacity:1; 
stroke-linecap:round; stroke-linejoin:round;">
<path d="M50000 30500
L50000 29500
" />
</g>
<g style="fill:#008484; fill-opacity:0.0; 
stroke:#008484; stroke-width:60; stroke-opacity:1; 
stroke-linecap:round; stroke-linejoin:round;">
<path d="M50760 34330
L50520 34490
" />
<path d="M50760 34610
L50260 34610
L50260 34420
L50280 34370
L50300 34350
L50350 34330
L50420 34330
L50470 34350
L50490 34370
L50520 34420
L50520 34610
" />
<path d="M50760 33850
L50760 34130
" />
<path d="M50760 33990
L50260 33990
L50330 34040
L50380 34090
L50400 34130
" />
<path d="M50760 33370
L50760 33650
" />
<path d="M50760 33510
L50260 33510
L50330 33560
L50380 33610
L50400 33650
" />
<path d="M49800 32580
L49780 32560
L49760 32510
L49760 32390
L49780 32350
L49800 32320
L49850 32300
L49900 32300
L49970 32320
L50260 32610
L50260 32300
" />
<path d="M50260 32080
L49760 32080
" />
<path d="M50070 32030
L50260 31890
" />
<path d="M49920 31890
L50110 32080
" />
<path d="M49800 31700
L49780 31680
L49760 31630
L49760 31510
L49780 31470
L49800 31440
L49850 31420
L49900 31420
L49970 31440
L50260 31730
L50260 31420
" />
</g>
<g style="fill:#008484; fill-opacity:0.0; 
stroke:#008484; stroke-width:0; stroke-opacity:1; 
stroke-linecap:round; stroke-linejoin:round;">
</g>
<g style="fill:#840000; fill-opacity:0.0; 
stroke:#840000; stroke-width:120; stroke-opacity:1; 
stroke-linecap:round; stroke-linejoin:round;">
<rect x="50600" y="30500" width="800" height="3000" rx="0" />
</g>
<g style="fill:#840000; fill-opacity:0.0; 
stroke:#840000; stroke-width:60; stroke-opacity:1; 
stroke-linecap:round; stroke-linejoin:round;">
<path d="M51000 33500
L51000 34500
" />
</g>
<g style="fill:#008484; fill-opacity:0.0; 
stroke:#008484; stroke-width:60; stroke-opacity:1; 
stroke-linecap:round; stroke-linejoin:round;">
<path d="M51000 30500
L51000 29500
" />
</g>
<g style="fill:#008484; fill-opacity:0.0; 
stroke:#008484; stroke-width:60; stroke-opacity:1; 
stroke-linecap:round; stroke-linejoin:round;">
<path d="M51760 34330
L51520 34490
" />
<path d="M51760 34610
L51260 34610
L51260 34420
L51280 34370
L51300 34350
L51350 34330
L51420 34330
L51470 34350
L51490 34370
L51520 34420
L51520 34610
" />
<path d="M51760 33850
L51760 34130
" />
<path d="M51760 33990
L51260 33990
L51330 34040
L51380 34090
L51400 34130
" />
<path d="M51300 33650
L51280 33630
L51260 33580
L51260 33460
L51280 33420
L51300 33390
L51350 33370
L51400 33370
L51470 33390
L51760 33680
L51760 33370
" />
<path d="M50800 32580
L50780 32560
L50760 32510
L50760 32390
L50780 32350
L50800 32320
L50850 32300
L50900 32300
L50970 32320
L51260 32610
L51260 32300
" />
<path d="M51260 32080
L50760 32080
" />
<path d="M51070 32030
L51260 31890
" />
<path d="M50920 31890
L51110 32080
" />
<path d="M50800 31700
L50780 31680
L50760 31630
L50760 31510
L50780 31470
L50800 31440
L50850 31420
L50900 31420
L50970 31440
L51260 31730
L51260 31420
" />
</g>
<g style="fill:#008484; fill-opacity:0.0; 
stroke:#008484; stroke-width:0; stroke-opacity:1; 
stroke-linecap:round; stroke-linejoin:round;">
</g>
<g style="fill:#840000; fill-opacity:0.0; 
stroke:#840000; stroke-width:120; stroke-opacity:1; 
stroke-linecap:round; stroke-linejoin:round;">
<rect x="51600" y="30500" width="800" height="3000" rx="0" />
</g>
<g style="fill:#840000; fill-opacity:0.0; 
stroke:#840000; stroke-width:60; stroke-opacity:1; 
stroke-linecap:round; stroke-linejoin:round;">
<path d="M52000 33500
L52000 34500
" />
</g>
<g style="fill:#008484; fill-opacity:0.0; 
stroke:#008484; stroke-width:60; stroke-opacity:1; 
stroke-linecap:round; stroke-linejoin:round;">
<path d="M52000 30500
L52000 29500
" />
</g>
<g style="fill:#008484; fill-opacity:0.0; 
stroke:#008484; stroke-width:60; stroke-opacity:1; 
stroke-linecap:round; stroke-linejoin:round;">
<path d="M52760 34330
L52520 34490
" />
<path d="M52760 34610
L52260 34610
L52260 34420
L52280 34370
L52300 34350
L52350 34330
L52420 34330
L52470 34350
L52490 34370
L52520 34420
L52520 34610
" />
<path d="M52760 33850
L52760 34130
" />
<path d="M52760 33990
L52260 33990
L52330 34040
L52380 34090
L52400 34130
" />
<path d="M52260 33680
L52260 33370
L52450 33540
L52450 33460
L52470 33420
L52490 33390
L52540 33370
L52660 33370
L52710 33390
L52730 33420
L52760 33460
L52760 33610
L52730 33650
L52710 33680
" />
<path d="M51800 32580
L51780 32560
L51760 32510
L51760 32390
L51780 32350
L51800 32320
L51850 32300
L51900 32300
L51970 32320
L52260 32610
L52260 32300
" />
<path d="M52260 32080
L51760 32080
" />
<path d="M52070 32030
L52260 31890
" />
<path d="M51920 31890
L52110 32080
" />
<path d="M51800 31700
L51780 31680
L51760 31630
L51760 31510
L51780 31470
L51800 31440
L51850 31420
L51900 31420
L51970 31440
L52260 31730
L52260 31420
" />
</g>
<g style="fill:#008484; fill-opacity:0.0; 
stroke:#008484; stroke-width:0; stroke-opacity:1; 
stroke-linecap:round; stroke-linejoin:round;">
</g>
<g style="fill:#840000; fill-opacity:0.0; 
stroke:#840000; stroke-width:200; stroke-opacity:1; 
stroke-linecap:round; stroke-linejoin:round;">
<polyline fill="none;"
points="51800,42200
50200,42200
" /> 
<polyline fill="none;"
points="51800,42800
50200,42800
" /> 
</g>
<g style="fill:#840000; fill-opacity:0.0; 
stroke:#840000; stroke-width:60; stroke-opacity:1; 
stroke-linecap:round; stroke-linejoin:round;">
<path d="M51000 42800
L51000 44500
" />
</g>
<g style="fill:#008484; fill-opacity:0.0; 
stroke:#008484; stroke-width:60; stroke-opacity:1; 
stroke-linecap:round; stroke-linejoin:round;">
<path d="M51000 42200
L51000 40500
" />
</g>
<g style="fill:#008484; fill-opacity:0.0; 
stroke:#008484; stroke-width:60; stroke-opacity:1; 
stroke-linecap:round; stroke-linejoin:round;">
<path d="M49920 43710
L49900 43730
L49830 43760
L49780 43760
L49710 43730
L49660 43680
L49640 43640
L49620 43540
L49620 43470
L49640 43380
L49660 43330
L49710 43280
L49780 43260
L49830 43260
L49900 43280
L49920 43300
" />
<path d="M50350 43420
L50350 43760
" />
<path d="M50230 43230
L50120 43590
L50420 43590
" />
<path d="M49420 41420
L49420 41760
" />
<path d="M49300 41230
L49190 41590
L49490 41590
" />
<path d="M49690 41420
L49690 41760
" />
<path d="M49690 41470
L49710 41450
L49760 41420
L49830 41420
L49880 41450
L49900 41490
L49900 41760
" />
<path d="M50090 41260
L50420 41260
L50210 41760
" />
</g>
<g style="fill:#008484; fill-opacity:0.0; 
stroke:#008484; stroke-width:0; stroke-opacity:1; 
stroke-linecap:round; stroke-linejoin:round;">
</g>
<g style="fill:#840000; fill-opacity:0.0; 
stroke:#840000; stroke-width:60; stroke-opacity:1; 
stroke-linecap:round; stroke-linejoin:round;">
<polyline fill="none;"
points="50500,44500
51000,45000
51500,44500
50500,44500
" /> 
</g>
<g style="fill:#840000; fill-opacity:0.0; 
stroke:#840000; stroke-width:0; stroke-opacity:1; 
stroke-linecap:round; stroke-linejoin:round;">
</g>
<g style="fill:#840000; fill-opacity:0.0; 
stroke:#840000; stroke-width:60; stroke-opacity:1; 
stroke-linecap:round; stroke-linejoin:round;">
<circle cx="49000" cy="27750" r="250" /> 
<polyline fill="none;"
points="49000,28500
49000,28000
" /> 
</g>
<g style="fill:#008484; fill-opacity:0.0; 
stroke:#008484; stroke-width:50; stroke-opacity:1; 
stroke-linecap:round; stroke-linejoin:round;">
<path d="M48320 28400
L48620 28300
L48320 28200
" />
<path d="M48590 27930
L48600 27940
L48620 27980
L48620 28010
L48600 28060
L48570 28080
L48540 28100
L48490 28110
L48440 28110
L48390 28100
L48360 28080
L48330 28060
L48320 28010
L48320 27980
L48330 27940
L48340 27930
" />
<path d="M48590 27630
L48600 27640
L48620 27680
L48620 27710
L48600 27760
L48570 27780
L48540 27800
L48490 27810
L48440 27810
L48390 27800
L48360 27780
L48330 27760
L48320 27710
L48320 27680
L48330 27640
L48340 27630
" />
</g>
<g style="fill:#008484; fill-opacity:0.0; 
stroke:#008484; stroke-width:0; stroke-opacity:1; 
stroke-linecap:round; stroke-linejoin:round;">
</g>
<g style="fill:#008400; fill-opacity:1.0; 
stroke:#008400; stroke-width:100; stroke-opacity:1; 
stroke-linecap:round; stroke-linejoin:round;">
<circle cx="59500" cy="35500" r="200" /> 
</g>
<g style="fill:#008400; fill-opacity:1.0; 
stroke:#008400; stroke-width:0; stroke-opacity:1; 
stroke-linecap:round; stroke-linejoin:round;">
</g>
<g style="fill:#008400; fill-opacity:1.0; 
stroke:#008400; stroke-width:100; stroke-opacity:1; 
stroke-linecap:round; stroke-linejoin:round;">
<circle cx="62000" cy="36500" r="200" /> 
</g>
<g style="fill:#008400; fill-opacity:1.0; 
stroke:#008400; stroke-width:0; stroke-opacity:1; 
stroke-linecap:round; stroke-linejoin:round;">
</g>
<g style="fill:#008400; fill-opacity:1.0; 
stroke:#008400; stroke-width:100; stroke-opacity:1; 
stroke-linecap:round; stroke-linejoin:round;">
<circle cx="64500" cy="37500" r="200" /> 
</g>
<g style="fill:#008400; fill-opacity:1.0; 
stroke:#008400; stroke-width:60; stroke-opacity:1; 
stroke-linecap:round; stroke-linejoin:round;">
</g>
<g style="fill:#008400; fill-opacity:0.0; 
stroke:#008400; stroke-width:60; stroke-opacity:1; 
stroke-linecap:round; stroke-linejoin:round;">
<path d="M50000 29500
L50000 28500
" />
<path d="M51000 28500
L51000 29500
" />
<path d="M52000 28500
L52000 29500
" />
</g>
<g style="fill:#008400; fill-opacity:0.0; 
stroke:#008400; stroke-width:0; stroke-opacity:1; 
stroke-linecap:round; stroke-linejoin:round;">
</g>
<g style="fill:#008400; fill-opacity:1.0; 
stroke:#008400; stroke-width:100; stroke-opacity:1; 
stroke-linecap:round; stroke-linejoin:round;">
<circle cx="50000" cy="35500" r="200" /> 
</g>
<g style="fill:#008400; fill-opacity:1.0; 
stroke:#008400; stroke-width:60; stroke-opacity:1; 
stroke-linecap:round; stroke-linejoin:round;">
</g>
<g style="fill:#008400; fill-opacity:0.0; 
stroke:#008400; stroke-width:60; stroke-opacity:1; 
stroke-linecap:round; stroke-linejoin:round;">
<path d="M50000 34500
L50000 35500
" />
</g>
<g style="fill:#008400; fill-opacity:0.0; 
stroke:#008400; stroke-width:0; stroke-opacity:1; 
stroke-linecap:round; stroke-linejoin:round;">
</g>
<g style="fill:#008400; fill-opacity:1.0; 
stroke:#008400; stroke-width:100; stroke-opacity:1; 
stroke-linecap:round; stroke-linejoin:round;">
<circle cx="51000" cy="36500" r="200" /> 
</g>
<g style="fill:#008400; fill-opacity:1.0; 
stroke:#008400; stroke-width:60; stroke-opacity:1; 
stroke-linecap:round; stroke-linejoin:round;">
</g>
<g style="fill:#008400; fill-opacity:0.0; 
stroke:#008400; stroke-width:60; stroke-opacity:1; 
stroke-linecap:round; stroke-linejoin:round;">
<path d="M51000 34500
L51000 36500
" />
</g>
<g style="fill:#008400; fill-opacity:0.0; 
stroke:#008400; stroke-width:0; stroke-opacity:1; 
stroke-linecap:round; stroke-linejoin:round;">
</g>
<g style="fill:#008400; fill-opacity:1.0; 
stroke:#008400; stroke-width:100; stroke-opacity:1; 
stroke-linecap:round; stroke-linejoin:round;">
<circle cx="52000" cy="37500" r="200" /> 
</g>
<g style="fill:#008400; fill-opacity:1.0; 
stroke:#008400; stroke-width:60; stroke-opacity:1; 
stroke-linecap:round; stroke-linejoin:round;">
</g>
<g style="fill:#008400; fill-opacity:0.0; 
stroke:#008400; stroke-width:60; stroke-opacity:1; 
stroke-linecap:round; stroke-linejoin:round;">
<path d="M52000 34500
L52000 37500
" />
<path d="M48000 37500
L53000 37500
" />
<path d="M48000 36500
L53000 36500
" />
<path d="M48000 35500
L53000 35500
" />
<path d="M64500 37500
L64500 40500
" />
<path d="M58000 37500
L66000 37500
" />
<path d="M62000 36500
L62000 40500
" />
<path d="M58000 36500
L66000 36500
" />
<path d="M59500 35500
L59500 40500
" />
<path d="M58000 35500
L66000 35500
" />
<path d="M51000 38500
L51000 40500
" />
</g>
<g style="fill:#008400; fill-opacity:0.0; 
stroke:#008400; stroke-width:0; stroke-opacity:1; 
stroke-linecap:round; stroke-linejoin:round;">
</g>
<g style="fill:#840000; fill-opacity:0.0; 
stroke:#840000; stroke-width:60; stroke-opacity:1; 
stroke-linecap:round; stroke-linejoin:round;">
<polyline fill="none;"
points="61500,44500
62000,45000
62500,44500
61500,44500
" /> 
</g>
<g style="fill:#840000; fill-opacity:0.0; 
stroke:#840000; stroke-width:0; stroke-opacity:1; 
stroke-linecap:round; stroke-linejoin:round;">
</g>
<g style="fill:#840000; fill-opacity:0.0; 
stroke:#840000; stroke-width:60; stroke-opacity:1; 
stroke-linecap:round; stroke-linejoin:round;">
<polyline fill="none;"
points="64000,44500
64500,45000
65000,44500
64000,44500
" /> 
</g>
<g style="fill:#840000; fill-opacity:0.0; 
stroke:#840000; stroke-width:50; stroke-opacity:1; 
stroke-linecap:round; stroke-linejoin:round;">
</g>
<g style="fill:#000000; fill-opacity:0.0; 
stroke:#000000; stroke-width:50; stroke-opacity:1; 
stroke-linecap:round; stroke-linejoin:round;">
<path d="M49030 38090
L49200 38090
" />
<path d="M49110 38390
L49110 38090
" />
<path d="M49300 38230
L49400 38230
" />
<path d="M49440 38390
L49300 38390
L49300 38090
L49440 38090
" />
<path d="M49570 38390
L49570 38090
L49670 38300
L49770 38090
L49770 38390
" />
<path d="M49910 38390
L49910 38090
L50030 38090
L50050 38100
L50070 38110
L50080 38140
L50080 38190
L50070 38210
L50050 38230
L50030 38240
L49910 38240
" />
<path d="M50140 38410
L50370 38410
" />
<path d="M50440 38390
L50440 38090
L50540 38300
L50640 38090
L50640 38390
" />
<path d="M50840 38090
L50900 38090
L50920 38100
L50950 38130
L50970 38190
L50970 38290
L50950 38340
L50920 38370
L50900 38390
L50840 38390
L50810 38370
L50780 38340
L50770 38290
L50770 38190
L50780 38130
L50810 38100
L50840 38090
" />
<path d="M51050 38090
L51220 38090
" />
<path d="M51130 38390
L51130 38090
" />
<path d="M51380 38090
L51440 38090
L51460 38100
L51490 38130
L51510 38190
L51510 38290
L51490 38340
L51460 38370
L51440 38390
L51380 38390
L51350 38370
L51320 38340
L51310 38290
L51310 38190
L51320 38130
L51350 38100
L51380 38090
" />
<path d="M51800 38390
L51700 38240
" />
<path d="M51630 38390
L51630 38090
L51750 38090
L51770 38100
L51790 38110
L51800 38140
L51800 38190
L51790 38210
L51770 38230
L51750 38240
L51630 38240
" />
</g>
<g style="fill:#000000; fill-opacity:0.0; 
stroke:#000000; stroke-width:60; stroke-opacity:1; 
stroke-linecap:round; stroke-linejoin:round;">
</g>
<g style="fill:#008400; fill-opacity:0.0; 
stroke:#008400; stroke-width:60; stroke-opacity:1; 
stroke-linecap:round; stroke-linejoin:round;">
<path d="M49000 34500
L49000 38500
" />
</g>
<g style="fill:#008400; fill-opacity:0.0; 
stroke:#008400; stroke-width:0; stroke-opacity:1; 
stroke-linecap:round; stroke-linejoin:round;">
</g>
<g style="fill:#008400; fill-opacity:1.0; 
stroke:#008400; stroke-width:100; stroke-opacity:1; 
stroke-linecap:round; stroke-linejoin:round;">
<circle cx="49000" cy="38500" r="200" /> 
</g>
<g style="fill:#008400; fill-opacity:1.0; 
stroke:#008400; stroke-width:60; stroke-opacity:1; 
stroke-linecap:round; stroke-linejoin:round;">
</g>
<g style="fill:#008400; fill-opacity:0.0; 
stroke:#008400; stroke-width:60; stroke-opacity:1; 
stroke-linecap:round; stroke-linejoin:round;">
<path d="M49000 28500
L49000 29500
" />
<path d="M49000 28500
L52000 28500
" />
</g>
<g style="fill:#008400; fill-opacity:0.0; 
stroke:#008400; stroke-width:0; stroke-opacity:1; 
stroke-linecap:round; stroke-linejoin:round;">
</g>
<g style="fill:#008400; fill-opacity:1.0; 
stroke:#008400; stroke-width:100; stroke-opacity:1; 
stroke-linecap:round; stroke-linejoin:round;">
<circle cx="50000" cy="28500" r="200" /> 
</g>
<g style="fill:#008400; fill-opacity:1.0; 
stroke:#008400; stroke-width:0; stroke-opacity:1; 
stroke-linecap:round; stroke-linejoin:round;">
</g>
<g style="fill:#008400; fill-opacity:1.0; 
stroke:#008400; stroke-width:100; stroke-opacity:1; 
stroke-linecap:round; stroke-linejoin:round;">
<circle cx="51000" cy="28500" r="200" /> 
</g>
<g style="fill:#008400; fill-opacity:1.0; 
stroke:#008400; stroke-width:60; stroke-opacity:1; 
stroke-linecap:round; stroke-linejoin:round;">
</g>
<g style="fill:#008400; fill-opacity:0.0; 
stroke:#008400; stroke-width:60; stroke-opacity:1; 
stroke-linecap:round; stroke-linejoin:round;">
<path d="M48000 38500
L66000 38500
" />
</g>
<g style="fill:#008400; fill-opacity:0.0; 
stroke:#008400; stroke-width:0; stroke-opacity:1; 
stroke-linecap:round; stroke-linejoin:round;">
</g>
<g style="fill:#008400; fill-opacity:1.0; 
stroke:#008400; stroke-width:100; stroke-opacity:1; 
stroke-linecap:round; stroke-linejoin:round;">
<circle cx="51000" cy="38500" r="200" /> 
</g>
<g style="fill:#008400; fill-opacity:1.0; 
stroke:#008400; stroke-width:60; stroke-opacity:1; 
stroke-linecap:round; stroke-linejoin:round;">
</g>
<g style="fill:#848400; fill-opacity:0.0; 
stroke:#848400; stroke-width:60; stroke-opacity:1; 
stroke-linecap:round; stroke-linejoin:round;">
<path d="M43310 35770
L43310 35170
" />
<path d="M43310 35460
L43660 35460
" />
<path d="M43660 35770
L43660 35170
" />
<path d="M43910 35600
L44200 35600
" />
<path d="M43860 35770
L44060 35170
L44260 35770
" />
<path d="M44740 35770
L44450 35770
L44450 35170
" />
<path d="M45230 35770
L44940 35770
L44940 35170
" />
<path d="M45380 35170
L45750 35170
L45550 35400
L45630 35400
L45690 35430
L45720 35460
L45750 35510
L45750 35660
L45720 35710
L45690 35740
L45630 35770
L45460 35770
L45400 35740
L45380 35710
" />
<path d="M45860 35830
L46320 35830
" />
<path d="M46460 35770
L46460 35170
" />
<path d="M46750 35770
L46750 35170
L47100 35770
L47100 35170
" />
</g>
<g style="fill:#848400; fill-opacity:0.0; 
stroke:#848400; stroke-width:100; stroke-opacity:1; 
stroke-linecap:round; stroke-linejoin:round;">
<polyline fill="none;"
points="48000,35500
47700,35200
47400,35200
47400,35800
47700,35800
48000,35500
" /> 
</g>
<g style="fill:#848400; fill-opacity:0.0; 
stroke:#848400; stroke-width:60; stroke-opacity:1; 
stroke-linecap:round; stroke-linejoin:round;">
<path d="M43310 36770
L43310 36170
" />
<path d="M43310 36460
L43660 36460
" />
<path d="M43660 36770
L43660 36170
" />
<path d="M43910 36600
L44200 36600
" />
<path d="M43860 36770
L44060 36170
L44260 36770
" />
<path d="M44740 36770
L44450 36770
L44450 36170
" />
<path d="M45230 36770
L44940 36770
L44940 36170
" />
<path d="M45400 36230
L45430 36200
L45490 36170
L45630 36170
L45690 36200
L45720 36230
L45750 36290
L45750 36340
L45720 36430
L45380 36770
L45750 36770
" />
<path d="M45860 36830
L46320 36830
" />
<path d="M46460 36770
L46460 36170
" />
<path d="M46750 36770
L46750 36170
L47100 36770
L47100 36170
" />
</g>
<g style="fill:#848400; fill-opacity:0.0; 
stroke:#848400; stroke-width:100; stroke-opacity:1; 
stroke-linecap:round; stroke-linejoin:round;">
<polyline fill="none;"
points="48000,36500
47700,36200
47400,36200
47400,36800
47700,36800
48000,36500
" /> 
</g>
<g style="fill:#848400; fill-opacity:0.0; 
stroke:#848400; stroke-width:60; stroke-opacity:1; 
stroke-linecap:round; stroke-linejoin:round;">
<path d="M43310 37770
L43310 37170
" />
<path d="M43310 37460
L43660 37460
" />
<path d="M43660 37770
L43660 37170
" />
<path d="M43910 37600
L44200 37600
" />
<path d="M43860 37770
L44060 37170
L44260 37770
" />
<path d="M44740 37770
L44450 37770
L44450 37170
" />
<path d="M45230 37770
L44940 37770
L44940 37170
" />
<path d="M45750 37770
L45400 37770
" />
<path d="M45580 37770
L45580 37170
L45520 37260
L45460 37310
L45400 37340
" />
<path d="M45860 37830
L46320 37830
" />
<path d="M46460 37770
L46460 37170
" />
<path d="M46750 37770
L46750 37170
L47100 37770
L47100 37170
" />
</g>
<g style="fill:#848400; fill-opacity:0.0; 
stroke:#848400; stroke-width:100; stroke-opacity:1; 
stroke-linecap:round; stroke-linejoin:round;">
<polyline fill="none;"
points="48000,37500
47700,37200
47400,37200
47400,37800
47700,37800
48000,37500
" /> 
</g>
<g style="fill:#848400; fill-opacity:0.0; 
stroke:#848400; stroke-width:60; stroke-opacity:1; 
stroke-linecap:round; stroke-linejoin:round;">
<path d="M43630 38170
L43970 38170
" />
<path d="M43800 38770
L43800 38170
" />
<path d="M44170 38460
L44370 38460
" />
<path d="M44460 38770
L44170 38770
L44170 38170
L44460 38170
" />
<path d="M44710 38770
L44710 38170
L44910 38600
L45110 38170
L45110 38770
" />
<path d="M45400 38770
L45400 38170
L45630 38170
L45690 38200
L45720 38230
L45750 38290
L45750 38370
L45720 38430
L45690 38460
L45630 38490
L45400 38490
" />
<path d="M45860 38830
L46320 38830
" />
<path d="M46460 38770
L46460 38170
" />
<path d="M46750 38770
L46750 38170
L47100 38770
L47100 38170
" />
</g>
<g style="fill:#848400; fill-opacity:0.0; 
stroke:#848400; stroke-width:100; stroke-opacity:1; 
stroke-linecap:round; stroke-linejoin:round;">
<polyline fill="none;"
points="48000,38500
47700,38200
47400,38200
47400,38800
47700,38800
48000,38500
" /> 
</g>
<g style="fill:#848400; fill-opacity:0.0; 
stroke:#848400; stroke-width:60; stroke-opacity:1; 
stroke-linecap:round; stroke-linejoin:round;">
<path d="M66900 35770
L66900 35170
" />
<path d="M66900 35460
L67250 35460
" />
<path d="M67250 35770
L67250 35170
" />
<path d="M67500 35600
L67790 35600
" />
<path d="M67450 35770
L67650 35170
L67850 35770
" />
<path d="M68330 35770
L68040 35770
L68040 35170
" />
<path d="M68820 35770
L68530 35770
L68530 35170
" />
<path d="M68970 35170
L69340 35170
L69140 35400
L69220 35400
L69280 35430
L69310 35460
L69340 35510
L69340 35660
L69310 35710
L69280 35740
L69220 35770
L69050 35770
L68990 35740
L68970 35710
" />
<path d="M69450 35830
L69910 35830
" />
<path d="M70170 35170
L70280 35170
L70340 35200
L70400 35260
L70420 35370
L70420 35570
L70400 35690
L70340 35740
L70280 35770
L70170 35770
L70110 35740
L70050 35690
L70020 35570
L70020 35370
L70050 35260
L70110 35200
L70170 35170
" />
<path d="M70680 35170
L70680 35660
L70710 35710
L70740 35740
L70800 35770
L70910 35770
L70970 35740
L71000 35710
L71030 35660
L71030 35170
" />
<path d="M71230 35170
L71570 35170
" />
<path d="M71400 35770
L71400 35170
" />
</g>
<g style="fill:#848400; fill-opacity:0.0; 
stroke:#848400; stroke-width:100; stroke-opacity:1; 
stroke-linecap:round; stroke-linejoin:round;">
<polyline fill="none;"
points="66600,35500
66300,35200
66000,35200
66000,35800
66300,35800
66600,35500
" /> 
</g>
<g style="fill:#848400; fill-opacity:0.0; 
stroke:#848400; stroke-width:60; stroke-opacity:1; 
stroke-linecap:round; stroke-linejoin:round;">
<path d="M66900 36770
L66900 36170
" />
<path d="M66900 36460
L67250 36460
" />
<path d="M67250 36770
L67250 36170
" />
<path d="M67500 36600
L67790 36600
" />
<path d="M67450 36770
L67650 36170
L67850 36770
" />
<path d="M68330 36770
L68040 36770
L68040 36170
" />
<path d="M68820 36770
L68530 36770
L68530 36170
" />
<path d="M68990 36230
L69020 36200
L69080 36170
L69220 36170
L69280 36200
L69310 36230
L69340 36290
L69340 36340
L69310 36430
L68970 36770
L69340 36770
" />
<path d="M69450 36830
L69910 36830
" />
<path d="M70170 36170
L70280 36170
L70340 36200
L70400 36260
L70420 36370
L70420 36570
L70400 36690
L70340 36740
L70280 36770
L70170 36770
L70110 36740
L70050 36690
L70020 36570
L70020 36370
L70050 36260
L70110 36200
L70170 36170
" />
<path d="M70680 36170
L70680 36660
L70710 36710
L70740 36740
L70800 36770
L70910 36770
L70970 36740
L71000 36710
L71030 36660
L71030 36170
" />
<path d="M71230 36170
L71570 36170
" />
<path d="M71400 36770
L71400 36170
" />
</g>
<g style="fill:#848400; fill-opacity:0.0; 
stroke:#848400; stroke-width:100; stroke-opacity:1; 
stroke-linecap:round; stroke-linejoin:round;">
<polyline fill="none;"
points="66600,36500
66300,36200
66000,36200
66000,36800
66300,36800
66600,36500
" /> 
</g>
<g style="fill:#848400; fill-opacity:0.0; 
stroke:#848400; stroke-width:60; stroke-opacity:1; 
stroke-linecap:round; stroke-linejoin:round;">
<path d="M66900 37770
L66900 37170
" />
<path d="M66900 37460
L67250 37460
" />
<path d="M67250 37770
L67250 37170
" />
<path d="M67500 37600
L67790 37600
" />
<path d="M67450 37770
L67650 37170
L67850 37770
" />
<path d="M68330 37770
L68040 37770
L68040 37170
" />
<path d="M68820 37770
L68530 37770
L68530 37170
" />
<path d="M69340 37770
L68990 37770
" />
<path d="M69170 37770
L69170 37170
L69110 37260
L69050 37310
L68990 37340
" />
<path d="M69450 37830
L69910 37830
" />
<path d="M70170 37170
L70280 37170
L70340 37200
L70400 37260
L70420 37370
L70420 37570
L70400 37690
L70340 37740
L70280 37770
L70170 37770
L70110 37740
L70050 37690
L70020 37570
L70020 37370
L70050 37260
L70110 37200
L70170 37170
" />
<path d="M70680 37170
L70680 37660
L70710 37710
L70740 37740
L70800 37770
L70910 37770
L70970 37740
L71000 37710
L71030 37660
L71030 37170
" />
<path d="M71230 37170
L71570 37170
" />
<path d="M71400 37770
L71400 37170
" />
</g>
<g style="fill:#848400; fill-opacity:0.0; 
stroke:#848400; stroke-width:100; stroke-opacity:1; 
stroke-linecap:round; stroke-linejoin:round;">
<polyline fill="none;"
points="66600,37500
66300,37200
66000,37200
66000,37800
66300,37800
66600,37500
" /> 
</g>
<g style="fill:#848400; fill-opacity:0.0; 
stroke:#848400; stroke-width:60; stroke-opacity:1; 
stroke-linecap:round; stroke-linejoin:round;">
<path d="M66820 38170
L67160 38170
" />
<path d="M66990 38770
L66990 38170
" />
<path d="M67360 38460
L67560 38460
" />
<path d="M67650 38770
L67360 38770
L67360 38170
L67650 38170
" />
<path d="M67900 38770
L67900 38170
L68100 38600
L68300 38170
L68300 38770
" />
<path d="M68590 38770
L68590 38170
L68820 38170
L68880 38200
L68910 38230
L68940 38290
L68940 38370
L68910 38430
L68880 38460
L68820 38490
L68590 38490
" />
<path d="M69050 38830
L69510 38830
" />
<path d="M69770 38170
L69880 38170
L69940 38200
L70000 38260
L70020 38370
L70020 38570
L70000 38690
L69940 38740
L69880 38770
L69770 38770
L69710 38740
L69650 38690
L69620 38570
L69620 38370
L69650 38260
L69710 38200
L69770 38170
" />
<path d="M70280 38170
L70280 38660
L70310 38710
L70340 38740
L70400 38770
L70510 38770
L70570 38740
L70600 38710
L70630 38660
L70630 38170
" />
<path d="M70830 38170
L71170 38170
" />
<path d="M71000 38770
L71000 38170
" />
</g>
<g style="fill:#848400; fill-opacity:0.0; 
stroke:#848400; stroke-width:100; stroke-opacity:1; 
stroke-linecap:round; stroke-linejoin:round;">
<polyline fill="none;"
points="66600,38500
66300,38200
66000,38200
66000,38800
66300,38800
66600,38500
" /> 
</g> 
</svg>
