<?xml version="1.0" standalone="no"?>
 <!DOCTYPE svg PUBLIC "-//W3C//DTD SVG 1.1//EN" 
 "http://www.w3.org/Graphics/SVG/1.1/DTD/svg11.dtd"> 
<svg xmlns="http://www.w3.org/2000/svg" version="1.1" 
    width="29.7002cm" height="21.0007cm" viewBox="0 0 116930 82680 ">
<title>SVG Picture created as temp-NTC temp sensor.svg date 2015/05/20 12:11:11 </title>
  <desc>Picture generated by Eeschema-SVG </desc>
<g style="fill:#000000; fill-opacity:1;stroke:#000000; stroke-opacity:1;
stroke-linecap:round; stroke-linejoin:round; "
 transform="translate(0 0) scale(1 1)">
</g>
<g style="fill:#840000; fill-opacity:0.0; 
stroke:#840000; stroke-width:100; stroke-opacity:1; 
stroke-linecap:round; stroke-linejoin:round;">
</g>
<g style="fill:#840000; fill-opacity:0.0; 
stroke:#840000; stroke-width:60; stroke-opacity:1; 
stroke-linecap:round; stroke-linejoin:round;">
<rect x="69690" y="65360" width="42520" height="12600" rx="0" />
</g>
<g style="fill:#840000; fill-opacity:0.0; 
stroke:#840000; stroke-width:100; stroke-opacity:1; 
stroke-linecap:round; stroke-linejoin:round;">
</g>
<g style="fill:#840000; fill-opacity:0.0; 
stroke:#840000; stroke-width:60; stroke-opacity:1; 
stroke-linecap:round; stroke-linejoin:round;">
<rect x="3940" y="3940" width="109050" height="74800" rx="0" />
</g>
<g style="fill:#840000; fill-opacity:0.0; 
stroke:#840000; stroke-width:100; stroke-opacity:1; 
stroke-linecap:round; stroke-linejoin:round;">
</g>
<g style="fill:#840000; fill-opacity:0.0; 
stroke:#840000; stroke-width:60; stroke-opacity:1; 
stroke-linecap:round; stroke-linejoin:round;">
<rect x="4720" y="4720" width="107490" height="73240" rx="0" />
</g>
<g style="fill:#840000; fill-opacity:0.0; 
stroke:#840000; stroke-width:100; stroke-opacity:1; 
stroke-linecap:round; stroke-linejoin:round;">
</g>
<g style="fill:#840000; fill-opacity:0.0; 
stroke:#840000; stroke-width:60; stroke-opacity:1; 
stroke-linecap:round; stroke-linejoin:round;">
<path d="M23620 4720
L23620 3940
" />
</g>
<g style="fill:#840000; fill-opacity:0.0; 
stroke:#840000; stroke-width:100; stroke-opacity:1; 
stroke-linecap:round; stroke-linejoin:round;">
</g>
<g style="fill:#840000; fill-opacity:0.0; 
stroke:#840000; stroke-width:60; stroke-opacity:1; 
stroke-linecap:round; stroke-linejoin:round;">
<path d="M43310 4720
L43310 3940
" />
</g>
<g style="fill:#840000; fill-opacity:0.0; 
stroke:#840000; stroke-width:100; stroke-opacity:1; 
stroke-linecap:round; stroke-linejoin:round;">
</g>
<g style="fill:#840000; fill-opacity:0.0; 
stroke:#840000; stroke-width:60; stroke-opacity:1; 
stroke-linecap:round; stroke-linejoin:round;">
<path d="M62990 4720
L62990 3940
" />
</g>
<g style="fill:#840000; fill-opacity:0.0; 
stroke:#840000; stroke-width:100; stroke-opacity:1; 
stroke-linecap:round; stroke-linejoin:round;">
</g>
<g style="fill:#840000; fill-opacity:0.0; 
stroke:#840000; stroke-width:60; stroke-opacity:1; 
stroke-linecap:round; stroke-linejoin:round;">
<path d="M82680 4720
L82680 3940
" />
</g>
<g style="fill:#840000; fill-opacity:0.0; 
stroke:#840000; stroke-width:100; stroke-opacity:1; 
stroke-linecap:round; stroke-linejoin:round;">
</g>
<g style="fill:#840000; fill-opacity:0.0; 
stroke:#840000; stroke-width:60; stroke-opacity:1; 
stroke-linecap:round; stroke-linejoin:round;">
<path d="M102360 4720
L102360 3940
" />
</g>
<g style="fill:#840000; fill-opacity:0.0; 
stroke:#840000; stroke-width:100; stroke-opacity:1; 
stroke-linecap:round; stroke-linejoin:round;">
</g>
<g style="fill:#840000; fill-opacity:0.0; 
stroke:#840000; stroke-width:60; stroke-opacity:1; 
stroke-linecap:round; stroke-linejoin:round;">
<path d="M14170 4560
L13880 4560
" />
<path d="M14020 4560
L14020 4050
L13970 4120
L13930 4170
L13880 4190
" />
</g>
<g style="fill:#840000; fill-opacity:0.0; 
stroke:#840000; stroke-width:100; stroke-opacity:1; 
stroke-linecap:round; stroke-linejoin:round;">
</g>
<g style="fill:#840000; fill-opacity:0.0; 
stroke:#840000; stroke-width:60; stroke-opacity:1; 
stroke-linecap:round; stroke-linejoin:round;">
<path d="M33560 4090
L33580 4070
L33630 4050
L33750 4050
L33800 4070
L33820 4090
L33850 4140
L33850 4190
L33820 4260
L33530 4560
L33850 4560
" />
</g>
<g style="fill:#840000; fill-opacity:0.0; 
stroke:#840000; stroke-width:100; stroke-opacity:1; 
stroke-linecap:round; stroke-linejoin:round;">
</g>
<g style="fill:#840000; fill-opacity:0.0; 
stroke:#840000; stroke-width:60; stroke-opacity:1; 
stroke-linecap:round; stroke-linejoin:round;">
<path d="M53220 4050
L53540 4050
L53370 4240
L53440 4240
L53490 4260
L53510 4290
L53540 4340
L53540 4460
L53510 4510
L53490 4530
L53440 4560
L53300 4560
L53250 4530
L53220 4510
" />
</g>
<g style="fill:#840000; fill-opacity:0.0; 
stroke:#840000; stroke-width:100; stroke-opacity:1; 
stroke-linecap:round; stroke-linejoin:round;">
</g>
<g style="fill:#840000; fill-opacity:0.0; 
stroke:#840000; stroke-width:60; stroke-opacity:1; 
stroke-linecap:round; stroke-linejoin:round;">
<path d="M73170 4220
L73170 4560
" />
<path d="M73050 4020
L72930 4390
L73240 4390
" />
</g>
<g style="fill:#840000; fill-opacity:0.0; 
stroke:#840000; stroke-width:100; stroke-opacity:1; 
stroke-linecap:round; stroke-linejoin:round;">
</g>
<g style="fill:#840000; fill-opacity:0.0; 
stroke:#840000; stroke-width:60; stroke-opacity:1; 
stroke-linecap:round; stroke-linejoin:round;">
<path d="M92880 4050
L92640 4050
L92620 4290
L92640 4260
L92690 4240
L92810 4240
L92860 4260
L92880 4290
L92910 4340
L92910 4460
L92880 4510
L92860 4530
L92810 4560
L92690 4560
L92640 4530
L92620 4510
" />
</g>
<g style="fill:#840000; fill-opacity:0.0; 
stroke:#840000; stroke-width:100; stroke-opacity:1; 
stroke-linecap:round; stroke-linejoin:round;">
</g>
<g style="fill:#840000; fill-opacity:0.0; 
stroke:#840000; stroke-width:60; stroke-opacity:1; 
stroke-linecap:round; stroke-linejoin:round;">
<path d="M112540 4050
L112440 4050
L112390 4070
L112370 4090
L112320 4170
L112300 4260
L112300 4460
L112320 4510
L112350 4530
L112390 4560
L112490 4560
L112540 4530
L112560 4510
L112590 4460
L112590 4340
L112560 4290
L112540 4260
L112490 4240
L112390 4240
L112350 4260
L112320 4290
L112300 4340
" />
</g>
<g style="fill:#840000; fill-opacity:0.0; 
stroke:#840000; stroke-width:100; stroke-opacity:1; 
stroke-linecap:round; stroke-linejoin:round;">
</g>
<g style="fill:#840000; fill-opacity:0.0; 
stroke:#840000; stroke-width:60; stroke-opacity:1; 
stroke-linecap:round; stroke-linejoin:round;">
<path d="M23620 77960
L23620 78740
" />
</g>
<g style="fill:#840000; fill-opacity:0.0; 
stroke:#840000; stroke-width:100; stroke-opacity:1; 
stroke-linecap:round; stroke-linejoin:round;">
</g>
<g style="fill:#840000; fill-opacity:0.0; 
stroke:#840000; stroke-width:60; stroke-opacity:1; 
stroke-linecap:round; stroke-linejoin:round;">
<path d="M43310 77960
L43310 78740
" />
</g>
<g style="fill:#840000; fill-opacity:0.0; 
stroke:#840000; stroke-width:100; stroke-opacity:1; 
stroke-linecap:round; stroke-linejoin:round;">
</g>
<g style="fill:#840000; fill-opacity:0.0; 
stroke:#840000; stroke-width:60; stroke-opacity:1; 
stroke-linecap:round; stroke-linejoin:round;">
<path d="M62990 77960
L62990 78740
" />
</g>
<g style="fill:#840000; fill-opacity:0.0; 
stroke:#840000; stroke-width:100; stroke-opacity:1; 
stroke-linecap:round; stroke-linejoin:round;">
</g>
<g style="fill:#840000; fill-opacity:0.0; 
stroke:#840000; stroke-width:60; stroke-opacity:1; 
stroke-linecap:round; stroke-linejoin:round;">
<path d="M82680 77960
L82680 78740
" />
</g>
<g style="fill:#840000; fill-opacity:0.0; 
stroke:#840000; stroke-width:100; stroke-opacity:1; 
stroke-linecap:round; stroke-linejoin:round;">
</g>
<g style="fill:#840000; fill-opacity:0.0; 
stroke:#840000; stroke-width:60; stroke-opacity:1; 
stroke-linecap:round; stroke-linejoin:round;">
<path d="M102360 77960
L102360 78740
" />
</g>
<g style="fill:#840000; fill-opacity:0.0; 
stroke:#840000; stroke-width:100; stroke-opacity:1; 
stroke-linecap:round; stroke-linejoin:round;">
</g>
<g style="fill:#840000; fill-opacity:0.0; 
stroke:#840000; stroke-width:60; stroke-opacity:1; 
stroke-linecap:round; stroke-linejoin:round;">
<path d="M14170 78580
L13880 78580
" />
<path d="M14020 78580
L14020 78070
L13970 78140
L13930 78190
L13880 78210
" />
</g>
<g style="fill:#840000; fill-opacity:0.0; 
stroke:#840000; stroke-width:100; stroke-opacity:1; 
stroke-linecap:round; stroke-linejoin:round;">
</g>
<g style="fill:#840000; fill-opacity:0.0; 
stroke:#840000; stroke-width:60; stroke-opacity:1; 
stroke-linecap:round; stroke-linejoin:round;">
<path d="M33560 78110
L33580 78090
L33630 78070
L33750 78070
L33800 78090
L33820 78110
L33850 78160
L33850 78210
L33820 78280
L33530 78580
L33850 78580
" />
</g>
<g style="fill:#840000; fill-opacity:0.0; 
stroke:#840000; stroke-width:100; stroke-opacity:1; 
stroke-linecap:round; stroke-linejoin:round;">
</g>
<g style="fill:#840000; fill-opacity:0.0; 
stroke:#840000; stroke-width:60; stroke-opacity:1; 
stroke-linecap:round; stroke-linejoin:round;">
<path d="M53220 78070
L53540 78070
L53370 78260
L53440 78260
L53490 78280
L53510 78310
L53540 78360
L53540 78480
L53510 78530
L53490 78550
L53440 78580
L53300 78580
L53250 78550
L53220 78530
" />
</g>
<g style="fill:#840000; fill-opacity:0.0; 
stroke:#840000; stroke-width:100; stroke-opacity:1; 
stroke-linecap:round; stroke-linejoin:round;">
</g>
<g style="fill:#840000; fill-opacity:0.0; 
stroke:#840000; stroke-width:60; stroke-opacity:1; 
stroke-linecap:round; stroke-linejoin:round;">
<path d="M73170 78240
L73170 78580
" />
<path d="M73050 78040
L72930 78410
L73240 78410
" />
</g>
<g style="fill:#840000; fill-opacity:0.0; 
stroke:#840000; stroke-width:100; stroke-opacity:1; 
stroke-linecap:round; stroke-linejoin:round;">
</g>
<g style="fill:#840000; fill-opacity:0.0; 
stroke:#840000; stroke-width:60; stroke-opacity:1; 
stroke-linecap:round; stroke-linejoin:round;">
<path d="M92880 78070
L92640 78070
L92620 78310
L92640 78280
L92690 78260
L92810 78260
L92860 78280
L92880 78310
L92910 78360
L92910 78480
L92880 78530
L92860 78550
L92810 78580
L92690 78580
L92640 78550
L92620 78530
" />
</g>
<g style="fill:#840000; fill-opacity:0.0; 
stroke:#840000; stroke-width:100; stroke-opacity:1; 
stroke-linecap:round; stroke-linejoin:round;">
</g>
<g style="fill:#840000; fill-opacity:0.0; 
stroke:#840000; stroke-width:60; stroke-opacity:1; 
stroke-linecap:round; stroke-linejoin:round;">
<path d="M112540 78070
L112440 78070
L112390 78090
L112370 78110
L112320 78190
L112300 78280
L112300 78480
L112320 78530
L112350 78550
L112390 78580
L112490 78580
L112540 78550
L112560 78530
L112590 78480
L112590 78360
L112560 78310
L112540 78280
L112490 78260
L112390 78260
L112350 78280
L112320 78310
L112300 78360
" />
</g>
<g style="fill:#840000; fill-opacity:0.0; 
stroke:#840000; stroke-width:100; stroke-opacity:1; 
stroke-linecap:round; stroke-linejoin:round;">
</g>
<g style="fill:#840000; fill-opacity:0.0; 
stroke:#840000; stroke-width:60; stroke-opacity:1; 
stroke-linecap:round; stroke-linejoin:round;">
<path d="M3940 23620
L4720 23620
" />
</g>
<g style="fill:#840000; fill-opacity:0.0; 
stroke:#840000; stroke-width:100; stroke-opacity:1; 
stroke-linecap:round; stroke-linejoin:round;">
</g>
<g style="fill:#840000; fill-opacity:0.0; 
stroke:#840000; stroke-width:60; stroke-opacity:1; 
stroke-linecap:round; stroke-linejoin:round;">
<path d="M3940 43310
L4720 43310
" />
</g>
<g style="fill:#840000; fill-opacity:0.0; 
stroke:#840000; stroke-width:100; stroke-opacity:1; 
stroke-linecap:round; stroke-linejoin:round;">
</g>
<g style="fill:#840000; fill-opacity:0.0; 
stroke:#840000; stroke-width:60; stroke-opacity:1; 
stroke-linecap:round; stroke-linejoin:round;">
<path d="M3940 62990
L4720 62990
" />
</g>
<g style="fill:#840000; fill-opacity:0.0; 
stroke:#840000; stroke-width:100; stroke-opacity:1; 
stroke-linecap:round; stroke-linejoin:round;">
</g>
<g style="fill:#840000; fill-opacity:0.0; 
stroke:#840000; stroke-width:60; stroke-opacity:1; 
stroke-linecap:round; stroke-linejoin:round;">
<path d="M4210 13860
L4450 13860
" />
<path d="M4160 14010
L4330 13500
L4500 14010
" />
</g>
<g style="fill:#840000; fill-opacity:0.0; 
stroke:#840000; stroke-width:100; stroke-opacity:1; 
stroke-linecap:round; stroke-linejoin:round;">
</g>
<g style="fill:#840000; fill-opacity:0.0; 
stroke:#840000; stroke-width:60; stroke-opacity:1; 
stroke-linecap:round; stroke-linejoin:round;">
<path d="M4370 33420
L4440 33440
L4470 33470
L4490 33520
L4490 33590
L4470 33640
L4440 33660
L4400 33690
L4200 33690
L4200 33180
L4370 33180
L4420 33200
L4440 33220
L4470 33270
L4470 33320
L4440 33370
L4420 33390
L4370 33420
L4200 33420
" />
</g>
<g style="fill:#840000; fill-opacity:0.0; 
stroke:#840000; stroke-width:100; stroke-opacity:1; 
stroke-linecap:round; stroke-linejoin:round;">
</g>
<g style="fill:#840000; fill-opacity:0.0; 
stroke:#840000; stroke-width:60; stroke-opacity:1; 
stroke-linecap:round; stroke-linejoin:round;">
<path d="M4490 53330
L4470 53350
L4400 53380
L4350 53380
L4270 53350
L4230 53300
L4200 53250
L4180 53160
L4180 53080
L4200 52990
L4230 52940
L4270 52890
L4350 52870
L4400 52870
L4470 52890
L4490 52910
" />
</g>
<g style="fill:#840000; fill-opacity:0.0; 
stroke:#840000; stroke-width:100; stroke-opacity:1; 
stroke-linecap:round; stroke-linejoin:round;">
</g>
<g style="fill:#840000; fill-opacity:0.0; 
stroke:#840000; stroke-width:60; stroke-opacity:1; 
stroke-linecap:round; stroke-linejoin:round;">
<path d="M4200 73060
L4200 72550
L4320 72550
L4400 72570
L4440 72620
L4470 72670
L4490 72760
L4490 72840
L4470 72930
L4440 72980
L4400 73030
L4320 73060
L4200 73060
" />
</g>
<g style="fill:#840000; fill-opacity:0.0; 
stroke:#840000; stroke-width:100; stroke-opacity:1; 
stroke-linecap:round; stroke-linejoin:round;">
</g>
<g style="fill:#840000; fill-opacity:0.0; 
stroke:#840000; stroke-width:60; stroke-opacity:1; 
stroke-linecap:round; stroke-linejoin:round;">
<path d="M112990 23620
L112210 23620
" />
</g>
<g style="fill:#840000; fill-opacity:0.0; 
stroke:#840000; stroke-width:100; stroke-opacity:1; 
stroke-linecap:round; stroke-linejoin:round;">
</g>
<g style="fill:#840000; fill-opacity:0.0; 
stroke:#840000; stroke-width:60; stroke-opacity:1; 
stroke-linecap:round; stroke-linejoin:round;">
<path d="M112990 43310
L112210 43310
" />
</g>
<g style="fill:#840000; fill-opacity:0.0; 
stroke:#840000; stroke-width:100; stroke-opacity:1; 
stroke-linecap:round; stroke-linejoin:round;">
</g>
<g style="fill:#840000; fill-opacity:0.0; 
stroke:#840000; stroke-width:60; stroke-opacity:1; 
stroke-linecap:round; stroke-linejoin:round;">
<path d="M112990 62990
L112210 62990
" />
</g>
<g style="fill:#840000; fill-opacity:0.0; 
stroke:#840000; stroke-width:100; stroke-opacity:1; 
stroke-linecap:round; stroke-linejoin:round;">
</g>
<g style="fill:#840000; fill-opacity:0.0; 
stroke:#840000; stroke-width:60; stroke-opacity:1; 
stroke-linecap:round; stroke-linejoin:round;">
<path d="M112480 13860
L112720 13860
" />
<path d="M112430 14010
L112600 13500
L112770 14010
" />
</g>
<g style="fill:#840000; fill-opacity:0.0; 
stroke:#840000; stroke-width:100; stroke-opacity:1; 
stroke-linecap:round; stroke-linejoin:round;">
</g>
<g style="fill:#840000; fill-opacity:0.0; 
stroke:#840000; stroke-width:60; stroke-opacity:1; 
stroke-linecap:round; stroke-linejoin:round;">
<path d="M112640 33420
L112710 33440
L112740 33470
L112760 33520
L112760 33590
L112740 33640
L112710 33660
L112670 33690
L112470 33690
L112470 33180
L112640 33180
L112690 33200
L112710 33220
L112740 33270
L112740 33320
L112710 33370
L112690 33390
L112640 33420
L112470 33420
" />
</g>
<g style="fill:#840000; fill-opacity:0.0; 
stroke:#840000; stroke-width:100; stroke-opacity:1; 
stroke-linecap:round; stroke-linejoin:round;">
</g>
<g style="fill:#840000; fill-opacity:0.0; 
stroke:#840000; stroke-width:60; stroke-opacity:1; 
stroke-linecap:round; stroke-linejoin:round;">
<path d="M112760 53330
L112740 53350
L112670 53380
L112620 53380
L112540 53350
L112500 53300
L112470 53250
L112450 53160
L112450 53080
L112470 52990
L112500 52940
L112540 52890
L112620 52870
L112670 52870
L112740 52890
L112760 52910
" />
</g>
<g style="fill:#840000; fill-opacity:0.0; 
stroke:#840000; stroke-width:100; stroke-opacity:1; 
stroke-linecap:round; stroke-linejoin:round;">
</g>
<g style="fill:#840000; fill-opacity:0.0; 
stroke:#840000; stroke-width:60; stroke-opacity:1; 
stroke-linecap:round; stroke-linejoin:round;">
<path d="M112470 73060
L112470 72550
L112590 72550
L112670 72570
L112710 72620
L112740 72670
L112760 72760
L112760 72840
L112740 72930
L112710 72980
L112670 73030
L112590 73060
L112470 73060
" />
</g>
<g style="fill:#840000; fill-opacity:0.0; 
stroke:#840000; stroke-width:100; stroke-opacity:1; 
stroke-linecap:round; stroke-linejoin:round;">
</g>
<g style="fill:#840000; fill-opacity:0.0; 
stroke:#840000; stroke-width:60; stroke-opacity:1; 
stroke-linecap:round; stroke-linejoin:round;">
<path d="M78880 76290
L78880 75700
L79020 75700
L79110 75730
L79160 75790
L79190 75840
L79220 75950
L79220 76040
L79190 76150
L79160 76210
L79110 76260
L79020 76290
L78880 76290
" />
<path d="M79720 76290
L79720 75980
L79700 75930
L79640 75900
L79530 75900
L79470 75930
" />
<path d="M79720 76260
L79670 76290
L79530 76290
L79470 76260
L79440 76210
L79440 76150
L79470 76100
L79530 76070
L79670 76070
L79720 76040
" />
<path d="M79920 75900
L80140 75900
" />
<path d="M80000 75700
L80000 76210
L80030 76260
L80080 76290
L80140 76290
" />
<path d="M80570 76260
L80510 76290
L80400 76290
L80340 76260
L80310 76210
L80310 75980
L80340 75930
L80400 75900
L80510 75900
L80570 75930
L80590 75980
L80590 76040
L80310 76100
" />
<path d="M80850 76240
L80880 76260
L80850 76290
L80820 76260
L80850 76240
L80850 76290
" />
<path d="M80850 75930
L80880 75950
L80850 75980
L80820 75950
L80850 75930
L80850 75980
" />
<path d="M81550 75760
L81580 75730
L81640 75700
L81780 75700
L81830 75730
L81860 75760
L81890 75810
L81890 75870
L81860 75950
L81520 76290
L81890 76290
" />
<path d="M82080 75700
L82480 75700
L82220 76290
" />
<path d="M83120 76260
L83180 76290
L83290 76290
L83350 76260
L83380 76210
L83380 76180
L83350 76120
L83290 76100
L83210 76100
L83150 76070
L83120 76010
L83120 75980
L83150 75930
L83210 75900
L83290 75900
L83350 75930
" />
<path d="M83860 76260
L83800 76290
L83690 76290
L83630 76260
L83600 76210
L83600 75980
L83630 75930
L83690 75900
L83800 75900
L83860 75930
L83880 75980
L83880 76040
L83600 76100
" />
<path d="M84140 75900
L84140 76490
" />
<path d="M84140 75930
L84200 75900
L84310 75900
L84370 75930
L84390 75950
L84420 76010
L84420 76180
L84390 76240
L84370 76260
L84310 76290
L84200 76290
L84140 76260
" />
<path d="M85090 75760
L85120 75730
L85180 75700
L85320 75700
L85370 75730
L85400 75760
L85430 75810
L85430 75870
L85400 75950
L85060 76290
L85430 76290
" />
<path d="M85790 75700
L85850 75700
L85910 75730
L85930 75760
L85960 75810
L85990 75930
L85990 76070
L85960 76180
L85930 76240
L85910 76260
L85850 76290
L85790 76290
L85740 76260
L85710 76240
L85680 76180
L85650 76070
L85650 75930
L85680 75810
L85710 75760
L85740 75730
L85790 75700
" />
<path d="M86550 76290
L86210 76290
" />
<path d="M86380 76290
L86380 75700
L86320 75790
L86270 75840
L86210 75870
" />
<path d="M87050 75900
L87050 76290
" />
<path d="M86910 75670
L86770 76100
L87140 76100
" />
</g>
<g style="fill:#840000; fill-opacity:0.0; 
stroke:#840000; stroke-width:100; stroke-opacity:1; 
stroke-linecap:round; stroke-linejoin:round;">
</g>
<g style="fill:#840000; fill-opacity:0.0; 
stroke:#840000; stroke-width:60; stroke-opacity:1; 
stroke-linecap:round; stroke-linejoin:round;">
<path d="M69690 76580
L112210 76580
" />
</g>
<g style="fill:#840000; fill-opacity:0.0; 
stroke:#840000; stroke-width:100; stroke-opacity:1; 
stroke-linecap:round; stroke-linejoin:round;">
</g>
<g style="fill:#840000; fill-opacity:0.0; 
stroke:#840000; stroke-width:60; stroke-opacity:1; 
stroke-linecap:round; stroke-linejoin:round;">
<path d="M70220 77390
L70220 76800
" />
<path d="M70560 77390
L70300 77050
" />
<path d="M70560 76800
L70220 77140
" />
<path d="M70810 77390
L70810 77000
" />
<path d="M70810 76800
L70780 76830
L70810 76860
L70840 76830
L70810 76800
L70810 76860
" />
<path d="M71430 77340
L71400 77360
L71320 77390
L71260 77390
L71170 77360
L71120 77310
L71090 77250
L71060 77140
L71060 77050
L71090 76940
L71120 76890
L71170 76830
L71260 76800
L71320 76800
L71400 76830
L71430 76860
" />
<path d="M71930 77390
L71930 77080
L71910 77030
L71850 77000
L71740 77000
L71680 77030
" />
<path d="M71930 77360
L71880 77390
L71740 77390
L71680 77360
L71650 77310
L71650 77250
L71680 77200
L71740 77170
L71880 77170
L71930 77140
" />
<path d="M72460 77390
L72460 76800
" />
<path d="M72460 77360
L72410 77390
L72290 77390
L72240 77360
L72210 77340
L72180 77280
L72180 77110
L72210 77050
L72240 77030
L72290 77000
L72410 77000
L72460 77030
" />
<path d="M73190 77080
L73390 77080
" />
<path d="M73470 77390
L73190 77390
L73190 76800
L73470 76800
" />
<path d="M73720 77340
L73750 77360
L73720 77390
L73690 77360
L73720 77340
L73720 77390
" />
<path d="M74000 77390
L74000 76800
L74140 76800
L74230 76830
L74280 76890
L74310 76940
L74340 77050
L74340 77140
L74310 77250
L74280 77310
L74230 77360
L74140 77390
L74000 77390
" />
<path d="M74590 77340
L74620 77360
L74590 77390
L74560 77360
L74590 77340
L74590 77390
" />
<path d="M74840 77220
L75120 77220
" />
<path d="M74790 77390
L74980 76800
L75180 77390
" />
<path d="M75380 77340
L75410 77360
L75380 77390
L75350 77360
L75380 77340
L75380 77390
" />
<path d="M76560 77390
L76560 76800
" />
<path d="M76620 77170
L76790 77390
" />
<path d="M76790 77000
L76560 77220
" />
<path d="M77040 77390
L77040 77000
" />
<path d="M77040 76800
L77010 76830
L77040 76860
L77070 76830
L77040 76800
L77040 76860
" />
<path d="M77570 77360
L77520 77390
L77400 77390
L77350 77360
L77320 77340
L77290 77280
L77290 77110
L77320 77050
L77350 77030
L77400 77000
L77520 77000
L77570 77030
" />
<path d="M78080 77390
L78080 77080
L78060 77030
L78000 77000
L77890 77000
L77830 77030
" />
<path d="M78080 77360
L78030 77390
L77890 77390
L77830 77360
L77800 77310
L77800 77250
L77830 77200
L77890 77170
L78030 77170
L78080 77140
" />
<path d="M78610 77390
L78610 76800
" />
<path d="M78610 77360
L78560 77390
L78440 77390
L78390 77360
L78360 77340
L78330 77280
L78330 77110
L78360 77050
L78390 77030
L78440 77000
L78560 77000
L78610 77030
" />
<path d="M79510 77620
L79480 77590
L79420 77500
L79400 77450
L79370 77360
L79340 77220
L79340 77110
L79370 76970
L79400 76890
L79420 76830
L79480 76750
L79510 76720
" />
<path d="M79700 76860
L79730 76830
L79790 76800
L79930 76800
L79980 76830
L80010 76860
L80040 76910
L80040 76970
L80010 77050
L79670 77390
L80040 77390
" />
<path d="M80400 76800
L80460 76800
L80520 76830
L80540 76860
L80570 76910
L80600 77030
L80600 77170
L80570 77280
L80540 77340
L80520 77360
L80460 77390
L80400 77390
L80350 77360
L80320 77340
L80290 77280
L80260 77170
L80260 77030
L80290 76910
L80320 76860
L80350 76830
L80400 76800
" />
<path d="M81160 77390
L80820 77390
" />
<path d="M80990 77390
L80990 76800
L80930 76890
L80880 76940
L80820 76970
" />
<path d="M81690 76800
L81410 76800
L81380 77080
L81410 77050
L81470 77030
L81610 77030
L81660 77050
L81690 77080
L81720 77140
L81720 77280
L81690 77340
L81660 77360
L81610 77390
L81470 77390
L81410 77360
L81380 77340
" />
<path d="M81970 77170
L82420 77170
" />
<path d="M82810 76800
L82870 76800
L82930 76830
L82950 76860
L82980 76910
L83010 77030
L83010 77170
L82980 77280
L82950 77340
L82930 77360
L82870 77390
L82810 77390
L82760 77360
L82730 77340
L82700 77280
L82670 77170
L82670 77030
L82700 76910
L82730 76860
L82760 76830
L82810 76800
" />
<path d="M83540 76800
L83260 76800
L83230 77080
L83260 77050
L83320 77030
L83460 77030
L83510 77050
L83540 77080
L83570 77140
L83570 77280
L83540 77340
L83510 77360
L83460 77390
L83320 77390
L83260 77360
L83230 77340
" />
<path d="M83820 77170
L84270 77170
" />
<path d="M84860 77390
L84520 77390
" />
<path d="M84690 77390
L84690 76800
L84630 76890
L84580 76940
L84520 76970
" />
<path d="M85190 77050
L85140 77030
L85110 77000
L85080 76940
L85080 76910
L85110 76860
L85140 76830
L85190 76800
L85310 76800
L85360 76830
L85390 76860
L85420 76910
L85420 76940
L85390 77000
L85360 77030
L85310 77050
L85190 77050
L85140 77080
L85110 77110
L85080 77170
L85080 77280
L85110 77340
L85140 77360
L85190 77390
L85310 77390
L85360 77360
L85390 77340
L85420 77280
L85420 77170
L85390 77110
L85360 77080
L85310 77050
" />
<path d="M86320 77080
L86400 77110
L86430 77140
L86460 77200
L86460 77280
L86430 77340
L86400 77360
L86350 77390
L86120 77390
L86120 76800
L86320 76800
L86370 76830
L86400 76860
L86430 76910
L86430 76970
L86400 77030
L86370 77050
L86320 77080
L86120 77080
" />
<path d="M86650 76800
L87050 76800
L86650 77390
L87050 77390
" />
<path d="M87610 77390
L87410 77110
" />
<path d="M87270 77390
L87270 76800
L87500 76800
L87550 76830
L87580 76860
L87610 76910
L87610 77000
L87580 77050
L87550 77080
L87500 77110
L87270 77110
" />
<path d="M88590 76800
L88310 76800
L88280 77080
L88310 77050
L88370 77030
L88510 77030
L88560 77050
L88590 77080
L88620 77140
L88620 77280
L88590 77340
L88560 77360
L88510 77390
L88370 77390
L88310 77360
L88280 77340
" />
<path d="M89120 76800
L89010 76800
L88950 76830
L88930 76860
L88870 76940
L88840 77050
L88840 77280
L88870 77340
L88900 77360
L88950 77390
L89070 77390
L89120 77360
L89150 77340
L89180 77280
L89180 77140
L89150 77080
L89120 77050
L89070 77030
L88950 77030
L88900 77050
L88870 77080
L88840 77140
" />
<path d="M89680 76800
L89570 76800
L89510 76830
L89490 76860
L89430 76940
L89400 77050
L89400 77280
L89430 77340
L89460 77360
L89510 77390
L89630 77390
L89680 77360
L89710 77340
L89740 77280
L89740 77140
L89710 77080
L89680 77050
L89630 77030
L89510 77030
L89460 77050
L89430 77080
L89400 77140
" />
<path d="M90070 77050
L90020 77030
L89990 77000
L89960 76940
L89960 76910
L89990 76860
L90020 76830
L90070 76800
L90190 76800
L90240 76830
L90270 76860
L90300 76910
L90300 76940
L90270 77000
L90240 77030
L90190 77050
L90070 77050
L90020 77080
L89990 77110
L89960 77170
L89960 77280
L89990 77340
L90020 77360
L90070 77390
L90190 77390
L90240 77360
L90270 77340
L90300 77280
L90300 77170
L90270 77110
L90240 77080
L90190 77050
" />
<path d="M90490 77620
L90520 77590
L90580 77500
L90610 77450
L90630 77360
L90660 77220
L90660 77110
L90630 76970
L90610 76890
L90580 76830
L90520 76750
L90490 76720
" />
<path d="M90940 77170
L91390 77170
" />
<path d="M91670 77000
L91670 77590
" />
<path d="M91670 77030
L91730 77000
L91840 77000
L91900 77030
L91920 77050
L91950 77110
L91950 77280
L91920 77340
L91900 77360
L91840 77390
L91730 77390
L91670 77360
" />
<path d="M92200 77390
L92200 77000
" />
<path d="M92200 77110
L92230 77050
L92260 77030
L92310 77000
L92370 77000
" />
<path d="M92650 77390
L92600 77360
L92570 77340
L92540 77280
L92540 77110
L92570 77050
L92600 77030
L92650 77000
L92740 77000
L92800 77030
L92820 77050
L92850 77110
L92850 77280
L92820 77340
L92800 77360
L92740 77390
L92650 77390
" />
<path d="M93350 77390
L93350 76800
" />
<path d="M93350 77360
L93300 77390
L93180 77390
L93130 77360
L93100 77340
L93070 77280
L93070 77110
L93100 77050
L93130 77030
L93180 77000
L93300 77000
L93350 77030
" />
<path d="M93880 77000
L93880 77390
" />
<path d="M93630 77000
L93630 77310
L93660 77360
L93710 77390
L93800 77390
L93860 77360
L93880 77340
" />
<path d="M94410 77360
L94360 77390
L94240 77390
L94190 77360
L94160 77340
L94130 77280
L94130 77110
L94160 77050
L94190 77030
L94240 77000
L94360 77000
L94410 77030
" />
<path d="M94590 77000
L94810 77000
" />
<path d="M94670 76800
L94670 77310
L94700 77360
L94750 77390
L94810 77390
" />
</g>
<g style="fill:#840000; fill-opacity:0.0; 
stroke:#840000; stroke-width:100; stroke-opacity:1; 
stroke-linecap:round; stroke-linejoin:round;">
</g>
<g style="fill:#840000; fill-opacity:0.0; 
stroke:#840000; stroke-width:60; stroke-opacity:1; 
stroke-linecap:round; stroke-linejoin:round;">
<path d="M69690 75400
L112210 75400
" />
</g>
<g style="fill:#840000; fill-opacity:0.0; 
stroke:#840000; stroke-width:100; stroke-opacity:1; 
stroke-linecap:round; stroke-linejoin:round;">
</g>
<g style="fill:#840000; fill-opacity:0.0; 
stroke:#840000; stroke-width:120; stroke-opacity:1; 
stroke-linecap:round; stroke-linejoin:round;">
<path d="M104020 76290
L103820 76010
" />
<path d="M103680 76290
L103680 75700
L103910 75700
L103960 75730
L103990 75760
L104020 75810
L104020 75900
L103990 75950
L103960 75980
L103910 76010
L103680 76010
" />
<path d="M104500 76260
L104440 76290
L104330 76290
L104270 76260
L104240 76210
L104240 75980
L104270 75930
L104330 75900
L104440 75900
L104500 75930
L104520 75980
L104520 76040
L104240 76100
" />
<path d="M104720 75900
L104860 76290
L105010 75900
" />
<path d="M105230 76240
L105260 76260
L105230 76290
L105200 76260
L105230 76240
L105230 76290
" />
<path d="M105230 75930
L105260 75950
L105230 75980
L105200 75950
L105230 75930
L105230 75980
" />
</g>
<g style="fill:#840000; fill-opacity:0.0; 
stroke:#840000; stroke-width:100; stroke-opacity:1; 
stroke-linecap:round; stroke-linejoin:round;">
</g>
<g style="fill:#840000; fill-opacity:0.0; 
stroke:#840000; stroke-width:60; stroke-opacity:1; 
stroke-linecap:round; stroke-linejoin:round;">
<path d="M70190 76260
L70280 76290
L70420 76290
L70470 76260
L70500 76240
L70530 76180
L70530 76120
L70500 76070
L70470 76040
L70420 76010
L70300 75980
L70250 75950
L70220 75930
L70190 75870
L70190 75810
L70220 75760
L70250 75730
L70300 75700
L70450 75700
L70530 75730
" />
<path d="M70780 76290
L70780 75900
" />
<path d="M70780 75700
L70750 75730
L70780 75760
L70810 75730
L70780 75700
L70780 75760
" />
<path d="M71000 75900
L71310 75900
L71000 76290
L71310 76290
" />
<path d="M71770 76260
L71710 76290
L71600 76290
L71540 76260
L71510 76210
L71510 75980
L71540 75930
L71600 75900
L71710 75900
L71770 75930
L71790 75980
L71790 76040
L71510 76100
" />
<path d="M72050 76240
L72080 76260
L72050 76290
L72020 76260
L72050 76240
L72050 76290
" />
<path d="M72050 75930
L72080 75950
L72050 75980
L72020 75950
L72050 75930
L72050 75980
" />
<path d="M72750 76120
L73030 76120
" />
<path d="M72700 76290
L72890 75700
L73090 76290
" />
<path d="M73540 75900
L73540 76290
" />
<path d="M73400 75670
L73260 76100
L73630 76100
" />
</g>
<g style="fill:#840000; fill-opacity:0.0; 
stroke:#840000; stroke-width:100; stroke-opacity:1; 
stroke-linecap:round; stroke-linejoin:round;">
</g>
<g style="fill:#840000; fill-opacity:0.0; 
stroke:#840000; stroke-width:60; stroke-opacity:1; 
stroke-linecap:round; stroke-linejoin:round;">
<path d="M103680 77390
L103680 76800
" />
<path d="M104210 77390
L104210 76800
" />
<path d="M104210 77360
L104160 77390
L104040 77390
L103990 77360
L103960 77340
L103930 77280
L103930 77110
L103960 77050
L103990 77030
L104040 77000
L104160 77000
L104210 77030
" />
<path d="M104490 77340
L104520 77360
L104490 77390
L104460 77360
L104490 77340
L104490 77390
" />
<path d="M104490 77030
L104520 77050
L104490 77080
L104460 77050
L104490 77030
L104490 77080
" />
<path d="M105160 76800
L105530 76800
L105330 77030
L105420 77030
L105470 77050
L105500 77080
L105530 77140
L105530 77280
L105500 77340
L105470 77360
L105420 77390
L105250 77390
L105190 77360
L105160 77340
" />
<path d="M106200 76770
L105700 77530
" />
<path d="M106340 76800
L106740 76800
L106480 77390
" />
</g>
<g style="fill:#840000; fill-opacity:0.0; 
stroke:#840000; stroke-width:100; stroke-opacity:1; 
stroke-linecap:round; stroke-linejoin:round;">
</g>
<g style="fill:#840000; fill-opacity:0.0; 
stroke:#840000; stroke-width:60; stroke-opacity:1; 
stroke-linecap:round; stroke-linejoin:round;">
<path d="M69690 73820
L112210 73820
" />
</g>
<g style="fill:#840000; fill-opacity:0.0; 
stroke:#840000; stroke-width:100; stroke-opacity:1; 
stroke-linecap:round; stroke-linejoin:round;">
</g>
<g style="fill:#840000; fill-opacity:0.0; 
stroke:#840000; stroke-width:160; stroke-opacity:1; 
stroke-linecap:round; stroke-linejoin:round;">
<path d="M70260 74090
L70710 74090
" />
<path d="M70390 74880
L70480 74090
" />
<path d="M70880 74880
L70940 74360
" />
<path d="M70970 74090
L70930 74130
L70960 74170
L71010 74130
L70970 74090
L70960 74170
" />
<path d="M71210 74360
L71510 74360
" />
<path d="M71350 74090
L71270 74770
L71300 74840
L71370 74880
L71450 74880
" />
<path d="M71820 74880
L71750 74840
L71720 74770
L71800 74090
" />
<path d="M72420 74840
L72340 74880
L72190 74880
L72120 74840
L72090 74770
L72130 74470
L72180 74390
L72250 74360
L72400 74360
L72480 74390
L72510 74470
L72500 74540
L72110 74620
" />
<path d="M72800 74810
L72840 74840
L72800 74880
L72760 74840
L72800 74810
L72800 74880
" />
<path d="M72860 74390
L72890 74430
L72850 74470
L72810 74430
L72860 74390
L72850 74470
" />
<path d="M73780 74880
L73870 74090
L74230 74880
L74320 74090
" />
<path d="M74590 74090
L75040 74090
" />
<path d="M74720 74880
L74810 74090
" />
<path d="M75660 74810
L75620 74840
L75510 74880
L75430 74880
L75320 74840
L75260 74770
L75230 74690
L75210 74540
L75220 74430
L75280 74280
L75330 74210
L75410 74130
L75520 74090
L75600 74090
L75710 74130
L75740 74170
" />
<path d="M76600 74880
L76660 74360
" />
<path d="M76640 74510
L76690 74430
L76730 74390
L76810 74360
L76880 74360
" />
<path d="M77390 74840
L77310 74880
L77160 74880
L77090 74840
L77060 74770
L77100 74470
L77150 74390
L77220 74360
L77370 74360
L77450 74390
L77480 74470
L77470 74540
L77080 74620
" />
<path d="M77730 74840
L77810 74880
L77960 74880
L78030 74840
L78080 74770
L78080 74730
L78050 74660
L77990 74620
L77870 74620
L77800 74580
L77770 74510
L77780 74470
L77830 74390
L77900 74360
L78020 74360
L78090 74390
" />
<path d="M78410 74880
L78470 74360
" />
<path d="M78500 74090
L78460 74130
L78490 74170
L78540 74130
L78500 74090
L78490 74170
" />
<path d="M78750 74840
L78830 74880
L78980 74880
L79050 74840
L79100 74770
L79100 74730
L79070 74660
L79010 74620
L78890 74620
L78820 74580
L78790 74510
L78800 74470
L78850 74390
L78920 74360
L79040 74360
L79110 74390
" />
<path d="M79380 74360
L79680 74360
" />
<path d="M79520 74090
L79440 74770
L79470 74840
L79540 74880
L79620 74880
" />
<path d="M79990 74880
L79920 74840
L79880 74810
L79850 74730
L79880 74510
L79930 74430
L79980 74390
L80050 74360
L80160 74360
L80240 74390
L80270 74430
L80290 74510
L80260 74730
L80220 74810
L80180 74840
L80100 74880
L79990 74880
" />
<path d="M80590 74880
L80650 74360
" />
<path d="M80630 74510
L80680 74430
L80720 74390
L80800 74360
L80870 74360
" />
<path d="M81630 74360
L81930 74360
" />
<path d="M81770 74090
L81690 74770
L81720 74840
L81790 74880
L81870 74880
" />
<path d="M82430 74840
L82350 74880
L82200 74880
L82130 74840
L82100 74770
L82140 74470
L82190 74390
L82260 74360
L82410 74360
L82490 74390
L82520 74470
L82510 74540
L82120 74620
" />
<path d="M82810 74880
L82870 74360
" />
<path d="M82860 74430
L82910 74390
L82980 74360
L83090 74360
L83170 74390
L83200 74470
L83150 74880
" />
<path d="M83200 74470
L83240 74390
L83320 74360
L83430 74360
L83510 74390
L83540 74470
L83490 74880
" />
<path d="M83920 74360
L83820 75150
" />
<path d="M83920 74390
L83990 74360
L84140 74360
L84220 74390
L84250 74430
L84270 74510
L84240 74730
L84200 74810
L84160 74840
L84080 74880
L83930 74880
L83860 74840
" />
<path d="M84870 74840
L84790 74880
L84640 74880
L84570 74840
L84540 74770
L84580 74470
L84630 74390
L84700 74360
L84850 74360
L84930 74390
L84960 74470
L84950 74540
L84560 74620
" />
<path d="M85250 74880
L85310 74360
" />
<path d="M85290 74510
L85340 74430
L85380 74390
L85460 74360
L85530 74360
" />
<path d="M86080 74880
L86130 74470
L86100 74390
L86020 74360
L85870 74360
L85800 74390
" />
<path d="M86080 74840
L86000 74880
L85810 74880
L85740 74840
L85710 74770
L85720 74690
L85770 74620
L85840 74580
L86030 74580
L86120 74540
" />
<path d="M86400 74360
L86700 74360
" />
<path d="M86540 74090
L86460 74770
L86490 74840
L86560 74880
L86640 74880
" />
<path d="M87300 74360
L87240 74880
" />
<path d="M86960 74360
L86910 74770
L86940 74840
L87010 74880
L87120 74880
L87200 74840
L87240 74810
" />
<path d="M87610 74880
L87670 74360
" />
<path d="M87650 74510
L87700 74430
L87740 74390
L87820 74360
L87890 74360
" />
<path d="M88400 74840
L88320 74880
L88170 74880
L88100 74840
L88070 74770
L88110 74470
L88160 74390
L88230 74360
L88380 74360
L88460 74390
L88490 74470
L88480 74540
L88090 74620
" />
<path d="M89340 74840
L89420 74880
L89570 74880
L89640 74840
L89690 74770
L89690 74730
L89660 74660
L89600 74620
L89480 74620
L89410 74580
L89380 74510
L89390 74470
L89440 74390
L89510 74360
L89630 74360
L89700 74390
" />
<path d="M90320 74840
L90240 74880
L90090 74880
L90020 74840
L89990 74770
L90030 74470
L90080 74390
L90150 74360
L90300 74360
L90380 74390
L90410 74470
L90400 74540
L90010 74620
" />
<path d="M90760 74360
L90700 74880
" />
<path d="M90750 74430
L90800 74390
L90870 74360
L90980 74360
L91060 74390
L91090 74470
L91040 74880
" />
<path d="M91370 74840
L91450 74880
L91600 74880
L91670 74840
L91720 74770
L91720 74730
L91690 74660
L91630 74620
L91510 74620
L91440 74580
L91410 74510
L91420 74470
L91470 74390
L91540 74360
L91660 74360
L91730 74390
" />
<path d="M92160 74880
L92090 74840
L92050 74810
L92020 74730
L92050 74510
L92100 74430
L92150 74390
L92220 74360
L92330 74360
L92410 74390
L92440 74430
L92460 74510
L92430 74730
L92390 74810
L92350 74840
L92270 74880
L92160 74880
" />
<path d="M92760 74880
L92820 74360
" />
<path d="M92800 74510
L92850 74430
L92890 74390
L92970 74360
L93040 74360
" />
</g>
<g style="fill:#840000; fill-opacity:0.0; 
stroke:#840000; stroke-width:100; stroke-opacity:1; 
stroke-linecap:round; stroke-linejoin:round;">
</g>
<g style="fill:#840000; fill-opacity:0.0; 
stroke:#840000; stroke-width:60; stroke-opacity:1; 
stroke-linecap:round; stroke-linejoin:round;">
<path d="M70420 73060
L70220 73060
" />
<path d="M70220 73370
L70220 72780
L70500 72780
" />
<path d="M70730 73370
L70730 72980
" />
<path d="M70730 72780
L70700 72810
L70730 72840
L70760 72810
L70730 72780
L70730 72840
" />
<path d="M71090 73370
L71040 73340
L71010 73290
L71010 72780
" />
<path d="M71550 73340
L71490 73370
L71380 73370
L71320 73340
L71290 73290
L71290 73060
L71320 73010
L71380 72980
L71490 72980
L71550 73010
L71570 73060
L71570 73120
L71290 73180
" />
<path d="M71830 73320
L71860 73340
L71830 73370
L71800 73340
L71830 73320
L71830 73370
" />
<path d="M71830 73010
L71860 73030
L71830 73060
L71800 73030
L71830 73010
L71830 73060
" />
<path d="M72480 72980
L72700 72980
" />
<path d="M72560 72780
L72560 73290
L72590 73340
L72640 73370
L72700 73370
" />
<path d="M73130 73340
L73070 73370
L72960 73370
L72900 73340
L72870 73290
L72870 73060
L72900 73010
L72960 72980
L73070 72980
L73130 73010
L73150 73060
L73150 73120
L72870 73180
" />
<path d="M73410 73370
L73410 72980
" />
<path d="M73410 73030
L73440 73010
L73490 72980
L73580 72980
L73640 73010
L73660 73060
L73660 73370
" />
<path d="M73660 73060
L73690 73010
L73750 72980
L73830 72980
L73890 73010
L73920 73060
L73920 73370
" />
<path d="M74200 72980
L74200 73570
" />
<path d="M74200 73010
L74260 72980
L74370 72980
L74430 73010
L74450 73030
L74480 73090
L74480 73260
L74450 73320
L74430 73340
L74370 73370
L74260 73370
L74200 73340
" />
<path d="M74730 73320
L74760 73340
L74730 73370
L74700 73340
L74730 73320
L74730 73370
" />
<path d="M74980 73340
L75040 73370
L75150 73370
L75210 73340
L75240 73290
L75240 73260
L75210 73200
L75150 73180
L75070 73180
L75010 73150
L74980 73090
L74980 73060
L75010 73010
L75070 72980
L75150 72980
L75210 73010
" />
<path d="M75740 73340
L75690 73370
L75570 73370
L75520 73340
L75490 73320
L75460 73260
L75460 73090
L75490 73030
L75520 73010
L75570 72980
L75690 72980
L75740 73010
" />
<path d="M76000 73370
L76000 72780
" />
<path d="M76250 73370
L76250 73060
L76230 73010
L76170 72980
L76080 72980
L76030 73010
L76000 73030
" />
</g>
<g style="fill:#840000; fill-opacity:0.0; 
stroke:#840000; stroke-width:100; stroke-opacity:1; 
stroke-linecap:round; stroke-linejoin:round;">
</g>
<g style="fill:#840000; fill-opacity:0.0; 
stroke:#840000; stroke-width:60; stroke-opacity:1; 
stroke-linecap:round; stroke-linejoin:round;">
<path d="M69690 71460
L112210 71460
" />
</g>
<g style="fill:#840000; fill-opacity:0.0; 
stroke:#840000; stroke-width:100; stroke-opacity:1; 
stroke-linecap:round; stroke-linejoin:round;">
</g>
<g style="fill:#840000; fill-opacity:0.0; 
stroke:#840000; stroke-width:60; stroke-opacity:1; 
stroke-linecap:round; stroke-linejoin:round;">
<path d="M70190 72280
L70280 72310
L70420 72310
L70470 72280
L70500 72260
L70530 72200
L70530 72140
L70500 72090
L70470 72060
L70420 72030
L70300 72000
L70250 71970
L70220 71950
L70190 71890
L70190 71830
L70220 71780
L70250 71750
L70300 71720
L70450 71720
L70530 71750
" />
<path d="M70780 72310
L70780 71720
" />
<path d="M71030 72310
L71030 72000
L71010 71950
L70950 71920
L70860 71920
L70810 71950
L70780 71970
" />
<path d="M71540 72280
L71480 72310
L71370 72310
L71310 72280
L71280 72230
L71280 72000
L71310 71950
L71370 71920
L71480 71920
L71540 71950
L71560 72000
L71560 72060
L71280 72120
" />
<path d="M72050 72280
L71990 72310
L71880 72310
L71820 72280
L71790 72230
L71790 72000
L71820 71950
L71880 71920
L71990 71920
L72050 71950
L72070 72000
L72070 72060
L71790 72120
" />
<path d="M72250 71920
L72470 71920
" />
<path d="M72330 71720
L72330 72230
L72360 72280
L72410 72310
L72470 72310
" />
<path d="M72670 72260
L72700 72280
L72670 72310
L72640 72280
L72670 72260
L72670 72310
" />
<path d="M72670 71950
L72700 71970
L72670 72000
L72640 71970
L72670 71950
L72670 72000
" />
<path d="M73820 71690
L73320 72450
" />
<path d="M74020 72310
L74020 71720
L74360 72310
L74360 71720
" />
<path d="M74560 71720
L74890 71720
" />
<path d="M74720 72310
L74720 71720
" />
<path d="M75430 72260
L75400 72280
L75320 72310
L75260 72310
L75170 72280
L75120 72230
L75090 72170
L75060 72060
L75060 71970
L75090 71860
L75120 71810
L75170 71750
L75260 71720
L75320 71720
L75400 71750
L75430 71780
" />
<path d="M76050 71920
L76270 71920
" />
<path d="M76130 71720
L76130 72230
L76160 72280
L76210 72310
L76270 72310
" />
<path d="M76700 72280
L76640 72310
L76530 72310
L76470 72280
L76440 72230
L76440 72000
L76470 71950
L76530 71920
L76640 71920
L76700 71950
L76720 72000
L76720 72060
L76440 72120
" />
<path d="M76980 72310
L76980 71920
" />
<path d="M76980 71970
L77010 71950
L77060 71920
L77150 71920
L77210 71950
L77230 72000
L77230 72310
" />
<path d="M77230 72000
L77260 71950
L77320 71920
L77400 71920
L77460 71950
L77490 72000
L77490 72310
" />
<path d="M77770 71920
L77770 72510
" />
<path d="M77770 71950
L77830 71920
L77940 71920
L78000 71950
L78020 71970
L78050 72030
L78050 72200
L78020 72260
L78000 72280
L77940 72310
L77830 72310
L77770 72280
" />
<path d="M78720 72280
L78780 72310
L78890 72310
L78950 72280
L78980 72230
L78980 72200
L78950 72140
L78890 72120
L78810 72120
L78750 72090
L78720 72030
L78720 72000
L78750 71950
L78810 71920
L78890 71920
L78950 71950
" />
<path d="M79460 72280
L79400 72310
L79290 72310
L79230 72280
L79200 72230
L79200 72000
L79230 71950
L79290 71920
L79400 71920
L79460 71950
L79480 72000
L79480 72060
L79200 72120
" />
<path d="M79740 71920
L79740 72310
" />
<path d="M79740 71970
L79770 71950
L79820 71920
L79910 71920
L79970 71950
L79990 72000
L79990 72310
" />
<path d="M80240 72280
L80300 72310
L80410 72310
L80470 72280
L80500 72230
L80500 72200
L80470 72140
L80410 72120
L80330 72120
L80270 72090
L80240 72030
L80240 72000
L80270 71950
L80330 71920
L80410 71920
L80470 71950
" />
<path d="M80830 72310
L80780 72280
L80750 72260
L80720 72200
L80720 72030
L80750 71970
L80780 71950
L80830 71920
L80920 71920
L80980 71950
L81000 71970
L81030 72030
L81030 72200
L81000 72260
L80980 72280
L80920 72310
L80830 72310
" />
<path d="M81280 72310
L81280 71920
" />
<path d="M81280 72030
L81310 71970
L81340 71950
L81390 71920
L81450 71920
" />
<path d="M82070 71690
L81570 72450
" />
</g>
<g style="fill:#840000; fill-opacity:0.0; 
stroke:#840000; stroke-width:100; stroke-opacity:1; 
stroke-linecap:round; stroke-linejoin:round;">
</g>
<g style="fill:#840000; fill-opacity:0.0; 
stroke:#840000; stroke-width:120; stroke-opacity:1; 
stroke-linecap:round; stroke-linejoin:round;">
<path d="M70220 71130
L70220 70540
L70420 70960
L70610 70540
L70610 71130
" />
<path d="M70890 71130
L70890 70740
" />
<path d="M70890 70850
L70920 70790
L70950 70770
L71000 70740
L71060 70740
" />
<path d="M71260 71130
L71260 70540
" />
<path d="M71320 70910
L71490 71130
" />
<path d="M71490 70740
L71260 70960
" />
<path d="M72190 71130
L72190 70540
" />
<path d="M72470 70740
L72470 71130
" />
<path d="M72470 70790
L72500 70770
L72550 70740
L72640 70740
L72700 70770
L72720 70820
L72720 71130
" />
<path d="M73250 71130
L73250 70540
" />
<path d="M73250 71100
L73200 71130
L73080 71130
L73030 71100
L73000 71080
L72970 71020
L72970 70850
L73000 70790
L73030 70770
L73080 70740
L73200 70740
L73250 70770
" />
<path d="M73780 70740
L73780 71130
" />
<path d="M73530 70740
L73530 71050
L73560 71100
L73610 71130
L73700 71130
L73760 71100
L73780 71080
" />
<path d="M74030 71100
L74090 71130
L74200 71130
L74260 71100
L74290 71050
L74290 71020
L74260 70960
L74200 70940
L74120 70940
L74060 70910
L74030 70850
L74030 70820
L74060 70770
L74120 70740
L74200 70740
L74260 70770
" />
<path d="M74460 70740
L74680 70740
" />
<path d="M74540 70540
L74540 71050
L74570 71100
L74620 71130
L74680 71130
" />
<path d="M74880 71130
L74880 70740
" />
<path d="M74880 70850
L74910 70790
L74940 70770
L74990 70740
L75050 70740
" />
<path d="M75250 71130
L75250 70740
" />
<path d="M75250 70540
L75220 70570
L75250 70600
L75280 70570
L75250 70540
L75250 70600
" />
<path d="M75760 71100
L75700 71130
L75590 71130
L75530 71100
L75500 71050
L75500 70820
L75530 70770
L75590 70740
L75700 70740
L75760 70770
L75780 70820
L75780 70880
L75500 70940
" />
<path d="M76010 71100
L76070 71130
L76180 71130
L76240 71100
L76270 71050
L76270 71020
L76240 70960
L76180 70940
L76100 70940
L76040 70910
L76010 70850
L76010 70820
L76040 70770
L76100 70740
L76180 70740
L76240 70770
" />
</g>
<g style="fill:#840000; fill-opacity:0.0; 
stroke:#840000; stroke-width:100; stroke-opacity:1; 
stroke-linecap:round; stroke-linejoin:round;">
</g>
<g style="fill:#840000; fill-opacity:0.0; 
stroke:#840000; stroke-width:60; stroke-opacity:1; 
stroke-linecap:round; stroke-linejoin:round;">
<path d="M77560 75400
L77560 76580
" />
</g>
<g style="fill:#840000; fill-opacity:0.0; 
stroke:#840000; stroke-width:100; stroke-opacity:1; 
stroke-linecap:round; stroke-linejoin:round;">
</g>
<g style="fill:#840000; fill-opacity:0.0; 
stroke:#840000; stroke-width:60; stroke-opacity:1; 
stroke-linecap:round; stroke-linejoin:round;">
<path d="M102760 75400
L102760 77960
" />
</g>
<g style="fill:#840000; fill-opacity:0.0; 
stroke:#840000; stroke-width:0; stroke-opacity:1; 
stroke-linecap:round; stroke-linejoin:round;">
</g>
<g style="fill:#840000; fill-opacity:0.0; 
stroke:#840000; stroke-width:120; stroke-opacity:1; 
stroke-linecap:round; stroke-linejoin:round;">
<rect x="43600" y="32500" width="800" height="3000" rx="0" />
</g>
<g style="fill:#840000; fill-opacity:0.0; 
stroke:#840000; stroke-width:60; stroke-opacity:1; 
stroke-linecap:round; stroke-linejoin:round;">
<path d="M44000 32500
L44000 31500
" />
</g>
<g style="fill:#008484; fill-opacity:0.0; 
stroke:#008484; stroke-width:60; stroke-opacity:1; 
stroke-linecap:round; stroke-linejoin:round;">
<path d="M44000 35500
L44000 36500
" />
</g>
<g style="fill:#008484; fill-opacity:0.0; 
stroke:#008484; stroke-width:60; stroke-opacity:1; 
stroke-linecap:round; stroke-linejoin:round;">
<path d="M44950 34070
L44760 34200
" />
<path d="M44950 34290
L44550 34290
L44550 34140
L44570 34100
L44590 34090
L44630 34070
L44680 34070
L44720 34090
L44740 34100
L44760 34140
L44760 34290
" />
<path d="M44950 33690
L44950 33910
" />
<path d="M44950 33800
L44550 33800
L44610 33840
L44650 33880
L44670 33910
" />
<path d="M44220 35140
L43820 35140
L44220 34920
L43820 34920
" />
<path d="M43820 34780
L43820 34550
" />
<path d="M44220 34670
L43820 34670
" />
<path d="M44180 34200
L44200 34220
L44220 34270
L44220 34310
L44200 34370
L44160 34410
L44130 34420
L44050 34440
L43990 34440
L43920 34420
L43880 34410
L43840 34370
L43820 34310
L43820 34270
L43840 34220
L43860 34200
" />
<path d="M44220 33520
L44220 33740
" />
<path d="M44220 33630
L43820 33630
L43880 33670
L43920 33710
L43940 33740
" />
<path d="M43820 33270
L43820 33230
L43840 33190
L43860 33170
L43900 33150
L43970 33140
L44070 33140
L44140 33150
L44180 33170
L44200 33190
L44220 33230
L44220 33270
L44200 33310
L44180 33330
L44140 33340
L44070 33360
L43970 33360
L43900 33340
L43860 33330
L43840 33310
L43820 33270
" />
<path d="M44220 32960
L43820 32960
" />
<path d="M44070 32930
L44220 32810
" />
<path d="M43950 32810
L44110 32960
" />
</g>
<g style="fill:#008484; fill-opacity:0.0; 
stroke:#008484; stroke-width:0; stroke-opacity:1; 
stroke-linecap:round; stroke-linejoin:round;">
</g>
<g style="fill:#840000; fill-opacity:0.0; 
stroke:#840000; stroke-width:120; stroke-opacity:1; 
stroke-linecap:round; stroke-linejoin:round;">
<rect x="43600" y="39500" width="800" height="3000" rx="0" />
</g>
<g style="fill:#840000; fill-opacity:0.0; 
stroke:#840000; stroke-width:60; stroke-opacity:1; 
stroke-linecap:round; stroke-linejoin:round;">
<path d="M44000 39500
L44000 38500
" />
</g>
<g style="fill:#008484; fill-opacity:0.0; 
stroke:#008484; stroke-width:60; stroke-opacity:1; 
stroke-linecap:round; stroke-linejoin:round;">
<path d="M44000 42500
L44000 43500
" />
</g>
<g style="fill:#008484; fill-opacity:0.0; 
stroke:#008484; stroke-width:60; stroke-opacity:1; 
stroke-linecap:round; stroke-linejoin:round;">
<path d="M44950 41070
L44760 41200
" />
<path d="M44950 41290
L44550 41290
L44550 41140
L44570 41100
L44590 41090
L44630 41070
L44680 41070
L44720 41090
L44740 41100
L44760 41140
L44760 41290
" />
<path d="M44590 40910
L44570 40890
L44550 40860
L44550 40760
L44570 40720
L44590 40700
L44630 40690
L44670 40690
L44720 40700
L44950 40930
L44950 40690
" />
<path d="M44220 41230
L44220 41450
" />
<path d="M44220 41340
L43820 41340
L43880 41380
L43920 41420
L43940 41450
" />
<path d="M43820 40980
L43820 40940
L43840 40900
L43860 40880
L43900 40860
L43970 40850
L44070 40850
L44140 40860
L44180 40880
L44200 40900
L44220 40940
L44220 40980
L44200 41020
L44180 41040
L44140 41050
L44070 41070
L43970 41070
L43900 41050
L43860 41040
L43840 41020
L43820 40980
" />
<path d="M44220 40670
L43820 40670
" />
<path d="M44070 40640
L44220 40520
" />
<path d="M43950 40520
L44110 40670
" />
</g>
<g style="fill:#008484; fill-opacity:0.0; 
stroke:#008484; stroke-width:0; stroke-opacity:1; 
stroke-linecap:round; stroke-linejoin:round;">
</g>
<g style="fill:#840000; fill-opacity:0.0; 
stroke:#840000; stroke-width:200; stroke-opacity:1; 
stroke-linecap:round; stroke-linejoin:round;">
<polyline fill="none;"
points="40700,41300
42300,41300
" /> 
<polyline fill="none;"
points="40700,40700
42300,40700
" /> 
</g>
<g style="fill:#840000; fill-opacity:0.0; 
stroke:#840000; stroke-width:60; stroke-opacity:1; 
stroke-linecap:round; stroke-linejoin:round;">
<path d="M41500 40700
L41500 39000
" />
</g>
<g style="fill:#008484; fill-opacity:0.0; 
stroke:#008484; stroke-width:60; stroke-opacity:1; 
stroke-linecap:round; stroke-linejoin:round;">
<path d="M41500 41300
L41500 43000
" />
</g>
<g style="fill:#008484; fill-opacity:0.0; 
stroke:#008484; stroke-width:60; stroke-opacity:1; 
stroke-linecap:round; stroke-linejoin:round;">
<path d="M41820 40110
L41800 40130
L41750 40150
L41710 40150
L41650 40130
L41610 40090
L41600 40060
L41580 39980
L41580 39920
L41600 39850
L41610 39810
L41650 39770
L41710 39750
L41750 39750
L41800 39770
L41820 39790
" />
<path d="M42170 39880
L42170 40150
" />
<path d="M42070 39730
L41980 40020
L42220 40020
" />
<path d="M42580 40150
L42360 40150
" />
<path d="M42470 40150
L42470 39750
L42430 39810
L42390 39850
L42360 39870
" />
<path d="M41640 41640
L41660 41620
L41690 41600
L41790 41600
L41830 41620
L41850 41640
L41860 41680
L41860 41720
L41850 41770
L41620 42000
L41860 42000
" />
<path d="M42040 41960
L42050 41980
L42040 42000
L42020 41980
L42040 41960
L42040 42000
" />
<path d="M42210 41640
L42230 41620
L42260 41600
L42360 41600
L42400 41620
L42420 41640
L42430 41680
L42430 41720
L42420 41770
L42190 42000
L42430 42000
" />
<path d="M42780 41730
L42780 42000
" />
<path d="M42610 41730
L42610 41940
L42620 41980
L42660 42000
L42720 42000
L42760 41980
L42780 41960
" />
</g>
<g style="fill:#008484; fill-opacity:0.0; 
stroke:#008484; stroke-width:0; stroke-opacity:1; 
stroke-linecap:round; stroke-linejoin:round;">
</g>
<g style="fill:#840000; fill-opacity:0.0; 
stroke:#840000; stroke-width:60; stroke-opacity:1; 
stroke-linecap:round; stroke-linejoin:round;">
<circle cx="44000" cy="29750" r="250" /> 
<polyline fill="none;"
points="44000,30500
44000,30000
" /> 
</g>
<g style="fill:#008484; fill-opacity:0.0; 
stroke:#008484; stroke-width:50; stroke-opacity:1; 
stroke-linecap:round; stroke-linejoin:round;">
<path d="M43600 29320
L43700 29620
L43800 29320
" />
<path d="M44070 29590
L44060 29600
L44020 29620
L43990 29620
L43940 29600
L43920 29570
L43900 29540
L43890 29490
L43890 29440
L43900 29390
L43920 29360
L43940 29330
L43990 29320
L44020 29320
L44060 29330
L44070 29340
" />
<path d="M44370 29590
L44360 29600
L44320 29620
L44290 29620
L44240 29600
L44220 29570
L44200 29540
L44190 29490
L44190 29440
L44200 29390
L44220 29360
L44240 29330
L44290 29320
L44320 29320
L44360 29330
L44370 29340
" />
</g>
<g style="fill:#008484; fill-opacity:0.0; 
stroke:#008484; stroke-width:0; stroke-opacity:1; 
stroke-linecap:round; stroke-linejoin:round;">
</g>
<g style="fill:#840000; fill-opacity:0.0; 
stroke:#840000; stroke-width:60; stroke-opacity:1; 
stroke-linecap:round; stroke-linejoin:round;">
<polyline fill="none;"
points="43500,46000
44000,46500
44500,46000
43500,46000
" /> 
</g>
<g style="fill:#008400; fill-opacity:0.0; 
stroke:#008400; stroke-width:60; stroke-opacity:1; 
stroke-linecap:round; stroke-linejoin:round;">
<path d="M44000 43500
L44000 46000
" />
<path d="M41500 43000
L41500 44500
" />
<path d="M41500 44500
L44000 44500
" />
</g>
<g style="fill:#008400; fill-opacity:0.0; 
stroke:#008400; stroke-width:0; stroke-opacity:1; 
stroke-linecap:round; stroke-linejoin:round;">
</g>
<g style="fill:#008400; fill-opacity:1.0; 
stroke:#008400; stroke-width:100; stroke-opacity:1; 
stroke-linecap:round; stroke-linejoin:round;">
<circle cx="44000" cy="44500" r="200" /> 
</g>
<g style="fill:#008400; fill-opacity:1.0; 
stroke:#008400; stroke-width:60; stroke-opacity:1; 
stroke-linecap:round; stroke-linejoin:round;">
</g>
<g style="fill:#008400; fill-opacity:0.0; 
stroke:#008400; stroke-width:60; stroke-opacity:1; 
stroke-linecap:round; stroke-linejoin:round;">
<path d="M44000 36500
L44000 38500
" />
<path d="M41500 37500
L45500 37500
" />
<path d="M41500 37500
L41500 39000
" />
</g>
<g style="fill:#008400; fill-opacity:0.0; 
stroke:#008400; stroke-width:0; stroke-opacity:1; 
stroke-linecap:round; stroke-linejoin:round;">
</g>
<g style="fill:#008400; fill-opacity:1.0; 
stroke:#008400; stroke-width:100; stroke-opacity:1; 
stroke-linecap:round; stroke-linejoin:round;">
<circle cx="44000" cy="37500" r="200" /> 
</g>
<g style="fill:#008400; fill-opacity:1.0; 
stroke:#008400; stroke-width:60; stroke-opacity:1; 
stroke-linecap:round; stroke-linejoin:round;">
</g>
<g style="fill:#008400; fill-opacity:0.0; 
stroke:#008400; stroke-width:60; stroke-opacity:1; 
stroke-linecap:round; stroke-linejoin:round;">
<path d="M44000 30500
L44000 31500
" />
</g>
<g style="fill:#848400; fill-opacity:0.0; 
stroke:#848400; stroke-width:60; stroke-opacity:1; 
stroke-linecap:round; stroke-linejoin:round;">
<path d="M46320 37170
L46660 37170
" />
<path d="M46490 37770
L46490 37170
" />
<path d="M47090 37740
L47030 37770
L46920 37770
L46860 37740
L46830 37690
L46830 37460
L46860 37400
L46920 37370
L47030 37370
L47090 37400
L47120 37460
L47120 37510
L46830 37570
" />
<path d="M47370 37770
L47370 37370
" />
<path d="M47370 37430
L47400 37400
L47460 37370
L47540 37370
L47600 37400
L47630 37460
L47630 37770
" />
<path d="M47630 37460
L47660 37400
L47720 37370
L47800 37370
L47860 37400
L47890 37460
L47890 37770
" />
<path d="M48170 37370
L48170 37970
" />
<path d="M48170 37400
L48230 37370
L48340 37370
L48400 37400
L48430 37430
L48460 37490
L48460 37660
L48430 37710
L48400 37740
L48340 37770
L48230 37770
L48170 37740
" />
</g>
<g style="fill:#848400; fill-opacity:0.0; 
stroke:#848400; stroke-width:100; stroke-opacity:1; 
stroke-linecap:round; stroke-linejoin:round;">
<polyline fill="none;"
points="45500,37500
45800,37800
46100,37800
46100,37200
45800,37200
45500,37500
" /> 
</g> 
</svg>
